<svg xmlns="http://www.w3.org/2000/svg" viewBox="0 0 120 120"><rect x="27.17" y="26.96" width="22.52" height="79.12" style="fill:#f2f2f2"/><rect x="72.09" y="26.96" width="22.63" height="79.12" style="fill:#f2f2f2"/><rect x="4.65" y="68.97" width="10.88" height="19.65" style="fill:#e5593f"/><rect x="4.65" y="37.37" width="108.84" height="19.65" style="fill:#e5593f"/><path d="M4.45,116.32a.49.49,0,0,0-.42-.19c-.17,0-.43.06-.43.29s.19.22.43.26.55.1.55.4-.32.4-.55.4a.64.64,0,0,1-.58-.31h.1a.52.52,0,0,0,.48.26c.17,0,.44,0,.44-.3s-.23-.25-.46-.3-.52-.1-.52-.36A.55.55,0,0,1,4,116a.54.54,0,0,1,.51.24Z"/><path d="M4.69,117a.51.51,0,0,1,1-.2.67.67,0,0,1,0,.2.51.51,0,0,1-1,.2A.67.67,0,0,1,4.69,117Zm.91,0a.41.41,0,0,0-.34-.47.42.42,0,0,0-.47.34.29.29,0,0,0,0,.13.41.41,0,0,0,.34.47.42.42,0,0,0,.47-.34A.29.29,0,0,0,5.6,117Z"/><path d="M6.66,117.45v-.17a.44.44,0,0,1-.8-.18v-.64H6V117a.31.31,0,0,0,.28.34h.07A.34.34,0,0,0,6.7,117v-.58h.1v1Z"/><path d="M7.09,116.47v.17a.41.41,0,0,1,.54-.13v.08a.49.49,0,0,0-.17,0,.32.32,0,0,0-.32.32h0v.57H7v-1Z"/><path d="M8.48,117.32a.49.49,0,0,1-.36.15.5.5,0,0,1-.4-.6.51.51,0,0,1,.4-.4.49.49,0,0,1,.36.15l-.06.06a.42.42,0,1,0-.3.72.47.47,0,0,0,.3-.12Z"/><path d="M8.55,117a.5.5,0,0,1,.49-.51h0a.46.46,0,0,1,.5.42.71.71,0,0,1,0,.14H8.65a.39.39,0,0,0,.4.36.44.44,0,0,0,.36-.15l.07.06a.52.52,0,0,1-.43.19.49.49,0,0,1-.5-.48Zm.9,0a.36.36,0,0,0-.34-.38H9.05a.4.4,0,0,0-.4.38Z"/><path d="M9.85,116.79a.07.07,0,0,1,0,.1.07.07,0,0,1-.1,0,.06.06,0,0,1,0-.06.09.09,0,0,1,.1-.05A.12.12,0,0,1,9.85,116.79Zm0,.6a.07.07,0,0,1,0,.1.07.07,0,0,1-.1,0,.06.06,0,0,1,0-.06.09.09,0,0,1,.1,0A.12.12,0,0,1,9.85,117.39Z"/><path d="M10.67,116.7h.82v.1h-.82v.55h.89v.1h-1v-1.4h1v.11H10.7Z"/><path d="M11.83,116.47v.17a.42.42,0,0,1,.36-.19.41.41,0,0,1,.44.38v.62h-.1v-.56a.32.32,0,0,0-.29-.35h-.06a.35.35,0,0,0-.34.36h0v.55h-.1v-1Z"/><path d="M12.8,117a.49.49,0,0,1,.47-.51h0a.46.46,0,0,1,.5.42.71.71,0,0,1,0,.14H12.9a.39.39,0,0,0,.4.36.48.48,0,0,0,.36-.15l.07.06a.52.52,0,0,1-.43.19.49.49,0,0,1-.5-.48Zm.9,0a.36.36,0,0,0-.34-.38H13.3a.4.4,0,0,0-.4.38Z"/><path d="M14.05,116.47v.17a.38.38,0,0,1,.33-.18.31.31,0,0,1,.21.05v.08a.49.49,0,0,0-.17,0,.32.32,0,0,0-.32.32h0v.57H14v-1Z"/><path d="M15.49,116.42h.07l-.1.12a.47.47,0,0,1-.18.77.31.31,0,0,1,.31.33c0,.19-.24.36-.5.36a.44.44,0,0,1-.49-.4h.1c0,.21.19.3.39.3s.4-.07.4-.26-.22-.28-.4-.28a.46.46,0,0,1-.51-.41v-.07a.49.49,0,0,1,.5-.48h0a.53.53,0,0,1,.3.09Zm-.81.51a.37.37,0,0,0,.35.39h.06a.38.38,0,0,0,.41-.37v0a.38.38,0,0,0-.37-.39h0a.38.38,0,0,0-.41.37Z"/><path d="M16.59,116.47,16,117.93h-.11l.21-.49-.39-1h.1L16,117l.12.28.11-.28.25-.58Z"/><path d="M18.06,116.32a.5.5,0,0,0-.43-.19c-.16,0-.42.06-.42.29s.19.22.43.26.55.1.55.4-.32.4-.56.4a.64.64,0,0,1-.57-.31h.1a.56.56,0,0,0,.47.26c.18,0,.45,0,.45-.3s-.23-.25-.46-.3-.52-.1-.52-.36.3-.39.53-.39a.57.57,0,0,1,.52.24Z"/><path d="M19.31,116.47v1h-.1v-.21a.49.49,0,0,1-.41.23.5.5,0,0,1-.4-.6.51.51,0,0,1,.4-.4.49.49,0,0,1,.41.23v-.21Zm-.91.49a.38.38,0,0,0,.37.41h0a.41.41,0,1,0,0-.82h0a.38.38,0,0,0-.4.38s0,0,0,.07Z"/><path d="M20.4,116.42h.07l-.11.12a.48.48,0,0,1,.14.34.43.43,0,0,1-.31.43.33.33,0,0,1,.3.33c0,.23-.23.36-.49.36a.44.44,0,0,1-.49-.4h.1c0,.21.19.3.39.3s.4-.07.4-.26-.22-.28-.4-.28a.46.46,0,0,1-.51-.41v-.07a.49.49,0,0,1,.5-.48h0a.53.53,0,0,1,.3.09Zm-.82.51a.37.37,0,0,0,.35.39H20a.38.38,0,0,0,.41-.37v0a.38.38,0,0,0-.37-.39h0a.4.4,0,0,0-.42.38Z"/><path d="M20.62,117a.49.49,0,0,1,.47-.51h0a.47.47,0,0,1,.5.44.49.49,0,0,1,0,.12h-.89a.38.38,0,0,0,.4.36h0a.44.44,0,0,0,.35-.15l.07.06a.52.52,0,0,1-.92-.29Zm.9,0a.36.36,0,0,0-.34-.38h-.06a.38.38,0,0,0-.4.38h.8Z"/><path d="M3.36,110.92a.59.59,0,1,1,1.18,0v.25a.59.59,0,1,1-1.18,0h0Zm.23.25a.36.36,0,0,0,.72,0v-.25a.36.36,0,0,0-.72,0h0Z"/><path d="M22.94,110.65a.42.42,0,0,0-.35-.15c-.16,0-.34.06-.34.22s.16.17.35.2.59.1.59.42a.46.46,0,0,1-.48.43v.2h-.22v-.19a.63.63,0,0,1-.52-.32l.19-.1a.49.49,0,0,0,.43.22c.17,0,.37,0,.37-.24s-.18-.19-.38-.22-.55-.09-.55-.4.23-.38.46-.41v-.18h.22v.18a.51.51,0,0,1,.41.25Z"/><path d="M23.64,111.12v-.18h.21c.17,0,.32-.07.32-.2s-.08-.21-.32-.21-.32,0-.32.2h-.22c0-.3.29-.4.54-.4s.54.13.54.41a.3.3,0,0,0,0,.59c0,.32-.28.44-.57.44s-.57-.11-.57-.42h.23c0,.17.21.21.34.21s.34-.07.34-.22-.07-.22-.33-.22Z"/><path d="M24.57,110.92a.59.59,0,0,1,.51-.66.59.59,0,0,1,.66.51.38.38,0,0,1,0,.15v.25a.59.59,0,0,1-.51.66.59.59,0,0,1-.66-.51.38.38,0,0,1,0-.15Zm.22.25a.36.36,0,1,0,.72,0h0v-.25a.36.36,0,0,0-.72,0h0Z"/><path d="M25.89,110.92a.59.59,0,0,1,.51-.66.59.59,0,0,1,.66.51.38.38,0,0,1,0,.15v.25a.59.59,0,0,1-.51.66.59.59,0,0,1-.66-.51.38.38,0,0,1,0-.15Zm.22.25a.36.36,0,0,0,.72,0h0v-.25a.36.36,0,0,0-.72,0h0Z"/><path d="M45.42,110.65a.42.42,0,0,0-.35-.15c-.16,0-.34.06-.34.22s.17.17.35.2.59.1.59.42a.46.46,0,0,1-.48.43v.2H45v-.19a.62.62,0,0,1-.53-.32l.19-.1a.49.49,0,0,0,.43.22c.17,0,.37,0,.37-.24s-.18-.19-.38-.22-.55-.09-.55-.4.23-.38.47-.41v-.18h.21v.18a.51.51,0,0,1,.41.25Z"/><path d="M46,111a.45.45,0,0,1,.36-.16c.28,0,.57.12.57.46s-.29.46-.57.46-.58-.15-.58-.46v-.55c0-.3.29-.44.57-.44s.56.12.56.4h-.22c0-.13-.16-.2-.33-.2s-.36.07-.36.24Zm.71.3c0-.17-.17-.26-.35-.26s-.36.09-.35.26.17.25.35.25.37-.06.37-.24Z"/><path d="M47.08,110.92a.59.59,0,0,1,.51-.66.59.59,0,0,1,.66.51.38.38,0,0,1,0,.15v.25a.59.59,0,0,1-.51.66.59.59,0,0,1-.66-.51.38.38,0,0,1,0-.15Zm.23.25a.36.36,0,1,0,.72,0v-.25a.36.36,0,1,0-.72,0Z"/><path d="M48.4,110.92a.59.59,0,0,1,.51-.66.59.59,0,0,1,.66.51.38.38,0,0,1,0,.15v.25a.59.59,0,0,1-.51.66.59.59,0,0,1-.66-.51.38.38,0,0,1,0-.15Zm.23.25a.36.36,0,0,0,.72,0v-.25a.36.36,0,0,0-.72,0Z"/><path d="M67.94,110.65a.42.42,0,0,0-.35-.15c-.17,0-.35.06-.34.22s.16.17.35.2.59.1.59.42-.24.41-.49.43v.2h-.21v-.19a.62.62,0,0,1-.52-.32l.19-.1a.47.47,0,0,0,.42.22c.18,0,.38,0,.38-.24s-.19-.19-.38-.22-.56-.09-.56-.4.24-.38.47-.41v-.18h.22v.18a.51.51,0,0,1,.41.25Z"/><path d="M69.21,111.07a.42.42,0,0,1-.36.17c-.28,0-.57-.12-.57-.46a.51.51,0,0,1,.55-.46h0c.28,0,.58.15.58.46v.55c0,.3-.28.44-.57.44s-.56-.12-.57-.4h.23c0,.13.17.2.34.2s.35-.08.35-.24Zm-.71-.29c0,.18.17.26.35.26s.36-.09.36-.26-.18-.26-.36-.26S68.5,110.6,68.5,110.78Z"/><path d="M69.6,110.92a.59.59,0,0,1,.51-.66.59.59,0,0,1,.66.51.38.38,0,0,1,0,.15v.25a.59.59,0,0,1-.51.66.59.59,0,0,1-.66-.51.38.38,0,0,1,0-.15Zm.23.25a.36.36,0,0,0,.72,0v-.25a.36.36,0,0,0-.72,0Z"/><path d="M70.92,110.92a.59.59,0,0,1,.51-.66.59.59,0,0,1,.66.51.38.38,0,0,1,0,.15v.25a.59.59,0,0,1-.51.66.59.59,0,0,1-.66-.51.38.38,0,0,1,0-.15Zm.23.25a.36.36,0,0,0,.72,0v-.25a.36.36,0,0,0-.72,0Z"/><path d="M89.7,110.65a.38.38,0,0,0-.34-.15c-.17,0-.35.06-.35.22s.17.17.35.2.59.1.59.42-.23.41-.48.43v.2h-.21v-.19a.62.62,0,0,1-.52-.32l.19-.1a.47.47,0,0,0,.42.22c.18,0,.37,0,.37-.24s-.18-.19-.38-.22-.55-.09-.55-.4.24-.38.47-.41v-.18h.21v.18a.52.52,0,0,1,.42.25Z"/><path d="M90.05,111.56h.25v-.94l-.24.07v-.2l.46-.14v1.21h.25v.19h-.72Z"/><path d="M90.86,110.75c0-.33.31-.42.57-.42s.54.1.54.42-.27.43-.55.43-.35,0-.35.21v.15H92v.21H90.85v-.36c0-.32.29-.41.57-.41.12,0,.33,0,.33-.22s-.15-.23-.32-.24-.34.06-.35.23Z"/><path d="M92.12,110.92a.59.59,0,0,1,.51-.66.59.59,0,0,1,.66.51.38.38,0,0,1,0,.15v.25a.59.59,0,0,1-.51.66.59.59,0,0,1-.66-.51.38.38,0,0,1,0-.15Zm.23.25a.36.36,0,0,0,.72,0v-.25a.36.36,0,0,0-.72,0Z"/><path d="M93.44,110.92a.59.59,0,0,1,.51-.66.59.59,0,0,1,.66.51.38.38,0,0,1,0,.15v.25a.59.59,0,0,1-.51.66.59.59,0,0,1-.66-.51.38.38,0,0,1,0-.15Zm.23.25a.36.36,0,0,0,.72,0v-.25a.36.36,0,0,0-.72,0Z"/><path d="M112.26,110.65a.38.38,0,0,0-.34-.15c-.17,0-.35.06-.35.22s.17.17.35.2.59.1.59.42a.46.46,0,0,1-.48.43v.2h-.21v-.19a.6.6,0,0,1-.52-.32l.19-.1a.45.45,0,0,0,.42.22c.18,0,.37,0,.37-.24s-.18-.19-.38-.22-.55-.09-.55-.4.24-.38.47-.41v-.18H112v.18a.51.51,0,0,1,.41.25Z"/><path d="M112.61,111.56h.25v-.94l-.24.07v-.2l.46-.14v1.21h.25v.19h-.72Z"/><path d="M114.44,110.56h-.79v.29H114c.32,0,.55.15.55.45s-.25.46-.55.46-.56-.1-.56-.43h.22c0,.18.19.22.34.22s.32-.08.32-.25-.13-.24-.32-.24h-.53v-.71h1Z"/><path d="M114.64,110.92a.59.59,0,0,1,.51-.66.59.59,0,0,1,.66.51.38.38,0,0,1,0,.15v.25a.59.59,0,0,1-.51.66.59.59,0,0,1-.66-.51.38.38,0,0,1,0-.15Zm.22.25a.38.38,0,0,0,.3.43.38.38,0,0,0,.43-.31.24.24,0,0,0,0-.12v-.25a.38.38,0,0,0-.3-.43.38.38,0,0,0-.43.31.24.24,0,0,0,0,.12Z"/><path d="M116,110.92a.59.59,0,0,1,.51-.66.59.59,0,0,1,.66.51.38.38,0,0,1,0,.15v.25a.59.59,0,0,1-.51.66.59.59,0,0,1-.66-.51.38.38,0,0,1,0-.15Zm.22.25a.38.38,0,0,0,.3.43.38.38,0,0,0,.43-.31.24.24,0,0,0,0-.12v-.25a.38.38,0,0,0-.3-.43.38.38,0,0,0-.43.31.24.24,0,0,0,0,.12Z"/><path d="M29.46,8.28H27.84l-.29.65h-.3l1.26-2.8h.28L30,8.93h-.29ZM28,8h1.4l-.7-1.59Z"/><path d="M31.46,6.37V7h.64v.23h-.64V8.3c0,.25.07.41.34.41a1,1,0,0,0,.29-.07l.08.22a.86.86,0,0,1-.38.1c-.42,0-.59-.25-.59-.66V7.19h-.41V7h.41V6.4Z"/><path d="M34.12,7,32.87,9.87h-.29l.41-1L32.2,7h.3l.42,1,.22.57L33.36,8l.46-1Z"/><path d="M34.39,9.87V7h.26v.42a.88.88,0,0,1,.8-.45,1,1,0,0,1,0,2,.87.87,0,0,1-.78-.44V9.87Zm1.77-1.93a.7.7,0,0,0-.64-.76h-.1a.72.72,0,0,0-.74.7v.06a.74.74,0,0,0,.69.77h.05A.71.71,0,0,0,36.16,8Z"/><path d="M37.1,6.33a.19.19,0,1,1-.19-.19A.2.2,0,0,1,37.1,6.33Zm-.33.61v2H37v-2Z"/><path d="M39.14,8.66a1,1,0,0,1-.74.3,1,1,0,1,1,0-2,1,1,0,0,1,.7.29l-.17.18a.73.73,0,0,0-.52-.22.74.74,0,0,0-.77.71V8a.74.74,0,0,0,.69.77h.07a.8.8,0,0,0,.6-.27Z"/><path d="M41,7h.25V9H41V8.54a.91.91,0,0,1-.78.43,1,1,0,1,1,0-2,.87.87,0,0,1,.78.42ZM39.48,8a.74.74,0,0,0,.7.78h0a.78.78,0,0,0,0-1.55.74.74,0,0,0-.73.71Z"/><path d="M42,6.13v2.8h-.27V6.13Z"/><path d="M45.26,8.28H43.64l-.29.65h-.3l1.26-2.8h.28l1.25,2.8h-.29ZM43.75,8h1.4l-.7-1.59Z"/><path d="M47.51,8.93V7.78a.58.58,0,1,0-1.16,0h0V8.93h-.27V7h.25v.31A.67.67,0,0,1,47,6.92a.67.67,0,0,1,.69.45.74.74,0,0,1,.71-.45.8.8,0,0,1,.84.76V8.93H49V7.78a.56.56,0,0,0-.51-.61H48.4a.58.58,0,0,0-.58.58V8.93Z"/><path d="M49.78,8.05a.71.71,0,0,0,.75.66.94.94,0,0,0,.67-.27l.18.16a1.11,1.11,0,0,1-.85.36,1,1,0,1,1,0-2,.92.92,0,0,1,1,.81.87.87,0,0,1,0,.32Zm1.47-.23a.66.66,0,0,0-.66-.66h-.07a.72.72,0,0,0-.74.66Z"/><path d="M52.07,7v.33a.74.74,0,0,1,1.07-.22L53,7.28a.67.67,0,0,0-.34-.1.61.61,0,0,0-.61.61V8.93h-.27V7Z"/><path d="M53.66,6.33a.19.19,0,1,1-.19-.19A.2.2,0,0,1,53.66,6.33Zm-.33.61v2h.27v-2Z"/><path d="M55.7,8.66a1,1,0,1,1,0-1.37l-.18.18a.72.72,0,0,0-1.3.41v.06a.74.74,0,0,0,.69.77H55a.76.76,0,0,0,.55-.23Z"/><path d="M57.58,7h.25V9h-.25V8.54A.91.91,0,0,1,56.8,9a1,1,0,0,1,0-2,.83.83,0,0,1,.78.42ZM56.06,8a.74.74,0,0,0,.7.78h.05a.78.78,0,0,0,0-1.55.74.74,0,0,0-.75.71Z"/><path d="M59.86,8.93V7.82a.59.59,0,0,0-.52-.65h-.13a.65.65,0,0,0-.64.66v1.1H58.3V7h.25v.33A.79.79,0,0,1,59.24,7a.81.81,0,0,1,.88.75.75.75,0,0,1,0,.15V8.93Z"/><path d="M61.59,8.93V7.21H61.2V7h.39V6.81c0-.43.21-.7.63-.7a.76.76,0,0,1,.43.14l-.12.2a.63.63,0,0,0-.3-.1c-.23,0-.37.14-.37.46V7h.63v.24h-.63V8.93Z"/><path d="M64.3,7h.26V9h-.25V8.54a.91.91,0,0,1-.79.43,1,1,0,1,1,0-2,.84.84,0,0,1,.77.42ZM62.78,8a.76.76,0,0,0,.72.78h0a.78.78,0,0,0,0-1.55.75.75,0,0,0-.76.71Z"/><path d="M66.45,8.93V7.78a.58.58,0,1,0-1.16,0h0V8.93H65V7h.25v.31A.65.65,0,0,1,65.87,7a.67.67,0,0,1,.69.45A.74.74,0,0,1,67.27,7a.79.79,0,0,1,.83.75V8.93h-.26V7.78a.56.56,0,0,0-.51-.61h-.06a.58.58,0,0,0-.58.58V8.93Z"/><path d="M68.91,6.33a.19.19,0,1,1-.38,0h0a.2.2,0,0,1,.19-.19A.19.19,0,0,1,68.91,6.33Zm-.33.61v2h.27v-2Z"/><path d="M69.6,6.13v2.8h-.26V6.13Z"/><path d="M71.84,7,70.59,9.87H70.3l.42-1L69.92,7h.3l.42,1,.22.57L71.09,8l.46-1Z"/><path d="M74.79,7.94a1,1,0,1,1-1-1A1,1,0,0,1,74.79,7.94ZM73,7.94a.75.75,0,0,0,1.5,0h0a.75.75,0,1,0-1.5,0Z"/><path d="M76.69,8.93V7.82a.6.6,0,0,0-.52-.65h-.12a.65.65,0,0,0-.65.65V8.93h-.27V7h.26v.33A.79.79,0,0,1,76.07,7a.81.81,0,0,1,.88.75.75.75,0,0,1,0,.15V8.93Z"/><path d="M80,7h.25V9H80V8.54a.91.91,0,0,1-.78.43,1,1,0,1,1,0-2,.83.83,0,0,1,.78.42ZM78.48,8a.74.74,0,0,0,.7.78h0a.78.78,0,0,0,0-1.55.75.75,0,0,0-.8.68v0Z"/><path d="M82.44,7l-.83,2h-.3l-.83-2h.3l.68,1.69L82.14,7Z"/><path d="M82.78,8.05a.7.7,0,0,0,.74.66h0a.94.94,0,0,0,.67-.27l.18.16a1.11,1.11,0,0,1-.85.36,1,1,0,1,1,0-2,.92.92,0,0,1,1,.81.87.87,0,0,1,0,.32Zm1.46-.23a.66.66,0,0,0-.66-.66h-.06a.7.7,0,0,0-.74.66h1.46Z"/><path d="M85.06,7v.33A.65.65,0,0,1,85.69,7a.73.73,0,0,1,.45.14L86,7.28a.67.67,0,0,0-.34-.1.61.61,0,0,0-.61.61V8.93h-.27V7Z"/><path d="M87.91,7h.25V9h-.25V8.54a.88.88,0,0,1-.78.43,1,1,0,1,1,0-2,.83.83,0,0,1,.78.42ZM86.39,8a.74.74,0,0,0,.7.78h0a.78.78,0,0,0,0-1.55.74.74,0,0,0-.75.71Z"/><path d="M90.33,6.82l.19.15-.22.25a.9.9,0,0,1,.27.66.84.84,0,0,1-.6.82.68.68,0,0,1,.59.65c0,.5-.5.75-1,.75a.91.91,0,0,1-1-.81h.27c0,.37.35.55.73.55s.74-.14.74-.49-.37-.5-.74-.5a.94.94,0,0,1-1-.88V7.85a1,1,0,0,1,1-1,1.19,1.19,0,0,1,.58.15ZM88.78,7.88a.69.69,0,0,0,.66.72h.1a.73.73,0,0,0,.76-.7v0a.7.7,0,0,0-.68-.72h-.08a.71.71,0,0,0-.76.66Z"/><path d="M91.06,8.05a.71.71,0,0,0,.75.66.94.94,0,0,0,.67-.27l.18.16a1.11,1.11,0,0,1-.85.36,1,1,0,1,1,0-2,.93.93,0,0,1,1,.83,1,1,0,0,1,0,.3Zm1.47-.23a.66.66,0,0,0-.66-.66H91.8a.7.7,0,0,0-.74.66h1.47Z"/><path d="M27.49,13a1.16,1.16,0,0,0,.7.22c.13,0,.2,0,.2-.09s-.07-.1-.21-.11c-.39,0-.85-.17-.85-.65s.45-.64.91-.64a1.37,1.37,0,0,1,.81.23l-.31.44a1.25,1.25,0,0,0-.5-.11c-.1,0-.17,0-.17.09s0,.09.14.1c.41,0,.91.12.91.65s-.44.67-.92.67a1.89,1.89,0,0,1-.95-.26Z"/><path d="M30,14.55h-.73v-2.8h.65L30,12a.8.8,0,0,1,.65-.25.91.91,0,0,1,.91.89s0,.07,0,.11a1,1,0,0,1-1,1,.69.69,0,0,1-.55-.21Zm.78-1.81a.4.4,0,0,0-.79-.13.28.28,0,0,0,0,.13.41.41,0,0,0,.36.46h0a.39.39,0,0,0,.4-.4Z"/><path d="M33.7,13H32.32c0,.17.28.25.44.25a.75.75,0,0,0,.5-.16l.36.4a1.26,1.26,0,0,1-.89.33c-.63,0-1.16-.31-1.16-1a1,1,0,0,1,1-1h.11a1,1,0,0,1,1,.95A1.79,1.79,0,0,1,33.7,13Zm-.7-.52c0-.32-.67-.33-.72,0Z"/><path d="M35.23,13.73V12.64c0-.25-.15-.33-.28-.33a.34.34,0,0,0-.34.34v1h-.73v-2h.65v.22a.73.73,0,0,1,.62-.26c.41,0,.77.22.77.92v1.1Z"/><path d="M37.61,10.93h.74v2.8h-.66v-.21a.8.8,0,0,1-.65.24.91.91,0,0,1-.91-.89s0-.07,0-.11a1,1,0,0,1,1-1,.65.65,0,0,1,.54.21Zm-.77,1.81a.38.38,0,0,0,.33.43h.06a.4.4,0,0,0,.4-.4h0a.41.41,0,0,0-.37-.45h0a.37.37,0,0,0-.39.37Z"/><path d="M38.72,13a1.16,1.16,0,0,0,.7.22c.13,0,.2,0,.2-.09s-.06-.1-.21-.11c-.38,0-.84-.17-.84-.65s.44-.64.91-.64a1.37,1.37,0,0,1,.81.23L40,12.4a.93.93,0,0,0-.49-.11c-.11,0-.18,0-.18.09s0,.09.15.1c.41,0,.91.12.91.65s-.45.67-.92.67a1.85,1.85,0,0,1-1-.26Z"/><path d="M42.07,13.79a1.37,1.37,0,0,1-.9-.47l.43-.5a1.14,1.14,0,0,0,.82.31c.26,0,.44-.09.44-.25s-.16-.22-.47-.25c-.61-.06-1.14-.21-1.14-.91,0-.47.37-.73.82-.81v-.37h.68v.36a1.41,1.41,0,0,1,.72.31l-.39.5a1,1,0,0,0-.65-.2c-.2,0-.38.06-.38.21s.18.22.46.25c.56.06,1.14.28,1.14.93s-.41.8-.91.88h0v.39h-.68Z"/><path d="M43.81,13.13h.45V11.8l-.43.13v-.62L45,10.88v2.25h.42v.6H43.81Z"/><path d="M46,14.16h-.38l.08-.41a.24.24,0,0,1-.21-.27h0a.35.35,0,0,1,.38-.32h0a.33.33,0,0,1,.36.3v0A1.85,1.85,0,0,1,46,14.16Z"/><path d="M48.59,10.93v1.69h.3v.62h-.3v.49h-.74v-.49H46.42l-.05-.65,1.49-1.66Zm-.74,1.69v-.73l-.66.73Z"/><path d="M51.26,11.58H49.87v.33h.37c.62,0,1.17.17,1.17.92s-.62.93-1.15.93a1,1,0,0,1-1.17-1h.77a.35.35,0,0,0,.37.33h0c.12,0,.39-.05.39-.3s-.25-.3-.4-.3h-1.1v-1.6h2.12Z"/><path d="M51.59,12.16a1.27,1.27,0,0,1,2.53-.23.88.88,0,0,1,0,.23v.38a1.27,1.27,0,0,1-2.53,0Zm.77.38c0,.43.21.62.49.62s.5-.19.5-.62v-.38c0-.41-.21-.6-.49-.6s-.5.18-.5.6Z"/><path d="M56.58,11.75h.69v2h-.68v-.21a.8.8,0,0,1-.65.24.92.92,0,0,1-.9-.94v-.06a1,1,0,0,1,1-1,.66.66,0,0,1,.58.26Zm-.84,1a.38.38,0,0,0,.33.43h.06a.41.41,0,0,0,.41-.41v0a.39.39,0,0,0-.35-.43h-.06a.37.37,0,0,0-.39.37v.05Z"/><path d="M60.34,11.75l-1.22,2.81h-.77l.4-.92L58,11.75h.78l.17.48.21.68.24-.69.19-.47Z"/><path d="M62.32,13H60.94c.05.17.28.25.44.25a.79.79,0,0,0,.51-.16l.36.4a1.3,1.3,0,0,1-.9.33,1,1,0,1,1-.06-2.06,1,1,0,0,1,1.06.94A1.53,1.53,0,0,1,62.32,13Zm-.66-.47c0-.32-.67-.33-.72,0Z"/><path d="M64,11.75h.69v2H64v-.21a.8.8,0,0,1-.65.24.92.92,0,0,1-.9-.94v-.06a1,1,0,0,1,1-1A.66.66,0,0,1,64,12Zm-.84,1a.38.38,0,0,0,.33.43h.06a.41.41,0,0,0,.41-.41v0a.39.39,0,0,0-.35-.43h-.06a.38.38,0,0,0-.42.34v.08Z"/><path d="M65.6,11.75V12a.52.52,0,0,1,.48-.26.68.68,0,0,1,.52.21l-.3.53a.45.45,0,0,0-.33-.12.33.33,0,0,0-.34.32v1H64.9v-2Z"/><path d="M69.46,12.74a1.13,1.13,0,0,1-2.25,0,1.13,1.13,0,0,1,2.25,0Zm-.72,0a.41.41,0,0,0-.39-.43h0a.4.4,0,0,0-.4.4v0a.4.4,0,0,0,.37.43h0a.4.4,0,0,0,.41-.39Z"/><path d="M71,13.73V12.64c0-.25-.14-.33-.27-.33a.34.34,0,0,0-.34.34v1h-.73v-2h.65v.22a.79.79,0,0,1,.63-.26c.41,0,.77.22.77.92v1.1Z"/><path d="M74.72,13H73.34c0,.17.28.25.44.25a.79.79,0,0,0,.51-.16l.36.4a1.3,1.3,0,0,1-.9.33,1,1,0,0,1,0-2.06,1,1,0,0,1,1,1A1,1,0,0,1,74.72,13Zm-.66-.47c0-.32-.67-.33-.72,0Z"/><path d="M75.63,10.93v2.8H74.9v-2.8Z"/><path d="M77.92,13H76.54c0,.17.28.25.44.25a.79.79,0,0,0,.51-.16l.36.4a1.3,1.3,0,0,1-.9.33,1,1,0,0,1,0-2.06,1,1,0,0,1,1,1A1,1,0,0,1,77.92,13Zm-.66-.47c0-.32-.67-.33-.72,0Z"/><path d="M79.93,13.43a1.23,1.23,0,0,1-.81.34,1,1,0,0,1,0-2.06,1.13,1.13,0,0,1,.78.31l-.39.42a.48.48,0,0,0-.34-.14.41.41,0,0,0-.43.39v.06a.4.4,0,0,0,.39.41h0a.48.48,0,0,0,.37-.17Z"/><path d="M80.93,11.19v.58h.44v.56h-.45V13a.18.18,0,0,0,.17.19h0a.44.44,0,0,0,.22-.07l.16.54a1.12,1.12,0,0,1-.57.14c-.39,0-.75-.18-.73-.8v-.65h-.32v-.56h.32v-.5Z"/><path d="M82.25,11.75V12a.52.52,0,0,1,.48-.26.68.68,0,0,1,.52.21l-.29.53a.47.47,0,0,0-.34-.12.33.33,0,0,0-.34.32v1h-.73v-2Z"/><path d="M83.69,10.87a.38.38,0,0,1,.41.37h0a.42.42,0,0,1-.48.35.42.42,0,0,1-.35-.35.38.38,0,0,1,.4-.38Zm.37,2.86v-2h-.74v2Z"/><path d="M86.16,13.43a1.24,1.24,0,0,1-.82.34,1,1,0,0,1-1.11-.87.57.57,0,0,1,0-.13,1,1,0,0,1,1-1h.12a1,1,0,0,1,.77.31l-.39.42a.48.48,0,0,0-.34-.14.41.41,0,0,0-.43.39v.06a.4.4,0,0,0,.39.41h0a.48.48,0,0,0,.37-.17Z"/><path d="M86.62,10.87a.38.38,0,0,1,.41.37h0a.42.42,0,0,1-.48.35.42.42,0,0,1-.35-.35.38.38,0,0,1,.4-.38ZM87,13.73v-2h-.74v2Z"/><path d="M88.16,11.19v.58h.45v.56h-.45V13c0,.14.08.19.2.19a.38.38,0,0,0,.21-.07l.16.54a1,1,0,0,1-.57.14c-.39,0-.74-.18-.73-.8v-.65h-.31v-.56h.31v-.5Z"/><path d="M91,11.75l-1.22,2.81H89l.4-.92-.78-1.89h.77l.17.48.22.68.24-.69.18-.47Z"/><path d="M28.78,17.28a.72.72,0,0,0-.61-.27c-.26,0-.59.08-.59.39s.27.31.6.37.83.16.83.61-.46.6-.84.6a.93.93,0,0,1-.88-.46l.19-.1a.74.74,0,0,0,.69.36c.26,0,.63-.07.63-.4s-.32-.36-.64-.42-.79-.16-.79-.56.44-.59.8-.59a.85.85,0,0,1,.78.37Z"/><path d="M30.69,18.21a.76.76,0,1,1-1.52,0h0a.76.76,0,1,1,1.52,0Zm-1.32,0a.56.56,0,1,0,.56-.56A.56.56,0,0,0,29.37,18.21Z"/><path d="M31.17,16.85V19H31V16.9Z"/><path d="M32.78,17.46H33V19h-.19v-.3a.66.66,0,0,1-.58.33.77.77,0,0,1,0-1.54.65.65,0,0,1,.58.32Zm-1.14.75a.56.56,0,0,0,.52.58h0a.58.58,0,1,0,0-1.16.55.55,0,0,0-.56.54Z"/><path d="M33.51,17.46v.25a.49.49,0,0,1,.47-.27.6.6,0,0,1,.34.11l-.1.16a.43.43,0,0,0-.25-.07.45.45,0,0,0-.46.44V19h-.2V17.46Z"/><path d="M36.27,18.75a.81.81,0,0,1-.55.23.74.74,0,0,1-.78-.7v-.07a.73.73,0,0,1,.69-.77h.09a.73.73,0,0,1,.52.22l-.13.13a.55.55,0,0,0-.39-.16.58.58,0,0,0-.15,1.15h.15a.57.57,0,0,0,.41-.16Z"/><path d="M37.68,17.46h.19V19h-.19v-.3a.69.69,0,0,1-.59.33.77.77,0,1,1,0-1.54.68.68,0,0,1,.59.32Zm-1.14.75a.56.56,0,0,0,.52.58h0a.58.58,0,1,0,0-1.16.55.55,0,0,0-.56.54Z"/><path d="M39.39,19v-.83a.45.45,0,0,0-.41-.49H38.9a.49.49,0,0,0-.49.49V19h-.2V17.46h.2v.25a.59.59,0,0,1,.52-.27.62.62,0,0,1,.66.58v1Z"/><path d="M40.77,17.46v.25a.5.5,0,0,1,.47-.27.48.48,0,0,1,.34.11l-.09.16a.48.48,0,0,0-.26-.07.45.45,0,0,0-.46.44V19h-.2V17.46Z"/><path d="M41.77,18.29a.53.53,0,0,0,.56.49.74.74,0,0,0,.51-.2l.13.12a.86.86,0,0,1-.64.28.77.77,0,0,1,0-1.54.7.7,0,0,1,.75.64.5.5,0,0,1,0,.21Zm1.1-.17a.5.5,0,0,0-.5-.5h0a.53.53,0,0,0-.56.5h1.1Z"/><path d="M44.74,16.85V19h-.2v-.3A.66.66,0,0,1,44,19a.77.77,0,1,1,0-1.54.65.65,0,0,1,.59.32v-.91Zm-1.33,1.36a.54.54,0,0,0,.49.57H44a.58.58,0,0,0,.5-.65.58.58,0,0,0-.5-.5.53.53,0,0,0-.55.51Z"/><path d="M45.26,17.46v.84a.44.44,0,0,0,.39.48h.1a.47.47,0,0,0,.49-.47v-.85h.2V19h-.19v-.3a.57.57,0,0,1-.52.27.62.62,0,0,1-.66-.58v-.93Z"/><path d="M48,18.75a.76.76,0,0,1-.55.23.77.77,0,0,1,0-1.54.75.75,0,0,1,.53.22l-.13.13a.59.59,0,0,0-.4-.16.56.56,0,0,0-.57.53v.05a.54.54,0,0,0,.51.57h.06a.57.57,0,0,0,.41-.16Z"/><path d="M48.28,18.29a.54.54,0,0,0,.57.49.7.7,0,0,0,.5-.2l.13.12a.84.84,0,0,1-.63.28.77.77,0,0,1,0-1.54.7.7,0,0,1,.75.64.5.5,0,0,1,0,.21Zm1.11-.17a.51.51,0,0,0-.52-.5h0a.53.53,0,0,0-.56.5h1.11Z"/><path d="M50.79,17v.44h.48v.17h-.48v.84c0,.18.05.31.26.31a.83.83,0,0,0,.21-.06l.07.17A.79.79,0,0,1,51,19c-.32,0-.45-.18-.45-.49v-.84h-.3V17.5h.3v-.42Z"/><path d="M51.67,16.85v.87a.62.62,0,0,1,.86-.19.6.6,0,0,1,.28.59V19h-.2v-.83a.43.43,0,0,0-.35-.48h-.1a.49.49,0,0,0-.49.49V19h-.2V16.9Z"/><path d="M53.38,17a.14.14,0,1,1-.28,0h0a.14.14,0,0,1,.28,0Zm-.24.46V19h.2V17.46Z"/><path d="M54.65,17.77a.59.59,0,0,0-.44-.15c-.21,0-.41.07-.4.24s.22.21.41.24.61.09.61.45-.31.43-.61.43a.77.77,0,0,1-.66-.29l.13-.14a.65.65,0,0,0,.53.24c.17,0,.41,0,.41-.25s-.19-.23-.43-.26-.59-.11-.59-.42.31-.43.6-.42a.76.76,0,0,1,.56.2Z"/><path d="M57,18.75a.76.76,0,0,1-.55.23.74.74,0,0,1-.77-.71v-.06a.74.74,0,0,1,.69-.77h.08a.75.75,0,0,1,.53.22l-.13.13a.57.57,0,0,0-1,.36v.06a.54.54,0,0,0,.51.57h.06a.63.63,0,0,0,.42-.16Z"/><path d="M58.55,18.21a.77.77,0,1,1-.77-.77.74.74,0,0,1,.77.71Zm-1.33,0a.57.57,0,1,0,1.13.15.38.38,0,0,0,0-.15.56.56,0,0,0-.53-.59h0a.54.54,0,0,0-.56.54Z"/><path d="M59.76,17.77a.56.56,0,0,0-.43-.15c-.22,0-.41.07-.41.24s.22.21.41.24.61.09.61.45-.31.43-.61.43a.77.77,0,0,1-.66-.29l.13-.14a.68.68,0,0,0,.53.24c.17,0,.41,0,.41-.25s-.19-.23-.43-.26-.58-.11-.59-.42.31-.43.6-.42a.72.72,0,0,1,.56.2Z"/><path d="M60.55,17v.44H61v.17h-.48v.84c0,.18,0,.31.25.31A.79.79,0,0,0,61,18.7l.06.17a.68.68,0,0,1-.28.07c-.32,0-.45-.18-.45-.49v-.84H60v-.17h.31V17Z"/><path d="M62.07,17.46v.84a.44.44,0,0,0,.39.48h.1a.47.47,0,0,0,.49-.47v-.85h.19V19h-.18v-.3a.59.59,0,0,1-.52.27.62.62,0,0,1-.66-.58v-.93Z"/><path d="M63.59,19.66v-2.2h.2v.32a.69.69,0,0,1,.6-.34.77.77,0,0,1,0,1.54.64.64,0,0,1-.58-.33v1Zm1.33-1.45a.54.54,0,0,0-.49-.57h-.07a.57.57,0,0,0,0,1.14.53.53,0,0,0,.56-.5Z"/><path d="M66.36,17v.44h.48v.17h-.48v.84c0,.18,0,.31.25.31a.79.79,0,0,0,.22-.06l.06.17a.89.89,0,0,1-.28.07c-.32,0-.45-.18-.45-.49v-.84h-.31v-.17h.31V17Z"/><path d="M68.46,18.21a.77.77,0,1,1-.77-.77h0a.74.74,0,0,1,.77.71Zm-1.33,0a.57.57,0,1,0,1.13.15.38.38,0,0,0,0-.15.56.56,0,0,0-.53-.59h0a.54.54,0,0,0-.56.54Z"/><path d="M70.78,17.86a.8.8,0,0,1-.64.28c-.41,0-.84-.18-.84-.67s.44-.66.84-.66.84.19.84.67v.89c0,.41-.42.61-.82.61s-.81-.16-.83-.54h.22c0,.24.29.35.6.35s.63-.12.63-.42Zm-1.27-.39c0,.36.33.48.63.48s.63-.15.63-.47-.34-.47-.63-.47S69.51,17.13,69.51,17.47Z"/><path d="M71.28,17.67A.84.84,0,1,1,73,17.49a.54.54,0,0,1,0,.18v.46a.84.84,0,1,1-1.67.18.54.54,0,0,1,0-.18Zm.21.46a.63.63,0,0,0,1.25.16.43.43,0,0,0,0-.16v-.46a.63.63,0,0,0-1.25-.16.43.43,0,0,0,0,.16Z"/><path d="M74.06,17.31a.48.48,0,0,1-.53.4.47.47,0,0,1-.4-.4.48.48,0,0,1,.53-.4A.47.47,0,0,1,74.06,17.31Zm-.74,0a.26.26,0,0,0,.25.27h0a.25.25,0,0,0,.26-.24v0a.27.27,0,0,0-.54,0Zm1.61-.45L73.57,19h-.22c.42-.67.93-1.43,1.36-2.1Zm.24,1.67a.48.48,0,0,1-.53.4.47.47,0,0,1-.4-.4.48.48,0,0,1,.53-.4A.47.47,0,0,1,75.17,18.53Zm-.74,0a.27.27,0,0,0,.26.28h0a.26.26,0,0,0,.27-.25v0a.27.27,0,0,0-.26-.28h0a.26.26,0,0,0-.27.25h0Z"/></svg>