<svg xmlns="http://www.w3.org/2000/svg" viewBox="0 0 120 120"><path d="M101.47,80.32a.71.71,0,0,0-.71-.71h-.92V76.35a.71.71,0,1,0-1.42,0v3.26h-2V76.35a.71.71,0,0,0-1.42,0v3.26H94a.71.71,0,0,0-.71.71,4.08,4.08,0,0,0,3.36,4v12.5a2.93,2.93,0,0,1-2.93,2.92H81a27,27,0,0,0,.18-4v-.47a5.08,5.08,0,0,0-.64-2.64s0,0,0,0c-1.21-2-3.9-2.62-6.63-3a18.62,18.62,0,0,1-7.15-2.77l-.67-.39a18.44,18.44,0,0,0-1.78-.92h0c-2.37-1.07-5.53-1.91-10.76-1.91-6.12,0-10.86,3.85-12.89,5.49l-.34.28c-1.49,1.19-2.7,1.33-5.13,1.61a56,56,0,0,0-7.35,1.25c-5.65,1.34-4.31,10.51-4.25,10.9a.71.71,0,0,0,.7.61H31a5,5,0,0,0,1.43,2.82H12.58a.71.71,0,0,0,0,1.42h94.58a.71.71,0,0,0,0-1.42H73a4.94,4.94,0,0,0,1.43-2.82h3.3a2.65,2.65,0,0,0,1.94-.79,4.32,4.32,0,0,0,1-1.8H93.76a4.35,4.35,0,0,0,4.35-4.34V84.33A4.08,4.08,0,0,0,101.47,80.32Zm-22,13.44a3.74,3.74,0,0,1,.22.89H76.32a.47.47,0,0,1-.08-.34.87.87,0,0,1,.16-.54ZM66.05,88.07c.66.39,1.42.84,2.29,1.27a9.17,9.17,0,0,1-4.61,1.74,12.29,12.29,0,0,0,.94-3.78l.73.39ZM43.63,102.34a41.45,41.45,0,0,1-1.71-9.93,3.54,3.54,0,0,0,1.14.18H61.27c-.15.22-.31.44-.49.66-2.5,3.12-2.94,7.39-3,9.09ZM53.54,85a24.44,24.44,0,0,1,9.74,1.6,10.59,10.59,0,0,1-1.17,4.53h-19a1.54,1.54,0,0,1-1.29-.55l-.05-.06a1.89,1.89,0,0,1-.18-.34h0C43.46,88.67,47.92,85,53.54,85ZM28.16,93.63c1-.24,1.92-.43,2.75-.58-.31,1-.8,2-1.33,2.2a14.84,14.84,0,0,1-3.81.35A3.6,3.6,0,0,1,28.16,93.63ZM25.22,97h.66a15.05,15.05,0,0,0,4.17-.43c1.46-.52,2.16-2.72,2.42-3.8,1.1-.17,2-.28,2.88-.38,2.13-.25,3.55-.41,5-1.33a1,1,0,0,0,.08.14,42.72,42.72,0,0,0,1.68,11.12H40.79a5,5,0,0,0-9.81,0H24.91A16.25,16.25,0,0,1,25.22,97Zm7.13,6a3.53,3.53,0,1,1,3.53,3.53A3.54,3.54,0,0,1,32.35,103.05Zm7,3.53a5,5,0,0,0,1.44-2.82H64.67a5,5,0,0,0,1.43,2.82Zm30.22,0a3.53,3.53,0,1,1,3.53-3.53A3.54,3.54,0,0,1,69.57,106.58Zm8.2-4.24h-3.3a4.95,4.95,0,0,0-9.8,0H59.2c.08-1.57.5-5.46,2.69-8.21A12.91,12.91,0,0,0,63,92.57c1.66-.1,4.78-.56,6.79-2.6a17.55,17.55,0,0,0,3.95,1,12.16,12.16,0,0,1,4.61,1.31H76.37c-1,0-1.56,1-1.56,2a1.6,1.6,0,0,0,1.56,1.76h3.41c0,1.92,0,4.85-1.07,5.89A1.24,1.24,0,0,1,77.77,102.34ZM97.4,83A2.64,2.64,0,0,1,94.85,81H100A2.66,2.66,0,0,1,97.4,83Z" style="fill:#1a1a1a"/><path d="M82.66,33.22h0A22.77,22.77,0,0,0,58.86,12c-11.53.55-21.58,9.86-21.6,21.41C37.26,55.53,60.33,72,60.33,72S82.74,55.45,82.74,34.76V33.3Z" style="fill:tomato"/></svg>