<svg xmlns="http://www.w3.org/2000/svg" xmlns:xlink="http://www.w3.org/1999/xlink" viewBox="0 0 780 314"><defs><linearGradient id="a" x1="143.7" y1="39.11" x2="182.23" y2="272.39" gradientTransform="translate(-20.1 290.93) rotate(-80.62)" gradientUnits="userSpaceOnUse"><stop offset="0" stop-color="#fee26f"/><stop offset="1" stop-color="#e5593f"/></linearGradient><linearGradient id="b" x1="140.77" y1="21.34" x2="185.17" y2="290.15" xlink:href="#a"/><linearGradient id="c" x1="140.57" y1="20.21" x2="185.35" y2="291.28" xlink:href="#a"/><linearGradient id="d" x1="142.37" y1="31.08" x2="183.56" y2="280.42" xlink:href="#a"/><linearGradient id="e" x1="42.01" y1="155.75" x2="283.91" y2="155.75" gradientTransform="translate(-20.1 290.93) rotate(-80.62)" gradientUnits="userSpaceOnUse"><stop offset="0" stop-color="#ffe771"/><stop offset="1" stop-color="#e5593f"/></linearGradient><linearGradient id="f" x1="42.69" y1="155.75" x2="283.23" y2="155.75" xlink:href="#e"/><linearGradient id="g" x1="143.9" y1="155.75" x2="182.02" y2="155.75" gradientTransform="translate(-62.46 191.19) rotate(-52.81)" gradientUnits="userSpaceOnUse"><stop offset="0.04" stop-color="#e5593f"/><stop offset="1" stop-color="#ffe771"/></linearGradient></defs><g style="isolation:isolate"><path d="M238.1,273.65,48.3,242.3A7.65,7.65,0,0,1,42,233.51L73.36,43.71a7.65,7.65,0,0,1,8.79-6.3L271.94,68.76a7.66,7.66,0,0,1,6.3,8.79l-31.35,189.8A7.66,7.66,0,0,1,238.1,273.65ZM81.62,40.61a4.41,4.41,0,0,0-5.06,3.63L45.21,234a4.4,4.4,0,0,0,3.62,5.06l189.8,31.35a4.41,4.41,0,0,0,5.06-3.62L275,77a4.4,4.4,0,0,0-3.63-5Z" style="mix-blend-mode:multiply;fill:url(#a)"/><path d="M137.6,291.68a7.38,7.38,0,0,1-4.81-3L25.22,138.55a7.57,7.57,0,0,1,1.71-10.33L177.06,20.65a7.43,7.43,0,0,1,10.34,1.71L295,172.49a7.42,7.42,0,0,1-1.71,10.34L143.12,290.4A7.37,7.37,0,0,1,137.6,291.68ZM182.06,22.57a4.15,4.15,0,0,0-3.1.72L28.82,130.86a4.18,4.18,0,0,0-1,5.8L135.43,286.8a4.17,4.17,0,0,0,5.8,1L291.37,180.19a4.29,4.29,0,0,0,1-5.8L184.76,24.25A4.14,4.14,0,0,0,182.06,22.57Z" style="mix-blend-mode:multiply;fill:url(#b)"/><path d="M171.69,292.8a7.25,7.25,0,0,1-3.48-1.58L25.45,174a7.42,7.42,0,0,1-1-10.42L141.61,20.86a7.42,7.42,0,0,1,10.42-1L294.79,137a7.36,7.36,0,0,1,2.67,5,8,8,0,0,1-.06,2,7.39,7.39,0,0,1-1.58,3.47L178.64,290.2A7.41,7.41,0,0,1,171.69,292.8ZM148,21.46a4.15,4.15,0,0,0-3.9,1.46L26.94,165.68a4.16,4.16,0,0,0-.89,1.94,4.49,4.49,0,0,0,0,1.1,4.12,4.12,0,0,0,1.49,2.81L170.28,288.71a4.16,4.16,0,0,0,5.85-.57L293.31,145.38a4.18,4.18,0,0,0-.58-5.86L150,22.34A4.15,4.15,0,0,0,148,21.46Z" style="mix-blend-mode:multiply;fill:url(#c)"/><path d="M105,281.79a7.43,7.43,0,0,1-5.74-4.7l-65-172.86a7.41,7.41,0,0,1,4.32-9.54l172.87-65A7.43,7.43,0,0,1,221,34l65,172.86a7.32,7.32,0,0,1,.38,3.79,7.77,7.77,0,0,1-.57,1.87,7.35,7.35,0,0,1-4.13,3.88l-172.87,65A7.32,7.32,0,0,1,105,281.79Zm-2.7-5.84a4.17,4.17,0,0,0,5.36,2.42l172.86-65A4.17,4.17,0,0,0,283,208L217.92,35.11a4.15,4.15,0,0,0-5.35-2.43L39.71,97.73a4.17,4.17,0,0,0-2.43,5.35Z" style="mix-blend-mode:multiply;fill:url(#d)"/><path d="M65.8,262.54a7.55,7.55,0,0,1-6.29-7.18L53,62.7a7.56,7.56,0,0,1,7.27-7.79L253,48.42a7.55,7.55,0,0,1,7.79,7.28l6.49,192.66a7.32,7.32,0,0,1-.09,1.48,7.57,7.57,0,0,1-7.19,6.3l-192.66,6.5A8.23,8.23,0,0,1,65.8,262.54ZM253.91,51.72a4.79,4.79,0,0,0-.85,0L60.4,58.16a4.3,4.3,0,0,0-4.08,3.59,3.91,3.91,0,0,0-.06.84l6.49,192.66a4.3,4.3,0,0,0,4.43,4.14l192.66-6.49a4.32,4.32,0,0,0,4.15-4.44l-6.5-192.65A4.3,4.3,0,0,0,253.91,51.72Z" style="mix-blend-mode:multiply;fill:url(#e)"/><path d="M214.7,286.44a7.94,7.94,0,0,1-1.43-.38L34,218.34a7.53,7.53,0,0,1-4.37-9.67L97.31,29.37A7.52,7.52,0,0,1,107,25l179.3,67.72a7.46,7.46,0,0,1,4.37,9.66L222.93,281.69a7.52,7.52,0,0,1-8.23,4.75ZM105,27.82a4.3,4.3,0,0,0-2.44.33,4.22,4.22,0,0,0-2.23,2.37L32.63,209.82a4.59,4.59,0,0,0-.21.81,4.26,4.26,0,0,0,2.69,4.67L214.41,283a4.27,4.27,0,0,0,5.48-2.48l67.72-179.3a4.27,4.27,0,0,0-2.47-5.48L105.83,28A4.4,4.4,0,0,0,105,27.82Z" style="mix-blend-mode:multiply;fill:url(#f)"/><path d="M399,93.62,368.49,136h-3.07L335.34,93.62v68.75H321V72.76h16.64l29.57,42,29.45-42H413.3v89.61H399Z" style="fill:#444"/><path d="M477.55,99.13h12.81v63.11H477.81L477.17,152c-4.22,8.06-13.95,11.9-21.76,11.9C437,164,423,152.13,423,130.62c0-21.12,14.47-32.9,32.64-32.9,9,0,17.54,4.22,21.51,11.39Zm-41.34,31.49c0,13.06,9.21,21,20.48,21,27.26,0,27.26-41.86,0-41.86C445.42,109.75,436.21,117.69,436.21,130.62Z" style="fill:#444"/><path d="M541,99.13h16v.38l-21.25,30.6,22.66,31.74v.39H542.58l-15.49-22.92L511.6,162.24H495.73v-.39l22.65-31.74-21.25-30.6v-.38H513l14.08,22.53Z" style="fill:#444"/><path d="M571.25,135.61c1.15,9.6,9.09,15.88,20.61,15.88,6.4,0,14.47-2.44,18.31-6.79l8.57,8.32c-6.53,7.17-17.41,10.75-27.14,10.75-20.73,0-34.05-13.18-34.05-33.41,0-19.2,13.44-32.9,33.16-32.9,20.35,0,34.18,12.42,31.74,38.15Zm38.53-11.14c-.77-10-8.06-15.23-18.69-15.23-9.6,0-17.54,5.25-19.58,15.23Z" style="fill:#444"/><path d="M694.26,72.76v89.48H681.85l-.77-10c-5,8.07-13.44,11.27-21.89,11.27-18.31,0-32.26-12-32.26-32.9,0-21.51,13.7-32.9,32-32.9,7.68,0,18.05,3.84,22.15,11.27V72.76Zm-54.15,57.86c0,12.67,8.84,20.61,20,20.61s20.1-8.19,20.1-20.61c0-12.16-9.09-20.48-20.1-20.48S640.11,117.69,640.11,130.62Z" style="fill:#444"/><path d="M384.15,209.23c0,16.67-10.15,31.93-31.58,31.93S321,225.55,321,209.32c0-18.79,13.14-32.37,31.75-32.37C373.83,177,384.15,192.56,384.15,209.23Zm-31.58,22.84c15.35,0,21.79-10.85,21.79-22.66,0-11.38-6.53-23.2-21.61-23.46-14.29,0-22,10-22,23.46C331,220.34,337.32,232.07,352.57,232.07Z" style="fill:#444"/><path d="M398.7,196.35v23.29c0,7.41,4.23,12.52,11.81,12.52,7.15,0,12.09-5.91,12.09-13.14V196.35h9.08v43.57h-8.2l-.53-6.44c-4.23,4.85-8.91,7.06-15,7.06-10.67,0-18.35-7.67-18.35-20.81V196.35Z" style="fill:#444"/><path d="M454.52,183.83v12.61h12.7v7.85H454.43V225c0,4.58,2,7.14,6.26,7.14a13.12,13.12,0,0,0,5.56-1.5l2.64,7.76a20.59,20.59,0,0,1-8.73,1.94c-9.43.27-14.81-5.11-14.81-15.34V204.29H437v-7.85h8.38V184.8Z" style="fill:#444"/><path d="M529.75,191.77c-2.91-4.24-8.82-6.79-15.26-6.88-8.29,0-14.29,3.44-14.29,9.35s6.88,7.67,15,8.82c12.7,1.76,24.79,5.29,24.79,19.13s-12.7,19.05-25.58,19.05c-11.82,0-20.9-3.61-26.55-14l7.41-4.94c4.41,7.5,12.08,10.14,19.23,10.14,7.41,0,15.61-2.47,15.61-10.23,0-6.7-7.15-9-15.79-10.14-12.26-1.67-23.9-4.76-23.9-18-.09-12.79,12.7-17.73,23.81-17.73,8.91,0,17.82,2.12,23,10.41Z" style="fill:#444"/><path d="M588.21,218.14c0,12.87-8.9,22.57-22.57,22.57s-22.4-9.7-22.4-22.57,8.9-22.67,22.4-22.67S588.21,205.35,588.21,218.14Zm-35.89,0c0,7.76,5,14.11,13.32,14.11S579,225.9,579,218.14s-5.47-14.29-13.4-14.29C557.35,203.85,552.32,210.46,552.32,218.14Z" style="fill:#444"/><path d="M603.73,178.18v61.65h-9.08V178.18Z" style="fill:#444"/><path d="M647.83,196.35h8.82v43.48H648l-.45-7.05c-2.91,5.55-9.61,8.2-15,8.2-12.7.09-22.31-8.11-22.31-22.93,0-14.55,10-22.67,22.49-22.67,6.17,0,12.08,2.91,14.81,7.85Zm-28.49,21.7c0,9,6.35,14.46,14.11,14.46,18.79,0,18.79-28.84,0-28.84C625.69,203.67,619.34,209.14,619.34,218.05Z" style="fill:#444"/><path d="M673.93,196.35l.62,5.74c3.17-5.56,8.11-6.71,12.79-6.71a16.66,16.66,0,0,1,10.76,3.71L694,207a11.12,11.12,0,0,0-7.67-2.64c-6.26,0-11.73,3.88-11.73,11.91v23.54h-9.09V196.35Z" style="fill:#444"/><path d="M174.51,166.45A18.06,18.06,0,1,1,171,141.14,18.08,18.08,0,0,1,174.51,166.45Zm-27.68-21a16.69,16.69,0,1,0,23.38-3.21A16.71,16.71,0,0,0,146.83,145.44Z" style="fill:none;stroke-linecap:round;stroke-linejoin:round;stroke-width:2px;stroke:url(#g)"/></g></svg>