<svg xmlns="http://www.w3.org/2000/svg" viewBox="0 0 120 120"><rect x="13.99" y="7.44" width="99" height="24.75" style="fill:#f2f2f2"/><rect x="13.99" y="56.94" width="99" height="24.75" style="fill:#f2f2f2"/><rect x="68.93" y="22.29" width="17.49" height="84.15" style="fill:#e5593f"/><rect x="38.8" y="76.74" width="17.49" height="29.7" style="fill:#e5593f"/><line x1="13.99" y1="106.44" x2="112.99" y2="106.44" style="fill:none;stroke:#444;stroke-miterlimit:10;stroke-width:0.25px"/><line x1="13.99" y1="106.44" x2="13.99" y2="103.97" style="fill:none;stroke:#444;stroke-miterlimit:10;stroke-width:0.25px"/><polyline points="112.99 103.97 112.99 106.44 107.95 106.44" style="fill:none;stroke:#444;stroke-miterlimit:10;stroke-width:0.25px"/><path d="M11.21,107.31a.55.55,0,0,1,1.1,0v.31a.55.55,0,0,1-1.1,0Zm.13.31a.42.42,0,1,0,.84,0v-.31a.42.42,0,1,0-.84,0Z"/><path d="M12.27,81.7h-.85v.42h.41c.36,0,.52.18.52.43s-.2.45-.55.45-.54-.09-.55-.41h.14c0,.24.24.29.41.29s.41-.14.41-.33-.11-.3-.38-.3h-.54v-.68h1Z"/><path d="M10.37,57.69h.26V56.55l-.25.07V56.5l.38-.11v1.3H11v.12h-.66Z"/><path d="M11.21,56.94a.55.55,0,0,1,1.1,0v.31a.55.55,0,1,1-1.1,0Zm.13.31a.42.42,0,0,0,.84,0v-.31a.42.42,0,0,0-.84,0h0Z"/><path d="M10.42,32.51h.26V31.37l-.25.06v-.12l.38-.11v1.31h.27v.11h-.66Z"/><path d="M12.27,31.33h-.85v.42h.41c.36,0,.52.19.52.44s-.2.45-.55.45-.54-.1-.55-.42h.14c0,.25.24.29.41.29s.41-.14.41-.32-.11-.31-.38-.31h-.54V31.2h1Z"/><path d="M8.45,8.14c0-.31.29-.41.54-.41s.54.11.54.42-.28.41-.54.41-.42.06-.42.28V9h1v.13H8.44V8.84c0-.32.29-.4.55-.4s.41-.06.41-.28-.22-.3-.41-.3-.4,0-.41.28Z"/><path d="M9.78,8.31a.56.56,0,1,1,1.11-.15.38.38,0,0,1,0,.15v.31a.56.56,0,0,1-1.11.15.38.38,0,0,1,0-.15Zm.14.31a.42.42,0,0,0,.83.13.29.29,0,0,0,0-.13V8.31a.42.42,0,1,0-.83-.13.29.29,0,0,0,0,.13Z"/><polyline points="13.99 7.44 13.99 106.44 112.99 106.44" style="fill:none;stroke:#444;stroke-miterlimit:10;stroke-width:0.25px"/><path d="M71.91,109.82v-1.4h1v.13h-.82v.54h.79v.13h-.79v.6Z"/><path d="M74.05,109.33a.51.51,0,1,1-.51-.51.49.49,0,0,1,.51.47Zm-.88,0a.39.39,0,0,0,.31.44.39.39,0,0,0,.44-.32.24.24,0,0,0,0-.12.39.39,0,0,0-.31-.44.39.39,0,0,0-.44.32A.24.24,0,0,0,73.17,109.33Z"/><path d="M75,109a.41.41,0,0,0-.3-.1c-.14,0-.27,0-.26.16s.14.14.27.16.4,0,.4.29-.2.29-.4.29a.53.53,0,0,1-.44-.19l.08-.09a.48.48,0,0,0,.36.16c.11,0,.27,0,.27-.17s-.13-.15-.29-.17-.38-.08-.39-.28.21-.29.4-.29A.5.5,0,0,1,75,109Z"/><path d="M75.94,109a.38.38,0,0,0-.29-.1c-.14,0-.27,0-.27.16s.15.14.27.16.41,0,.41.29-.2.29-.4.29a.53.53,0,0,1-.44-.19l.08-.09a.48.48,0,0,0,.36.16c.11,0,.27,0,.27-.17s-.13-.15-.29-.17-.39-.08-.39-.28.21-.29.4-.29A.47.47,0,0,1,76,109Z"/><path d="M76.46,108.52a.1.1,0,0,1-.06.13.11.11,0,0,1-.13-.07.06.06,0,0,1,0-.06.1.1,0,0,1,.13-.06A.09.09,0,0,1,76.46,108.52Zm-.16.31v1h.13v-1Z"/><path d="M76.89,108.42v1.4h-.13v-1.4Z"/><path d="M77.81,109.82V109h-.2v-.12h.2v-.08c0-.21.1-.35.32-.35a.38.38,0,0,1,.21.07l-.06.1a.38.38,0,0,0-.15,0c-.12,0-.19.07-.19.23v.08h.32V109h-.32v.86Z"/><path d="M78.57,108.83v.56a.29.29,0,0,0,.26.32h.06a.32.32,0,0,0,.32-.32v-.56h.14v1h-.13v-.16a.44.44,0,0,1-.35.18.42.42,0,0,1-.44-.4v-.61Z"/><path d="M79.73,109.38a.36.36,0,0,0,.38.33.51.51,0,0,0,.33-.13l.09.08a.56.56,0,0,1-.42.18.51.51,0,1,1-.2-1,.67.67,0,0,1,.2,0,.46.46,0,0,1,.5.42.71.71,0,0,1,0,.14Zm.74-.11a.33.33,0,0,0-.35-.33h0a.35.35,0,0,0-.37.33h.74Z"/><path d="M81,108.42v1.4h-.14v-1.4Z"/><path d="M82,109a.38.38,0,0,0-.29-.1c-.15,0-.28,0-.27.16s.14.14.27.16.41,0,.41.29-.21.29-.41.29a.53.53,0,0,1-.44-.19l.09-.09a.46.46,0,0,0,.35.16c.11,0,.27,0,.27-.17s-.13-.15-.28-.17-.39-.08-.39-.28.2-.29.39-.29A.57.57,0,0,1,82,109Z"/><path d="M45,108.71a.46.46,0,0,0-.4-.18c-.17,0-.4,0-.4.26s.19.21.4.24.56.11.56.41-.31.4-.56.4a.6.6,0,0,1-.58-.31l.12-.06a.49.49,0,0,0,.46.24c.17,0,.42,0,.42-.27s-.21-.24-.43-.28-.53-.1-.53-.37.3-.39.54-.39a.59.59,0,0,1,.52.24Z"/><path d="M46.32,109.33a.49.49,0,0,1-.47.51h0a.5.5,0,0,1-.4-.6.51.51,0,0,1,.4-.4.49.49,0,0,1,.51.47Zm-.88,0a.39.39,0,0,0,.31.44.39.39,0,0,0,.44-.32.24.24,0,0,0,0-.12.38.38,0,0,0-.35-.39h0a.36.36,0,0,0-.37.35Z"/><path d="M46.72,108.42v1.4h-.14v-1.4Z"/><path d="M47.87,108.83H48v1h-.13v-.2a.44.44,0,0,1-.39.22.5.5,0,0,1-.4-.6.51.51,0,0,1,.4-.4.42.42,0,0,1,.39.21Zm-.76.5a.38.38,0,0,0,.37.39h0a.39.39,0,0,0,0-.78.38.38,0,0,0-.38.38Z"/><path d="M48.44,108.83V109a.33.33,0,0,1,.32-.18.34.34,0,0,1,.22.07l-.06.11a.49.49,0,0,0-.17,0,.31.31,0,0,0-.31.31v.56h-.13v-1Z"/><path d="M26.21,46a1.11,1.11,0,0,0-.66-.19c-.19,0-.38.06-.38.21s.19.22.47.25c.55.06,1.13.28,1.13.92s-.6.91-1.23.91a1.45,1.45,0,0,1-1.25-.49l.44-.5a1.09,1.09,0,0,0,.82.32c.26,0,.44-.09.44-.25s-.16-.23-.47-.25c-.61-.06-1.14-.22-1.14-.91s.58-.85,1.17-.85a1.59,1.59,0,0,1,1.05.33Z"/><path d="M29.07,47.06a1.13,1.13,0,1,1-1.13-1.13A1.14,1.14,0,0,1,29.07,47.06Zm-.72,0a.41.41,0,1,0-.41.43.4.4,0,0,0,.41-.39Z"/><path d="M30,45.24V48h-.73V45.2Z"/><path d="M31.7,46.07h.69v2h-.68v-.21a.84.84,0,0,1-.65.25.94.94,0,0,1-.91-1v0a1,1,0,0,1,1-1,.66.66,0,0,1,.58.25Zm-.84,1a.39.39,0,0,0,.35.43h0a.41.41,0,0,0,.41-.41v0a.4.4,0,1,0-.8,0Z"/><path d="M33.32,46.07v.22A.53.53,0,0,1,33.8,46a.73.73,0,0,1,.52.21l-.3.54a.45.45,0,0,0-.33-.12.33.33,0,0,0-.34.32V48h-.74V46Z"/><path d="M36.92,46.07l-.84,2h-.29l-.83-2h.29l.69,1.68.68-1.68Z"/><path d="M38.42,46.47a.82.82,0,0,0-.58-.2c-.29,0-.55.1-.54.32s.29.29.54.33.82.11.82.59-.42.57-.82.57A1,1,0,0,1,37,47.7l.17-.18a.9.9,0,0,0,.71.32c.22,0,.54-.07.54-.33s-.26-.31-.57-.36S37,47,37,46.6s.4-.57.79-.57a1,1,0,0,1,.75.27Z"/><path d="M39.31,47.89a.19.19,0,1,1-.19-.19A.2.2,0,0,1,39.31,47.89Z"/><path d="M40.71,48V46.67h-.33v-.56h.33V46a.79.79,0,0,1,.77-.81h.08a.83.83,0,0,1,.6.22l-.22.44a.44.44,0,0,0-.27-.09.2.2,0,0,0-.22.2v.14H42v.56h-.51V48Z"/><path d="M44.22,47.06a1.13,1.13,0,1,1-1.13-1.13A1.14,1.14,0,0,1,44.22,47.06Zm-.72,0a.41.41,0,1,0-.41.43.4.4,0,0,0,.41-.39Z"/><path d="M44.47,47.3a1.26,1.26,0,0,0,.7.22c.13,0,.2,0,.2-.09s-.07-.1-.21-.11c-.38,0-.85-.17-.85-.65s.45-.65.91-.65a1.45,1.45,0,0,1,.81.24l-.31.44a1.11,1.11,0,0,0-.5-.12c-.1,0-.17,0-.17.1s0,.09.15.09c.41,0,.9.13.9.66s-.44.67-.92.67a1.85,1.85,0,0,1-1-.26Z"/><path d="M46.35,47.3a1.26,1.26,0,0,0,.7.22c.13,0,.2,0,.2-.09s-.06-.1-.21-.11c-.38,0-.84-.17-.84-.65s.44-.65.91-.65a1.45,1.45,0,0,1,.81.24l-.32.44a1,1,0,0,0-.49-.12c-.11,0-.18,0-.18.1s0,.09.15.09c.41,0,.91.13.91.66s-.45.67-.92.67a1.85,1.85,0,0,1-1-.26Z"/><path d="M48.51,45.19a.38.38,0,0,1,.32.42.37.37,0,0,1-.42.31.37.37,0,0,1-.32-.36.37.37,0,0,1,.39-.37ZM48.88,48V46.1h-.74V48Z"/><path d="M49.88,45.24V48h-.73V45.2Z"/><path d="M51.21,48V46.32h-.39v-.23h.39v-.16c0-.43.21-.7.63-.7a.71.71,0,0,1,.42.14l-.11.2a.5.5,0,0,0-.31-.1c-.22,0-.36.14-.36.46v.16h.63v.23h-.63V48Z"/><path d="M52.56,46.07v1.11a.59.59,0,0,0,.53.64h.12a.63.63,0,0,0,.64-.62V46.07h.27v2h-.25v-.33a.86.86,0,0,1-1.57-.53V46.07Z"/><path d="M54.73,47.17a.71.71,0,0,0,.75.66.93.93,0,0,0,.67-.28l.18.16a1.1,1.1,0,0,1-.85.37,1,1,0,0,1,0-2,.93.93,0,0,1,1,.83,1.08,1.08,0,0,1,0,.31Zm1.47-.23a.67.67,0,0,0-.67-.67h-.06a.71.71,0,0,0-.74.67Z"/><path d="M57.06,45.25V48H56.8V45.25Z"/><path d="M58.84,46.47a.82.82,0,0,0-.58-.2c-.29,0-.54.1-.54.32s.3.29.54.33.82.11.82.59-.41.57-.81.57a1.06,1.06,0,0,1-.88-.38l.17-.18a.9.9,0,0,0,.71.32c.23,0,.54-.07.54-.33s-.26-.31-.57-.36-.78-.14-.78-.55.41-.57.79-.57a1,1,0,0,1,.75.27Z"/><path d="M26.5,50.07l-1.36,1.32,1.48,1.44h-.35l-1.4-1.36v1.36h-.28V50h.28v1.26L26.17,50h.33Z"/><path d="M27.1,50.25a.2.2,0,0,1-.19.19.19.19,0,0,1-.19-.19.2.2,0,0,1,.19-.19A.19.19,0,0,1,27.1,50.25Zm-.32.61v2H27v-2Z"/><path d="M27.8,50.05v2.8h-.26v-2.8Z"/><path d="M30.2,51.86a1,1,0,1,1-1-1A1,1,0,0,1,30.2,51.86Zm-1.76,0a.75.75,0,0,0,1.49.17.48.48,0,0,0,0-.17.74.74,0,0,0-.7-.78h-.05a.73.73,0,0,0-.74.72Z"/><path d="M31.92,50.87l.56,1.68L33,50.87h.29l-.69,2h-.3l-.3-.8-.22-.74-.23.75-.29.79H31l-.7-2h.29l.56,1.68.56-1.68Z"/><path d="M35.23,50.87h.25v2h-.25v-.4a.89.89,0,0,1-.78.44,1,1,0,0,1,0-2,.87.87,0,0,1,.78.42Zm-1.52,1a.74.74,0,0,0,.69.77h.06a.77.77,0,1,0,0-1.54.73.73,0,0,0-.75.71v0Z"/><path d="M36.44,50.29v.58h.64v.23h-.64v1.12c0,.25.07.41.34.41a.6.6,0,0,0,.29-.08l.08.23a.85.85,0,0,1-.38.09c-.42,0-.59-.24-.59-.65V51.1h-.41v-.23h.41v-.56Z"/><path d="M37.85,50.29v.58h.64v.23h-.64v1.12c0,.25.07.41.34.41a.6.6,0,0,0,.29-.08l.08.23a.85.85,0,0,1-.38.09c-.42,0-.6-.24-.6-.65V51.1h-.4v-.23h.4v-.56Z"/><path d="M40.05,51.27a.83.83,0,0,0-.59-.2c-.28,0-.54.1-.53.32s.29.29.54.33.81.11.81.59-.41.58-.81.58a1,1,0,0,1-.87-.39l.16-.18a.9.9,0,0,0,.72.32c.22,0,.54-.07.54-.33s-.26-.31-.58-.36-.77-.14-.78-.55.41-.57.8-.57a1,1,0,0,1,.74.27Z"/><path d="M41.48,53.79V50.87h.26v.42a.88.88,0,0,1,.8-.45,1,1,0,0,1,0,2,.87.87,0,0,1-.78-.44v1.34Zm1.77-1.93a.7.7,0,0,0-.64-.76h-.1a.72.72,0,0,0-.74.7v.06a.74.74,0,0,0,.69.77h0a.72.72,0,0,0,.74-.7Z"/><path d="M44,52a.71.71,0,0,0,.75.66.87.87,0,0,0,.66-.28l.18.16a1.08,1.08,0,0,1-.84.37,1,1,0,1,1,0-2,.94.94,0,0,1,1,.85.93.93,0,0,1,0,.29Zm1.47-.23a.67.67,0,0,0-.69-.67h0a.7.7,0,0,0-.74.66h1.47Z"/><path d="M46.3,50.87v.32a.66.66,0,0,1,.63-.35.73.73,0,0,1,.45.14l-.13.22a.59.59,0,0,0-.34-.1.6.6,0,0,0-.61.59v1.16H46v-2Z"/><path d="M48.6,50.05v1.16a.82.82,0,0,1,.69-.37.8.8,0,0,1,.84.76.66.66,0,0,1,0,.14v1.11h-.27V51.74c0-.4-.19-.64-.59-.64a.65.65,0,0,0-.65.65v1.1h-.27v-2.8Z"/><path d="M52.46,51.86a1,1,0,1,1-1-1A1,1,0,0,1,52.46,51.86Zm-1.76,0a.75.75,0,1,0,1.49.17.48.48,0,0,0,0-.17.74.74,0,0,0-.7-.78h-.05a.73.73,0,0,0-.74.72Z"/><path d="M53,50.87V52a.58.58,0,0,0,.51.64h.13a.64.64,0,0,0,.65-.63V50.87h.27v2h-.25v-.34a.79.79,0,0,1-.7.37.83.83,0,0,1-.87-.79V50.87Z"/><path d="M55.31,50.87v.32a.66.66,0,0,1,.63-.35.65.65,0,0,1,.44.14l-.12.22a.59.59,0,0,0-.34-.1.6.6,0,0,0-.61.59v1.16H55v-2Z"/><path d="M2.77,116.32a.5.5,0,0,0-.43-.19c-.16,0-.42.06-.42.29s.19.22.43.26.55.1.55.4-.32.4-.56.4a.64.64,0,0,1-.57-.31h.09a.58.58,0,0,0,.48.26c.17,0,.45,0,.45-.3s-.23-.25-.46-.3-.52-.1-.52-.36.3-.39.53-.39a.54.54,0,0,1,.51.24Z"/><path d="M3,117a.5.5,0,0,1,1,0,.48.48,0,0,1-.45.51h0a.48.48,0,0,1-.5-.46Zm.91,0a.41.41,0,0,0-.34-.47.42.42,0,0,0-.47.34.29.29,0,0,0,0,.13.38.38,0,0,0,.37.41h0a.39.39,0,0,0,.42-.36v0Z"/><path d="M5,117.45v-.17a.44.44,0,0,1-.8-.25v-.57h.1V117a.3.3,0,0,0,.25.34h.1A.34.34,0,0,0,5,117H5v-.55h.1v1Z"/><path d="M5.41,116.47v.17a.35.35,0,0,1,.33-.18.31.31,0,0,1,.21.05v.08a.49.49,0,0,0-.17,0,.33.33,0,0,0-.33.33h0v.57H5.32v-1Z"/><path d="M6.8,117.32a.51.51,0,0,1-.87-.32v0a.49.49,0,0,1,.47-.51h0a.49.49,0,0,1,.36.15l-.06.06a.42.42,0,1,0-.3.72.5.5,0,0,0,.29-.12Z"/><path d="M6.87,117a.49.49,0,0,1,.47-.51h0a.46.46,0,0,1,.5.42.71.71,0,0,1,0,.14H7a.39.39,0,0,0,.4.36.48.48,0,0,0,.36-.15l.07.06a.52.52,0,0,1-.43.19.49.49,0,0,1-.53-.45Zm.9,0a.36.36,0,0,0-.34-.38H7.37A.4.4,0,0,0,7,117Z"/><path d="M8.17,116.79a.08.08,0,0,1-.16,0H8a.08.08,0,1,1,.16,0Zm0,.6a.08.08,0,0,1-.16,0H8a.08.08,0,0,1,.16,0Z"/><path d="M10,117.26a.69.69,0,0,1-.51.21A.72.72,0,1,1,9.32,116a.49.49,0,0,1,.17,0,.69.69,0,0,1,.51.21l-.07.06a.62.62,0,0,0-.44-.18.59.59,0,0,0-.61.57v.06a.58.58,0,0,0,.55.61h.06a.62.62,0,0,0,.44-.18Z"/><path d="M10.1,117a.51.51,0,1,1,1-.2.67.67,0,0,1,0,.2.51.51,0,1,1-1,.2A.67.67,0,0,1,10.1,117Zm.91,0a.41.41,0,0,0-.34-.47.42.42,0,0,0-.47.34.29.29,0,0,0,0,.13.41.41,0,0,0,.34.47.42.42,0,0,0,.47-.34A.29.29,0,0,0,11,117Z"/><path d="M11.38,116.47v.17a.44.44,0,0,1,.61-.11.42.42,0,0,1,.19.35v.57h-.1v-.56a.32.32,0,0,0-.29-.35h-.06a.37.37,0,0,0-.35.36v.55h-.09v-1Z"/><path d="M13.06,116.65a.38.38,0,0,0-.3-.11c-.16,0-.31.06-.3.18s.17.16.3.18.42.06.41.29-.24.28-.41.28a.51.51,0,0,1-.43-.2l.07-.06a.42.42,0,0,0,.36.17c.12,0,.3,0,.31-.19s-.16-.17-.32-.2-.38-.07-.39-.26.2-.28.4-.28a.49.49,0,0,1,.36.13Z"/><path d="M14.12,117.45v-.17a.44.44,0,0,1-.8-.25v-.57h.1V117a.31.31,0,0,0,.28.34h.07a.34.34,0,0,0,.35-.33v-.58h.09v1Z"/><path d="M15.92,117.45v-.59a.3.3,0,0,0-.28-.32h0a.31.31,0,0,0-.31.31v.6h-.1v-.58a.31.31,0,0,0-.29-.33h0a.29.29,0,0,0-.31.29v.62h-.1v-1h.09v.16a.33.33,0,0,1,.32-.18.36.36,0,0,1,.37.24.38.38,0,0,1,.36-.24.4.4,0,0,1,.42.38v.62Z"/><path d="M16.19,117a.49.49,0,0,1,.47-.51h0a.47.47,0,0,1,.5.44.49.49,0,0,1,0,.12h-.89a.38.38,0,0,0,.4.36h0a.44.44,0,0,0,.35-.15l.07.06a.52.52,0,0,1-.92-.29Zm.9,0a.36.36,0,0,0-.34-.38h-.06a.38.38,0,0,0-.4.38h.8Z"/><path d="M17.44,116.47v.17a.35.35,0,0,1,.33-.18.31.31,0,0,1,.21.05v.08a.49.49,0,0,0-.17,0,.33.33,0,0,0-.33.33h0v.57h-.09v-1Z"/><path d="M19.56,117.45l-.15-.34h-.84l-.15.34H18.3l.63-1.4h.12l.63,1.4Zm-.2-.44-.37-.85-.38.85Z"/><path d="M19.86,117.45v-.89h-.2v-.09h.2v-.1c0-.19.08-.34.3-.34a.37.37,0,0,1,.2.07l-.05.07a.38.38,0,0,0-.15,0c-.13,0-.2.08-.2.25v.1h.33v.09H20v.89Z"/><path d="M20.5,117.45v-.89h-.2v-.09h.2v-.1c0-.19.08-.34.3-.34a.32.32,0,0,1,.19.07v.07a.38.38,0,0,0-.15,0c-.12,0-.19.08-.19.25v.1H21v.09H20.6v.89Z"/><path d="M21.93,116.47v1h-.1v-.21a.46.46,0,0,1-.4.23.51.51,0,0,1-.2-1h.2a.46.46,0,0,1,.4.23v-.21ZM21,117a.38.38,0,0,0,.37.41h0a.41.41,0,1,0,0-.82h0A.38.38,0,0,0,21,117Z"/><path d="M22.3,116.14a.08.08,0,0,1-.16,0h0a.08.08,0,1,1,.16,0Zm-.13.32v1h.1v-1Z"/><path d="M22.61,116.47v.17a.35.35,0,0,1,.33-.18.31.31,0,0,1,.21.05v.08a.49.49,0,0,0-.17,0,.33.33,0,0,0-.33.33h0v.57h-.1v-1Z"/><path d="M23.89,116.65a.4.4,0,0,0-.31-.11c-.15,0-.3.06-.29.18s.17.16.3.18.41.06.4.29-.23.28-.4.28a.51.51,0,0,1-.43-.2l.07-.06a.42.42,0,0,0,.36.17c.12,0,.3,0,.31-.19s-.16-.17-.32-.2-.39-.07-.39-.26.19-.28.39-.28a.5.5,0,0,1,.37.13Z"/></svg>