<svg xmlns="http://www.w3.org/2000/svg" viewBox="0 0 120 120"><rect x="39.32" y="8.51" width="19.6" height="97.93" style="fill:#f2f2f2"/><rect x="78.52" y="8.51" width="19.6" height="97.93" style="fill:#f2f2f2"/><rect x="19.72" y="10.8" width="80.36" height="11.76" style="fill:#e5593f"/><rect x="19.72" y="27.13" width="47.04" height="11.76" style="fill:#e5593f"/><rect x="19.72" y="43.47" width="21.56" height="11.76" style="fill:#e5593f"/><rect x="19.72" y="59.8" width="19.6" height="11.76" style="fill:#e5593f"/><rect x="19.72" y="76.13" width="19.6" height="11.76" style="fill:#e5593f"/><rect x="19.72" y="92.47" width="17.64" height="11.76" style="fill:#e5593f"/><path d="M2.77,116.32a.5.5,0,0,0-.43-.19c-.16,0-.42.06-.42.29s.19.22.43.26.55.1.55.4-.32.4-.56.4a.64.64,0,0,1-.57-.31h.09a.58.58,0,0,0,.48.26c.17,0,.45,0,.45-.3s-.23-.25-.46-.3-.52-.1-.52-.36.3-.39.53-.39a.54.54,0,0,1,.51.24Z"/><path d="M3,117a.5.5,0,0,1,1,0,.48.48,0,0,1-.45.51h0a.48.48,0,0,1-.5-.46Zm.91,0a.41.41,0,0,0-.34-.47.42.42,0,0,0-.47.34.29.29,0,0,0,0,.13.38.38,0,0,0,.37.41h0a.39.39,0,0,0,.42-.36v0Z"/><path d="M5,117.45v-.17a.44.44,0,0,1-.8-.25v-.57h.1V117a.3.3,0,0,0,.25.34h.1A.34.34,0,0,0,5,117H5v-.55h.1v1Z"/><path d="M5.41,116.47v.17a.35.35,0,0,1,.33-.18.31.31,0,0,1,.21.05v.08a.49.49,0,0,0-.17,0,.33.33,0,0,0-.33.33h0v.57H5.32v-1Z"/><path d="M6.8,117.32a.51.51,0,0,1-.87-.32v0a.49.49,0,0,1,.47-.51h0a.49.49,0,0,1,.36.15l-.06.06a.42.42,0,1,0-.3.72.5.5,0,0,0,.29-.12Z"/><path d="M6.87,117a.49.49,0,0,1,.47-.51h0a.46.46,0,0,1,.5.42.71.71,0,0,1,0,.14H7a.39.39,0,0,0,.4.36.48.48,0,0,0,.36-.15l.07.06a.52.52,0,0,1-.43.19.49.49,0,0,1-.53-.45Zm.9,0a.36.36,0,0,0-.34-.38H7.37A.4.4,0,0,0,7,117Z"/><path d="M8.17,116.79a.08.08,0,0,1-.16,0H8a.08.08,0,1,1,.16,0Zm0,.6a.08.08,0,0,1-.16,0H8a.08.08,0,0,1,.16,0Z"/><path d="M8.79,116.05h1l-.9,1.26h.9v.1h-1l.89-1.26H8.79Z"/><path d="M10.09,116.14a.08.08,0,1,1-.16,0h0a.08.08,0,1,1,.16,0Zm-.13.32v1h.09v-1Z"/><path d="M10.41,116.05v1.4h-.1v-1.4Z"/><path d="M10.78,116.05v1.4h-.1v-1.4Z"/><path d="M11,117a.51.51,0,1,1,.51.51h0A.49.49,0,0,1,11,117Zm.91,0a.41.41,0,0,0-.34-.47.42.42,0,0,0-.47.34.29.29,0,0,0,0,.13.41.41,0,0,0,.34.47.42.42,0,0,0,.47-.34A.29.29,0,0,0,11.91,117Z"/><path d="M13.17,117.45h-.11L12.9,117l-.12-.38-.13.38-.16.43h-.1l-.36-1h.11l.3.87.3-.87h.07l.3.87.3-.87h.11Z"/><path d="M19.19,110.62a.54.54,0,1,1,1.07-.15.38.38,0,0,1,0,.15V111a.54.54,0,1,1-1.07.15.38.38,0,0,1,0-.15Zm.1.33a.43.43,0,0,0,.86,0v-.33a.43.43,0,0,0-.86,0Z"/><path d="M37.73,109.88v.2a.56.56,0,0,1,.46.24l-.09.05a.49.49,0,0,0-.42-.19c-.16,0-.43.07-.42.27s.19.22.42.27.55.1.55.4-.28.36-.51.37v.2h-.08v-.2a.57.57,0,0,1-.53-.27h.09a.53.53,0,0,0,.48.22c.17,0,.45-.06.45-.27s-.23-.26-.46-.3-.51-.1-.52-.36.26-.37.49-.38v-.2Z"/><path d="M38.42,111.39h.27v-1.18l-.26.07v-.1l.37-.09v1.3h.27v.1h-.65Z"/><path d="M39.26,110.62a.54.54,0,0,1,1.07-.15.38.38,0,0,1,0,.15V111a.54.54,0,1,1-1.07.15.38.38,0,0,1,0-.15Zm.1.33a.43.43,0,0,0,.86,0v-.33a.43.43,0,0,0-.86,0Z"/><path d="M41.64,111.49H41.5l-.74-.69v.69h-.1v-1.4h.1v.64l.68-.64h.13l-.7.66.77.72Z"/><path d="M57.06,109.88v.2a.56.56,0,0,1,.46.24l-.09.05a.49.49,0,0,0-.42-.19c-.16,0-.43.07-.42.27s.19.22.43.27.55.1.55.4-.28.36-.51.37v.2H57v-.2a.59.59,0,0,1-.53-.27h.1a.48.48,0,0,0,.47.22c.17,0,.45-.06.45-.27s-.23-.26-.46-.3-.51-.1-.52-.36.26-.37.49-.38v-.2Z"/><path d="M57.79,110.46c0-.3.29-.39.54-.39s.54.11.54.41-.29.4-.54.4-.44.05-.44.29v.21h1v.11h-1.1v-.32c0-.31.28-.39.54-.39s.44-.07.44-.3-.25-.31-.44-.31-.43.06-.43.29Z"/><path d="M59.12,110.62a.54.54,0,1,1,1.08,0V111a.54.54,0,0,1-1.08,0h0Zm.11.33a.43.43,0,0,0,.86,0v-.33a.43.43,0,0,0-.86,0Z"/><path d="M61.51,111.49h-.14l-.74-.69v.69h-.1v-1.4h.1v.64l.68-.64h.13l-.7.66.77.72Z"/><path d="M76.66,109.88v.2a.55.55,0,0,1,.47.24l-.09.05a.49.49,0,0,0-.42-.19c-.17,0-.43.07-.42.27s.19.22.42.27.55.1.55.4-.28.36-.51.37v.2h-.08v-.2a.57.57,0,0,1-.53-.27h.09a.53.53,0,0,0,.48.22c.17,0,.45-.06.45-.27s-.24-.26-.46-.3-.51-.1-.52-.36.26-.37.49-.38v-.2Z"/><path d="M77.4,110.43c0-.29.29-.36.52-.36s.51.16.52.37a.36.36,0,0,1-.3.33.37.37,0,0,1,.32.34c0,.22-.18.4-.54.4s-.54-.07-.54-.38h.1c0,.25.27.28.45.28s.43-.14.43-.3-.15-.3-.44-.3h-.23v-.09h.23c.28,0,.41-.14.42-.28s-.14-.28-.42-.28-.42,0-.42.27Z"/><path d="M78.72,110.62a.54.54,0,0,1,1.07-.15.38.38,0,0,1,0,.15V111a.54.54,0,1,1-1.07.15.38.38,0,0,1,0-.15Zm.11.33a.43.43,0,1,0,.86,0v-.33a.43.43,0,1,0-.86,0Z"/><path d="M81.1,111.49H81l-.73-.69v.69h-.11v-1.4h.11v.64l.68-.64h0l-.71.66.77.72Z"/><path d="M96.27,109.88v.2a.58.58,0,0,1,.47.24l-.1.05a.46.46,0,0,0-.41-.19c-.17,0-.43.07-.43.27s.19.22.43.27.55.1.55.4-.28.36-.51.37v.2h-.09v-.2a.55.55,0,0,1-.52-.27h.09a.51.51,0,0,0,.48.22c.17,0,.44-.06.44-.27s-.23-.26-.46-.3-.51-.1-.51-.36.26-.37.48-.38v-.2Z"/><path d="M97.91,110.09v1h.17v.1h-.17v.32H97.8v-.32h-.86v-.13l.81-1Zm-.11.08-.76.9h.76Z"/><path d="M98.31,110.62a.54.54,0,0,1,1.07-.15.38.38,0,0,1,0,.15V111a.54.54,0,1,1-1.07.15.38.38,0,0,1,0-.15Zm.11.33a.43.43,0,1,0,.86,0v-.33a.43.43,0,1,0-.86,0Z"/><path d="M100.69,111.49h-.13l-.74-.69v.69h-.11v-1.4h.11v.64l.68-.64h.13l-.7.66.76.72Z"/><path d="M115.28,109.88v.2a.58.58,0,0,1,.47.24l-.1.05a.46.46,0,0,0-.41-.19c-.17,0-.43.07-.43.27s.19.22.43.27.55.1.55.4-.28.36-.51.37v.2h-.09v-.2a.6.6,0,0,1-.53-.27h.1a.51.51,0,0,0,.48.22c.17,0,.44-.06.44-.27s-.23-.26-.46-.3-.51-.1-.52-.36.27-.37.49-.38v-.2Z"/><path d="M116,110.73v-.64h1v.09h-.87v.45h.45c.38,0,.5.21.5.43s-.17.44-.55.44-.54-.09-.54-.4h.11c0,.25.25.29.43.29s.44-.14.44-.33-.08-.33-.39-.33Z"/><path d="M117.32,110.62a.54.54,0,1,1,1.08,0V111a.54.54,0,1,1-1.08,0h0Zm.11.33a.43.43,0,0,0,.86,0v-.33a.43.43,0,0,0-.86,0Z"/><path d="M119.71,111.49h-.14l-.74-.69v.69h-.1v-1.4h.1v.64l.68-.64h.13l-.7.66.77.72Z"/><line x1="19.72" y1="106.51" x2="117.72" y2="106.51" style="fill:none;stroke:#444;stroke-miterlimit:10;stroke-width:0.25px"/><line x1="39.32" y1="106.51" x2="39.32" y2="104.06" style="fill:none;stroke:#444;stroke-miterlimit:10;stroke-width:0.25px"/><line x1="58.92" y1="106.51" x2="58.92" y2="104.06" style="fill:none;stroke:#444;stroke-miterlimit:10;stroke-width:0.25px"/><line x1="78.52" y1="106.51" x2="78.52" y2="104.06" style="fill:none;stroke:#444;stroke-miterlimit:10;stroke-width:0.25px"/><line x1="98.12" y1="106.51" x2="98.12" y2="104.06" style="fill:none;stroke:#444;stroke-miterlimit:10;stroke-width:0.25px"/><polyline points="117.72 104.06 117.72 106.51 19.72 106.51 19.72 104.06" style="fill:none;stroke:#444;stroke-miterlimit:10;stroke-width:0.25px"/><line x1="19.72" y1="106.51" x2="19.72" y2="8.51" style="fill:none;stroke:#000;stroke-miterlimit:10;stroke-width:0.25px"/><path d="M6.49,98.67v.87a.54.54,0,0,1-1.07.15.38.38,0,0,1,0-.15v-.87h.11v.87a.43.43,0,0,0,.85.13.29.29,0,0,0,0-.13v-.87Z"/><path d="M6.92,99.08v.18a.37.37,0,0,1,.35-.2.42.42,0,0,1,.45.39v.62h-.1V99.5a.32.32,0,0,0-.3-.34H7.27a.34.34,0,0,0-.35.33v.58h-.1v-1Z"/><path d="M8.16,98.76a.08.08,0,1,1-.08-.08A.09.09,0,0,1,8.16,98.76ZM8,99.08v1h.1v-1Z"/><path d="M8.66,98.78v.3H9v.08H8.66v.6c0,.14,0,.23.18.23A.29.29,0,0,0,9,100H9a.61.61,0,0,1-.19,0c-.21,0-.28-.12-.28-.32v-.6h-.2V99h.2v-.29Z"/><path d="M9.12,99.57a.51.51,0,0,1,.51-.51h0a.46.46,0,0,1,.49.43.57.57,0,0,1,0,.13H9.23a.38.38,0,0,0,.39.37h0a.44.44,0,0,0,.35-.15h.07a.53.53,0,0,1-.93-.27Zm.91,0a.35.35,0,0,0-.35-.37h0a.38.38,0,0,0-.4.36H10Z"/><path d="M11.3,98.67v1.4h-.09v-.22a.48.48,0,0,1-.42.23.47.47,0,0,1-.49-.45v-.06a.48.48,0,0,1,.45-.51h.05a.44.44,0,0,1,.41.24v-.63Zm-.9.9a.38.38,0,0,0,.34.42h.06a.42.42,0,0,0,.35-.48.42.42,0,0,0-.35-.35.38.38,0,0,0-.4.36Z"/><path d="M13.08,98.94a.47.47,0,0,0-.42-.19c-.17,0-.43.06-.43.28s.19.22.43.27.55.1.55.4-.32.39-.55.39a.64.64,0,0,1-.58-.3l.1-.05a.54.54,0,0,0,.48.25c.17,0,.44,0,.44-.29s-.23-.26-.46-.3-.52-.11-.52-.36.31-.39.54-.39a.54.54,0,0,1,.51.24Z"/><path d="M13.64,98.78v.3H14v.08h-.34v.6c0,.14,0,.23.19.23a.38.38,0,0,0,.15,0v.08a.54.54,0,0,1-.18,0c-.21,0-.28-.12-.28-.32v-.6h-.21v-.08h.21v-.29Z"/><path d="M15.11,99.08v1H15v-.21a.46.46,0,0,1-.4.22.5.5,0,0,1-.4-.6.51.51,0,0,1,.4-.4.42.42,0,0,1,.4.23V99.1Zm-.91.49a.4.4,0,0,0,.38.42h0a.42.42,0,0,0,.35-.48.42.42,0,0,0-.35-.35.4.4,0,0,0-.41.39Z"/><path d="M15.65,98.78v.3H16v.08h-.33v.6c0,.14,0,.23.18.23a.38.38,0,0,0,.15,0v.08a.54.54,0,0,1-.18,0c-.21,0-.28-.12-.28-.32v-.6h-.21v-.08h.21v-.29Z"/><path d="M16.11,99.57a.5.5,0,0,1,.49-.51h0a.46.46,0,0,1,.5.42.71.71,0,0,1,0,.14h-.89a.39.39,0,0,0,.4.37.48.48,0,0,0,.36-.15H17a.52.52,0,0,1-.43.19.48.48,0,0,1-.5-.46Zm.9,0a.35.35,0,0,0-.35-.37h-.05a.39.39,0,0,0-.4.37Z"/><path d="M18,99.26a.45.45,0,0,0-.31-.1c-.15,0-.3,0-.29.18s.17.16.3.18.41.06.4.29-.23.27-.4.27a.5.5,0,0,1-.43-.19l.07-.07a.42.42,0,0,0,.36.17c.12,0,.3,0,.31-.19s-.16-.17-.32-.19-.39-.07-.39-.27.19-.28.39-.28a.47.47,0,0,1,.37.14Z"/><path d="M7,83.73H6.86l-.48-.52H6v.52H5.89v-1.4h.62a.44.44,0,0,1,.46.42v0a.42.42,0,0,1-.41.43h0ZM6,83.1h.49a.32.32,0,0,0,.36-.25v-.08a.32.32,0,0,0-.31-.33H6Z"/><path d="M7.37,82.42a.08.08,0,0,1-.16,0h0a.08.08,0,0,1,.16,0Zm-.13.32v1h.1v-1Z"/><path d="M7.58,82.75h.1l.36.87.36-.87h.11l-.41,1H8Z"/><path d="M8.63,83.24a.5.5,0,0,1,.49-.51h0a.46.46,0,0,1,.49.43.57.57,0,0,1,0,.13H8.74a.36.36,0,0,0,.38.36h0a.44.44,0,0,0,.35-.15l.07.06a.53.53,0,0,1-.93-.28Zm.91,0a.37.37,0,0,0-.36-.38h0a.38.38,0,0,0-.4.38h.8Z"/><path d="M10,82.75v.17a.35.35,0,0,1,.33-.18.38.38,0,0,1,.21.05v.09a.25.25,0,0,0-.17,0,.33.33,0,0,0-.33.33h0v.57h-.1v-1Z"/><path d="M11.33,82.93a.46.46,0,0,0-.3-.11c-.16,0-.31.06-.3.18s.17.16.3.18.42.07.4.29-.23.28-.4.28a.51.51,0,0,1-.43-.2l.07-.06a.42.42,0,0,0,.36.17c.12,0,.3,0,.31-.19s-.16-.17-.32-.2-.38-.06-.39-.26.2-.28.4-.28a.53.53,0,0,1,.36.13Z"/><path d="M11.81,82.42a.07.07,0,0,1-.05.1.07.07,0,0,1-.1,0,.06.06,0,0,1,0-.06.07.07,0,0,1,.05-.1.07.07,0,0,1,.1,0A.06.06,0,0,1,11.81,82.42Zm-.13.32v1h.1v-1Z"/><path d="M13,82.33v1.4h0v-.21a.49.49,0,0,1-.41.23.47.47,0,0,1-.5-.44v-.07a.48.48,0,0,1,.45-.51h.05A.45.45,0,0,1,13,83v-.67Zm-.9.91a.38.38,0,0,0,.35.41h.05a.38.38,0,0,0,.4-.38v0a.38.38,0,0,0-.37-.41h0a.38.38,0,0,0-.36.4h0Z"/><path d="M13.3,83.24a.49.49,0,0,1,.47-.51h0a.46.46,0,0,1,.5.42.71.71,0,0,1,0,.14H13.4a.39.39,0,0,0,.4.36.48.48,0,0,0,.36-.15l.07.06a.52.52,0,0,1-.43.19.49.49,0,0,1-.5-.48Zm.9,0a.36.36,0,0,0-.34-.38H13.8a.4.4,0,0,0-.4.38Z"/><path d="M14.68,83.67h0l-.08.2h-.09l.06-.16a.1.1,0,0,1-.05-.08.08.08,0,0,1,.16,0Z"/><path d="M16.7,83.54a.75.75,0,0,1-.51.21.67.67,0,0,1-.72-.62V83a.68.68,0,0,1,.64-.72h.08a.75.75,0,0,1,.51.21l-.08.06a.61.61,0,0,0-.43-.17.62.62,0,0,0-.69.54.61.61,0,0,0,.53.69h.16a.62.62,0,0,0,.43-.18Z"/><path d="M18.08,83.73l-.15-.34h-.84l-.15.34h-.12l.63-1.4h.12l.63,1.4Zm-.2-.44-.37-.85-.38.85Z"/><path d="M8.62,66.7A.71.71,0,1,1,7.91,66,.71.71,0,0,1,8.62,66.7Zm-1.31,0a.6.6,0,1,0,.6-.6.6.6,0,0,0-.6.6Z"/><path d="M9,66.41v.18a.36.36,0,0,1,.33-.19.39.39,0,0,1,.21.06v.08a.49.49,0,0,0-.17,0,.33.33,0,0,0-.33.33H9v.57h-.1v-1Z"/><path d="M9.79,66v1.4h-.1V66Z"/><path d="M11.07,66.41v1H11V67.2a.46.46,0,0,1-.4.23.5.5,0,0,1-.4-.6.51.51,0,0,1,.4-.4.46.46,0,0,1,.4.23v-.22Zm-.91.5a.38.38,0,0,0,.37.41h0a.41.41,0,0,0,0-.82h0a.38.38,0,0,0-.41.37Z"/><path d="M11.49,66.41v.18a.37.37,0,0,1,.35-.19.41.41,0,0,1,.45.37v.63h-.1v-.57a.32.32,0,0,0-.3-.34h-.06a.34.34,0,0,0-.34.34v.57h-.1v-1Z"/><path d="M13.54,66v1.4h-.1v-.22a.46.46,0,0,1-.41.24.5.5,0,0,1-.4-.6.51.51,0,0,1,.4-.4.44.44,0,0,1,.41.23V66Zm-.91.91a.38.38,0,0,0,.35.41h0a.42.42,0,0,0,.35-.48.42.42,0,0,0-.35-.35.38.38,0,0,0-.4.36Z"/><path d="M13.79,66.91a.51.51,0,1,1,.51.51h0a.49.49,0,0,1-.5-.48Zm.91,0a.41.41,0,0,0-.34-.47.42.42,0,0,0-.47.34.29.29,0,0,0,0,.13.41.41,0,0,0,.34.47A.42.42,0,0,0,14.7,67,.29.29,0,0,0,14.7,66.91Z"/><path d="M15.2,67.34h0l-.08.2H15l.06-.17A.08.08,0,0,1,15,67.3a.1.1,0,0,1,.11-.08.11.11,0,0,1,.08.12Z"/><path d="M16.18,66.67H17v.1h-.81v.63h-.11V66H17v.11h-.83Z"/><path d="M17.42,66v1.3h.79v.1h-.89V66Z"/><path d="M3.23,49.67V51H4v.1H3.1V49.7Z"/><path d="M4.11,50.58a.49.49,0,0,1,.46-.52h0a.5.5,0,0,1,.51.49v0a.49.49,0,0,1-.48.5h0a.48.48,0,0,1-.5-.46Zm.91,0a.41.41,0,0,0-.34-.47.42.42,0,0,0-.47.34.29.29,0,0,0,0,.13.41.41,0,0,0,.34.47A.42.42,0,0,0,5,50.71.29.29,0,0,0,5,50.58Z"/><path d="M6,50.26a.45.45,0,0,0-.31-.1c-.16,0-.3.05-.3.18s.18.16.3.18.42.06.41.29-.23.27-.41.27a.5.5,0,0,1-.43-.19l.07-.07a.42.42,0,0,0,.36.17C5.84,51,6,51,6,50.8s-.16-.17-.32-.19-.38-.07-.38-.27.19-.28.39-.28a.45.45,0,0,1,.36.14Z"/><path d="M8,51.07l-.15-.35H7l-.15.35H6.74l.62-1.4h.12l.63,1.4Zm-.19-.45-.38-.85L7,50.62Z"/><path d="M8.42,50.08v.18a.39.39,0,0,1,.35-.2.41.41,0,0,1,.45.37v.64h-.1V50.5a.32.32,0,0,0-.3-.34H8.77a.34.34,0,0,0-.35.33v.58h-.1v-1Z"/><path d="M10.38,50l.07.06-.11.12a.46.46,0,0,1-.17.76.33.33,0,0,1,.3.33c0,.24-.23.36-.49.36s-.49-.14-.49-.39h.1c0,.2.19.3.39.3s.4-.08.4-.27S10.16,51,10,51a.47.47,0,0,1-.51-.43v0A.49.49,0,0,1,10,50h0a.53.53,0,0,1,.3.09Zm-.82.52a.37.37,0,0,0,.37.39H10a.4.4,0,0,0,.41-.39h0a.38.38,0,0,0-.37-.39h0a.4.4,0,0,0-.42.38v0Z"/><path d="M10.68,50.57a.5.5,0,0,1,.49-.51h0a.46.46,0,0,1,.49.43.57.57,0,0,1,0,.13h-.88a.39.39,0,0,0,.4.37.44.44,0,0,0,.35-.15h.07a.49.49,0,0,1-.42.19.48.48,0,0,1-.5-.46Zm.9,0a.35.35,0,0,0-.35-.37h-.05a.38.38,0,0,0-.4.36h.8Z"/><path d="M12,49.67v1.4h-.1v-1.4Z"/><path d="M12.3,50.57a.5.5,0,0,1,.49-.51h0a.46.46,0,0,1,.5.42.71.71,0,0,1,0,.14H12.4a.39.39,0,0,0,.4.37.48.48,0,0,0,.36-.15h.07a.52.52,0,0,1-.43.19.48.48,0,0,1-.5-.46Zm.9,0a.35.35,0,0,0-.35-.37h0a.39.39,0,0,0-.4.37Z"/><path d="M14.19,50.26a.45.45,0,0,0-.31-.1c-.15,0-.3.05-.29.18s.17.16.3.18.41.06.4.29-.23.27-.4.27a.5.5,0,0,1-.43-.19l.07-.07a.42.42,0,0,0,.36.17c.12,0,.3,0,.31-.19s-.16-.17-.32-.19-.39-.07-.39-.27.19-.28.39-.28a.47.47,0,0,1,.37.14Z"/><path d="M14.68,51h0l-.08.21h-.09l.06-.17a.09.09,0,0,1,0-.07.08.08,0,1,1,.11,0Z"/><path d="M16.7,50.87a.75.75,0,0,1-.51.21.67.67,0,0,1-.72-.62v-.08a.68.68,0,0,1,.63-.73h.09a.75.75,0,0,1,.51.21l-.08.07a.67.67,0,0,0-1.12.36A.61.61,0,0,0,16,51a.43.43,0,0,0,.16,0,.63.63,0,0,0,.43-.17Z"/><path d="M18.08,51.07l-.15-.35h-.84l-.15.35h-.12l.63-1.4h.12l.63,1.4Zm-.2-.45-.37-.85-.38.85Z"/><path d="M6,33.33l1,1.16V33.33h.1v1.4H7l-.94-1.15v1.15H6Z"/><path d="M7.35,34.24a.49.49,0,0,1,.47-.51h0a.46.46,0,0,1,.5.42.71.71,0,0,1,0,.14H7.45a.39.39,0,0,0,.4.36.48.48,0,0,0,.36-.15l.07.06a.52.52,0,0,1-.43.19.49.49,0,0,1-.5-.48Zm.9,0a.36.36,0,0,0-.34-.38H7.85a.4.4,0,0,0-.4.38Z"/><path d="M9.61,34.73H9.5l-.16-.43-.12-.38-.12.38-.16.43H8.83l-.35-1h.11l.29.87.31-.87h.07l.3.87.29-.87H10Z"/><path d="M11.06,34.17l-.55-.83h.13l.47.74.48-.74h.12l-.55.83v.56h-.1Z"/><path d="M11.64,34.25a.5.5,0,1,1,.5.5A.5.5,0,0,1,11.64,34.25Zm.91,0a.41.41,0,0,0-.34-.47.42.42,0,0,0-.47.34.29.29,0,0,0,0,.13.41.41,0,0,0,.81,0Z"/><path d="M13,33.75v.17a.35.35,0,0,1,.33-.18.38.38,0,0,1,.21,0v.09a.3.3,0,0,0-.16,0,.33.33,0,0,0-.33.33h0v.57H13v-1Z"/><path d="M13.8,33.33v.85l.47-.43h.13l-.5.46.56.52h-.13l-.53-.48v.48h-.09v-1.4Z"/><path d="M14.78,34.67h0l-.08.2h-.08l.06-.16a.09.09,0,0,1,0-.08.08.08,0,0,1,.11,0A.08.08,0,0,1,14.78,34.67Z"/><path d="M15.7,33.33l.94,1.16V33.33h.11v1.4H16.7l-.94-1.15v1.15h-.11v-1.4Z"/><path d="M17.55,34.17,17,33.34h.13l.47.74.48-.74h.12l-.54.83v.56h-.11Z"/><path d="M2,17.27a.44.44,0,0,0-.42-.19c-.16,0-.42.06-.42.29s.19.22.43.26.54.1.54.4-.32.39-.55.39a.63.63,0,0,1-.57-.3l.09-.05a.58.58,0,0,0,.48.26c.17,0,.45,0,.45-.3s-.23-.26-.46-.3-.52-.1-.52-.36.3-.39.53-.39a.54.54,0,0,1,.51.24Z"/><path d="M3.36,17.41v1h-.1V18.2a.44.44,0,0,1-.4.23.5.5,0,0,1-.4-.6.51.51,0,0,1,.4-.4.46.46,0,0,1,.4.23v-.22Zm-.9.5a.38.38,0,0,0,.37.41h0a.41.41,0,0,0,0-.82h0a.38.38,0,0,0-.4.38Z"/><path d="M3.78,17.41v.18a.39.39,0,0,1,.35-.19.41.41,0,0,1,.45.37v.63h-.1v-.57a.32.32,0,0,0-.3-.34h0a.34.34,0,0,0-.34.34v.57h-.1v-1Z"/><path d="M5.57,17.67h.8v.1h-.8v.63H5.46V17H6.4v.11H5.57Z"/><path d="M6.73,17.41v.18a.36.36,0,0,1,.33-.19.39.39,0,0,1,.21.06v.08H7.1a.33.33,0,0,0-.33.33v.57h-.1v-1Z"/><path d="M8.33,17.41v1h-.1V18.2a.44.44,0,0,1-.4.23.5.5,0,0,1-.4-.6.51.51,0,0,1,.4-.4.46.46,0,0,1,.4.23v-.22Zm-.9.5a.38.38,0,0,0,.37.41h0a.41.41,0,0,0,0-.82h0a.38.38,0,0,0-.4.38Z"/><path d="M8.75,17.41v.18a.39.39,0,0,1,.35-.19.41.41,0,0,1,.45.37v.63h-.1v-.57a.32.32,0,0,0-.3-.34H9.1a.34.34,0,0,0-.35.33v.58H8.66v-1Z"/><path d="M10.66,18.27a.51.51,0,0,1-.87-.34v0a.49.49,0,0,1,.47-.51h0a.49.49,0,0,1,.36.15l-.06.06a.42.42,0,0,0-.3-.12.4.4,0,0,0-.41.39v0a.4.4,0,0,0,.38.42h0a.43.43,0,0,0,.3-.13Z"/><path d="M11,17.09a.08.08,0,0,1-.16,0h0a.08.08,0,0,1,.16,0Zm-.13.32v1H11v-1Z"/><path d="M12,17.59a.45.45,0,0,0-.31-.1c-.16,0-.3.06-.3.18s.18.16.3.18.42.06.41.29-.23.28-.41.28a.51.51,0,0,1-.43-.2l.07-.06a.45.45,0,0,0,.36.16c.12,0,.31,0,.31-.18s-.16-.17-.32-.2-.38-.07-.38-.27.19-.27.39-.27a.54.54,0,0,1,.37.13Z"/><path d="M13.13,18.27a.51.51,0,0,1-.87-.32v0a.49.49,0,0,1,.47-.51h0a.49.49,0,0,1,.36.15l-.06.06a.42.42,0,0,0-.3-.12.38.38,0,0,0-.41.37v.05a.4.4,0,0,0,.38.42h0a.41.41,0,0,0,.29-.13Z"/><path d="M13.28,17.91a.5.5,0,1,1,.5.5A.5.5,0,0,1,13.28,17.91Zm.91,0a.41.41,0,0,0-.4-.42h0a.4.4,0,0,0-.4.4v0a.38.38,0,0,0,.37.41h0a.38.38,0,0,0,.41-.37Z"/><path d="M14.68,18.34h0l-.08.2h-.09l.06-.17a.08.08,0,0,1-.05-.07.08.08,0,1,1,.16,0Z"/><path d="M16.7,18.21a.75.75,0,0,1-.51.21.67.67,0,0,1-.72-.62v-.09a.68.68,0,0,1,.64-.72h.08a.75.75,0,0,1,.51.21l-.08.06a.62.62,0,1,0-.43,1.06h0a.62.62,0,0,0,.43-.18Z"/><path d="M18.08,18.4l-.15-.34h-.84l-.15.34h-.12l.63-1.4h.12l.63,1.4Zm-.2-.44-.37-.85-.38.85Z"/><path d="M51.48,48V46.81H49.79V48h-.28V45.25h.28v1.29h1.69V45.25h.28V48Z"/><path d="M54.16,47.06a1,1,0,1,1-1-1A1,1,0,0,1,54.16,47.06Zm-1.76,0a.75.75,0,1,0,.75-.75A.76.76,0,0,0,52.4,47.06Z"/><path d="M55.93,48V46.9a.58.58,0,0,0-1.16,0h0V48H54.5V46h.25v.31a.66.66,0,0,1,.61-.35.68.68,0,0,1,.69.46.75.75,0,0,1,.71-.46.8.8,0,0,1,.84.76V48h-.27V46.89a.55.55,0,0,0-.5-.6h-.07a.57.57,0,0,0-.58.56V48Z"/><path d="M58.2,47.17a.71.71,0,0,0,.75.65.9.9,0,0,0,.67-.27l.18.16a1.1,1.1,0,0,1-.85.37,1,1,0,0,1,0-2,.93.93,0,0,1,1,.83,1.08,1.08,0,0,1,0,.31Zm1.47-.23a.67.67,0,0,0-.67-.67h-.06a.72.72,0,0,0-.74.67Z"/><path d="M61.53,46.47a.82.82,0,0,0-.58-.2c-.29,0-.55.1-.54.32s.29.29.54.33.81.11.81.59-.41.57-.81.57a1,1,0,0,1-.87-.38l.16-.18a1,1,0,0,0,.72.32c.22,0,.54-.07.54-.34s-.26-.3-.58-.35-.77-.14-.77-.55.4-.57.79-.57a1,1,0,0,1,.74.27Z"/><path d="M64.33,46.07l.56,1.68.55-1.68h.3l-.7,2h-.3l-.29-.8-.23-.74-.22.75-.3.79h-.3l-.7-2H63l.56,1.68.56-1.68Z"/><path d="M66.37,45.45a.2.2,0,0,1-.19.19.19.19,0,0,1-.19-.19.2.2,0,0,1,.19-.19A.19.19,0,0,1,66.37,45.45Zm-.33.61v2h.27v-2Z"/><path d="M67.27,45.49v.58h.64v.23h-.64v1.12c0,.24.07.41.34.41a.6.6,0,0,0,.29-.08L68,48a.85.85,0,0,1-.38.09c-.42,0-.6-.24-.6-.65V46.3h-.4v-.23H67v-.56Z"/><path d="M68.45,45.25v1.16a.83.83,0,0,1,1.51.53V48h-.27V46.9c0-.4-.19-.64-.59-.64a.65.65,0,0,0-.65.65V48h-.27V45.25Z"/><path d="M71.53,46.07v.32a.66.66,0,0,1,.63-.35.65.65,0,0,1,.44.14l-.12.22a.59.59,0,0,0-.34-.1.6.6,0,0,0-.61.59V48h-.27V46Z"/><path d="M74.62,47.06a1,1,0,1,1-1-1A1,1,0,0,1,74.62,47.06Zm-1.76,0a.75.75,0,1,0,.75-.75A.76.76,0,0,0,72.86,47.06Z"/><path d="M76.86,47.06a1,1,0,1,1-1-1A1,1,0,0,1,76.86,47.06Zm-1.76,0a.75.75,0,1,0,.75-.75A.76.76,0,0,0,75.1,47.06Z"/><path d="M77.37,48V46.32H77v-.23h.39v-.16c0-.43.21-.7.63-.7a.76.76,0,0,1,.43.14l-.12.2a.54.54,0,0,0-.3-.1c-.23,0-.37.14-.37.46v.16h.63v.23h-.63V48Z"/><path d="M79,45.49v.58h.63v.23H79v1.12c0,.24.06.41.33.41a.6.6,0,0,0,.29-.08l.08.23a.85.85,0,0,1-.38.09c-.42,0-.59-.24-.59-.65V46.3h-.41v-.23h.41v-.56Z"/><path d="M81.78,47.06a1,1,0,1,1-1-1A1,1,0,0,1,81.78,47.06Zm-1.76,0a.72.72,0,0,0,.68.76h.07a.71.71,0,0,0,.74-.68v-.08a.74.74,0,0,0-.68-.78h-.06A.73.73,0,0,0,80,47v.09Z"/><path d="M82.12,49V46.07h.26v.42a.88.88,0,0,1,.8-.45,1,1,0,0,1,0,2,.88.88,0,0,1-.78-.43V49Zm1.77-1.93a.7.7,0,0,0-.64-.76h-.1a.76.76,0,0,0,0,1.52.71.71,0,0,0,.74-.68v-.09Z"/><path d="M86.67,46.47a.82.82,0,0,0-.58-.2c-.29,0-.55.1-.54.32s.29.29.54.33.82.11.82.59-.42.57-.82.57a1,1,0,0,1-.87-.38l.17-.18a.93.93,0,0,0,.71.32c.22,0,.54-.07.54-.34s-.26-.3-.57-.35-.78-.14-.78-.55.41-.57.79-.57a1,1,0,0,1,.75.27Z"/><path d="M89.12,47.06a1,1,0,1,1-1-1A1,1,0,0,1,89.12,47.06Zm-1.76,0a.72.72,0,0,0,.68.76h.07a.71.71,0,0,0,.74-.68v-.08a.74.74,0,0,0-.68-.78h-.06a.73.73,0,0,0-.75.71Z"/><path d="M89.75,45.25V48h-.26V45.25Z"/><path d="M91.91,46.07h.25v2h-.25v-.39a.91.91,0,0,1-.78.43,1,1,0,0,1,0-2,.87.87,0,0,1,.78.42Zm-1.52,1a.74.74,0,0,0,.71.77h0a.77.77,0,0,0,0-1.54.73.73,0,0,0-.75.71v.05Z"/><path d="M92.88,46.07v.32a.66.66,0,0,1,.63-.35.73.73,0,0,1,.45.14l-.13.22a.59.59,0,0,0-.34-.1.6.6,0,0,0-.61.59V48h-.27V46Z"/><path d="M94.92,47.3a1.26,1.26,0,0,0,.7.22c.13,0,.2,0,.2-.1s-.06-.09-.2-.1c-.39,0-.85-.17-.85-.65s.44-.65.91-.65a1.45,1.45,0,0,1,.81.24l-.32.44a1,1,0,0,0-.49-.12c-.1,0-.18,0-.18.1s0,.09.15.09c.41,0,.91.13.91.65s-.45.68-.92.68a1.85,1.85,0,0,1-1-.26Z"/><path d="M98.72,47.27H97.34c0,.17.28.25.44.25a.86.86,0,0,0,.51-.16l.36.4a1.3,1.3,0,0,1-.9.33,1,1,0,1,1,0-2.07,1,1,0,0,1,1,1A1.07,1.07,0,0,1,98.72,47.27Zm-.66-.48c0-.31-.67-.32-.71,0Z"/><path d="M99.63,45.24V48h-.72V45.2Z"/><path d="M100.63,45.24V48h-.72V45.2Z"/><path d="M101.77,48V46.67h-.33v-.56h.33V46a.79.79,0,0,1,.77-.81h.08a.83.83,0,0,1,.6.22l-.23.44a.41.41,0,0,0-.26-.09.2.2,0,0,0-.22.2v.14H103v.56h-.51V48Z"/><path d="M105.28,47.06a1.13,1.13,0,1,1-2.26,0h0a1.13,1.13,0,1,1,2.26,0Zm-.72,0a.41.41,0,1,0-.41.43.4.4,0,0,0,.41-.39Z"/><path d="M106.1,46.07l.05.22a.5.5,0,0,1,.48-.27.73.73,0,0,1,.52.21l-.3.54a.45.45,0,0,0-.33-.12.32.32,0,0,0-.34.3s0,0,0,.07v1h-.74V46Z"/><path d="M50.24,50.31v.57h.45v.56h-.45v.65c0,.14.08.19.2.19a.39.39,0,0,0,.21-.06l.16.54a1.11,1.11,0,0,1-.57.13c-.39,0-.74-.18-.73-.8v-.65H49.2v-.56h.31v-.49Z"/><path d="M51.65,50.05v1a.61.61,0,0,1,.53-.25c.4,0,.77.26.77.92v1.09h-.73V51.75c0-.22-.12-.29-.27-.29a.32.32,0,0,0-.31.33h0v1H50.9V50.05Z"/><path d="M55.34,51.86a1.13,1.13,0,1,1-1-1A1.13,1.13,0,0,1,55.34,51.86Zm-.72,0a.4.4,0,0,0-.37-.43h0a.43.43,0,0,0-.06.86.43.43,0,0,0,.46-.4Z"/><path d="M56.22,50.87V52c0,.24.14.33.27.33a.33.33,0,0,0,.34-.32V50.87h.73v2h-.65v-.21a.82.82,0,0,1-.62.26c-.42,0-.78-.22-.78-.93V50.87Z"/><path d="M57.94,52.1a1.26,1.26,0,0,0,.7.22c.13,0,.2,0,.2-.1s-.07-.09-.21-.1c-.39,0-.85-.17-.85-.65s.45-.65.91-.65a1.45,1.45,0,0,1,.81.24l-.31.44a1.11,1.11,0,0,0-.5-.12c-.1,0-.17,0-.17.1s0,.09.14.09c.42,0,.91.13.91.65s-.44.68-.92.68a1.89,1.89,0,0,1-.95-.26Z"/><path d="M61.19,50.87h.69v2H61.2v-.21a.84.84,0,0,1-.65.25.94.94,0,0,1-.91-1v0a1,1,0,0,1,1-1,.66.66,0,0,1,.58.25Zm-.85,1a.4.4,0,0,0,.37.43h0a.41.41,0,0,0,.41-.41v0a.39.39,0,0,0-.34-.44h-.07a.4.4,0,0,0-.4.4v0Z"/><path d="M63.5,52.84V51.75c0-.24-.14-.32-.28-.32a.34.34,0,0,0-.34.34v1h-.73v-2h.65V51a.78.78,0,0,1,.62-.27c.41,0,.77.23.77.93v1.09Z"/><path d="M65.88,50.05h.74v2.79H66v-.21a.84.84,0,0,1-.65.25.9.9,0,0,1-.9-.92v-.08a.94.94,0,0,1,.88-1h.12a.65.65,0,0,1,.54.21Zm-.77,1.81a.39.39,0,0,0,.35.43h0a.4.4,0,0,0,.4-.4h0a.42.42,0,0,0-.38-.46h0a.38.38,0,0,0-.39.39Z"/><path d="M67,52.1a1.26,1.26,0,0,0,.7.22c.13,0,.2,0,.2-.1s-.06-.09-.21-.1c-.38,0-.84-.17-.84-.65s.44-.65.91-.65a1.45,1.45,0,0,1,.81.24l-.32.44a1,1,0,0,0-.49-.12c-.11,0-.18,0-.18.1s0,.09.15.09c.41,0,.91.13.91.65s-.45.68-.92.68a1.85,1.85,0,0,1-1-.26Z"/><path d="M71.67,51.86a1.13,1.13,0,1,1-1-1A1.13,1.13,0,0,1,71.67,51.86Zm-.72,0a.41.41,0,1,0-.41.43A.41.41,0,0,0,71,52v-.1Z"/><path d="M72,52.84V51.47h-.34v-.56H72v-.1a.78.78,0,0,1,.75-.81h.1a.83.83,0,0,1,.6.22l-.23.44a.37.37,0,0,0-.27-.09.22.22,0,0,0-.22.22v.12h.52v.56h-.52v1.37Z"/><path d="M75.46,50.05h.74v2.79h-.66v-.21a.84.84,0,0,1-.65.25A.9.9,0,0,1,74,52v-.08a.94.94,0,0,1,.88-1H75a.65.65,0,0,1,.54.21Zm-.77,1.81a.39.39,0,0,0,.35.43h0a.4.4,0,0,0,.4-.4h0a.42.42,0,0,0-.38-.46h0a.38.38,0,0,0-.39.39Z"/><path d="M78.62,51.86a1,1,0,0,1-1,1h-.14a1,1,0,1,1,1.13-1Zm-.72,0a.41.41,0,1,0-.41.43.4.4,0,0,0,.41-.39Z"/><path d="M79.51,50v2.8h-.73V50Z"/><path d="M80.51,50v2.8h-.72V50Z"/><path d="M82.25,50.87h.69v2h-.68v-.21a.84.84,0,0,1-.65.25.93.93,0,0,1-.9-1v0a1,1,0,0,1,1-1,.66.66,0,0,1,.58.25Zm-.84,1a.39.39,0,0,0,.35.43h0a.41.41,0,0,0,.41-.41v0a.4.4,0,0,0-.8,0Z"/><path d="M83.88,50.87v.22a.53.53,0,0,1,.48-.27.73.73,0,0,1,.52.21l-.3.53a.5.5,0,0,0-.33-.12.34.34,0,0,0-.34.34v1h-.73v-2Z"/><path d="M85,52.1a1.26,1.26,0,0,0,.7.22c.13,0,.2,0,.2-.1s-.06-.09-.21-.1c-.38,0-.84-.17-.84-.65s.44-.65.91-.65a1.42,1.42,0,0,1,.8.24l-.31.44a1,1,0,0,0-.49-.12c-.11,0-.18,0-.18.1s0,.09.15.09c.41,0,.91.13.91.65s-.45.68-.92.68a1.85,1.85,0,0,1-1-.26Z"/><path d="M88.75,52.84V51.75c0-.23-.07-.31-.21-.31s-.25.11-.26.32v1.08h-.73v-2h.62v.21a.68.68,0,0,1,.55-.25.55.55,0,0,1,.49.28.77.77,0,0,1,.65-.28c.43,0,.76.26.76.91v1.1h-.73V51.75c0-.21-.1-.29-.21-.29s-.25.08-.25.3v1.08Z"/><path d="M93.07,51.86a1.13,1.13,0,1,1-1.13-1.13A1.14,1.14,0,0,1,93.07,51.86Zm-.72,0a.41.41,0,1,0-.41.43.4.4,0,0,0,.41-.39Z"/><path d="M93.89,50.87v.22a.5.5,0,0,1,.48-.27.73.73,0,0,1,.52.21l-.3.53a.5.5,0,0,0-.33-.12.32.32,0,0,0-.34.32v1.06h-.74v-2Z"/><path d="M96.92,52.06H95.54a.45.45,0,0,0,.44.26.86.86,0,0,0,.51-.16l.36.4a1.3,1.3,0,0,1-.9.33,1,1,0,0,1,0-2.07,1,1,0,0,1,1,1A1,1,0,0,1,96.92,52.06Zm-.66-.47c0-.31-.66-.32-.71,0Z"/></svg>