<svg xmlns="http://www.w3.org/2000/svg" viewBox="0 0 180.1 192.59"><circle cx="18.1" cy="18.22" r="6.46" style="fill:#e5593f"/><circle cx="18.1" cy="96.44" r="6.46" style="fill:#e5593f"/><circle cx="18.1" cy="174.1" r="6.46" style="fill:#e5593f"/><line x1="18.1" y1="22.98" x2="18.1" y2="167.75" style="fill:none;stroke:#e5593f;stroke-miterlimit:10"/><path d="M36.24,21.85V13.47h5.93v1.3H37.58v2.56H42v1.25H37.58v3.27Z" style="fill:#e5593f"/><path d="M44.86,14.2a.77.77,0,0,1-1.53,0A.77.77,0,0,1,44.86,14.2Zm-1.39,1.71v5.94h1.24V15.91Z" style="fill:#e5593f"/><path d="M47.67,13.47v8.38H46.44V13.47Z" style="fill:#e5593f"/><path d="M50.68,13.47v8.38H49.45V13.47Z" style="fill:#e5593f"/><path d="M61.15,18.9a3.06,3.06,0,1,1-6.12,0,3.06,3.06,0,1,1,6.12,0Zm-4.89,0a1.82,1.82,0,1,0,3.64,0A1.86,1.86,0,0,0,58.08,17,1.82,1.82,0,0,0,56.26,18.9Z" style="fill:#e5593f"/><path d="M63.6,15.94V19.1a1.54,1.54,0,0,0,1.6,1.71A1.69,1.69,0,0,0,66.85,19V15.94h1.23v5.92H67L66.89,21a2.52,2.52,0,0,1-2,1c-1.46,0-2.5-1.05-2.5-2.83V15.94Z" style="fill:#e5593f"/><path d="M71.67,14.24V16H73.4V17H71.66v2.82c0,.62.28,1,.85,1a1.81,1.81,0,0,0,.76-.21l.36,1.06a2.81,2.81,0,0,1-1.19.26,1.82,1.82,0,0,1-2-2.08V17H69.29V16h1.13V14.37Z" style="fill:#e5593f"/><path d="M83.38,18.9a3.06,3.06,0,1,1-6.12,0,3.06,3.06,0,1,1,6.12,0Zm-4.88,0a1.82,1.82,0,1,0,3.63,0A1.85,1.85,0,0,0,80.31,17,1.82,1.82,0,0,0,78.5,18.9Z" style="fill:#e5593f"/><path d="M85.83,15.94V19.1a1.55,1.55,0,0,0,1.61,1.71A1.68,1.68,0,0,0,89.08,19V15.94h1.24v5.92H89.2L89.13,21a2.54,2.54,0,0,1-2,1c-1.45,0-2.49-1.05-2.49-2.83V15.94Z" style="fill:#e5593f"/><path d="M93.15,15.94l.09.78A1.81,1.81,0,0,1,95,15.81a2.28,2.28,0,0,1,1.46.5l-.57,1.08a1.61,1.61,0,0,0-2.63,1.26v3.2H92V15.94Z" style="fill:#e5593f"/><path d="M104.71,24.6V21a2.44,2.44,0,0,1-2.09,1,2.88,2.88,0,0,1-3-3.08,2.92,2.92,0,0,1,3-3.08,2.43,2.43,0,0,1,2.07,1.08l.08-1h1.17V24.6Zm-.12-5.7A1.8,1.8,0,0,0,102.73,17a1.77,1.77,0,0,0-1.86,1.88,1.86,1.86,0,1,0,3.72,0Z" style="fill:#e5593f"/><path d="M108.76,15.94V19.1a1.55,1.55,0,0,0,1.61,1.71A1.68,1.68,0,0,0,112,19V15.94h1.24v5.92h-1.12l-.07-.87a2.53,2.53,0,0,1-2,1c-1.45,0-2.49-1.05-2.49-2.83V15.94Z" style="fill:#e5593f"/><path d="M116.32,14.2a.76.76,0,1,1-1.53,0A.76.76,0,0,1,116.32,14.2Zm-1.39,1.71v5.94h1.24V15.91Z" style="fill:#e5593f"/><path d="M122.85,21.08a3,3,0,0,1-2.24.93,2.93,2.93,0,0,1-3.12-3.11,2.93,2.93,0,0,1,3.12-3.11,2.88,2.88,0,0,1,2.13.88l-.79.83a1.91,1.91,0,0,0-1.33-.53,1.84,1.84,0,0,0-1.9,1.93,1.8,1.8,0,0,0,1.89,1.91,2,2,0,0,0,1.4-.55Z" style="fill:#e5593f"/><path d="M125.2,13.47v4.89l2.2-2.42h1.5V16l-2.56,2.71,2.9,3.05v.08h-1.51l-2.53-2.73v2.73H124V13.47Z" style="fill:#e5593f"/><path d="M133.4,21.85V17.1h-1.13V16h1.13v-.43a2,2,0,0,1,2.13-2.24,2.57,2.57,0,0,1,1.45.46l-.48.93a1.53,1.53,0,0,0-.89-.31c-.57,0-1,.37-1,1.16V16h1.78V17.1h-1.78v4.75Z" style="fill:#e5593f"/><path d="M143.1,18.9a3.06,3.06,0,1,1-6.11,0,3.06,3.06,0,1,1,6.11,0Zm-4.88,0a1.82,1.82,0,1,0,3.64,0A1.86,1.86,0,0,0,140,17,1.82,1.82,0,0,0,138.22,18.9Z" style="fill:#e5593f"/><path d="M145.57,15.94l.08.78a1.81,1.81,0,0,1,1.74-.91,2.26,2.26,0,0,1,1.46.5l-.56,1.08a1.62,1.62,0,0,0-2.64,1.26v3.2h-1.23V15.94Z" style="fill:#e5593f"/><path d="M153.74,21.85V18.6A1.45,1.45,0,0,0,152.36,17a1.48,1.48,0,0,0-1.43,1.61v3.25H149.7V15.93h1.15l.08.79a1.79,1.79,0,0,1,1.65-.89A1.85,1.85,0,0,1,154.44,17a2.16,2.16,0,0,1,2-1.18c1.63,0,2.51,1,2.51,2.74v3.27h-1.25V18.58c0-.88-.43-1.57-1.31-1.57A1.48,1.48,0,0,0,155,18.6v3.25Z" style="fill:#e5593f"/><path d="M43.3,99a4.39,4.39,0,0,1-3.15,1.24,4.11,4.11,0,0,1-4.43-4.3,4.2,4.2,0,0,1,4.43-4.4,4.31,4.31,0,0,1,3.07,1.27l-.9.86a3.07,3.07,0,0,0-2.17-.86,3,3,0,0,0-3.1,3.12A2.91,2.91,0,0,0,40.15,99a3.25,3.25,0,0,0,2.23-.92Z" style="fill:#e5593f"/><path d="M45.69,91.67V95a2.24,2.24,0,0,1,1.92-1c1.67,0,2.44,1.12,2.44,2.81v3.19H48.81V96.89c0-1.12-.57-1.67-1.49-1.67A1.66,1.66,0,0,0,45.69,97v3.09H44.46v-8.4Z" style="fill:#e5593f"/><path d="M57.39,97.12A3.06,3.06,0,1,1,54.32,94,3,3,0,0,1,57.39,97.12Zm-4.88,0a1.82,1.82,0,1,0,3.63,0,1.86,1.86,0,0,0-1.82-2A1.82,1.82,0,0,0,52.51,97.12Z" style="fill:#e5593f"/><path d="M64.45,97.12A3.06,3.06,0,1,1,61.38,94,3,3,0,0,1,64.45,97.12Zm-4.88,0a1.82,1.82,0,1,0,3.63,0,1.86,1.86,0,0,0-1.82-2A1.82,1.82,0,0,0,59.57,97.12Z" style="fill:#e5593f"/><path d="M69.54,95.61A2.11,2.11,0,0,0,68,95.05c-.76,0-1.26.24-1.26.71s.53.68,1.28.76c1.09.09,2.52.33,2.51,1.86,0,1.1-1,1.87-2.52,1.87a3.39,3.39,0,0,1-2.7-1.09l.65-.88a2.93,2.93,0,0,0,2.07.88c.59,0,1.25-.22,1.26-.77s-.49-.73-1.37-.82c-1.11-.11-2.39-.47-2.41-1.77S66.85,94,68,94a3.16,3.16,0,0,1,2.28.79Z" style="fill:#e5593f"/><path d="M72.67,97.57a1.76,1.76,0,0,0,1.93,1.49,2.48,2.48,0,0,0,1.72-.64l.8.78a3.49,3.49,0,0,1-2.54,1A3.11,3.11,0,1,1,74.49,94c1.91,0,3.2,1.16,3,3.57Zm3.61-1a1.54,1.54,0,0,0-1.75-1.43,1.76,1.76,0,0,0-1.84,1.43Z" style="fill:#e5593f"/><path d="M86.47,94.15h1.2v5.92H86.49l-.06-1a2.34,2.34,0,0,1-2,1.11,3.1,3.1,0,0,1,0-6.2,2.28,2.28,0,0,1,2,1.07ZM82.59,97.1a1.87,1.87,0,0,0,1.92,2,2,2,0,0,0,0-3.92A1.86,1.86,0,0,0,82.59,97.1Z" style="fill:#e5593f"/><path d="M96.38,100.07V96.82A1.44,1.44,0,0,0,95,95.21a1.48,1.48,0,0,0-1.43,1.61v3.25H92.34V94.14h1.15l.08.79a1.81,1.81,0,0,1,1.66-.88,1.87,1.87,0,0,1,1.86,1.18,2.16,2.16,0,0,1,2-1.17c1.63,0,2.51,1,2.51,2.73v3.28h-1.25V96.79c0-.87-.43-1.57-1.3-1.57a1.48,1.48,0,0,0-1.44,1.6v3.25Z" style="fill:#e5593f"/><path d="M104.14,97.57a1.77,1.77,0,0,0,1.94,1.49,2.46,2.46,0,0,0,1.71-.64l.8.78a3.49,3.49,0,0,1-2.54,1A3.11,3.11,0,1,1,106,94c1.9,0,3.2,1.16,3,3.57Zm3.61-1A1.54,1.54,0,0,0,106,95.1a1.75,1.75,0,0,0-1.83,1.43Z" style="fill:#e5593f"/><path d="M111.13,97.57a1.76,1.76,0,0,0,1.93,1.49,2.46,2.46,0,0,0,1.71-.64l.81.78a3.52,3.52,0,0,1-2.55,1A3.11,3.11,0,1,1,113,94c1.91,0,3.2,1.16,3,3.57Zm3.61-1A1.54,1.54,0,0,0,113,95.1a1.76,1.76,0,0,0-1.84,1.43Z" style="fill:#e5593f"/><path d="M119.09,92.45v1.72h1.73v1.06h-1.74v2.82c0,.63.28,1,.85,1a1.79,1.79,0,0,0,.76-.2l.36,1.06a3,3,0,0,1-1.19.26,1.83,1.83,0,0,1-2-2.09V95.23h-1.14V94.17h1.14V92.58Z" style="fill:#e5593f"/><path d="M123.46,92.42a.77.77,0,0,1-1.53,0A.77.77,0,0,1,123.46,92.42Zm-1.39,1.71v5.94h1.24V94.13Z" style="fill:#e5593f"/><path d="M129.47,100.07V96.9a1.52,1.52,0,0,0-1.59-1.7A1.68,1.68,0,0,0,126.22,97v3.1H125V94.14h1.12l.08.87a2.56,2.56,0,0,1,4.53,1.88v3.18Z" style="fill:#e5593f"/><path d="M137.39,93.59l.9.7-.71.82A2.6,2.6,0,0,1,138.3,97a2.33,2.33,0,0,1-1.57,2.3,2,2,0,0,1,1.56,1.93c0,1.61-1.58,2.41-3.16,2.41-1.94,0-3.17-1-3.12-2.62h1.23c0,.92.9,1.41,1.89,1.42S137,102,137,101.18s-.76-1.28-1.86-1.28a2.87,2.87,0,0,1-3.2-3,3,3,0,0,1,3.2-3,3.1,3.1,0,0,1,1.6.41ZM133.19,97a1.94,1.94,0,1,0,2-1.82A1.79,1.79,0,0,0,133.19,97Z" style="fill:#e5593f"/><path d="M144.33,92.45v1.72h1.73v1.06h-1.74v2.82c0,.63.27,1,.85,1a1.79,1.79,0,0,0,.76-.2l.36,1.06a3,3,0,0,1-1.19.26,1.83,1.83,0,0,1-2-2.09V95.23h-1.14V94.17h1.14V92.58Z" style="fill:#e5593f"/><path d="M148.7,92.42a.77.77,0,0,1-1.54,0A.77.77,0,0,1,148.7,92.42Zm-1.39,1.71v5.94h1.23V94.13Z" style="fill:#e5593f"/><path d="M154.26,100.07V96.82a1.44,1.44,0,0,0-1.37-1.61,1.48,1.48,0,0,0-1.43,1.61v3.25h-1.24V94.14h1.16l.08.79a1.79,1.79,0,0,1,1.65-.88A1.86,1.86,0,0,1,155,95.23a2.17,2.17,0,0,1,2-1.17c1.63,0,2.51,1,2.51,2.73v3.28h-1.25V96.79c0-.87-.43-1.57-1.31-1.57a1.48,1.48,0,0,0-1.44,1.6v3.25Z" style="fill:#e5593f"/><path d="M162,97.57A1.76,1.76,0,0,0,164,99.06a2.48,2.48,0,0,0,1.72-.64l.8.78a3.49,3.49,0,0,1-2.54,1,3.11,3.11,0,1,1-.09-6.21c1.91,0,3.21,1.16,3,3.57Zm3.61-1a1.54,1.54,0,0,0-1.75-1.43,1.76,1.76,0,0,0-1.84,1.43Z" style="fill:#e5593f"/><path d="M41.25,171.75a2.54,2.54,0,0,0-2.07-.94c-1.13,0-2,.47-2,1.27s.94,1,2,1.2c1.73.24,3.37.72,3.37,2.6s-1.72,2.59-3.48,2.59a3.7,3.7,0,0,1-3.61-1.9l1-.67a2.9,2.9,0,0,0,2.62,1.37c1,0,2.12-.33,2.12-1.39,0-.91-1-1.22-2.15-1.38-1.67-.22-3.25-.64-3.25-2.44s1.73-2.41,3.24-2.41a3.41,3.41,0,0,1,3.13,1.41Z" style="fill:#e5593f"/><path d="M44.87,175.79a1.74,1.74,0,0,0,1.93,1.48,2.45,2.45,0,0,0,1.71-.63l.8.78a3.53,3.53,0,0,1-2.54,1,3.11,3.11,0,1,1-.08-6.22c1.91,0,3.2,1.17,3,3.58Zm3.61-1a1.55,1.55,0,0,0-1.76-1.42,1.75,1.75,0,0,0-1.83,1.42Z" style="fill:#e5593f"/><path d="M55.41,178.28v-3.16a1.53,1.53,0,0,0-1.59-1.71,1.68,1.68,0,0,0-1.66,1.78v3.09H50.93v-5.92h1.12l.07.86a2.62,2.62,0,0,1,2-.95,2.53,2.53,0,0,1,2.54,2.83v3.18Z" style="fill:#e5593f"/><path d="M64.19,169.9v8.38H63l-.07-.93a2.33,2.33,0,0,1-2.05,1.05,2.88,2.88,0,0,1-3-3.08,2.83,2.83,0,0,1,3-3.08,2.51,2.51,0,0,1,2.08,1V169.9Zm-5.07,5.42A1.82,1.82,0,0,0,61,177.25a1.93,1.93,0,0,0,0-3.85A1.8,1.8,0,0,0,59.12,175.32Z" style="fill:#e5593f"/><path d="M70,172.37v3.17a1.54,1.54,0,0,0,1.61,1.7,1.68,1.68,0,0,0,1.64-1.79v-3.08h1.24v5.92H73.37l-.07-.87a2.53,2.53,0,0,1-2,1c-1.45,0-2.49-1-2.49-2.83v-3.18Z" style="fill:#e5593f"/><path d="M80,173.82a2.13,2.13,0,0,0-1.56-.55c-.75,0-1.26.24-1.26.71s.53.68,1.29.75c1.09.1,2.51.34,2.5,1.86,0,1.1-1,1.87-2.52,1.87a3.33,3.33,0,0,1-2.69-1.09l.64-.87a2.88,2.88,0,0,0,2.08.87c.59,0,1.25-.22,1.26-.77s-.49-.73-1.37-.81c-1.12-.11-2.4-.47-2.41-1.78s1.35-1.8,2.46-1.8a3.2,3.2,0,0,1,2.28.79Z" style="fill:#e5593f"/><path d="M90.5,172.37,86.77,181H85.4l1.22-2.83-2.36-5.83H85.7l1,2.79.59,1.68.63-1.65,1.18-2.82Z" style="fill:#e5593f"/><path d="M97,175.33A3.06,3.06,0,1,1,94,172.25,3,3,0,0,1,97,175.33Zm-4.88,0a1.82,1.82,0,1,0,3.63,0A1.85,1.85,0,0,0,94,173.39,1.82,1.82,0,0,0,92.16,175.33Z" style="fill:#e5593f"/><path d="M99.49,172.37v3.17a1.54,1.54,0,0,0,1.61,1.7,1.68,1.68,0,0,0,1.64-1.79v-3.08H104v5.92h-1.11l-.07-.87a2.56,2.56,0,0,1-4.54-1.87v-3.18Z" style="fill:#e5593f"/><path d="M106.81,172.37l.08.78a1.81,1.81,0,0,1,1.74-.91,2.24,2.24,0,0,1,1.46.5l-.56,1.08a1.62,1.62,0,0,0-2.64,1.26v3.2h-1.23v-5.91Z" style="fill:#e5593f"/><path d="M114.78,172.37v3.17a1.53,1.53,0,0,0,1.6,1.7,1.69,1.69,0,0,0,1.65-1.79v-3.08h1.23v5.92h-1.11l-.08-.87a2.52,2.52,0,0,1-2,1c-1.46,0-2.5-1-2.5-2.83v-3.18Z" style="fill:#e5593f"/><path d="M122.85,170.67v1.71h1.73v1.07h-1.74v2.82c0,.62.28,1,.85,1a2,2,0,0,0,.76-.2l.36,1.05a2.81,2.81,0,0,1-1.19.26c-1.29,0-2-.69-2-2.08v-2.82h-1.14v-1.07h1.14V170.8Z" style="fill:#e5593f"/><path d="M127.22,170.63a.77.77,0,0,1-1.54,0A.77.77,0,0,1,127.22,170.63Zm-1.39,1.72v5.93h1.23v-5.93Z" style="fill:#e5593f"/><path d="M130,169.9v8.38h-1.24V169.9Z" style="fill:#e5593f"/><path d="M133.15,170.63a.77.77,0,0,1-1.54,0A.77.77,0,0,1,133.15,170.63Zm-1.39,1.72v5.93H133v-5.93Z" style="fill:#e5593f"/><path d="M136.58,170.67v1.71h1.73v1.07h-1.74v2.82c0,.62.27,1,.85,1a1.91,1.91,0,0,0,.75-.2l.36,1.05a2.74,2.74,0,0,1-1.18.26c-1.29,0-2-.69-2-2.08v-2.82h-1.14v-1.07h1.14V170.8Z" style="fill:#e5593f"/><path d="M145.22,172.37,141.49,181h-1.37l1.22-2.83L139,172.37h1.44l1,2.79.59,1.68.63-1.65,1.18-2.82Z" style="fill:#e5593f"/><path d="M150.16,169.9v3.39a2.51,2.51,0,0,1,2.08-1,2.84,2.84,0,0,1,3,3.08,2.88,2.88,0,0,1-3,3.08,2.33,2.33,0,0,1-2.05-1.05l-.07.93h-1.16V169.9Zm.08,5.42a1.86,1.86,0,0,0,1.89,1.93,1.83,1.83,0,0,0,1.87-1.93,1.81,1.81,0,0,0-1.87-1.92A1.86,1.86,0,0,0,150.24,175.32Z" style="fill:#e5593f"/><path d="M158,170.63a.76.76,0,1,1-1.53,0A.76.76,0,0,1,158,170.63Zm-1.39,1.72v5.93h1.24v-5.93Z" style="fill:#e5593f"/><path d="M160.76,169.9v8.38h-1.24V169.9Z" style="fill:#e5593f"/><path d="M163.77,169.9v8.38h-1.23V169.9Z" style="fill:#e5593f"/></svg>