<svg xmlns="http://www.w3.org/2000/svg" viewBox="0 0 120 120"><path d="M43.18,38.84h7v.28l-9.66,14,9.82,14.19v.21H43.26L36.52,57.41,29.77,67.47H22.69v-.21l9.74-14.19-9.61-14v-.28h7L36.52,49Z" style="fill:tomato"/><path d="M97.31,47.59a.7.7,0,0,0-.7-.7H89.47a12.9,12.9,0,0,0-4-5.11L92.62,38v1.77a.7.7,0,1,0,1.4,0V34.11a.7.7,0,0,0-.7-.7H81.89L80.4,24.53a.68.68,0,0,0-.68-.58H75.63a.68.68,0,0,0-.68.58l-1.49,8.88H62a.7.7,0,0,0-.7.7v5.61a.7.7,0,0,0,1.4,0V38l7.19,3.83a12.9,12.9,0,0,0-4,5.11H58.74a.7.7,0,0,0-.7.7v6.28a.7.7,0,0,0,1.4,0V52.09l5.73,3a12.85,12.85,0,0,0,3.63,6.23l-1.42,8.48H58.74a.7.7,0,0,0-.7.7v5.34a.7.7,0,0,0,.7.7H96.61a.7.7,0,0,0,.7-.7V70.53a.7.7,0,0,0-.7-.7H88l-1.42-8.48a12.85,12.85,0,0,0,3.63-6.23l5.73-3v1.78a.7.7,0,0,0,1.4,0ZM92.62,34.81v1.56L84.11,40.9a11.86,11.86,0,0,0-1.06-.55l-.93-5.54ZM76.23,25.34h2.89l1.35,8.07H74.88Zm4.47,9.47.83,4.95a12.89,12.89,0,0,0-7.71,0l.83-4.95Zm-18,1.56V34.81h10.5l-.93,5.54a11.86,11.86,0,0,0-1.06.55ZM59.44,50.51V48.29h5.92A12.89,12.89,0,0,0,64.8,52a11.9,11.9,0,0,0,.07,1.34ZM95.91,71.23v4H59.44v-4Zm-9.36-1.4H68.8L70,62.4a12.83,12.83,0,0,0,15.27,0Zm-8.87-6.31A11.48,11.48,0,1,1,89.15,52,11.49,11.49,0,0,1,77.68,63.52Zm18.23-13-5.43,2.87A11.9,11.9,0,0,0,90.55,52,12.89,12.89,0,0,0,90,48.29h5.92Z" style="fill:#444"/><path d="M80.46,51.34H76l2.33-5.15a.71.71,0,0,0-.35-.93.7.7,0,0,0-.92.35l-2.78,6.14a.72.72,0,0,0,0,.67.7.7,0,0,0,.59.32h4.48L77,57.9a.7.7,0,0,0,.35.92.71.71,0,0,0,.28.06.7.7,0,0,0,.64-.41l2.78-6.14a.72.72,0,0,0,0-.67A.7.7,0,0,0,80.46,51.34Z" style="fill:#444"/><path d="M24.11,93.54l0-1.85V89h.56v5.6h-.33l-3.63-4.5,0,1.65V94.6h-.56V89h.35Z"/><path d="M29.44,92.63a2,2,0,1,1-2-2A2,2,0,0,1,29.44,92.63Zm-3.52,0a1.5,1.5,0,1,0,3,0,1.5,1.5,0,1,0-3,0Z"/><path d="M35.53,90.15a1.9,1.9,0,0,0-1.61-.71c-.68,0-1.57.2-1.57,1,0,.65.72.83,1.59,1,1.1.19,2.22.44,2.22,1.63s-1.22,1.61-2.24,1.61a2.46,2.46,0,0,1-2.33-1.24l.49-.27a2,2,0,0,0,1.84,1c.69,0,1.67-.18,1.67-1.08s-.84-.95-1.71-1.1c-1.05-.18-2.09-.42-2.09-1.5s1.18-1.55,2.13-1.55a2.31,2.31,0,0,1,2.08,1Z"/><path d="M39.63,90.65,40.75,94l1.11-3.37h.59l-1.39,4h-.61L39.87,93l-.45-1.5L39,93l-.58,1.59h-.61l-1.4-4H37L38.08,94l1.12-3.37Z"/><path d="M43.71,89.41a.38.38,0,0,1-.76,0A.38.38,0,0,1,43.71,89.41Zm-.66,1.22v4h.54v-4Z"/><path d="M45.52,89.48v1.18h1.27v.45H45.52v2.23c0,.5.13.83.67.83a1.56,1.56,0,0,0,.57-.15l.17.44a1.79,1.79,0,0,1-.76.2c-.85,0-1.19-.49-1.19-1.32V91.11h-.81v-.45H45V89.54Z"/><path d="M50.57,94.07a2.07,2.07,0,0,1-1.47.6,2,2,0,1,1,1.41-3.5l-.36.34a1.5,1.5,0,0,0-1-.42,1.54,1.54,0,0,0,0,3.07,1.55,1.55,0,0,0,1.1-.45Z"/><path d="M51.64,89v2.34A1.54,1.54,0,0,1,53,90.59a1.58,1.58,0,0,1,1.65,1.79V94.6h-.54V92.38c0-.79-.38-1.27-1.17-1.27a1.3,1.3,0,0,0-1.31,1.36V94.6h-.53V89Z"/><path d="M56.2,89.41a.38.38,0,0,1-.76,0A.38.38,0,0,1,56.2,89.41Zm-.66,1.22v4h.54v-4Z"/><path d="M60.12,94.6V92.38a1.17,1.17,0,0,0-1.29-1.29,1.3,1.3,0,0,0-1.29,1.36V94.6H57V90.65h.52v.66a1.6,1.6,0,0,1,1.38-.72,1.64,1.64,0,0,1,1.76,1.79V94.6Z"/><path d="M65,90.38l.37.3-.42.51a1.79,1.79,0,0,1,.53,1.31,1.67,1.67,0,0,1-1.2,1.65,1.34,1.34,0,0,1,1.17,1.3c0,1-1,1.5-2,1.5s-2-.6-2-1.63h.54c0,.74.71,1.11,1.46,1.11s1.49-.28,1.49-1-.75-1-1.49-1A1.88,1.88,0,0,1,61.3,92.5a2,2,0,0,1,2.07-2,2.33,2.33,0,0,1,1.17.32ZM61.84,92.5a1.38,1.38,0,0,0,1.53,1.44,1.45,1.45,0,0,0,1.52-1.44,1.4,1.4,0,0,0-1.52-1.44A1.43,1.43,0,0,0,61.84,92.5Z"/><path d="M71.53,90.15a1.91,1.91,0,0,0-1.61-.71c-.69,0-1.57.2-1.57,1,0,.65.72.83,1.59,1,1.1.19,2.22.44,2.22,1.63s-1.22,1.61-2.24,1.61a2.46,2.46,0,0,1-2.33-1.24l.49-.27a2,2,0,0,0,1.84,1c.69,0,1.67-.18,1.67-1.08s-.84-.95-1.71-1.1c-1-.18-2.09-.42-2.09-1.5s1.18-1.55,2.12-1.55a2.32,2.32,0,0,1,2.09,1Z"/><path d="M73.27,90.65v2.21a1.17,1.17,0,0,0,1.29,1.29,1.29,1.29,0,0,0,1.3-1.35V90.65h.53V94.6h-.5l0-.66a1.59,1.59,0,0,1-1.4.72,1.65,1.65,0,0,1-1.74-1.79V90.65Z"/><path d="M77.32,96.49V90.65h.52v.84a1.79,1.79,0,0,1,1.6-.9,2,2,0,0,1-.06,4.09,1.73,1.73,0,0,1-1.55-.88v2.69Zm3.54-3.87a1.4,1.4,0,0,0-1.49-1.51,1.44,1.44,0,0,0-1.48,1.52,1.46,1.46,0,0,0,1.48,1.53A1.43,1.43,0,0,0,80.86,92.62Z"/><path d="M82.08,96.49V90.65h.52v.84a1.79,1.79,0,0,1,1.6-.9,2,2,0,0,1-.06,4.09,1.73,1.73,0,0,1-1.55-.88v2.69Zm3.54-3.87a1.4,1.4,0,0,0-1.49-1.51,1.44,1.44,0,0,0-1.48,1.52,1.46,1.46,0,0,0,1.48,1.53A1.43,1.43,0,0,0,85.62,92.62Z"/><path d="M87.43,89v5.6h-.54V89Z"/><path d="M89.07,89.41a.38.38,0,0,1-.76,0A.38.38,0,0,1,89.07,89.41Zm-.66,1.22v4H89v-4Z"/><path d="M90.17,92.85a1.42,1.42,0,0,0,1.5,1.31A1.79,1.79,0,0,0,93,93.62l.36.32a2.22,2.22,0,0,1-1.69.73,2,2,0,0,1,0-4.09,1.86,1.86,0,0,1,2,2.27Zm2.94-.46a1.34,1.34,0,0,0-1.46-1.33,1.41,1.41,0,0,0-1.48,1.33Z"/><path d="M94.75,90.65l0,.65A1.32,1.32,0,0,1,96,90.59a1.44,1.44,0,0,1,.9.28l-.25.44a1.23,1.23,0,0,0-1.9,1V94.6h-.54V90.65Z"/><path d="M99.84,91.46a1.56,1.56,0,0,0-1.17-.4c-.57,0-1.08.2-1.07.64s.59.57,1.08.64c.71.11,1.63.23,1.63,1.19s-.82,1.15-1.62,1.15a2.09,2.09,0,0,1-1.75-.77l.34-.37a1.73,1.73,0,0,0,1.42.64c.45,0,1.08-.12,1.08-.66s-.51-.62-1.15-.7-1.55-.29-1.55-1.11.81-1.15,1.59-1.14a2,2,0,0,1,1.48.54Z"/></svg>