<svg xmlns="http://www.w3.org/2000/svg" viewBox="0 0 120 120"><path d="M36.68,38.84h7v.28L34,53.07l9.82,14.19v.21H36.76L30,57.41,23.27,67.47H16.19v-.21l9.74-14.19-9.61-14v-.28h7L30,49Z" style="fill:tomato"/><path d="M68.28,40.07h3a8.59,8.59,0,0,0,2,4.88L71.17,47a.69.69,0,0,0,0,1,.7.7,0,0,0,1,0l2.09-2.09a8.6,8.6,0,0,0,4.88,2v3a.7.7,0,0,0,1.4,0V48a8.6,8.6,0,0,0,4.88-2L87.49,48a.71.71,0,0,0,1,0,.71.71,0,0,0,0-1L86.39,45a8.6,8.6,0,0,0,2-4.88h3a.7.7,0,0,0,0-1.4h-3a8.6,8.6,0,0,0-2-4.88l2.09-2.09a.7.7,0,0,0-1-1L85.4,32.8a8.59,8.59,0,0,0-4.88-2v-3a.7.7,0,0,0-1.4,0v3a8.59,8.59,0,0,0-4.88,2l-2.09-2.08a.69.69,0,1,0-1,1l2.08,2.09a8.59,8.59,0,0,0-2,4.88h-3a.7.7,0,1,0,0,1.4Zm11.54-7.93a7.23,7.23,0,1,1-7.23,7.23A7.24,7.24,0,0,1,79.82,32.14Z" style="fill:#444"/><path d="M100.66,70.32H59a3.15,3.15,0,1,0,0,6.3h41.67a3.15,3.15,0,0,0,0-6.3Zm0,4.9H59a1.76,1.76,0,0,1,0-3.51h41.67a1.76,1.76,0,0,1,0,3.51Z" style="fill:#444"/><path d="M79.82,56.07a.7.7,0,0,0-.7.7v9.69a.7.7,0,1,0,1.4,0V56.77A.7.7,0,0,0,79.82,56.07Z" style="fill:#444"/><path d="M62.11,67a.69.69,0,0,0,.39.12.71.71,0,0,0,.58-.31l8.09-12.08A.7.7,0,0,0,70,54L61.92,66.07A.7.7,0,0,0,62.11,67Z" style="fill:#444"/><path d="M88.67,53.8a.7.7,0,0,0-.19,1l8.09,12.08a.69.69,0,0,0,.58.31.71.71,0,0,0,.39-.12.7.7,0,0,0,.19-1L89.64,54A.7.7,0,0,0,88.67,53.8Z" style="fill:#444"/><path d="M27.33,93.54l0-1.85V89h.56v5.6h-.33L23.9,90.1l0,1.65V94.6h-.56V89h.35Z"/><path d="M32.66,92.63a2,2,0,1,1-2-2A2,2,0,0,1,32.66,92.63Zm-3.53,0a1.5,1.5,0,1,0,3,0,1.5,1.5,0,1,0-3,0Z"/><path d="M39.85,93.84a2.81,2.81,0,0,1-2,.85,2.71,2.71,0,0,1-2.91-2.86,2.76,2.76,0,0,1,2.91-2.91,2.6,2.6,0,0,1,2,.84l-.35.35a2.31,2.31,0,0,0-1.64-.68,2.27,2.27,0,0,0-2.35,2.4,2.19,2.19,0,0,0,2.35,2.34,2.41,2.41,0,0,0,1.68-.69Z"/><path d="M43.69,90.65h.5V94.6h-.5v-.78a1.8,1.8,0,0,1-1.56.86,2,2,0,0,1,0-4.09,1.75,1.75,0,0,1,1.56.84Zm-3,2a1.48,1.48,0,0,0,1.5,1.56,1.55,1.55,0,0,0,0-3.1A1.48,1.48,0,0,0,40.65,92.62Z"/><path d="M48.24,94.6V92.38A1.18,1.18,0,0,0,47,91.09a1.3,1.3,0,0,0-1.3,1.36V94.6h-.53V90.65h.51l0,.66A1.58,1.58,0,0,1,47,90.59a1.64,1.64,0,0,1,1.76,1.79V94.6Z"/><path d="M52.93,94.07a2,2,0,0,1-1.47.6,2,2,0,1,1,1.41-3.5l-.35.34a1.54,1.54,0,0,0-1.05-.42,1.54,1.54,0,0,0,0,3.07,1.59,1.59,0,0,0,1.11-.45Z"/><path d="M53.67,92.85a1.42,1.42,0,0,0,1.5,1.31,1.79,1.79,0,0,0,1.33-.54l.36.32a2.22,2.22,0,0,1-1.69.73,2,2,0,0,1,0-4.09,1.86,1.86,0,0,1,2,2.27Zm2.94-.46a1.34,1.34,0,0,0-1.46-1.33,1.42,1.42,0,0,0-1.48,1.33Z"/><path d="M58.33,89v5.6H57.8V89Z"/><path d="M59.91,89v5.6h-.53V89Z"/><path d="M64.21,90.65h.51V94.6h-.5v-.78a1.8,1.8,0,0,1-1.57.86,2,2,0,0,1,0-4.09,1.73,1.73,0,0,1,1.55.84Zm-3,2a1.49,1.49,0,0,0,1.51,1.56,1.55,1.55,0,0,0,0-3.1A1.49,1.49,0,0,0,61.17,92.62Z"/><path d="M66.65,89.48v1.18h1.28v.45H66.65v2.23c0,.5.13.83.67.83a1.56,1.56,0,0,0,.57-.15l.17.44a1.76,1.76,0,0,1-.76.2c-.84,0-1.19-.49-1.19-1.32V91.11H65.3v-.45h.81V89.54Z"/><path d="M69.12,89.41a.38.38,0,0,1-.76,0A.38.38,0,0,1,69.12,89.41Zm-.66,1.22v4H69v-4Z"/><path d="M73.73,92.63a2,2,0,1,1-2-2A2,2,0,0,1,73.73,92.63Zm-3.52,0a1.5,1.5,0,1,0,3,0,1.5,1.5,0,1,0-3,0Z"/><path d="M77.53,94.6V92.38a1.18,1.18,0,0,0-1.29-1.29,1.3,1.3,0,0,0-1.3,1.36V94.6h-.53V90.65h.51v.66a1.6,1.6,0,0,1,1.38-.72,1.64,1.64,0,0,1,1.76,1.79V94.6Z"/><path d="M80.87,94.6V89H84.7v.53H81.43v2.13h3.15v.52H81.43V94.6Z"/><path d="M85.61,92.85a1.41,1.41,0,0,0,1.49,1.31,1.82,1.82,0,0,0,1.34-.54l.36.32a2.23,2.23,0,0,1-1.7.73,2,2,0,0,1,0-4.09,1.85,1.85,0,0,1,2,2.27Zm2.93-.46a1.33,1.33,0,0,0-1.45-1.33,1.41,1.41,0,0,0-1.48,1.33Z"/><path d="M90,92.85a1.43,1.43,0,0,0,1.5,1.31,1.78,1.78,0,0,0,1.33-.54l.37.32a2.26,2.26,0,0,1-1.7.73,2,2,0,0,1,0-4.09,1.86,1.86,0,0,1,2,2.27Zm2.94-.46a1.34,1.34,0,0,0-1.46-1.33A1.42,1.42,0,0,0,90,92.39Z"/><path d="M96.62,91.46a1.56,1.56,0,0,0-1.17-.4c-.57,0-1.08.2-1.07.64s.59.57,1.08.64c.71.11,1.63.23,1.63,1.19s-.82,1.15-1.62,1.15a2.09,2.09,0,0,1-1.75-.77l.33-.37a1.76,1.76,0,0,0,1.43.64c.45,0,1.08-.12,1.08-.66s-.51-.62-1.15-.7-1.55-.29-1.55-1.11.81-1.15,1.59-1.14a2,2,0,0,1,1.48.54Z"/></svg>