<svg xmlns="http://www.w3.org/2000/svg" viewBox="0 0 120 111.25"><line x1="108" y1="101.82" x2="12" y2="101.82" style="fill:none;stroke:#000;stroke-linecap:round;stroke-linejoin:round;stroke-width:2px"/><path d="M29.26,89.25H90.74a4.11,4.11,0,0,0,4.1-4.1,4.05,4.05,0,0,0-.21-1.29L85.36,56.05a4.11,4.11,0,0,0-3.89-2.8H39.3A4.08,4.08,0,0,0,35.45,56l-10,27.81A4.09,4.09,0,0,0,27.89,89,4,4,0,0,0,29.26,89.25Z" style="fill:none;stroke:#000;stroke-linecap:round;stroke-linejoin:round;stroke-width:2px"/><line x1="32.5" y1="65.25" x2="87.5" y2="65.25" style="fill:none;stroke:#000;stroke-linecap:round;stroke-linejoin:round;stroke-width:2px"/><line x1="28.5" y1="75.92" x2="91.5" y2="76.25" style="fill:none;stroke:#000;stroke-linecap:round;stroke-linejoin:round;stroke-width:2px"/><line x1="52" y1="54.25" x2="48" y2="88.25" style="fill:none;stroke:#000;stroke-linecap:round;stroke-linejoin:round;stroke-width:2px"/><line x1="69" y1="54.25" x2="72" y2="88.25" style="fill:none;stroke:#000;stroke-linecap:round;stroke-linejoin:round;stroke-width:2px"/><path d="M53.75,90.25h0a13.34,13.34,0,0,1-5.75,11l-.74.52" style="fill:none;stroke:#000;stroke-linecap:round;stroke-linejoin:round;stroke-width:2px"/><path d="M66.25,90.25h0a13.34,13.34,0,0,0,5.75,11l.74.52" style="fill:none;stroke:#000;stroke-linecap:round;stroke-linejoin:round;stroke-width:2px"/><circle cx="61.13" cy="22.97" r="9.21" style="fill:tomato"/><path d="M59.59,15.76A7.22,7.22,0,1,1,52.38,23v0a7.23,7.23,0,0,1,7.21-7.21m0-2A9.22,9.22,0,1,0,68.8,23v0A9.21,9.21,0,0,0,59.59,13.76Z"/><path d="M59.59,10.16a1,1,0,0,1-1-1V4.55a1,1,0,1,1,2,0V9.16A1,1,0,0,1,59.59,10.16Z"/><path d="M46.07,24h0l-4.61,0a1,1,0,0,1-1-1,1,1,0,0,1,1-1h0l4.61,0a1,1,0,0,1,0,2Z"/><path d="M59.75,42.25h0a1,1,0,0,1-1-1l.07-4.6a1,1,0,0,1,1-1,1,1,0,0,1,1,1l-.07,4.6A1,1,0,0,1,59.75,42.25Z"/><path d="M78.16,24.1h0L73.53,24a1,1,0,0,1-1-1,1,1,0,0,1,1-1l4.61.11a1,1,0,0,1,0,2Z"/><path d="M49.87,14.41a1,1,0,0,1-.7-.29l-3.28-3.24a1,1,0,0,1,1.4-1.42l3.28,3.24a1,1,0,0,1,0,1.41A1,1,0,0,1,49.87,14.41Z"/><path d="M47,37a1,1,0,0,1-.71-.29,1,1,0,0,1,0-1.42l3.26-3.25A1,1,0,1,1,51,33.48l-3.26,3.25A1,1,0,0,1,47,37Z"/><path d="M72.83,36.83a1,1,0,0,1-.71-.3l-3.23-3.29a1,1,0,1,1,1.42-1.4l3.23,3.29a1,1,0,0,1-.71,1.7Z"/><path d="M69.52,14.18a1,1,0,0,1-.7-1.72l3.31-3.21a1,1,0,0,1,1.4,1.44L70.22,13.9A1,1,0,0,1,69.52,14.18Z"/><path d="M107,6.25a1,1,0,0,1-1-1v-2a1,1,0,0,1,2,0v2A1,1,0,0,1,107,6.25Z"/><path d="M107,12.25a1,1,0,0,1-1-1v-2a1,1,0,0,1,2,0v2A1,1,0,0,1,107,12.25Z"/><path d="M111,8.25h-2a1,1,0,0,1,0-2h2a1,1,0,0,1,0,2Z"/><path d="M105,8.25h-2a1,1,0,0,1,0-2h2a1,1,0,0,1,0,2Z"/><path d="M24,52.25a1,1,0,0,1-1-1v-2a1,1,0,0,1,2,0v2A1,1,0,0,1,24,52.25Z"/><line x1="24" y1="57.25" x2="24" y2="55.25" style="fill:none;stroke:#000;stroke-linecap:round;stroke-linejoin:round;stroke-width:2px"/><line x1="26" y1="53.25" x2="28" y2="53.25" style="fill:none;stroke:#000;stroke-linecap:round;stroke-linejoin:round;stroke-width:2px"/><line x1="20" y1="53.25" x2="22" y2="53.25" style="fill:none;stroke:#000;stroke-linecap:round;stroke-linejoin:round;stroke-width:2px"/><path d="M94.15,40.44a1,1,0,0,1-.7-.29L92,38.75a1,1,0,1,1,1.4-1.42l1.42,1.4a1,1,0,0,1,0,1.41A1,1,0,0,1,94.15,40.44Z"/><path d="M98.42,44.65a1,1,0,0,1-.7-.29L96.3,43a1,1,0,0,1,1.4-1.42l1.42,1.4a1,1,0,0,1,0,1.41A1,1,0,0,1,98.42,44.65Z"/><path d="M97,40.42a1,1,0,0,1-.7-.29,1,1,0,0,1,0-1.41l1.4-1.42a1,1,0,1,1,1.42,1.4l-1.4,1.42A1,1,0,0,1,97,40.42Z"/><path d="M92.77,44.69a1,1,0,0,1-.7-.29,1,1,0,0,1,0-1.41l1.4-1.42A1,1,0,0,1,94.88,43l-1.4,1.42A1,1,0,0,1,92.77,44.69Z"/><path d="M10.15,3.44a1,1,0,0,1-.7-.29L8,1.75A1,1,0,0,1,8,.34a1,1,0,0,1,1.41,0l1.42,1.4a1,1,0,0,1,0,1.41A1,1,0,0,1,10.15,3.44Z"/><path d="M14.42,7.65a1,1,0,0,1-.7-.29L12.3,6a1,1,0,0,1,1.4-1.42l1.42,1.4a1,1,0,0,1,0,1.41A1,1,0,0,1,14.42,7.65Z"/><path d="M13,3.42a1,1,0,0,1-.7-.29,1,1,0,0,1,0-1.41L13.67.3a1,1,0,1,1,1.42,1.4l-1.4,1.42A1,1,0,0,1,13,3.42Z"/><path d="M8.77,7.69a1,1,0,0,1-.7-.29A1,1,0,0,1,8.06,6l1.4-1.42A1,1,0,1,1,10.88,6L9.48,7.39A1,1,0,0,1,8.77,7.69Z"/></svg>