<svg xmlns="http://www.w3.org/2000/svg" xmlns:xlink="http://www.w3.org/1999/xlink" viewBox="0 0 122.36 58.1"><defs><linearGradient id="a" x1="204.36" y1="4749.97" x2="326.43" y2="4749.97" gradientTransform="matrix(1, 0, 0, -1, -204.22, 4789.02)" gradientUnits="userSpaceOnUse"><stop offset="0" stop-color="#eef5fc"/><stop offset="1" stop-color="#d1f0ff"/></linearGradient><linearGradient id="b" x1="-326.96" y1="5611" x2="-280.43" y2="5621.91" gradientTransform="matrix(0.93, -0.11, 0.17, -0.73, -647.19, 4100.7)" xlink:href="#a"/></defs><path d="M.15,58.1V22.65a28,28,0,0,1,27.76,2.26c6.61,4.37,8.32,10.76,16.82,14.48,8.88,3.9,25.19-7.11,46.63-.34A78.65,78.65,0,0,1,122.21,58.1Z" style="fill:url(#a)"/><path d="M52.92,29.37a20.79,20.79,0,0,0-5.62,4.8c-1.15,1.5-1.47,2.66-.88,3.29s2,.68,3.8.49a26.69,26.69,0,0,0,6-1.43c4.16-1.43,7.21-4.44,6.89-7.29S58,26.22,52.92,29.37Z" style="fill:url(#b)"/></svg>