<svg xmlns="http://www.w3.org/2000/svg" xmlns:xlink="http://www.w3.org/1999/xlink" viewBox="0 0 122.36 58.1"><defs><linearGradient id="a" x1="204.36" y1="4749.97" x2="326.43" y2="4749.97" gradientTransform="translate(326.58 4789.02) rotate(180)" gradientUnits="userSpaceOnUse"><stop offset="0" stop-color="#eef5fc"/><stop offset="1" stop-color="#d1f0ff"/></linearGradient><linearGradient id="b" x1="-326.96" y1="5611" x2="-280.43" y2="5621.91" gradientTransform="matrix(-0.93, -0.11, -0.17, -0.73, 769.55, 4100.7)" xlink:href="#a"/></defs><path d="M122.21,58.1V22.65a28,28,0,0,0-27.76,2.26c-6.61,4.37-8.33,10.76-16.82,14.48-8.88,3.9-25.19-7.11-46.64-.34A78.63,78.63,0,0,0,.15,58.1Z" style="fill:url(#a)"/><path d="M69.44,29.37a21,21,0,0,1,5.62,4.8c1.14,1.5,1.47,2.66.87,3.29s-2,.68-3.79.49a26.89,26.89,0,0,1-6-1.43c-4.16-1.43-7.21-4.44-6.88-7.29S64.33,26.22,69.44,29.37Z" style="fill:url(#b)"/></svg>