<svg xmlns="http://www.w3.org/2000/svg" xmlns:xlink="http://www.w3.org/1999/xlink" viewBox="0 0 122.36 58.1"><defs><linearGradient id="a" x1="15.94" y1="-6.23" x2="102.44" y2="66.35" gradientUnits="userSpaceOnUse"><stop offset="0" stop-color="#ffe658"/><stop offset="1" stop-color="#ffe658"/></linearGradient><linearGradient id="b" x1="2.19" y1="-27.18" x2="91.21" y2="50.06" gradientUnits="userSpaceOnUse"><stop offset="0" stop-color="#f89946"/><stop offset="1" stop-color="#ffe658"/></linearGradient><linearGradient id="c" x1="-10.41" y1="-47.93" x2="80.68" y2="33.77" gradientUnits="userSpaceOnUse"><stop offset="0" stop-color="#f04b33"/><stop offset="1" stop-color="#ffe658"/></linearGradient></defs><g style="isolation:isolate"><path d="M81.05,26.16c-9.28,0-19,5.84-26.68,11.26C39.94,47.6,37.59,40.59,28.74,40.59,18.89,40.59,16.08,50.9,0,50.69V12.77H122.36V42.62C101.79,44.25,93.18,26.16,81.05,26.16Z" style="mix-blend-mode:multiply;fill:url(#a)"/><path d="M0,6.38H122.36V33.92c-4.61,1.43-8.55,1.19-13.61-1.16-8.85-4.11-18-13.94-28.15-13a22.18,22.18,0,0,0-10.9,4.16C64,28,58.36,29.51,53.93,30.65a27.18,27.18,0,0,0-3.51,1C43,34.85,38.81,38.09,32.68,38.18c-1,0-2.13,0-3.31-.1a70.55,70.55,0,0,0-17,1c-4,.76-8.55,1.43-12.38,2.52Z" style="mix-blend-mode:multiply;fill:url(#b)"/><path d="M122.36,25.23c-3.91,2.43-7.35,3-13.41-.3-8.35-4.55-24.78-20.41-39.09-5.77C61.69,27.5,53.3,23,49.67,23.69c-4.74.93-9.91,10.41-16.34,11.75-6.68,1.39-16-5-21-5.41S2.29,30.3,0,32.56V0H122.36Z" style="mix-blend-mode:multiply;fill:url(#c)"/></g></svg>