<svg xmlns="http://www.w3.org/2000/svg" xmlns:xlink="http://www.w3.org/1999/xlink" viewBox="0 0 120 120"><defs><clipPath id="a"><rect width="53.81" height="115.87" style="fill:none"/></clipPath><linearGradient id="b" x1="-37.86" y1="58.06" x2="37.86" y2="58.06" gradientUnits="userSpaceOnUse"><stop offset="0" stop-color="#fb6d86"/><stop offset="0.13" stop-color="#f26e8a"/><stop offset="0.34" stop-color="#d97295"/><stop offset="0.6" stop-color="#b179a7"/><stop offset="0.9" stop-color="#7b81bf"/><stop offset="1" stop-color="#6884c7"/></linearGradient><linearGradient id="c" x1="192.39" y1="464.32" x2="268.12" y2="464.32" gradientTransform="translate(-230.25 -406.26)" xlink:href="#b"/><linearGradient id="d" x1="191.11" y1="623.59" x2="266.84" y2="623.59" gradientTransform="translate(-228.98 -565.53)" xlink:href="#b"/><linearGradient id="e" x1="-184.16" y1="-26.4" x2="-108.43" y2="-26.4" gradientTransform="matrix(0, -1, -1, 0, -26.4, -88.23)" xlink:href="#b"/><linearGradient id="f" x1="-726.35" y1="206.72" x2="-652.95" y2="206.72" gradientTransform="matrix(-1.11, -0.06, -0.06, 1, -751.19, -193.65)" xlink:href="#b"/><linearGradient id="g" x1="-36.59" y1="100.04" x2="36.81" y2="100.04" gradientTransform="matrix(0.06, 1.11, -1, 0.06, 100.28, 52.1)" xlink:href="#b"/></defs><g style="clip-path:url(#a)"><rect x="-37.74" y="20.32" width="75.48" height="75.48" rx="2" style="fill:none;stroke-miterlimit:10;stroke-width:0.25px;stroke:url(#b)"/><rect x="-37.74" y="20.32" width="75.48" height="75.48" rx="2" transform="translate(-41.05 17.01) rotate(-45)" style="fill:none;stroke-miterlimit:10;stroke-width:0.25px;stroke:url(#c)"/><rect x="-37.74" y="20.32" width="75.48" height="75.48" rx="2" transform="translate(-50.28 29.03) rotate(-60)" style="fill:none;stroke-miterlimit:10;stroke-width:0.25px;stroke:url(#d)"/><rect x="-37.74" y="20.32" width="75.48" height="75.48" rx="2" transform="translate(-29.03 7.78) rotate(-30)" style="fill:none;stroke-miterlimit:10;stroke-width:0.25px;stroke:url(#e)"/><rect x="-38.49" y="19.57" width="76.97" height="76.97" rx="2" transform="translate(-11.39 1.13) rotate(-11.31)" style="fill:none;stroke-miterlimit:10;stroke-width:0.25px;stroke:url(#f)"/><rect x="-38.49" y="19.57" width="76.97" height="76.97" rx="2" transform="translate(-56.93 46.67) rotate(-78.69)" style="fill:none;stroke-miterlimit:10;stroke-width:0.25px;stroke:url(#g)"/></g></svg>