<svg xmlns="http://www.w3.org/2000/svg" viewBox="0 0 263.97 60"><path d="M29.12,35.93A5.72,5.72,0,0,1,23,30a5.81,5.81,0,0,1,6.12-6.12,6.08,6.08,0,0,1,4.28,1.76l-1,.94a4.66,4.66,0,0,0-3.28-1.31,4.42,4.42,0,0,0-4.66,4.71,4.39,4.39,0,0,0,4.66,4.61,4.79,4.79,0,0,0,3.33-1.36l1,1A6.11,6.11,0,0,1,29.12,35.93Z" style="fill:tomato"/><path d="M36.79,35.74H35.41V24h1.38Z" style="fill:tomato"/><path d="M46.2,35.78l0-1.51a3.5,3.5,0,0,1-3.05,1.67,4.09,4.09,0,0,1-4.24-4.34,4.05,4.05,0,0,1,4.25-4.27A3.48,3.48,0,0,1,46.2,29l0-1.5h1.34v8.27H46.23Zm-3-7.14a3,3,0,0,0,0,6c4,0,4-6.07,0-6.07Z" style="fill:tomato"/><path d="M51.68,25a.91.91,0,0,1-1.81,0A.91.91,0,0,1,51.68,25ZM50.07,35.74h1.37V27.43H50.07Z" style="fill:tomato"/><path d="M54,27.48h1.27l.09,1.21a2.66,2.66,0,0,1,2.44-1.36,2.76,2.76,0,0,1,2.78,1.81,3.12,3.12,0,0,1,2.92-1.81C65.65,27.33,67,28.76,67,31v4.72H65.58V31a2.16,2.16,0,0,0-2.14-2.4,2.28,2.28,0,0,0-2.27,2.43v4.69H59.8V31.05a2.24,2.24,0,0,0-2.23-2.43,2.26,2.26,0,0,0-2.24,2.43v4.69H54V27.47Z" style="fill:tomato"/><path d="M72.14,24.06v0h1.78l3.52,5.57L81,24h1.78v0L78.19,31v4.76H76.68V31Z" style="fill:tomato"/><path d="M86.23,27.28a4.14,4.14,0,0,1,4.31,4.34,4.3,4.3,0,0,1-8.6,0A4.16,4.16,0,0,1,86.23,27.28Zm0,1.26a2.88,2.88,0,0,0-2.93,3.08,2.84,2.84,0,0,0,2.91,3,3,3,0,0,0,0-6.06Z" style="fill:tomato"/><path d="M99,35.74l-.07-1.32A3.6,3.6,0,0,1,92.4,32V27.47h1.37V32a2.35,2.35,0,0,0,2.51,2.58,2.56,2.56,0,0,0,2.55-2.69V27.47h1.37v8.27H99Z" style="fill:tomato"/><path d="M104,27.45l.1,1.24a2.7,2.7,0,0,1,2.55-1.38,3.22,3.22,0,0,1,1.93.62L108,29.11a2.42,2.42,0,0,0-1.44-.45,2.37,2.37,0,0,0-2.43,2.47v4.61h-1.38V27.47H104Z" style="fill:tomato"/><path d="M114.07,24h8.24v1.34h-6.8V29H122v1.36h-6.52v4h7.07v1.39h-8.51Z" style="fill:tomato"/><path d="M124.57,27.45h1.26l.07,1.32a3.37,3.37,0,0,1,2.83-1.44,3.51,3.51,0,0,1,3.63,3.84v4.57H131V31.18a2.35,2.35,0,0,0-2.51-2.58,2.58,2.58,0,0,0-2.55,2.7v4.44h-1.36V27.45Z" style="fill:tomato"/><path d="M142.16,34.42a4.78,4.78,0,0,1-3.57,1.47,4.1,4.1,0,0,1-4.35-4.32,4.13,4.13,0,0,1,4.29-4.29c2.52,0,4.45,1.56,4.13,4.86h-7a2.8,2.8,0,0,0,3,2.48,3.65,3.65,0,0,0,2.63-1l.92.84Zm-.8-3.42a2.51,2.51,0,0,0-2.8-2.48A2.82,2.82,0,0,0,135.63,31h5.73Z" style="fill:tomato"/><path d="M145.86,27.45l.1,1.24a2.69,2.69,0,0,1,2.55-1.38,3.17,3.17,0,0,1,1.92.62l-.61,1.18a2.42,2.42,0,0,0-1.45-.45A2.37,2.37,0,0,0,146,31.13v4.61h-1.38V27.47h1.27Z" style="fill:tomato"/><path d="M155.36,39.41c1.42,0,2.91-.52,2.91-2s-1.35-2-2.89-2c-2.6,0-4.38-1.51-4.38-4.09a4.13,4.13,0,0,1,4.38-4.11,4.57,4.57,0,0,1,2.34.62l.89-1.07,1,.77-.94,1.11a3.67,3.67,0,0,1,1.07,2.68,3.39,3.39,0,0,1-2.32,3.37,2.73,2.73,0,0,1,2.27,2.69c0,2.15-2.12,3.24-4.32,3.24-2.49,0-4.29-1.31-4.24-3.54h1.33C152.43,38.74,153.85,39.39,155.36,39.41Zm0-5.16a2.85,2.85,0,0,0,3-2.86,3,3,0,1,0-3,2.86Z" style="fill:tomato"/><path d="M163.88,39.65h-1.47l1.73-4-3.34-8.16h1.56l1.62,4.3.91,2.36.89-2.34,1.82-4.32h1.51Z" style="fill:tomato"/><path d="M180.33,35.93a5.72,5.72,0,0,1-6.11-6,5.81,5.81,0,0,1,6.11-6.12,6.09,6.09,0,0,1,4.29,1.76l-1,.94a4.67,4.67,0,0,0-3.29-1.31,4.42,4.42,0,0,0-4.65,4.71,4.39,4.39,0,0,0,4.65,4.61,4.8,4.8,0,0,0,3.34-1.36l1,1A6.11,6.11,0,0,1,180.33,35.93Z" style="fill:tomato"/><path d="M187.7,27.45l.1,1.24a2.7,2.7,0,0,1,2.55-1.38,3.2,3.2,0,0,1,1.93.62l-.62,1.18a2.39,2.39,0,0,0-1.44-.45,2.37,2.37,0,0,0-2.43,2.47v4.61h-1.38V27.47h1.28Z" style="fill:tomato"/><path d="M200.72,34.42a4.78,4.78,0,0,1-3.57,1.47,4.11,4.11,0,0,1-4.36-4.32,4.14,4.14,0,0,1,4.29-4.29c2.53,0,4.46,1.56,4.14,4.86h-7a2.8,2.8,0,0,0,3,2.48,3.62,3.62,0,0,0,2.63-1l.93.84ZM199.91,31a2.49,2.49,0,0,0-2.79-2.48A2.82,2.82,0,0,0,194.19,31h5.72Z" style="fill:tomato"/><path d="M211.27,24V35.73H210l-.07-1.51a3.48,3.48,0,0,1-3.09,1.67,4,4,0,0,1-4.19-4.29,4,4,0,0,1,4.17-4.29A3.5,3.5,0,0,1,209.9,29V24h1.37Zm-4.35,4.59a2.79,2.79,0,0,0-2.92,3,2.81,2.81,0,0,0,2.92,3,3,3,0,0,0,0-6Z" style="fill:tomato"/><path d="M215.39,25a.91.91,0,0,1-1.81,0A.91.91,0,0,1,215.39,25Zm-1.61,10.79h1.38V27.43h-1.38Z" style="fill:tomato"/><path d="M220,27.48h2.56v1.18H220V33c0,1,.32,1.59,1.31,1.59a2.73,2.73,0,0,0,1.15-.3l.4,1.14a4.1,4.1,0,0,1-1.6.4c-1.78,0-2.62-1-2.62-2.83V28.66H217V27.48h1.66V25.2l1.38-.15Z" style="fill:tomato"/><path d="M234,1a29,29,0,1,1,0,58H30A29,29,0,0,1,30,1H234m0-1H30A30,30,0,0,0,0,30H0A30,30,0,0,0,30,60H234a30,30,0,0,0,30-30h0A30,30,0,0,0,234,0Z" style="fill:tomato"/><path d="M240,36l5.2-5.17a1.13,1.13,0,0,0,0-1.6L240,24" style="fill:none;stroke:tomato;stroke-linecap:round;stroke-linejoin:round"/></svg>