<svg xmlns="http://www.w3.org/2000/svg" viewBox="0 0 240.95 60"><path d="M27.77,25.07c-1.49,0-3.08.59-3.08,2s1.46,1.64,3.18,1.93c2.35.37,4.66.83,4.66,3.48S30,36,27.76,36c-2.08,0-4.06-.76-5-2.72l1.2-.7a4.27,4.27,0,0,0,3.77,2.06c1.43,0,3.32-.45,3.32-2.18,0-1.46-1.62-1.88-3.38-2.14-2.26-.35-4.46-.87-4.46-3.25s2.46-3.29,4.49-3.29c1.74,0,3.4.35,4.44,2.13l-1.1.69A3.93,3.93,0,0,0,27.77,25.07Z" style="fill:tomato"/><path d="M41.09,34.62A4.2,4.2,0,0,1,38,35.89a4.08,4.08,0,0,1-4.32-4.29A4.07,4.07,0,0,1,38,27.31a4.15,4.15,0,0,1,3,1.24l-.87.91a3,3,0,0,0-2.1-.84,2.84,2.84,0,0,0-3,3,2.82,2.82,0,0,0,3,3,3,3,0,0,0,2.16-.88l.92.93Z" style="fill:tomato"/><path d="M43.87,24v4.81a3.29,3.29,0,0,1,2.87-1.47c2.32,0,3.46,1.54,3.46,3.81v4.56H48.85V31.2a2.22,2.22,0,0,0-2.35-2.54,2.59,2.59,0,0,0-2.61,2.69v4.39H42.51V24h1.36Z" style="fill:tomato"/><path d="M59.67,34.42a4.78,4.78,0,0,1-3.57,1.47,4.11,4.11,0,0,1-4.36-4.32A4.14,4.14,0,0,1,56,27.28c2.53,0,4.46,1.56,4.14,4.86h-7a2.81,2.81,0,0,0,3,2.48,3.62,3.62,0,0,0,2.63-1l.92.84ZM58.86,31a2.5,2.5,0,0,0-2.8-2.48A2.82,2.82,0,0,0,53.13,31h5.73Z" style="fill:tomato"/><path d="M69.88,24V35.73H68.59l-.06-1.51a3.51,3.51,0,0,1-3.1,1.67,4,4,0,0,1-4.19-4.29,4,4,0,0,1,4.17-4.29A3.5,3.5,0,0,1,68.51,29V24h1.37Zm-4.35,4.59a2.79,2.79,0,0,0-2.92,3,2.81,2.81,0,0,0,2.92,3,3,3,0,0,0,0-6Z" style="fill:tomato"/><path d="M78.49,35.74l-.06-1.32A3.6,3.6,0,0,1,71.94,32V27.47h1.38V32a2.35,2.35,0,0,0,2.51,2.58,2.56,2.56,0,0,0,2.55-2.69V27.47h1.37v8.27H78.49Z" style="fill:tomato"/><path d="M83.4,35.74H82V24H83.4Z" style="fill:tomato"/><path d="M93.08,34.42a4.78,4.78,0,0,1-3.57,1.47,4.1,4.1,0,0,1-4.35-4.32,4.13,4.13,0,0,1,4.29-4.29c2.53,0,4.45,1.56,4.13,4.86h-7a2.8,2.8,0,0,0,3,2.48,3.64,3.64,0,0,0,2.63-1l.92.84ZM92.28,31a2.51,2.51,0,0,0-2.8-2.48A2.82,2.82,0,0,0,86.55,31h5.73Z" style="fill:tomato"/><path d="M97.64,25.32V24h9.44v1.31h-4V35.74h-1.44V25.32Z" style="fill:tomato"/><path d="M109.9,25a.91.91,0,0,1-1.81,0A.91.91,0,0,1,109.9,25Zm-1.61,10.79h1.37V27.43h-1.37Z" style="fill:tomato"/><path d="M111.86,27.48h1.27l.08,1.21a2.67,2.67,0,0,1,2.45-1.36,2.77,2.77,0,0,1,2.78,1.81,3.1,3.1,0,0,1,2.92-1.81c2.17,0,3.48,1.43,3.48,3.69v4.72h-1.37V31a2.16,2.16,0,0,0-2.15-2.4,2.28,2.28,0,0,0-2.26,2.43v4.69h-1.37V31.05a2.25,2.25,0,1,0-4.48,0v4.69h-1.37V27.47Z" style="fill:tomato"/><path d="M134.32,34.42a4.78,4.78,0,0,1-3.57,1.47,4.1,4.1,0,0,1-4.35-4.32,4.13,4.13,0,0,1,4.28-4.29c2.53,0,4.46,1.56,4.14,4.86h-7a2.8,2.8,0,0,0,3,2.48,3.61,3.61,0,0,0,2.62-1l.93.84Zm-.8-3.42a2.51,2.51,0,0,0-2.8-2.48A2.82,2.82,0,0,0,127.79,31h5.73Z" style="fill:tomato"/><path d="M140.68,24l3.24,9.7,3.25-9.7h.93l3.29,9.7,3.2-9.7h1.66l-4.11,11.75h-1.46l-3-8.78-3,8.78h-1.47L139,24Z" style="fill:tomato"/><path d="M159.21,25a.91.91,0,0,1-1.81,0A.91.91,0,0,1,159.21,25ZM157.6,35.74H159V27.43H157.6Z" style="fill:tomato"/><path d="M163.48,27.48H166v1.18h-2.58V33c0,1,.32,1.59,1.31,1.59a2.78,2.78,0,0,0,1.16-.3l.4,1.14a4.19,4.19,0,0,1-1.61.4c-1.78,0-2.61-1-2.61-2.83V28.66h-1.66V27.48h1.66V25.2l1.37-.15Z" style="fill:tomato"/><path d="M168.82,24v4.81a3.3,3.3,0,0,1,2.87-1.47c2.33,0,3.46,1.54,3.46,3.81v4.56H173.8V31.2a2.22,2.22,0,0,0-2.35-2.54,2.59,2.59,0,0,0-2.61,2.69v4.39h-1.37V24h1.35Z" style="fill:tomato"/><path d="M190.9,24v7A4.54,4.54,0,0,1,186.14,36a4.6,4.6,0,0,1-4.81-4.89V24h1.44v7a3.35,3.35,0,1,0,6.69,0V24h1.42Z" style="fill:tomato"/><path d="M198.32,29.31A3.2,3.2,0,0,0,196,28.5c-1.14,0-2.06.39-2,1.21s1,1.11,2.06,1.22c1.51.19,3.52.49,3.48,2.53,0,1.66-1.61,2.48-3.47,2.48a4.49,4.49,0,0,1-3.7-1.56l.79-1a3.84,3.84,0,0,0,2.95,1.27c.9,0,2.06-.28,2.09-1.29s-1-1.17-2.23-1.32c-1.59-.2-3.3-.62-3.3-2.38s1.76-2.45,3.35-2.43a4.37,4.37,0,0,1,3.15,1.11l-.78.9Z" style="fill:tomato"/><path d="M211,1a29,29,0,0,1,0,58H30A29,29,0,0,1,30,1H211m0-1H30A30,30,0,0,0,0,30H0A30,30,0,0,0,30,60H211a30,30,0,0,0,30-30h0A30,30,0,0,0,211,0Z" style="fill:tomato"/><path d="M217,35.41l5.2-5.17a1.13,1.13,0,0,0,0-1.6L217,23.41" style="fill:none;stroke:tomato;stroke-linecap:round;stroke-linejoin:round"/></svg>