<svg xmlns="http://www.w3.org/2000/svg" viewBox="0 0 240 60"><path d="M22.45,25.32V24H31.9v1.31h-4V35.74H26.45V25.32Z" style="fill:tomato"/><path d="M38.29,35.78l0-1.51a3.49,3.49,0,0,1-3,1.67A4.09,4.09,0,0,1,31,31.6a4.06,4.06,0,0,1,4.26-4.27A3.46,3.46,0,0,1,38.29,29l0-1.5h1.34v8.27H38.33Zm-3-7.14a3,3,0,0,0,0,6c4,0,4-6.07,0-6.07Z" style="fill:tomato"/><path d="M49.05,34.62A4.22,4.22,0,0,1,46,35.89a4.08,4.08,0,0,1-4.32-4.29A4.07,4.07,0,0,1,46,27.31a4.13,4.13,0,0,1,3,1.24l-.87.91A3,3,0,0,0,46,28.62a2.85,2.85,0,0,0-3,3,2.82,2.82,0,0,0,2.95,3,2.94,2.94,0,0,0,2.16-.88l.92.93Z" style="fill:tomato"/><path d="M52.16,31l3.4-3.48h1.71v.08l-3.82,3.82,4.29,4.27v.1H56.07l-3.91-3.9v3.9H50.8V24h1.36Z" style="fill:tomato"/><path d="M60.59,35.74H59.21V24h1.38Z" style="fill:tomato"/><path d="M70.6,34.42A4.74,4.74,0,0,1,67,35.89a4.1,4.1,0,0,1-4.36-4.32A4.13,4.13,0,0,1,67,27.28c2.53,0,4.45,1.56,4.14,4.86h-7a2.81,2.81,0,0,0,3,2.48,3.62,3.62,0,0,0,2.63-1l.92.84ZM69.8,31A2.5,2.5,0,0,0,67,28.52,2.82,2.82,0,0,0,64.07,31H69.8Z" style="fill:tomato"/><path d="M83,35.93a5.72,5.72,0,0,1-6.12-6A5.82,5.82,0,0,1,83,23.83a6.09,6.09,0,0,1,4.29,1.76l-1,.94A4.63,4.63,0,0,0,83,25.22a4.43,4.43,0,0,0-4.66,4.71A4.4,4.4,0,0,0,83,34.54a4.76,4.76,0,0,0,3.33-1.36l1,1A6.07,6.07,0,0,1,83,35.93Z" style="fill:tomato"/><path d="M90.67,35.74H89.3V24h1.37Z" style="fill:tomato"/><path d="M94.89,25a.91.91,0,0,1-1.81,0A.91.91,0,0,1,94.89,25ZM93.28,35.74h1.38V27.43H93.28Z" style="fill:tomato"/><path d="M97.18,27.48h1.28l.08,1.21A2.66,2.66,0,0,1,101,27.33a2.77,2.77,0,0,1,2.78,1.81,3.09,3.09,0,0,1,2.91-1.81c2.18,0,3.49,1.43,3.49,3.69v4.72h-1.38V31a2.15,2.15,0,0,0-2.14-2.4,2.27,2.27,0,0,0-2.26,2.43v4.69H103V31.05a2.23,2.23,0,0,0-2.22-2.43,2.26,2.26,0,0,0-2.25,2.43v4.69H97.17V27.47Z" style="fill:tomato"/><path d="M119.38,35.78l0-1.51a3.5,3.5,0,0,1-3,1.67,4.09,4.09,0,0,1-4.24-4.34,4.05,4.05,0,0,1,4.25-4.27A3.48,3.48,0,0,1,119.38,29l0-1.5h1.34v8.27h-1.33Zm-3-7.14a3,3,0,0,0,0,6c4,0,4-6.07,0-6.07Z" style="fill:tomato"/><path d="M125.58,27.48h2.56v1.18h-2.58V33c0,1,.32,1.59,1.31,1.59a2.73,2.73,0,0,0,1.15-.3l.4,1.14a4.1,4.1,0,0,1-1.6.4c-1.78,0-2.62-1-2.62-2.83V28.66h-1.66V27.48h1.66V25.2l1.38-.15Z" style="fill:tomato"/><path d="M137.3,34.42a4.78,4.78,0,0,1-3.57,1.47,4.1,4.1,0,0,1-4.35-4.32,4.13,4.13,0,0,1,4.29-4.29c2.53,0,4.45,1.56,4.13,4.86h-7a2.81,2.81,0,0,0,3,2.48,3.64,3.64,0,0,0,2.63-1l.92.84ZM136.5,31a2.5,2.5,0,0,0-2.8-2.48A2.82,2.82,0,0,0,130.77,31h5.73Z" style="fill:tomato"/><path d="M149.7,35.93a5.72,5.72,0,0,1-6.12-6,5.82,5.82,0,0,1,6.12-6.12A6.11,6.11,0,0,1,154,25.59l-1,.94a4.63,4.63,0,0,0-3.28-1.31A4.43,4.43,0,0,0,145,29.93a4.39,4.39,0,0,0,4.66,4.61A4.78,4.78,0,0,0,153,33.18l1,1A6.09,6.09,0,0,1,149.7,35.93Z" style="fill:tomato"/><path d="M157.25,24v4.81a3.29,3.29,0,0,1,2.87-1.47c2.32,0,3.46,1.54,3.46,3.81v4.56h-1.35V31.2a2.22,2.22,0,0,0-2.35-2.54,2.59,2.59,0,0,0-2.61,2.69v4.39h-1.38V24h1.36Z" style="fill:tomato"/><path d="M172.78,35.78l0-1.51a3.52,3.52,0,0,1-3.05,1.67,4.09,4.09,0,0,1-4.24-4.34,4.05,4.05,0,0,1,4.25-4.27A3.48,3.48,0,0,1,172.78,29v-1.5h1.35v8.27h-1.33Zm-3-7.14a3,3,0,0,0,0,6c4,0,4-6.07,0-6.07Z" style="fill:tomato"/><path d="M176.65,27.45h1.25l.07,1.32a3.38,3.38,0,0,1,2.83-1.44,3.52,3.52,0,0,1,3.64,3.84v4.57h-1.38V31.18a2.35,2.35,0,0,0-2.51-2.58A2.58,2.58,0,0,0,178,31.3v4.44h-1.35V27.45Z" style="fill:tomato"/><path d="M190.68,39.41c1.43,0,2.92-.52,2.92-2s-1.36-2-2.9-2c-2.6,0-4.37-1.51-4.37-4.09a4.12,4.12,0,0,1,4.37-4.11,4.64,4.64,0,0,1,2.35.62l.88-1.07,1,.77L194,28.69A3.71,3.71,0,0,1,195,31.37a3.4,3.4,0,0,1-2.33,3.37A2.74,2.74,0,0,1,195,37.43c0,2.15-2.13,3.24-4.32,3.24-2.5,0-4.29-1.31-4.24-3.54h1.32C187.75,38.74,189.18,39.39,190.68,39.41Zm0-5.16a2.85,2.85,0,0,0,3-2.86,2.8,2.8,0,0,0-3-2.87,2.87,2.87,0,1,0,0,5.73Z" style="fill:tomato"/><path d="M204.47,34.42a4.78,4.78,0,0,1-3.57,1.47,4.11,4.11,0,0,1-4.36-4.32,4.14,4.14,0,0,1,4.29-4.29c2.53,0,4.46,1.56,4.14,4.86h-7a2.8,2.8,0,0,0,3,2.48,3.62,3.62,0,0,0,2.63-1l.93.84Zm-.8-3.42a2.51,2.51,0,0,0-2.8-2.48A2.82,2.82,0,0,0,197.94,31h5.73Z" style="fill:tomato"/><path d="M210,1a29,29,0,0,1,0,58H30A29,29,0,0,1,30,1H210m0-1H30A30,30,0,0,0,0,30H0A30,30,0,0,0,30,60H210a30,30,0,0,0,30-30h0A30,30,0,0,0,210,0Z" style="fill:tomato"/><path d="M216,36l5.2-5.17a1.13,1.13,0,0,0,0-1.6L216,24" style="fill:none;stroke:tomato;stroke-linecap:round;stroke-linejoin:round"/></svg>