<svg xmlns="http://www.w3.org/2000/svg" viewBox="0 0 156 60"><path d="M25.21,34.38H31.6v1.36H23.75V24h1.46Z" style="fill:tomato"/><path d="M40.74,34.42a4.78,4.78,0,0,1-3.57,1.47,4.1,4.1,0,0,1-4.35-4.32,4.13,4.13,0,0,1,4.29-4.29c2.52,0,4.45,1.56,4.13,4.86h-7a2.8,2.8,0,0,0,3,2.48,3.65,3.65,0,0,0,2.63-1l.92.84ZM39.94,31a2.51,2.51,0,0,0-2.8-2.48A2.82,2.82,0,0,0,34.21,31h5.73Z" style="fill:tomato"/><path d="M50.29,35.78l0-1.51a3.49,3.49,0,0,1-3,1.67A4.09,4.09,0,0,1,43,31.6a4.05,4.05,0,0,1,4.25-4.27A3.48,3.48,0,0,1,50.29,29v-1.5h1.35v8.27H50.32Zm-3-7.14a3,3,0,0,0,0,6c4,0,4-6.07,0-6.07Z" style="fill:tomato"/><path d="M55.78,27.45l.1,1.24a2.69,2.69,0,0,1,2.55-1.38,3.17,3.17,0,0,1,1.92.62l-.61,1.18a2.43,2.43,0,0,0-1.45-.46,2.38,2.38,0,0,0-2.42,2.48v4.61H54.49V27.47h1.27Z" style="fill:tomato"/><path d="M62,27.45h1.25l.07,1.32a3.37,3.37,0,0,1,2.83-1.44,3.52,3.52,0,0,1,3.64,3.84v4.57H68.41V31.18A2.35,2.35,0,0,0,65.9,28.6a2.58,2.58,0,0,0-2.55,2.7v4.44H62V27.45Z" style="fill:tomato"/><path d="M83.44,32.06h-.31l-4.25-6v9.65H77.44V24h1.74l4.12,6,4.09-6h1.74V35.74H87.69V26.12Z" style="fill:tomato"/><path d="M95.83,27.28a4.14,4.14,0,0,1,4.31,4.34,4.3,4.3,0,0,1-8.6,0A4.16,4.16,0,0,1,95.83,27.28Zm0,1.26a2.88,2.88,0,0,0-2.93,3.08,2.84,2.84,0,0,0,2.91,3,2.87,2.87,0,0,0,3-3A2.9,2.9,0,0,0,95.85,28.54Z" style="fill:tomato"/><path d="M103.74,27.45l.1,1.24a2.69,2.69,0,0,1,2.54-1.38,3.2,3.2,0,0,1,1.93.62l-.62,1.18a2.44,2.44,0,0,0-3.87,2v4.61h-1.37V27.47h1.27Z" style="fill:tomato"/><path d="M117.09,34.42a4.78,4.78,0,0,1-3.57,1.47,4.11,4.11,0,0,1-4.36-4.32,4.14,4.14,0,0,1,4.29-4.29c2.53,0,4.46,1.56,4.14,4.86h-7a2.81,2.81,0,0,0,3,2.48,3.62,3.62,0,0,0,2.63-1l.92.84ZM116.28,31a2.5,2.5,0,0,0-2.8-2.48A2.82,2.82,0,0,0,110.55,31h5.73Z" style="fill:tomato"/><path d="M126,1a29,29,0,0,1,0,58H29.73a29,29,0,0,1,0-58H126m0-1H29.73a30,30,0,0,0-30,30h0a30,30,0,0,0,30,30H126a30,30,0,0,0,30-30h0A30,30,0,0,0,126,0Z" style="fill:tomato"/><path d="M132,36.12,137.2,31a1.13,1.13,0,0,0,0-1.6L132,24.12" style="fill:none;stroke:tomato;stroke-linecap:round;stroke-linejoin:round"/></svg>