<svg xmlns="http://www.w3.org/2000/svg" viewBox="0 0 203.97 60"><path d="M31.86,24V25.4H25.18v4.09h6.4v1.36h-6.4v4.91H23.72V24Z" style="fill:tomato"/><path d="M34.86,27.45l.1,1.24a2.69,2.69,0,0,1,2.55-1.38,3.17,3.17,0,0,1,1.92.62l-.62,1.18a2.44,2.44,0,0,0-3.87,2v4.61H33.57V27.47h1.27Z" style="fill:tomato"/><path d="M47.88,34.42a4.78,4.78,0,0,1-3.57,1.47A4.1,4.1,0,0,1,40,31.57a4.13,4.13,0,0,1,4.29-4.29c2.53,0,4.46,1.56,4.14,4.86h-7a2.81,2.81,0,0,0,3,2.48,3.62,3.62,0,0,0,2.63-1l.92.84ZM47.07,31a2.5,2.5,0,0,0-2.8-2.48A2.82,2.82,0,0,0,41.34,31h5.73Z" style="fill:tomato"/><path d="M57.69,34.42a4.78,4.78,0,0,1-3.57,1.47,4.1,4.1,0,0,1-4.35-4.32,4.13,4.13,0,0,1,4.29-4.29c2.52,0,4.45,1.56,4.13,4.86h-7a2.8,2.8,0,0,0,3,2.48,3.65,3.65,0,0,0,2.63-1l.92.84ZM56.89,31a2.51,2.51,0,0,0-2.8-2.48A2.82,2.82,0,0,0,51.16,31h5.73Z" style="fill:tomato"/><path d="M70.09,35.93a5.73,5.73,0,0,1-6.12-6,5.81,5.81,0,0,1,6.12-6.11,6.07,6.07,0,0,1,4.28,1.76l-1,.94a4.64,4.64,0,0,0-3.28-1.31,4.43,4.43,0,0,0-4.66,4.71,4.39,4.39,0,0,0,4.66,4.61,4.78,4.78,0,0,0,3.33-1.36l1,1A6.11,6.11,0,0,1,70.09,35.93Z" style="fill:tomato"/><path d="M79.83,27.28a4.14,4.14,0,0,1,4.31,4.34,4.3,4.3,0,0,1-8.6,0A4.16,4.16,0,0,1,79.83,27.28Zm0,1.26a2.88,2.88,0,0,0-2.93,3.08,2.93,2.93,0,1,0,5.86,0A2.9,2.9,0,0,0,79.85,28.54Z" style="fill:tomato"/><path d="M86.11,27.45h1.26l.07,1.32a3.37,3.37,0,0,1,2.83-1.44,3.51,3.51,0,0,1,3.63,3.84v4.57H92.53V31.18A2.35,2.35,0,0,0,90,28.6a2.58,2.58,0,0,0-2.55,2.7v4.44H86.11V27.45Z" style="fill:tomato"/><path d="M101.61,29.31a3.17,3.17,0,0,0-2.33-.81c-1.14,0-2.06.39-2,1.21s1,1.11,2.06,1.22c1.5.19,3.52.49,3.48,2.53,0,1.66-1.61,2.48-3.47,2.48a4.49,4.49,0,0,1-3.7-1.56l.79-1a3.84,3.84,0,0,0,2.95,1.27c.9,0,2.06-.28,2.09-1.29s-1-1.17-2.23-1.32c-1.59-.2-3.3-.62-3.3-2.38s1.76-2.45,3.35-2.43a4.39,4.39,0,0,1,3.15,1.11l-.79.9Z" style="fill:tomato"/><path d="M111.09,35.74,111,34.42a3.45,3.45,0,0,1-2.88,1.46,3.49,3.49,0,0,1-3.6-3.84V27.47h1.37V32a2.35,2.35,0,0,0,2.52,2.58A2.56,2.56,0,0,0,111,31.9V27.47h1.38v8.27h-1.26Z" style="fill:tomato"/><path d="M116.33,35.74H115V24h1.37Z" style="fill:tomato"/><path d="M121.27,27.48h2.56v1.17h-2.58V33c0,1,.32,1.59,1.31,1.59a2.78,2.78,0,0,0,1.16-.3l.4,1.14a4.15,4.15,0,0,1-1.61.4c-1.77,0-2.61-1-2.61-2.83V28.65h-1.66V27.48h1.66V25.2l1.37-.15Z" style="fill:tomato"/><path d="M132.39,35.78l0-1.51a3.49,3.49,0,0,1-3.05,1.67,4.09,4.09,0,0,1-4.24-4.34,4.06,4.06,0,0,1,4.26-4.27A3.46,3.46,0,0,1,132.39,29l0-1.5h1.34v8.27h-1.32Zm-3-7.14a3,3,0,0,0,0,6c4,0,4-6.07,0-6.07Z" style="fill:tomato"/><path d="M138.59,27.48h2.56v1.17h-2.58V33c0,1,.32,1.59,1.31,1.59a2.78,2.78,0,0,0,1.16-.3l.4,1.14a4.15,4.15,0,0,1-1.61.4c-1.78,0-2.61-1-2.61-2.83V28.65h-1.66V27.48h1.66V25.2l1.37-.15Z" style="fill:tomato"/><path d="M144.52,25a.91.91,0,0,1-1.81,0A.91.91,0,0,1,144.52,25Zm-1.61,10.79h1.38V27.43h-1.38Z" style="fill:tomato"/><path d="M150.55,27.28a4.14,4.14,0,0,1,4.31,4.34,4.3,4.3,0,0,1-8.6,0A4.16,4.16,0,0,1,150.55,27.28Zm0,1.26a2.88,2.88,0,0,0-2.93,3.08,2.84,2.84,0,0,0,2.91,3,3,3,0,0,0,0-6.06Z" style="fill:tomato"/><path d="M156.83,27.45h1.26l.06,1.32A3.39,3.39,0,0,1,161,27.33a3.51,3.51,0,0,1,3.63,3.84v4.57h-1.37V31.18a2.35,2.35,0,0,0-2.52-2.58,2.58,2.58,0,0,0-2.54,2.7v4.44h-1.36V27.45Z" style="fill:tomato"/><path d="M174,1a29,29,0,0,1,0,58H30A29,29,0,0,1,30,1H174m0-1H30A30,30,0,0,0,0,30H0A30,30,0,0,0,30,60H174a30,30,0,0,0,30-30h0A30,30,0,0,0,174,0Z" style="fill:tomato"/><path d="M180,36l5.2-5.17a1.13,1.13,0,0,0,0-1.6L180,24" style="fill:none;stroke:tomato;stroke-linecap:round;stroke-linejoin:round"/></svg>