<svg xmlns="http://www.w3.org/2000/svg" viewBox="0 0 215.97 60"><path d="M28.85,24c2.12,0,3.93,1.06,3.93,3.29A2.54,2.54,0,0,1,31,29.71a2.91,2.91,0,0,1,2.11,2.8c0,2.49-2.09,3.23-4.3,3.23H23.72V24Zm-3.67,5h3.73c1.41,0,2.43-.52,2.43-1.75s-1.05-2-2.49-2H25.18Zm0,5.31h3.67c1.22,0,2.85-.32,2.85-1.91s-1.51-2.08-2.79-2.08H25.18Z" style="fill:tomato"/><path d="M38.59,27.28a4.14,4.14,0,0,1,4.31,4.34,4.3,4.3,0,0,1-8.59,0A4.15,4.15,0,0,1,38.59,27.28Zm0,1.26a2.88,2.88,0,0,0-2.93,3.08,2.93,2.93,0,1,0,5.86,0A2.9,2.9,0,0,0,38.61,28.54Z" style="fill:tomato"/><path d="M48.29,27.28a4.14,4.14,0,0,1,4.31,4.34,4.3,4.3,0,0,1-8.6,0A4.16,4.16,0,0,1,48.29,27.28Zm0,1.26a2.88,2.88,0,0,0-2.93,3.08,2.84,2.84,0,0,0,2.91,3,3,3,0,0,0,0-6.06Z" style="fill:tomato"/><path d="M55.59,31,59,27.47h1.71v.08l-3.83,3.82,4.29,4.27v.1H59.5l-3.91-3.9v3.9H54.24V24h1.35Z" style="fill:tomato"/><path d="M71.39,24l5.26,11.73H75.08l-1.16-2.58h-6.7l-1.14,2.58H64.49L69.75,24Zm-.82,1.48-2.78,6.33h5.56Z" style="fill:tomato"/><path d="M87,35.93a5.72,5.72,0,0,1-6.12-6A5.81,5.81,0,0,1,87,23.83a6.11,6.11,0,0,1,4.29,1.76l-1,.94A4.63,4.63,0,0,0,87,25.22a4.43,4.43,0,0,0-4.66,4.71A4.39,4.39,0,0,0,87,34.53a4.77,4.77,0,0,0,3.33-1.35l1,1A6.11,6.11,0,0,1,87,35.93Z" style="fill:tomato"/><path d="M96.4,27.28a4.14,4.14,0,0,1,4.31,4.34,4.3,4.3,0,0,1-8.6,0A4.16,4.16,0,0,1,96.4,27.28Zm0,1.26a2.88,2.88,0,0,0-2.94,3.08,2.94,2.94,0,1,0,5.87,0A2.9,2.9,0,0,0,96.42,28.54Z" style="fill:tomato"/><path d="M102.34,27.45h1.26l.07,1.32a3.37,3.37,0,0,1,2.83-1.44,3.51,3.51,0,0,1,3.63,3.84v4.57h-1.37V31.18a2.35,2.35,0,0,0-2.51-2.58,2.58,2.58,0,0,0-2.55,2.7v4.44h-1.36V27.45Z" style="fill:tomato"/><path d="M117.5,29.31a3.19,3.19,0,0,0-2.32-.81c-1.14,0-2.07.39-2.05,1.21s1,1.11,2.06,1.22c1.51.19,3.52.49,3.49,2.53,0,1.66-1.61,2.48-3.47,2.48a4.48,4.48,0,0,1-3.7-1.56l.78-1a3.84,3.84,0,0,0,2.95,1.27c.91,0,2.06-.28,2.1-1.29s-1-1.17-2.23-1.32c-1.59-.2-3.3-.62-3.3-2.38s1.76-2.45,3.35-2.43a4.39,4.39,0,0,1,3.15,1.11l-.79.9Z" style="fill:tomato"/><path d="M126.65,35.74l-.07-1.32a3.45,3.45,0,0,1-2.88,1.46A3.49,3.49,0,0,1,120.1,32V27.47h1.37V32A2.35,2.35,0,0,0,124,34.6a2.56,2.56,0,0,0,2.54-2.69V27.47h1.38v8.27h-1.26Z" style="fill:tomato"/><path d="M131.56,35.74h-1.38V24h1.38Z" style="fill:tomato"/><path d="M136.16,27.48h2.56v1.18h-2.58V33c0,1,.32,1.59,1.31,1.59a2.78,2.78,0,0,0,1.16-.3l.4,1.14a4.15,4.15,0,0,1-1.61.4c-1.78,0-2.61-1-2.61-2.83V28.66h-1.66V27.48h1.66V25.2l1.37-.15Z" style="fill:tomato"/><path d="M147,35.78l0-1.51a3.5,3.5,0,0,1-3,1.67,4.09,4.09,0,0,1-4.24-4.34,4.05,4.05,0,0,1,4.25-4.27A3.48,3.48,0,0,1,147,29l0-1.5h1.34v8.27H147Zm-3-7.14a3,3,0,0,0,0,6c4,0,4-6.07,0-6.07Z" style="fill:tomato"/><path d="M152.81,27.48h2.56v1.18h-2.58V33c0,1,.32,1.59,1.31,1.59a2.78,2.78,0,0,0,1.16-.3l.4,1.14a4.15,4.15,0,0,1-1.61.4c-1.78,0-2.61-1-2.61-2.83V28.66h-1.66V27.48h1.66V25.2l1.37-.15Z" style="fill:tomato"/><path d="M158.41,25a.91.91,0,0,1-1.81,0A.91.91,0,0,1,158.41,25ZM156.8,35.74h1.37V27.43H156.8Z" style="fill:tomato"/><path d="M164.1,27.28a4.14,4.14,0,0,1,4.31,4.34,4.3,4.3,0,0,1-8.6,0A4.16,4.16,0,0,1,164.1,27.28Zm0,1.26a2.88,2.88,0,0,0-2.93,3.08,2.84,2.84,0,0,0,2.91,3,3,3,0,0,0,0-6.06Z" style="fill:tomato"/><path d="M170.05,27.45h1.25l.07,1.32a3.37,3.37,0,0,1,2.83-1.44,3.52,3.52,0,0,1,3.64,3.84v4.57h-1.38V31.18A2.35,2.35,0,0,0,174,28.6a2.58,2.58,0,0,0-2.55,2.7v4.44h-1.35V27.45Z" style="fill:tomato"/><path d="M185.88,1a29,29,0,0,1,0,58H30A29,29,0,0,1,30,1H185.88m0-1H30A30,30,0,0,0,0,30H0A30,30,0,0,0,30,60H185.88a30,30,0,0,0,30-30h0a30,30,0,0,0-30-30Z" style="fill:tomato"/><path d="M192,36l5.2-5.17a1.13,1.13,0,0,0,0-1.6L192,24" style="fill:none;stroke:tomato;stroke-linecap:round;stroke-linejoin:round"/></svg>