<?xml version="1.0" encoding="utf-8"?>
<!-- Generator: Adobe Illustrator 25.4.1, SVG Export Plug-In . SVG Version: 6.00 Build 0)  -->
<svg version="1.1" id="Layer_1" xmlns="http://www.w3.org/2000/svg" xmlns:xlink="http://www.w3.org/1999/xlink" x="0px" y="0px"
	 viewBox="0 0 120 120" style="enable-background:new 0 0 120 120;" xml:space="preserve">
<style type="text/css">
	.st0{fill:#F2F2F2;}
	.st1{fill:#E5593F;}
	.st2{fill:none;stroke:#444444;stroke-width:0.25;stroke-miterlimit:10;}
	.st3{fill:none;stroke:#000000;stroke-width:0.25;stroke-miterlimit:10;}
</style>
<rect x="39.3" y="8.5" class="st0" width="19.6" height="97.9"/>
<rect x="78.5" y="8.5" class="st0" width="19.6" height="97.9"/>
<rect x="19.7" y="10.8" class="st1" width="80.4" height="11.8"/>
<rect x="19.7" y="27.1" class="st1" width="47" height="11.8"/>
<rect x="19.7" y="43.5" class="st1" width="21.6" height="11.8"/>
<rect x="19.7" y="59.8" class="st1" width="19.6" height="11.8"/>
<rect x="19.7" y="76.1" class="st1" width="19.6" height="11.8"/>
<rect x="19.7" y="92.5" class="st1" width="17.6" height="11.8"/>
<path d="M2.8,116.3c-0.1-0.1-0.3-0.2-0.4-0.2c-0.2,0-0.4,0.1-0.4,0.3s0.2,0.2,0.4,0.3s0.5,0.1,0.5,0.4s-0.3,0.4-0.6,0.4
	c-0.2,0-0.5-0.1-0.6-0.3h0.1c0.1,0.2,0.3,0.3,0.5,0.3c0.2,0,0.5,0,0.5-0.3s-0.2-0.2-0.5-0.3s-0.5-0.1-0.5-0.4s0.3-0.4,0.5-0.4
	C2.5,116.1,2.7,116.2,2.8,116.3L2.8,116.3z"/>
<path d="M3,117c0-0.3,0.2-0.5,0.5-0.5S4,116.7,4,117c0,0.3-0.2,0.5-0.4,0.5c0,0,0,0-0.1,0C3.2,117.5,3,117.3,3,117
	C3,117,3,117,3,117z M3.9,117c0-0.2-0.1-0.4-0.3-0.5s-0.4,0.1-0.5,0.3c0,0,0,0.1,0,0.1c0,0.2,0.2,0.4,0.4,0.4c0,0,0,0,0,0
	C3.7,117.4,3.9,117.3,3.9,117C3.9,117,3.9,117,3.9,117L3.9,117z"/>
<path d="M5,117.4v-0.2c-0.1,0.2-0.4,0.2-0.6,0.1c-0.1-0.1-0.2-0.2-0.2-0.4v-0.6h0.1v0.5c0,0.2,0.1,0.3,0.3,0.3c0,0,0.1,0,0.1,0
	c0.2,0,0.3-0.1,0.3-0.3c0,0,0,0,0,0v-0.6h0.1L5,117.4L5,117.4z"/>
<path d="M5.4,116.5v0.2c0.1-0.1,0.2-0.2,0.3-0.2c0.1,0,0.1,0,0.2,0.1v0.1c-0.1,0-0.1,0-0.2,0c-0.2,0-0.3,0.1-0.3,0.3l0,0v0.6H5.3
	L5.4,116.5L5.4,116.5z"/>
<path d="M6.8,117.3c-0.1,0.1-0.2,0.1-0.4,0.2c-0.3,0-0.5-0.2-0.5-0.5c0,0,0,0,0,0c0-0.3,0.2-0.5,0.5-0.5c0,0,0,0,0,0
	c0.1,0,0.3,0.1,0.4,0.2l-0.1,0.1c-0.1-0.1-0.2-0.1-0.3-0.1c-0.2,0-0.4,0.2-0.4,0.4c0,0.2,0.2,0.4,0.4,0.4
	C6.5,117.4,6.6,117.3,6.8,117.3L6.8,117.3z"/>
<path d="M6.9,117c0-0.3,0.2-0.5,0.5-0.5c0,0,0,0,0,0c0.3,0,0.5,0.2,0.5,0.4c0,0,0,0.1,0,0.1H7c0,0.2,0.2,0.4,0.4,0.4
	c0.1,0,0.3-0.1,0.4-0.2l0.1,0.1c-0.1,0.1-0.3,0.2-0.4,0.2C7.1,117.5,6.9,117.3,6.9,117C6.9,117,6.9,117,6.9,117z M7.8,117
	c0-0.2-0.1-0.4-0.3-0.4c0,0,0,0-0.1,0c-0.2,0-0.4,0.2-0.4,0.4H7.8z"/>
<path d="M8.2,116.8C8.2,116.8,8.1,116.9,8.2,116.8c-0.1,0.1-0.2,0-0.2,0c0,0,0,0,0,0C8,116.7,8,116.7,8.2,116.8
	C8.1,116.7,8.2,116.7,8.2,116.8z M8.2,117.4C8.2,117.4,8.1,117.5,8.2,117.4c-0.1,0.1-0.2,0-0.2,0c0,0,0,0,0,0
	C8,117.3,8,117.3,8.2,117.4C8.1,117.3,8.2,117.3,8.2,117.4z"/>
<path d="M8.8,116.1h1l0,0l-0.9,1.3h0.9v0.1H8.7l0,0l0.9-1.3L8.8,116.1L8.8,116.1z"/>
<path d="M10.1,116.1C10.1,116.2,10.1,116.2,10.1,116.1c-0.1,0.1-0.2,0-0.2,0c0,0,0,0,0,0C9.9,116.1,10,116.1,10.1,116.1
	C10.1,116.1,10.1,116.1,10.1,116.1z M10,116.5v1h0.1L10,116.5L10,116.5z"/>
<path d="M10.4,116.1v1.4h-0.1v-1.4H10.4z"/>
<path d="M10.8,116.1v1.4h-0.1v-1.4H10.8z"/>
<path d="M11,117c0-0.3,0.2-0.5,0.5-0.5c0.3,0,0.5,0.2,0.5,0.5c0,0.3-0.2,0.5-0.5,0.5c0,0,0,0,0,0C11.2,117.5,11,117.3,11,117
	C11,117,11,117,11,117z M11.9,117c0-0.2-0.1-0.4-0.3-0.5c-0.2,0-0.4,0.1-0.5,0.3c0,0,0,0.1,0,0.1c0,0.2,0.1,0.4,0.3,0.5
	c0.2,0,0.4-0.1,0.5-0.3C11.9,117.1,11.9,117,11.9,117z"/>
<path d="M13.2,117.4h-0.1l-0.2-0.4l-0.1-0.4l-0.1,0.4l-0.2,0.4h-0.1l-0.4-1h0.1l0.3,0.9l0.3-0.9h0.1l0.3,0.9l0.3-0.9h0.1L13.2,117.4
	z"/>
<path d="M19.2,110.6c0-0.3,0.2-0.6,0.5-0.6c0.3,0,0.6,0.2,0.6,0.5c0,0,0,0.1,0,0.1v0.4c0,0.3-0.2,0.6-0.5,0.6
	c-0.3,0-0.6-0.2-0.6-0.5c0,0,0-0.1,0-0.1V110.6z M19.3,111c0,0.2,0.2,0.4,0.4,0.4s0.4-0.2,0.4-0.4v-0.3c0-0.2-0.2-0.4-0.4-0.4
	s-0.4,0.2-0.4,0.4V111z"/>
<path d="M37.7,109.9v0.2c0.2,0,0.4,0.1,0.5,0.2l-0.1,0.1c-0.1-0.1-0.3-0.2-0.4-0.2c-0.2,0-0.4,0.1-0.4,0.3s0.2,0.2,0.4,0.3
	s0.5,0.1,0.5,0.4s-0.3,0.4-0.5,0.4v0.2h-0.1v-0.2c-0.2,0-0.4-0.1-0.5-0.3h0.1c0.1,0.2,0.3,0.2,0.5,0.2c0.2,0,0.5-0.1,0.5-0.3
	s-0.2-0.3-0.5-0.3s-0.5-0.1-0.5-0.4s0.3-0.4,0.5-0.4L37.7,109.9L37.7,109.9z"/>
<path d="M38.4,111.4h0.3v-1.2l-0.3,0.1v-0.1l0.4-0.1v1.3h0.3v0.1h-0.7V111.4z"/>
<path d="M39.3,110.6c0-0.3,0.2-0.6,0.5-0.6c0.3,0,0.6,0.2,0.6,0.5c0,0,0,0.1,0,0.1v0.4c0,0.3-0.2,0.6-0.5,0.6
	c-0.3,0-0.6-0.2-0.6-0.5c0,0,0-0.1,0-0.1V110.6z M39.4,111c0,0.2,0.2,0.4,0.4,0.4s0.4-0.2,0.4-0.4v-0.3c0-0.2-0.2-0.4-0.4-0.4
	s-0.4,0.2-0.4,0.4V111z"/>
<path d="M41.6,111.5h-0.1l-0.7-0.7v0.7h-0.1v-1.4h0.1v0.6l0.7-0.6h0.1l-0.7,0.7L41.6,111.5L41.6,111.5z"/>
<path d="M57.1,109.9v0.2c0.2,0,0.4,0.1,0.5,0.2l-0.1,0.1c-0.1-0.1-0.3-0.2-0.4-0.2c-0.2,0-0.4,0.1-0.4,0.3s0.2,0.2,0.4,0.3
	s0.5,0.1,0.5,0.4s-0.3,0.4-0.5,0.4v0.2H57v-0.2c-0.2,0-0.4-0.1-0.5-0.3h0.1c0.1,0.2,0.3,0.2,0.5,0.2c0.2,0,0.5-0.1,0.5-0.3
	s-0.2-0.3-0.5-0.3s-0.5-0.1-0.5-0.4s0.3-0.4,0.5-0.4L57.1,109.9L57.1,109.9z"/>
<path d="M57.8,110.5c0-0.3,0.3-0.4,0.5-0.4s0.5,0.1,0.5,0.4s-0.3,0.4-0.5,0.4s-0.4,0.1-0.4,0.3v0.2h1v0.1h-1.1v-0.3
	c0-0.3,0.3-0.4,0.5-0.4s0.4-0.1,0.4-0.3s-0.2-0.3-0.4-0.3s-0.4,0.1-0.4,0.3L57.8,110.5z"/>
<path d="M59.1,110.6c0-0.3,0.2-0.5,0.5-0.5s0.5,0.2,0.5,0.5v0.4c0,0.3-0.2,0.5-0.5,0.5s-0.5-0.2-0.5-0.5l0,0V110.6z M59.2,111
	c0,0.2,0.2,0.4,0.4,0.4s0.4-0.2,0.4-0.4v-0.3c0-0.2-0.2-0.4-0.4-0.4s-0.4,0.2-0.4,0.4V111z"/>
<path d="M61.5,111.5h-0.1l-0.7-0.7v0.7h-0.1v-1.4h0.1v0.6l0.7-0.6h0.1l-0.7,0.7L61.5,111.5L61.5,111.5z"/>
<path d="M76.7,109.9v0.2c0.2,0,0.4,0.1,0.5,0.2l-0.1,0.1c-0.1-0.1-0.3-0.2-0.4-0.2c-0.2,0-0.4,0.1-0.4,0.3s0.2,0.2,0.4,0.3
	s0.6,0.1,0.6,0.4s-0.3,0.4-0.5,0.4v0.2h-0.1v-0.2c-0.2,0-0.4-0.1-0.5-0.3h0.1c0.1,0.2,0.3,0.2,0.5,0.2c0.2,0,0.4-0.1,0.4-0.3
	s-0.2-0.3-0.5-0.3s-0.5-0.1-0.5-0.4s0.3-0.4,0.5-0.4L76.7,109.9L76.7,109.9z"/>
<path d="M77.4,110.4c0-0.3,0.3-0.4,0.5-0.4s0.5,0.2,0.5,0.4c0,0.2-0.1,0.3-0.3,0.3c0.2,0,0.3,0.2,0.3,0.3c0,0.2-0.2,0.4-0.5,0.4
	s-0.5-0.1-0.5-0.4h0.1c0,0.2,0.3,0.3,0.4,0.3s0.4-0.1,0.4-0.3s-0.2-0.3-0.4-0.3h-0.2v-0.1h0.2c0.3,0,0.4-0.1,0.4-0.3
	s-0.1-0.3-0.4-0.3S77.5,110.2,77.4,110.4L77.4,110.4z"/>
<path d="M78.7,110.6c0-0.3,0.2-0.6,0.5-0.6s0.6,0.2,0.6,0.5c0,0,0,0.1,0,0.1v0.4c0,0.3-0.2,0.6-0.5,0.6s-0.6-0.2-0.6-0.5
	c0,0,0-0.1,0-0.1V110.6z M78.8,111c0,0.2,0.2,0.4,0.4,0.4s0.4-0.2,0.4-0.4v-0.3c0-0.2-0.2-0.4-0.4-0.4s-0.4,0.2-0.4,0.4V111z"/>
<path d="M81.1,111.5L81.1,111.5l-0.8-0.7v0.7h-0.1v-1.4h0.1v0.6l0.7-0.6H81l-0.7,0.7L81.1,111.5L81.1,111.5z"/>
<path d="M96.3,109.9v0.2c0.2,0,0.4,0.1,0.5,0.2l-0.1,0.1c-0.1-0.1-0.2-0.2-0.4-0.2c-0.2,0-0.4,0.1-0.4,0.3s0.2,0.2,0.4,0.3
	s0.6,0.1,0.6,0.4s-0.3,0.4-0.5,0.4v0.2h-0.1v-0.2c-0.2,0-0.4-0.1-0.5-0.3h0.1c0.1,0.2,0.3,0.2,0.5,0.2c0.2,0,0.4-0.1,0.4-0.3
	s-0.2-0.3-0.5-0.3s-0.5-0.1-0.5-0.4s0.3-0.4,0.5-0.4L96.3,109.9L96.3,109.9z"/>
<path d="M97.9,110.1v1h0.2v0.1h-0.2v0.3h-0.1v-0.3h-0.9v-0.1l0.8-1L97.9,110.1z M97.8,110.2l-0.8,0.9h0.8V110.2z"/>
<path d="M98.3,110.6c0-0.3,0.2-0.6,0.5-0.6s0.6,0.2,0.6,0.5c0,0,0,0.1,0,0.1v0.4c0,0.3-0.2,0.6-0.5,0.6s-0.6-0.2-0.6-0.5
	c0,0,0-0.1,0-0.1V110.6z M98.4,111c0,0.2,0.2,0.4,0.4,0.4s0.4-0.2,0.4-0.4v-0.3c0-0.2-0.2-0.4-0.4-0.4s-0.4,0.2-0.4,0.4V111z"/>
<path d="M100.7,111.5h-0.1l-0.7-0.7v0.7h-0.1v-1.4h0.1v0.6l0.7-0.6h0.1l-0.7,0.7L100.7,111.5L100.7,111.5z"/>
<path d="M115.3,109.9v0.2c0.2,0,0.4,0.1,0.5,0.2l-0.1,0.1c-0.1-0.1-0.2-0.2-0.4-0.2c-0.2,0-0.4,0.1-0.4,0.3s0.2,0.2,0.4,0.3
	s0.6,0.1,0.6,0.4s-0.3,0.4-0.5,0.4v0.2h-0.1v-0.2c-0.2,0-0.4-0.1-0.5-0.3h0.1c0.1,0.2,0.3,0.2,0.5,0.2c0.2,0,0.4-0.1,0.4-0.3
	s-0.2-0.3-0.5-0.3s-0.5-0.1-0.5-0.4s0.3-0.4,0.5-0.4L115.3,109.9L115.3,109.9z"/>
<path d="M116,110.7v-0.6h1v0.1h-0.9v0.4h0.4c0.4,0,0.5,0.2,0.5,0.4s-0.2,0.4-0.6,0.4s-0.5-0.1-0.5-0.4h0.1c0,0.2,0.2,0.3,0.4,0.3
	s0.4-0.1,0.4-0.3s-0.1-0.3-0.4-0.3L116,110.7z"/>
<path d="M117.3,110.6c0-0.3,0.2-0.5,0.5-0.5s0.5,0.2,0.5,0.5v0.4c0,0.3-0.2,0.5-0.5,0.5s-0.5-0.2-0.5-0.5l0,0V110.6z M117.4,111
	c0,0.2,0.2,0.4,0.4,0.4s0.4-0.2,0.4-0.4v-0.3c0-0.2-0.2-0.4-0.4-0.4s-0.4,0.2-0.4,0.4V111z"/>
<path d="M119.7,111.5h-0.1l-0.7-0.7v0.7h-0.1v-1.4h0.1v0.6l0.7-0.6h0.1l-0.7,0.7L119.7,111.5L119.7,111.5z"/>
<line class="st2" x1="19.7" y1="106.5" x2="117.7" y2="106.5"/>
<line class="st2" x1="39.3" y1="106.5" x2="39.3" y2="104.1"/>
<line class="st2" x1="58.9" y1="106.5" x2="58.9" y2="104.1"/>
<line class="st2" x1="78.5" y1="106.5" x2="78.5" y2="104.1"/>
<line class="st2" x1="98.1" y1="106.5" x2="98.1" y2="104.1"/>
<polyline class="st2" points="117.7,104.1 117.7,106.5 19.7,106.5 19.7,104.1 "/>
<line class="st3" x1="19.7" y1="106.5" x2="19.7" y2="8.5"/>
<path d="M6.5,98.7v0.9c0,0.3-0.2,0.6-0.5,0.6c-0.3,0-0.6-0.2-0.6-0.5c0,0,0-0.1,0-0.1v-0.9h0.1v0.9c0,0.2,0.1,0.5,0.4,0.5
	c0.2,0,0.5-0.1,0.5-0.4c0,0,0-0.1,0-0.1v-0.9H6.5z"/>
<path d="M6.9,99.1v0.2c0.1-0.1,0.2-0.2,0.3-0.2c0.2,0,0.4,0.2,0.4,0.4c0,0,0,0,0,0.1v0.6H7.6v-0.6c0-0.2-0.1-0.3-0.3-0.3
	c0,0,0,0-0.1,0c-0.2,0-0.3,0.1-0.4,0.3c0,0,0,0,0,0v0.6H6.8L6.9,99.1L6.9,99.1z"/>
<path d="M8.2,98.8C8.2,98.8,8.1,98.8,8.2,98.8c-0.1,0.1-0.2,0-0.2,0C8,98.7,8,98.7,8.2,98.8C8.1,98.7,8.2,98.7,8.2,98.8z M8,99.1v1
	h0.1v-1H8z"/>
<path d="M8.7,98.8v0.3H9v0.1H8.7v0.6c0,0.1,0,0.2,0.2,0.2c0.1,0,0.1,0,0.2,0l0,0c-0.1,0-0.1,0-0.2,0c-0.2,0-0.3-0.1-0.3-0.3v-0.6
	H8.3V99h0.2v-0.3L8.7,98.8z"/>
<path d="M9.1,99.6c0-0.3,0.2-0.5,0.5-0.5c0,0,0,0,0,0c0.3,0,0.5,0.2,0.5,0.4c0,0,0,0.1,0,0.1H9.2c0,0.2,0.2,0.4,0.4,0.4c0,0,0,0,0,0
	c0.1,0,0.3,0,0.4-0.2H10C9.9,100,9.8,100,9.6,100C9.4,100,9.1,99.8,9.1,99.6z M10,99.6c0-0.2-0.1-0.4-0.3-0.4c0,0,0,0-0.1,0
	c-0.2,0-0.4,0.1-0.4,0.4c0,0,0,0,0,0H10z"/>
<path d="M11.3,98.7v1.4h-0.1v-0.2c-0.1,0.1-0.2,0.2-0.4,0.2c-0.3,0-0.5-0.2-0.5-0.4c0,0,0,0,0-0.1c0-0.3,0.2-0.5,0.4-0.5
	c0,0,0,0,0.1,0c0.2,0,0.3,0.1,0.4,0.2L11.3,98.7L11.3,98.7z M10.4,99.6c0,0.2,0.1,0.4,0.3,0.4c0,0,0,0,0.1,0c0.2,0,0.4-0.3,0.4-0.5
	c0-0.2-0.2-0.3-0.4-0.4C10.6,99.1,10.4,99.3,10.4,99.6C10.4,99.5,10.4,99.6,10.4,99.6z"/>
<path d="M13.1,98.9c-0.1-0.1-0.3-0.2-0.4-0.2c-0.2,0-0.4,0.1-0.4,0.3s0.2,0.2,0.4,0.3s0.6,0.1,0.6,0.4s-0.3,0.4-0.6,0.4
	c-0.2,0-0.5-0.1-0.6-0.3l0.1-0.1c0.1,0.2,0.3,0.3,0.5,0.2c0.2,0,0.4,0,0.4-0.3s-0.2-0.3-0.5-0.3s-0.5-0.1-0.5-0.4s0.3-0.4,0.5-0.4
	C12.9,98.6,13.1,98.7,13.1,98.9L13.1,98.9z"/>
<path d="M13.6,98.8v0.3H14v0.1h-0.3v0.6c0,0.1,0,0.2,0.2,0.2c0,0,0.1,0,0.1,0v0.1c-0.1,0-0.1,0-0.2,0c-0.2,0-0.3-0.1-0.3-0.3v-0.6
	h-0.2v-0.1h0.2v-0.3L13.6,98.8z"/>
<path d="M15.1,99.1v1H15v-0.2c-0.1,0.1-0.2,0.2-0.4,0.2c-0.3-0.1-0.5-0.3-0.4-0.6c0-0.2,0.2-0.4,0.4-0.4c0.2,0,0.3,0.1,0.4,0.2v-0.2
	L15.1,99.1z M14.2,99.6c0,0.2,0.2,0.4,0.4,0.4c0,0,0,0,0,0c0.2,0,0.4-0.3,0.4-0.5c0-0.2-0.2-0.3-0.4-0.4
	C14.4,99.2,14.2,99.3,14.2,99.6C14.2,99.6,14.2,99.6,14.2,99.6z"/>
<path d="M15.6,98.8v0.3H16v0.1h-0.3v0.6c0,0.1,0,0.2,0.2,0.2c0,0,0.1,0,0.1,0v0.1c-0.1,0-0.1,0-0.2,0c-0.2,0-0.3-0.1-0.3-0.3v-0.6
	h-0.2v-0.1h0.2v-0.3L15.6,98.8z"/>
<path d="M16.1,99.6c0-0.3,0.2-0.5,0.5-0.5c0,0,0,0,0,0c0.3,0,0.5,0.2,0.5,0.4c0,0,0,0.1,0,0.1h-0.9c0,0.2,0.2,0.4,0.4,0.4
	c0.1,0,0.3-0.1,0.4-0.2H17c-0.1,0.1-0.3,0.2-0.4,0.2C16.3,100,16.1,99.8,16.1,99.6C16.1,99.6,16.1,99.6,16.1,99.6z M17,99.6
	c0-0.2-0.1-0.4-0.3-0.4c0,0,0,0-0.1,0c-0.2,0-0.4,0.2-0.4,0.4H17z"/>
<path d="M18,99.3c-0.1-0.1-0.2-0.1-0.3-0.1c-0.1,0-0.3,0-0.3,0.2s0.2,0.2,0.3,0.2s0.4,0.1,0.4,0.3s-0.2,0.3-0.4,0.3
	c-0.2,0-0.3-0.1-0.4-0.2l0.1-0.1c0.1,0.1,0.2,0.2,0.4,0.2c0.1,0,0.3,0,0.3-0.2s-0.2-0.2-0.3-0.2s-0.4-0.1-0.4-0.3s0.2-0.3,0.4-0.3
	C17.8,99.1,18,99.1,18,99.3L18,99.3z"/>
<path d="M7,83.7H6.9l-0.5-0.5H6v0.5H5.9v-1.4h0.6c0.2,0,0.4,0.2,0.5,0.4c0,0,0,0,0,0c0,0.2-0.2,0.4-0.4,0.4c0,0,0,0-0.1,0L7,83.7z
	 M6,83.1h0.5c0.2,0,0.3-0.1,0.4-0.3c0,0,0-0.1,0-0.1c0-0.2-0.1-0.3-0.3-0.3c0,0,0,0,0,0H6V83.1z"/>
<path d="M7.4,82.4C7.4,82.5,7.3,82.5,7.4,82.4c-0.1,0.1-0.2,0-0.2,0c0,0,0,0,0,0C7.2,82.4,7.2,82.3,7.4,82.4
	C7.3,82.3,7.4,82.4,7.4,82.4z M7.2,82.7v1h0.1L7.2,82.7L7.2,82.7z"/>
<path d="M7.6,82.8L7.6,82.8L8,83.6l0.4-0.9h0.1l-0.4,1H8L7.6,82.8z"/>
<path d="M8.6,83.2c0-0.3,0.2-0.5,0.5-0.5c0,0,0,0,0,0c0.3,0,0.5,0.2,0.5,0.4c0,0,0,0.1,0,0.1H8.7c0,0.2,0.2,0.4,0.4,0.4c0,0,0,0,0,0
	c0.1,0,0.3,0,0.4-0.2l0.1,0.1c-0.1,0.1-0.3,0.2-0.4,0.2C8.9,83.8,8.6,83.6,8.6,83.2C8.6,83.3,8.6,83.3,8.6,83.2z M9.5,83.2
	c0-0.2-0.2-0.4-0.4-0.4c0,0,0,0,0,0c-0.2,0-0.4,0.2-0.4,0.4c0,0,0,0,0,0H9.5z"/>
<path d="M10,82.8v0.2c0.1-0.1,0.2-0.2,0.3-0.2c0.1,0,0.1,0,0.2,0.1v0.1c-0.1,0-0.1,0-0.2,0c-0.2,0-0.3,0.1-0.3,0.3l0,0v0.6H9.9
	L10,82.8L10,82.8z"/>
<path d="M11.3,82.9c-0.1-0.1-0.2-0.1-0.3-0.1c-0.2,0-0.3,0.1-0.3,0.2s0.2,0.2,0.3,0.2s0.4,0.1,0.4,0.3s-0.2,0.3-0.4,0.3
	c-0.2,0-0.3-0.1-0.4-0.2l0.1-0.1c0.1,0.1,0.2,0.2,0.4,0.2c0.1,0,0.3,0,0.3-0.2s-0.2-0.2-0.3-0.2s-0.4-0.1-0.4-0.3s0.2-0.3,0.4-0.3
	C11.2,82.7,11.3,82.8,11.3,82.9L11.3,82.9z"/>
<path d="M11.8,82.4c0,0,0,0.1,0,0.1c0,0-0.1,0-0.1,0c0,0,0,0,0-0.1c0,0,0-0.1,0-0.1C11.7,82.3,11.8,82.3,11.8,82.4
	C11.8,82.4,11.8,82.4,11.8,82.4z M11.7,82.7v1h0.1v-1H11.7z"/>
<path d="M13,82.3v1.4l0,0v-0.2c-0.1,0.1-0.2,0.2-0.4,0.2c-0.3,0-0.5-0.2-0.5-0.4c0,0,0,0,0-0.1c0-0.3,0.2-0.5,0.4-0.5c0,0,0,0,0.1,0
	c0.2,0,0.3,0.1,0.4,0.3V82.3L13,82.3z M12.1,83.2c0,0.2,0.1,0.4,0.3,0.4c0,0,0,0,0.1,0c0.2,0,0.4-0.2,0.4-0.4c0,0,0,0,0,0
	c0-0.2-0.2-0.4-0.4-0.4c0,0,0,0,0,0C12.3,82.8,12.1,83,12.1,83.2C12.1,83.2,12.1,83.2,12.1,83.2L12.1,83.2z"/>
<path d="M13.3,83.2c0-0.3,0.2-0.5,0.5-0.5c0,0,0,0,0,0c0.3,0,0.5,0.2,0.5,0.4c0,0,0,0.1,0,0.1L13.3,83.2c0.1,0.3,0.3,0.4,0.5,0.4
	c0.1,0,0.3-0.1,0.4-0.2l0.1,0.1c-0.1,0.1-0.3,0.2-0.4,0.2C13.5,83.8,13.3,83.5,13.3,83.2C13.3,83.3,13.3,83.3,13.3,83.2z M14.2,83.2
	c0-0.2-0.1-0.4-0.3-0.4c0,0,0,0-0.1,0c-0.2,0-0.4,0.2-0.4,0.4H14.2z"/>
<path d="M14.7,83.7L14.7,83.7l-0.1,0.2h-0.1l0.1-0.2c0,0,0,0-0.1-0.1c0,0,0.1-0.1,0.1-0.1S14.7,83.6,14.7,83.7L14.7,83.7z"/>
<path d="M16.7,83.5c-0.1,0.1-0.3,0.2-0.5,0.2c-0.4,0-0.7-0.2-0.7-0.6c0,0,0-0.1,0-0.1c0-0.4,0.3-0.7,0.6-0.7c0,0,0.1,0,0.1,0
	c0.2,0,0.4,0.1,0.5,0.2l-0.1,0.1c-0.1-0.1-0.3-0.2-0.4-0.2c-0.3,0-0.7,0.2-0.7,0.5c0,0.3,0.2,0.7,0.5,0.7c0.1,0,0.1,0,0.2,0
	C16.4,83.6,16.5,83.6,16.7,83.5L16.7,83.5z"/>
<path d="M18.1,83.7l-0.1-0.3h-0.8l-0.1,0.3h-0.1l0.6-1.4h0.1l0.6,1.4H18.1z M17.9,83.3l-0.4-0.8l-0.4,0.8H17.9z"/>
<path d="M8.6,66.7c0,0.4-0.3,0.7-0.7,0.7s-0.7-0.3-0.7-0.7S7.5,66,7.9,66S8.6,66.3,8.6,66.7z M7.3,66.7c0,0.3,0.3,0.6,0.6,0.6
	c0.3,0,0.6-0.3,0.6-0.6c0-0.3-0.3-0.6-0.6-0.6C7.6,66.1,7.3,66.4,7.3,66.7C7.3,66.7,7.3,66.7,7.3,66.7z"/>
<path d="M9,66.4v0.2c0.1-0.1,0.2-0.2,0.3-0.2c0.1,0,0.1,0,0.2,0.1v0.1c-0.1,0-0.1,0-0.2,0c-0.2,0-0.3,0.1-0.3,0.3l0,0v0.6H8.9
	L9,66.4L9,66.4z"/>
<path d="M9.8,66v1.4H9.7V66H9.8z"/>
<path d="M11.1,66.4v1H11v-0.2c-0.1,0.1-0.2,0.2-0.4,0.2c-0.3-0.1-0.5-0.3-0.4-0.6c0-0.2,0.2-0.4,0.4-0.4c0.2,0,0.3,0.1,0.4,0.2
	L11.1,66.4L11.1,66.4z M10.2,66.9c0,0.2,0.2,0.4,0.4,0.4c0,0,0,0,0,0c0.2,0,0.4-0.2,0.4-0.4c0-0.2-0.2-0.4-0.4-0.4c0,0,0,0,0,0
	C10.4,66.5,10.2,66.7,10.2,66.9C10.2,66.9,10.2,66.9,10.2,66.9z"/>
<path d="M11.5,66.4v0.2c0.1-0.1,0.2-0.2,0.4-0.2c0.2,0,0.4,0.1,0.4,0.4c0,0,0,0,0,0.1v0.6h-0.1v-0.6c0-0.2-0.1-0.3-0.3-0.3
	c0,0,0,0-0.1,0c-0.2,0-0.3,0.2-0.3,0.3c0,0,0,0,0,0v0.6h-0.1v-1L11.5,66.4z"/>
<path d="M13.5,66v1.4h-0.1v-0.2c-0.1,0.1-0.2,0.2-0.4,0.2c-0.3-0.1-0.5-0.3-0.4-0.6c0-0.2,0.2-0.4,0.4-0.4c0.2,0,0.3,0.1,0.4,0.2V66
	H13.5z M12.6,66.9c0,0.2,0.1,0.4,0.3,0.4c0,0,0,0,0.1,0c0.2,0,0.4-0.3,0.4-0.5c0-0.2-0.2-0.3-0.4-0.4C12.8,66.5,12.6,66.6,12.6,66.9
	C12.6,66.9,12.6,66.9,12.6,66.9z"/>
<path d="M13.8,66.9c0-0.3,0.2-0.5,0.5-0.5c0.3,0,0.5,0.2,0.5,0.5c0,0.3-0.2,0.5-0.5,0.5c0,0,0,0,0,0C14,67.4,13.8,67.2,13.8,66.9
	C13.8,66.9,13.8,66.9,13.8,66.9z M14.7,66.9c0-0.2-0.1-0.4-0.3-0.5c-0.2,0-0.4,0.1-0.5,0.3c0,0,0,0.1,0,0.1c0,0.2,0.1,0.4,0.3,0.5
	c0.2,0,0.4-0.1,0.5-0.3C14.7,67,14.7,67,14.7,66.9z"/>
<path d="M15.2,67.3L15.2,67.3l-0.1,0.2H15l0.1-0.2c0,0-0.1,0-0.1-0.1c0-0.1,0.1-0.1,0.1-0.1C15.2,67.2,15.2,67.3,15.2,67.3
	L15.2,67.3z"/>
<path d="M16.2,66.7H17v0.1L16.2,66.7l0,0.7h-0.1V66H17v0.1h-0.8L16.2,66.7z"/>
<path d="M17.4,66v1.3h0.8v0.1h-0.9L17.4,66L17.4,66z"/>
<path d="M3.2,49.7V51H4v0.1H3.1v-1.4L3.2,49.7z"/>
<path d="M4.1,50.6c0-0.3,0.2-0.5,0.5-0.5c0,0,0,0,0,0c0.3,0,0.5,0.2,0.5,0.5c0,0,0,0,0,0c0,0.3-0.2,0.5-0.5,0.5c0,0,0,0,0,0
	C4.3,51.1,4.1,50.9,4.1,50.6C4.1,50.6,4.1,50.6,4.1,50.6z M5,50.6c0-0.2-0.1-0.4-0.3-0.5c-0.2,0-0.4,0.1-0.5,0.3c0,0,0,0.1,0,0.1
	c0,0.2,0.1,0.4,0.3,0.5c0.2,0,0.4-0.1,0.5-0.3C5,50.7,5,50.6,5,50.6z"/>
<path d="M6,50.3c-0.1-0.1-0.2-0.1-0.3-0.1c-0.2,0-0.3,0-0.3,0.2s0.2,0.2,0.3,0.2s0.4,0.1,0.4,0.3s-0.2,0.3-0.4,0.3
	c-0.2,0-0.3-0.1-0.4-0.2l0.1-0.1C5.4,50.9,5.5,51,5.7,51C5.8,51,6,51,6,50.8s-0.2-0.2-0.3-0.2s-0.4-0.1-0.4-0.3s0.2-0.3,0.4-0.3
	C5.8,50.1,6,50.1,6,50.3L6,50.3z"/>
<path d="M8,51.1l-0.2-0.3H7l-0.2,0.3H6.7l0.6-1.4h0.1l0.6,1.4H8z M7.8,50.6l-0.4-0.8L7,50.6H7.8z"/>
<path d="M8.4,50.1v0.2c0.1-0.1,0.2-0.2,0.4-0.2c0.2,0,0.4,0.1,0.4,0.4c0,0,0,0,0,0.1v0.6H9.1v-0.6c0-0.2-0.1-0.3-0.3-0.3
	c0,0,0,0-0.1,0c-0.2,0-0.3,0.1-0.4,0.3c0,0,0,0,0,0v0.5H8.3v-1L8.4,50.1z"/>
<path d="M10.4,50L10.4,50l0,0.2c0.1,0.1,0.1,0.2,0.1,0.3c0,0.2-0.1,0.4-0.3,0.4c0.2,0,0.3,0.2,0.3,0.3c0,0.2-0.2,0.4-0.5,0.4
	s-0.5-0.1-0.5-0.4h0.1c0,0.2,0.2,0.3,0.4,0.3s0.4-0.1,0.4-0.3S10.2,51,10,51c-0.3,0-0.5-0.2-0.5-0.4c0,0,0,0,0-0.1
	c0-0.3,0.2-0.5,0.5-0.5c0,0,0,0,0,0c0.1,0,0.2,0,0.3,0.1L10.4,50z M9.6,50.5c0,0.2,0.2,0.4,0.4,0.4c0,0,0,0,0.1,0
	c0.2,0,0.4-0.2,0.4-0.4c0,0,0,0,0,0c0-0.2-0.2-0.4-0.4-0.4c0,0,0,0,0,0C9.8,50.1,9.6,50.3,9.6,50.5C9.6,50.5,9.6,50.5,9.6,50.5
	L9.6,50.5z"/>
<path d="M10.7,50.6c0-0.3,0.2-0.5,0.5-0.5c0,0,0,0,0,0c0.3,0,0.5,0.2,0.5,0.4c0,0,0,0.1,0,0.1L10.7,50.6c0.1,0.3,0.3,0.4,0.5,0.4
	c0.1,0,0.3,0,0.4-0.2h0.1C11.5,51,11.3,51,11.2,51C10.9,51,10.7,50.8,10.7,50.6C10.7,50.6,10.7,50.6,10.7,50.6z M11.6,50.6
	c0-0.2-0.1-0.4-0.3-0.4c0,0,0,0-0.1,0c-0.2,0-0.4,0.1-0.4,0.4c0,0,0,0,0,0H11.6z"/>
<path d="M12,49.7v1.4h-0.1v-1.4H12z"/>
<path d="M12.3,50.6c0-0.3,0.2-0.5,0.5-0.5c0,0,0,0,0,0c0.3,0,0.5,0.2,0.5,0.4c0,0,0,0.1,0,0.1L12.3,50.6c0.1,0.3,0.3,0.4,0.5,0.4
	c0.1,0,0.3-0.1,0.4-0.2h0.1C13.1,51,13,51,12.8,51C12.5,51,12.3,50.8,12.3,50.6C12.3,50.6,12.3,50.6,12.3,50.6z M13.2,50.6
	c0-0.2-0.1-0.4-0.3-0.4c0,0,0,0-0.1,0c-0.2,0-0.4,0.2-0.4,0.4H13.2z"/>
<path d="M14.2,50.3c-0.1-0.1-0.2-0.1-0.3-0.1c-0.1,0-0.3,0-0.3,0.2s0.2,0.2,0.3,0.2s0.4,0.1,0.4,0.3s-0.2,0.3-0.4,0.3
	c-0.2,0-0.3-0.1-0.4-0.2l0.1-0.1c0.1,0.1,0.2,0.2,0.4,0.2c0.1,0,0.3,0,0.3-0.2s-0.2-0.2-0.3-0.2s-0.4-0.1-0.4-0.3s0.2-0.3,0.4-0.3
	C14,50.1,14.2,50.1,14.2,50.3L14.2,50.3z"/>
<path d="M14.7,51L14.7,51l-0.1,0.2h-0.1l0.1-0.2c0,0,0,0,0-0.1c0,0,0-0.1,0-0.1c0,0,0.1,0,0.1,0C14.7,50.9,14.7,51,14.7,51z"/>
<path d="M16.7,50.9c-0.1,0.1-0.3,0.2-0.5,0.2c-0.4,0-0.7-0.2-0.7-0.6c0,0,0-0.1,0-0.1c0-0.4,0.3-0.7,0.6-0.7c0,0,0.1,0,0.1,0
	c0.2,0,0.4,0.1,0.5,0.2l-0.1,0.1c-0.1-0.1-0.3-0.2-0.4-0.2c-0.3,0-0.7,0.2-0.7,0.5c0,0.3,0.2,0.7,0.5,0.7c0.1,0,0.1,0,0.2,0
	C16.3,51,16.5,50.9,16.7,50.9L16.7,50.9z"/>
<path d="M18.1,51.1l-0.1-0.3h-0.8l-0.1,0.3h-0.1l0.6-1.4h0.1l0.6,1.4H18.1z M17.9,50.6l-0.4-0.8l-0.4,0.8H17.9z"/>
<path d="M6,33.3l1,1.2v-1.2h0.1v1.4H7l-0.9-1.2v1.2H6V33.3z"/>
<path d="M7.3,34.2c0-0.3,0.2-0.5,0.5-0.5c0,0,0,0,0,0c0.3,0,0.5,0.2,0.5,0.4c0,0,0,0.1,0,0.1L7.3,34.2c0.1,0.3,0.3,0.4,0.5,0.4
	c0.1,0,0.3-0.1,0.4-0.2l0.1,0.1c-0.1,0.1-0.3,0.2-0.4,0.2C7.6,34.8,7.4,34.5,7.3,34.2C7.3,34.3,7.3,34.3,7.3,34.2z M8.2,34.2
	c0-0.2-0.1-0.4-0.3-0.4c0,0,0,0-0.1,0c-0.2,0-0.4,0.2-0.4,0.4H8.2z"/>
<path d="M9.6,34.7H9.5l-0.2-0.4l-0.1-0.4l-0.1,0.4l-0.2,0.4H8.8l-0.4-1h0.1l0.3,0.9l0.3-0.9h0.1l0.3,0.9l0.3-0.9H10L9.6,34.7z"/>
<path d="M11.1,34.2l-0.6-0.8h0.1L11.1,34.2l0.5-0.8h0.1L11.1,34.2l0.1,0.6h-0.1L11.1,34.2z"/>
<path d="M11.6,34.2c0-0.3,0.2-0.5,0.5-0.5s0.5,0.2,0.5,0.5s-0.2,0.5-0.5,0.5S11.6,34.5,11.6,34.2z M12.6,34.2c0-0.2-0.1-0.4-0.3-0.5
	c-0.2,0-0.4,0.1-0.5,0.3c0,0,0,0.1,0,0.1c0,0.2,0.2,0.4,0.5,0.3C12.4,34.6,12.5,34.4,12.6,34.2z"/>
<path d="M13,33.8v0.2c0.1-0.1,0.2-0.2,0.3-0.2c0.1,0,0.1,0,0.2,0v0.1c0,0-0.1-0.1-0.2,0c-0.2,0-0.3,0.1-0.3,0.3l0,0v0.6h-0.1
	L13,33.8L13,33.8z"/>
<path d="M13.8,33.3v0.8l0.5-0.4h0.1l-0.5,0.5l0.6,0.5h-0.1l-0.5-0.5v0.5h-0.1L13.8,33.3L13.8,33.3z"/>
<path d="M14.8,34.7L14.8,34.7l-0.1,0.2h-0.1L14.8,34.7c-0.1,0-0.2,0-0.1,0C14.7,34.6,14.7,34.6,14.8,34.7
	C14.8,34.6,14.8,34.6,14.8,34.7z"/>
<path d="M15.7,33.3l0.9,1.2v-1.2h0.1v1.4h0l-0.9-1.2v1.2h-0.1L15.7,33.3L15.7,33.3z"/>
<path d="M17.5,34.2L17,33.3h0.1L17.5,34.2l0.5-0.8h0.1l-0.5,0.8v0.6h-0.1L17.5,34.2z"/>
<path d="M2,17.3c-0.1-0.1-0.3-0.2-0.4-0.2c-0.2,0-0.4,0.1-0.4,0.3s0.2,0.2,0.4,0.3s0.5,0.1,0.5,0.4s-0.3,0.4-0.5,0.4
	c-0.2,0-0.4-0.1-0.6-0.3l0.1,0c0.1,0.2,0.3,0.3,0.5,0.3c0.2,0,0.4,0,0.4-0.3s-0.2-0.3-0.5-0.3s-0.5-0.1-0.5-0.4S1.4,17,1.6,17
	C1.8,17,2,17,2,17.3L2,17.3z"/>
<path d="M3.4,17.4v1H3.3v-0.2c-0.1,0.1-0.2,0.2-0.4,0.2c-0.3-0.1-0.5-0.3-0.4-0.6c0-0.2,0.2-0.4,0.4-0.4c0.2,0,0.3,0.1,0.4,0.2
	L3.4,17.4L3.4,17.4z M2.5,17.9c0,0.2,0.2,0.4,0.4,0.4c0,0,0,0,0,0c0.2,0,0.4-0.2,0.4-0.4c0-0.2-0.2-0.4-0.4-0.4c0,0,0,0,0,0
	C2.6,17.5,2.5,17.7,2.5,17.9C2.5,17.9,2.5,17.9,2.5,17.9z"/>
<path d="M3.8,17.4v0.2c0.1-0.1,0.2-0.2,0.4-0.2c0.2,0,0.4,0.1,0.4,0.4c0,0,0,0,0,0.1v0.6H4.5v-0.6c0-0.2-0.1-0.3-0.3-0.3
	c0,0,0,0-0.1,0c-0.2,0-0.3,0.2-0.3,0.3c0,0,0,0,0,0v0.5H3.7L3.8,17.4L3.8,17.4z"/>
<path d="M5.6,17.7h0.8v0.1H5.6v0.6H5.5V17h0.9v0.1H5.6V17.7z"/>
<path d="M6.7,17.4v0.2c0.1-0.1,0.2-0.2,0.3-0.2c0.1,0,0.1,0,0.2,0.1v0.1c-0.1,0-0.1,0-0.2,0c-0.2,0-0.3,0.1-0.3,0.3v0.6H6.7
	L6.7,17.4L6.7,17.4z"/>
<path d="M8.3,17.4v1H8.2v-0.2c-0.1,0.1-0.2,0.2-0.4,0.2c-0.3-0.1-0.5-0.3-0.4-0.6c0-0.2,0.2-0.4,0.4-0.4c0.2,0,0.3,0.1,0.4,0.2v-0.2
	L8.3,17.4z M7.4,17.9c0,0.2,0.2,0.4,0.4,0.4c0,0,0,0,0,0c0.2,0,0.4-0.2,0.4-0.4s-0.2-0.4-0.4-0.4c0,0,0,0,0,0
	C7.6,17.5,7.4,17.7,7.4,17.9C7.4,17.9,7.4,17.9,7.4,17.9z"/>
<path d="M8.8,17.4v0.2c0.1-0.1,0.2-0.2,0.4-0.2c0.2,0,0.4,0.1,0.4,0.4c0,0,0,0,0,0.1v0.6H9.4v-0.6c0-0.2-0.1-0.3-0.3-0.3
	c0,0,0,0-0.1,0c-0.2,0-0.3,0.1-0.4,0.3c0,0,0,0,0,0v0.5H8.7L8.8,17.4L8.8,17.4z"/>
<path d="M10.7,18.3c-0.1,0.1-0.2,0.1-0.4,0.1c-0.3,0-0.5-0.2-0.5-0.5c0,0,0,0,0,0c0-0.3,0.2-0.5,0.5-0.5c0,0,0,0,0,0
	c0.1,0,0.3,0.1,0.4,0.1l-0.1,0.1c-0.1-0.1-0.2-0.1-0.3-0.1c-0.2,0-0.4,0.2-0.4,0.4c0,0,0,0,0,0c0,0.2,0.2,0.4,0.4,0.4c0,0,0,0,0,0
	C10.4,18.3,10.5,18.3,10.7,18.3L10.7,18.3z"/>
<path d="M11,17.1C11,17.1,11,17.2,11,17.1c-0.1,0.1-0.2,0-0.2,0c0,0,0,0,0,0C10.8,17,10.9,17,11,17.1C11,17,11,17,11,17.1z
	 M10.9,17.4v1H11v-1H10.9z"/>
<path d="M12,17.6c-0.1-0.1-0.2-0.1-0.3-0.1c-0.2,0-0.3,0.1-0.3,0.2s0.2,0.2,0.3,0.2s0.4,0.1,0.4,0.3s-0.2,0.3-0.4,0.3
	c-0.2,0-0.3-0.1-0.4-0.2l0.1-0.1c0.1,0.1,0.2,0.2,0.4,0.2c0.1,0,0.3,0,0.3-0.2s-0.2-0.2-0.3-0.2s-0.4-0.1-0.4-0.3s0.2-0.3,0.4-0.3
	C11.8,17.4,12,17.4,12,17.6L12,17.6z"/>
<path d="M13.1,18.3c-0.1,0.1-0.2,0.1-0.4,0.1c-0.3,0-0.5-0.2-0.5-0.5c0,0,0,0,0,0c0-0.3,0.2-0.5,0.5-0.5c0,0,0,0,0,0
	c0.1,0,0.3,0.1,0.4,0.1l-0.1,0.1c-0.1-0.1-0.2-0.1-0.3-0.1c-0.2,0-0.4,0.2-0.4,0.4c0,0,0,0,0,0.1c0,0.2,0.2,0.4,0.4,0.4c0,0,0,0,0,0
	C12.9,18.3,13,18.3,13.1,18.3L13.1,18.3z"/>
<path d="M13.3,17.9c0-0.3,0.2-0.5,0.5-0.5s0.5,0.2,0.5,0.5s-0.2,0.5-0.5,0.5S13.3,18.2,13.3,17.9z M14.2,17.9c0-0.2-0.2-0.4-0.4-0.4
	c0,0,0,0,0,0c-0.2,0-0.4,0.2-0.4,0.4c0,0,0,0,0,0c0,0.2,0.2,0.4,0.4,0.4c0,0,0,0,0,0C14,18.3,14.2,18.2,14.2,17.9
	C14.2,17.9,14.2,17.9,14.2,17.9z"/>
<path d="M14.7,18.3L14.7,18.3l-0.1,0.2h-0.1l0.1-0.2c0,0,0,0-0.1-0.1C14.5,18.3,14.6,18.2,14.7,18.3C14.7,18.3,14.7,18.3,14.7,18.3
	L14.7,18.3z"/>
<path d="M16.7,18.2c-0.1,0.1-0.3,0.2-0.5,0.2c-0.4,0-0.7-0.2-0.7-0.6c0,0,0-0.1,0-0.1c0-0.4,0.3-0.7,0.6-0.7c0,0,0.1,0,0.1,0
	c0.2,0,0.4,0.1,0.5,0.2l-0.1,0.1c-0.1-0.1-0.3-0.2-0.4-0.2c-0.3,0-0.6,0.3-0.6,0.6s0.3,0.6,0.6,0.6c0,0,0,0,0,0
	C16.4,18.3,16.5,18.3,16.7,18.2L16.7,18.2z"/>
<path d="M18.1,18.4l-0.1-0.3h-0.8l-0.1,0.3h-0.1l0.6-1.4h0.1l0.6,1.4H18.1z M17.9,18l-0.4-0.9L17.1,18H17.9z"/>
<path d="M51.5,48v-1.2h-1.7V48h-0.3v-2.8h0.3v1.3h1.7v-1.3h0.3V48H51.5z"/>
<path d="M54.2,47.1c0,0.6-0.4,1-1,1s-1-0.4-1-1s0.4-1,1-1S54.2,46.5,54.2,47.1z M52.4,47.1c0,0.4,0.3,0.8,0.8,0.8s0.8-0.3,0.8-0.8
	s-0.3-0.8-0.8-0.8S52.4,46.6,52.4,47.1z"/>
<path d="M55.9,48v-1.1c0-0.3-0.3-0.6-0.6-0.6c-0.3,0-0.6,0.3-0.6,0.6c0,0,0,0,0,0V48h-0.3v-2h0.2v0.3c0.1-0.2,0.4-0.4,0.6-0.3
	c0.3,0,0.6,0.2,0.7,0.5c0.1-0.3,0.4-0.5,0.7-0.5c0.4,0,0.8,0.3,0.8,0.8c0,0,0,0.1,0,0.1V48h-0.3v-1.1c0-0.3-0.2-0.6-0.5-0.6
	c0,0,0,0-0.1,0c-0.3,0-0.6,0.2-0.6,0.6c0,0,0,0,0,0.1V48H55.9z"/>
<path d="M58.2,47.2c0,0.4,0.4,0.7,0.8,0.7c0.3,0,0.5-0.1,0.7-0.3l0.2,0.2c-0.2,0.2-0.5,0.4-0.8,0.4c-0.6,0-1-0.4-1-1s0.4-1,1-1
	c0.5-0.1,1,0.3,1,0.8c0,0.1,0,0.2,0,0.3L58.2,47.2z M59.7,46.9c0-0.4-0.3-0.7-0.7-0.7c0,0,0,0-0.1,0c-0.4,0-0.7,0.3-0.7,0.7H59.7z"
	/>
<path d="M61.5,46.5c-0.2-0.1-0.4-0.2-0.6-0.2c-0.3,0-0.5,0.1-0.5,0.3s0.3,0.3,0.5,0.3s0.8,0.1,0.8,0.6s-0.4,0.6-0.8,0.6
	c-0.3,0-0.7-0.1-0.9-0.4l0.2-0.2c0.2,0.2,0.4,0.3,0.7,0.3c0.2,0,0.5-0.1,0.5-0.3s-0.3-0.3-0.6-0.3s-0.8-0.1-0.8-0.5s0.4-0.6,0.8-0.6
	c0.3,0,0.5,0.1,0.7,0.3L61.5,46.5z"/>
<path d="M64.3,46.1l0.6,1.7l0.6-1.7h0.3l-0.7,2h-0.3l-0.3-0.8l-0.2-0.7L64,47.3l-0.3,0.8h-0.3l-0.7-2H63l0.6,1.7l0.6-1.7H64.3z"/>
<path d="M66.4,45.5c0,0.1-0.1,0.2-0.2,0.2c-0.1,0-0.2-0.1-0.2-0.2c0-0.1,0.1-0.2,0.2-0.2C66.3,45.3,66.4,45.3,66.4,45.5z M66,46.1v2
	h0.3v-2H66z"/>
<path d="M67.3,45.5v0.6h0.6v0.2h-0.6v1.1c0,0.2,0.1,0.4,0.3,0.4c0.1,0,0.2,0,0.3-0.1L68,48c-0.1,0.1-0.2,0.1-0.4,0.1
	c-0.4,0-0.6-0.2-0.6-0.7v-1.1h-0.4v-0.2H67v-0.6L67.3,45.5z"/>
<path d="M68.4,45.2v1.2c0.3-0.4,0.8-0.5,1.2-0.2c0.2,0.2,0.4,0.4,0.4,0.7V48h-0.3v-1.1c0-0.4-0.2-0.6-0.6-0.6
	c-0.4,0-0.7,0.3-0.7,0.6c0,0,0,0,0,0V48h-0.3v-2.8H68.4z"/>
<path d="M71.5,46.1v0.3c0.1-0.2,0.4-0.4,0.6-0.3c0.2,0,0.3,0,0.4,0.1l-0.1,0.2c-0.1-0.1-0.2-0.1-0.3-0.1c-0.3,0-0.6,0.3-0.6,0.6
	c0,0,0,0,0,0V48h-0.3v-2L71.5,46.1z"/>
<path d="M74.6,47.1c0,0.6-0.4,1-1,1s-1-0.4-1-1s0.4-1,1-1S74.6,46.5,74.6,47.1z M72.9,47.1c0,0.4,0.3,0.8,0.8,0.8s0.8-0.3,0.8-0.8
	s-0.3-0.8-0.8-0.8S72.9,46.6,72.9,47.1z"/>
<path d="M76.9,47.1c0,0.6-0.4,1-1,1s-1-0.4-1-1s0.4-1,1-1S76.9,46.5,76.9,47.1z M75.1,47.1c0,0.4,0.3,0.8,0.8,0.8s0.8-0.3,0.8-0.8
	s-0.3-0.8-0.8-0.8S75.1,46.6,75.1,47.1z"/>
<path d="M77.4,48v-1.7H77v-0.2h0.4v-0.2c0-0.4,0.2-0.7,0.6-0.7c0.2,0,0.3,0,0.4,0.1l-0.1,0.2c-0.1-0.1-0.2-0.1-0.3-0.1
	c-0.2,0-0.4,0.1-0.4,0.5v0.2h0.6v0.2h-0.6V48H77.4z"/>
<path d="M79,45.5v0.6h0.6v0.2H79v1.1c0,0.2,0.1,0.4,0.3,0.4c0.1,0,0.2,0,0.3-0.1l0.1,0.2c-0.1,0.1-0.2,0.1-0.4,0.1
	c-0.4,0-0.6-0.2-0.6-0.7v-1.1h-0.4v-0.2h0.4v-0.6L79,45.5z"/>
<path d="M81.8,47.1c0,0.6-0.4,1-1,1s-1-0.4-1-1s0.4-1,1-1S81.8,46.5,81.8,47.1z M80,47.1c0,0.4,0.3,0.7,0.7,0.8c0,0,0,0,0.1,0
	c0.4,0,0.7-0.3,0.7-0.7c0,0,0-0.1,0-0.1c0-0.4-0.3-0.8-0.7-0.8c0,0,0,0-0.1,0C80.4,46.3,80,46.6,80,47.1C80,47,80,47,80,47.1
	L80,47.1z"/>
<path d="M82.1,49v-2.9h0.3v0.4c0.2-0.3,0.5-0.5,0.8-0.5c0.6,0,1,0.4,1,1s-0.4,1-1,1c-0.3,0-0.6-0.2-0.8-0.4V49H82.1z M83.9,47.1
	c0-0.4-0.3-0.7-0.6-0.8c0,0-0.1,0-0.1,0c-0.4,0-0.8,0.3-0.8,0.8c0,0.4,0.3,0.8,0.8,0.8C83.5,47.8,83.9,47.5,83.9,47.1
	C83.9,47.1,83.9,47.1,83.9,47.1L83.9,47.1z"/>
<path d="M86.7,46.5c-0.2-0.1-0.4-0.2-0.6-0.2c-0.3,0-0.6,0.1-0.5,0.3s0.3,0.3,0.5,0.3s0.8,0.1,0.8,0.6s-0.4,0.6-0.8,0.6
	c-0.3,0-0.7-0.1-0.9-0.4l0.2-0.2c0.2,0.2,0.4,0.3,0.7,0.3c0.2,0,0.5-0.1,0.5-0.3s-0.3-0.3-0.6-0.3s-0.8-0.1-0.8-0.5s0.4-0.6,0.8-0.6
	c0.3,0,0.5,0.1,0.8,0.3L86.7,46.5z"/>
<path d="M89.1,47.1c0,0.6-0.4,1-1,1s-1-0.4-1-1s0.4-1,1-1S89.1,46.5,89.1,47.1z M87.4,47.1c0,0.4,0.3,0.7,0.7,0.8c0,0,0,0,0.1,0
	c0.4,0,0.7-0.3,0.7-0.7c0,0,0-0.1,0-0.1c0-0.4-0.3-0.8-0.7-0.8c0,0,0,0-0.1,0C87.7,46.3,87.4,46.6,87.4,47.1
	C87.4,47,87.4,47,87.4,47.1z"/>
<path d="M89.8,45.2V48h-0.3v-2.8H89.8z"/>
<path d="M91.9,46.1h0.2v2h-0.2v-0.4c-0.2,0.3-0.5,0.4-0.8,0.4c-0.6,0-1-0.4-1-1s0.4-1,1-1c0.3,0,0.6,0.1,0.8,0.4V46.1z M90.4,47.1
	c0,0.4,0.3,0.8,0.7,0.8c0,0,0,0,0,0c0.4,0,0.8-0.3,0.8-0.8s-0.3-0.8-0.8-0.8C90.7,46.3,90.4,46.6,90.4,47.1
	C90.4,47,90.4,47,90.4,47.1L90.4,47.1z"/>
<path d="M92.9,46.1v0.3c0.1-0.2,0.4-0.4,0.6-0.3c0.2,0,0.3,0,0.4,0.1l-0.1,0.2c-0.1-0.1-0.2-0.1-0.3-0.1c-0.3,0-0.6,0.3-0.6,0.6
	c0,0,0,0,0,0V48h-0.3v-2L92.9,46.1z"/>
<path d="M94.9,47.3c0.2,0.1,0.5,0.2,0.7,0.2c0.1,0,0.2,0,0.2-0.1s-0.1-0.1-0.2-0.1c-0.4,0-0.8-0.2-0.8-0.7s0.4-0.7,0.9-0.7
	c0.3,0,0.6,0.1,0.8,0.2l-0.3,0.4c-0.2-0.1-0.3-0.1-0.5-0.1c-0.1,0-0.2,0-0.2,0.1s0,0.1,0.2,0.1c0.4,0,0.9,0.1,0.9,0.7
	s-0.4,0.7-0.9,0.7c-0.4,0-0.7-0.1-1-0.3L94.9,47.3z"/>
<path d="M98.7,47.3h-1.4c0,0.2,0.3,0.2,0.4,0.2c0.2,0,0.4-0.1,0.5-0.2l0.4,0.4c-0.2,0.2-0.6,0.3-0.9,0.3c-0.6,0-1-0.5-1-1s0.5-1,1-1
	c0.6,0,1,0.4,1,1C98.8,47.1,98.7,47.2,98.7,47.3z M98.1,46.8c0-0.3-0.7-0.3-0.7,0H98.1z"/>
<path d="M99.6,45.2V48h-0.7v-2.8L99.6,45.2z"/>
<path d="M100.6,45.2V48h-0.7v-2.8L100.6,45.2z"/>
<path d="M101.8,48v-1.3h-0.3v-0.6h0.3V46c0-0.4,0.3-0.8,0.8-0.8c0,0,0.1,0,0.1,0c0.2,0,0.4,0.1,0.6,0.2l-0.2,0.4
	c-0.1-0.1-0.2-0.1-0.3-0.1c-0.1,0-0.2,0.1-0.2,0.2c0,0,0,0,0,0v0.1h0.5v0.6h-0.5V48H101.8z"/>
<path d="M105.3,47.1c0,0.6-0.5,1.1-1.1,1.1c-0.6,0-1.1-0.5-1.1-1.1l0,0c0-0.6,0.5-1.1,1.1-1.1C104.8,45.9,105.3,46.4,105.3,47.1z
	 M104.6,47.1c0-0.2-0.2-0.4-0.4-0.4s-0.4,0.2-0.4,0.4c0,0.2,0.2,0.4,0.4,0.4C104.4,47.5,104.6,47.3,104.6,47.1
	C104.6,47.1,104.6,47.1,104.6,47.1z"/>
<path d="M106.1,46.1l0.1,0.2c0.1-0.2,0.3-0.3,0.5-0.3c0.2,0,0.4,0.1,0.5,0.2l-0.3,0.5c-0.1-0.1-0.2-0.1-0.3-0.1
	c-0.2,0-0.3,0.1-0.3,0.3c0,0,0,0.1,0,0.1v1h-0.7v-2L106.1,46.1z"/>
<path d="M50.2,50.3v0.6h0.5v0.6h-0.5v0.7c0,0.1,0.1,0.2,0.2,0.2c0.1,0,0.1,0,0.2-0.1l0.2,0.5c-0.2,0.1-0.4,0.1-0.6,0.1
	c-0.4,0-0.7-0.2-0.7-0.8v-0.7h-0.3v-0.6h0.3v-0.5L50.2,50.3z"/>
<path d="M51.7,50v1c0.1-0.2,0.3-0.3,0.5-0.2c0.4,0,0.8,0.3,0.8,0.9v1.1h-0.7v-1.1c0-0.2-0.1-0.3-0.3-0.3c-0.2,0-0.3,0.2-0.3,0.3
	c0,0,0,0,0,0v1h-0.7V50H51.7z"/>
<path d="M55.3,51.9c-0.1,0.6-0.6,1.1-1.2,1c-0.5-0.1-1-0.5-1-1c0.1-0.6,0.6-1.1,1.2-1C54.9,50.9,55.3,51.3,55.3,51.9z M54.6,51.9
	c0-0.2-0.1-0.4-0.4-0.4c0,0,0,0,0,0c-0.2,0-0.4,0.2-0.5,0.4s0.2,0.4,0.4,0.5S54.6,52.1,54.6,51.9C54.6,51.9,54.6,51.9,54.6,51.9z"/>
<path d="M56.2,50.9V52c0,0.2,0.1,0.3,0.3,0.3c0.2,0,0.3-0.1,0.3-0.3c0,0,0,0,0-0.1v-1.1h0.7v2h-0.7v-0.2c-0.2,0.2-0.4,0.3-0.6,0.3
	c-0.4,0-0.8-0.2-0.8-0.9v-1.1H56.2z"/>
<path d="M57.9,52.1c0.2,0.1,0.5,0.2,0.7,0.2c0.1,0,0.2,0,0.2-0.1s-0.1-0.1-0.2-0.1c-0.4,0-0.8-0.2-0.8-0.7s0.5-0.7,0.9-0.7
	c0.3,0,0.6,0.1,0.8,0.2l-0.3,0.4c-0.2-0.1-0.3-0.1-0.5-0.1c-0.1,0-0.2,0-0.2,0.1s0,0.1,0.1,0.1c0.4,0,0.9,0.1,0.9,0.7
	s-0.4,0.7-0.9,0.7c-0.3,0-0.7-0.1-1-0.3L57.9,52.1z"/>
<path d="M61.2,50.9h0.7v2h-0.7v-0.2c-0.2,0.2-0.4,0.3-0.7,0.2c-0.5,0-0.9-0.4-0.9-1c0,0,0,0,0,0c0-0.6,0.4-1,1-1
	c0.2,0,0.4,0.1,0.6,0.2L61.2,50.9z M60.3,51.9c0,0.2,0.1,0.4,0.4,0.4c0,0,0,0,0,0c0.2,0,0.4-0.2,0.4-0.4c0,0,0,0,0,0
	c0-0.2-0.1-0.4-0.3-0.4c0,0,0,0-0.1,0C60.5,51.4,60.3,51.6,60.3,51.9C60.3,51.8,60.3,51.8,60.3,51.9L60.3,51.9z"/>
<path d="M63.5,52.8v-1.1c0-0.2-0.1-0.3-0.3-0.3c-0.2,0-0.3,0.1-0.3,0.3c0,0,0,0,0,0v1h-0.7v-2h0.7V51c0.2-0.2,0.4-0.3,0.6-0.3
	c0.4,0,0.8,0.2,0.8,0.9v1.1L63.5,52.8z"/>
<path d="M65.9,50h0.7v2.8H66v-0.2c-0.2,0.2-0.4,0.3-0.7,0.2c-0.5,0-0.9-0.4-0.9-0.9c0,0,0-0.1,0-0.1c0-0.5,0.4-1,0.9-1
	c0,0,0.1,0,0.1,0c0.2,0,0.4,0.1,0.5,0.2L65.9,50z M65.1,51.9c0,0.2,0.1,0.4,0.3,0.4c0,0,0,0,0,0c0.2,0,0.4-0.2,0.4-0.4c0,0,0,0,0,0
	c0-0.2-0.1-0.4-0.4-0.5c0,0,0,0,0,0C65.3,51.4,65.1,51.6,65.1,51.9C65.1,51.8,65.1,51.8,65.1,51.9z"/>
<path d="M67,52.1c0.2,0.1,0.5,0.2,0.7,0.2c0.1,0,0.2,0,0.2-0.1s-0.1-0.1-0.2-0.1c-0.4,0-0.8-0.2-0.8-0.7s0.4-0.7,0.9-0.7
	c0.3,0,0.6,0.1,0.8,0.2l-0.3,0.4c-0.2-0.1-0.3-0.1-0.5-0.1c-0.1,0-0.2,0-0.2,0.1s0,0.1,0.2,0.1c0.4,0,0.9,0.1,0.9,0.7
	s-0.4,0.7-0.9,0.7c-0.4,0-0.7-0.1-1-0.3L67,52.1z"/>
<path d="M71.7,51.9c-0.1,0.6-0.6,1.1-1.2,1c-0.5-0.1-1-0.5-1-1c0.1-0.6,0.6-1.1,1.2-1C71.2,50.9,71.6,51.3,71.7,51.9z M70.9,51.9
	c0-0.2-0.2-0.4-0.4-0.4s-0.4,0.2-0.4,0.4c0,0.2,0.2,0.4,0.4,0.4C70.8,52.3,71,52.2,70.9,51.9C71,51.9,71,51.9,70.9,51.9L70.9,51.9z"
	/>
<path d="M72,52.8v-1.4h-0.3v-0.6H72v-0.1c0-0.4,0.3-0.8,0.7-0.8c0,0,0.1,0,0.1,0c0.2,0,0.4,0.1,0.6,0.2l-0.2,0.4
	c-0.1-0.1-0.2-0.1-0.3-0.1c-0.1,0-0.2,0.1-0.2,0.2c0,0,0,0,0,0v0.1h0.5v0.6h-0.5v1.4H72z"/>
<path d="M75.5,50h0.7v2.8h-0.7v-0.2c-0.2,0.2-0.4,0.3-0.7,0.2c-0.5,0-0.9-0.4-0.9-0.9c0,0,0-0.1,0-0.1c0-0.5,0.4-1,0.9-1
	c0,0,0.1,0,0.1,0c0.2,0,0.4,0.1,0.5,0.2L75.5,50z M74.7,51.9c0,0.2,0.1,0.4,0.3,0.4c0,0,0,0,0,0c0.2,0,0.4-0.2,0.4-0.4c0,0,0,0,0,0
	c0-0.2-0.1-0.4-0.4-0.5c0,0,0,0,0,0C74.9,51.4,74.7,51.6,74.7,51.9C74.7,51.8,74.7,51.8,74.7,51.9z"/>
<path d="M78.6,51.9c0,0.6-0.4,1-1,1c0,0-0.1,0-0.1,0c-0.5-0.1-0.9-0.6-0.9-1.1s0.6-0.9,1.1-0.9C78.2,50.9,78.6,51.4,78.6,51.9z
	 M77.9,51.9c0-0.2-0.2-0.4-0.4-0.4s-0.4,0.2-0.4,0.4c0,0.2,0.2,0.4,0.4,0.4C77.7,52.3,77.9,52.1,77.9,51.9
	C77.9,51.9,77.9,51.9,77.9,51.9z"/>
<path d="M79.5,50v2.8h-0.7V50H79.5z"/>
<path d="M80.5,50v2.8h-0.7V50H80.5z"/>
<path d="M82.2,50.9h0.7v2h-0.7v-0.2c-0.2,0.2-0.4,0.3-0.7,0.2c-0.5,0-0.9-0.4-0.9-1c0,0,0,0,0,0c0-0.6,0.4-1,1-1
	c0.2,0,0.4,0.1,0.6,0.2L82.2,50.9z M81.4,51.9c0,0.2,0.1,0.4,0.3,0.4c0,0,0,0,0,0c0.2,0,0.4-0.2,0.4-0.4c0,0,0,0,0,0
	c0-0.2-0.2-0.4-0.4-0.4S81.4,51.6,81.4,51.9L81.4,51.9z"/>
<path d="M83.9,50.9v0.2c0.1-0.2,0.3-0.3,0.5-0.3c0.2,0,0.4,0.1,0.5,0.2l-0.3,0.5c-0.1-0.1-0.2-0.1-0.3-0.1c-0.2,0-0.3,0.1-0.3,0.3
	c0,0,0,0,0,0v1h-0.7v-2L83.9,50.9z"/>
<path d="M85,52.1c0.2,0.1,0.5,0.2,0.7,0.2c0.1,0,0.2,0,0.2-0.1s-0.1-0.1-0.2-0.1c-0.4,0-0.8-0.2-0.8-0.7s0.4-0.7,0.9-0.7
	c0.3,0,0.6,0.1,0.8,0.2l-0.3,0.4c-0.2-0.1-0.3-0.1-0.5-0.1c-0.1,0-0.2,0-0.2,0.1s0,0.1,0.2,0.1c0.4,0,0.9,0.1,0.9,0.7
	s-0.4,0.7-0.9,0.7c-0.4,0-0.7-0.1-1-0.3L85,52.1z"/>
<path d="M88.8,52.8v-1.1c0-0.2-0.1-0.3-0.2-0.3s-0.2,0.1-0.3,0.3v1.1h-0.7v-2h0.6V51c0.1-0.2,0.3-0.3,0.6-0.2c0.2,0,0.4,0.1,0.5,0.3
	c0.2-0.2,0.4-0.3,0.7-0.3c0.4,0,0.8,0.3,0.8,0.9v1.1h-0.7v-1.1c0-0.2-0.1-0.3-0.2-0.3s-0.2,0.1-0.2,0.3v1.1H88.8z"/>
<path d="M93.1,51.9c0,0.6-0.5,1.1-1.1,1.1c-0.6,0-1.1-0.5-1.1-1.1s0.5-1.1,1.1-1.1C92.6,50.7,93.1,51.2,93.1,51.9z M92.3,51.9
	c0-0.2-0.2-0.4-0.4-0.4s-0.4,0.2-0.4,0.4c0,0.2,0.2,0.4,0.4,0.4C92.2,52.3,92.3,52.1,92.3,51.9C92.4,51.9,92.4,51.9,92.3,51.9z"/>
<path d="M93.9,50.9v0.2c0.1-0.2,0.3-0.3,0.5-0.3c0.2,0,0.4,0.1,0.5,0.2l-0.3,0.5c-0.1-0.1-0.2-0.1-0.3-0.1c-0.2,0-0.3,0.1-0.3,0.3
	c0,0,0,0,0,0.1v1h-0.7v-2L93.9,50.9z"/>
<path d="M96.9,52.1h-1.4c0.1,0.2,0.3,0.3,0.4,0.3c0.2,0,0.4-0.1,0.5-0.2l0.4,0.4c-0.2,0.2-0.6,0.3-0.9,0.3c-0.6,0-1-0.5-1-1
	s0.5-1,1-1c0.6,0,1,0.4,1,1C96.9,51.9,96.9,52,96.9,52.1z M96.3,51.6c0-0.3-0.7-0.3-0.7,0H96.3z"/>
</svg>
