<svg xmlns="http://www.w3.org/2000/svg" viewBox="0 0 120 120"><rect x="19.16" y="9.94" width="98" height="24.5" style="fill:#f2f2f2"/><rect x="19.16" y="59.31" width="98" height="24.5" style="fill:#f2f2f2"/><path d="M2.77,116.32a.5.5,0,0,0-.43-.19c-.16,0-.42.06-.42.29s.19.22.43.26.55.1.55.4-.32.4-.56.4a.62.62,0,0,1-.57-.31l.09,0a.56.56,0,0,0,.48.26c.17,0,.45,0,.45-.3s-.23-.25-.46-.3-.52-.1-.52-.36.3-.39.53-.39a.54.54,0,0,1,.51.24Z"/><path d="M3,117a.5.5,0,1,1,1,0,.48.48,0,0,1-.5.51A.48.48,0,0,1,3,117Zm.91,0a.41.41,0,1,0-.81,0,.39.39,0,0,0,.4.41A.39.39,0,0,0,3.92,117Z"/><path d="M5,117.45v-.17a.44.44,0,0,1-.8-.25v-.57h.1V117a.3.3,0,0,0,.35.34A.34.34,0,0,0,5,117v-.55h.1v1Z"/><path d="M5.41,116.47v.17a.35.35,0,0,1,.33-.18.31.31,0,0,1,.21.05l0,.08a.33.33,0,0,0-.17,0,.33.33,0,0,0-.33.33v.57H5.32v-1Z"/><path d="M6.8,117.32a.51.51,0,0,1-.36.15.49.49,0,0,1-.51-.51.49.49,0,0,1,.51-.51.51.51,0,0,1,.36.15l-.06.06a.44.44,0,0,0-.3-.12.42.42,0,0,0,0,.84.47.47,0,0,0,.29-.12Z"/><path d="M6.87,117a.49.49,0,0,1,.5-.51.46.46,0,0,1,.49.56H7a.39.39,0,0,0,.4.36.48.48,0,0,0,.36-.15l.07.06a.54.54,0,0,1-.43.19A.49.49,0,0,1,6.87,117Zm.9,0a.36.36,0,0,0-.4-.38.4.4,0,0,0-.4.38Z"/><path d="M8.17,116.79a.08.08,0,1,1-.16,0A.08.08,0,0,1,8.17,116.79Zm0,.6a.08.08,0,1,1-.16,0A.08.08,0,0,1,8.17,117.39Z"/><path d="M9.77,116.32a.47.47,0,0,0-.42-.19c-.17,0-.43.06-.43.29s.2.22.43.26.55.1.55.4-.32.4-.55.4a.63.63,0,0,1-.58-.31l.1,0a.56.56,0,0,0,.48.26c.17,0,.44,0,.44-.3s-.23-.25-.46-.3-.51-.1-.51-.36.3-.39.53-.39a.55.55,0,0,1,.51.24Z"/><path d="M10,117a.5.5,0,1,1,1,0,.5.5,0,1,1-1,0Zm.9,0a.41.41,0,1,0-.81,0,.41.41,0,1,0,.81,0Z"/><path d="M11.31,116.05v1.4h-.1v-1.4Z"/><path d="M12.51,116.47v1h-.1v-.21a.47.47,0,0,1-.41.23.51.51,0,0,1,0-1,.47.47,0,0,1,.41.23v-.21Zm-.91.49a.39.39,0,0,0,.4.41.41.41,0,1,0,0-.82A.39.39,0,0,0,11.6,117Z"/><path d="M12.84,116.47v.17a.41.41,0,0,1,.54-.13l-.05.08a.33.33,0,0,0-.17,0,.32.32,0,0,0-.32.33v.57h-.1v-1Z"/><path d="M14,116.7h.82v.1H14v.55h.88v.1h-1v-1.4h1v.11H14Z"/><path d="M15.18,116.47v.17a.39.39,0,0,1,.35-.19.41.41,0,0,1,.45.43v.57h-.1v-.56a.32.32,0,0,0-.35-.35.35.35,0,0,0-.35.36v.55h-.1v-1Z"/><path d="M16.14,117a.5.5,0,0,1,.5-.51.46.46,0,0,1,.49.56h-.89a.39.39,0,0,0,.4.36.46.46,0,0,0,.36-.15l.07.06a.54.54,0,0,1-.43.19A.49.49,0,0,1,16.14,117Zm.9,0a.36.36,0,0,0-.4-.38.4.4,0,0,0-.4.38Z"/><path d="M17.39,116.47v.17a.35.35,0,0,1,.33-.18.33.33,0,0,1,.21.05l-.05.08a.32.32,0,0,0-.16,0,.33.33,0,0,0-.33.33v.57h-.1v-1Z"/><path d="M18.84,116.42l.06,0-.1.12a.45.45,0,0,1,.14.34.43.43,0,0,1-.32.43c.18,0,.31.14.31.33s-.24.36-.5.36a.44.44,0,0,1-.49-.4H18c0,.21.19.3.39.3s.4-.07.4-.26-.21-.28-.4-.28a.46.46,0,0,1-.51-.48.49.49,0,0,1,.51-.48.56.56,0,0,1,.31.09Zm-.82.51a.37.37,0,0,0,.41.39.39.39,0,0,0,.41-.39.38.38,0,0,0-.41-.39A.39.39,0,0,0,18,116.93Z"/><path d="M19.93,116.47l-.63,1.46h-.1l.21-.49-.4-1h.11l.23.58.11.28.12-.28.24-.58Z"/><path d="M20.51,117.45v-1.4h.11v1.4Z"/><path d="M21,116.47v.17a.39.39,0,0,1,.35-.19.41.41,0,0,1,.44.43v.57h-.09v-.56a.32.32,0,0,0-.36-.35.35.35,0,0,0-.34.36v.55h-.1v-1Z"/><path d="M23,116.05v1.4h-.09v-.21a.47.47,0,0,1-.41.23.51.51,0,0,1,0-1,.44.44,0,0,1,.41.23v-.63Zm-.9.91a.38.38,0,0,0,.4.41.42.42,0,0,0,0-.83A.38.38,0,0,0,22.05,117Z"/><path d="M24,117.45v-.17a.39.39,0,0,1-.35.19.42.42,0,0,1-.45-.44v-.57h.1V117a.31.31,0,0,0,.35.34A.34.34,0,0,0,24,117v-.55h.1v1Z"/><path d="M25,116.65a.4.4,0,0,0-.3-.11c-.16,0-.31.06-.3.18s.17.16.3.18.42.06.41.29-.24.28-.41.28a.51.51,0,0,1-.43-.2l.07-.06a.43.43,0,0,0,.36.17c.12,0,.3,0,.31-.19s-.16-.17-.32-.2-.38-.07-.39-.26.2-.28.4-.28a.5.5,0,0,1,.36.13Z"/><path d="M25.45,116.17v.3h.34v.08h-.34v.6c0,.13,0,.23.19.23a.48.48,0,0,0,.15,0l0,.08a.41.41,0,0,1-.18,0c-.21,0-.28-.13-.28-.32v-.6h-.21v-.08h.21v-.29Z"/><path d="M26,116.47v.17a.35.35,0,0,1,.33-.18.31.31,0,0,1,.21.05l0,.08a.33.33,0,0,0-.17,0,.33.33,0,0,0-.33.33v.57h-.09v-1Z"/><path d="M26.77,116.14a.08.08,0,1,1-.16,0A.08.08,0,0,1,26.77,116.14Zm-.13.32v1h.1v-1Z"/><path d="M26.92,117a.49.49,0,0,1,.5-.51.46.46,0,0,1,.49.56H27a.39.39,0,0,0,.4.36.48.48,0,0,0,.36-.15l.07.06a.54.54,0,0,1-.43.19A.49.49,0,0,1,26.92,117Zm.9,0a.36.36,0,0,0-.4-.38.4.4,0,0,0-.4.38Z"/><path d="M28.73,116.65a.42.42,0,0,0-.31-.11c-.15,0-.3.06-.3.18s.18.16.3.18.42.06.41.29-.23.28-.4.28a.53.53,0,0,1-.44-.2l.08-.06a.43.43,0,0,0,.36.17c.12,0,.3,0,.31-.19s-.16-.17-.33-.2-.38-.07-.38-.26.19-.28.39-.28a.52.52,0,0,1,.37.13Z"/><path d="M30.29,116.39c0-.22-.17-.26-.36-.26s-.39.13-.39.29.23.28.4.28h.59v.08H30.4v.31c0,.15,0,.28.18.28v.08a.21.21,0,0,1-.24-.17.44.44,0,0,1-.41.19c-.34,0-.52-.15-.52-.39a.4.4,0,0,1,.29-.34.34.34,0,0,1-.26-.32c0-.22.17-.37.5-.37s.44,0,.44.34Zm0,.39h-.39c-.27,0-.41.16-.41.3s.13.3.41.3.39-.06.39-.29Z"/><path d="M32.28,117.45l-.15-.34h-.84l-.15.34H31l.62-1.4h.12l.63,1.4Zm-.19-.44-.38-.85-.38.85Z"/><path d="M33.17,116.65a.42.42,0,0,0-.31-.11c-.15,0-.3.06-.29.18s.17.16.29.18.42.06.41.29-.23.28-.4.28a.5.5,0,0,1-.43-.2l.07-.06a.43.43,0,0,0,.36.17c.12,0,.3,0,.31-.19s-.16-.17-.32-.2-.39-.07-.39-.26.19-.28.39-.28a.52.52,0,0,1,.37.13Z"/><path d="M34.09,116.65a.41.41,0,0,0-.31-.11c-.15,0-.3.06-.29.18s.17.16.3.18.41.06.41.29-.24.28-.41.28a.5.5,0,0,1-.43-.2l.07-.06a.43.43,0,0,0,.36.17c.12,0,.3,0,.31-.19s-.16-.17-.32-.2-.38-.07-.39-.26.19-.28.39-.28a.52.52,0,0,1,.37.13Z"/><path d="M34.3,117a.5.5,0,1,1,1,0,.5.5,0,1,1-1,0Zm.9,0a.41.41,0,1,0-.81,0,.41.41,0,1,0,.81,0Z"/><path d="M36.28,117.32a.51.51,0,0,1-.36.15.51.51,0,1,1,0-1,.51.51,0,0,1,.36.15l-.06.06a.42.42,0,0,0-.3-.12.42.42,0,0,0,0,.84.45.45,0,0,0,.29-.12Z"/><path d="M36.57,116.14a.08.08,0,1,1-.16,0A.08.08,0,0,1,36.57,116.14Zm-.13.32v1h.1v-1Z"/><path d="M37.72,116.47v1h-.1v-.21a.44.44,0,0,1-.4.23.51.51,0,0,1,0-1,.45.45,0,0,1,.4.23v-.21Zm-.9.49a.39.39,0,0,0,.4.41.41.41,0,1,0,0-.82A.39.39,0,0,0,36.82,117Z"/><path d="M38.17,116.17v.3h.34v.08h-.34v.6c0,.13,0,.23.19.23a.48.48,0,0,0,.15,0l0,.08a.41.41,0,0,1-.18,0c-.21,0-.28-.13-.28-.32v-.6h-.21v-.08h.21v-.29Z"/><path d="M38.77,116.14a.08.08,0,1,1-.16,0A.08.08,0,0,1,38.77,116.14Zm-.13.32v1h.09v-1Z"/><path d="M38.91,117a.51.51,0,1,1,.5.51A.49.49,0,0,1,38.91,117Zm.91,0a.41.41,0,1,0-.81,0,.41.41,0,1,0,.81,0Z"/><path d="M40.19,116.47v.17a.44.44,0,0,1,.8.24v.57h-.1v-.56a.32.32,0,0,0-.35-.35.35.35,0,0,0-.35.36v.55H40.1v-1Z"/><line x1="19.16" y1="107.94" x2="117.16" y2="107.94" style="fill:none;stroke:#000;stroke-miterlimit:10;stroke-width:0.25px"/><line x1="19.16" y1="107.94" x2="19.16" y2="105.49" style="fill:none;stroke:#000;stroke-miterlimit:10;stroke-width:0.25px"/><line x1="68.16" y1="107.94" x2="68.16" y2="105.49" style="fill:none;stroke:#000;stroke-miterlimit:10;stroke-width:0.25px"/><polyline points="117.16 105.49 117.16 107.94 19.16 107.94" style="fill:none;stroke:#000;stroke-miterlimit:10;stroke-width:0.25px"/><path d="M16.35,108.84a.59.59,0,1,1,1.17,0v.24a.59.59,0,1,1-1.17,0Zm.22.24a.36.36,0,1,0,.72,0v-.24a.36.36,0,1,0-.72,0Z"/><path d="M14,84.07a.41.41,0,0,0-.35-.16c-.16,0-.34.06-.34.22s.17.17.35.2.59.11.59.43a.45.45,0,0,1-.48.42v.2h-.21v-.19a.64.64,0,0,1-.53-.31l.19-.1a.48.48,0,0,0,.43.21c.18,0,.37,0,.37-.23s-.18-.2-.38-.23-.55-.08-.55-.4.24-.38.47-.4v-.18h.21v.18a.47.47,0,0,1,.41.24Z"/><path d="M14.36,85h.25V84l-.24.06v-.19l.46-.15V85h.24v.19h-.71Z"/><path d="M15.16,84.34a.59.59,0,1,1,1.17,0v.24a.59.59,0,1,1-1.17,0Zm.22.24a.37.37,0,1,0,.73,0v-.24a.37.37,0,1,0-.73,0Z"/><path d="M17.61,83.77l-.64.67.7.71h-.28l-.63-.64v.64h-.22v-1.4h.22v.6l.57-.6h.28Z"/><path d="M13.53,59.57a.41.41,0,0,0-.35-.16c-.16,0-.34.06-.34.22s.17.17.35.2.59.11.59.43a.45.45,0,0,1-.48.42v.2h-.21v-.19a.61.61,0,0,1-.52-.31l.18-.1a.48.48,0,0,0,.43.21c.18,0,.37-.05.37-.23s-.18-.2-.38-.23-.55-.08-.55-.4.24-.38.47-.4v-.18h.21v.18a.47.47,0,0,1,.41.24Z"/><path d="M13.9,59.66c0-.32.3-.42.57-.42s.54.11.54.43-.27.42-.56.42c-.13,0-.34,0-.34.22v.14H15v.21H13.89v-.35c0-.32.29-.42.56-.42s.34,0,.34-.22-.15-.23-.32-.23-.35.05-.35.22Z"/><path d="M15.16,59.84a.59.59,0,1,1,1.17,0v.24a.59.59,0,1,1-1.17,0Zm.22.24a.37.37,0,1,0,.73,0v-.24a.37.37,0,1,0-.73,0Z"/><path d="M17.61,59.27l-.64.67.7.71h-.28L16.76,60v.64h-.22v-1.4h.22v.6l.57-.6h.28Z"/><path d="M13.53,35.07a.39.39,0,0,0-.34-.16c-.17,0-.35.06-.35.22s.17.17.35.2.59.11.59.43a.45.45,0,0,1-.48.42v.2h-.21v-.19a.61.61,0,0,1-.52-.31l.19-.1a.45.45,0,0,0,.42.21c.18,0,.37-.05.37-.23s-.18-.2-.38-.23-.55-.08-.55-.4.24-.38.47-.4v-.18h.21v.18a.47.47,0,0,1,.41.24Z"/><path d="M14.23,35.53v-.18h.21c.17,0,.32-.07.32-.2s-.08-.21-.31-.21-.33,0-.33.2H13.9c0-.3.3-.4.55-.4s.53.14.54.41a.29.29,0,0,1-.22.29.32.32,0,0,1,.25.31c0,.31-.29.43-.58.43s-.56-.1-.57-.42h.23c0,.17.21.22.34.22s.34-.08.34-.23-.07-.22-.33-.22Z"/><path d="M15.16,35.34a.59.59,0,1,1,1.17,0v.24a.59.59,0,1,1-1.17,0Zm.22.24a.37.37,0,1,0,.73,0v-.24a.37.37,0,1,0-.73,0Z"/><path d="M17.61,34.77l-.64.67.7.71h-.28l-.63-.64v.64h-.22v-1.4h.22v.6l.57-.6h.28Z"/><path d="M13.56,10.57a.42.42,0,0,0-.35-.16c-.17,0-.35.06-.34.22s.16.17.35.2.59.11.59.43a.45.45,0,0,1-.49.42v.2h-.21v-.19a.62.62,0,0,1-.52-.31l.19-.1a.46.46,0,0,0,.42.21c.18,0,.38-.05.38-.23s-.19-.2-.38-.23-.56-.08-.56-.4.24-.38.47-.4v-.18h.22v.18a.49.49,0,0,1,.41.24Z"/><path d="M14.87,10.26v.91H15v.21h-.17v.28h-.22v-.28h-.78l0-.2.77-.92Zm-.22.91v-.65l-.56.65Z"/><path d="M15.16,10.84a.59.59,0,1,1,1.17,0v.24a.59.59,0,1,1-1.17,0Zm.22.24a.37.37,0,1,0,.73,0v-.24a.37.37,0,1,0-.73,0Z"/><path d="M17.61,10.27l-.64.67.7.71h-.28L16.76,11v.64h-.22v-1.4h.22v.6l.57-.6h.28Z"/><line x1="19.16" y1="107.94" x2="19.16" y2="9.94" style="fill:none;stroke:#000;stroke-miterlimit:10;stroke-width:0.25px"/><line x1="19.16" y1="83.44" x2="21.61" y2="83.44" style="fill:none;stroke:#000;stroke-miterlimit:10;stroke-width:0.25px"/><line x1="19.16" y1="58.94" x2="21.61" y2="58.94" style="fill:none;stroke:#000;stroke-miterlimit:10;stroke-width:0.25px"/><line x1="19.16" y1="34.44" x2="21.61" y2="34.44" style="fill:none;stroke:#000;stroke-miterlimit:10;stroke-width:0.25px"/><polyline points="21.61 9.94 19.16 9.94 19.16 107.94 21.61 107.94" style="fill:none;stroke:#000;stroke-miterlimit:10;stroke-width:0.25px"/><rect x="42.91" y="9.94" width="15.68" height="98" style="fill:#e5593f"/><rect x="75.54" y="58.94" width="15.68" height="49" style="fill:#e5593f"/><path d="M68.55,46.32H66.93l-.29.65h-.29l1.25-2.8h.28L69.14,47h-.3ZM67,46.06h1.4l-.7-1.59Z"/><path d="M71,45l-.83,2h-.3l-.83-2h.3L70,46.67,70.71,45Z"/><path d="M71.35,46.09a.7.7,0,0,0,.74.66.9.9,0,0,0,.67-.28l.18.16a1.09,1.09,0,0,1-.85.37,1,1,0,0,1,0-2,.93.93,0,0,1,1,1.13Zm1.46-.23a.66.66,0,0,0-.72-.66.7.7,0,0,0-.74.66Z"/><path d="M73.63,45l0,.33a.66.66,0,0,1,.63-.36.73.73,0,0,1,.45.14l-.13.22a.65.65,0,0,0-.34-.1.6.6,0,0,0-.61.62V47h-.27V45Z"/><path d="M76.48,45h.25v2h-.24v-.4a.91.91,0,0,1-.79.44,1,1,0,0,1,0-2,.87.87,0,0,1,.78.42ZM75,46a.74.74,0,0,0,.75.77.77.77,0,0,0,0-1.54A.74.74,0,0,0,75,46Z"/><path d="M78.9,44.86l.18.15-.21.25a.88.88,0,0,1,.27.66.82.82,0,0,1-.6.82.67.67,0,0,1,.58.65c0,.5-.49.75-1,.75s-1-.3-1-.81h.27c0,.37.35.55.73.55s.74-.14.74-.49-.37-.5-.74-.5a.94.94,0,0,1-1-1,1,1,0,0,1,1-1,1.12,1.12,0,0,1,.58.16Zm-1.55,1.06a.69.69,0,0,0,.76.72.72.72,0,0,0,.76-.72.7.7,0,0,0-.76-.72A.71.71,0,0,0,77.35,45.92Z"/><path d="M79.63,46.09a.72.72,0,0,0,.75.66.86.86,0,0,0,.66-.28l.18.16a1.07,1.07,0,0,1-.84.37,1,1,0,0,1,0-2,.93.93,0,0,1,1,1.13Zm1.47-.23a.66.66,0,0,0-.73-.66.7.7,0,0,0-.74.66Z"/><path d="M82.55,47.91V45h.26v.42a.88.88,0,0,1,.8-.45,1,1,0,0,1,0,2,.87.87,0,0,1-.78-.44v1.34ZM84.32,46a.7.7,0,0,0-.74-.76.72.72,0,0,0-.74.76.73.73,0,0,0,.74.77A.72.72,0,0,0,84.32,46Z"/><path d="M85.18,45l0,.33a.66.66,0,0,1,.63-.36.68.68,0,0,1,.44.14l-.12.22a.65.65,0,0,0-.34-.1.6.6,0,0,0-.61.62V47h-.27V45Z"/><path d="M86.77,44.37a.19.19,0,0,1-.38,0A.19.19,0,0,1,86.77,44.37Zm-.33.61v2h.27V45Z"/><path d="M88.81,46.7a1,1,0,0,1-.74.3,1,1,0,1,1,0-2,1,1,0,0,1,.71.29l-.18.17a.75.75,0,0,0-.52-.21.74.74,0,0,0-.77.77.73.73,0,0,0,.76.77.82.82,0,0,0,.56-.23Z"/><path d="M89.18,46.09a.71.71,0,0,0,.75.66.89.89,0,0,0,.66-.28l.18.16a1.07,1.07,0,0,1-.84.37,1,1,0,0,1,0-2,.93.93,0,0,1,1,1.13Zm1.46-.23a.66.66,0,0,0-.72-.66.7.7,0,0,0-.74.66Z"/><path d="M94,46a1,1,0,1,1-1-1A1,1,0,0,1,94,46Zm-1.76,0a.75.75,0,1,0,1.49,0A.74.74,0,0,0,93,45.2.73.73,0,0,0,92.24,46Z"/><path d="M94.51,47V45.24h-.39V45h.39v-.16c0-.43.21-.7.63-.7a.68.68,0,0,1,.42.14l-.11.2a.51.51,0,0,0-.3-.1c-.23,0-.37.14-.37.46V45h.63v.23h-.63V47Z"/><path d="M96.74,44.37a.19.19,0,0,1-.38,0A.19.19,0,0,1,96.74,44.37Zm-.33.61v2h.27V45Z"/><path d="M98.7,47V45.86a.59.59,0,0,0-.64-.65.66.66,0,0,0-.65.68V47h-.26V45h.25v.33A.79.79,0,0,1,98.1,45a.82.82,0,0,1,.88.89V47Z"/><path d="M100.7,45.4a.77.77,0,0,0-.58-.2c-.29,0-.54.1-.53.32s.29.28.53.32.82.11.82.59-.41.58-.81.58a1.07,1.07,0,0,1-.88-.39l.17-.18a.91.91,0,0,0,.71.32c.23,0,.54-.07.54-.33s-.25-.31-.57-.36-.78-.14-.78-.55.41-.57.8-.57a1,1,0,0,1,.74.27Z"/><path d="M101.75,44.41V45h.64v.22h-.64v1.12c0,.25.07.41.34.41a.67.67,0,0,0,.29-.08l.08.23a.88.88,0,0,1-.38.09c-.42,0-.59-.24-.59-.65V45.22h-.41V45h.41v-.56Z"/><path d="M104.3,45h.26v2h-.25v-.4a.89.89,0,0,1-.78.44,1,1,0,0,1,0-2,.86.86,0,0,1,.77.42Zm-1.52,1a.74.74,0,0,0,.76.77.77.77,0,0,0,0-1.54A.74.74,0,0,0,102.78,46Z"/><path d="M105.32,44.17V47h-.27v-2.8Z"/><path d="M106.11,44.17V47h-.27v-2.8Z"/><path d="M67.73,49a2,2,0,0,0,0,3l-.31.43a2.23,2.23,0,0,1-1-1.92,2.37,2.37,0,0,1,1-1.92Z"/><path d="M68.67,51v.76h-.79V49h1.36a1,1,0,1,1,0,2Zm0-.67h.57a.32.32,0,0,0,.33-.34.33.33,0,0,0-.33-.35h-.57Z"/><path d="M71.13,49.79l0,.22a.53.53,0,0,1,.48-.27.69.69,0,0,1,.52.22l-.29.53a.45.45,0,0,0-.33-.12.32.32,0,0,0-.34.37v1h-.74v-2Z"/><path d="M74.16,51H72.78c0,.17.28.25.44.25a.86.86,0,0,0,.51-.16l.36.4a1.32,1.32,0,0,1-.9.33,1,1,0,1,1,0-2.07A1,1,0,0,1,74.16,51Zm-.66-.47c0-.32-.67-.33-.71,0Z"/><path d="M74.35,50.32H76v.58h-1.6Z"/><path d="M76.6,48.91a.38.38,0,0,1,.41.37.42.42,0,0,1-.83,0A.39.39,0,0,1,76.6,48.91ZM77,51.77v-2h-.74v2Z"/><path d="M78.58,51.77V50.68c0-.25-.14-.33-.27-.33a.34.34,0,0,0-.34.38v1h-.73v-2h.65l0,.22a.81.81,0,0,1,.62-.27c.42,0,.78.23.78.93v1.1Z"/><path d="M81.39,51.47a1.23,1.23,0,0,1-.81.34,1,1,0,0,1-1.12-1,1,1,0,0,1,1.11-1,1.08,1.08,0,0,1,.77.31l-.39.42a.45.45,0,0,0-.34-.14.41.41,0,0,0-.43.45.39.39,0,0,0,.43.4A.48.48,0,0,0,81,51Z"/><path d="M83.45,51H82.07c.05.17.28.25.44.25a.86.86,0,0,0,.51-.16l.36.4a1.32,1.32,0,0,1-.9.33,1,1,0,0,1-1.15-1,1,1,0,0,1,1.1-1A1,1,0,0,1,83.45,51Zm-.66-.47c0-.32-.67-.33-.72,0Z"/><path d="M85,51.77V50.68c0-.25-.14-.33-.28-.33a.34.34,0,0,0-.34.38v1h-.73v-2h.66l0,.22a.8.8,0,0,1,.62-.27c.42,0,.77.23.77.93v1.1Z"/><path d="M86.87,49.23v.57h.44v.57h-.45V51a.19.19,0,0,0,.2.19.44.44,0,0,0,.22-.07l.16.54a1.11,1.11,0,0,1-.57.13.67.67,0,0,1-.73-.79v-.65h-.32V49.8h.32v-.49Z"/><path d="M87.9,48.91a.38.38,0,0,1,.41.37.41.41,0,0,1-.82,0A.38.38,0,0,1,87.9,48.91Zm.37,2.86v-2h-.74v2Z"/><path d="M89.29,50.34l.21.64.2-.64.21-.55h.78l-.81,2h-.73l-.86-2h.78Z"/><path d="M92.69,51H91.31c0,.17.28.25.44.25a.88.88,0,0,0,.51-.16l.36.4a1.32,1.32,0,0,1-.9.33,1,1,0,1,1-.06-2.07A1,1,0,0,1,92.69,51ZM92,50.52c0-.32-.67-.33-.72,0Z"/><path d="M92.88,48.58a2.37,2.37,0,0,1,1,1.92,2.22,2.22,0,0,1-1,1.92L92.59,52a2,2,0,0,0,0-3Z"/><path d="M47.57,110.79c0-.32.31-.42.57-.42s.55.11.55.43-.28.42-.56.42-.35,0-.35.22v.14h.91v.21H47.57v-.35c0-.32.29-.41.56-.41s.34,0,.34-.23-.16-.23-.33-.23-.34.06-.34.22Z"/><path d="M48.84,111A.59.59,0,1,1,50,111v.24a.59.59,0,1,1-1.17,0Zm.22.24a.36.36,0,1,0,.72,0V111a.36.36,0,1,0-.72,0Z"/><path d="M50.14,111.61h.26v-.94l-.24.06v-.19l.46-.15v1.22h.24v.18h-.72Z"/><path d="M51,111a.59.59,0,1,1,1.17,0v.24a.59.59,0,1,1-1.17,0Zm.22.24a.36.36,0,1,0,.72,0V111a.36.36,0,1,0-.72,0Z"/><path d="M80.57,110.87c0-.32.31-.42.57-.42s.54.11.54.43-.27.42-.55.42-.35,0-.35.22v.14h.9v.21H80.57v-.35c0-.32.29-.41.56-.41s.33,0,.33-.23-.15-.23-.32-.23-.34.06-.34.22Z"/><path d="M81.83,111.05a.59.59,0,1,1,1.18,0v.24a.59.59,0,1,1-1.18,0Zm.23.24a.36.36,0,1,0,.72,0v-.24a.36.36,0,1,0-.72,0Z"/><path d="M83.16,110.87c0-.32.31-.42.57-.42s.54.11.54.43-.27.42-.55.42-.35,0-.35.22v.14h.9v.21H83.16v-.35c0-.32.29-.41.56-.41s.33,0,.33-.23-.15-.23-.32-.23-.34.06-.34.22Z"/><path d="M84.41,111.69h.25v-.94l-.24.06v-.19l.47-.15v1.22h.24v.18h-.72Z"/></svg>