<svg xmlns="http://www.w3.org/2000/svg" viewBox="0 0 400 339.05"><rect x="39.16" y="16.48" width="321.68" height="321.68" style="fill:#fff;fill-opacity:0"/><path d="M229.74,24.66l11.32,34.87h36.69l-11.39,35L296,116.06l-27.52,20c-1.58-2.65-3.16-5.29-4.73-7.95H236.26a38.57,38.57,0,0,0,1.86-12.1,38,38,0,0,0-38-38,38,38,0,0,0-38,38,38.28,38.28,0,0,0,1.86,12.1l-.07.08H136.24L131.51,136,104,116l29.64-21.51L122.28,59.53H159l11.31-34.87L200,46.28Z" style="fill:#fa6d87;fill-rule:evenodd"/><polygon points="239.48 160.66 208.62 160.66 222.87 136.68 253.73 136.68 239.48 160.66" style="fill:#6e84c5;fill-rule:evenodd"/><polygon points="212.92 136.68 198.67 160.66 167.74 160.66 181.99 136.68 212.92 136.68" style="fill:#6e84c5;fill-rule:evenodd"/><polygon points="157.79 160.66 126.93 160.66 141.18 136.68 172.04 136.68 157.79 160.66" style="fill:#6e84c5;fill-rule:evenodd"/><polygon points="107.6 193.23 121.85 169.25 152.71 169.25 138.46 193.23 107.6 193.23" style="fill:#6e84c5;fill-rule:evenodd"/><polygon points="193.59 169.25 179.34 193.23 148.41 193.23 162.66 169.25 193.59 169.25" style="fill:#6e84c5;fill-rule:evenodd"/><polygon points="203.54 169.25 234.4 169.25 220.15 193.23 189.29 193.23 203.54 169.25" style="fill:#6e84c5;fill-rule:evenodd"/><polygon points="184.21 201.83 215.07 201.83 200.82 225.81 169.96 225.81 184.21 201.83" style="fill:#6e84c5;fill-rule:evenodd"/><polygon points="143.33 201.83 174.26 201.83 160.01 225.81 129.12 225.81 143.33 201.83" style="fill:#6e84c5;fill-rule:evenodd"/><polygon points="119.13 225.81 88.27 225.81 102.52 201.83 133.38 201.83 119.13 225.81" style="fill:#6e84c5;fill-rule:evenodd"/><path d="M253.05,234.26l10.27-35.65H261.1l-40.41,50.58H243.6L233.32,284.8h2.22l40.35-50.4.07-.1v0ZM341,301v.1H59l4.69-17.64h41.77v-49H205.58l.11-.1,55.56-93.37v-.17l.07.06,55.55,93.58H293.14l0,.07v48.94h43.17Z" style="fill:#6e84c5;fill-rule:evenodd"/></svg>