<svg xmlns="http://www.w3.org/2000/svg" viewBox="0 0 248.16 298.75"><rect x="173.55" y="38.26" width="17.51" height="19.75" style="fill:#defcfc"/><rect x="67.4" y="129.67" width="146.3" height="112.05" style="fill:#defcfc"/><rect x="82.71" y="144.23" width="17.51" height="19.75" style="fill:#defcfc"/><line x1="56.71" y1="153.92" x2="232.65" y2="153.92" style="fill:none;stroke:#97dbde;stroke-miterlimit:10;stroke-width:4px"/><line x1="200.86" y1="52.74" x2="88.15" y2="52.74" style="fill:none;stroke:#97dbde;stroke-miterlimit:10;stroke-width:4px"/><path d="M60,153.86h172.7a11.5,11.5,0,0,0,10.91-15.14l-26-78.11a11.52,11.52,0,0,0-10.92-7.87H88.15a11.52,11.52,0,0,0-10.82,7.6l-28.2,78.11A11.5,11.5,0,0,0,60,153.86Z" style="fill:#defcfc"/><line x1="71.71" y1="87.36" x2="221.74" y2="87.36" style="fill:none;stroke:#97dbde;stroke-miterlimit:10;stroke-width:4px"/><line x1="62.6" y1="115.71" x2="231.49" y2="116.58" style="fill:none;stroke:#97dbde;stroke-miterlimit:10;stroke-width:4px"/><line x1="125.01" y1="55.5" x2="114.39" y2="151.1" style="fill:none;stroke:#97dbde;stroke-miterlimit:10;stroke-width:4px"/><line x1="170.16" y1="55.5" x2="178.13" y2="151.1" style="fill:none;stroke:#97dbde;stroke-miterlimit:10;stroke-width:4px"/><path d="M136.72,179.51h0a19.6,19.6,0,0,1-8.43,16.1l-1.09.75" style="fill:none;stroke:#000;stroke-linecap:round;stroke-linejoin:round;stroke-width:2px"/><path d="M155.05,179.51h0a19.6,19.6,0,0,0,8.43,16.1l1.09.75" style="fill:none;stroke:#000;stroke-linecap:round;stroke-linejoin:round;stroke-width:2px"/><path d="M224.1,203.63A43.58,43.58,0,0,1,186.46,219a43.49,43.49,0,0,1,46.1-55.17A43.56,43.56,0,0,1,224.1,203.63Z" style="fill:#defcfc"/><line x1="229.1" y1="168.35" x2="188.38" y2="217.07" style="fill:none;stroke:#97dbde;stroke-miterlimit:10;stroke-width:2.39176px"/><line x1="220.65" y1="178.35" x2="218.92" y2="167.71" style="fill:none;stroke:#97dbde;stroke-miterlimit:10;stroke-width:2.39176px"/><line x1="213.7" y1="186.66" x2="211.57" y2="173.55" style="fill:none;stroke:#97dbde;stroke-miterlimit:10;stroke-width:2.39176px"/><line x1="206.76" y1="194.97" x2="203.2" y2="173.05" style="fill:none;stroke:#97dbde;stroke-miterlimit:10;stroke-width:2.39176px"/><line x1="199.82" y1="203.28" x2="196.35" y2="181.95" style="fill:none;stroke:#97dbde;stroke-miterlimit:10;stroke-width:2.39176px"/><line x1="192.87" y1="211.58" x2="190.94" y2="199.71" style="fill:none;stroke:#97dbde;stroke-miterlimit:10;stroke-width:2.39176px"/><line x1="221.63" y1="177.47" x2="232.4" y2="177.28" style="fill:none;stroke:#97dbde;stroke-miterlimit:10;stroke-width:2.39176px"/><line x1="214.69" y1="185.78" x2="231.49" y2="185.48" style="fill:none;stroke:#97dbde;stroke-miterlimit:10;stroke-width:2.39176px"/><line x1="207.74" y1="194.09" x2="228.77" y2="193.72" style="fill:none;stroke:#97dbde;stroke-miterlimit:10;stroke-width:2.39176px"/><line x1="200.8" y1="202.39" x2="222.4" y2="202.02" style="fill:none;stroke:#97dbde;stroke-miterlimit:10;stroke-width:2.39176px"/><line x1="193.85" y1="210.7" x2="212.41" y2="210.38" style="fill:none;stroke:#97dbde;stroke-miterlimit:10;stroke-width:2.39176px"/><path d="M194.4,175.27s1.83-3.6,3.82-4.92a6.6,6.6,0,0,1,5.64-.58,6.25,6.25,0,0,1-.46,2.75,6.46,6.46,0,0,1-3.1,3.16c-1.69.7-2.26.85-3.21.66S194.86,175.16,194.4,175.27Z" style="fill:#73bbbf"/><path d="M195.24,171.08A17.07,17.07,0,0,0,196,166a9.23,9.23,0,0,0-1.91-4.4,17.27,17.27,0,0,1-.33,1.8c-.24.91-1.62,3.32-1.23,5C192.8,169.39,193.08,170.31,195.24,171.08Z" style="fill:#73bbbf"/><path d="M193.46,180.75a13.41,13.41,0,0,1,3.15-2.69,7.22,7.22,0,0,1,7.06,0,4.79,4.79,0,0,0-1.31.94c-.51.56-1.93,2.63-4,3.28a3.88,3.88,0,0,1-2.65.05C194.9,182.11,193.82,180.74,193.46,180.75Z" style="fill:#73bbbf"/><path d="M193.25,176.43a1.48,1.48,0,0,1-.53-.77c-.26-1.1-.09-1.73-.63-2.44a7.45,7.45,0,0,0-1.79-1.45s-.75,2.15,0,3.21A3,3,0,0,0,193.25,176.43Z" style="fill:#73bbbf"/><path d="M198.88,165.54a3.73,3.73,0,0,1,1.18-2.69c1.3-1.4,2.07-1.47,2.21-1.41s.14.5-.24,1.5a3.78,3.78,0,0,1-1.52,2.09A2.5,2.5,0,0,1,198.88,165.54Z" style="fill:#73bbbf"/><path d="M192.41,184.54a38.84,38.84,0,0,0,.28,5.25,2.57,2.57,0,0,1,.4-.07,36.3,36.3,0,0,1-.27-5.17,31.47,31.47,0,0,1,6.6-19.16l-.31-.25A31.8,31.8,0,0,0,192.41,184.54Z" style="fill:#73bbbf"/><path d="M86.56,187.83A54.68,54.68,0,0,1,106.09,235a54.56,54.56,0,0,1-69.48-57.51A54.7,54.7,0,0,1,86.56,187.83Z" style="fill:#fff"/><line x1="42.27" y1="181.76" x2="103.63" y2="232.55" style="fill:none;stroke:#97dbde;stroke-miterlimit:10;stroke-width:3px"/><line x1="54.87" y1="192.31" x2="41.53" y2="194.54" style="fill:none;stroke:#97dbde;stroke-miterlimit:10;stroke-width:3px"/><line x1="65.33" y1="200.97" x2="48.9" y2="203.72" style="fill:none;stroke:#97dbde;stroke-miterlimit:10;stroke-width:3px"/><line x1="75.79" y1="209.63" x2="48.32" y2="214.22" style="fill:none;stroke:#97dbde;stroke-miterlimit:10;stroke-width:3px"/><line x1="86.25" y1="218.29" x2="59.53" y2="222.76" style="fill:none;stroke:#97dbde;stroke-miterlimit:10;stroke-width:3px"/><line x1="96.72" y1="226.95" x2="81.83" y2="229.44" style="fill:none;stroke:#97dbde;stroke-miterlimit:10;stroke-width:3px"/><line x1="53.76" y1="191.08" x2="53.46" y2="177.57" style="fill:none;stroke:#97dbde;stroke-miterlimit:10;stroke-width:3px"/><line x1="64.22" y1="199.74" x2="63.75" y2="178.67" style="fill:none;stroke:#97dbde;stroke-miterlimit:10;stroke-width:3px"/><line x1="74.68" y1="208.4" x2="74.1" y2="182.02" style="fill:none;stroke:#97dbde;stroke-miterlimit:10;stroke-width:3px"/><line x1="85.14" y1="217.06" x2="84.54" y2="189.97" style="fill:none;stroke:#97dbde;stroke-miterlimit:10;stroke-width:3px"/><line x1="95.61" y1="225.72" x2="95.09" y2="202.45" style="fill:none;stroke:#97dbde;stroke-miterlimit:10;stroke-width:3px"/><path d="M210.59,247.58a54.69,54.69,0,0,1-50.92-3,54.55,54.55,0,0,1,82.09-37.34A54.68,54.68,0,0,1,210.59,247.58Z" style="fill:#fff"/><line x1="235.41" y1="210.4" x2="162.9" y2="243.38" style="fill:none;stroke:#97dbde;stroke-miterlimit:10;stroke-width:3px"/><line x1="220.41" y1="217.12" x2="224.24" y2="204.15" style="fill:none;stroke:#97dbde;stroke-miterlimit:10;stroke-width:3px"/><line x1="208.05" y1="222.74" x2="212.76" y2="206.76" style="fill:none;stroke:#97dbde;stroke-miterlimit:10;stroke-width:3px"/><line x1="195.69" y1="228.36" x2="203.57" y2="201.65" style="fill:none;stroke:#97dbde;stroke-miterlimit:10;stroke-width:3px"/><line x1="183.32" y1="233.99" x2="190.99" y2="208" style="fill:none;stroke:#97dbde;stroke-miterlimit:10;stroke-width:3px"/><line x1="170.96" y1="239.61" x2="175.23" y2="225.14" style="fill:none;stroke:#97dbde;stroke-miterlimit:10;stroke-width:3px"/><line x1="222" y1="216.65" x2="234.29" y2="222.29" style="fill:none;stroke:#97dbde;stroke-miterlimit:10;stroke-width:3px"/><line x1="209.64" y1="222.28" x2="228.8" y2="231.07" style="fill:none;stroke:#97dbde;stroke-miterlimit:10;stroke-width:3px"/><line x1="197.28" y1="227.9" x2="221.26" y2="238.9" style="fill:none;stroke:#97dbde;stroke-miterlimit:10;stroke-width:3px"/><line x1="184.92" y1="233.52" x2="209.54" y2="244.83" style="fill:none;stroke:#97dbde;stroke-miterlimit:10;stroke-width:3px"/><line x1="172.55" y1="239.15" x2="193.71" y2="248.86" style="fill:none;stroke:#97dbde;stroke-miterlimit:10;stroke-width:3px"/><path d="M93.42,171.42a43.57,43.57,0,0,1,6.2,40.19,43.49,43.49,0,0,1-42.91-57.69A43.63,43.63,0,0,1,93.42,171.42Z" style="fill:#defcfc"/><line x1="60.27" y1="158.34" x2="98.17" y2="209.29" style="fill:none;stroke:#97dbde;stroke-miterlimit:10;stroke-width:2.39176px"/><line x1="68.03" y1="168.89" x2="57.28" y2="168.09" style="fill:none;stroke:#97dbde;stroke-miterlimit:10;stroke-width:2.39176px"/><line x1="74.49" y1="177.58" x2="61.24" y2="176.6" style="fill:none;stroke:#97dbde;stroke-miterlimit:10;stroke-width:2.39176px"/><line x1="80.95" y1="186.27" x2="58.81" y2="184.62" style="fill:none;stroke:#97dbde;stroke-miterlimit:10;stroke-width:2.39176px"/><line x1="87.42" y1="194.96" x2="65.87" y2="193.36" style="fill:none;stroke:#97dbde;stroke-miterlimit:10;stroke-width:2.39176px"/><line x1="93.88" y1="203.64" x2="81.88" y2="202.75" style="fill:none;stroke:#97dbde;stroke-miterlimit:10;stroke-width:2.39176px"/><line x1="67.4" y1="167.73" x2="69.73" y2="157.21" style="fill:none;stroke:#97dbde;stroke-miterlimit:10;stroke-width:2.39176px"/><line x1="73.86" y1="176.42" x2="77.49" y2="160.01" style="fill:none;stroke:#97dbde;stroke-miterlimit:10;stroke-width:2.39176px"/><line x1="80.33" y1="185.11" x2="84.87" y2="164.57" style="fill:none;stroke:#97dbde;stroke-miterlimit:10;stroke-width:2.39176px"/><line x1="86.79" y1="193.79" x2="91.45" y2="172.7" style="fill:none;stroke:#97dbde;stroke-miterlimit:10;stroke-width:2.39176px"/><line x1="93.25" y1="202.48" x2="97.26" y2="184.36" style="fill:none;stroke:#97dbde;stroke-miterlimit:10;stroke-width:2.39176px"/><path d="M87.48,198.41a101.07,101.07,0,0,0,3-50.75,81.3,81.3,0,0,0-6.75-20.55l-.7.37a80.29,80.29,0,0,1,6.68,20.37,100.27,100.27,0,0,1-3,50.32Z" style="fill:#97dbde"/><path d="M84,128.21a8.5,8.5,0,0,0-1-4.74c-.47-.79-1.87-1.81-2.6-1.37s-.74,1.79-.06,2.94A8.58,8.58,0,0,0,84,128.21Z" style="fill:#97dbde"/><path d="M85.58,132.3a8,8,0,0,0-3.22-3c-.75-.35-2.31-.43-2.62.24s.39,1.66,1.49,2.17A8,8,0,0,0,85.58,132.3Z" style="fill:#97dbde"/><path d="M87.66,139.48a6.06,6.06,0,0,0-3-2.3c-.68-.19-2,.08-2.24.82s.49,1.59,1.48,1.87A6.08,6.08,0,0,0,87.66,139.48Z" style="fill:#97dbde"/><path d="M85.24,132.14a6,6,0,0,0,3.24-1.94c.42-.56.67-1.9.06-2.37a1.74,1.74,0,0,0-2.26.68A6,6,0,0,0,85.24,132.14Z" style="fill:#97dbde"/><path d="M91.52,178.48a7.09,7.09,0,0,0,4-.71c.67-.37,1.55-1.51,1.21-2.14s-1.48-.66-2.46-.13A7.12,7.12,0,0,0,91.52,178.48Z" style="fill:#97dbde"/><path d="M88.1,139.33a8,8,0,0,0,3.76-2.54c.52-.68.9-2.25.27-2.73s-1.81,0-2.57,1A8,8,0,0,0,88.1,139.33Z" style="fill:#97dbde"/><path d="M90.26,147a6,6,0,0,0,3.63-1.94c.46-.6.64-2.09-.11-2.66a1.93,1.93,0,0,0-2.6.59A6,6,0,0,0,90.26,147Z" style="fill:#97dbde"/><path d="M89.65,147a6.39,6.39,0,0,0-2.82-3.08c-.7-.33-2.21-.23-2.58.57a1.93,1.93,0,0,0,1.23,2.35A6.43,6.43,0,0,0,89.65,147Z" style="fill:#97dbde"/><path d="M91.26,178.77A6.46,6.46,0,0,0,89.83,175c-.52-.65-2-1.51-2.63-1.21s-.53,1.37.23,2.31A10.31,10.31,0,0,0,91.26,178.77Z" style="fill:#97dbde"/><path d="M92,162.32a5.46,5.46,0,0,0-2.91-1.7c-.72-.17-2.24-.09-2.6.37s.26,1.07,1.29,1.31A11.18,11.18,0,0,0,92,162.32Z" style="fill:#97dbde"/><path d="M91.6,155.11A4.63,4.63,0,0,0,94,153.17c.35-.56.68-1.89.35-2.35s-1.06-.13-1.57.68A9.16,9.16,0,0,0,91.6,155.11Z" style="fill:#97dbde"/><path d="M91.75,171a8.94,8.94,0,0,0-1.16-4c-.38-.55-1.38-.93-1.8-.23a2.86,2.86,0,0,0,.29,2.76A3.41,3.41,0,0,0,91.75,171Z" style="fill:#97dbde"/><path d="M91.81,162.62a12,12,0,0,0,4.71-2c.67-.54,1.2-1.78.43-2.16a3.54,3.54,0,0,0-3.2.76A5.12,5.12,0,0,0,91.81,162.62Z" style="fill:#97dbde"/><path d="M92.06,171.32a10.51,10.51,0,0,0,4.34-1.88c.58-.51.95-1.68.17-2a3.25,3.25,0,0,0-3,.73A4.21,4.21,0,0,0,92.06,171.32Z" style="fill:#97dbde"/><path d="M62.31,139.82a7.12,7.12,0,0,0,4-.71c.67-.37,1.55-1.51,1.21-2.14s-1.48-.66-2.46-.13A7.18,7.18,0,0,0,62.31,139.82Z" style="fill:#97dbde"/><path d="M90.27,186a5.36,5.36,0,0,0-1.62-3c-.53-.51-1.88-1.22-2.44-1s-.34,1.05.42,1.79A11.13,11.13,0,0,0,90.27,186Z" style="fill:#97dbde"/><path d="M82.34,154.79a9.21,9.21,0,0,0-2.45-3.19c-.55-.39-1.59-.51-1.72.17a2.75,2.75,0,0,0,1.23,2.31A3.82,3.82,0,0,0,82.34,154.79Z" style="fill:#97dbde"/><path d="M91.4,155.62a8.17,8.17,0,0,0-2.86-3.16c-.75-.49-2.44-1-2.93-.62s.06,1.33,1.15,2A13.11,13.11,0,0,0,91.4,155.62Z" style="fill:#97dbde"/><path d="M68.37,209.29c-.61.41-6.32,2.58-7,6.93-.53,3.45-2.21,2.85-3.38,1.83s-1.84-2.51-3.23-1.13c-4.58,4.55-11,5.06-9.46,1,.83-2.22-2-2.89-3.18-1.77-2.52,2.39-5.3,2.85-5.16.27s-.76-4-2.17-3.34-3.2,3-4.74.5c-.61-1,.47-3.72,2.67-4.69,1.25-.56,5.57-1.2,2.88-3.41s-.12-3.51,1.75-2.88c.7.24,7.32,1.92,6.26-.07-1.24-2.35.71-3.59,3.67-1.9,1.34.76,3.75,3.3,4.31,2.1s3.58-3.63,4.77-1.58C59.74,206.9,67.1,210.14,68.37,209.29Z" style="fill:#97dbde"/><path d="M31.27,211.8a40.05,40.05,0,0,1,19.51-3.91c11.5.64,15.85,3.32,22.28-.29" style="fill:none;stroke:#fff;stroke-miterlimit:10;stroke-width:3.0447100000000002px"/><path d="M39.35,214.37s2-5,5.44-6.53" style="fill:none;stroke:#fff;stroke-miterlimit:10;stroke-width:3.0447100000000002px"/><path d="M36.74,204a19.19,19.19,0,0,0,8.93,3.82" style="fill:none;stroke:#fff;stroke-miterlimit:10;stroke-width:3.0447100000000002px"/><path d="M47.66,217.92s2.17-1.34,7.31-9.56" style="fill:none;stroke:#fff;stroke-miterlimit:10;stroke-width:3.0447100000000002px"/><path d="M44.62,200.91s5.31,6.13,7,7.06" style="fill:none;stroke:#fff;stroke-miterlimit:10;stroke-width:3.0447100000000002px"/><path d="M53.88,202.16s3.74,5.5,7.72,6.86" style="fill:none;stroke:#fff;stroke-miterlimit:10;stroke-width:3.0447100000000002px"/><path d="M186.05,142.88a8.07,8.07,0,0,0,2.33-4.37c.12-.92-.44-2.61-1.4-2.73s-1.88.94-2,2.28A8,8,0,0,0,186.05,142.88Z" style="fill:#fff"/><path d="M185.19,147.07a6.89,6.89,0,0,0-1.43-4c-.52-.6-1.95-1.2-2.6-.64s-.51,1.79.25,2.67A6.9,6.9,0,0,0,185.19,147.07Z" style="fill:#fff"/><path d="M185.16,152.06a6.87,6.87,0,0,0-3-3.11c-.73-.34-2.27-.3-2.64.48s.26,1.83,1.31,2.33A6.92,6.92,0,0,0,185.16,152.06Z" style="fill:#fff"/><path d="M185.24,147.2a7.77,7.77,0,0,0,4.13-.79c.7-.38,1.65-1.54,1.31-2.15s-1.5-.64-2.52-.08A7.76,7.76,0,0,0,185.24,147.2Z" style="fill:#fff"/><path d="M184.84,152.05a7.46,7.46,0,0,0,4.16-.72c.7-.38,1.63-1.57,1.28-2.22s-1.54-.7-2.56-.14A7.39,7.39,0,0,0,184.84,152.05Z" style="fill:#fff"/><path d="M185.51,158.73a5,5,0,0,0,3.32-.27c.54-.29,1.18-1.32.83-2a1.55,1.55,0,0,0-2.1-.39A4.93,4.93,0,0,0,185.51,158.73Z" style="fill:#fff"/><path d="M185.24,158.73a6,6,0,0,0-2.08-2.73c-.54-.36-1.75-.57-2.09-.06s.06,1.39.85,1.91A5.94,5.94,0,0,0,185.24,158.73Z" style="fill:#fff"/><path d="M181.37,185.7h0l.08-.39a2.6,2.6,0,0,0,2.16-.87c1.24-1.18,2.09-3.38,2.51-6.52.58-4.3.34-10.28-.72-17.76-1.22-8.69-.28-13.38.34-16.48.16-.8.3-1.48.36-2.07l.4,0a20.62,20.62,0,0,1-.37,2.11c-.61,3.07-1.55,7.72-.33,16.34,2.35,16.65.25,22.59-1.93,24.64A3.07,3.07,0,0,1,181.37,185.7Z" style="fill:#fff"/><path d="M195.52,187.55A17.66,17.66,0,1,1,176.31,172,17.48,17.48,0,0,1,195.52,187.55Z" style="fill:#163f59"/><path d="M181,171.4A16.35,16.35,0,1,1,163.26,157,16.17,16.17,0,0,1,181,171.4Z" style="fill:#163f59"/><path d="M174.44,157.73c.79,8.4-4.94,15.8-12.8,16.55s-14.89-5.46-15.68-13.86,4.94-15.8,12.8-16.54S173.64,149.34,174.44,157.73Z" style="fill:#163f59"/><path d="M173,178a19.87,19.87,0,1,1-21.61-17.49A19.67,19.67,0,0,1,173,178Z" style="fill:#163f59"/><path d="M164.69,149.54a5.93,5.93,0,0,0-.72-.1c-.23,2.84-2.14,6.36-5.34,9.28a20.61,20.61,0,0,1-2.39,1.89l.24,2.62a7.39,7.39,0,0,0,14.7-1.39l-.56-5.91A15.78,15.78,0,0,1,164.69,149.54Z" style="fill:#c69c6d"/><path d="M174.78,180.45a2.76,2.76,0,0,1,4.16-1.82c2.75,1.27,4.42,4,4.2,11.15a74,74,0,0,0,1.56,16.93c.78,4-4.88,11.2-7.31,6.3s-3.06-16.67-3-19.88S174.6,181.17,174.78,180.45Z" style="fill:#c69c6d"/><path d="M150.71,167s4.25,24.68.18,39.52c-2.88,10.5-6.13,3-9.21,1.65a58.64,58.64,0,0,0,.71-6.3,156.48,156.48,0,0,0,.7-20.44c-.5-7.32-.12-11.86,1.49-13.46S147.5,165.47,150.71,167Z" style="fill:#c69c6d"/><path d="M143.21,205.36s-.09-2-3.71,9-6.94,30-10.06,33.49-3.92,1.15-3.47,1.68c1.59,1.89,2.16,3.64,4,3.42s6.53-7.23,11.76-19.64,8.52-20.9,8.11-24.88S143.66,204.41,143.21,205.36Z" style="fill:#c69c6d"/><path d="M169.24,178s-9.35-4-10.62-4.92,3.58.29.16-8.08a91.4,91.4,0,0,1,8.44-3.86c.68-.07,1.2,1.76,1.2,1.76A25.33,25.33,0,0,0,169.24,178Z" style="fill:#c69c6d"/><path d="M134.36,248s-2.21,4.38-3.35,4.66-4-.34-5.83-1.1-3.06-1.74-4-1.94-6.63,1.1-8.23,1a6.61,6.61,0,0,1-3-.49c-.87-.41-.49-1-.49-1s.79,0,3.24-.3a42.77,42.77,0,0,0,9.62-2.91c2.22-1,2.39-1.12,3.58-.52a34.82,34.82,0,0,0,5,1.81A19.3,19.3,0,0,0,134.36,248Z" style="fill:#c69c6d"/><path d="M132.32,251.26s-.95,2.11-4.28,3a7.62,7.62,0,0,1-4.06.33,8.37,8.37,0,0,1-1.62-.3s-.12-1.08,1.41-1.12c.85,0,2.54-.94,1.85-1.49S132.32,251.26,132.32,251.26Z" style="fill:#c69c6d"/><path d="M172.19,232.58s3.22-9.11,3.78-14.38.72-14.63.87-15,3.78-2.4,3.74-4.87-2.69-9.24-3.14-11.25.12-8.88.12-8.88a23.67,23.67,0,0,1-12.3-2.13c-6.54-3-14.55-9.11-14.55-9.11s-4.58.12-2.84,20.88,2.69,22.07,2.36,28.1c-.49,8.85-6.71,18.33-7.82,25.77S170.25,235.14,172.19,232.58Z" style="fill:#73507a"/><path d="M167.74,231.1c10-3.09,16.24-2.23,39.09,2.13,5.23,1,15.9,2.62,21,6.06,4.55,3.1,5.31,10.27-19,13-22.22,2.5-50.61,2.2-57.39-4.27S158,234.12,167.74,231.1Z" style="fill:#3492a8"/><path d="M170.52,258.62s-1,.53-1.49.12a3.22,3.22,0,0,0-4-1.07c-2.31,1-3,2.46-5.13,2.42s-7.18-1.34-8.75-.24-4.28,5.45-3.93,8.69,1.3,3.69,2.4,2.3a8.16,8.16,0,0,1,2.54-2.38c.51-.21,6.21-1.83,8.13-2.66a49.11,49.11,0,0,1,5.34-1.91c.76-.18,4.86-.58,5.23-.55S170.52,258.62,170.52,258.62Z" style="fill:#c69c6d"/><path d="M151.16,259.85c1.57-1.1,6.65.18,8.75.24s2.82-1.38,5.13-2.42a3,3,0,0,1,4,1,1.75,1.75,0,0,0-.66-.2c-1.22,0-4,1.94-6,2.58-2.15.7-6,1.08-7.77,2.07-1.11.63-1.83,3.08-2.12,5.2l-.29.1a8.16,8.16,0,0,0-2.54,2.38c-1.1,1.39-2,.94-2.4-2.3S149.58,261,151.16,259.85Z" style="fill:#73507a"/><path d="M169.59,263.85s35.83-4.16,44-6.6,20.78-3.46,18.29-12.35c-2.27-8.06-11-9.7-22.92-5.82s-12.11,4.19-21.13,8.75a125.84,125.84,0,0,0-18.33,11.08Z" style="fill:#35a5c1"/><path d="M214.58,258.82a1.51,1.51,0,0,1,.09,1.85c-.69.93-2,1.57-1.83,2.82s.36,1.51,1.63,2.6,3.5,2.51,4.61,5.45,2.73,5.78,6,6.54,5.87.73,7.53.13.86-1.53-.2-2.11a11.86,11.86,0,0,1-4.68-4.59c-1.39-2.58-2.94-4.81-3.88-6.86s-2.12-4.26-3.06-6.31S214.69,257.47,214.58,258.82Z" style="fill:#c69c6d"/><path d="M218.47,266.24c2,2.42,3,5,6,6.55,1.57.8,3.68,1,4.54.57a12.65,12.65,0,0,0,3.4,2.74c1.06.58,1.85,1.51.2,2.11s-4.25.64-7.53-.13-4.88-3.61-6-6.54-3.34-4.36-4.61-5.45-1.49-1.36-1.63-2.6c-.12-1,.74-1.65,1.43-2.36C214.94,262.39,216.56,263.93,218.47,266.24Z" style="fill:#73507a"/><path d="M143.9,235.67s14.59-18,25.64-23.31,39.63-25.36,17.3,11.81c-11.53,19.16-19.35,30.74-28.6,32.2S132.73,254.25,143.9,235.67Z" style="fill:#3bb6d5"/><path d="M223.58,260.55s-13.77-33.49-17.84-41-11-22.39-15.05-15.07-7.23,12.73-1,23.62S196,239,204.3,248.83s11.12,11.78,11.12,11.78Z" style="fill:#3bb6d5"/><path d="M123.13,148.28s-6.95-.15-8.83-3,4.36-1.33,1.31.26-9.06-2.49-7-5.49,4.86-4.08,7.25-2,.16,3-.62,1.05,3.62-5.93,6.26.73.79,7,.11,2.66,2.24-6.65,3.69-1.53-1.84,7.22-2.36,4.94,6.41-6.22,6.45-2-.09,9.3-3.28,9,5.42-10.47,7.37-1.18-3.62,5.93-3.63,3.89,10.53,2.88,1.73,4.92-5.24-1.22-5.73-3.34,6.79,4.11,2.06,8-8.71,2.64-7.37-1.82,5.89-1.57,3.94,2.05.19,6.11,1.06,6.6-6.21,2.56-7.13-1.23S117.58,149,123.13,148.28Z" style="fill:#163f59"/><path d="M113.14,143.89l-4.46,4.64-.16,1.92-3.89,4.24,1.23,2.8-1.57,8s-1.05,4.27,3.18,3.12l4.22-1.14s2.27,11.15-.3,12.81-4.47,3.68-3.63,5,5.57.62,5.57.62,5.78-1.23,7.73-1.4c1.32-.11,6.09,0,5.26-.69s-2.13-3.84-2.72-6.53c-1.14-5.17-2.56-12.39-2.56-12.39a2.38,2.38,0,0,0,1.74,0c1-.32,5.93-3.31,4.64-5.46s-4.67-1.62-6,.16-3.06-.46-2.14-4.54,9.44-5.62.16-7.9C113.25,145.6,113.14,143.89,113.14,143.89Z" style="fill:#e9d6b8"/><path d="M89.53,182.85s-19.72,7.32-22.14,9.72-.9,10.85,1.79,10.6c4.54-.41,23.41-7,23.32-7.76C92,190.66,91.65,182.62,89.53,182.85Z" style="fill:#e2c59c"/><path d="M132.49,275.73c-2.31-2.36-.61-6.55-.61-6.55l.66-10.68,4.69-1.08,3.26,17.65S134.8,278.09,132.49,275.73Z" style="fill:#e9d6b8"/><path d="M132.08,269a8.41,8.41,0,0,0-1.38,1.71c-1.07,1.5-1.12,2.47-.86,3.27,1,3.11,2.69,4.7,5.79,11.74s5.29,8.27,9.4,8.11,5.06-3.6,3.2-6.79c-2.7-4.61-4.89-6.7-6.12-9.23s-.86-3.16-1-5.15-5.74.24-6,2.25C134.93,276.72,130.91,271.22,132.08,269Z" style="fill:#3d7aa8"/><path d="M130.24,272.27c1,3.1,2.69,4.7,5.79,11.73s5.29,8.27,9.4,8.11a4,4,0,0,0,3.7-2c0,2-1.32,3.62-4.1,3.73-4.11.16-6.3-1.08-9.4-8.11s-4.76-8.63-5.79-11.74a2.9,2.9,0,0,1,.28-2.32A2.85,2.85,0,0,0,130.24,272.27Z" style="fill:#194866"/><path d="M132,269.1l.07-.07-.05.12A.08.08,0,0,1,132,269.1Z" style="fill:#194866"/><path d="M139.13,284c.06.25.56.17,1.13-.14a18.62,18.62,0,0,1,3.69-1.49c.65-.18,1.11-.51,1-.77s-.71-.35-1.34-.16a17.92,17.92,0,0,0-3.63,1.51C139.44,283.24,139.07,283.74,139.13,284Z" style="fill:#194866"/><path d="M138.14,281.82c.11.25.61.18,1.14-.1a16.57,16.57,0,0,1,3.5-1.38c.62-.16,1-.46.9-.72s-.75-.35-1.35-.18a17.19,17.19,0,0,0-3.44,1.39C138.36,281.12,138.05,281.58,138.14,281.82Z" style="fill:#194866"/><path d="M136.84,279.74c.12.24.66.19,1.23-.09a19.27,19.27,0,0,1,3.68-1.3c.65-.16,1.08-.45.92-.7s-.81-.35-1.45-.2a18.43,18.43,0,0,0-3.63,1.33C137,279.06,136.72,279.51,136.84,279.74Z" style="fill:#194866"/><polygon points="28.81 270.3 40.21 256.73 34.14 251.95 21.86 268.21 28.81 270.3" style="fill:#e9d6b8"/><path d="M7,273.75c-.68.79-.57,2.87-.57,2.87s11.32,2.86,15.14,2.5a18.81,18.81,0,0,0,4.38-1.36c.28-.11.86-.93,1.13-1,.5-.21.67.28,1.11.08a13.64,13.64,0,0,0,1.92-1c1.74-5.14.69-7.45.69-7.45s-4.83,2-4.1.78c1.56-2.59-3.94-4.44-5-3C17.65,271.75,9,271.46,7,273.75Z" style="fill:#3d7aa8"/><path d="M6.5,274.83c3.49.94,10.81,2.88,12.22,2.82,5.76-.25,9.52-2.73,12.05-4.23a21.13,21.13,0,0,1-.67,2.42,13.64,13.64,0,0,1-1.92,1c-.44.2-.61-.29-1.11-.08-.27.11-.85.93-1.13,1a18.81,18.81,0,0,1-4.38,1.36c-3.82.36-15.14-2.5-15.14-2.5A7.1,7.1,0,0,1,6.5,274.83Z" style="fill:#194866"/><path d="M13.82,270.79c-.09.2.37.38,1,.43a21,21,0,0,1,3.79.7c.62.17,1.17.17,1.23-.05s-.4-.56-1-.73a20.34,20.34,0,0,0-3.75-.66C14.45,270.43,13.89,270.59,13.82,270.79Z" style="fill:#194866"/><path d="M16.15,269.65c-.07.21.38.43,1,.54a20.67,20.67,0,0,1,3.7,1c.6.22,1.13.25,1.19,0s-.4-.61-1-.83a20.19,20.19,0,0,0-3.67-.94C16.77,269.33,16.22,269.45,16.15,269.65Z" style="fill:#194866"/><path d="M18.41,268.63c-.06.21.38.48,1,.63a20.65,20.65,0,0,1,3.6,1.28c.59.26,1.1.32,1.14.09s-.38-.67-1-.93a20.91,20.91,0,0,0-3.57-1.22C19,268.33,18.47,268.42,18.41,268.63Z" style="fill:#194866"/><path d="M142.43,180.91s7.75,1.9,10.74,3.34c3.45,1.67,5.43,1,7.37,3.55s3.26,6.92.71,8.86-21.34-2.73-25.15-5.92S139.81,180.69,142.43,180.91Z" style="fill:#e2c59c"/><path d="M118.51,183.3s4.44-4.43,5.51-5.78,8.43-.49,15.67,1.78,10.49,3.45,11.19,3.74-5.8.54-8.55,7.74-3.39,8.34-3.39,8.34L134.06,198s-2.84,28.51-4.5,34.12-28.29,3.17-33.71,2-3.3-33.25-1.7-38.15l-7.66,3s-5.43-10.55-8.34-12c-1.15-.58,23-9.33,23-9.33s7.63,2.39,10.24,2.6S105.41,185.32,118.51,183.3Z" style="fill:#f8ad4f"/><path d="M122,259.77s-2.74-1.67-16-3.25-10.29,2.74-18.44-.09-20-24.74-22.64-30.38C58.19,211.59,64,205.33,66,203.62c.89-.75,2-.31,3.34.85,2.85,2.53,6.48,8.47,9.91,12.71,9.28,11.44,10,15,24.34,15.67,18.89.93,31.13-31.68,35.67-37.29s16.27-5.6,13.92,5.46S136.71,258.59,122,259.77Z" style="fill:#163f59"/><path d="M148.34,193.43s-9.42,12.4-12.34,33.24-4.56,40.59-4.56,40.59a20.16,20.16,0,0,0,3.93,4.63c4,3.45,6.16.75,6.44.3,1.93-3.17,10.49-42.73,13-47.31s8.65-26.86-.54-30.95C149.67,191.87,148.34,193.43,148.34,193.43Z" style="fill:#1b4f70"/><path d="M161,187.78c-2.83-2.31-5.07-2.34-14.63.22-12.69,3.4-16.93,4.83-18.91,5.62s-2,3.91-3.25,7.4a34.13,34.13,0,0,0-1.44,8.74c-.06.72,4.24,3.71,4.24,3.71l2.12-2.46,1.07-4.23a15,15,0,0,0-3.33-.27c-1,.16,2.75-1.74,2.85-5.51.12-4.31,2.32-4.84,5.63-4.33s18.48,2.49,21.38,2.25,7.09-1.8,6.44-5.45S162.2,188.74,161,187.78Z" style="fill:#e9d6b8"/><path d="M65.62,202.87c-4.92,0-17.61,18.9-26.69,33S21.1,263.14,21.1,263.14s5.39,4.28,9.2,4.6a10.41,10.41,0,0,0,6.62-1.85L66.43,225c1.62-2.27,1.48-9.23,1.32-13.07S70.9,202.83,65.62,202.87Z" style="fill:#1b4f70"/><path d="M33.3,267s27.12-56.51,22.16-39.78c-1.66,5.61,8.88-6.47,12.73-11.88A11,11,0,0,1,66.43,225L36.92,265.89a10.47,10.47,0,0,1-4.7,1.8A8.74,8.74,0,0,0,33.3,267Z" style="fill:#163f59"/><path d="M61.72,200.23s3.14-8.9,7.51-8,7.34,3.91,9.08,5.34S65.21,206.64,61.72,200.23Z" style="fill:#e2c59c"/><path d="M76.22,196.31s-6.12-.89-8.21,2.14-2.8,6.59-1.4,9.79,1,3.92,2.1,5.7c1.5,2.36,3.31,2.75,3.84,2.67.77-.13.41-.25.78-.63.18-.17.44,1.25,1.49,1.87,2.22,1.32,3.41,1.16,3.49-.18,0-.73.62,1.16,3.32,1.69,2.29.46,1.58-2.4,1.4-7.38s-.87,1.07,3.32.18c0,0-3.14-6.59-3-8.55S81.81,200.23,76.22,196.31Z" style="fill:#e9d6b8"/><path d="M101.7,214.5s2-2.36,3.47-2.27a5,5,0,0,1,2.84,1.53s2-2.71,2.18-.66-.35,4-2.35,3.65S100.81,219.16,101.7,214.5Z" style="fill:#6e3a2e"/><path d="M94.27,211.51s10,2.12,12.09,5.19-2.33,6.27-6,7.9C96,226.53,87.1,214.13,94.27,211.51Z" style="fill:#6e3a2e"/><path d="M98.36,214.56a49.23,49.23,0,0,1,6.3,1.9c1.19,2.39-1.22,5-3.83,6.85C97.44,221.33,94,215.79,98.36,214.56Z" style="fill:#ad5c49"/><path d="M79,211.7a2.23,2.23,0,1,0,2.7-1.39A2.15,2.15,0,0,0,79,211.7Z" style="fill:#854638"/><path d="M79.62,212.5a1.75,1.75,0,1,0,2.13-1.09A1.69,1.69,0,0,0,79.62,212.5Z" style="fill:#ad5c49"/><path d="M82.46,205.87a2,2,0,1,0,1.09-3A2.3,2.3,0,0,0,82.46,205.87Z" style="fill:#854638"/><path d="M82.9,205.31a1.47,1.47,0,1,0,.87-2A1.55,1.55,0,0,0,82.9,205.31Z" style="fill:#ad5c49"/><path d="M83.8,207.59s.93-2.71,5.82-2.5,6.52,5.62,5.07,7.86-4.13,7.1-6.74,5.21S78.64,214.24,83.8,207.59Z" style="fill:#854638"/><path d="M89.27,218.58c-2.53-1.43-1.43-5.6.57-9,1.19-2,3.4-1.23,5.18,0a4.42,4.42,0,0,1-.33,3.38C93.49,214.81,91.43,218.48,89.27,218.58Z" style="fill:#ad5c49"/><path d="M89.13,209.29a1.2,1.2,0,0,0,.22,1.64c.47.24,1.12-.1,1.47-.76a1.2,1.2,0,0,0-.22-1.64C90.14,208.29,89.48,208.63,89.13,209.29Z" style="fill:#6e3a2e"/><path d="M99.1,222.6s3.05-.3,4.07.81a5,5,0,0,1,1,3.07s3.3-.56,2,1.06-3,2.62-4.23,1S95.2,225.31,99.1,222.6Z" style="fill:#6e3a2e"/><path d="M96.9,212.74s2.15-2.38,2.18-3.69,2.4-1.48,2.88-.84,1.22,2.15.13,2.51-1.86,3.11-1.86,3.11Z" style="fill:#6e3a2e"/><path d="M95.56,217.43s-1.42,2.87-1.09,4.14-1.9,2.07-2.54,1.6-1.76-1.74-.81-2.38.94-3.51.94-3.51Z" style="fill:#6e3a2e"/><path d="M63.13,268.82l-3.22,4.52s-2.08,8.43-5.08,10.3-5.12,1.17-5.71.93a4.79,4.79,0,0,1-2-2.56c-.37-1.18,1.77-3.06,2.74-2.49s1.59,1.17,1.95.28,1.44.25,1.44.25,1.2-8.79,3.91-11.63,4.36-12.31,5.43-13.25,3.13,5,3.22,6.82C65.89,264.62,63.13,268.82,63.13,268.82Z" style="fill:#d3ac85"/><path d="M64.82,287.34s-5.75-1.27-7.11-2.31-.83-2.38-3-2.17S50,285.36,48,284.8s-2.64,4.71-3.14,5.89.76,1.26,2.58.23c2.55-1.44,5.5-.77,7.38-.41a73.14,73.14,0,0,1,9.53,3.15C66.44,294.57,66.07,288.19,64.82,287.34Z" style="fill:#d3ac85"/><path d="M69.78,281.63a77.11,77.11,0,0,1,7.72-4.78c5.49-3.09,8.29-6.82,11.93-8s5.34-2.36,7.71-.21c5.27,4.77-8.34,22.94-21,22.49S69,282.94,69.78,281.63Z" style="fill:#73bbbf"/><path d="M67.05,289s-5.66-1.8-7.37-5.14-2.67-7.79,8.78-3.05S68.81,290.61,67.05,289Z" style="fill:#73bbbf"/><path d="M73.94,291.38a34.72,34.72,0,0,0,5-3.67c2.9-2.5,8.16-10.28,11-8.81s6.32,4.19-5.65,10.76C79.57,292.26,72.06,294.16,73.94,291.38Z" style="fill:#d3ac85"/><path d="M78.94,290.79l4.39-2.29s2.84,3.21,4.12,3.35,3.59.56,3.59.56.37,3.41-1.74,5.46-3.09,0-5.89-1-5.64-2.68-7.65-2.58-3.92-1.76-1.82-2.93A8.34,8.34,0,0,1,78.94,290.79Z" style="fill:#d3ac85"/><path d="M71.61,280.6S76.74,289,77,291.14c.42,3-.28,7.3-4.83,7-7-.43-12.5-5.69-12.5-5.69s0-5.51,4.57-6.88,8.63,2.19,3.56-2.52S69.39,280.64,71.61,280.6Z" style="fill:#7dccd0"/><path d="M90.81,286s-1.07-5-5-5.95a44.9,44.9,0,0,1,4.47-5.36c1.35-1.34,3.74-2.18,3.86-3.16.33-2.77.39-3.79,2-3.19,2.19.84,3.78,3,2.32,7.48C96.77,281,95.18,281,90.81,286Z" style="fill:#7dccd0"/><path d="M82.17,238.85s9-8.71,9.85-12.78,1.51-1.89.8-4.07,1.86-3.11,1.52-1.89,2.33,2.31,2.69,3.4-.6,2.14-1.47,2.89.91,6.2-2.73,12.12-7.36,12.15-11.36,14.66S79.61,242.09,82.17,238.85Z" style="fill:#d3ac85"/><path d="M64.29,252s-6.85,10.31-7.79,13.68,7.2,5,9.88.11S65.24,251,64.29,252Z" style="fill:#de6377"/><path d="M82.23,242.17s4.24,6.13,4.16,8.76-2.33,3.64-3,6.09,3,15.36-1.67,21.33-9.63,4.91-18,2.9-1.48-5.36.43-7.47,6.65-12.92-1-18.79C61.76,254,72.59,244.76,82.23,242.17Z" style="fill:#f16c81"/><path d="M73.34,231.42s-.82-6.5-5.81-7.56-6.28,1.21-5,3.87-8.18-.3-11,2.55-2.2,4.34-2.05,7.36-.79.44-.76,5.07S51,250,53,248.85s1-4.68-.45-3.1-2.82,12.43.68,11.75,7.14-4.28,4.38-5.05-6,7.24-2.62,8.19,16.69-8.88,15.34-15.87S73.34,231.42,73.34,231.42Z" style="fill:#854638"/><path d="M62,230.57s9.09.56,12.24,1.11,11.46,1.55,9.71,9-10,18-16.21,14.3-9.92-7.07-9-11.44,1.89-6.74.83-7.7S65.9,235.62,62,230.57Z" style="fill:#d3ac85"/><path d="M72.65,243.34a29.91,29.91,0,0,0,6.43-2.42c.47,2.25-.63,4.42-2.54,4.92a3.91,3.91,0,0,1-4.36-2.39Z" style="fill:#d3ac85"/></svg>