<svg xmlns="http://www.w3.org/2000/svg" xmlns:xlink="http://www.w3.org/1999/xlink" viewBox="0 0 200 74.75"><defs><linearGradient id="a" x1="-80.84" y1="-49.67" x2="253.35" y2="-49.67" gradientTransform="translate(-7.57 -17.77) rotate(11.27)" gradientUnits="userSpaceOnUse"><stop offset="0" stop-color="#ffe658"/><stop offset="1" stop-color="#f04b33"/></linearGradient></defs><g style="isolation:isolate"><path d="M252.15-114.17c-14-22.88-36.28-38.3-61.9-45.83C139.5-174.92,43.69-180.74,13-127c-9,15.72-86,29.19-90.5,46.73C-85.22-49.9-52.59-24.37-39.26,8.76c6.11,15.18-3.89,34.74,8.3,45.66,16,14.35,41.48,7.51,60.12-3.18,27-15.51,45.08-29.88,77-16.76,16.67,6.85,32.22,17.16,50,20.11,23.64,3.92,48.23-6.31,65.17-23.24s26.91-39.84,32-63.24C258.94-57.08,266.17-91.14,252.15-114.17Z" style="mix-blend-mode:multiply;fill:url(#a)"/></g></svg>