<svg xmlns="http://www.w3.org/2000/svg" xmlns:xlink="http://www.w3.org/1999/xlink" viewBox="0 0 200 75.57"><defs><linearGradient id="a" x1="-80.84" y1="-36.68" x2="253.35" y2="-36.68" gradientTransform="translate(-5.03 -17.52) rotate(11.27)" gradientUnits="userSpaceOnUse"><stop offset="0" stop-color="#ffe658"/><stop offset="1" stop-color="#f04b33"/></linearGradient></defs><g style="isolation:isolate"><path d="M252.15-101.19c-14-22.88-36.28-38.29-61.9-45.82C139.5-161.94,43.69-167.76,13-114c-9,15.72-86,29.2-90.5,46.74-7.74,30.39,24.89,55.92,38.22,89.05,6.11,15.18-3.89,34.74,8.3,45.67,16,14.35,41.48,7.51,60.12-3.19,27-15.5,45.08-29.88,77-16.76,16.67,6.85,32.22,17.16,50,20.11,23.64,3.92,48.23-6.3,65.17-23.24s26.91-39.84,32-63.24C258.94-44.1,266.17-78.16,252.15-101.19Z" style="mix-blend-mode:multiply;fill:url(#a)"/></g></svg>