<svg xmlns="http://www.w3.org/2000/svg" viewBox="0 0 120 120"><path d="M91.38,95.58a6.83,6.83,0,0,1-4.86-2L26.28,33.05A6.86,6.86,0,1,1,36,23.38L96.24,83.89a6.86,6.86,0,0,1-4.86,11.69Z" style="fill:tomato"/><path d="M32.91,95.58a6.86,6.86,0,0,0,4.86-2L98,33.05a6.86,6.86,0,1,0-9.72-9.67L28.05,83.89a6.86,6.86,0,0,0,4.86,11.69Z" style="fill:tomato"/><path d="M68.46,89.31l.54.59a1,1,0,0,0,1.19.18,11,11,0,0,1,3.87-1.36.94.94,0,0,0,.81-.9h0l.06-.87,3.12.2L78,88h0a1,1,0,0,0,.69,1,10.92,10.92,0,0,1,3.51,1.71.94.94,0,0,0,1.19,0l.61-.53,2.07,2.34-.61.53a1,1,0,0,0-.2,1.18,11.28,11.28,0,0,1,.8,1.77,10.88,10.88,0,0,1,.47,1.91,1,1,0,0,0,.89.81l.8,0L88,101.85l-.8,0a.94.94,0,0,0-1,.69,11,11,0,0,1-1.7,3.5,1,1,0,0,0,.06,1.2l.54.6-2.34,2.08-.53-.6a1,1,0,0,0-1.18-.19,11.07,11.07,0,0,1-3.67,1.29,1,1,0,0,0-.81.89l0,.8-3.12-.17,0-.8a.94.94,0,0,0-.7-1,10.86,10.86,0,0,1-3-1.32h0q-.27-.16-.54-.36a1,1,0,0,0-1.19.06l-.6.54-2.1-2.32.6-.54a1,1,0,0,0,.19-1.18,11,11,0,0,1-1.31-3.66.94.94,0,0,0-.89-.8l-.81,0,.16-3.12.8,0a1,1,0,0,0,1-.71,10.85,10.85,0,0,1,1.66-3.52A.94.94,0,0,0,66.69,92l-.54-.6.41-.37h0l1.9-1.73ZM68.8,89Zm9.28-2.3Zm5.61,3.11Zm-1.21,20.37h0ZM77,112.09Zm-8.22-1.66h0ZM65.06,107h0Zm-1.7-10.11Zm3-8.46A14.7,14.7,0,0,0,59,86.53H44.66a14.79,14.79,0,0,0-14.8,14.8V113a1,1,0,0,0,.28.67.93.93,0,0,0,.67.28H39.6a1,1,0,0,0,0-1.91H31.76V101.33a12.89,12.89,0,0,1,12.9-12.9H59a12.87,12.87,0,0,1,6,1.48l-.44.4h0a1.46,1.46,0,0,0-.35.5,1.42,1.42,0,0,0-.12.57,1.54,1.54,0,0,0,.09.52,1.42,1.42,0,0,0,.29.46h0l.34.38a13.06,13.06,0,0,0-1.29,2.75l-.51,0h-.07a1.42,1.42,0,0,0-.55.11,1.39,1.39,0,0,0-.63.49,1.5,1.5,0,0,0-.28.78h0l-.19,4v.07a1.42,1.42,0,0,0,.1.55,1.48,1.48,0,0,0,.5.63,1.41,1.41,0,0,0,.78.27h0l.51,0a12.81,12.81,0,0,0,1,2.86l-.38.34h0a1.45,1.45,0,0,0-.36.5,1.47,1.47,0,0,0,0,1.09,1.53,1.53,0,0,0,.29.47h0l2.71,3h0a1.41,1.41,0,0,0,.49.36,1.5,1.5,0,0,0,1.1,0,1.62,1.62,0,0,0,.46-.29h0l.38-.35a12.79,12.79,0,0,0,2.74,1.31l0,.28H53.42a1,1,0,0,0,0,1.91h20.4a1,1,0,0,0,.38-.08l2.73.15H77a1.37,1.37,0,0,0,.54-.11,1.39,1.39,0,0,0,.63-.49,1.47,1.47,0,0,0,.28-.77h0l0-.52a12.76,12.76,0,0,0,2.86-1l.35.38a1.52,1.52,0,0,0,.5.37,1.43,1.43,0,0,0,.58.12,1.32,1.32,0,0,0,.51-.1,1.38,1.38,0,0,0,.45-.27h0l3-2.69a1.49,1.49,0,0,0,.36-.5,1.47,1.47,0,0,0,0-1.09,1.58,1.58,0,0,0-.28-.46h0l-.34-.38a12.6,12.6,0,0,0,1.32-2.74l.52,0h.08a1.46,1.46,0,0,0,.55-.11,1.42,1.42,0,0,0,.62-.49,1.44,1.44,0,0,0,.28-.77h0l.24-4h0v-.08a1.68,1.68,0,0,0-.1-.55,1.49,1.49,0,0,0-.49-.62,1.42,1.42,0,0,0-.77-.28h0l-.52,0a14,14,0,0,0-.41-1.48A13.12,13.12,0,0,0,87.27,94l.39-.34h0a1.47,1.47,0,0,0,.5-1.09,1.52,1.52,0,0,0-.09-.51,1.38,1.38,0,0,0-.27-.45h0l-2.68-3h0a1.36,1.36,0,0,0-.5-.36,1.33,1.33,0,0,0-.58-.13,1.48,1.48,0,0,0-.51.09,1.58,1.58,0,0,0-.46.28h0l-.38.34a12.66,12.66,0,0,0-2.74-1.34l0-.6h0s0-.07,0-.1a1.45,1.45,0,0,0-.6-1.16,1.36,1.36,0,0,0-.76-.28l-4-.26h-.1a1.45,1.45,0,0,0-.54.11,1.47,1.47,0,0,0-.62.48,1.5,1.5,0,0,0-.28.77l0,.6a13.37,13.37,0,0,0-3.11,1.1l-.35-.38h0a1.55,1.55,0,0,0-.5-.36,1.47,1.47,0,0,0-.58-.12,1.32,1.32,0,0,0-.51.1,1.21,1.21,0,0,0-.46.28h0l-1.07,1-.13-.1Z"/><polygon points="40.94 60.36 40.94 60.36 40.95 60.36 40.94 60.36 40.94 60.36"/><rect x="56.95" y="53.2" transform="translate(-16.31 79.78) rotate(-62.99)"/><polygon points="62.02 60.36 62.02 60.36 62.02 60.36 62.02 60.36 62.02 60.36"/><polygon points="63.02 61.03 63.03 61.03 63.03 61.03 63.02 61.03 63.02 61.03"/><path d="M61.49,75.43a10.86,10.86,0,0,1-19,1.84,10.85,10.85,0,0,1-1.24-9.69v0h0v0h0l.69-2H60.75l1,2.08a10.73,10.73,0,0,1,.6,3.56,10.85,10.85,0,0,1-.86,4.24Zm-17.09-18A9,9,0,0,1,47,54.83h0a1.35,1.35,0,0,1,.73-.2h.86v.43a1.92,1.92,0,0,0,.14.72,1.84,1.84,0,0,0,.67.81,1.88,1.88,0,0,0,1,.32h2.08a1.92,1.92,0,0,0,.72-.14,1.89,1.89,0,0,0,.82-.68,1.74,1.74,0,0,0,.31-1v-.43h.86a1.35,1.35,0,0,1,.73.2h0a9,9,0,0,1,2.59,2.56,11.76,11.76,0,0,1,1.48,3H42.92a11.76,11.76,0,0,1,1.48-3ZM52.47,55h-2V51.91h2V55ZM41.61,63.64a.71.71,0,0,1-.21,0h0a.64.64,0,0,1-.32-.24A.59.59,0,0,1,41,63a.75.75,0,0,1,0-.26.6.6,0,0,1,.14-.21h0l0,0h0a.78.78,0,0,1,.2-.11.59.59,0,0,1,.23,0H61.35a.59.59,0,0,1,.23,0,.56.56,0,0,1,.2.11h0a.62.62,0,0,1,.17.22A.64.64,0,0,1,62,63a.75.75,0,0,1,0,.26.6.6,0,0,1-.14.21h0a.71.71,0,0,1-.26.16h0a.56.56,0,0,1-.2,0ZM63.92,63a2.63,2.63,0,0,0-.24-1.09A2.75,2.75,0,0,0,63,61a2.86,2.86,0,0,0-.77-.46l-.2-.06a.83.83,0,0,1,0-.15,13.41,13.41,0,0,0-1.89-4A10.56,10.56,0,0,0,57,53.21h0a3.33,3.33,0,0,0-1.72-.47h-.86v-.91a1.87,1.87,0,0,0-.14-.71A1.82,1.82,0,0,0,52.55,50H50.41a1.87,1.87,0,0,0-.71.14,1.82,1.82,0,0,0-1.11,1.68v.91h-.86A3.36,3.36,0,0,0,46,53.2h0a10.56,10.56,0,0,0-3.17,3.11,13.78,13.78,0,0,0-1.89,4,.83.83,0,0,1,0,.15l-.2.06a2.58,2.58,0,0,0-.76.46h0l-.13.13h0a2.67,2.67,0,0,0-.54.81,2.58,2.58,0,0,0,.3,2.52,2.39,2.39,0,0,0,.55.55l-.64,1.83a.27.27,0,0,1,0,.08,12.91,12.91,0,0,0-.72,4.23,12.69,12.69,0,0,0,1,5,12.85,12.85,0,0,0,4.63,5.62A12.68,12.68,0,0,0,51.48,84a12.73,12.73,0,0,0,10.59-5.63A12.74,12.74,0,0,0,63.53,67a.25.25,0,0,0,0-.09l-.81-1.68a3.05,3.05,0,0,0,.49-.38,2.69,2.69,0,0,0,.55-.82,2.59,2.59,0,0,0,.2-1Z"/><polygon points="63.17 64.8 63.17 64.8 63.16 64.8 63.17 64.8 63.17 64.8"/><path d="M69.9,99.18a5.78,5.78,0,0,1,2.68-4.52,5.72,5.72,0,0,1,3.11-.91h.38a5.84,5.84,0,0,1,2.14.56,6,6,0,0,1,2.38,2.12,5.77,5.77,0,0,1,.91,3.11c0,.13,0,.25,0,.38h0a5.78,5.78,0,0,1-2.68,4.52,5.77,5.77,0,0,1-3.11.91h-.38a5.84,5.84,0,0,1-2.14-.56,5.83,5.83,0,0,1-3.29-5.23c0-.12,0-.25,0-.38Zm1.22,6.59a7.68,7.68,0,0,0,4.08,1.48l.06-1-.06,1,.5,0a7.72,7.72,0,0,0,7.69-7.22h0c0-.16,0-.33,0-.5a7.63,7.63,0,0,0-.56-2.86,7.76,7.76,0,0,0-2.59-3.34,7.62,7.62,0,0,0-4.07-1.49l-.5,0a7.64,7.64,0,0,0-2.87.56A7.87,7.87,0,0,0,69.48,95,7.68,7.68,0,0,0,68,99.06c0,.17,0,.34,0,.5a7.76,7.76,0,0,0,3.14,6.21Z"/><polygon points="61.26 100.87 61.26 100.87 61.26 100.87 61.26 100.87 61.26 100.87"/><polygon points="81.7 111.49 81.69 111.49 81.69 111.49 81.7 111.49 81.7 111.49"/><rect x="73.06" y="86.37"/><polygon points="74.6 85.02 74.6 85.02 74.6 85.02 74.6 85.02 74.6 85.02"/><path d="M47.62,113a1,1,0,1,0-1,1,1,1,0,0,0,1-1Z"/></svg>