<?xml version="1.0" encoding="utf-8"?>
<!-- Generator: Adobe Illustrator 25.4.1, SVG Export Plug-In . SVG Version: 6.00 Build 0)  -->
<svg version="1.1" id="Layer_1" xmlns="http://www.w3.org/2000/svg" xmlns:xlink="http://www.w3.org/1999/xlink" x="0px" y="0px"
	 viewBox="0 0 120 109.1" style="enable-background:new 0 0 120 109.1;" xml:space="preserve">
<style type="text/css">
	.st0{fill:#FF6347;}
	.st1{fill:none;stroke:#000000;stroke-width:2;stroke-miterlimit:10;}
	.st2{fill:none;stroke:#000000;stroke-width:2;stroke-linecap:round;stroke-linejoin:round;}
</style>
<rect x="28" y="51.1" class="st0" width="11" height="11"/>
<path class="st0" d="M34.4,37.9c0-5.1,4.1-9.2,9.2-9.2s9.2,4.1,9.2,9.2c0,0,0,0,0,0"/>
<path class="st1" d="M32.8,37.9c-0.2-5.1,3.8-9.4,8.9-9.5s9.4,3.8,9.5,8.9c0,0.2,0,0.4,0,0.6H32.8z"/>
<line class="st2" x1="42.1" y1="3" x2="42.1" y2="24.1"/>
<line class="st2" x1="60.6" y1="38" x2="55.9" y2="38"/>
<path class="st2" d="M65.3,38.1l40.5-0.1c1.7,0,3.1,1.7,3.1,3.9l-0.2,53.8c0,2.2-1.4,3.9-3.1,3.9l-89.7,0.5c-1.7,0-3.1-1.7-3.1-3.9
	L13,42.1c0-2.2,1.4-3.9,3.1-3.9l9.9-0.1"/>
<line class="st2" x1="11.5" y1="7.5" x2="32.3" y2="28.3"/>
<line class="st2" x1="66.9" y1="13" x2="52" y2="28.1"/>
<path class="st2" d="M9.8,70.1L5.5,48.4c-0.4-2.1,0.6-4.1,2.3-4.5"/>
<path class="st2" d="M56,34.1L95.7,26c1.7-0.3,3.4,1.1,3.8,3.2l0.8,4"/>
<rect x="26" y="51.1" class="st2" width="11" height="11"/>
<path class="st2" d="M50,51.1L50,51.1c3.3,3.3,3.3,8.7,0,12l0,0"/>
<path class="st2" d="M46,53.1L46,53.1c2.2,2.2,2.2,5.8,0,8l0,0"/>
<line class="st2" x1="27" y1="87.1" x2="49" y2="87.1"/>
<line class="st2" x1="62" y1="87.1" x2="84" y2="87.1"/>
<line class="st2" x1="36" y1="83.1" x2="58" y2="83.1"/>
<line class="st2" x1="70" y1="83.1" x2="79" y2="83.1"/>
<line class="st2" x1="82.7" y1="83.1" x2="91.7" y2="83.1"/>
<line class="st2" x1="94.4" y1="2.9" x2="93" y2="1.5"/>
<line class="st2" x1="98.7" y1="7.1" x2="97.3" y2="5.7"/>
<line class="st2" x1="97.2" y1="2.8" x2="98.7" y2="1.4"/>
<line class="st2" x1="93" y1="7.1" x2="94.4" y2="5.7"/>
</svg>
