<svg xmlns="http://www.w3.org/2000/svg" viewBox="0 0 120 120"><path d="M78.08,19.55h0A14.43,14.43,0,0,0,63,6.12c-7.31.35-13.68,6.25-13.69,13.57,0,14,14.62,24.44,14.62,24.44s14.2-10.49,14.2-23.6c0-.31,0-.62,0-.93Z" style="fill:tomato"/><path d="M93.37,90.7a1.06,1.06,0,0,0-1.34.67,29.88,29.88,0,0,1-57.94-5.13l3.13,0-4.34-7.28-4.13,7.39,3.2,0A32,32,0,0,0,94.05,92,1.06,1.06,0,0,0,93.37,90.7Z" style="fill:#1a1a1a"/><path d="M95.38,77.73A32,32,0,0,0,33.28,72a1.06,1.06,0,0,0,2,.67,29.88,29.88,0,0,1,57.94,5.13l-3.13,0,4.34,7.28,4.14-7.39Z" style="fill:#1a1a1a"/><path d="M71.73,66a3,3,0,0,0-2.52-1.38H58.13a3,3,0,0,0-2.93,2.35L51.33,84.46a3,3,0,0,0,2.92,3.64h3.06l-1.59,12.19a3,3,0,0,0,1.92,3.19,3.14,3.14,0,0,0,1,.19h0a3,3,0,0,0,2.49-1.34L75.57,80.72a3,3,0,0,0-2.49-4.65H68.59l3.33-7.24A3,3,0,0,0,71.73,66Zm-1.73,2-4,8.75a1.06,1.06,0,0,0,1,1.51h6.15a.86.86,0,0,1,.72,1.35l-14.38,21.6a.88.88,0,0,1-.73.39h0a1,1,0,0,1-.3-.05.88.88,0,0,1-.56-.93l1.75-13.39a1.08,1.08,0,0,0-.26-.84,1.05,1.05,0,0,0-.8-.36H54.25a.86.86,0,0,1-.84-1.06l3.87-17.52a.87.87,0,0,1,.85-.68H69.21A.87.87,0,0,1,70,67.94Z" style="fill:#1a1a1a"/><path d="M64.91,114H25.21a1,1,0,0,1,0-2h39.7a1,1,0,0,1,0,2Z"/></svg>