<?xml version="1.0" encoding="utf-8"?>
<!-- Generator: Adobe Illustrator 25.4.1, SVG Export Plug-In . SVG Version: 6.00 Build 0)  -->
<svg version="1.1" id="Layer_1" xmlns="http://www.w3.org/2000/svg" xmlns:xlink="http://www.w3.org/1999/xlink" x="0px" y="0px"
	 viewBox="0 0 120 108" style="enable-background:new 0 0 120 108;" xml:space="preserve">
<style type="text/css">
	.st0{fill:none;stroke:#000000;stroke-width:2;stroke-linecap:round;stroke-linejoin:round;}
	.st1{fill:#FF6347;}
</style>
<line class="st0" x1="60" y1="106.8" x2="60" y2="103.8"/>
<circle class="st1" cx="62.8" cy="54" r="24"/>
<path d="M58.8,32c12.2,0,22,9.8,22,22s-9.8,22-22,22s-22-9.8-22-22S46.7,32,58.8,32 M58.8,30c-13.3,0-24,10.7-24,24s10.7,24,24,24
	s24-10.7,24-24l0,0C82.8,40.7,72.1,30,58.8,30z"/>
<path d="M63.2,32c12.2,0,22,9.8,22,22s-9.8,22-22,22s-22-9.8-22-22S50.9,32,63.2,32 M63.2,30c-13.3,0-24,10.7-24,24s10.7,24,24,24
	s24-10.7,24-24S76.5,30,63.2,30z"/>
<line class="st0" x1="59.6" y1="7" x2="59.6" y2="19"/>
<g>
	<path d="M59.6,5c-0.6,0-1-0.4-1-1V1c0-0.6,0.4-1,1-1s1,0.4,1,1v3C60.6,4.6,60.2,5,59.6,5z"/>
</g>
<line class="st0" x1="12.4" y1="53.1" x2="24.4" y2="53.2"/>
<line class="st0" x1="6.4" y1="53.1" x2="9.4" y2="53.1"/>
<line class="st0" x1="60" y1="100.8" x2="60.2" y2="88.8"/>
<line class="st0" x1="108" y1="53.4" x2="96" y2="53.1"/>
<line class="st0" x1="114" y1="53.6" x2="111" y2="53.5"/>
<line class="st0" x1="25.8" y1="19.7" x2="34.3" y2="28.2"/>
<line class="st0" x1="21.5" y1="15.5" x2="23.6" y2="17.6"/>
<line class="st0" x1="26.8" y1="87.1" x2="35.3" y2="78.6"/>
<line class="st0" x1="22.5" y1="91.3" x2="24.6" y2="89.2"/>
<line class="st0" x1="94.1" y1="86.6" x2="85.7" y2="78.1"/>
<line class="st0" x1="98.3" y1="90.9" x2="96.2" y2="88.8"/>
<line class="st0" x1="94.1" y1="19.2" x2="85.5" y2="27.6"/>
<line class="st0" x1="98.4" y1="15.1" x2="96.3" y2="17.1"/>
<path d="M65.8,50c-0.7-1.1-2.7-2-4.5-2c-2.2,0-4.2,0.6-4.2,2.5s2.1,2.1,4.3,2.3c3.9,0.5,8,1.2,8,5.9c0,3.6-3,5.6-6.3,5.8v2.7h-3.4
	v-2.5c-3-0.3-5.7-1.6-7-4.6l3.1-1.3c0.7,1.7,3.1,2.8,5.3,2.8c2.4,0,4.6-0.8,4.6-2.9c0-1.8-2.2-2.4-4.7-2.7c-3.8-0.4-7.5-1.1-7.5-5.5
	c0-3.5,3.1-5.1,6.2-5.5v-2.3h3.4V45c2.3,0.3,4.3,1.2,5.5,3.6L65.8,50z"/>
</svg>
