<svg xmlns="http://www.w3.org/2000/svg" viewBox="0 0 120 120"><path d="M76.71,43.77a39.13,39.13,0,0,1,8.83,14.35A19.66,19.66,0,0,0,89,46.91C89,36.47,81.1,28,71.35,28c-5,0-11.14,2.47-14.35,6C63.91,35.46,71.83,38.75,76.71,43.77Z" style="fill:#ff6248"/><line x1="109" y1="110.57" x2="13" y2="110.57" style="fill:none;stroke:#000;stroke-linecap:round;stroke-linejoin:round;stroke-width:2px"/><path d="M58,109.83l16.82-1.09A23.45,23.45,0,0,0,97,84.42l-.34-14.91L82,70.09a23.41,23.41,0,0,0-22.75,22Z" style="fill:none;stroke:#000;stroke-linecap:round;stroke-linejoin:round;stroke-width:2px"/><line x1="59.41" y1="108.73" x2="80.89" y2="87.04" style="fill:none;stroke:#000;stroke-linecap:round;stroke-linejoin:round;stroke-width:2px"/><line x1="67.57" y1="99.23" x2="68.35" y2="88.31" style="fill:none;stroke:#000;stroke-linecap:round;stroke-linejoin:round;stroke-width:2px"/><line x1="68.41" y1="100.07" x2="79.33" y2="99.18" style="fill:none;stroke:#000;stroke-linecap:round;stroke-linejoin:round;stroke-width:2px"/><path d="M55,97A31,31,0,1,1,86,66" style="fill:none;stroke:#000;stroke-linecap:round;stroke-linejoin:round;stroke-width:2px"/><path d="M32,46s3,5,6,9a11.23,11.23,0,0,1,0,13c-4,6-6,10-4,14l5,10" style="fill:none;stroke:#000;stroke-linecap:round;stroke-linejoin:round;stroke-width:2px"/><path d="M83,54s-15,1-21,8,0,20,0,20" style="fill:none;stroke:#000;stroke-linecap:round;stroke-linejoin:round;stroke-width:2px"/><path d="M38,40a4.74,4.74,0,0,1,6,1c3,3,2,6,2,6s1,3,2,2,0-6,2-8,6-2,6-2l4.71-3.65A17.63,17.63,0,0,1,87.54,58.12" style="fill:none;stroke:#000;stroke-linecap:round;stroke-linejoin:round;stroke-width:2px"/><path d="M79,47c-1,0-4,2-4,2l-5-3s3-4,2-5" style="fill:none;stroke:#000;stroke-linecap:round;stroke-linejoin:round;stroke-width:2px"/><path d="M41,47s4,5,5,6h3l-3,2-5-3Z" style="fill:none;stroke:#000;stroke-linecap:round;stroke-linejoin:round;stroke-width:2px"/><line x1="56" y1="46" x2="57" y2="44" style="fill:none;stroke:#000;stroke-linecap:round;stroke-linejoin:round;stroke-width:2px"/><line x1="74" y1="25" x2="74" y2="4" style="fill:none;stroke:#000;stroke-linecap:round;stroke-linejoin:round;stroke-width:2px"/><line x1="63.77" y1="27.52" x2="51.1" y2="3.42" style="fill:none;stroke:#000;stroke-linecap:round;stroke-linejoin:round;stroke-width:2px"/><line x1="50" y1="31" x2="38.59" y2="22.6" style="fill:none;stroke:#000;stroke-linecap:round;stroke-linejoin:round;stroke-width:2px"/><line x1="88.65" y1="63.42" x2="92" y2="67" style="fill:none;stroke:#000;stroke-linecap:round;stroke-linejoin:round;stroke-width:2px"/><line x1="94.6" y1="54.72" x2="106" y2="60" style="fill:none;stroke:#000;stroke-linecap:round;stroke-linejoin:round;stroke-width:2px"/><line x1="95.83" y1="44.25" x2="116.66" y2="41.63" style="fill:none;stroke:#000;stroke-linecap:round;stroke-linejoin:round;stroke-width:2px"/><line x1="92.04" y1="34.41" x2="116.8" y2="17.15" style="fill:none;stroke:#000;stroke-linecap:round;stroke-linejoin:round;stroke-width:2px"/><line x1="84.12" y1="27.47" x2="96.43" y2="3.7" style="fill:none;stroke:#000;stroke-linecap:round;stroke-linejoin:round;stroke-width:2px"/></svg>