<?xml version="1.0" encoding="utf-8"?>
<!-- Generator: Adobe Illustrator 25.4.1, SVG Export Plug-In . SVG Version: 6.00 Build 0)  -->
<svg version="1.1" id="Layer_1" xmlns="http://www.w3.org/2000/svg" xmlns:xlink="http://www.w3.org/1999/xlink" x="0px" y="0px"
	 viewBox="0 0 120 108" style="enable-background:new 0 0 120 108;" xml:space="preserve">
<style type="text/css">
	.st0{fill:none;stroke:#000000;stroke-width:2;stroke-linecap:round;stroke-linejoin:round;}
	.st1{fill:#F7F6F1;stroke:#1A1A1A;stroke-width:2;stroke-miterlimit:10;}
	.st2{fill:none;stroke:#1A1A1A;stroke-width:2;stroke-miterlimit:10;}
	.st3{fill:#FFFFFF;stroke:#1A1A1A;stroke-width:2;stroke-miterlimit:10;}
	.st4{fill:#FF6347;}
</style>
<path class="st0" d="M76.9,100.1H101c3.3,0,5.9-2.9,5.9-6.3V24.7c0-2.5-1.9-4.5-4.3-4.6l0,0H92"/>
<line class="st0" x1="107.9" y1="100.1" x2="11.9" y2="100.1"/>
<path class="st1" d="M28,85.8l9-2.2c2-0.5,3.9-1.2,5.7-2.1l3.4-1.7c5-2.5,10.9-2.9,16.2-1l8.7,3.1l4.5,1.8c3.3,1.3,5.5,4.5,5.5,8.1
	l0,0c0,2.3-1.8,4.1-4.1,4.1l0,0H28c-4,0-4-2.8-4-5C24,87.8,25.4,86.8,28,85.8z"/>
<path class="st2" d="M24,89.8h2c2.4,0,6-1,6-5"/>
<path class="st2" d="M39,82.8c0,3.7,4,10,9,13h11l0.8-3.7c0.8-4.2,3.2-8.6,5.2-12.3"/>
<path class="st2" d="M39,84.8h23c1.3,0,2.7-0.3,3.9-0.8l5.1-2.2"/>
<circle class="st3" cx="36" cy="94.8" r="4"/>
<circle class="st3" cx="67" cy="94.8" r="4"/>
<line class="st0" x1="84" y1="87.8" x2="96" y2="87.8"/>
<line class="st0" x1="84" y1="90.8" x2="91" y2="90.8"/>
<circle class="st4" cx="55.7" cy="20.8" r="9.2"/>
<path d="M54.2,13.6c4,0,7.2,3.2,7.3,7.2s-3.2,7.2-7.2,7.3S47,24.9,47,20.9c0,0,0,0,0-0.1C47,16.8,50.2,13.6,54.2,13.6 M54.2,11.6
	c-5.1,0-9.2,4.1-9.2,9.2s4.1,9.2,9.2,9.2s9.2-4.1,9.2-9.2l0,0C63.4,15.7,59.3,11.6,54.2,11.6z"/>
<line class="st0" x1="54.2" y1="2.4" x2="54.2" y2="7"/>
<line class="st0" x1="36" y1="20.8" x2="40.6" y2="20.9"/>
<line class="st0" x1="54.3" y1="39.1" x2="54.4" y2="34.5"/>
<line class="st0" x1="72.7" y1="21" x2="68.1" y2="20.8"/>
<line class="st0" x1="41.2" y1="8" x2="44.4" y2="11.3"/>
<line class="st0" x1="41.6" y1="33.9" x2="44.8" y2="30.6"/>
<line class="st0" x1="67.4" y1="33.8" x2="64.2" y2="30.4"/>
<line class="st0" x1="67.4" y1="7.8" x2="64.1" y2="11"/>
<line class="st0" x1="101.6" y1="3.1" x2="101.6" y2="1.1"/>
<line class="st0" x1="101.6" y1="9.1" x2="101.6" y2="7.1"/>
<line class="st0" x1="103.6" y1="5.1" x2="105.6" y2="5.1"/>
<line class="st0" x1="97.6" y1="5.1" x2="99.6" y2="5.1"/>
<line class="st0" x1="18.6" y1="49.1" x2="18.6" y2="47.1"/>
<line class="st0" x1="18.6" y1="55.1" x2="18.6" y2="53.1"/>
<line class="st0" x1="20.6" y1="51.1" x2="22.6" y2="51.1"/>
<line class="st0" x1="14.6" y1="51.1" x2="16.6" y2="51.1"/>
<line class="st0" x1="17.1" y1="8.3" x2="15.7" y2="6.9"/>
<line class="st0" x1="21.4" y1="12.5" x2="20" y2="11.1"/>
<line class="st0" x1="20" y1="8.3" x2="21.4" y2="6.8"/>
<line class="st0" x1="15.8" y1="12.6" x2="17.2" y2="11.1"/>
<line class="st0" x1="88.7" y1="37.3" x2="87.3" y2="35.9"/>
<line class="st0" x1="93" y1="41.5" x2="91.6" y2="40.1"/>
<line class="st0" x1="91.6" y1="37.3" x2="93" y2="35.9"/>
<line class="st0" x1="87.3" y1="41.5" x2="88.8" y2="40.1"/>
<path class="st0" d="M86.1,15.1c3,0,5.5,2.5,5.5,5.5s-2.4,5.5-5.5,5.5"/>
<line class="st0" x1="86" y1="15.1" x2="86" y2="26.1"/>
<line class="st0" x1="86" y1="23.1" x2="81" y2="23.1"/>
<line class="st0" x1="86" y1="18.1" x2="81" y2="18.1"/>
</svg>
