<?xml version="1.0" encoding="utf-8"?>
<!-- Generator: Adobe Illustrator 25.4.1, SVG Export Plug-In . SVG Version: 6.00 Build 0)  -->
<svg version="1.1" id="Layer_1" xmlns="http://www.w3.org/2000/svg" xmlns:xlink="http://www.w3.org/1999/xlink" x="0px" y="0px"
	 viewBox="0 0 120 111.2" style="enable-background:new 0 0 120 111.2;" xml:space="preserve">
<style type="text/css">
	.st0{fill:none;stroke:#000000;stroke-width:2;stroke-linecap:round;stroke-linejoin:round;}
	.st1{fill:#FF6347;}
</style>
<line class="st0" x1="108" y1="101.8" x2="12" y2="101.8"/>
<path class="st0" d="M29.3,89.2h61.5c2.3,0,4.1-1.8,4.1-4.1c0-0.4-0.1-0.9-0.2-1.3L85.4,56c-0.6-1.7-2.1-2.8-3.9-2.8H39.3
	c-1.7,0-3.3,1.1-3.8,2.7l-10,27.8c-0.8,2.1,0.3,4.5,2.4,5.2C28.3,89.2,28.8,89.2,29.3,89.2z"/>
<line class="st0" x1="32.5" y1="65.2" x2="87.5" y2="65.2"/>
<line class="st0" x1="28.5" y1="75.9" x2="91.5" y2="76.2"/>
<line class="st0" x1="52" y1="54.2" x2="48" y2="88.2"/>
<line class="st0" x1="69" y1="54.2" x2="72" y2="88.2"/>
<path class="st0" d="M53.8,90.2L53.8,90.2c0,4.4-2.1,8.5-5.8,11l-0.7,0.5"/>
<path class="st0" d="M66.2,90.2L66.2,90.2c0,4.4,2.1,8.5,5.8,11l0.7,0.5"/>
<g>
	<circle class="st1" cx="61.1" cy="23" r="9.2"/>
</g>
<g>
	<path d="M59.6,15.8c4,0,7.2,3.2,7.2,7.2c0,4-3.2,7.2-7.2,7.2S52.4,27,52.4,23c0,0,0,0,0,0C52.4,19,55.6,15.8,59.6,15.8 M59.6,13.8
		c-5.1,0-9.2,4.1-9.2,9.2c0,5.1,4.1,9.2,9.2,9.2c5.1,0,9.2-4.1,9.2-9.2c0,0,0,0,0,0C68.8,17.9,64.7,13.8,59.6,13.8z"/>
</g>
<g>
	<path d="M59.6,10.2c-0.6,0-1-0.4-1-1V4.5c0-0.6,0.4-1,1-1s1,0.4,1,1v4.6C60.6,9.7,60.1,10.2,59.6,10.2z"/>
</g>
<g>
	<path d="M46.1,24C46.1,24,46.1,24,46.1,24l-4.6,0c-0.6,0-1-0.5-1-1c0-0.5,0.5-1,1-1c0,0,0,0,0,0l4.6,0c0.6,0,1,0.5,1,1
		C47.1,23.6,46.6,24,46.1,24z"/>
</g>
<g>
	<path d="M59.8,42.2C59.7,42.2,59.7,42.2,59.8,42.2c-0.6,0-1-0.5-1-1l0.1-4.6c0-0.6,0.5-1,1-1c0.6,0,1,0.5,1,1l-0.1,4.6
		C60.7,41.8,60.3,42.2,59.8,42.2z"/>
</g>
<g>
	<path d="M78.2,24.1C78.2,24.1,78.1,24.1,78.2,24.1L73.5,24c-0.6,0-1-0.5-1-1c0-0.6,0.5-1,1-1l4.6,0.1c0.6,0,1,0.5,1,1
		C79.1,23.7,78.7,24.1,78.2,24.1z"/>
</g>
<g>
	<path d="M49.9,14.4c-0.3,0-0.5-0.1-0.7-0.3l-3.3-3.2c-0.4-0.4-0.4-1,0-1.4c0.4-0.4,1-0.4,1.4,0l3.3,3.2c0.4,0.4,0.4,1,0,1.4
		C50.4,14.3,50.1,14.4,49.9,14.4z"/>
</g>
<g>
	<path d="M47,37c-0.3,0-0.5-0.1-0.7-0.3c-0.4-0.4-0.4-1,0-1.4l3.3-3.2c0.4-0.4,1-0.4,1.4,0c0.4,0.4,0.4,1,0,1.4l-3.3,3.2
		C47.5,36.9,47.2,37,47,37z"/>
</g>
<g>
	<path d="M72.8,36.8c-0.3,0-0.5-0.1-0.7-0.3l-3.2-3.3c-0.4-0.4-0.4-1,0-1.4c0.4-0.4,1-0.4,1.4,0l3.2,3.3c0.4,0.4,0.4,1,0,1.4
		C73.3,36.7,73.1,36.8,72.8,36.8z"/>
</g>
<g>
	<path d="M69.5,14.2c-0.3,0-0.5-0.1-0.7-0.3c-0.4-0.4-0.4-1,0-1.4l3.3-3.2c0.4-0.4,1-0.4,1.4,0c0.4,0.4,0.4,1,0,1.4l-3.3,3.2
		C70,14.1,69.8,14.2,69.5,14.2z"/>
</g>
<g>
	<path d="M107,6.2c-0.6,0-1-0.4-1-1v-2c0-0.6,0.4-1,1-1s1,0.4,1,1v2C108,5.8,107.6,6.2,107,6.2z"/>
</g>
<g>
	<path d="M107,12.2c-0.6,0-1-0.4-1-1v-2c0-0.6,0.4-1,1-1s1,0.4,1,1v2C108,11.8,107.6,12.2,107,12.2z"/>
</g>
<g>
	<path d="M111,8.2h-2c-0.6,0-1-0.4-1-1s0.4-1,1-1h2c0.6,0,1,0.4,1,1S111.6,8.2,111,8.2z"/>
</g>
<g>
	<path d="M105,8.2h-2c-0.6,0-1-0.4-1-1s0.4-1,1-1h2c0.6,0,1,0.4,1,1S105.6,8.2,105,8.2z"/>
</g>
<g>
	<path d="M24,52.2c-0.6,0-1-0.4-1-1v-2c0-0.6,0.4-1,1-1s1,0.4,1,1v2C25,51.8,24.6,52.2,24,52.2z"/>
</g>
<line class="st0" x1="24" y1="57.2" x2="24" y2="55.2"/>
<line class="st0" x1="26" y1="53.2" x2="28" y2="53.2"/>
<line class="st0" x1="20" y1="53.2" x2="22" y2="53.2"/>
<g>
	<path d="M94.2,40.4c-0.3,0-0.5-0.1-0.7-0.3L92,38.8c-0.4-0.4-0.4-1,0-1.4c0.4-0.4,1-0.4,1.4,0l1.4,1.4c0.4,0.4,0.4,1,0,1.4
		C94.7,40.3,94.4,40.4,94.2,40.4z"/>
</g>
<g>
	<path d="M98.4,44.6c-0.3,0-0.5-0.1-0.7-0.3L96.3,43c-0.4-0.4-0.4-1,0-1.4c0.4-0.4,1-0.4,1.4,0l1.4,1.4c0.4,0.4,0.4,1,0,1.4
		C98.9,44.5,98.7,44.6,98.4,44.6z"/>
</g>
<g>
	<path d="M97,40.4c-0.3,0-0.5-0.1-0.7-0.3c-0.4-0.4-0.4-1,0-1.4l1.4-1.4c0.4-0.4,1-0.4,1.4,0c0.4,0.4,0.4,1,0,1.4l-1.4,1.4
		C97.5,40.3,97.2,40.4,97,40.4z"/>
</g>
<g>
	<path d="M92.8,44.7c-0.3,0-0.5-0.1-0.7-0.3c-0.4-0.4-0.4-1,0-1.4l1.4-1.4c0.4-0.4,1-0.4,1.4,0c0.4,0.4,0.4,1,0,1.4l-1.4,1.4
		C93.3,44.6,93,44.7,92.8,44.7z"/>
</g>
<g>
	<path d="M10.1,3.4c-0.3,0-0.5-0.1-0.7-0.3L8,1.8c-0.4-0.4-0.4-1,0-1.4c0.4-0.4,1-0.4,1.4,0l1.4,1.4c0.4,0.4,0.4,1,0,1.4
		C10.7,3.3,10.4,3.4,10.1,3.4z"/>
</g>
<g>
	<path d="M14.4,7.6c-0.3,0-0.5-0.1-0.7-0.3L12.3,6c-0.4-0.4-0.4-1,0-1.4c0.4-0.4,1-0.4,1.4,0l1.4,1.4c0.4,0.4,0.4,1,0,1.4
		C14.9,7.5,14.7,7.6,14.4,7.6z"/>
</g>
<g>
	<path d="M13,3.4c-0.3,0-0.5-0.1-0.7-0.3c-0.4-0.4-0.4-1,0-1.4l1.4-1.4c0.4-0.4,1-0.4,1.4,0c0.4,0.4,0.4,1,0,1.4l-1.4,1.4
		C13.5,3.3,13.2,3.4,13,3.4z"/>
</g>
<g>
	<path d="M8.8,7.7c-0.3,0-0.5-0.1-0.7-0.3C7.7,7,7.7,6.4,8.1,6l1.4-1.4c0.4-0.4,1-0.4,1.4,0c0.4,0.4,0.4,1,0,1.4L9.5,7.4
		C9.3,7.6,9,7.7,8.8,7.7z"/>
</g>
</svg>
