<?xml version="1.0" encoding="utf-8"?>
<!-- Generator: Adobe Illustrator 25.4.1, SVG Export Plug-In . SVG Version: 6.00 Build 0)  -->
<svg version="1.1" id="Layer_1" xmlns="http://www.w3.org/2000/svg" xmlns:xlink="http://www.w3.org/1999/xlink" x="0px" y="0px"
	 viewBox="0 0 120 108" style="enable-background:new 0 0 120 108;" xml:space="preserve">
<style type="text/css">
	.st0{fill:#FF6347;}
	.st1{fill:none;stroke:#000000;stroke-width:2;stroke-linecap:round;stroke-linejoin:round;}
</style>
<circle class="st0" cx="84" cy="44" r="9.2"/>
<path d="M82.4,36.9c4,0,7.2,3.2,7.2,7.2s-3.2,7.2-7.2,7.2s-7.2-3.2-7.2-7.2l0,0C75.2,40,78.5,36.9,82.4,36.9 M82.4,34.9
	c-5.1,0-9.2,4.1-9.2,9.2s4.1,9.2,9.2,9.2s9.2-4.1,9.2-9.2l0,0C91.6,39,87.5,34.9,82.4,34.9z"/>
<line class="st1" x1="82.4" y1="25.6" x2="82.4" y2="30.2"/>
<line class="st1" x1="64.3" y1="44" x2="68.9" y2="44"/>
<line class="st1" x1="82.6" y1="62.2" x2="82.7" y2="57.7"/>
<line class="st1" x1="101" y1="44.2" x2="96.4" y2="44"/>
<line class="st1" x1="69.4" y1="31.2" x2="72.7" y2="34.5"/>
<line class="st1" x1="69.8" y1="57" x2="73.1" y2="53.9"/>
<line class="st1" x1="95.7" y1="56.9" x2="92.4" y2="53.5"/>
<line class="st1" x1="95.7" y1="31.1" x2="92.4" y2="34.2"/>
<path class="st1" d="M65.3,90.9h35.2c1.3,0,2.3-1,2.3-2.3c0-0.3,0-0.5-0.1-0.8l-5.3-15.9c-0.3-1-1.2-1.6-2.2-1.6H71.1
	c-1,0-1.9,0.6-2.2,1.6l-5.8,15.9c-0.4,1.2,0.2,2.6,1.4,3C64.8,90.9,65.1,90.9,65.3,90.9z"/>
<line class="st1" x1="67.2" y1="77.1" x2="98.7" y2="77.1"/>
<line class="st1" x1="64.9" y1="83.4" x2="101" y2="83.4"/>
<line class="st1" x1="78.4" y1="70.9" x2="76.1" y2="90.4"/>
<line class="st1" x1="88.1" y1="70.9" x2="89.8" y2="90.4"/>
<path class="st1" d="M79.4,91.6L79.4,91.6c0,2.5-1.2,4.9-3.3,6.3l-0.4,0.3"/>
<path class="st1" d="M86.5,91.6L86.5,91.6c0,2.5,1.2,4.9,3.3,6.3l0.4,0.3"/>
<line class="st1" x1="109" y1="98.1" x2="13" y2="98.1"/>
<polyline class="st1" points="13,97.6 13,1.6 50,1.6 50,97.6 "/>
<rect x="26" y="74.1" class="st1" width="10" height="24"/>
<rect x="18" y="5.6" class="st1" width="7" height="7"/>
<rect x="38" y="5.6" class="st1" width="7" height="7"/>
<rect x="18" y="17.6" class="st1" width="7" height="7"/>
<rect x="38" y="17.6" class="st1" width="7" height="7"/>
<rect x="18" y="29.6" class="st1" width="7" height="7"/>
<rect x="38" y="29.6" class="st1" width="7" height="7"/>
<rect x="18" y="41.5" class="st1" width="7" height="7"/>
<rect x="38" y="41.5" class="st1" width="7" height="7"/>
<rect x="18" y="53.5" class="st1" width="7" height="7"/>
<rect x="38" y="53.5" class="st1" width="7" height="7"/>
</svg>
