<?xml version="1.0" encoding="utf-8"?>
<!-- Generator: Adobe Illustrator 25.4.1, SVG Export Plug-In . SVG Version: 6.00 Build 0)  -->
<svg version="1.1" id="Layer_1" xmlns="http://www.w3.org/2000/svg" xmlns:xlink="http://www.w3.org/1999/xlink" x="0px" y="0px"
	 viewBox="0 0 120 117.7" style="enable-background:new 0 0 120 117.7;" xml:space="preserve">
<style type="text/css">
	.st0{fill:#FF6248;}
	.st1{fill:none;stroke:#000000;stroke-width:2;stroke-linecap:round;stroke-linejoin:round;}
</style>
<path class="st0" d="M76.7,41.4c4,4.1,7,9,8.8,14.4c2.3-3.3,3.5-7.2,3.5-11.2c0-10.4-7.9-18.9-17.7-18.9c-5,0-11.1,2.5-14.3,6
	C63.9,33.1,71.8,36.4,76.7,41.4z"/>
<line class="st1" x1="109" y1="108.2" x2="13" y2="108.2"/>
<path class="st1" d="M58,107.5l16.8-1.1c12.8-0.7,22.7-11.5,22.2-24.3l-0.3-14.9L82,67.8c-12.1,0.3-22,9.9-22.8,22L58,107.5z"/>
<line class="st1" x1="59.4" y1="106.4" x2="80.9" y2="84.7"/>
<line class="st1" x1="67.6" y1="96.9" x2="68.3" y2="86"/>
<line class="st1" x1="68.4" y1="97.7" x2="79.3" y2="96.9"/>
<path class="st1" d="M55,94.7c-17.1,0-31-13.9-31-31s13.9-31,31-31s31,13.9,31,31"/>
<path class="st1" d="M32,43.7c0,0,3,5,6,9c2.8,3.9,2.8,9.1,0,13c-4,6-6,10-4,14l5,10"/>
<path class="st1" d="M83,51.7c0,0-15,1-21,8s0,20,0,20"/>
<path class="st1" d="M38,37.7c2-1.2,4.5-0.7,6,1c3,3,2,6,2,6s1,3,2,2s0-6,2-8s6-2,6-2l4.7-3.7c6.8-7,17.9-7.2,24.9-0.5
	c6.4,6.2,7.2,16.1,1.9,23.2"/>
<path class="st1" d="M79,44.7c-1,0-4,2-4,2l-5-3c0,0,3-4,2-5"/>
<path class="st1" d="M41,44.7c0,0,4,5,5,6h3l-3,2l-5-3V44.7z"/>
<line class="st1" x1="56" y1="43.7" x2="57" y2="41.7"/>
<line class="st1" x1="74" y1="22.7" x2="74" y2="1.7"/>
<line class="st1" x1="63.8" y1="25.2" x2="51.1" y2="1.1"/>
<line class="st1" x1="50" y1="28.7" x2="38.6" y2="20.3"/>
<line class="st1" x1="88.7" y1="61.1" x2="92" y2="64.7"/>
<line class="st1" x1="94.6" y1="52.4" x2="106" y2="57.7"/>
<line class="st1" x1="95.8" y1="41.9" x2="116.7" y2="39.3"/>
<line class="st1" x1="92" y1="32.1" x2="116.8" y2="14.8"/>
<line class="st1" x1="84.1" y1="25.1" x2="96.4" y2="1.4"/>
</svg>
