<svg xmlns="http://www.w3.org/2000/svg" viewBox="0 0 120 108"><circle cx="56" cy="18.8" r="18" style="fill:tomato"/><path d="M103.15,99.2H75.45l-6-13.4-.9-22.2h0l-.6-14,10.1,7.1h-1a.89.89,0,0,0-.8,1,.86.86,0,0,0,.8.8h6.7a.89.89,0,0,0,.8-1,.86.86,0,0,0-.8-.8h-2.5l-13.5-9.5-.5-12.1,5.9,4.1h-.9a.89.89,0,0,0-.8,1,.86.86,0,0,0,.8.8H79a.89.89,0,0,0,.8-1,.86.86,0,0,0-.8-.8h-2.5l-9.6-6.7-4.2-3.3a.78.78,0,0,0-1.1,0l-4.2,3.3-9.6,6.7h-2.5a.89.89,0,0,0-.8,1,.86.86,0,0,0,.8.8H52a.89.89,0,0,0,.8-1,.86.86,0,0,0-.8-.8h-.9L57,35.1l-.5,12.1L43,56.7h-2.5a.89.89,0,0,0-.8,1,.86.86,0,0,0,.8.8h6.6a.89.89,0,0,0,.8-1,.86.86,0,0,0-.8-.8h-1l10.2-7.1-.6,14h0l-.9,22.2-6,13.4H21a.89.89,0,0,0-.8,1,.86.86,0,0,0,.8.8h82.2a.89.89,0,0,0,.8-1c0-.4-.4-.7-.8-.8ZM61,40.2l-2.7,4.2.3-8Zm4.5-3.8.3,8-2.7-4.2Zm.2,50.7-3.6,2.5L58.45,87h7.2Zm-8.5-1.9,4.9-9.2L67,85.2Zm11,2.4,4.4,9.9-8.9-6.6Zm-5-13.6,3.7-6.9.6,15Zm-1-2-4.4-8.3,4.3-6.8,4.4,6.8Zm1.1-16.8,2.8-4.5.4,9.6Zm2.6-7.5-3.8,5.7-3.7-5.7,3.7-5.9Zm-4.8,7.5-3.3,5.1.3-9.6Zm0,18.8-4.3,8.1.6-15Zm-5,13.5,4.5,3.3-8.9,6.6Zm6,4.5,10,7.3h-20Zm0-60.8,3,2.3-3,4.8-3-4.8Z" style="fill:#1a1a1a"/><path d="M60,38A19,19,0,1,1,79,19,19,19,0,0,1,60,38ZM60,2A17,17,0,1,0,77,19,17,17,0,0,0,60,2Z" style="fill:#1a1a1a"/></svg>