<?xml version="1.0" encoding="utf-8"?>
<!-- Generator: Adobe Illustrator 25.4.1, SVG Export Plug-In . SVG Version: 6.00 Build 0)  -->
<svg version="1.1" id="Layer_1" xmlns="http://www.w3.org/2000/svg" xmlns:xlink="http://www.w3.org/1999/xlink" x="0px" y="0px"
	 viewBox="0 0 120 120" style="enable-background:new 0 0 120 120;" xml:space="preserve">
<style type="text/css">
	.st0{fill:none;stroke:#FF6347;stroke-width:20;stroke-miterlimit:10;}
	.st1{fill:none;stroke:#000000;stroke-width:2;stroke-linecap:round;stroke-linejoin:round;}
	.st2{fill:#F7F6F1;stroke:#000000;stroke-width:2;stroke-linecap:round;stroke-linejoin:round;}
</style>
<polyline class="st0" points="29,53.5 45.5,70 81.5,34 "/>
<polygon class="st1" points="39.9,84 16.4,60.4 30.5,46.3 39.9,55.7 68.9,26.8 83,40.9 "/>
<line class="st1" x1="109" y1="110.6" x2="13" y2="110.6"/>
<polygon class="st1" points="74,84.2 72,97.5 83.8,91.1 "/>
<rect x="28.7" y="63.2" transform="matrix(0.7727 -0.6347 0.6347 0.7727 -29.3002 56.4972)" class="st1" width="71" height="12"/>
<line class="st1" x1="41" y1="81.1" x2="44.2" y2="85"/>
<line class="st1" x1="51.1" y1="72.8" x2="52.4" y2="74.4"/>
<line class="st1" x1="69.6" y1="57.6" x2="70.9" y2="59.2"/>
<line class="st1" x1="60.4" y1="65.2" x2="63.5" y2="69.1"/>
<line class="st1" x1="79.7" y1="49.4" x2="82.9" y2="53.2"/>
<circle cx="41.6" cy="90.4" r="1.5"/>
<path class="st1" d="M34.2,14h56.6c4.5,0,8.2,3.7,8.2,8.2v79.6c0,4.5-3.7,8.2-8.2,8.2H34.2c-4.5,0-8.2-3.7-8.2-8.2V22.2
	C26,17.7,29.7,14,34.2,14z"/>
<line class="st1" x1="38" y1="38" x2="86" y2="38"/>
<line class="st1" x1="50" y1="26" x2="74" y2="26"/>
<path class="st2" d="M101.1,48.3l7.2,5.1c0.7,0.5,0.9,1.5,0.4,2.2v0l-25,35.5l0,0L74,84.2l0,0l25-35.5
	C99.5,48,100.4,47.8,101.1,48.3z"/>
<line class="st1" x1="94.7" y1="54.7" x2="104.5" y2="61.6"/>
</svg>
