<svg xmlns="http://www.w3.org/2000/svg" viewBox="0 0 120 120"><circle cx="75" cy="33" r="22" style="fill:#ff6248"/><circle cx="74.5" cy="33" r="22" style="fill:none;stroke:#000;stroke-linecap:round;stroke-linejoin:round;stroke-width:2px"/><circle cx="75" cy="33" r="24" style="fill:none;stroke:#000;stroke-linecap:round;stroke-linejoin:round;stroke-width:2px"/><polyline points="37 110 37 75 84 75 84 110" style="fill:none;stroke:#000;stroke-linecap:round;stroke-linejoin:round;stroke-width:2px"/><polyline points="37 75 60 49 84 75" style="fill:none;stroke:#000;stroke-linecap:round;stroke-linejoin:round;stroke-width:2px"/><line x1="69" y1="52" x2="79" y2="63" style="fill:none;stroke:#000;stroke-linecap:round;stroke-linejoin:round;stroke-width:2px"/><line x1="73" y1="50" x2="88" y2="67" style="fill:none;stroke:#000;stroke-linecap:round;stroke-linejoin:round;stroke-width:2px"/><rect x="48" y="86" width="11.5" height="12" style="fill:none;stroke:#000;stroke-linecap:round;stroke-linejoin:round;stroke-width:2px"/><rect x="59.5" y="86" width="11.5" height="12" style="fill:none;stroke:#000;stroke-linecap:round;stroke-linejoin:round;stroke-width:2px"/><circle cx="60.5" cy="62.5" r="2.5" style="fill:#ff6248"/><circle cx="58.5" cy="62.5" r="2.5" style="fill:none;stroke:#000;stroke-linecap:round;stroke-linejoin:round;stroke-width:2px"/><circle cx="74.5" cy="33" r="11" style="fill:none;stroke:#000;stroke-linecap:round;stroke-linejoin:round;stroke-width:2px"/><line x1="108" y1="110.57" x2="12" y2="110.57" style="fill:none;stroke:#000;stroke-linecap:round;stroke-linejoin:round;stroke-width:2px"/><path d="M76.9,30.09a3.29,3.29,0,0,0-2.74-1.24c-1.31,0-2.73.5-2.71,1.73s1.31,1.36,2.77,1.56c2.25.32,4.65.87,4.65,3.39,0,2.12-1.89,3.21-3.81,3.34v1.57H73.39V38.93a4.73,4.73,0,0,1-4.11-2.46l1.49-.79c.49,1.09,2,1.67,3.34,1.67S77,37,77,35.53c0-1.2-1.43-1.56-3-1.78-2.19-.29-4.35-.68-4.36-3.15,0-2.07,1.89-3,3.7-3.18V26h1.68v1.42a3.84,3.84,0,0,1,3.25,1.92Z"/><line x1="74" y1="9" x2="74" y2="8" style="fill:none;stroke:#000;stroke-linecap:round;stroke-linejoin:round;stroke-width:2px"/><line x1="70.16" y1="9.47" x2="70" y2="8.48" style="fill:none;stroke:#000;stroke-linecap:round;stroke-linejoin:round;stroke-width:2px"/><line x1="66.45" y1="10.55" x2="66.13" y2="9.61" style="fill:none;stroke:#000;stroke-linecap:round;stroke-linejoin:round;stroke-width:2px"/><line x1="62.95" y1="12.22" x2="62.49" y2="11.33" style="fill:none;stroke:#000;stroke-linecap:round;stroke-linejoin:round;stroke-width:2px"/><line x1="59.77" y1="14.42" x2="59.17" y2="13.62" style="fill:none;stroke:#000;stroke-linecap:round;stroke-linejoin:round;stroke-width:2px"/><line x1="56.99" y1="17.11" x2="56.27" y2="16.41" style="fill:none;stroke:#000;stroke-linecap:round;stroke-linejoin:round;stroke-width:2px"/><line x1="54.67" y1="20.2" x2="53.85" y2="19.64" style="fill:none;stroke:#000;stroke-linecap:round;stroke-linejoin:round;stroke-width:2px"/><line x1="52.88" y1="23.63" x2="51.98" y2="23.2" style="fill:none;stroke:#000;stroke-linecap:round;stroke-linejoin:round;stroke-width:2px"/><line x1="51.66" y1="27.3" x2="50.7" y2="27.03" style="fill:none;stroke:#000;stroke-linecap:round;stroke-linejoin:round;stroke-width:2px"/><line x1="51.05" y1="31.12" x2="50.06" y2="31" style="fill:none;stroke:#000;stroke-linecap:round;stroke-linejoin:round;stroke-width:2px"/><line x1="51.06" y1="34.99" x2="50.06" y2="35.03" style="fill:none;stroke:#000;stroke-linecap:round;stroke-linejoin:round;stroke-width:2px"/><line x1="51.69" y1="38.81" x2="50.71" y2="39.01" style="fill:none;stroke:#000;stroke-linecap:round;stroke-linejoin:round;stroke-width:2px"/><line x1="52.93" y1="42.47" x2="51.99" y2="42.83" style="fill:none;stroke:#000;stroke-linecap:round;stroke-linejoin:round;stroke-width:2px"/><line x1="54.73" y1="45.89" x2="53.87" y2="46.4" style="fill:none;stroke:#000;stroke-linecap:round;stroke-linejoin:round;stroke-width:2px"/><line x1="57.07" y1="48.98" x2="56.29" y2="49.61" style="fill:none;stroke:#000;stroke-linecap:round;stroke-linejoin:round;stroke-width:2px"/><line x1="59.86" y1="51.65" x2="59.2" y2="52.4" style="fill:none;stroke:#000;stroke-linecap:round;stroke-linejoin:round;stroke-width:2px"/><line x1="63.05" y1="53.84" x2="62.52" y2="54.69" style="fill:none;stroke:#000;stroke-linecap:round;stroke-linejoin:round;stroke-width:2px"/><line x1="66.55" y1="55.49" x2="66.16" y2="56.41" style="fill:none;stroke:#000;stroke-linecap:round;stroke-linejoin:round;stroke-width:2px"/><line x1="70.27" y1="56.55" x2="70.04" y2="57.52" style="fill:none;stroke:#000;stroke-linecap:round;stroke-linejoin:round;stroke-width:2px"/><line x1="74.12" y1="57" x2="74.04" y2="58" style="fill:none;stroke:#000;stroke-linecap:round;stroke-linejoin:round;stroke-width:2px"/><line x1="77.98" y1="56.84" x2="78.06" y2="57.83" style="fill:none;stroke:#000;stroke-linecap:round;stroke-linejoin:round;stroke-width:2px"/><line x1="81.77" y1="56.05" x2="82.01" y2="57.02" style="fill:none;stroke:#000;stroke-linecap:round;stroke-linejoin:round;stroke-width:2px"/><line x1="85.38" y1="54.66" x2="85.77" y2="55.58" style="fill:none;stroke:#000;stroke-linecap:round;stroke-linejoin:round;stroke-width:2px"/><line x1="88.72" y1="52.72" x2="89.26" y2="53.56" style="fill:none;stroke:#000;stroke-linecap:round;stroke-linejoin:round;stroke-width:2px"/><line x1="91.71" y1="50.26" x2="92.37" y2="51" style="fill:none;stroke:#000;stroke-linecap:round;stroke-linejoin:round;stroke-width:2px"/><line x1="94.26" y1="47.35" x2="95.04" y2="47.98" style="fill:none;stroke:#000;stroke-linecap:round;stroke-linejoin:round;stroke-width:2px"/><line x1="96.32" y1="44.07" x2="97.18" y2="44.57" style="fill:none;stroke:#000;stroke-linecap:round;stroke-linejoin:round;stroke-width:2px"/><line x1="97.82" y1="40.51" x2="98.75" y2="40.86" style="fill:none;stroke:#000;stroke-linecap:round;stroke-linejoin:round;stroke-width:2px"/><line x1="98.73" y1="36.75" x2="99.71" y2="36.95" style="fill:none;stroke:#000;stroke-linecap:round;stroke-linejoin:round;stroke-width:2px"/><line x1="99.02" y1="32.89" x2="100.02" y2="32.93" style="fill:none;stroke:#000;stroke-linecap:round;stroke-linejoin:round;stroke-width:2px"/><line x1="98.69" y1="29.04" x2="99.68" y2="28.91" style="fill:none;stroke:#000;stroke-linecap:round;stroke-linejoin:round;stroke-width:2px"/><line x1="97.75" y1="25.29" x2="98.71" y2="25" style="fill:none;stroke:#000;stroke-linecap:round;stroke-linejoin:round;stroke-width:2px"/><line x1="96.22" y1="21.73" x2="97.12" y2="21.3" style="fill:none;stroke:#000;stroke-linecap:round;stroke-linejoin:round;stroke-width:2px"/><line x1="94.13" y1="18.47" x2="94.95" y2="17.9" style="fill:none;stroke:#000;stroke-linecap:round;stroke-linejoin:round;stroke-width:2px"/><line x1="91.55" y1="15.59" x2="92.27" y2="14.9" style="fill:none;stroke:#000;stroke-linecap:round;stroke-linejoin:round;stroke-width:2px"/><line x1="88.54" y1="13.16" x2="89.14" y2="12.36" style="fill:none;stroke:#000;stroke-linecap:round;stroke-linejoin:round;stroke-width:2px"/><line x1="85.18" y1="11.24" x2="85.64" y2="10.36" style="fill:none;stroke:#000;stroke-linecap:round;stroke-linejoin:round;stroke-width:2px"/><line x1="81.56" y1="9.89" x2="81.87" y2="8.94" style="fill:none;stroke:#000;stroke-linecap:round;stroke-linejoin:round;stroke-width:2px"/><line x1="77.76" y1="9.14" x2="77.92" y2="8.15" style="fill:none;stroke:#000;stroke-linecap:round;stroke-linejoin:round;stroke-width:2px"/><line x1="73.9" y1="9" x2="73.89" y2="8" style="fill:none;stroke:#000;stroke-linecap:round;stroke-linejoin:round;stroke-width:2px"/></svg>