<svg xmlns="http://www.w3.org/2000/svg" viewBox="0 0 120 120"><line x1="108" y1="110.57" x2="12" y2="110.57" style="fill:none;stroke:#000;stroke-linecap:round;stroke-linejoin:round;stroke-width:2px"/><path d="M29.26,98H90.74a4.1,4.1,0,0,0,3.89-5.39L85.36,64.8A4.1,4.1,0,0,0,81.47,62H39.3a4.08,4.08,0,0,0-3.85,2.7l-10,27.81A4.09,4.09,0,0,0,29.26,98Z" style="fill:none;stroke:#000;stroke-linecap:round;stroke-linejoin:round;stroke-width:2px"/><line x1="32.5" y1="74" x2="87.5" y2="74" style="fill:none;stroke:#000;stroke-linecap:round;stroke-linejoin:round;stroke-width:2px"/><line x1="28.5" y1="84.67" x2="91.5" y2="85" style="fill:none;stroke:#000;stroke-linecap:round;stroke-linejoin:round;stroke-width:2px"/><line x1="52" y1="63" x2="48" y2="97" style="fill:none;stroke:#000;stroke-linecap:round;stroke-linejoin:round;stroke-width:2px"/><line x1="69" y1="63" x2="72" y2="97" style="fill:none;stroke:#000;stroke-linecap:round;stroke-linejoin:round;stroke-width:2px"/><path d="M53.75,99h0A13.34,13.34,0,0,1,48,110l-.74.52" style="fill:none;stroke:#000;stroke-linecap:round;stroke-linejoin:round;stroke-width:2px"/><path d="M66.25,99h0A13.34,13.34,0,0,0,72,110l.74.52" style="fill:none;stroke:#000;stroke-linecap:round;stroke-linejoin:round;stroke-width:2px"/><circle cx="61.13" cy="31.72" r="9.21" style="fill:tomato"/><path d="M59.59,24.51a7.22,7.22,0,1,1-7.21,7.21,7.22,7.22,0,0,1,7.21-7.21m0-2a9.22,9.22,0,1,0,9.21,9.21,9.21,9.21,0,0,0-9.21-9.21Z"/><line x1="59.59" y1="13.3" x2="59.59" y2="17.91" style="fill:none;stroke:#000;stroke-linecap:round;stroke-linejoin:round;stroke-width:2px"/><line x1="41.46" y1="31.73" x2="46.07" y2="31.77" style="fill:none;stroke:#000;stroke-linecap:round;stroke-linejoin:round;stroke-width:2px"/><line x1="59.75" y1="50" x2="59.82" y2="45.4" style="fill:none;stroke:#000;stroke-linecap:round;stroke-linejoin:round;stroke-width:2px"/><line x1="78.16" y1="31.85" x2="73.55" y2="31.74" style="fill:none;stroke:#000;stroke-linecap:round;stroke-linejoin:round;stroke-width:2px"/><line x1="46.59" y1="18.92" x2="49.87" y2="22.16" style="fill:none;stroke:#000;stroke-linecap:round;stroke-linejoin:round;stroke-width:2px"/><line x1="46.98" y1="44.77" x2="50.24" y2="41.52" style="fill:none;stroke:#000;stroke-linecap:round;stroke-linejoin:round;stroke-width:2px"/><line x1="72.83" y1="44.58" x2="69.6" y2="41.29" style="fill:none;stroke:#000;stroke-linecap:round;stroke-linejoin:round;stroke-width:2px"/><line x1="72.83" y1="18.72" x2="69.52" y2="21.93" style="fill:none;stroke:#000;stroke-linecap:round;stroke-linejoin:round;stroke-width:2px"/><line x1="107" y1="14" x2="107" y2="12" style="fill:none;stroke:#000;stroke-linecap:round;stroke-linejoin:round;stroke-width:2px"/><line x1="107" y1="20" x2="107" y2="18" style="fill:none;stroke:#000;stroke-linecap:round;stroke-linejoin:round;stroke-width:2px"/><line x1="109" y1="16" x2="111" y2="16" style="fill:none;stroke:#000;stroke-linecap:round;stroke-linejoin:round;stroke-width:2px"/><line x1="103" y1="16" x2="105" y2="16" style="fill:none;stroke:#000;stroke-linecap:round;stroke-linejoin:round;stroke-width:2px"/><line x1="24" y1="60" x2="24" y2="58" style="fill:none;stroke:#000;stroke-linecap:round;stroke-linejoin:round;stroke-width:2px"/><line x1="24" y1="66" x2="24" y2="64" style="fill:none;stroke:#000;stroke-linecap:round;stroke-linejoin:round;stroke-width:2px"/><line x1="26" y1="62" x2="28" y2="62" style="fill:none;stroke:#000;stroke-linecap:round;stroke-linejoin:round;stroke-width:2px"/><line x1="20" y1="62" x2="22" y2="62" style="fill:none;stroke:#000;stroke-linecap:round;stroke-linejoin:round;stroke-width:2px"/><line x1="94.15" y1="48.19" x2="92.73" y2="46.79" style="fill:none;stroke:#000;stroke-linecap:round;stroke-linejoin:round;stroke-width:2px"/><line x1="98.42" y1="52.4" x2="97" y2="51" style="fill:none;stroke:#000;stroke-linecap:round;stroke-linejoin:round;stroke-width:2px"/><line x1="96.98" y1="48.17" x2="98.38" y2="46.75" style="fill:none;stroke:#000;stroke-linecap:round;stroke-linejoin:round;stroke-width:2px"/><line x1="92.77" y1="52.44" x2="94.17" y2="51.02" style="fill:none;stroke:#000;stroke-linecap:round;stroke-linejoin:round;stroke-width:2px"/><line x1="10.15" y1="11.19" x2="8.73" y2="9.79" style="fill:none;stroke:#000;stroke-linecap:round;stroke-linejoin:round;stroke-width:2px"/><line x1="14.42" y1="15.4" x2="13" y2="14" style="fill:none;stroke:#000;stroke-linecap:round;stroke-linejoin:round;stroke-width:2px"/><line x1="12.98" y1="11.17" x2="14.38" y2="9.75" style="fill:none;stroke:#000;stroke-linecap:round;stroke-linejoin:round;stroke-width:2px"/><line x1="8.77" y1="15.44" x2="10.17" y2="14.02" style="fill:none;stroke:#000;stroke-linecap:round;stroke-linejoin:round;stroke-width:2px"/></svg>