<?xml version="1.0" encoding="utf-8"?>
<!-- Generator: Adobe Illustrator 25.4.1, SVG Export Plug-In . SVG Version: 6.00 Build 0)  -->
<svg version="1.1" id="Layer_1" xmlns="http://www.w3.org/2000/svg" xmlns:xlink="http://www.w3.org/1999/xlink" x="0px" y="0px"
	 viewBox="0 0 120 108" style="enable-background:new 0 0 120 108;" xml:space="preserve">
<style type="text/css">
	.st0{fill:#FF6347;}
	.st1{fill:#1A1A1A;}
</style>
<circle class="st0" cx="56" cy="18.8" r="18"/>
<path class="st1" d="M103.1,101.8H75.4l-6-13.4l-0.9-22.2l0,0l-0.6-14L78,59.3h-1c-0.5,0.1-0.9,0.5-0.8,1c0,0.4,0.4,0.8,0.8,0.8h6.7
	c0.5-0.1,0.9-0.5,0.8-1c0-0.4-0.4-0.8-0.8-0.8h-2.5l-13.5-9.5l-0.5-12.1l5.9,4.1h-0.9c-0.5,0.1-0.9,0.5-0.8,1c0,0.4,0.4,0.8,0.8,0.8
	h6.7c0.5-0.1,0.9-0.5,0.8-1c0-0.4-0.4-0.8-0.8-0.8h-2.5l-9.6-6.7l-4.2-3.3c-0.3-0.3-0.8-0.3-1.1,0l-4.2,3.3l-9.6,6.7h-2.5
	c-0.5,0.1-0.9,0.5-0.8,1c0,0.4,0.4,0.8,0.8,0.8h6.7c0.5-0.1,0.9-0.5,0.8-1c0-0.4-0.4-0.8-0.8-0.8H51l5.9-4.1l-0.5,12.1l-13.5,9.5
	h-2.5c-0.5,0.1-0.9,0.5-0.8,1c0,0.4,0.4,0.8,0.8,0.8H47c0.5-0.1,0.9-0.5,0.8-1c0-0.4-0.4-0.8-0.8-0.8h-1l10.2-7.1l-0.6,14l0,0
	l-0.9,22.2l-6,13.4H20.9c-0.5,0.1-0.9,0.5-0.8,1c0,0.4,0.4,0.8,0.8,0.8h82.2c0.5-0.1,0.9-0.5,0.8-1
	C103.9,102.2,103.5,101.9,103.1,101.8L103.1,101.8z M60.9,42.8L58.2,47l0.3-8L60.9,42.8z M65.4,39l0.3,8L63,42.8L65.4,39z
	 M65.6,89.7L62,92.2l-3.6-2.6H65.6z M57.1,87.8l4.9-9.2l4.9,9.2H57.1z M68.1,90.2l4.4,9.9l-8.9-6.6L68.1,90.2z M63.1,76.6l3.7-6.9
	l0.6,15L63.1,76.6z M62.1,74.6l-4.4-8.3l4.3-6.8l4.4,6.8L62.1,74.6z M63.2,57.8l2.8-4.5l0.4,9.6L63.2,57.8z M65.8,50.3L62,56
	l-3.7-5.7l3.7-5.9L65.8,50.3z M61,57.8l-3.3,5.1l0.3-9.6L61,57.8z M61,76.6l-4.3,8.1l0.6-15L61,76.6z M56,90.1l4.5,3.3l-8.9,6.6
	L56,90.1z M62,94.6l10,7.3H52L62,94.6z M62,33.8l3,2.3l-3,4.8l-3-4.8L62,33.8z"/>
<g>
	<path class="st1" d="M60,38c-10.5,0-19-8.5-19-19S49.5,0,60,0s19,8.5,19,19S70.5,38,60,38z M60,2c-9.4,0-17,7.6-17,17s7.6,17,17,17
		s17-7.6,17-17S69.4,2,60,2z"/>
</g>
</svg>
