<svg xmlns="http://www.w3.org/2000/svg" viewBox="0 0 120 120"><rect x="35.11" y="78.92" width="12.24" height="8.94" rx="2.29" style="fill:tomato"/><path d="M83.94,114H44.24a1,1,0,0,1,0-2h39.7a1,1,0,0,1,0,2Z"/><path d="M75.71,51.86h3.58v3.59a1.54,1.54,0,0,0,3.08,0V51.86H86a1.54,1.54,0,0,0,0-3.07H82.37V45.2a1.54,1.54,0,0,0-3.08,0v3.59H75.71a1.54,1.54,0,1,0,0,3.07Z" style="fill:#1a1a1a"/><path d="M67.81,112H61.14a1,1,0,1,0,0,2h6.67a1,1,0,0,0,0-2Z" style="fill:#1a1a1a"/><path d="M12.51,31.34a1,1,0,0,1-.71-1.71L13,28.48a1,1,0,0,1,1.42,0,1,1,0,0,1,0,1.41L13.22,31A1,1,0,0,1,12.51,31.34Z"/><path d="M18.72,25.12a1,1,0,0,1-.7-1.71l1.15-1.15a1,1,0,0,1,1.41,1.41l-1.15,1.16A1,1,0,0,1,18.72,25.12Z"/><path d="M19.88,31.34a1,1,0,0,1-.71-.3L18,29.89a1,1,0,0,1,1.41-1.41l1.15,1.15a1,1,0,0,1,0,1.41A1,1,0,0,1,19.88,31.34Z"/><path d="M13.66,25.12a1,1,0,0,1-.71-.29L11.8,23.67a1,1,0,0,1,0-1.41,1,1,0,0,1,1.42,0l1.15,1.15a1,1,0,0,1,0,1.42A1,1,0,0,1,13.66,25.12Z"/><path d="M98.52,44a1,1,0,0,1-.71-1.71L99,41.14a1,1,0,0,1,1.41,0,1,1,0,0,1,0,1.42l-1.15,1.15A1,1,0,0,1,98.52,44Z"/><path d="M104.73,37.78a1,1,0,0,1-.71-.29,1,1,0,0,1,0-1.41l1.16-1.15a1,1,0,0,1,1.41,1.41l-1.15,1.15A1,1,0,0,1,104.73,37.78Z"/><path d="M105.88,44a1,1,0,0,1-.7-.29L104,42.56a1,1,0,1,1,1.42-1.42l1.15,1.15a1,1,0,0,1,0,1.42A1,1,0,0,1,105.88,44Z"/><path d="M99.67,37.78a1,1,0,0,1-.71-.29l-1.15-1.15a1,1,0,0,1,1.41-1.41l1.15,1.15a1,1,0,0,1,0,1.41A1,1,0,0,1,99.67,37.78Z"/><path d="M11.54,108.35a1,1,0,0,1-.7-.29,1,1,0,0,1,0-1.42L12,105.49a1,1,0,0,1,1.41,0,1,1,0,0,1,0,1.42l-1.15,1.15A1,1,0,0,1,11.54,108.35Z"/><path d="M17.76,102.14a1,1,0,0,1-.71-1.71l1.15-1.15a1,1,0,0,1,1.42,0,1,1,0,0,1,0,1.41l-1.16,1.15A1,1,0,0,1,17.76,102.14Z"/><path d="M18.91,108.35a1,1,0,0,1-.71-.29l-1.15-1.15a1,1,0,0,1,0-1.42,1,1,0,0,1,1.41,0l1.16,1.15a1,1,0,0,1,0,1.42A1,1,0,0,1,18.91,108.35Z"/><path d="M12.69,102.14a1,1,0,0,1-.7-.3l-1.15-1.15a1,1,0,0,1,0-1.41,1,1,0,0,1,1.41,0l1.15,1.15a1,1,0,0,1,0,1.41A1,1,0,0,1,12.69,102.14Z"/><rect x="27.87" y="65.79" width="73.82" height="46.84" rx="5.7" style="fill:none;stroke:#000;stroke-linecap:round;stroke-linejoin:round;stroke-width:2px"/><line x1="37.45" y1="95.54" x2="45.02" y2="95.54" style="fill:none;stroke:#000;stroke-linecap:round;stroke-linejoin:round;stroke-width:2px"/><rect x="37.45" y="76.14" width="12.24" height="8.94" rx="2.29" style="fill:none;stroke:#000;stroke-linecap:round;stroke-linejoin:round;stroke-width:2px"/><line x1="53.15" y1="95.54" x2="60.71" y2="95.54" style="fill:none;stroke:#000;stroke-linecap:round;stroke-linejoin:round;stroke-width:2px"/><line x1="68.84" y1="95.54" x2="76.41" y2="95.54" style="fill:none;stroke:#000;stroke-linecap:round;stroke-linejoin:round;stroke-width:2px"/><line x1="84.54" y1="95.54" x2="92.11" y2="95.54" style="fill:none;stroke:#000;stroke-linecap:round;stroke-linejoin:round;stroke-width:2px"/><line x1="37.45" y1="102.49" x2="55.93" y2="102.49" style="fill:none;stroke:#000;stroke-linecap:round;stroke-linejoin:round;stroke-width:2px"/><line x1="63.87" y1="102.49" x2="73.08" y2="102.49" style="fill:none;stroke:#000;stroke-linecap:round;stroke-linejoin:round;stroke-width:2px"/><path d="M56.8,83.2a3.38,3.38,0,0,0,0-5.17" style="fill:none;stroke:#000;stroke-linecap:round;stroke-linejoin:round;stroke-width:2px"/><path d="M61.1,87a8.64,8.64,0,0,0,0-12.69" style="fill:none;stroke:#000;stroke-linecap:round;stroke-linejoin:round;stroke-width:2px"/><path d="M27.87,94.15l-6-27.34A5.7,5.7,0,0,1,26.16,60l61-13.47a5.71,5.71,0,0,1,6.8,4.34l3.33,15.06" style="fill:none;stroke:#000;stroke-linecap:round;stroke-linejoin:round;stroke-width:2px"/></svg>