<?xml version="1.0" encoding="utf-8"?>
<!-- Generator: Adobe Illustrator 25.4.1, SVG Export Plug-In . SVG Version: 6.00 Build 0)  -->
<svg version="1.1" id="Layer_1" xmlns="http://www.w3.org/2000/svg" xmlns:xlink="http://www.w3.org/1999/xlink" x="0px" y="0px"
	 viewBox="0 0 120 120" style="enable-background:new 0 0 120 120;" xml:space="preserve">
<style type="text/css">
	.st0{fill:none;stroke:#000000;stroke-width:2;stroke-linecap:round;stroke-linejoin:round;}
	.st1{fill:#F7F6F1;stroke:#1A1A1A;stroke-width:2;stroke-miterlimit:10;}
	.st2{fill:none;stroke:#1A1A1A;stroke-width:2;stroke-miterlimit:10;}
	.st3{fill:#FFFFFF;stroke:#1A1A1A;stroke-width:2;stroke-miterlimit:10;}
	.st4{fill:#FF6347;}
</style>
<path class="st0" d="M76.9,108H101c3.3,0,5.9-2.8,5.9-6.1V35.4c0-2.4-1.9-4.3-4.3-4.4c0,0,0,0,0,0H92"/>
<line class="st0" x1="107.9" y1="108" x2="11.9" y2="108"/>
<path class="st1" d="M27.9,94l9-2.2c2-0.5,3.9-1.2,5.7-2.1l3.4-1.7c5-2.5,10.9-2.9,16.2-1l8.7,3.1l4.5,1.8c3.3,1.3,5.5,4.5,5.5,8.1
	l0,0c0,2.3-1.8,4.1-4.1,4.1c0,0,0,0,0,0H27.9c-4,0-4-2.8-4-5C23.9,96,25.3,95,27.9,94z"/>
<path class="st2" d="M23.9,98h2c2.4,0,6-1,6-5"/>
<path class="st2" d="M38.9,91c0,3.7,4,10,9,13h11l0.8-3.7c0.8-4.2,3.2-8.6,5.2-12.3"/>
<path class="st2" d="M38.9,93h23c1.3,0,2.7-0.3,3.9-0.8l5.1-2.2"/>
<circle class="st3" cx="35.9" cy="103" r="4"/>
<circle class="st3" cx="66.9" cy="103" r="4"/>
<line class="st0" x1="83.9" y1="96" x2="95.9" y2="96"/>
<line class="st0" x1="83.9" y1="99" x2="90.9" y2="99"/>
<circle class="st4" cx="55.7" cy="31.7" r="9.2"/>
<path d="M54.2,24.5c4,0,7.2,3.2,7.3,7.2s-3.2,7.2-7.2,7.3S47,35.8,47,31.8c0,0,0,0,0-0.1C47,27.7,50.2,24.5,54.2,24.5 M54.2,22.5
	c-5.1,0-9.2,4.1-9.2,9.2s4.1,9.2,9.2,9.2s9.2-4.1,9.2-9.2c0,0,0,0,0,0C63.4,26.6,59.3,22.5,54.2,22.5z"/>
<line class="st0" x1="54.2" y1="13.3" x2="54.2" y2="17.9"/>
<line class="st0" x1="36" y1="31.7" x2="40.6" y2="31.8"/>
<line class="st0" x1="54.3" y1="50" x2="54.4" y2="45.4"/>
<line class="st0" x1="72.7" y1="31.9" x2="68.1" y2="31.7"/>
<line class="st0" x1="41.2" y1="18.9" x2="44.4" y2="22.2"/>
<line class="st0" x1="41.6" y1="44.8" x2="44.8" y2="41.5"/>
<line class="st0" x1="67.4" y1="44.6" x2="64.2" y2="41.3"/>
<line class="st0" x1="67.4" y1="18.7" x2="64.1" y2="21.9"/>
<line class="st0" x1="101.6" y1="14" x2="101.6" y2="12"/>
<line class="st0" x1="101.6" y1="20" x2="101.6" y2="18"/>
<line class="st0" x1="103.6" y1="16" x2="105.6" y2="16"/>
<line class="st0" x1="97.6" y1="16" x2="99.6" y2="16"/>
<line class="st0" x1="18.6" y1="60" x2="18.6" y2="58"/>
<line class="st0" x1="18.6" y1="66" x2="18.6" y2="64"/>
<line class="st0" x1="20.6" y1="62" x2="22.6" y2="62"/>
<line class="st0" x1="14.6" y1="62" x2="16.6" y2="62"/>
<line class="st0" x1="17.1" y1="12.6" x2="15.7" y2="11.2"/>
<line class="st0" x1="21.4" y1="16.8" x2="20" y2="15.4"/>
<line class="st0" x1="20" y1="12.6" x2="21.4" y2="11.1"/>
<line class="st0" x1="15.8" y1="16.9" x2="17.2" y2="15.4"/>
<line class="st0" x1="88.7" y1="48.2" x2="87.3" y2="46.8"/>
<line class="st0" x1="93" y1="52.4" x2="91.6" y2="51"/>
<line class="st0" x1="91.6" y1="48.2" x2="93" y2="46.8"/>
<line class="st0" x1="87.3" y1="52.4" x2="88.8" y2="51"/>
<path class="st0" d="M86.1,26c3,0,5.5,2.5,5.5,5.5S89.2,37,86.1,37"/>
<line class="st0" x1="86" y1="26" x2="86" y2="37"/>
<line class="st0" x1="86" y1="34" x2="81" y2="34"/>
<line class="st0" x1="86" y1="29" x2="81" y2="29"/>
</svg>
