<svg xmlns="http://www.w3.org/2000/svg" viewBox="0 0 120 120"><circle cx="36.5" cy="50.5" r="11.5" style="fill:tomato"/><circle cx="39.5" cy="50.5" r="11.5" style="fill:none;stroke:#000;stroke-linecap:round;stroke-linejoin:round;stroke-width:2px"/><path d="M46.43,103.34H81.65a2.35,2.35,0,0,0,2.23-3.09L78.57,84.32a2.36,2.36,0,0,0-2.23-1.6H52.19A2.35,2.35,0,0,0,50,84.27L44.23,100.2A2.34,2.34,0,0,0,46.43,103.34Z" style="fill:none;stroke:#000;stroke-linecap:round;stroke-linejoin:round;stroke-width:2px"/><line x1="48.29" y1="89.59" x2="79.8" y2="89.59" style="fill:none;stroke:#000;stroke-linecap:round;stroke-linejoin:round;stroke-width:2px"/><line x1="46" y1="95.71" x2="82.09" y2="95.89" style="fill:none;stroke:#000;stroke-linecap:round;stroke-linejoin:round;stroke-width:2px"/><line x1="59.46" y1="83.29" x2="57.17" y2="102.77" style="fill:none;stroke:#000;stroke-linecap:round;stroke-linejoin:round;stroke-width:2px"/><line x1="69.2" y1="83.29" x2="70.92" y2="102.77" style="fill:none;stroke:#000;stroke-linecap:round;stroke-linejoin:round;stroke-width:2px"/><path d="M60.46,103.91h0a7.64,7.64,0,0,1-3.29,6.29l-.43.3" style="fill:none;stroke:#000;stroke-linecap:round;stroke-linejoin:round;stroke-width:2px"/><path d="M67.62,103.91h0a7.65,7.65,0,0,0,3.3,6.29l.43.3" style="fill:none;stroke:#000;stroke-linecap:round;stroke-linejoin:round;stroke-width:2px"/><line x1="108" y1="110.57" x2="12" y2="110.57" style="fill:none;stroke:#000;stroke-linecap:round;stroke-linejoin:round;stroke-width:2px"/><path d="M62,54.41V71.73a3.57,3.57,0,0,1-3.67,3.47H38L27,85a.75.75,0,0,1-1.2-.57L26,75.2H16.67A3.57,3.57,0,0,1,13,71.73V30.47A3.57,3.57,0,0,1,16.67,27H50" style="fill:none;stroke:#000;stroke-linecap:round;stroke-linejoin:round;stroke-width:2px"/><path d="M73.3,74.77h14L94,81c.31.17.75,0,.75-.28l.09-6h5.86c1.27,0,2.3-.77,2.3-1.71V52.71c0-.94-1-1.71-2.3-1.71H73.3C72,51,71,51.77,71,52.71V73.06C71,74,72,74.77,73.3,74.77Z" style="fill:none;stroke:#000;stroke-linecap:round;stroke-linejoin:round;stroke-width:2px"/><path d="M85.7,43.71h-14L65,49.94c-.31.17-.75,0-.75-.28l-.09-5.95H58.3C57,43.71,56,42.94,56,42V21.65c0-.95,1-1.71,2.3-1.71H85.7c1.27,0,2.3.76,2.3,1.71V42C88,42.94,87,43.71,85.7,43.71Z" style="fill:none;stroke:#000;stroke-linecap:round;stroke-linejoin:round;stroke-width:2px"/><line x1="93" y1="39" x2="109" y2="39" style="fill:none;stroke:#000;stroke-linecap:round;stroke-linejoin:round;stroke-width:2px"/><line x1="93" y1="42" x2="102.33" y2="42" style="fill:none;stroke:#000;stroke-linecap:round;stroke-linejoin:round;stroke-width:2px"/><line x1="72" y1="24" x2="72" y2="34" style="fill:none;stroke:#000;stroke-linecap:round;stroke-linejoin:round;stroke-width:2px"/><circle cx="72" cy="37" r="1"/><path d="M93,62.62A5.5,5.5,0,0,1,82,63a5.42,5.42,0,0,1,0-.57" style="fill:none;stroke:#000;stroke-linecap:round;stroke-linejoin:round;stroke-width:2px"/><line x1="93.01" y1="62.5" x2="82.03" y2="62.25" style="fill:none;stroke:#000;stroke-linecap:round;stroke-linejoin:round;stroke-width:2px"/><line x1="85.01" y1="62.32" x2="85.12" y2="57.32" style="fill:none;stroke:#000;stroke-linecap:round;stroke-linejoin:round;stroke-width:2px"/><line x1="90.01" y1="62.43" x2="90.12" y2="57.43" style="fill:none;stroke:#000;stroke-linecap:round;stroke-linejoin:round;stroke-width:2px"/></svg>