<?xml version="1.0" encoding="utf-8"?>
<!-- Generator: Adobe Illustrator 25.4.1, SVG Export Plug-In . SVG Version: 6.00 Build 0)  -->
<svg version="1.1" id="Layer_1" xmlns="http://www.w3.org/2000/svg" xmlns:xlink="http://www.w3.org/1999/xlink" x="0px" y="0px"
	 viewBox="0 0 120 111.5" style="enable-background:new 0 0 120 111.5;" xml:space="preserve">
<style type="text/css">
	.st0{fill:#FF6347;}
	.st1{fill:#1A1A1A;}
</style>
<circle class="st0" cx="56" cy="18.8" r="18"/>
<path class="st1" d="M103.1,103.6H75.4l-6-13.4L68.5,68l0,0l-0.6-14L78,61.1h-1c-0.5,0.1-0.9,0.5-0.8,1c0,0.4,0.4,0.8,0.8,0.8h6.7
	c0.5-0.1,0.9-0.5,0.8-1c0-0.4-0.4-0.8-0.8-0.8h-2.5l-13.5-9.5l-0.5-12.1l5.9,4.1h-0.9c-0.5,0.1-0.9,0.5-0.8,1c0,0.4,0.4,0.8,0.8,0.8
	h6.7c0.5-0.1,0.9-0.5,0.8-1c0-0.4-0.4-0.8-0.8-0.8h-2.5l-9.6-6.7l-4.2-3.3c-0.3-0.3-0.8-0.3-1.1,0l-4.2,3.3l-9.6,6.7h-2.5
	c-0.5,0.1-0.9,0.5-0.8,1c0,0.4,0.4,0.8,0.8,0.8h6.7c0.5-0.1,0.9-0.5,0.8-1c0-0.4-0.4-0.8-0.8-0.8H51l5.9-4.1l-0.5,12.1l-13.5,9.5
	h-2.5c-0.5,0.1-0.9,0.5-0.8,1c0,0.4,0.4,0.8,0.8,0.8H47c0.5-0.1,0.9-0.5,0.8-1c0-0.4-0.4-0.8-0.8-0.8h-1L56.2,54l-0.6,14l0,0
	l-0.9,22.2l-6,13.4H20.9c-0.5,0.1-0.9,0.5-0.8,1c0,0.4,0.4,0.8,0.8,0.8h82.2c0.5-0.1,0.9-0.5,0.8-1
	C103.9,104,103.5,103.7,103.1,103.6L103.1,103.6z M60.9,44.5l-2.7,4.2l0.3-8L60.9,44.5z M65.4,40.8l0.3,8L63,44.5L65.4,40.8z
	 M65.6,91.4L62,94l-3.6-2.6H65.6z M57.1,89.5l4.9-9.2l4.9,9.2H57.1z M68.1,91.9l4.4,9.9l-8.9-6.6L68.1,91.9z M63.1,78.3l3.7-6.9
	l0.6,15L63.1,78.3z M62.1,76.3L57.7,68l4.3-6.8l4.4,6.8L62.1,76.3z M63.2,59.6l2.8-4.5l0.4,9.6L63.2,59.6z M65.8,52.1L62,57.8
	l-3.7-5.7l3.7-5.9L65.8,52.1z M61,59.6l-3.3,5.1l0.3-9.6L61,59.6z M61,78.3l-4.3,8.1l0.6-15L61,78.3z M56,91.8l4.5,3.3l-8.9,6.6
	L56,91.8z M62,96.3l10,7.3H52L62,96.3z M62,35.6l3,2.3l-3,4.8l-3-4.8L62,35.6z"/>
<g>
	<path class="st1" d="M60,38c-10.5,0-19-8.5-19-19S49.5,0,60,0s19,8.5,19,19S70.5,38,60,38z M60,2c-9.4,0-17,7.6-17,17s7.6,17,17,17
		s17-7.6,17-17S69.4,2,60,2z"/>
</g>
</svg>
