<svg xmlns="http://www.w3.org/2000/svg" viewBox="0 0 120 120"><circle cx="68" cy="26" r="16" style="fill:#12bdc6"/><path d="M109.5,76.35a1,1,0,0,1-.7-.29,30.89,30.89,0,0,1-5.51-6.89c-3.19-5.76-10.4-16-17.16-17.72-2.25-.58-14.54.81-22.25,1.88a1,1,0,1,1-.28-2c2-.28,19.67-2.7,23-1.84,9.13,2.36,17.48,17,18.41,18.69a29.29,29.29,0,0,0,5.16,6.43,1,1,0,0,1,0,1.41A1,1,0,0,1,109.5,76.35Z"/><path d="M86.84,83.39c-6.5,0-11.73-3-15.58-8.88a2.5,2.5,0,0,0-1-.88c-.69-.35-2-1-3.7-1.72-4.65-2.13-11.68-5.35-13.87-7s-4.35-3.79-2.55-7.27c2-4,5.64-3,9.11-2.06s4.93,1.35,6.62,1.83c1.46.42,3.09.88,6.39,1.79a12.55,12.55,0,0,0,4.2.24,17.76,17.76,0,0,1,7.57.88,1,1,0,0,1-.67,1.89,15.56,15.56,0,0,0-6.79-.77,14.6,14.6,0,0,1-4.84-.31c-3.31-.91-5-1.38-6.41-1.8-1.68-.48-3.11-.89-6.59-1.82-4.27-1.15-5.68-1.15-6.81,1-.93,1.8-.44,3,1.95,4.74,2,1.47,9.22,4.77,13.53,6.74,1.68.77,3,1.4,3.75,1.75a4.5,4.5,0,0,1,1.78,1.57C74.6,76,79.67,83.76,92.42,80.68a1,1,0,1,1,.47,1.94A25.4,25.4,0,0,1,86.84,83.39Z"/><path d="M90.3,94.74a1,1,0,0,1-.59-.2S85.4,91.41,81.8,91.7a1,1,0,0,1-.15-2c4.35-.32,9,3.09,9.24,3.23a1,1,0,0,1-.59,1.81Z"/><path d="M40.32,113.94a1,1,0,0,1-.91-.58L9.6,50.4a1,1,0,0,1,.47-1.34L47.55,31.32a1,1,0,0,1,.77,0,1,1,0,0,1,.56.51L60.5,56.33a1,1,0,0,1-1.81.85L47.5,33.55,11.83,50.44l29,61.17L76.46,94.72,65.26,71.05a1,1,0,1,1,1.81-.85L78.7,94.76a1,1,0,0,1,0,.77,1,1,0,0,1-.52.56L40.74,113.84A.9.9,0,0,1,40.32,113.94Z"/><path d="M45.25,83.27a6.55,6.55,0,0,1-3.87-1.18,1,1,0,0,1,1.18-1.62,5.39,5.39,0,0,0,5.41.17,6,6,0,0,0,2.87-2.72A3.5,3.5,0,0,0,51,74.84C50.36,73.56,49,72,44.46,73.53c-2.2.72-6.77,2.23-8.94-2.35a5.49,5.49,0,0,1,.14-4.82,8,8,0,0,1,3.81-3.65,7.32,7.32,0,0,1,7.61.48,1,1,0,0,1,.16,1.41,1,1,0,0,1-1.4.16,5.39,5.39,0,0,0-5.51-.24,6,6,0,0,0-2.87,2.72,3.53,3.53,0,0,0-.14,3.08c1.06,2.23,2.7,2.56,6.52,1.31,4.49-1.48,7.5-.69,8.94,2.35a5.46,5.46,0,0,1-.15,4.82,8,8,0,0,1-3.81,3.65A8.37,8.37,0,0,1,45.25,83.27Z"/><path d="M49.63,85.16a1,1,0,0,1-.9-.57l-11-23.17a1,1,0,0,1,1.81-.85l11,23.16a1,1,0,0,1-.48,1.34A1.07,1.07,0,0,1,49.63,85.16Z"/><path d="M49.15,101.87a1,1,0,0,1-.59-.19A13.94,13.94,0,0,0,40.13,99a1,1,0,0,1-.92-.57L21,60A1,1,0,0,1,21.17,59a14,14,0,0,0,3.26-8.23,1,1,0,0,1,.57-.84l13.71-6.5a1,1,0,0,1,1,.1,13.86,13.86,0,0,0,4.4,2.15,13.49,13.49,0,0,0,4,.54,1,1,0,0,1,.91.58L53.44,56a1,1,0,0,1-1.81.85l-4.09-8.63A15.93,15.93,0,0,1,39,45.44l-12.65,6a16.08,16.08,0,0,1-3.28,8.31L40.75,97a15.64,15.64,0,0,1,4,.61,16,16,0,0,1,4.54,2.12l12.66-6a16.15,16.15,0,0,1,3.27-8.3L56.39,66.85A1,1,0,0,1,58.2,66l9.06,19.13a1,1,0,0,1-.14,1.07,14.08,14.08,0,0,0-3.26,8.23,1,1,0,0,1-.57.85l-13.71,6.49A.91.91,0,0,1,49.15,101.87Z"/><path d="M49.11,109.77a1,1,0,0,1-.87-.5,9.54,9.54,0,0,0-11.68-4.11,1,1,0,1,1-.73-1.86,11.56,11.56,0,0,1,14.15,5,1,1,0,0,1-.87,1.5Z"/><path d="M14.66,59.76a1,1,0,0,1-.86-.5,1,1,0,0,1,.37-1.37,9.55,9.55,0,0,0,4.11-11.68,1,1,0,1,1,1.86-.73,11.55,11.55,0,0,1-5,14.15A1,1,0,0,1,14.66,59.76Z"/><path d="M69.09,100.32a1,1,0,0,1-.93-.64,11.56,11.56,0,0,1,5-14.15,1,1,0,1,1,1,1.74A9.54,9.54,0,0,0,70,99a1,1,0,0,1-.57,1.3A1.15,1.15,0,0,1,69.09,100.32Z"/><path d="M48.33,42.64a11.56,11.56,0,0,1-10-5.76,1,1,0,1,1,1.73-1A9.56,9.56,0,0,0,51.74,40a1,1,0,0,1,.72,1.86A11.21,11.21,0,0,1,48.33,42.64Z"/><path d="M72.77,43.79A15.19,15.19,0,1,1,88,28.6,15.21,15.21,0,0,1,72.77,43.79Zm0-28.37A13.19,13.19,0,1,0,86,28.6,13.2,13.2,0,0,0,72.77,15.42Z"/><path d="M73,34.57a1,1,0,0,1-1-1V25.8l-1.73,1.73a1,1,0,0,1-1.42,0,1,1,0,0,1,0-1.41l3.44-3.44a1,1,0,0,1,1.09-.22,1,1,0,0,1,.62.93V33.57A1,1,0,0,1,73,34.57Z"/><path d="M76,34.82H70a1,1,0,0,1,0-2h6a1,1,0,0,1,0,2Z"/><path d="M17.19,31.34a1,1,0,0,1-.7-.3,1,1,0,0,1,0-1.41l1.15-1.15a1,1,0,0,1,1.41,1.41L17.9,31A1,1,0,0,1,17.19,31.34Z"/><path d="M23.41,25.12a1,1,0,0,1-.71-.29,1,1,0,0,1,0-1.42l1.15-1.15a1,1,0,0,1,1.42,0,1,1,0,0,1,0,1.41l-1.15,1.16A1,1,0,0,1,23.41,25.12Z"/><path d="M24.56,31.34a1,1,0,0,1-.71-.3L22.7,29.89a1,1,0,0,1,0-1.41,1,1,0,0,1,1.42,0l1.15,1.15a1,1,0,0,1-.71,1.71Z"/><path d="M18.34,25.12a1,1,0,0,1-.7-.29l-1.15-1.16a1,1,0,0,1,1.41-1.41l1.15,1.15a1,1,0,0,1-.71,1.71Z"/><path d="M100.17,39a1,1,0,0,1-.71-.29l-.31-.31a1,1,0,0,1,0-1.41,1,1,0,0,1,1.42,0l.31.31a1,1,0,0,1-.71,1.7Z"/><path d="M104.58,43.46a1,1,0,0,1-.7-.29l-.31-.31A1,1,0,1,1,105,41.44l.31.31a1,1,0,0,1-.71,1.71Z"/><path d="M99.86,43.46a1,1,0,0,1-.71-.29,1,1,0,0,1,0-1.42l.31-.31a1,1,0,0,1,1.42,1.42l-.31.3A1,1,0,0,1,99.86,43.46Z"/><path d="M104.27,39a1,1,0,0,1-.7-1.7l.31-.31a1,1,0,1,1,1.41,1.41l-.31.31A1,1,0,0,1,104.27,39Z"/><path d="M16,94.73a1,1,0,0,1-.71-.29L15,94.13a1,1,0,1,1,1.42-1.41l.3.3a1,1,0,0,1,0,1.42A1,1,0,0,1,16,94.73Z"/><path d="M20.43,99.15a1,1,0,0,1-.71-.3l-.3-.31a1,1,0,0,1,1.41-1.41l.31.31a1,1,0,0,1-.71,1.71Z"/><path d="M15.71,99.15A1,1,0,0,1,15,97.44l.31-.31a1,1,0,0,1,1.41,0,1,1,0,0,1,0,1.41l-.3.31A1,1,0,0,1,15.71,99.15Z"/><path d="M20.12,94.73a1,1,0,0,1-.7-1.71l.3-.3a1,1,0,0,1,1.42,1.41l-.31.31A1,1,0,0,1,20.12,94.73Z"/><path d="M65.49,114H25.79a1,1,0,1,1,0-2h39.7a1,1,0,1,1,0,2Z"/></svg>