<?xml version="1.0" encoding="utf-8"?>
<!-- Generator: Adobe Illustrator 25.4.1, SVG Export Plug-In . SVG Version: 6.00 Build 0)  -->
<svg version="1.1" id="Layer_1" xmlns="http://www.w3.org/2000/svg" xmlns:xlink="http://www.w3.org/1999/xlink" x="0px" y="0px"
	 viewBox="0 0 120 108" style="enable-background:new 0 0 120 108;" xml:space="preserve">
<style type="text/css">
	.st0{fill:#FF6248;}
	.st1{fill:none;stroke:#000000;stroke-width:2;stroke-linecap:round;stroke-linejoin:round;}
</style>
<path class="st0" d="M61.7,63.8l5.7-12c4.4-9.1,0.7-20.1-8.4-24.6l-10.4-5.5L43.4,32c-4.4,8.5-1.6,19,6.5,24.1L61.7,63.8z"/>
<path class="st0" d="M61.6,63.4l-5-12.3C52.7,41.8,57.1,31,66.3,27L77,22.1l4.7,10.6c3.9,8.7,0.5,19-7.9,23.7L61.6,63.4z"/>
<path class="st0" d="M64.1,62.4l-9.2-9.6c-7.1-7.2-7.1-18.8,0-26l8.1-8.5l8.2,8.1c6.9,6.6,7.6,17.5,1.6,24.9L64.1,62.4z"/>
<path class="st1" d="M78.3,32l-5.2-10.3l-10.4,5.5c-1,0.5-1.8,1-2.7,1.7c-0.8-0.6-1.7-1.2-2.7-1.7l-10.4-5.5L41.7,32
	c-4.4,8.5-1.6,19,6.5,24.1L60,63.8l0,0l0,0l11.8-7.7C79.9,51,82.7,40.5,78.3,32z"/>
<line class="st1" x1="108" y1="100.2" x2="12" y2="100.2"/>
<path class="st1" d="M89,38.2c0-16-12.9-29-28.9-29.1S31.1,22,31,38c0,7.1,2.5,13.9,7.2,19.2c6.9,8.1,10.6,18.4,10.5,29v0.4h22.8
	v-0.4c0.1-10.8,4-21.3,11-29.6C86.7,51.4,89,44.9,89,38.2z"/>
<path class="st1" d="M60,63.7l8.8-10c6.8-7.5,6.3-19.1-1.1-26l-8.5-8.1L51.3,28c-6.6,6.9-6.9,17.8-0.6,25L60,63.7z"/>
<line class="st1" x1="60" y1="87.1" x2="60" y2="38.2"/>
<g>
	<line class="st1" x1="59.5" y1="52.4" x2="53.9" y2="45.8"/>
	<line class="st1" x1="60.5" y1="52.4" x2="66.1" y2="45.8"/>
</g>
<path class="st1" d="M46.8,87.1h26.3c1.8,0,3.3,1.5,3.3,3.3l0,0c0,1.8-1.5,3.3-3.3,3.3H46.8c-1.8,0-3.3-1.5-3.3-3.3l0,0
	C43.5,88.6,45,87.1,46.8,87.1z"/>
<path class="st1" d="M46.8,93.7h26.3c1.8,0,3.3,1.5,3.3,3.3l0,0c0,1.8-1.5,3.3-3.3,3.3H46.8c-1.8,0-3.3-1.5-3.3-3.3l0,0
	C43.5,95.1,45,93.7,46.8,93.7z"/>
<path class="st1" d="M55.3,100.2h9.4l-0.8,0.8c-2.2,2.2-5.7,2.2-7.8,0C55.7,100.8,55.5,100.5,55.3,100.2z"/>
<line class="st1" x1="36.2" y1="14.4" x2="22.2" y2="2"/>
<line class="st1" x1="26.4" y1="38.4" x2="9.9" y2="38.4"/>
<line class="st1" x1="36.4" y1="62.2" x2="19" y2="79.6"/>
<line class="st1" x1="84.2" y1="61.9" x2="108" y2="83.1"/>
<line class="st1" x1="94" y1="38" x2="111.2" y2="38"/>
<line class="st1" x1="84" y1="14.1" x2="97.1" y2="1"/>
<line class="st1" x1="47.8" y1="6.8" x2="45" y2="1"/>
<line class="st1" x1="29.2" y1="24.7" x2="18.2" y2="19.8"/>
<line class="st1" x1="28.8" y1="50.5" x2="15.6" y2="55.6"/>
<line class="st1" x1="91.2" y1="51.5" x2="108" y2="61"/>
<line class="st1" x1="91.6" y1="25.7" x2="105.8" y2="20.2"/>
<line class="st1" x1="73.6" y1="7.1" x2="76.9" y2="1"/>
<line class="st1" x1="59.2" y1="5.3" x2="59.2" y2="1.5"/>
</svg>
