<svg xmlns="http://www.w3.org/2000/svg" xmlns:xlink="http://www.w3.org/1999/xlink" viewBox="0 0 600 600"><defs><linearGradient id="a" x1="266.26" y1="300.42" x2="334.44" y2="300.42" gradientUnits="userSpaceOnUse"><stop offset="0" stop-color="#f17788"/><stop offset="0.13" stop-color="#e8788c"/><stop offset="0.36" stop-color="#cf7a97"/><stop offset="0.63" stop-color="#a87fa8"/><stop offset="0.96" stop-color="#7184c0"/><stop offset="1" stop-color="#6985c3"/></linearGradient><linearGradient id="b" x1="133.9" y1="300.42" x2="466.8" y2="300.42" xlink:href="#a"/><linearGradient id="c" x1="274.81" y1="777.66" x2="607.71" y2="777.66" gradientTransform="translate(-140.91 -477.24)" xlink:href="#a"/><linearGradient id="d" x1="235.04" y1="942.66" x2="567.94" y2="942.66" gradientTransform="translate(-101.14 -642.24)" xlink:href="#a"/><linearGradient id="e" x1="-270.58" y1="66.89" x2="62.32" y2="66.89" gradientTransform="matrix(0, -1, -1, 0, 367.24, 196.28)" xlink:href="#a"/><linearGradient id="f" x1="-788.73" y1="466.09" x2="-465.35" y2="466.09" gradientTransform="matrix(-1.11, -0.06, -0.06, 1, -366.39, -207.28)" xlink:href="#a"/><linearGradient id="g" x1="133.92" y1="323.39" x2="457.3" y2="323.39" gradientTransform="matrix(0.06, 1.11, -1, 0.06, 605.49, -45.63)" xlink:href="#a"/></defs><path d="M300.35,267.33a33.09,33.09,0,1,1-33.09,33.09,33.12,33.12,0,0,1,33.09-33.09" style="fill:none;stroke-miterlimit:10;stroke-width:2px;stroke:url(#a)"/><rect x="134.9" y="134.97" width="330.9" height="330.9" rx="2" style="fill:none;stroke-miterlimit:10;stroke-width:2px;stroke:url(#b)"/><rect x="134.9" y="134.97" width="330.9" height="330.9" rx="2" transform="translate(-124.45 300.37) rotate(-45)" style="fill:none;stroke-miterlimit:10;stroke-width:2px;stroke:url(#c)"/><rect x="134.9" y="134.97" width="330.9" height="330.9" rx="2" transform="translate(-109.99 410.32) rotate(-60)" style="fill:none;stroke-miterlimit:10;stroke-width:2px;stroke:url(#d)"/><rect x="134.9" y="134.97" width="330.9" height="330.9" rx="2" transform="translate(-109.97 190.42) rotate(-30)" style="fill:none;stroke-miterlimit:10;stroke-width:2px;stroke:url(#e)"/><rect x="131.63" y="131.69" width="337.45" height="337.45" rx="2" transform="translate(-53.08 64.74) rotate(-11.31)" style="fill:none;stroke-miterlimit:10;stroke-width:2px;stroke:url(#f)"/><rect x="131.63" y="131.69" width="337.45" height="337.45" rx="2" transform="translate(-53.13 536.02) rotate(-78.69)" style="fill:none;stroke-miterlimit:10;stroke-width:2px;stroke:url(#g)"/></svg>