<?xml version="1.0" encoding="utf-8"?>
<!-- Generator: Adobe Illustrator 25.4.1, SVG Export Plug-In . SVG Version: 6.00 Build 0)  -->
<svg version="1.1" id="Layer_1" xmlns="http://www.w3.org/2000/svg" xmlns:xlink="http://www.w3.org/1999/xlink" x="0px" y="0px"
	 viewBox="0 0 120 108" style="enable-background:new 0 0 120 108;" xml:space="preserve">
<style type="text/css">
	.st0{fill:none;stroke:#000000;stroke-width:2;stroke-linecap:round;stroke-linejoin:round;}
	.st1{fill:#FF6347;}
</style>
<line class="st0" x1="60.4" y1="106.6" x2="60.4" y2="103.6"/>
<circle class="st1" cx="64.1" cy="53.8" r="24"/>
<path d="M60.1,31.8c12.2,0,22,9.8,22,22s-9.8,22-22,22s-22-9.8-22-22S47.9,31.8,60.1,31.8 M60.1,29.8c-13.3,0-24,10.7-24,24
	s10.7,24,24,24s24-10.7,24-24S73.3,29.8,60.1,29.8z"/>
<line class="st0" x1="60.1" y1="7" x2="60.1" y2="19"/>
<g>
	<path d="M60.1,5c-0.6,0-1-0.4-1-1V1c0-0.6,0.4-1,1-1s1,0.4,1,1v3C61.1,4.6,60.6,5,60.1,5z"/>
</g>
<line class="st0" x1="12.8" y1="51.5" x2="24.8" y2="51.6"/>
<line class="st0" x1="6.8" y1="51.5" x2="9.8" y2="51.5"/>
<line class="st0" x1="60.5" y1="100.6" x2="60.7" y2="88.6"/>
<line class="st0" x1="108.4" y1="51.8" x2="96.4" y2="51.5"/>
<line class="st0" x1="114.4" y1="52" x2="111.4" y2="51.9"/>
<line class="st0" x1="26.2" y1="18.1" x2="34.7" y2="26.6"/>
<line class="st0" x1="21.9" y1="13.9" x2="24.1" y2="16"/>
<line class="st0" x1="27.2" y1="85.5" x2="35.7" y2="77"/>
<line class="st0" x1="23" y1="89.7" x2="25.1" y2="87.6"/>
<line class="st0" x1="94.6" y1="85" x2="86.2" y2="76.4"/>
<line class="st0" x1="98.8" y1="89.3" x2="96.7" y2="87.1"/>
<line class="st0" x1="94.6" y1="17.6" x2="85.9" y2="26"/>
<line class="st0" x1="98.9" y1="13.5" x2="96.7" y2="15.5"/>
<polygon class="st0" points="57.9,65.5 67.4,51.1 61.6,51.1 64.7,42.1 56,42.1 52.6,54.1 58.6,54.1 "/>
</svg>
