<?xml version="1.0" encoding="utf-8"?>
<!-- Generator: Adobe Illustrator 25.4.1, SVG Export Plug-In . SVG Version: 6.00 Build 0)  -->
<svg version="1.1" id="Layer_1" xmlns="http://www.w3.org/2000/svg" xmlns:xlink="http://www.w3.org/1999/xlink" x="0px" y="0px"
	 viewBox="0 0 120 108" style="enable-background:new 0 0 120 108;" xml:space="preserve">
<style type="text/css">
	.st0{fill:#FF6347;}
	.st1{fill:none;stroke:#000000;stroke-width:2;stroke-linecap:round;stroke-linejoin:round;}
</style>
<circle class="st0" cx="61.8" cy="40.3" r="9.2"/>
<path d="M60,32.7c4,0,7.2,3.2,7.2,7.2S64,47.1,60,47.1s-7.2-3.2-7.2-7.2l0,0C52.8,35.9,56,32.7,60,32.7 M60,30.7
	c-5.1,0-9.2,4.1-9.2,9.2s4.1,9.2,9.2,9.2s9.2-4.1,9.2-9.2l0,0C69.2,34.8,65.1,30.7,60,30.7z"/>
<line class="st1" x1="60" y1="96.1" x2="60" y2="84.1"/>
<line class="st1" x1="108" y1="97.6" x2="12" y2="97.6"/>
<g>
	<path d="M60,28L60,28c-0.3,0-0.6-0.1-0.8-0.4l-5.4-6.3c-4-4.6-3.8-11.5,0.4-16l4.6-5C59,0.1,59.3,0,59.6,0s0.5,0.1,0.7,0.3l5,4.8
		c4.7,4.5,5,11.8,0.7,16.7l-5.2,5.9C60.6,27.9,60.3,28,60,28z M59.6,2.4l-3.9,4.2c-3.6,3.7-3.7,9.5-0.3,13.4l4.6,5.4l4.4-5
		c3.6-4.1,3.4-10.2-0.6-13.9L59.6,2.4z"/>
</g>
<path class="st1" d="M50.7,30.8L50.2,23c-0.3-5.9-5.3-10.5-11.2-10.4l-6.9,0.1l0.3,6.8c0.2,5.6,4.5,10.2,10.1,10.6L50.7,30.8z"/>
<path class="st1" d="M46.9,40.1L41,34.9c-4.4-4-11.2-3.7-15.3,0.6l-4.8,5l5,4.6c4.1,3.9,10.5,4,14.7,0.3L46.9,40.1z"/>
<path class="st1" d="M50.7,49.4l-7.8,0.5c-5.9,0.3-10.5,5.3-10.4,11.2l0.1,7l6.8-0.3C45,67.7,49.6,63.3,50,57.6L50.7,49.4z"/>
<path class="st1" d="M60,53.3l-5.2,5.9c-4,4.4-3.7,11.2,0.6,15.3l5,4.8l4.6-5c3.9-4.1,4-10.5,0.3-14.7L60,53.3z"/>
<path class="st1" d="M69.3,49.4l0.5,7.8c0.3,5.9,5.3,10.5,11.2,10.4l7-0.1l-0.3-6.8c-0.2-5.6-4.6-10.2-10.2-10.6L69.3,49.4z"/>
<path class="st1" d="M73.1,40.1l5.9,5.2c4.4,4,11.2,3.7,15.3-0.6l4.8-5l-5-4.6c-4.1-3.9-10.5-4-14.7-0.3L73.1,40.1z"/>
<path class="st1" d="M69.3,30.9l7.8-0.5C83,30,87.6,25.1,87.5,19.1l-0.1-6.9l-6.8,0.3C75,12.6,70.4,17,70,22.6L69.3,30.9z"/>
</svg>
