<?xml version="1.0" encoding="utf-8"?>
<!-- Generator: Adobe Illustrator 25.4.1, SVG Export Plug-In . SVG Version: 6.00 Build 0)  -->
<svg version="1.1" id="Layer_1" xmlns="http://www.w3.org/2000/svg" xmlns:xlink="http://www.w3.org/1999/xlink" x="0px" y="0px"
	 viewBox="0 0 120 108" style="enable-background:new 0 0 120 108;" xml:space="preserve">
<style type="text/css">
	.st0{fill:#FF6347;}
	.st1{fill:#1A1A1A;}
</style>
<circle class="st0" cx="56" cy="18.8" r="18"/>
<path class="st1" d="M103.2,99.2H75.5l-6-13.4l-0.9-22.2l0,0l-0.6-14l10.1,7.1h-1c-0.5,0.1-0.9,0.5-0.8,1c0,0.4,0.4,0.8,0.8,0.8h6.7
	c0.5-0.1,0.9-0.5,0.8-1c0-0.4-0.4-0.8-0.8-0.8h-2.5l-13.5-9.5l-0.5-12.1l5.9,4.1h-0.9c-0.5,0.1-0.9,0.5-0.8,1c0,0.4,0.4,0.8,0.8,0.8
	h6.7c0.5-0.1,0.9-0.5,0.8-1c0-0.4-0.4-0.8-0.8-0.8h-2.5l-9.6-6.7l-4.2-3.3c-0.3-0.3-0.8-0.3-1.1,0l-4.2,3.3l-9.6,6.7h-2.5
	c-0.5,0.1-0.9,0.5-0.8,1c0,0.4,0.4,0.8,0.8,0.8h6.7c0.5-0.1,0.9-0.5,0.8-1c0-0.4-0.4-0.8-0.8-0.8H51l5.9-4.1l-0.5,12.1L43,56.7h-2.5
	c-0.5,0.1-0.9,0.5-0.8,1c0,0.4,0.4,0.8,0.8,0.8H47c0.5-0.1,0.9-0.5,0.8-1c0-0.4-0.4-0.8-0.8-0.8h-1l10.2-7.1l-0.6,14l0,0l-0.9,22.2
	l-6,13.4H21c-0.5,0.1-0.9,0.5-0.8,1c0,0.4,0.4,0.8,0.8,0.8h82.2c0.5-0.1,0.9-0.5,0.8-1C104,99.6,103.6,99.3,103.2,99.2L103.2,99.2z
	 M61,40.2l-2.7,4.2l0.3-8L61,40.2z M65.5,36.4l0.3,8L63,40.2L65.5,36.4z M65.7,87.1L62,89.6L58.5,87L65.7,87.1L65.7,87.1z
	 M57.1,85.2L62,76l4.9,9.2H57.1z M68.2,87.6l4.4,9.9l-8.9-6.6L68.2,87.6z M63.1,74l3.7-6.9l0.6,15L63.1,74z M62.1,72l-4.4-8.3
	l4.3-6.8l4.4,6.8L62.1,72z M63.2,55.2l2.8-4.5l0.4,9.6L63.2,55.2z M65.9,47.7L62,53.4l-3.7-5.7l3.7-5.9L65.9,47.7z M61,55.2
	l-3.3,5.1l0.3-9.6L61,55.2z M61,74l-4.3,8.1l0.6-15L61,74z M56,87.5l4.5,3.3l-8.9,6.6L56,87.5z M62,92l10,7.3H52L62,92z M62,31.2
	l3,2.3l-3,4.8l-3-4.8L62,31.2z"/>
<g>
	<path class="st1" d="M60,38c-10.5,0-19-8.5-19-19S49.5,0,60,0s19,8.5,19,19S70.5,38,60,38z M60,2c-9.4,0-17,7.6-17,17s7.6,17,17,17
		s17-7.6,17-17S69.4,2,60,2z"/>
</g>
</svg>
