<?xml version="1.0" encoding="utf-8"?>
<!-- Generator: Adobe Illustrator 25.4.1, SVG Export Plug-In . SVG Version: 6.00 Build 0)  -->
<svg version="1.1" id="Layer_1" xmlns="http://www.w3.org/2000/svg" xmlns:xlink="http://www.w3.org/1999/xlink" x="0px" y="0px"
	 viewBox="0 0 120 108" style="enable-background:new 0 0 120 108;" xml:space="preserve">
<style type="text/css">
	.st0{fill:#FF6248;}
	.st1{fill:none;stroke:#000000;stroke-width:2;stroke-linecap:round;stroke-linejoin:round;}
</style>
<path class="st0" d="M76.7,36.6c4,4.1,7,9,8.8,14.4c2.3-3.3,3.5-7.2,3.5-11.2c0-10.4-7.9-18.9-17.7-18.9c-5,0-11.1,2.5-14.3,6
	C63.9,28.2,71.8,31.6,76.7,36.6z"/>
<line class="st1" x1="109" y1="99.9" x2="13" y2="99.9"/>
<path class="st1" d="M58,99.9l16.8-1.1C87.6,98.2,97.5,87.4,97,74.6l-0.3-14.9L82,60.3c-12.1,0.3-22,9.9-22.8,22L58,99.9z"/>
<line class="st1" x1="59.4" y1="98.9" x2="80.9" y2="77.1"/>
<line class="st1" x1="67.6" y1="89.4" x2="68.3" y2="78.4"/>
<line class="st1" x1="68.4" y1="90.1" x2="79.3" y2="89.4"/>
<path class="st1" d="M55,89.8c-17.1,0-31-13.9-31-31s13.9-31,31-31s31,13.9,31,31"/>
<path class="st1" d="M32,38.9c0,0,3,5,6,9c2.8,3.9,2.8,9.1,0,13c-4,6-6,10-4,14l5,10"/>
<path class="st1" d="M83,46.9c0,0-15,1-21,8s-1.9,22.2-1.9,22.2"/>
<path class="st1" d="M38,32.9c2-1.2,4.5-0.7,6,1c3,3,2,6,2,6s1,3,2,2s0-6,2-8s6-2,6-2l4.7-3.7c6.8-7,17.9-7.2,24.9-0.5
	c6.4,6.2,7.2,16.1,1.9,23.2"/>
<path class="st1" d="M79,39.9c-1,0-4,2-4,2l-5-3c0,0,3-4,2-5"/>
<path class="st1" d="M41,39.9c0,0,4,5,5,6h3l-3,2l-5-3V39.9z"/>
<line class="st1" x1="56" y1="38.9" x2="57" y2="36.9"/>
<line class="st1" x1="74" y1="17.9" x2="74" y2="4.1"/>
<line class="st1" x1="63.8" y1="20.4" x2="53.6" y2="1"/>
<line class="st1" x1="50" y1="23.9" x2="38.6" y2="15.5"/>
<line class="st1" x1="88.7" y1="56.2" x2="92" y2="59.8"/>
<line class="st1" x1="94.6" y1="47.6" x2="106" y2="52.9"/>
<line class="st1" x1="95.8" y1="37.1" x2="116.7" y2="34.5"/>
<line class="st1" x1="92" y1="27.2" x2="116.8" y2="10"/>
<line class="st1" x1="84.1" y1="20.3" x2="94.1" y2="1"/>
</svg>
