<svg xmlns="http://www.w3.org/2000/svg" viewBox="0 0 120 120"><path d="M88,35.44h0A14.41,14.41,0,0,0,72.87,22c-7.31.34-13.68,6.24-13.69,13.56,0,14,14.63,24.44,14.63,24.44S88,49.53,88,36.42c0-.31,0-.62,0-.92Z" style="fill:tomato"/><path d="M34,90.2a1,1,0,0,0,.38-.38L37,85.06l2.6,4.76a.93.93,0,0,0,.38.38l4.75,2.6L40,95.4a.9.9,0,0,0-.38.37L37,100.53l-2.6-4.76A1,1,0,0,0,34,95.4l-4.75-2.6L34,90.2Zm-7.19,3.43,6,3.3,3.3,6a1,1,0,0,0,.84.49,1,1,0,0,0,.83-.49l3.3-6,6-3.3a1,1,0,0,0,.49-.83,1,1,0,0,0-.49-.84l-6-3.3-3.3-6a.94.94,0,0,0-.83-.5,1,1,0,0,0-.84.5l-3.3,6-6,3.3a1,1,0,0,0-.5.84.94.94,0,0,0,.5.83Z"/><path d="M23.17,84.6a1,1,0,0,0-1.28.4h0a17,17,0,0,0-.55,14.42A17,17,0,1,0,46.53,78.69a17,17,0,0,0-17.37-1A.95.95,0,1,0,30,79.38,15.13,15.13,0,0,1,51,98.68a15.23,15.23,0,0,1-5.48,6.65,15.19,15.19,0,0,1-14.34,1.4,15.23,15.23,0,0,1-6.65-5.48,15.15,15.15,0,0,1-.91-15.37,1,1,0,0,0-.4-1.28Z"/><path d="M86,68.8a1.16,1.16,0,0,1-.44.54,1.19,1.19,0,0,1-.68.21,5.34,5.34,0,0,0-3.08,1h-19a5.35,5.35,0,0,0-3.09-1h0a1.2,1.2,0,0,1-.47-.1,1.23,1.23,0,0,1-.54-.44,1.21,1.21,0,0,1-.2-.68,1.19,1.19,0,0,1,.09-.47,1.19,1.19,0,0,1,1.12-.74H84.88a1.28,1.28,0,0,1,.48.09,1.26,1.26,0,0,1,.53.44,1.24,1.24,0,0,1,.21.68,1,1,0,0,1-.1.47ZM78.63,79.7l-.45,2.7L66.73,84.19l-.09-.55-.47-2.79-.09-.5,12.74-1.74-.19,1.09Zm-1.29,7.64-.17,1-9.48,1.49-.28-1.64-.36-2.11,10.79-1.7-.5,3Zm-.77,4.51-.4,2.39-7.53,1.18L68,91.69l8.82-1.38-.26,1.54Zm-1.32,7.78-.07.43-5.6.87-.45-2.65-.17-1,6.87-1.08-.58,3.41Zm-.55,3.23-1.43,8.42a1,1,0,0,1-.33.59,1,1,0,0,1-.64.23,1,1,0,0,1-.63-.23,1,1,0,0,1-.34-.59l-1-5.82-.45-2.66,5-.76-.14.82ZM65,74a5.05,5.05,0,0,0-.53-1.59H80.13A5.62,5.62,0,0,0,79.6,74l-.44,2.62h0v0L65.76,78.47,65,74Zm21.63-8.26a3.09,3.09,0,0,0-1.75-.53H59.72a3,3,0,0,0-1.21.24,3.1,3.1,0,0,0-1.37,1.13,3.14,3.14,0,0,0-.29,3,3.14,3.14,0,0,0,2.87,1.91h0a3.45,3.45,0,0,1,3.41,2.88l.75,4.4L62.1,79a1,1,0,0,0,.25,1.89l1.85-.25.09.56L64.77,84l.09.53-2.35.37a1,1,0,0,0-.79,1.08,1,1,0,0,0,1.09.8l2.36-.38.37,2.14.27,1.62L63,90.56a1,1,0,1,0,.3,1.88L66.13,92l.63,3.73-3.28.51a1,1,0,0,0,.3,1.88l3.3-.52.17,1,.45,2.62L64,101.8a1,1,0,0,0,.29,1.88l3.78-.59.45,2.68,1,5.83a2.93,2.93,0,0,0,1,1.72,2.89,2.89,0,0,0,4.71-1.72l1.43-8.43.24-1.44,3.83-.59a1,1,0,1,0-.29-1.88l-3.2.5.65-3.85,3.31-.53a.95.95,0,0,0-.29-1.87l-2.68.42.3-1.76L78.81,90l2.84-.45a1,1,0,0,0-.3-1.88l-2.2.35.06-.36.53-3.11.08-.49,2.27-.35a1,1,0,0,0-.29-1.88l-1.64.26L80.51,80l.28-1.68,1.72-.23a1,1,0,0,0-.26-1.89l-1.12.16.35-2a3.43,3.43,0,0,1,3.4-2.88A3.12,3.12,0,0,0,88,68.33a3.15,3.15,0,0,0-1.37-2.58Z"/><path d="M25.68,80.57a1,1,0,1,0,.95,1,1,1,0,0,0-.95-1Z"/><path d="M50.36,18.06a1,1,0,0,0,.38-.37l2.6-4.76,2.6,4.76a.94.94,0,0,0,.37.37l4.76,2.6-4.76,2.6a1,1,0,0,0-.37.38l-2.6,4.76-2.6-4.76a1,1,0,0,0-.38-.38l-4.75-2.6,4.75-2.6ZM43.17,21.5l6,3.3,3.3,6a1,1,0,0,0,.84.5.94.94,0,0,0,.83-.5l3.3-6,6-3.3a1,1,0,0,0,0-1.67l-6-3.3-3.3-6a1,1,0,0,0-.83-.49,1,1,0,0,0-.84.49l-3.3,6-6,3.3a.95.95,0,0,0,0,1.67Z"/><path d="M98.36,58.06a1,1,0,0,0,.38-.37l2.6-4.76,2.6,4.76a.94.94,0,0,0,.37.37l4.76,2.6-4.76,2.6a1,1,0,0,0-.37.38l-2.6,4.76-2.6-4.76a1,1,0,0,0-.38-.38l-4.75-2.6,4.75-2.6ZM91.17,61.5l6,3.3,3.3,6a1,1,0,0,0,.84.5.94.94,0,0,0,.83-.5l3.3-6,6-3.3a1,1,0,0,0,0-1.67l-6-3.3-3.3-6a1,1,0,0,0-.83-.49,1,1,0,0,0-.84.49l-3.3,6-6,3.3a.95.95,0,0,0,0,1.67Z"/><path d="M100,114H60.29a1,1,0,1,1,0-2H100a1,1,0,1,1,0,2Z"/></svg>