<?xml version="1.0" encoding="utf-8"?>
<!-- Generator: Adobe Illustrator 25.4.1, SVG Export Plug-In . SVG Version: 6.00 Build 0)  -->
<svg version="1.1" id="Layer_1" xmlns="http://www.w3.org/2000/svg" xmlns:xlink="http://www.w3.org/1999/xlink" x="0px" y="0px"
	 viewBox="0 0 120 108" style="enable-background:new 0 0 120 108;" xml:space="preserve">
<style type="text/css">
	.st0{fill:#FF6347;}
	.st1{fill:none;stroke:#000000;stroke-width:2;stroke-linecap:round;stroke-linejoin:round;}
	.st2{fill:#FF6248;}
</style>
<circle class="st0" cx="88" cy="22.1" r="22"/>
<circle class="st1" cx="84" cy="22.1" r="22"/>
<line class="st1" x1="110" y1="99.8" x2="14" y2="99.8"/>
<polyline class="st1" points="51,99.2 51,64.2 98,64.2 98,99.2 "/>
<polyline class="st1" points="51,64.2 74,38.1 98,64.2 "/>
<line class="st1" x1="83" y1="41.1" x2="93" y2="52.1"/>
<line class="st1" x1="87" y1="39.1" x2="102" y2="56.1"/>
<rect x="62" y="75.2" class="st1" width="11.5" height="12"/>
<rect x="73.5" y="75.2" class="st1" width="11.5" height="12"/>
<circle class="st2" cx="74.5" cy="51.6" r="2.5"/>
<polyline class="st1" points="14,99.2 14,3.1 51,3.1 51,99.2 "/>
<rect x="27" y="75.8" class="st1" width="10" height="24"/>
<rect x="19" y="7.1" class="st1" width="7" height="7"/>
<rect x="39" y="7.1" class="st1" width="7" height="7"/>
<rect x="19" y="19.1" class="st1" width="7" height="7"/>
<rect x="39" y="19.1" class="st1" width="7" height="7"/>
<rect x="19" y="31.1" class="st1" width="7" height="7"/>
<rect x="39" y="31.1" class="st1" width="7" height="7"/>
<rect x="19" y="43.1" class="st1" width="7" height="7"/>
<rect x="39" y="43.1" class="st1" width="7" height="7"/>
<rect x="19" y="55.1" class="st1" width="7" height="7"/>
<rect x="39" y="55.1" class="st1" width="7" height="7"/>
</svg>
