<svg xmlns="http://www.w3.org/2000/svg" viewBox="0 0 120 120"><circle cx="61.79" cy="54.21" r="9.21" style="fill:tomato"/><path d="M60,46.58a7.21,7.21,0,1,1-7.21,7.21A7.21,7.21,0,0,1,60,46.58m0-2a9.21,9.21,0,1,0,9.21,9.21A9.21,9.21,0,0,0,60,44.58Z"/><line x1="59.97" y1="109" x2="60.03" y2="97" style="fill:none;stroke:#000;stroke-linecap:round;stroke-linejoin:round;stroke-width:2px"/><line x1="108" y1="110.57" x2="12" y2="110.57" style="fill:none;stroke:#000;stroke-linecap:round;stroke-linejoin:round;stroke-width:2px"/><path d="M60,40.87,65.21,35a11,11,0,0,0-.63-15.31l-5-4.82-4.62,5a10.94,10.94,0,0,0-.33,14.72Z" style="fill:none;stroke:#000;stroke-linecap:round;stroke-linejoin:round;stroke-width:2px"/><path d="M50.73,44.69l-.48-7.81A11,11,0,0,0,39,26.5l-6.92.1.26,6.8A10.94,10.94,0,0,0,42.48,44Z" style="fill:none;stroke:#000;stroke-linecap:round;stroke-linejoin:round;stroke-width:2px"/><path d="M46.87,54,41,48.79a11,11,0,0,0-15.31.63l-4.82,5,5,4.62a10.94,10.94,0,0,0,14.72.33Z" style="fill:none;stroke:#000;stroke-linecap:round;stroke-linejoin:round;stroke-width:2px"/><path d="M50.69,63.27l-7.81.48A11,11,0,0,0,32.5,75L32.6,82l6.8-.26A10.94,10.94,0,0,0,50,71.52Z" style="fill:none;stroke:#000;stroke-linecap:round;stroke-linejoin:round;stroke-width:2px"/><path d="M60,67.13,54.79,73a11,11,0,0,0,.63,15.31l5,4.82,4.62-5a10.94,10.94,0,0,0,.33-14.72Z" style="fill:none;stroke:#000;stroke-linecap:round;stroke-linejoin:round;stroke-width:2px"/><path d="M69.27,63.31l.48,7.81A11,11,0,0,0,81,81.5L88,81.4l-.26-6.8A10.94,10.94,0,0,0,77.52,64Z" style="fill:none;stroke:#000;stroke-linecap:round;stroke-linejoin:round;stroke-width:2px"/><path d="M73.13,54,79,59.21a11,11,0,0,0,15.31-.63l4.82-5-5-4.62a10.94,10.94,0,0,0-14.72-.33Z" style="fill:none;stroke:#000;stroke-linecap:round;stroke-linejoin:round;stroke-width:2px"/><path d="M69.31,44.73l7.81-.48A11,11,0,0,0,87.5,33l-.1-6.92-6.8.26A10.94,10.94,0,0,0,70,36.48Z" style="fill:none;stroke:#000;stroke-linecap:round;stroke-linejoin:round;stroke-width:2px"/></svg>