<?xml version="1.0" encoding="utf-8"?>
<!-- Generator: Adobe Illustrator 25.4.1, SVG Export Plug-In . SVG Version: 6.00 Build 0)  -->
<svg version="1.1" id="Layer_1" xmlns="http://www.w3.org/2000/svg" xmlns:xlink="http://www.w3.org/1999/xlink" x="0px" y="0px"
	 viewBox="0 0 120 108" style="enable-background:new 0 0 120 108;" xml:space="preserve">
<style type="text/css">
	.st0{fill:none;stroke:#FF6347;stroke-width:20;stroke-miterlimit:10;}
	.st1{fill:none;stroke:#000000;stroke-width:2;stroke-linecap:round;stroke-linejoin:round;}
	.st2{fill:none;stroke:#000000;stroke-width:1.9998;stroke-linecap:round;stroke-linejoin:round;stroke-miterlimit:3.9996;}
	.st3{fill:#F7F6F1;stroke:#000000;stroke-width:2;stroke-linecap:round;stroke-linejoin:round;}
</style>
<polyline class="st0" points="29,41 45.5,57.5 81.5,21.5 "/>
<polygon class="st1" points="39.9,71.5 16.4,47.9 30.5,33.8 39.9,43.2 68.9,14.3 83,28.4 "/>
<line class="st1" x1="109" y1="98.1" x2="13" y2="98.1"/>
<polygon class="st1" points="74,71.7 72,85 83.8,78.6 "/>
<rect x="28.7" y="50.7" transform="matrix(0.7727 -0.6347 0.6347 0.7727 -21.4153 53.6341)" class="st2" width="71" height="12"/>
<line class="st1" x1="41" y1="68.6" x2="44.2" y2="72.5"/>
<line class="st1" x1="51.1" y1="60.3" x2="52.4" y2="61.9"/>
<line class="st1" x1="69.6" y1="45.1" x2="70.9" y2="46.7"/>
<line class="st1" x1="60.4" y1="52.7" x2="63.5" y2="56.6"/>
<line class="st1" x1="79.7" y1="36.9" x2="82.9" y2="40.7"/>
<circle cx="41.6" cy="77.9" r="1.5"/>
<g>
	<path d="M90.8,98.5H34.2c-5.1,0-9.2-4.1-9.2-9.2V9.7c0-5.1,4.1-9.2,9.2-9.2h56.6c5.1,0,9.2,4.1,9.2,9.2v79.6
		C100,94.4,95.9,98.5,90.8,98.5z M34.2,2.5c-4,0-7.2,3.2-7.2,7.2v79.6c0,4,3.2,7.2,7.2,7.2h56.6c4,0,7.2-3.2,7.2-7.2V9.7
		c0-4-3.2-7.2-7.2-7.2H34.2z"/>
</g>
<line class="st1" x1="38" y1="25.5" x2="86" y2="25.5"/>
<line class="st1" x1="50" y1="13.5" x2="74" y2="13.5"/>
<path class="st3" d="M101.1,35.8l7.2,5.1c0.7,0.5,0.9,1.5,0.4,2.2l0,0l-25,35.5l0,0L74,71.7l0,0l25-35.5
	C99.5,35.5,100.4,35.3,101.1,35.8z"/>
<line class="st1" x1="94.7" y1="42.2" x2="104.5" y2="49.1"/>
</svg>
