<svg xmlns="http://www.w3.org/2000/svg" viewBox="0 0 120 120"><circle cx="83.97" cy="56.42" r="9.21" style="fill:tomato"/><path d="M82.43,49.21a7.21,7.21,0,1,1-7.21,7.21,7.22,7.22,0,0,1,7.21-7.21m0-2a9.21,9.21,0,1,0,9.21,9.21,9.21,9.21,0,0,0-9.21-9.21Z"/><line x1="82.43" y1="38" x2="82.43" y2="42.61" style="fill:none;stroke:#000;stroke-linecap:round;stroke-linejoin:round;stroke-width:2px"/><line x1="64.3" y1="56.43" x2="68.91" y2="56.46" style="fill:none;stroke:#000;stroke-linecap:round;stroke-linejoin:round;stroke-width:2px"/><line x1="82.59" y1="74.7" x2="82.66" y2="70.09" style="fill:none;stroke:#000;stroke-linecap:round;stroke-linejoin:round;stroke-width:2px"/><line x1="101" y1="56.55" x2="96.4" y2="56.44" style="fill:none;stroke:#000;stroke-linecap:round;stroke-linejoin:round;stroke-width:2px"/><line x1="69.43" y1="43.62" x2="72.71" y2="46.85" style="fill:none;stroke:#000;stroke-linecap:round;stroke-linejoin:round;stroke-width:2px"/><line x1="69.83" y1="69.47" x2="73.08" y2="66.21" style="fill:none;stroke:#000;stroke-linecap:round;stroke-linejoin:round;stroke-width:2px"/><line x1="95.68" y1="69.27" x2="92.45" y2="65.99" style="fill:none;stroke:#000;stroke-linecap:round;stroke-linejoin:round;stroke-width:2px"/><line x1="95.67" y1="43.42" x2="92.37" y2="46.63" style="fill:none;stroke:#000;stroke-linecap:round;stroke-linejoin:round;stroke-width:2px"/><path d="M65.35,103.34h35.22a2.34,2.34,0,0,0,2.22-3.09L97.48,84.32a2.35,2.35,0,0,0-2.22-1.6H71.1a2.35,2.35,0,0,0-2.21,1.55L63.14,100.2A2.34,2.34,0,0,0,65.35,103.34Z" style="fill:none;stroke:#000;stroke-linecap:round;stroke-linejoin:round;stroke-width:2px"/><line x1="67.2" y1="89.59" x2="98.71" y2="89.59" style="fill:none;stroke:#000;stroke-linecap:round;stroke-linejoin:round;stroke-width:2px"/><line x1="64.91" y1="95.71" x2="101" y2="95.89" style="fill:none;stroke:#000;stroke-linecap:round;stroke-linejoin:round;stroke-width:2px"/><line x1="78.37" y1="83.29" x2="76.08" y2="102.77" style="fill:none;stroke:#000;stroke-linecap:round;stroke-linejoin:round;stroke-width:2px"/><line x1="88.11" y1="83.29" x2="89.83" y2="102.77" style="fill:none;stroke:#000;stroke-linecap:round;stroke-linejoin:round;stroke-width:2px"/><path d="M79.38,103.91h0a7.65,7.65,0,0,1-3.3,6.29l-.43.3" style="fill:none;stroke:#000;stroke-linecap:round;stroke-linejoin:round;stroke-width:2px"/><path d="M86.54,103.91h0a7.64,7.64,0,0,0,3.29,6.29l.43.3" style="fill:none;stroke:#000;stroke-linecap:round;stroke-linejoin:round;stroke-width:2px"/><line x1="109" y1="110.57" x2="13" y2="110.57" style="fill:none;stroke:#000;stroke-linecap:round;stroke-linejoin:round;stroke-width:2px"/><polyline points="13 110 13 14 50 14 50 110" style="fill:none;stroke:#000;stroke-linecap:round;stroke-linejoin:round;stroke-width:2px"/><rect x="26" y="86.57" width="10" height="24" style="fill:none;stroke:#000;stroke-linecap:round;stroke-linejoin:round;stroke-width:2px"/><rect x="18" y="18" width="7" height="7" style="fill:none;stroke:#000;stroke-linecap:round;stroke-linejoin:round;stroke-width:2px"/><rect x="38" y="18" width="7" height="7" style="fill:none;stroke:#000;stroke-linecap:round;stroke-linejoin:round;stroke-width:2px"/><rect x="18" y="30" width="7" height="7" style="fill:none;stroke:#000;stroke-linecap:round;stroke-linejoin:round;stroke-width:2px"/><rect x="38" y="30" width="7" height="7" style="fill:none;stroke:#000;stroke-linecap:round;stroke-linejoin:round;stroke-width:2px"/><rect x="18" y="42" width="7" height="7" style="fill:none;stroke:#000;stroke-linecap:round;stroke-linejoin:round;stroke-width:2px"/><rect x="38" y="42" width="7" height="7" style="fill:none;stroke:#000;stroke-linecap:round;stroke-linejoin:round;stroke-width:2px"/><rect x="18" y="54" width="7" height="7" style="fill:none;stroke:#000;stroke-linecap:round;stroke-linejoin:round;stroke-width:2px"/><rect x="38" y="54" width="7" height="7" style="fill:none;stroke:#000;stroke-linecap:round;stroke-linejoin:round;stroke-width:2px"/><rect x="18" y="66" width="7" height="7" style="fill:none;stroke:#000;stroke-linecap:round;stroke-linejoin:round;stroke-width:2px"/><rect x="38" y="66" width="7" height="7" style="fill:none;stroke:#000;stroke-linecap:round;stroke-linejoin:round;stroke-width:2px"/></svg>