<svg xmlns="http://www.w3.org/2000/svg" viewBox="0 0 120 120"><path d="M70.34,23.71a12.8,12.8,0,1,0-23.4,7.19,50.45,50.45,0,0,1,5.81,11.55l.21.6L57.53,56l4.58-12.91.21-.6a56.56,56.56,0,0,1,5.95-11.77A12.69,12.69,0,0,0,70.34,23.71Z" style="fill:tomato"/><path d="M58.39,102.48l14.07-7.54a57.66,57.66,0,0,1,41.39-5.07" style="fill:none;stroke:#000;stroke-linecap:round;stroke-linejoin:round;stroke-width:2px"/><path d="M16,102.53,30.1,95a57.66,57.66,0,0,1,59.24,2.88l7.83,5.23" style="fill:#fff;stroke:#000;stroke-linecap:round;stroke-linejoin:round;stroke-width:2px"/><path d="M31.08,110l14.07-7.54a57.65,57.65,0,0,1,59.25,2.88l7.83,5.23" style="fill:#fff;stroke:#000;stroke-linecap:round;stroke-linejoin:round;stroke-width:2px"/><polyline points="12 110 12 88.96 40.25 88.96 40.25 110" style="fill:#fff;stroke:#000;stroke-linecap:round;stroke-linejoin:round;stroke-width:2px"/><polyline points="12 88.96 25.82 73.33 40.25 88.96" style="fill:none;stroke:#000;stroke-linecap:round;stroke-linejoin:round;stroke-width:2px"/><rect x="18.61" y="95.57" width="6.91" height="7.21" style="fill:none;stroke:#000;stroke-linecap:round;stroke-linejoin:round;stroke-width:2px"/><rect x="25.52" y="95.57" width="6.91" height="7.21" style="fill:none;stroke:#000;stroke-linecap:round;stroke-linejoin:round;stroke-width:2px"/><line x1="16.23" y1="110.57" x2="112.23" y2="110.57" style="fill:none;stroke:#000;stroke-linecap:round;stroke-linejoin:round;stroke-width:2px"/><path d="M81.85,81.84h26.51A1.77,1.77,0,0,0,110,79.51l-4-12a1.76,1.76,0,0,0-1.68-1.21H86.18a1.76,1.76,0,0,0-1.66,1.16l-4.33,12A1.77,1.77,0,0,0,81.85,81.84Z" style="fill:none;stroke:#000;stroke-linecap:round;stroke-linejoin:round;stroke-width:2px"/><path d="M84.52,67.48C68.23,72.54,64.23,62,64.23,62H56.6s10.92,14.21,26.65,9.47H107" style="fill:none;stroke:#000;stroke-linecap:round;stroke-linejoin:round;stroke-width:2px"/><line x1="81.53" y1="76.09" x2="108.68" y2="76.23" style="fill:none;stroke:#000;stroke-linecap:round;stroke-linejoin:round;stroke-width:2px"/><line x1="91.66" y1="66.75" x2="89.93" y2="81.41" style="fill:none;stroke:#000;stroke-linecap:round;stroke-linejoin:round;stroke-width:2px"/><line x1="98.99" y1="66.75" x2="100.28" y2="81.41" style="fill:none;stroke:#000;stroke-linecap:round;stroke-linejoin:round;stroke-width:2px"/><path d="M85.12,90l4.81-3a5.75,5.75,0,0,0,2.48-4.73h0" style="fill:none;stroke:#000;stroke-linecap:round;stroke-linejoin:round;stroke-width:2px"/><path d="M97.8,82.27h0A5.75,5.75,0,0,0,100.28,87l.32.23" style="fill:none;stroke:#000;stroke-linecap:round;stroke-linejoin:round;stroke-width:2px"/><line x1="60" y1="87.23" x2="60" y2="62.02" style="fill:none;stroke:#000;stroke-linecap:round;stroke-linejoin:round;stroke-width:2px"/><path d="M64.23,62S57.47,81.64,29,76.75" style="fill:none;stroke:#000;stroke-linecap:round;stroke-linejoin:round;stroke-width:2px"/><path d="M56.6,62s3.61,13.57-30.78,11.32" style="fill:none;stroke:#000;stroke-linecap:round;stroke-linejoin:round;stroke-width:2px"/><line x1="76" y1="12.35" x2="74.58" y2="10.94" style="fill:none;stroke:#000;stroke-linecap:round;stroke-linejoin:round;stroke-width:2px"/><line x1="80.27" y1="16.56" x2="78.85" y2="15.16" style="fill:none;stroke:#000;stroke-linecap:round;stroke-linejoin:round;stroke-width:2px"/><line x1="78.83" y1="12.33" x2="80.23" y2="10.9" style="fill:none;stroke:#000;stroke-linecap:round;stroke-linejoin:round;stroke-width:2px"/><line x1="74.62" y1="16.6" x2="76.02" y2="15.18" style="fill:none;stroke:#000;stroke-linecap:round;stroke-linejoin:round;stroke-width:2px"/><line x1="89" y1="24.35" x2="87.58" y2="22.94" style="fill:none;stroke:#000;stroke-linecap:round;stroke-linejoin:round;stroke-width:2px"/><line x1="93.27" y1="28.56" x2="91.85" y2="27.16" style="fill:none;stroke:#000;stroke-linecap:round;stroke-linejoin:round;stroke-width:2px"/><line x1="91.83" y1="24.33" x2="93.23" y2="22.9" style="fill:none;stroke:#000;stroke-linecap:round;stroke-linejoin:round;stroke-width:2px"/><line x1="87.62" y1="28.6" x2="89.02" y2="27.18" style="fill:none;stroke:#000;stroke-linecap:round;stroke-linejoin:round;stroke-width:2px"/><line x1="12.58" y1="18.9" x2="11.15" y2="17.5" style="fill:none;stroke:#000;stroke-linecap:round;stroke-linejoin:round;stroke-width:2px"/><line x1="16.85" y1="23.12" x2="15.42" y2="21.71" style="fill:none;stroke:#000;stroke-linecap:round;stroke-linejoin:round;stroke-width:2px"/><line x1="15.4" y1="18.88" x2="16.81" y2="17.46" style="fill:none;stroke:#000;stroke-linecap:round;stroke-linejoin:round;stroke-width:2px"/><line x1="11.19" y1="23.16" x2="12.6" y2="21.73" style="fill:none;stroke:#000;stroke-linecap:round;stroke-linejoin:round;stroke-width:2px"/><line x1="101.36" y1="11.99" x2="99.93" y2="10.59" style="fill:none;stroke:#000;stroke-linecap:round;stroke-linejoin:round;stroke-width:2px"/><line x1="105.63" y1="16.2" x2="104.21" y2="14.8" style="fill:none;stroke:#000;stroke-linecap:round;stroke-linejoin:round;stroke-width:2px"/><line x1="104.19" y1="11.97" x2="105.59" y2="10.55" style="fill:none;stroke:#000;stroke-linecap:round;stroke-linejoin:round;stroke-width:2px"/><line x1="99.97" y1="16.24" x2="101.38" y2="14.82" style="fill:none;stroke:#000;stroke-linecap:round;stroke-linejoin:round;stroke-width:2px"/><path d="M68.69,23.71a12.81,12.81,0,1,0-23.4,7.19,50.41,50.41,0,0,1,5.8,11.55l.22.6L55.88,56l4.57-12.91.22-.6a55.6,55.6,0,0,1,6-11.77A12.69,12.69,0,0,0,68.69,23.71Z" style="fill:none;stroke:#000;stroke-linecap:round;stroke-linejoin:round;stroke-width:2px"/></svg>