<svg xmlns="http://www.w3.org/2000/svg" viewBox="0 0 120 120"><path d="M60.48,71.1l5.67-12a18.52,18.52,0,0,0-8.33-24.61L47.39,29,42.2,39.32a18.48,18.48,0,0,0,6.48,24.1Z" style="fill:#ff6248"/><path d="M58.52,71.1l-5.67-12a18.52,18.52,0,0,1,8.33-24.61L71.61,29,76.8,39.32a18.48,18.48,0,0,1-6.48,24.1Z" style="fill:#ff6248"/><line x1="108" y1="110.57" x2="12" y2="110.57" style="fill:none;stroke:#000;stroke-linecap:round;stroke-linejoin:round;stroke-width:2px"/><path d="M88.92,45.51a29,29,0,1,0-50.83,19,44.09,44.09,0,0,1,10.48,29v.44H71.35v-.44a46.82,46.82,0,0,1,11-29.62A28.8,28.8,0,0,0,88.92,45.51Z" style="fill:none;stroke:#000;stroke-linecap:round;stroke-linejoin:round;stroke-width:2px"/><path d="M60,71l8.83-10a18.51,18.51,0,0,0-1.07-26L59.3,26.87l-7.89,8.45a18.49,18.49,0,0,0-.56,25Z" style="fill:none;stroke:#000;stroke-linecap:round;stroke-linejoin:round;stroke-width:2px"/><line x1="60.2" y1="94.4" x2="60.2" y2="45.46" style="fill:none;stroke:#000;stroke-linecap:round;stroke-linejoin:round;stroke-width:2px"/><line x1="59.49" y1="59.7" x2="53.87" y2="53.13" style="fill:none;stroke:#000;stroke-linecap:round;stroke-linejoin:round;stroke-width:2px"/><line x1="60.43" y1="59.7" x2="66.06" y2="53.13" style="fill:none;stroke:#000;stroke-linecap:round;stroke-linejoin:round;stroke-width:2px"/><rect x="43.55" y="94.4" width="32.83" height="6.57" rx="3.28" style="fill:none;stroke:#000;stroke-linecap:round;stroke-linejoin:round;stroke-width:2px"/><rect x="43.55" y="100.97" width="32.83" height="6.57" rx="3.28" style="fill:none;stroke:#000;stroke-linecap:round;stroke-linejoin:round;stroke-width:2px"/><path d="M55.27,107.53h9.38l-.84.85a5.55,5.55,0,0,1-8.54-.85Z" style="fill:none;stroke:#000;stroke-linecap:round;stroke-linejoin:round;stroke-width:2px"/><line x1="59.65" y1="7" x2="59.65" y2="12.63" style="fill:none;stroke:#000;stroke-linecap:round;stroke-linejoin:round;stroke-width:2px"/><line x1="53.42" y1="7.56" x2="54.33" y2="13.11" style="fill:none;stroke:#000;stroke-linecap:round;stroke-linejoin:round;stroke-width:2px"/><line x1="47.36" y1="9.12" x2="49.16" y2="14.45" style="fill:none;stroke:#000;stroke-linecap:round;stroke-linejoin:round;stroke-width:2px"/><line x1="41.64" y1="11.64" x2="44.28" y2="16.61" style="fill:none;stroke:#000;stroke-linecap:round;stroke-linejoin:round;stroke-width:2px"/><line x1="36.4" y1="15.06" x2="39.81" y2="19.54" style="fill:none;stroke:#000;stroke-linecap:round;stroke-linejoin:round;stroke-width:2px"/><line x1="31.78" y1="19.29" x2="35.88" y2="23.15" style="fill:none;stroke:#000;stroke-linecap:round;stroke-linejoin:round;stroke-width:2px"/><line x1="27.91" y1="24.2" x2="32.58" y2="27.35" style="fill:none;stroke:#000;stroke-linecap:round;stroke-linejoin:round;stroke-width:2px"/><line x1="24.89" y1="29.68" x2="30" y2="32.03" style="fill:none;stroke:#000;stroke-linecap:round;stroke-linejoin:round;stroke-width:2px"/><line x1="22.8" y1="35.57" x2="28.22" y2="37.06" style="fill:none;stroke:#000;stroke-linecap:round;stroke-linejoin:round;stroke-width:2px"/><line x1="21.69" y1="41.73" x2="27.28" y2="42.32" style="fill:none;stroke:#000;stroke-linecap:round;stroke-linejoin:round;stroke-width:2px"/><line x1="21.59" y1="47.99" x2="27.21" y2="47.66" style="fill:none;stroke:#000;stroke-linecap:round;stroke-linejoin:round;stroke-width:2px"/><line x1="22.51" y1="54.17" x2="28" y2="52.94" style="fill:none;stroke:#000;stroke-linecap:round;stroke-linejoin:round;stroke-width:2px"/><line x1="24.42" y1="60.13" x2="29.64" y2="58.03" style="fill:none;stroke:#000;stroke-linecap:round;stroke-linejoin:round;stroke-width:2px"/><line x1="27.27" y1="65.7" x2="32.07" y2="62.78" style="fill:none;stroke:#000;stroke-linecap:round;stroke-linejoin:round;stroke-width:2px"/><line x1="30.98" y1="70.74" x2="35.25" y2="67.07" style="fill:none;stroke:#000;stroke-linecap:round;stroke-linejoin:round;stroke-width:2px"/><line x1="86.87" y1="72.92" x2="82.97" y2="68.87" style="fill:none;stroke:#000;stroke-linecap:round;stroke-linejoin:round;stroke-width:2px"/><line x1="90.97" y1="68.2" x2="86.46" y2="64.83" style="fill:none;stroke:#000;stroke-linecap:round;stroke-linejoin:round;stroke-width:2px"/><line x1="94.25" y1="62.87" x2="89.25" y2="60.28" style="fill:none;stroke:#000;stroke-linecap:round;stroke-linejoin:round;stroke-width:2px"/><line x1="96.62" y1="57.08" x2="91.27" y2="55.33" style="fill:none;stroke:#000;stroke-linecap:round;stroke-linejoin:round;stroke-width:2px"/><line x1="98.02" y1="50.98" x2="92.46" y2="50.13" style="fill:none;stroke:#000;stroke-linecap:round;stroke-linejoin:round;stroke-width:2px"/><line x1="98.41" y1="44.74" x2="92.78" y2="44.8" style="fill:none;stroke:#000;stroke-linecap:round;stroke-linejoin:round;stroke-width:2px"/><line x1="97.79" y1="38.51" x2="92.24" y2="39.48" style="fill:none;stroke:#000;stroke-linecap:round;stroke-linejoin:round;stroke-width:2px"/><line x1="96.16" y1="32.47" x2="90.85" y2="34.33" style="fill:none;stroke:#000;stroke-linecap:round;stroke-linejoin:round;stroke-width:2px"/><line x1="93.58" y1="26.77" x2="88.63" y2="29.47" style="fill:none;stroke:#000;stroke-linecap:round;stroke-linejoin:round;stroke-width:2px"/><line x1="90.1" y1="21.57" x2="85.66" y2="25.03" style="fill:none;stroke:#000;stroke-linecap:round;stroke-linejoin:round;stroke-width:2px"/><line x1="85.83" y1="17" x2="82.01" y2="21.13" style="fill:none;stroke:#000;stroke-linecap:round;stroke-linejoin:round;stroke-width:2px"/><line x1="80.87" y1="13.18" x2="77.78" y2="17.88" style="fill:none;stroke:#000;stroke-linecap:round;stroke-linejoin:round;stroke-width:2px"/><line x1="75.36" y1="10.22" x2="73.07" y2="15.36" style="fill:none;stroke:#000;stroke-linecap:round;stroke-linejoin:round;stroke-width:2px"/><line x1="69.45" y1="8.19" x2="68.01" y2="13.63" style="fill:none;stroke:#000;stroke-linecap:round;stroke-linejoin:round;stroke-width:2px"/><line x1="63.28" y1="7.14" x2="62.75" y2="12.74" style="fill:none;stroke:#000;stroke-linecap:round;stroke-linejoin:round;stroke-width:2px"/></svg>