<?xml version="1.0" encoding="utf-8"?>
<!-- Generator: Adobe Illustrator 25.4.1, SVG Export Plug-In . SVG Version: 6.00 Build 0)  -->
<svg version="1.1" id="Layer_1" xmlns="http://www.w3.org/2000/svg" xmlns:xlink="http://www.w3.org/1999/xlink" x="0px" y="0px"
	 viewBox="0 0 120 108" style="enable-background:new 0 0 120 108;" xml:space="preserve">
<style type="text/css">
	.st0{fill:none;stroke:#000000;stroke-width:2;stroke-linecap:round;stroke-linejoin:round;}
	.st1{fill:#FF6347;}
</style>
<line class="st0" x1="108" y1="100.2" x2="12" y2="100.2"/>
<path class="st0" d="M29.3,87.6h61.5c2.3,0,4.1-1.8,4.1-4.1c0-0.4-0.1-0.9-0.2-1.3l-9.3-27.8c-0.6-1.7-2.1-2.8-3.9-2.8H39.3
	c-1.7,0-3.3,1.1-3.8,2.7l-10,27.8c-0.8,2.1,0.3,4.5,2.4,5.2C28.3,87.6,28.8,87.6,29.3,87.6z"/>
<line class="st0" x1="32.5" y1="63.6" x2="87.5" y2="63.6"/>
<line class="st0" x1="28.5" y1="74.3" x2="91.5" y2="74.6"/>
<line class="st0" x1="52" y1="52.6" x2="48" y2="86.6"/>
<line class="st0" x1="69" y1="52.6" x2="72" y2="86.6"/>
<path class="st0" d="M53.8,88.6L53.8,88.6c0,4.4-2.1,8.5-5.8,11l-0.7,0.5"/>
<path class="st0" d="M66.2,88.6L66.2,88.6c0,4.4,2.1,8.5,5.8,11l0.7,0.5"/>
<g>
	<circle class="st1" cx="61.1" cy="21.4" r="9.2"/>
</g>
<g>
	<path d="M59.6,14.2c4,0,7.2,3.2,7.2,7.2s-3.2,7.2-7.2,7.2s-7.2-3.2-7.2-7.2l0,0C52.4,17.4,55.6,14.2,59.6,14.2 M59.6,12.2
		c-5.1,0-9.2,4.1-9.2,9.2s4.1,9.2,9.2,9.2s9.2-4.1,9.2-9.2l0,0C68.8,16.3,64.7,12.2,59.6,12.2z"/>
</g>
<g>
	<path d="M59.6,8.6c-0.6,0-1-0.4-1-1V2.9c0-0.6,0.4-1,1-1s1,0.4,1,1v4.6C60.6,8.1,60.1,8.6,59.6,8.6z"/>
</g>
<g>
	<path d="M46.1,22.4L46.1,22.4h-4.6c-0.6,0-1-0.5-1-1s0.5-1,1-1l0,0h4.6c0.6,0,1,0.5,1,1C47.1,22,46.6,22.4,46.1,22.4z"/>
</g>
<g>
	<path d="M59.8,40.6C59.7,40.6,59.7,40.6,59.8,40.6c-0.6,0-1-0.5-1-1l0.1-4.6c0-0.6,0.5-1,1-1c0.6,0,1,0.5,1,1l-0.1,4.6
		C60.7,40.2,60.3,40.6,59.8,40.6z"/>
</g>
<g>
	<path d="M78.2,22.5C78.2,22.5,78.1,22.5,78.2,22.5l-4.7-0.1c-0.6,0-1-0.5-1-1c0-0.6,0.5-1,1-1l4.6,0.1c0.6,0,1,0.5,1,1
		C79.1,22.1,78.7,22.5,78.2,22.5z"/>
</g>
<g>
	<path d="M49.9,12.8c-0.3,0-0.5-0.1-0.7-0.3l-3.3-3.2c-0.4-0.4-0.4-1,0-1.4s1-0.4,1.4,0l3.3,3.2c0.4,0.4,0.4,1,0,1.4
		C50.4,12.7,50.1,12.8,49.9,12.8z"/>
</g>
<g>
	<path d="M47,35.4c-0.3,0-0.5-0.1-0.7-0.3c-0.4-0.4-0.4-1,0-1.4l3.3-3.2c0.4-0.4,1-0.4,1.4,0s0.4,1,0,1.4l-3.3,3.2
		C47.5,35.3,47.2,35.4,47,35.4z"/>
</g>
<g>
	<path d="M72.8,35.2c-0.3,0-0.5-0.1-0.7-0.3l-3.2-3.3c-0.4-0.4-0.4-1,0-1.4s1-0.4,1.4,0l3.2,3.3c0.4,0.4,0.4,1,0,1.4
		C73.3,35.1,73.1,35.2,72.8,35.2z"/>
</g>
<g>
	<path d="M69.5,12.6c-0.3,0-0.5-0.1-0.7-0.3c-0.4-0.4-0.4-1,0-1.4l3.3-3.2c0.4-0.4,1-0.4,1.4,0c0.4,0.4,0.4,1,0,1.4l-3.3,3.2
		C70,12.5,69.8,12.6,69.5,12.6z"/>
</g>
<g>
	<path d="M107,6.1c-0.6,0-1-0.4-1-1v-2c0-0.6,0.4-1,1-1s1,0.4,1,1v2C108,5.7,107.6,6.1,107,6.1z"/>
</g>
<g>
	<path d="M107,12.1c-0.6,0-1-0.4-1-1v-2c0-0.6,0.4-1,1-1s1,0.4,1,1v2C108,11.7,107.6,12.1,107,12.1z"/>
</g>
<g>
	<path d="M111,8.1h-2c-0.6,0-1-0.4-1-1s0.4-1,1-1h2c0.6,0,1,0.4,1,1S111.6,8.1,111,8.1z"/>
</g>
<g>
	<path d="M105,8.1h-2c-0.6,0-1-0.4-1-1s0.4-1,1-1h2c0.6,0,1,0.4,1,1S105.6,8.1,105,8.1z"/>
</g>
<g>
	<path d="M24,50.6c-0.6,0-1-0.4-1-1v-2c0-0.6,0.4-1,1-1s1,0.4,1,1v2C25,50.2,24.6,50.6,24,50.6z"/>
</g>
<line class="st0" x1="24" y1="55.6" x2="24" y2="53.6"/>
<line class="st0" x1="26" y1="51.6" x2="28" y2="51.6"/>
<line class="st0" x1="20" y1="51.6" x2="22" y2="51.6"/>
<g>
	<path d="M94.2,38.8c-0.3,0-0.5-0.1-0.7-0.3L92,37.2c-0.4-0.4-0.4-1,0-1.4s1-0.4,1.4,0l1.4,1.4c0.4,0.4,0.4,1,0,1.4
		C94.7,38.7,94.4,38.8,94.2,38.8z"/>
</g>
<g>
	<path d="M98.4,43c-0.3,0-0.5-0.1-0.7-0.3l-1.4-1.3c-0.4-0.4-0.4-1,0-1.4s1-0.4,1.4,0l1.4,1.4c0.4,0.4,0.4,1,0,1.4
		C98.9,42.9,98.7,43,98.4,43z"/>
</g>
<g>
	<path d="M97,38.8c-0.3,0-0.5-0.1-0.7-0.3c-0.4-0.4-0.4-1,0-1.4l1.4-1.4c0.4-0.4,1-0.4,1.4,0s0.4,1,0,1.4l-1.4,1.4
		C97.5,38.7,97.2,38.8,97,38.8z"/>
</g>
<g>
	<path d="M92.8,43.1c-0.3,0-0.5-0.1-0.7-0.3c-0.4-0.4-0.4-1,0-1.4l1.4-1.4c0.4-0.4,1-0.4,1.4,0s0.4,1,0,1.4l-1.4,1.4
		C93.3,43,93,43.1,92.8,43.1z"/>
</g>
<g>
	<path d="M10.1,3.3C9.8,3.3,9.6,3.2,9.4,3L8,1.7c-0.4-0.4-0.4-1,0-1.4c0.4-0.4,1-0.4,1.4,0l1.4,1.4c0.4,0.4,0.4,1,0,1.4
		C10.7,3.2,10.4,3.3,10.1,3.3z"/>
</g>
<g>
	<path d="M14.4,7.5c-0.3,0-0.5-0.1-0.7-0.3l-1.4-1.3c-0.4-0.4-0.4-1,0-1.4s1-0.4,1.4,0l1.4,1.4c0.4,0.4,0.4,1,0,1.4
		C14.9,7.4,14.7,7.5,14.4,7.5z"/>
</g>
<g>
	<path d="M13,3.3c-0.3,0-0.5-0.1-0.7-0.3c-0.4-0.4-0.4-1,0-1.4l1.4-1.4c0.4-0.4,1-0.4,1.4,0s0.4,1,0,1.4L13.7,3
		C13.5,3.2,13.2,3.3,13,3.3z"/>
</g>
<g>
	<path d="M8.8,7.6c-0.3,0-0.5-0.1-0.7-0.3c-0.4-0.4-0.4-1,0-1.4l1.4-1.4c0.4-0.4,1-0.4,1.4,0s0.4,1,0,1.4L9.5,7.3
		C9.3,7.5,9,7.6,8.8,7.6z"/>
</g>
</svg>
