<?xml version="1.0" encoding="utf-8"?>
<!-- Generator: Adobe Illustrator 25.4.1, SVG Export Plug-In . SVG Version: 6.00 Build 0)  -->
<svg version="1.1" id="Layer_1" xmlns="http://www.w3.org/2000/svg" xmlns:xlink="http://www.w3.org/1999/xlink" x="0px" y="0px"
	 viewBox="0 0 120 108" style="enable-background:new 0 0 120 108;" xml:space="preserve">
<style type="text/css">
	.st0{fill:#FF6347;}
	.st1{fill:none;stroke:#000000;stroke-width:2;stroke-linecap:round;stroke-linejoin:round;}
</style>
<circle class="st0" cx="84" cy="45.9" r="9.2"/>
<path d="M82.4,38.8c4,0,7.2,3.2,7.2,7.2s-3.2,7.2-7.2,7.2S75.2,50,75.2,46l0,0C75.2,41.9,78.5,38.8,82.4,38.8 M82.4,36.8
	c-5.1,0-9.2,4.1-9.2,9.2s4.1,9.2,9.2,9.2s9.2-4.1,9.2-9.2l0,0C91.6,40.9,87.5,36.8,82.4,36.8z"/>
<line class="st1" x1="82.4" y1="27.5" x2="82.4" y2="32.1"/>
<line class="st1" x1="64.3" y1="45.9" x2="68.9" y2="45.9"/>
<line class="st1" x1="82.6" y1="64.1" x2="82.7" y2="59.6"/>
<line class="st1" x1="101" y1="46.1" x2="96.4" y2="45.9"/>
<line class="st1" x1="69.4" y1="33.1" x2="72.7" y2="36.4"/>
<line class="st1" x1="69.8" y1="58.9" x2="73.1" y2="55.8"/>
<line class="st1" x1="95.7" y1="58.8" x2="92.4" y2="55.4"/>
<line class="st1" x1="95.7" y1="33" x2="92.4" y2="36.1"/>
<path class="st1" d="M65.3,92.8h35.2c1.3,0,2.3-1,2.3-2.3c0-0.3,0-0.5-0.1-0.8l-5.3-15.9c-0.3-1-1.2-1.6-2.2-1.6H71.1
	c-1,0-1.9,0.6-2.2,1.6l-5.8,15.9c-0.4,1.2,0.2,2.6,1.4,3C64.8,92.8,65.1,92.8,65.3,92.8z"/>
<line class="st1" x1="67.2" y1="79" x2="98.7" y2="79"/>
<line class="st1" x1="64.9" y1="85.3" x2="101" y2="85.3"/>
<line class="st1" x1="78.4" y1="72.8" x2="76.1" y2="92.3"/>
<line class="st1" x1="88.1" y1="72.8" x2="89.8" y2="92.3"/>
<path class="st1" d="M79.4,93.5L79.4,93.5c0,2.5-1.2,4.8-3.3,6.2l-0.4,0.3"/>
<path class="st1" d="M86.5,93.5L86.5,93.5c0,2.5,1.2,4.8,3.3,6.2l0.4,0.3"/>
<line class="st1" x1="109" y1="100" x2="13" y2="100"/>
<polyline class="st1" points="13,99.5 13,3.5 50,3.5 50,99.5 "/>
<rect x="26" y="76" class="st1" width="10" height="24"/>
<rect x="18" y="7.5" class="st1" width="7" height="7"/>
<rect x="38" y="7.5" class="st1" width="7" height="7"/>
<rect x="18" y="19.5" class="st1" width="7" height="7"/>
<rect x="38" y="19.5" class="st1" width="7" height="7"/>
<rect x="18" y="31.5" class="st1" width="7" height="7"/>
<rect x="38" y="31.5" class="st1" width="7" height="7"/>
<rect x="18" y="43.4" class="st1" width="7" height="7"/>
<rect x="38" y="43.4" class="st1" width="7" height="7"/>
<rect x="18" y="55.4" class="st1" width="7" height="7"/>
<rect x="38" y="55.4" class="st1" width="7" height="7"/>
</svg>
