<svg xmlns="http://www.w3.org/2000/svg" viewBox="0 0 120 120"><path d="M61.34,27.24h0A14.41,14.41,0,0,0,46.22,13.82c-7.32.35-13.69,6.25-13.7,13.57,0,14,14.63,24.44,14.63,24.44s14.19-10.49,14.19-23.6c0-.32,0-.62,0-.93Z" style="fill:tomato"/><path d="M65.46,67.31a1.5,1.5,0,0,1-.62-.13,1.57,1.57,0,0,1-1-1.47v-4H63a7.05,7.05,0,0,1-7-7V40.86a7.05,7.05,0,0,1,7-7H81.24a7.05,7.05,0,0,1,7,7V54.64a7.05,7.05,0,0,1-7,7H72.66l-6.15,5.21A1.45,1.45,0,0,1,65.46,67.31Zm-.25-1.93,0,0ZM63,35.82a5,5,0,0,0-5,5V54.64a5,5,0,0,0,5,5h1.24a1.6,1.6,0,0,1,1.6,1.59v3.56l5.59-4.74a1.52,1.52,0,0,1,1.06-.41h8.73a5,5,0,0,0,5-5V40.86a5,5,0,0,0-5-5Zm1.24,25.86h0Zm8.54-.12,0,0S72.79,61.58,72.8,61.56Z"/><path d="M92.07,97.89a1.56,1.56,0,0,1-1.1-.46l-5.68-4.8H77.36a6.74,6.74,0,0,1-6.73-6.73V73.14a6.74,6.74,0,0,1,6.73-6.73H94.27A6.74,6.74,0,0,1,101,73.14V85.9a6.74,6.74,0,0,1-6.73,6.73h-.64v3.7a1.55,1.55,0,0,1-1,1.44A1.61,1.61,0,0,1,92.07,97.89Zm.23-2,0,0ZM77.36,68.41a4.75,4.75,0,0,0-4.73,4.73V85.9a4.75,4.75,0,0,0,4.73,4.73h8.1a1.56,1.56,0,0,1,1.1.45l5.07,4.29V92.18a1.54,1.54,0,0,1,1.55-1.55h1.09A4.74,4.74,0,0,0,99,85.9V73.14a4.74,4.74,0,0,0-4.73-4.73ZM85.2,92.55l0,0Z"/><path d="M34.79,113.94a3,3,0,0,1-1.13-.23,2.87,2.87,0,0,1-1.8-2.69v-7H30.33A11.34,11.34,0,0,1,19,92.71V65.05A11.34,11.34,0,0,1,30.33,53.72H50.86a1,1,0,0,1,0,2H30.33A9.33,9.33,0,0,0,21,65.05V92.71A9.33,9.33,0,0,0,30.33,102H32a1.89,1.89,0,0,1,1.89,1.89V111a.89.89,0,0,0,.56.84.91.91,0,0,0,1-.2l9.07-9.07a1.88,1.88,0,0,1,1.33-.55h16.4a9.39,9.39,0,0,0,8.71-6,1,1,0,1,1,1.86.72A11.39,11.39,0,0,1,62.22,104H45.82l-9,9A2.88,2.88,0,0,1,34.79,113.94Z"/><path d="M70.89,53.38h0a1,1,0,0,1-.74-.32l-5.42-5.81a1,1,0,0,1,1.47-1.36l4.69,5,7.54-8.08a1,1,0,1,1,1.46,1.37l-8.27,8.86A1,1,0,0,1,70.89,53.38Z"/><path d="M81.42,84.93a1,1,0,0,1-.7-.29,1,1,0,0,1,0-1.41L89.5,74.4a1,1,0,0,1,1.42,0,1,1,0,0,1,0,1.41l-8.79,8.83A1,1,0,0,1,81.42,84.93Z"/><path d="M90.21,84.93a1,1,0,0,1-.71-.29l-8.79-8.83a1,1,0,0,1,1.42-1.41l8.79,8.83a1,1,0,0,1,0,1.41A1,1,0,0,1,90.21,84.93Z"/><path d="M50.86,48.9H40a1,1,0,0,1,0-2H50.86a1,1,0,0,1,0,2Z"/><path d="M50.86,43.9h-7a1,1,0,0,1,0-2h7a1,1,0,0,1,0,2Z"/><path d="M35.14,48.9h-.23a1,1,0,0,1,0-2h.23a1,1,0,0,1,0,2Z"/><path d="M30.14,48.9h-.23a1,1,0,0,1,0-2h.23a1,1,0,0,1,0,2Z"/><path d="M46.66,73.8a5.39,5.39,0,1,1,5.39-5.39A5.4,5.4,0,0,1,46.66,73.8Zm0-8.78a3.39,3.39,0,1,0,3.39,3.39A3.39,3.39,0,0,0,46.66,65Z"/><path d="M50.63,94.73h0l-7.41,0a3,3,0,0,1-.82-5.93V82a3,3,0,0,1-2.18-2.9,3,3,0,0,1,.89-2.13A3,3,0,0,1,43.25,76l5.88,0a2.36,2.36,0,0,1,2.34,2.35v10.4a3,3,0,0,1-.84,5.91Zm-7.4-4.09a1,1,0,0,0,0,2l7.41,0h0a1,1,0,0,0,.72-.3,1,1,0,0,0-.72-1.73h-.16a1,1,0,0,1-1-1V78.42a.35.35,0,0,0-.35-.35l-5.89,0h0a1,1,0,1,0,0,2h.16a1,1,0,0,1,1,1v8.57a1,1,0,0,1-1,1Z"/><path d="M63.12,114H23.42a1,1,0,0,1,0-2h39.7a1,1,0,1,1,0,2Z"/></svg>