<svg xmlns="http://www.w3.org/2000/svg" viewBox="0 0 50 38.18"><rect x="7.25" y="3.54" width="35.5" height="35.5" style="fill:#fff;fill-opacity:0"/><path d="M28.28,4.46,29.53,8.3h4l-1.26,3.87,3.28,2.37-1.39,1h-1l-1.1,1.11h0a9.74,9.74,0,0,0-1.39-1.12,8.86,8.86,0,0,0-1.53-.85,1,1,0,0,0,0-.17,4.2,4.2,0,0,0-7.17-3,4,4,0,0,0-1.22,3v.15a10.55,10.55,0,0,0-1.57.87,10.25,10.25,0,0,0-1.38,1.12c-.37-.38-.75-.75-1.12-1.12h-1l-1.39-1,3.27-2.37L16.42,8.3h4l1.25-3.84L25,6.84Z" style="fill:#ee7787;fill-rule:evenodd"/><path d="M36.19,16.21a1.62,1.62,0,0,1,1.16-.47,1.73,1.73,0,0,1,1.39.75,1.59,1.59,0,0,1,.25.89,1.64,1.64,0,0,1-.25.88,2.91,2.91,0,0,1-.24.27,1.53,1.53,0,0,1-1.15.48,1.59,1.59,0,0,1-1.16-.48,1.74,1.74,0,0,1-.22-.27H34.36l-1.23,1.22a9,9,0,0,1,1.25,4.73A9.39,9.39,0,0,1,25,33.59a9.39,9.39,0,0,1-9.39-9.38,9.07,9.07,0,0,1,1.24-4.72l-1.22-1.23H14a1.74,1.74,0,0,1-.22.27,1.59,1.59,0,0,1-1.16.48,1.57,1.57,0,0,1-1.16-.48,2.61,2.61,0,0,1-.22-.27,1.57,1.57,0,0,1-.26-.88,1.68,1.68,0,0,1,.25-.89,2,2,0,0,1,.23-.28,1.6,1.6,0,0,1,1.16-.47,1.62,1.62,0,0,1,1.16.47,1.49,1.49,0,0,1,.23.28h2.33l1.54,1.57c.15-.17.3-.33.46-.49a9.29,9.29,0,0,1,13.27,0c.16.15.31.31.45.47h0l1.56-1.54H36A2,2,0,0,1,36.19,16.21Zm-6,2.77A7.09,7.09,0,0,0,29,18,7,7,0,0,0,25,16.83a7.37,7.37,0,0,0-7.39,7.38,7.13,7.13,0,0,0,1.24,4.12h0a6.35,6.35,0,0,1,.8-.93,7.21,7.21,0,0,1,3.65-2l-.09,1.14L23,26.7a2.8,2.8,0,0,0,0,3.95h0l.23.2a0,0,0,0,0,0,0,2.76,2.76,0,0,0,1.72.6h0a2.67,2.67,0,0,0,1.71-.59h0a1.71,1.71,0,0,0,.25-.22h0a2.71,2.71,0,0,0,.83-2,2.67,2.67,0,0,0-.83-2,1.8,1.8,0,0,0-.2-.19l-.09-1.13a7.14,7.14,0,0,1,3.64,2,6.35,6.35,0,0,1,.8.93h0A7.41,7.41,0,0,0,30.21,19Z" style="fill:#6e83bf;fill-rule:evenodd"/><path d="M25.19,19,25.86,27a1.54,1.54,0,0,1,.44.33,1.76,1.76,0,0,1,.55,1.31A1.74,1.74,0,0,1,26.3,30a1.37,1.37,0,0,1-.17.17,1.88,1.88,0,0,1-2.28,0c-.05-.05-.11-.1-.16-.16a1.77,1.77,0,0,1-.54-1.3,1.79,1.79,0,0,1,.54-1.31,2.18,2.18,0,0,1,.42-.33L24.79,19Z" style="fill:#ee7787;fill-rule:evenodd"/></svg>