<?xml version="1.0" encoding="utf-8"?>
<!-- Generator: Adobe Illustrator 25.4.1, SVG Export Plug-In . SVG Version: 6.00 Build 0)  -->
<svg version="1.1" id="Layer_1" xmlns="http://www.w3.org/2000/svg" xmlns:xlink="http://www.w3.org/1999/xlink" x="0px" y="0px"
	 viewBox="0 0 120 108" style="enable-background:new 0 0 120 108;" xml:space="preserve">
<style type="text/css">
	.st0{fill:none;stroke:#000000;stroke-width:2;stroke-linecap:round;stroke-linejoin:round;}
	.st1{fill:#FF6347;}
</style>
<line class="st0" x1="60" y1="99.3" x2="60" y2="65.1"/>
<g>
	<path d="M108,100.8H12c-0.6,0-1-0.4-1-1s0.4-1,1-1h96c0.6,0,1,0.4,1,1S108.6,100.8,108,100.8z"/>
</g>
<g>
	<circle class="st1" cx="61.5" cy="40.8" r="9.2"/>
	<path d="M62.1,33c3.8,1.2,5.9,5.2,4.7,9c-1.2,3.8-5.2,5.9-9,4.7s-5.9-5.2-4.7-9l0,0C54.3,33.9,58.3,31.8,62.1,33 M62.7,31.1
		c-4.9-1.5-10,1.1-11.5,6s1.1,10,6,11.5c4.9,1.5,10-1.1,11.5-6l0,0C70.2,37.8,67.6,32.7,62.7,31.1z"/>
	<g>
		<path d="M63.5,28.5L63.5,28.5c-0.3-0.1-0.5-0.3-0.6-0.6l-3.2-7.6c-2.4-5.6-0.2-12.1,5.2-15.1l5.9-3.4c0.3-0.1,0.6-0.1,0.9,0
			C71.9,1.8,72,2,72.1,2.2l3.3,6.1c3.1,5.7,1.2,12.8-4.4,16.1l-6.7,4.1C64.1,28.6,63.8,28.6,63.5,28.5z M70.8,4l-5,2.8
			c-4.5,2.4-6.4,7.9-4.3,12.7l2.8,6.5l5.7-3.4c4.7-2.8,6.3-8.7,3.6-13.4L70.8,4z"/>
	</g>
	<path class="st0" d="M53.8,28.4l1.9-7.6c1.5-5.7-1.9-11.6-7.5-13.3l-6.6-2l-1.8,6.6c-1.5,5.4,1.2,11.1,6.4,13.2L53.8,28.4z"/>
	<path class="st0" d="M47.4,36.1l-4.1-6.7c-3-5.1-9.6-6.9-14.8-4l-6.1,3.3l3.4,5.9c2.7,5,8.8,7,13.9,4.7L47.4,36.1z"/>
	<path class="st0" d="M48.2,46.1l-7.6-1.9c-5.7-1.5-11.6,1.9-13.3,7.5l-2,6.7l6.6,1.8c5.4,1.6,11.1-1.2,13.2-6.5L48.2,46.1z"/>
	<path class="st0" d="M55.9,52.7l-6.7,4.1c-5.1,3-6.9,9.6-4,14.8l3.3,6.1l5.9-3.4c5-2.7,7-8.8,4.7-13.9L55.9,52.7z"/>
	<path class="st0" d="M65.9,51.7l-1.9,7.6c-1.5,5.7,1.9,11.6,7.5,13.3l6.7,2l1.8-6.6c1.5-5.4-1.3-11.1-6.5-13.2L65.9,51.7z"/>
	<path class="st0" d="M72.4,44l4.1,6.7c3,5.1,9.6,6.9,14.8,4l6.1-3.3l-3.4-5.9c-2.7-5-8.8-7-13.9-4.7L72.4,44z"/>
	<path class="st0" d="M71.5,34.1l7.6,1.9c5.7,1.4,11.6-1.9,13.3-7.6l2-6.6L87.8,20c-5.4-1.6-11.1,1.2-13.2,6.4L71.5,34.1z"/>
</g>
</svg>
