<?xml version="1.0" encoding="utf-8"?>
<!-- Generator: Adobe Illustrator 25.4.1, SVG Export Plug-In . SVG Version: 6.00 Build 0)  -->
<svg version="1.1" id="Layer_1" xmlns="http://www.w3.org/2000/svg" xmlns:xlink="http://www.w3.org/1999/xlink" x="0px" y="0px"
	 viewBox="0 0 120 117.4" style="enable-background:new 0 0 120 117.4;" xml:space="preserve">
<style type="text/css">
	.st0{fill:#FF6248;}
	.st1{fill:none;stroke:#000000;stroke-width:2;stroke-linecap:round;stroke-linejoin:round;}
</style>
<path class="st0" d="M61.7,68.5l5.7-12c4.4-9.1,0.7-20.1-8.4-24.6l-10.4-5.5l-5.2,10.3c-4.4,8.5-1.6,19,6.5,24.1L61.7,68.5z"/>
<path class="st0" d="M61.6,68.1l-5-12.3c-3.9-9.3,0.5-20.1,9.7-24.1L77,26.8l4.7,10.6c3.9,8.7,0.5,19-7.9,23.7L61.6,68.1z"/>
<path class="st0" d="M64.1,67.1l-9.2-9.6c-7.1-7.2-7.1-18.8,0-26L63,23l8.2,8.1c6.9,6.6,7.6,17.5,1.6,24.9L64.1,67.1z"/>
<path class="st1" d="M78.3,36.7l-5.2-10.3l-10.4,5.5c-1,0.5-1.8,1-2.7,1.7c-0.8-0.6-1.7-1.2-2.7-1.7l-10.4-5.5l-5.2,10.3
	c-4.4,8.5-1.6,19,6.5,24.1L60,68.5l0,0l0,0l11.8-7.7C79.9,55.7,82.7,45.2,78.3,36.7z"/>
<line class="st1" x1="108" y1="108" x2="12" y2="108"/>
<path class="st1" d="M89,42.9c0-16-12.9-29-28.9-29.1S31.1,26.7,31,42.7c0,7.1,2.5,13.9,7.2,19.2c6.9,8.1,10.6,18.4,10.5,29v0.4
	h22.8v-0.4c0.1-10.8,4-21.3,11-29.6C86.7,56.1,89,49.6,89,42.9z"/>
<path class="st1" d="M60,68.4l8.8-10c6.8-7.5,6.3-19.1-1.1-26l-8.5-8.1l-7.9,8.4c-6.6,6.9-6.9,17.8-0.6,25L60,68.4z"/>
<line class="st1" x1="60" y1="91.8" x2="60" y2="42.9"/>
<g>
	<line class="st1" x1="59.5" y1="57.1" x2="53.9" y2="50.5"/>
	<line class="st1" x1="60.5" y1="57.1" x2="66.1" y2="50.5"/>
</g>
<path class="st1" d="M46.8,91.8h26.3c1.8,0,3.3,1.5,3.3,3.3l0,0c0,1.8-1.5,3.3-3.3,3.3H46.8c-1.8,0-3.3-1.5-3.3-3.3l0,0
	C43.5,93.3,45,91.8,46.8,91.8z"/>
<path class="st1" d="M46.8,98.4h26.3c1.8,0,3.3,1.5,3.3,3.3l0,0c0,1.8-1.5,3.3-3.3,3.3H46.8c-1.8,0-3.3-1.5-3.3-3.3l0,0
	C43.5,99.8,45,98.4,46.8,98.4z"/>
<path class="st1" d="M55.3,104.9h9.4l-0.8,0.8c-2.2,2.2-5.7,2.2-7.8,0C55.7,105.5,55.5,105.2,55.3,104.9z"/>
<g>
	<path d="M60,10.1c-0.6,0-1-0.4-1-1V1c0-0.6,0.4-1,1-1s1,0.4,1,1v8.1C61,9.6,60.6,10.1,60,10.1z"/>
</g>
<line class="st1" x1="36.2" y1="19.1" x2="22.2" y2="6.7"/>
<line class="st1" x1="26.4" y1="43.1" x2="9.9" y2="43.1"/>
<line class="st1" x1="36.4" y1="66.9" x2="19" y2="84.3"/>
<line class="st1" x1="84.2" y1="66.6" x2="108" y2="87.8"/>
<line class="st1" x1="94" y1="42.7" x2="111.2" y2="42.7"/>
<line class="st1" x1="84" y1="18.8" x2="98.4" y2="4.4"/>
<line class="st1" x1="47.8" y1="11.4" x2="44.8" y2="3.8"/>
<line class="st1" x1="29.2" y1="29.4" x2="18.2" y2="24.5"/>
<line class="st1" x1="28.8" y1="55.2" x2="15.6" y2="60.3"/>
<line class="st1" x1="91.2" y1="56.2" x2="108" y2="65.7"/>
<line class="st1" x1="91.6" y1="30.4" x2="105.8" y2="24.9"/>
<line class="st1" x1="73.6" y1="11.8" x2="76.9" y2="4.4"/>
</svg>
