<svg xmlns="http://www.w3.org/2000/svg" viewBox="0 0 120 120"><line x1="59.95" y1="113.62" x2="59.99" y2="110.62" style="fill:none;stroke:#000;stroke-linecap:round;stroke-linejoin:round;stroke-width:2px"/><circle cx="63.62" cy="60" r="24" style="fill:tomato"/><path d="M59.62,38a22,22,0,1,1-22,22,22,22,0,0,1,22-22m0-2a24,24,0,1,0,24,24,24,24,0,0,0-24-24Z"/><path d="M64,38A22,22,0,1,1,42,60,22,22,0,0,1,64,38m0-2A24,24,0,1,0,88,60,24,24,0,0,0,64,36Z"/><line x1="59.62" y1="12" x2="59.62" y2="24" style="fill:none;stroke:#000;stroke-linecap:round;stroke-linejoin:round;stroke-width:2px"/><line x1="59.62" y1="6" x2="59.62" y2="9" style="fill:none;stroke:#000;stroke-linecap:round;stroke-linejoin:round;stroke-width:2px"/><line x1="12.38" y1="60.02" x2="24.38" y2="60.11" style="fill:none;stroke:#000;stroke-linecap:round;stroke-linejoin:round;stroke-width:2px"/><line x1="6.38" y1="59.97" x2="9.38" y2="59.99" style="fill:none;stroke:#000;stroke-linecap:round;stroke-linejoin:round;stroke-width:2px"/><line x1="60.04" y1="107.62" x2="60.22" y2="95.62" style="fill:none;stroke:#000;stroke-linecap:round;stroke-linejoin:round;stroke-width:2px"/><line x1="108" y1="60.32" x2="96" y2="60.05" style="fill:none;stroke:#000;stroke-linecap:round;stroke-linejoin:round;stroke-width:2px"/><line x1="114" y1="60.46" x2="111" y2="60.39" style="fill:none;stroke:#000;stroke-linecap:round;stroke-linejoin:round;stroke-width:2px"/><line x1="25.75" y1="26.65" x2="34.29" y2="35.07" style="fill:none;stroke:#000;stroke-linecap:round;stroke-linejoin:round;stroke-width:2px"/><line x1="21.48" y1="22.43" x2="23.61" y2="24.54" style="fill:none;stroke:#000;stroke-linecap:round;stroke-linejoin:round;stroke-width:2px"/><line x1="26.77" y1="94" x2="35.26" y2="85.52" style="fill:none;stroke:#000;stroke-linecap:round;stroke-linejoin:round;stroke-width:2px"/><line x1="22.53" y1="98.24" x2="24.65" y2="96.12" style="fill:none;stroke:#000;stroke-linecap:round;stroke-linejoin:round;stroke-width:2px"/><line x1="94.13" y1="93.48" x2="85.71" y2="84.93" style="fill:none;stroke:#000;stroke-linecap:round;stroke-linejoin:round;stroke-width:2px"/><line x1="98.34" y1="97.76" x2="96.23" y2="95.62" style="fill:none;stroke:#000;stroke-linecap:round;stroke-linejoin:round;stroke-width:2px"/><line x1="94.13" y1="26.13" x2="85.51" y2="34.48" style="fill:none;stroke:#000;stroke-linecap:round;stroke-linejoin:round;stroke-width:2px"/><line x1="98.43" y1="21.95" x2="96.28" y2="24.04" style="fill:none;stroke:#000;stroke-linecap:round;stroke-linejoin:round;stroke-width:2px"/><path d="M66.68,56C66,54.87,64,54,62.19,54,60,54,58,54.63,58,56.49s2.1,2.08,4.33,2.34c3.89.48,8,1.17,8,5.86,0,3.59-3,5.61-6.31,5.85V73.2H60.64V70.67c-3-.26-5.74-1.62-7-4.55l3.14-1.33c.71,1.7,3.08,2.8,5.29,2.8,2.39,0,4.6-.83,4.6-2.9,0-1.76-2.21-2.4-4.68-2.69-3.8-.43-7.53-1.09-7.53-5.51,0-3.48,3.09-5.08,6.17-5.45V48.72H64V51c2.26.34,4.34,1.19,5.54,3.64Z"/></svg>