<svg xmlns="http://www.w3.org/2000/svg" viewBox="0 0 120 120"><path d="M110,87.11a6.86,6.86,0,0,1-4.86-2L44.87,24.58a6.86,6.86,0,0,1,9.72-9.67l60.23,60.51A6.85,6.85,0,0,1,110,87.11Z" style="fill:#12bdc6"/><path d="M78.22,62.68a1,1,0,0,0-1-1H39.35a1,1,0,0,0,0,1.9H77.27a1,1,0,0,0,1-1Z"/><path d="M81.44,100.67l-1.64-1-2.12-1.28h0l-1.65-1,8.39-13.92,3.72-6.18,1.64,1h0l2.13,1.28h0l1.64,1L82.79,98.44l-1.35,2.23Zm-5.77-1.26,1,.62h0l2.12,1.28,1,.62-4.15,2.16,0-4.68Zm14.6-25.65h0a.47.47,0,0,1,.19-.18.5.5,0,0,1,.24-.06.48.48,0,0,1,.26.07h0l4.56,2.74a.65.65,0,0,1,.18.19.5.5,0,0,1,.06.24.48.48,0,0,1-.07.26h0l-1.16,1.92-1.64-1h0l-2.13-1.29h0l-1.65-1,1.16-1.92ZM32.69,113.24a4.49,4.49,0,0,0,2.5.76H81.43a4.62,4.62,0,0,0,1.74-.35,4.5,4.5,0,0,0,2-1.62,4.4,4.4,0,0,0,.77-2.5V97l9.77-16.23h0L97.31,78a2.43,2.43,0,0,0,.35-1.24,2.5,2.5,0,0,0-.3-1.16,2.37,2.37,0,0,0-.86-.89h0L91.94,72h0a2.44,2.44,0,0,0-1.24-.34,2.39,2.39,0,0,0-2,1.16h0L87,75.52h0l-1.1,1.83V65.46a1,1,0,1,0-1.9,0V80.05a.93.93,0,0,0,.06.34l-1.27,2.12L73.91,97.25h0l0,0v0a.59.59,0,0,0,0,.08v0l0,.08v0a.43.43,0,0,0,0,.11v0a.34.34,0,0,0,0,.1h0l0,7.88a1,1,0,0,0,1.39.84l7-3.64h0l.1-.06h0l.1-.08,0,0,.06-.07,0,0,.06-.09h0L84,100.11v9.42a2.54,2.54,0,0,1-1.14,2.13,2.52,2.52,0,0,1-1.43.44H35.19a2.57,2.57,0,0,1-2.57-2.57V50.47a2.55,2.55,0,0,1,.2-1,2.6,2.6,0,0,1,.94-1.13,2.52,2.52,0,0,1,1.43-.44H81.43A2.57,2.57,0,0,1,84,50.47v2.82a1,1,0,0,0,1.9,0h0V50.47a4.47,4.47,0,0,0-2-3.71,4.49,4.49,0,0,0-2.5-.76H35.19a4.62,4.62,0,0,0-1.74.35,4.5,4.5,0,0,0-2.73,4.12v59.06a4.47,4.47,0,0,0,2,3.71Z"/><path d="M72.83,55a1,1,0,0,0,0-1.9H46A1,1,0,0,0,46,55Z"/><path d="M46.26,100.24a1.15,1.15,0,1,0,1.63,0,1.15,1.15,0,0,0-1.63,0Z"/><polygon points="97.31 78 97.31 78 97.31 78 97.31 78 97.31 78"/><rect x="76.08" y="78.17" transform="translate(-32.99 76.69) rotate(-45)"/><path d="M47.15,104.08l-4.92-5,1.92-1.89h0l4-3.92,2,2a.95.95,0,0,0,1.34-1.34l-2-2,3.1-3.06,1.29,1.28a.95.95,0,0,0,1.34-1.34l-1.28-1.28L57,84.5l1.92,1.92a1,1,0,0,0,1.35,0,1,1,0,0,0,0-1.34l-1.92-1.91,3.1-3.06,1.23,1.22A.95.95,0,0,0,64,80l-1.22-1.22,3.1-3.06,1.87,1.87a1,1,0,0,0,1.34,0,1,1,0,0,0,0-1.35l-1.86-1.85,2.48-2.45,4.91,5-27.5,27.17Zm.12.12ZM76.61,76.9a1.54,1.54,0,0,0-.12-.63,1.72,1.72,0,0,0-.36-.57L71,70.48a1.67,1.67,0,0,0-.58-.38,1.56,1.56,0,0,0-.64-.13,1.71,1.71,0,0,0-.67.14,1.8,1.8,0,0,0-.59.38l-3,3L42.82,95.86h0l-2,2a1.93,1.93,0,0,0-.39.57,1.89,1.89,0,0,0-.13.66,1.59,1.59,0,0,0,.13.64,1.75,1.75,0,0,0,.37.57l5.16,5.23h0a1.67,1.67,0,0,0,.58.38,1.61,1.61,0,0,0,.65.13,1.72,1.72,0,0,0,.63-.12,1.68,1.68,0,0,0,.56-.36h0L76.08,78.17a1.81,1.81,0,0,0,.4-.59,1.75,1.75,0,0,0,.13-.68Z"/><path d="M85,58.47a1,1,0,0,0,0,1.9,1,1,0,1,0,0-1.9Z"/></svg>