<svg xmlns="http://www.w3.org/2000/svg" viewBox="0 0 120 111.5"><circle cx="56" cy="18.8" r="18" style="fill:tomato"/><path d="M103.1,103.6H75.4l-6-13.4L68.5,68h0l-.6-14L78,61.1H77a.89.89,0,0,0-.8,1,.86.86,0,0,0,.8.8h6.7a.89.89,0,0,0,.8-1,.86.86,0,0,0-.8-.8H81.2L67.7,51.6l-.5-12.1,5.9,4.1h-.9a.89.89,0,0,0-.8,1,.86.86,0,0,0,.8.8h6.7a.89.89,0,0,0,.8-1,.86.86,0,0,0-.8-.8H76.4l-9.6-6.7-4.2-3.3a.78.78,0,0,0-1.1,0l-4.2,3.3-9.6,6.7H45.2a.89.89,0,0,0-.8,1,.86.86,0,0,0,.8.8h6.7a.89.89,0,0,0,.8-1,.86.86,0,0,0-.8-.8H51l5.9-4.1-.5,12.1L42.9,61.1H40.4a.89.89,0,0,0-.8,1,.86.86,0,0,0,.8.8H47a.89.89,0,0,0,.8-1,.86.86,0,0,0-.8-.8H46L56.2,54l-.6,14h0l-.9,22.2-6,13.4H20.9a.89.89,0,0,0-.8,1,.86.86,0,0,0,.8.8h82.2a.89.89,0,0,0,.8-1c0-.4-.4-.7-.8-.8ZM60.9,44.5l-2.7,4.2.3-8Zm4.5-3.7.3,8L63,44.5Zm.2,50.6L62,94l-3.6-2.6Zm-8.5-1.9L62,80.3l4.9,9.2Zm11,2.4,4.4,9.9-8.9-6.6Zm-5-13.6,3.7-6.9.6,15Zm-1-2L57.7,68,62,61.2,66.4,68Zm1.1-16.7L66,55.1l.4,9.6Zm2.6-7.5L62,57.8l-3.7-5.7L62,46.2ZM61,59.6l-3.3,5.1.3-9.6Zm0,18.7-4.3,8.1.6-15ZM56,91.8l4.5,3.3-8.9,6.6Zm6,4.5,10,7.3H52Zm0-60.7,3,2.3-3,4.8-3-4.8Z" style="fill:#1a1a1a"/><path d="M60,38A19,19,0,1,1,79,19,19,19,0,0,1,60,38ZM60,2A17,17,0,1,0,77,19,17,17,0,0,0,60,2Z" style="fill:#1a1a1a"/></svg>