<svg xmlns="http://www.w3.org/2000/svg" viewBox="0 0 120 120"><circle cx="62" cy="28.6" r="18" style="fill:tomato"/><path d="M103.08,112.11H75.41l-6-13.43-.94-22.21h0l-.59-14L78,69.62H77a.95.95,0,0,0,0,1.89H83.7a.95.95,0,0,0,0-1.89H81.23l-13.5-9.48-.51-12.06,5.86,4.11h-.94a.95.95,0,0,0,0,1.89h6.67a.95.95,0,0,0,0-1.89H76.34l-9.58-6.72-4.2-3.28a.93.93,0,0,0-1.12,0l-4.2,3.28-9.58,6.72H45.19a.95.95,0,0,0,0,1.89h6.67a.95.95,0,0,0,0-1.89h-.94l5.86-4.11-.51,12.06-13.5,9.48H40.3a.95.95,0,0,0,0,1.89H47a.95.95,0,0,0,0-1.89H46L56.17,62.5l-.59,14h0l-.94,22.21-6,13.43H20.92a.95.95,0,0,0,0,1.89h82.16a.95.95,0,0,0,0-1.89ZM60.9,53l-2.66,4.25.33-8Zm4.53-3.71.33,8L63.1,53Zm.15,50.6L62,102.48l-3.58-2.63ZM57.11,98,62,88.79,66.89,98Zm11,2.38,4.44,9.86-8.94-6.56Zm-5-13.52,3.67-6.88.63,15Zm-1-2-4.42-8.29L62,69.77l4.42,6.79Zm1.11-16.78L66,63.58l.41,9.59Zm2.62-7.42L62,66.37l-3.73-5.72L62,54.71Zm-4.84,7.42-3.33,5.1L58,63.58ZM61,86.82l-4.3,8.07.63-15Zm-5,13.52,4.5,3.3-8.94,6.56ZM62,104.8l10,7.31H52.05Zm0-60.67,3,2.33-3,4.75-3-4.75Z" style="fill:#1a1a1a"/><rect x="114.51" y="112" width="1.5" height="2" style="fill:lime"/></svg>