<?xml version="1.0" encoding="utf-8"?>
<!-- Generator: Adobe Illustrator 25.4.1, SVG Export Plug-In . SVG Version: 6.00 Build 0)  -->
<svg version="1.1" id="Layer_1" xmlns="http://www.w3.org/2000/svg" xmlns:xlink="http://www.w3.org/1999/xlink" x="0px" y="0px"
	 viewBox="0 0 120 110.7" style="enable-background:new 0 0 120 110.7;" xml:space="preserve">
<style type="text/css">
	.st0{fill:#FF6347;}
	.st1{fill:none;stroke:#000000;stroke-width:2;stroke-linecap:round;stroke-linejoin:round;}
	.st2{fill:#F7F6F1;stroke:#000000;stroke-width:2;stroke-linecap:round;stroke-linejoin:round;}
</style>
<path class="st0" d="M70.3,14.4c0-7.1-5.7-12.8-12.8-12.8S44.7,7.3,44.7,14.4c0,0,0,0,0,0c0,2.6,0.8,5.1,2.2,7.2
	c2.4,3.6,4.4,7.5,5.8,11.6l0.3,0.5l4.6,13l4.6-12.9l0.2-0.6c1.5-4.1,3.5-8.1,5.9-11.8C69.7,19.3,70.3,16.9,70.3,14.4z"/>
<path class="st1" d="M58.4,93.2l14.1-7.5c12.7-6.8,27.4-8.6,41.4-5.1"/>
<path class="st2" d="M16,93.2l14.1-7.5c18.8-10,41.5-8.9,59.2,2.9l7.8,5.2"/>
<path class="st2" d="M31.1,100.7l14.1-7.5c18.8-10.1,41.5-8.9,59.2,2.9l7.8,5.2"/>
<polyline class="st2" points="12,100.7 12,79.7 40.2,79.7 40.2,100.7 "/>
<polyline class="st1" points="12,79.7 25.8,64 40.2,79.7 "/>
<rect x="18.6" y="86.3" class="st1" width="6.9" height="7.2"/>
<rect x="25.5" y="86.3" class="st1" width="6.9" height="7.2"/>
<line class="st1" x1="16.2" y1="101.3" x2="112.2" y2="101.3"/>
<path class="st1" d="M81.8,72.5h26.5c0.9,0,1.7-0.7,1.7-1.6c0-0.1,0-0.1,0-0.2c0-0.2,0-0.4-0.1-0.5l-4-12c-0.2-0.7-0.9-1.2-1.7-1.2
	h-18c-0.7,0.1-1.4,0.5-1.7,1.2l-4.3,12c-0.3,0.9,0.2,2,1.1,2.3H81.8z"/>
<path class="st1" d="M84.5,58.2c-16.3,5-20.3-5.5-20.3-5.5h-7.6c0,0,10.9,14.2,26.7,9.5H107"/>
<line class="st1" x1="81.5" y1="66.8" x2="108.7" y2="66.9"/>
<line class="st1" x1="91.7" y1="57.5" x2="89.9" y2="72.1"/>
<line class="st1" x1="99" y1="57.5" x2="100.3" y2="72.1"/>
<path class="st1" d="M85.1,80.7l4.8-3c1.6-1,2.5-2.8,2.5-4.7l0,0"/>
<path class="st1" d="M97.8,73L97.8,73c0,1.9,0.9,3.7,2.5,4.7l0.3,0.2"/>
<line class="st1" x1="60" y1="77.9" x2="60" y2="52.7"/>
<path class="st1" d="M64.2,52.7c0,0-6.8,19.6-35.2,14.8"/>
<path class="st1" d="M56.6,52.7c0,0,3.6,13.6-30.8,11.3"/>
<line class="st1" x1="76" y1="3.1" x2="74.6" y2="1.6"/>
<line class="st1" x1="80.3" y1="7.3" x2="78.8" y2="5.9"/>
<line class="st1" x1="78.8" y1="3" x2="80.2" y2="1.6"/>
<line class="st1" x1="74.6" y1="7.3" x2="76" y2="5.9"/>
<line class="st1" x1="89" y1="15.1" x2="87.6" y2="13.6"/>
<line class="st1" x1="93.3" y1="19.3" x2="91.8" y2="17.9"/>
<line class="st1" x1="91.8" y1="15" x2="93.2" y2="13.6"/>
<line class="st1" x1="87.6" y1="19.3" x2="89" y2="17.9"/>
<line class="st1" x1="12.6" y1="9.6" x2="11.1" y2="8.2"/>
<line class="st1" x1="16.9" y1="13.8" x2="15.4" y2="12.4"/>
<line class="st1" x1="15.4" y1="9.6" x2="16.8" y2="8.2"/>
<line class="st1" x1="11.2" y1="13.9" x2="12.6" y2="12.4"/>
<line class="st1" x1="101.4" y1="2.7" x2="99.9" y2="1.3"/>
<line class="st1" x1="105.6" y1="6.9" x2="104.2" y2="5.5"/>
<line class="st1" x1="104.2" y1="2.7" x2="105.6" y2="1.3"/>
<line class="st1" x1="100" y1="6.9" x2="101.4" y2="5.5"/>
<path class="st1" d="M68.7,14.4c0-7.1-5.7-12.8-12.8-12.8c-7.1,0-12.8,5.7-12.8,12.8c0,2.6,0.8,5.1,2.2,7.2
	c2.4,3.6,4.4,7.5,5.8,11.6l0.2,0.6l4.6,13l4.6-12.9l0.2-0.6c1.5-4.2,3.5-8.1,6-11.8C68,19.3,68.7,16.9,68.7,14.4z"/>
</svg>
