<?xml version="1.0" encoding="utf-8"?>
<!-- Generator: Adobe Illustrator 25.4.1, SVG Export Plug-In . SVG Version: 6.00 Build 0)  -->
<svg version="1.1" id="Layer_1" xmlns="http://www.w3.org/2000/svg" xmlns:xlink="http://www.w3.org/1999/xlink" x="0px" y="0px"
	 viewBox="0 0 120 115" style="enable-background:new 0 0 120 115;" xml:space="preserve">
<style type="text/css">
	.st0{fill:none;stroke:#000000;stroke-width:2;stroke-linecap:round;stroke-linejoin:round;}
	.st1{fill:#FF6347;}
</style>
<line class="st0" x1="60" y1="108.6" x2="60" y2="105.6"/>
<circle class="st1" cx="63.6" cy="55" r="24"/>
<path d="M59.6,33c12.2,0,22,9.8,22,22s-9.8,22-22,22s-22-9.8-22-22S47.5,33,59.6,33 M59.6,31c-13.3,0-24,10.7-24,24s10.7,24,24,24
	s24-10.7,24-24l0,0C83.6,41.7,72.9,31,59.6,31z"/>
<path d="M64,33c12.2,0,22,9.8,22,22s-9.8,22-22,22s-22-9.8-22-22S51.8,33,64,33 M64,31c-13.3,0-24,10.7-24,24s10.7,24,24,24
	s24-10.7,24-24S77.3,31,64,31z"/>
<line class="st0" x1="59.6" y1="7" x2="59.6" y2="19"/>
<g>
	<path d="M59.6,5c-0.6,0-1-0.4-1-1V1c0-0.6,0.4-1,1-1s1,0.4,1,1v3C60.6,4.6,60.2,5,59.6,5z"/>
</g>
<line class="st0" x1="12.4" y1="55" x2="24.4" y2="55.1"/>
<line class="st0" x1="6.4" y1="55" x2="9.4" y2="55"/>
<line class="st0" x1="60" y1="102.6" x2="60.2" y2="90.6"/>
<line class="st0" x1="108" y1="55.3" x2="96" y2="55"/>
<line class="st0" x1="114" y1="55.5" x2="111" y2="55.4"/>
<line class="st0" x1="25.8" y1="21.6" x2="34.3" y2="30.1"/>
<line class="st0" x1="21.5" y1="17.4" x2="23.6" y2="19.5"/>
<line class="st0" x1="26.8" y1="89" x2="35.3" y2="80.5"/>
<line class="st0" x1="22.5" y1="93.2" x2="24.6" y2="91.1"/>
<line class="st0" x1="94.1" y1="88.5" x2="85.7" y2="79.9"/>
<line class="st0" x1="98.3" y1="92.8" x2="96.2" y2="90.6"/>
<line class="st0" x1="94.1" y1="21.1" x2="85.5" y2="29.5"/>
<line class="st0" x1="98.4" y1="17" x2="96.3" y2="19"/>
<path d="M66.7,51c-0.7-1.1-2.7-2-4.5-2C60,49,58,49.6,58,51.5s2.1,2.1,4.3,2.3c3.9,0.5,8,1.2,8,5.9c0,3.6-3,5.6-6.3,5.8v2.7h-3.4
	v-2.5c-3-0.3-5.7-1.6-7-4.6l3.1-1.3c0.7,1.7,3.1,2.8,5.3,2.8c2.4,0,4.6-0.8,4.6-2.9c0-1.8-2.2-2.4-4.7-2.7c-3.8-0.4-7.5-1.1-7.5-5.5
	c0-3.5,3.1-5.1,6.2-5.5v-2.3H64V46c2.3,0.3,4.3,1.2,5.5,3.6L66.7,51z"/>
</svg>
