<svg xmlns="http://www.w3.org/2000/svg" viewBox="0 0 50 38.18"><rect x="8.73" y="3.42" width="32.54" height="31.42" style="fill:#fff;fill-opacity:0"/><path d="M20.61,18.17h0Zm2.06-2.34h0Z" style="fill:tomato;fill-rule:evenodd"/><path d="M32.94,20.54h0Zm-1.62.26Z" style="fill:#ef5050;fill-rule:evenodd"/><path d="M18.83,25v0A5.79,5.79,0,0,1,19,23.72a5.31,5.31,0,0,1,.63-1.63l.06-.1.05-.07c.43-.76.79-1.45,1.1-2.07s.51-1.09.63-1.42a7.86,7.86,0,0,0,.29-1.12c.09-.42.42-.64,1-.64h4.57c.57,0,.9.22,1,.64a7.86,7.86,0,0,0,.29,1.12,12,12,0,0,0,.63,1.42c.31.62.67,1.31,1.1,2.07l.05.07.06.1A5.31,5.31,0,0,1,31,23.72,6.48,6.48,0,0,1,31.17,25v0a5.62,5.62,0,0,1-1.81,4.21c-.22.21-.44.4-.67.58a6.39,6.39,0,0,1-7.37,0,7.44,7.44,0,0,1-.68-.58A5.66,5.66,0,0,1,18.83,25Zm7.93-6.43a.41.41,0,0,0,.3-.12.38.38,0,0,0,.13-.3.37.37,0,0,0-.13-.29.42.42,0,0,0-.3-.13H23.25a.44.44,0,0,0-.31.13.37.37,0,0,0-.13.29.38.38,0,0,0,.13.3.43.43,0,0,0,.31.12h.26v2.17l-.63.68a.4.4,0,0,0-.1.28V25.9a.4.4,0,0,0,.12.29.42.42,0,0,0,.31.13.41.41,0,0,0,.3-.12,2.2,2.2,0,0,1,3,0,.41.41,0,0,0,.3.12.42.42,0,0,0,.31-.13.41.41,0,0,0,.13-.29V21.71a.41.41,0,0,0-.11-.28l-.62-.68V18.58Z" style="fill:#6e83bf;fill-rule:evenodd"/><path d="M25.63,20.9a.42.42,0,0,0,.1.28l.63.68v3.22a3,3,0,0,0-1.36-.3,3,3,0,0,0-1.35.3V21.86l.62-.68a.43.43,0,0,0,.11-.28V18.58h1.25Z" style="fill:#6e83bf;fill-rule:evenodd"/><path d="M22,4.22l3,2.11,3-2.11,1.14,3.41h3.72l-1.16,3.42,3,2.1-3,2.1,1.16,3.41H29.59c-.09-.19-.15-.36-.2-.49a9.31,9.31,0,0,1-.27-1A1.43,1.43,0,0,0,28.31,16v-1a3.57,3.57,0,0,0,.55-1.94,3.51,3.51,0,0,0-1.13-2.62,3.7,3.7,0,0,0-2.16-1.06V12H26l1.47,1.42v2.39H22.56V13.44L24,12h.4V9.47a3.72,3.72,0,0,0-2.14,1,3.63,3.63,0,0,0-.6,4.52v1a1.4,1.4,0,0,0-.81,1.12h0a8.74,8.74,0,0,1-.27,1h0a5.11,5.11,0,0,1-.2.49H17.14l1.14-3.41-3-2.11,3-2.1L17.14,7.63h3.71Z" style="fill:#ee7787;fill-rule:evenodd"/><path d="M17,20.54a.58.58,0,0,1,.35-.26.59.59,0,0,1,.45.07l.84.47a.55.55,0,0,1,.27.33.54.54,0,0,1-.07.43.55.55,0,0,1-.36.27.62.62,0,0,1-.44-.07l-.84-.47A.54.54,0,0,1,17,21,.51.51,0,0,1,17,20.54Z" style="fill:#ee7787;fill-rule:evenodd"/><path d="M16.17,26.89a.56.56,0,0,1-.24-.35.55.55,0,0,1,.1-.43.58.58,0,0,1,.37-.24l1-.16a.57.57,0,0,1,.44.1.52.52,0,0,1,.14.78.55.55,0,0,1-.37.24l-.95.16A.63.63,0,0,1,16.17,26.89Z" style="fill:#ee7787;fill-rule:evenodd"/><path d="M19,31l.62-.71a.56.56,0,0,1,.4-.19.56.56,0,0,1,.43.13.51.51,0,0,1,.2.38.56.56,0,0,1-.13.41l-.62.72a.55.55,0,0,1-.4.19.57.57,0,0,1-.43-.13.53.53,0,0,1-.2-.39A.56.56,0,0,1,19,31Z" style="fill:#ee7787;fill-rule:evenodd"/><path d="M25.57,33.32a.57.57,0,0,1-.16.41.6.6,0,0,1-.42.16.56.56,0,0,1-.41-.16.54.54,0,0,1-.17-.41V32.4a.53.53,0,0,1,.17-.41.56.56,0,0,1,.41-.16.6.6,0,0,1,.42.16.56.56,0,0,1,.16.41Z" style="fill:#ee7787;fill-rule:evenodd"/><path d="M29.34,30.61a.52.52,0,0,1,.19-.38.62.62,0,0,1,.43-.14.58.58,0,0,1,.4.19L31,31a.53.53,0,0,1,.13.42.57.57,0,0,1-.62.52.55.55,0,0,1-.4-.19L29.47,31A.51.51,0,0,1,29.34,30.61Z" style="fill:#ee7787;fill-rule:evenodd"/><path d="M34,26.11a.55.55,0,0,1,.1.43.54.54,0,0,1-.25.35.59.59,0,0,1-.43.1l-1-.16a.56.56,0,0,1-.36-.24.53.53,0,0,1-.1-.42.56.56,0,0,1,.24-.36.57.57,0,0,1,.44-.1l1,.16A.55.55,0,0,1,34,26.11Z" style="fill:#ee7787;fill-rule:evenodd"/><path d="M32.16,20.34a.57.57,0,0,1,.44-.07.59.59,0,0,1,.35.27h0A.51.51,0,0,1,33,21a.52.52,0,0,1-.27.33l-.84.47a.62.62,0,0,1-.44.07.63.63,0,0,1-.35-.27.53.53,0,0,1,.21-.77h0s0,0,0,0Z" style="fill:#ee7787;fill-rule:evenodd"/></svg>