<?xml version="1.0" encoding="utf-8"?>
<!-- Generator: Adobe Illustrator 25.4.1, SVG Export Plug-In . SVG Version: 6.00 Build 0)  -->
<svg version="1.1" id="Layer_1" xmlns="http://www.w3.org/2000/svg" xmlns:xlink="http://www.w3.org/1999/xlink" x="0px" y="0px"
	 viewBox="0 0 120 120" style="enable-background:new 0 0 120 120;" xml:space="preserve">
<style type="text/css">
	.st0{fill:#FF6347;}
	.st1{fill:#1A1A1A;}
</style>
<circle class="st0" cx="62" cy="28.6" r="18"/>
<path class="st1" d="M103.1,112.1H75.4l-6-13.4l-0.9-22.2l0,0l-0.6-14L78,69.6h-1c-0.5,0.1-0.9,0.5-0.8,1c0,0.4,0.4,0.8,0.8,0.8h6.7
	c0.5-0.1,0.9-0.5,0.8-1c0-0.4-0.4-0.8-0.8-0.8h-2.5l-13.5-9.5l-0.5-12.1l5.9,4.1h-0.9c-0.5,0.1-0.9,0.5-0.8,1c0,0.4,0.4,0.8,0.8,0.8
	h6.7c0.5-0.1,0.9-0.5,0.8-1c0-0.4-0.4-0.8-0.8-0.8h-2.5l-9.6-6.7l-4.2-3.3c-0.3-0.3-0.8-0.3-1.1,0l-4.2,3.3l-9.6,6.7h-2.5
	c-0.5,0.1-0.9,0.5-0.8,1c0,0.4,0.4,0.8,0.8,0.8h6.7c0.5-0.1,0.9-0.5,0.8-1c0-0.4-0.4-0.8-0.8-0.8h-0.9l5.9-4.1l-0.5,12.1l-13.5,9.5
	h-2.5c-0.5,0.1-0.9,0.5-0.8,1c0,0.4,0.4,0.8,0.8,0.8H47c0.5-0.1,0.9-0.5,0.8-1c0-0.4-0.4-0.8-0.8-0.8h-1l10.2-7.1l-0.6,14l0,0
	l-0.9,22.2l-6,13.4H20.9c-0.5,0.1-0.9,0.5-0.8,1c0,0.4,0.4,0.8,0.8,0.8h82.2c0.5-0.1,0.9-0.5,0.8-1
	C103.9,112.5,103.5,112.2,103.1,112.1L103.1,112.1z M60.9,53l-2.7,4.2l0.3-8L60.9,53z M65.4,49.3l0.3,8L63.1,53L65.4,49.3z
	 M65.6,99.9l-3.6,2.6l-3.6-2.6L65.6,99.9z M57.1,98l4.9-9.2l4.9,9.2H57.1z M68.1,100.4l4.4,9.9l-8.9-6.6L68.1,100.4z M63.1,86.9
	l3.7-6.9l0.6,15L63.1,86.9z M62.1,84.9l-4.4-8.3l4.3-6.8l4.4,6.8L62.1,84.9z M63.2,68.1l2.8-4.5l0.4,9.6L63.2,68.1z M65.8,60.7
	L62,66.4l-3.7-5.7l3.7-5.9L65.8,60.7z M61,68.1l-3.3,5.1l0.3-9.6L61,68.1z M61,86.8l-4.3,8.1l0.6-15L61,86.8z M56,100.3l4.5,3.3
	l-8.9,6.6L56,100.3z M62,104.8l10,7.3H52L62,104.8z M62,44.1l3,2.3l-3,4.8l-3-4.8L62,44.1z"/>
</svg>
