<svg xmlns="http://www.w3.org/2000/svg" viewBox="0 0 120 120"><circle cx="37.81" cy="49.66" r="22" style="fill:tomato"/><path d="M99.29,112H78.77a16.13,16.13,0,0,1-8.71-11.42H90.75a2.94,2.94,0,0,0,2.83-3.73l-8-28.74A3,3,0,0,0,82.7,66H40.87A3,3,0,0,0,38,68.15L30,96.89a2.89,2.89,0,0,0,.49,2.57,2.93,2.93,0,0,0,2.34,1.16H53.5A16.26,16.26,0,0,1,44.8,112H24.28a1,1,0,1,0,0,2h75a1,1,0,0,0,0-2ZM51.51,98.66l1-9.8H71.07l1,9.8ZM37.26,78.21H51.62l-.88,8.69H34.83Zm16.33,0H70l.89,8.69H52.71ZM68.93,68l.85,8.29h-16L54.64,68ZM88.74,86.9H72.83L72,78.21H86.31Zm2.79,11.37a1,1,0,0,1-.78.39H74l-1-9.8H89.29l2.4,8.56A1,1,0,0,1,91.53,98.27Zm-7.89-29.6,2.12,7.58h-14L70.9,68H82.7A1,1,0,0,1,83.64,68.67Zm-43.71,0a1,1,0,0,1,.94-.71h11.8l-.85,8.29h-14Zm-7.88,29.6a1,1,0,0,1-.17-.85l2.4-8.56H50.54l-1,9.8H32.83A1,1,0,0,1,32.05,98.27Zm23.45,2.35H68.07a18.12,18.12,0,0,0,7,11.42H48.53A18.1,18.1,0,0,0,55.5,100.62Z" style="fill:#1a1a1a"/></svg>