<svg xmlns="http://www.w3.org/2000/svg" viewBox="0 0 120 120"><path d="M76.87,108H101a6,6,0,0,0,5.91-6.06V35.38A4.32,4.32,0,0,0,102.61,31H92" style="fill:none;stroke:#000;stroke-linecap:round;stroke-linejoin:round;stroke-width:2px"/><line x1="107.87" y1="108" x2="11.87" y2="108" style="fill:none;stroke:#000;stroke-linecap:round;stroke-linejoin:round;stroke-width:2px"/><path d="M27.87,94l9-2.23a27.29,27.29,0,0,0,5.74-2.12L46,87.94a20.76,20.76,0,0,1,16.19-1L70.87,90l4.54,1.82a8.67,8.67,0,0,1,5.46,8.06h0A4.11,4.11,0,0,1,76.75,104H27.87c-4,0-4-2.84-4-5C23.87,96,25.27,95,27.87,94Z" style="fill:#fff;stroke:#1a1a1a;stroke-miterlimit:10;stroke-width:2px"/><path d="M23.87,98h2c2.44,0,6-1,6-5" style="fill:none;stroke:#1a1a1a;stroke-miterlimit:10;stroke-width:2px"/><path d="M38.87,91c0,3.72,4,10,9,13h11l.75-3.73c.83-4.15,3.15-8.59,5.25-12.27" style="fill:none;stroke:#1a1a1a;stroke-miterlimit:10;stroke-width:2px"/><path d="M38.87,93h23a9.34,9.34,0,0,0,3.89-.85L70.87,90" style="fill:none;stroke:#1a1a1a;stroke-miterlimit:10;stroke-width:2px"/><circle cx="35.87" cy="103" r="4" style="fill:#fff;stroke:#1a1a1a;stroke-miterlimit:10;stroke-width:2px"/><circle cx="66.87" cy="103" r="4" style="fill:#fff;stroke:#1a1a1a;stroke-miterlimit:10;stroke-width:2px"/><line x1="83.87" y1="96" x2="95.87" y2="96" style="fill:none;stroke:#000;stroke-linecap:round;stroke-linejoin:round;stroke-width:2px"/><line x1="83.87" y1="99" x2="90.87" y2="99" style="fill:none;stroke:#000;stroke-linecap:round;stroke-linejoin:round;stroke-width:2px"/><circle cx="55.7" cy="31.72" r="9.21" style="fill:tomato"/><path d="M54.17,24.51A7.22,7.22,0,1,1,47,31.72a7.23,7.23,0,0,1,7.22-7.21m0-2a9.22,9.22,0,1,0,9.21,9.21,9.22,9.22,0,0,0-9.21-9.21Z"/><line x1="54.17" y1="13.3" x2="54.17" y2="17.91" style="fill:none;stroke:#000;stroke-linecap:round;stroke-linejoin:round;stroke-width:2px"/><line x1="36.04" y1="31.73" x2="40.64" y2="31.77" style="fill:none;stroke:#000;stroke-linecap:round;stroke-linejoin:round;stroke-width:2px"/><line x1="54.33" y1="50" x2="54.4" y2="45.4" style="fill:none;stroke:#000;stroke-linecap:round;stroke-linejoin:round;stroke-width:2px"/><line x1="72.73" y1="31.85" x2="68.13" y2="31.74" style="fill:none;stroke:#000;stroke-linecap:round;stroke-linejoin:round;stroke-width:2px"/><line x1="41.17" y1="18.92" x2="44.44" y2="22.16" style="fill:none;stroke:#000;stroke-linecap:round;stroke-linejoin:round;stroke-width:2px"/><line x1="41.56" y1="44.77" x2="44.82" y2="41.52" style="fill:none;stroke:#000;stroke-linecap:round;stroke-linejoin:round;stroke-width:2px"/><line x1="67.41" y1="44.58" x2="64.18" y2="41.29" style="fill:none;stroke:#000;stroke-linecap:round;stroke-linejoin:round;stroke-width:2px"/><line x1="67.41" y1="18.72" x2="64.1" y2="21.93" style="fill:none;stroke:#000;stroke-linecap:round;stroke-linejoin:round;stroke-width:2px"/><line x1="101.58" y1="14" x2="101.58" y2="12" style="fill:none;stroke:#000;stroke-linecap:round;stroke-linejoin:round;stroke-width:2px"/><line x1="101.58" y1="20" x2="101.58" y2="18" style="fill:none;stroke:#000;stroke-linecap:round;stroke-linejoin:round;stroke-width:2px"/><line x1="103.58" y1="16" x2="105.58" y2="16" style="fill:none;stroke:#000;stroke-linecap:round;stroke-linejoin:round;stroke-width:2px"/><line x1="97.58" y1="16" x2="99.58" y2="16" style="fill:none;stroke:#000;stroke-linecap:round;stroke-linejoin:round;stroke-width:2px"/><line x1="18.58" y1="60" x2="18.58" y2="58" style="fill:none;stroke:#000;stroke-linecap:round;stroke-linejoin:round;stroke-width:2px"/><line x1="18.58" y1="66" x2="18.58" y2="64" style="fill:none;stroke:#000;stroke-linecap:round;stroke-linejoin:round;stroke-width:2px"/><line x1="20.58" y1="62" x2="22.58" y2="62" style="fill:none;stroke:#000;stroke-linecap:round;stroke-linejoin:round;stroke-width:2px"/><line x1="14.58" y1="62" x2="16.58" y2="62" style="fill:none;stroke:#000;stroke-linecap:round;stroke-linejoin:round;stroke-width:2px"/><line x1="17.15" y1="12.6" x2="15.73" y2="11.19" style="fill:none;stroke:#000;stroke-linecap:round;stroke-linejoin:round;stroke-width:2px"/><line x1="21.42" y1="16.81" x2="20" y2="15.4" style="fill:none;stroke:#000;stroke-linecap:round;stroke-linejoin:round;stroke-width:2px"/><line x1="19.98" y1="12.58" x2="21.38" y2="11.15" style="fill:none;stroke:#000;stroke-linecap:round;stroke-linejoin:round;stroke-width:2px"/><line x1="15.77" y1="16.85" x2="17.17" y2="15.42" style="fill:none;stroke:#000;stroke-linecap:round;stroke-linejoin:round;stroke-width:2px"/><line x1="88.73" y1="48.19" x2="87.3" y2="46.79" style="fill:none;stroke:#000;stroke-linecap:round;stroke-linejoin:round;stroke-width:2px"/><line x1="93" y1="52.4" x2="91.58" y2="51" style="fill:none;stroke:#000;stroke-linecap:round;stroke-linejoin:round;stroke-width:2px"/><line x1="91.56" y1="48.17" x2="92.96" y2="46.75" style="fill:none;stroke:#000;stroke-linecap:round;stroke-linejoin:round;stroke-width:2px"/><line x1="87.34" y1="52.44" x2="88.75" y2="51.02" style="fill:none;stroke:#000;stroke-linecap:round;stroke-linejoin:round;stroke-width:2px"/><path d="M86.13,26a5.5,5.5,0,0,1,0,11" style="fill:none;stroke:#000;stroke-linecap:round;stroke-linejoin:round;stroke-width:2px"/><line x1="86" y1="26" x2="86" y2="36.97" style="fill:none;stroke:#000;stroke-linecap:round;stroke-linejoin:round;stroke-width:2px"/><line x1="86" y1="34" x2="81" y2="34" style="fill:none;stroke:#000;stroke-linecap:round;stroke-linejoin:round;stroke-width:2px"/><line x1="86" y1="29" x2="81" y2="29" style="fill:none;stroke:#000;stroke-linecap:round;stroke-linejoin:round;stroke-width:2px"/></svg>