<?xml version="1.0" encoding="utf-8"?>
<!-- Generator: Adobe Illustrator 25.4.1, SVG Export Plug-In . SVG Version: 6.00 Build 0)  -->
<svg version="1.1" id="Layer_1" xmlns="http://www.w3.org/2000/svg" xmlns:xlink="http://www.w3.org/1999/xlink" x="0px" y="0px"
	 viewBox="0 0 120 120" style="enable-background:new 0 0 120 120;" xml:space="preserve">
<style type="text/css">
	.st0{fill:#FF6347;}
	.st1{fill:none;stroke:#000000;stroke-width:2;stroke-linecap:round;stroke-linejoin:round;}
	.st2{fill:#F7F6F1;stroke:#000000;stroke-width:2;stroke-linecap:round;stroke-linejoin:round;}
</style>
<path class="st0" d="M70.3,23.7c0-7.1-5.7-12.8-12.8-12.8c-7.1,0-12.8,5.7-12.8,12.8c0,2.6,0.8,5,2.2,7.2c2.4,3.6,4.4,7.5,5.8,11.6
	L53,43l4.6,13l4.6-12.9l0.2-0.6c1.5-4.1,3.5-8.1,5.9-11.8C69.6,28.6,70.4,26.2,70.3,23.7z"/>
<path class="st1" d="M58.4,102.5l14.1-7.5c12.7-6.8,27.4-8.6,41.4-5.1"/>
<path class="st2" d="M16,102.5L30.1,95c18.8-10,41.5-8.9,59.2,2.9l7.8,5.2"/>
<path class="st2" d="M31.1,110l14.1-7.5c18.8-10.1,41.5-8.9,59.2,2.9l7.8,5.2"/>
<polyline class="st2" points="12,110 12,89 40.2,89 40.2,110 "/>
<polyline class="st1" points="12,89 25.8,73.3 40.2,89 "/>
<rect x="18.6" y="95.6" class="st1" width="6.9" height="7.2"/>
<rect x="25.5" y="95.6" class="st1" width="6.9" height="7.2"/>
<line class="st1" x1="16.2" y1="110.6" x2="112.2" y2="110.6"/>
<path class="st1" d="M81.8,81.8h26.5c1,0,1.8-0.8,1.7-1.8c0-0.2,0-0.4-0.1-0.5l-4-12c-0.2-0.7-0.9-1.2-1.7-1.2H86.2
	c-0.7,0-1.4,0.5-1.7,1.2l-4.3,12c-0.3,0.9,0.1,1.9,1.1,2.3C81.4,81.8,81.6,81.8,81.8,81.8z"/>
<path class="st1" d="M84.5,67.5C68.2,72.5,64.2,62,64.2,62h-7.6c0,0,10.9,14.2,26.7,9.5H107"/>
<line class="st1" x1="81.5" y1="76.1" x2="108.7" y2="76.2"/>
<line class="st1" x1="91.7" y1="66.8" x2="89.9" y2="81.4"/>
<line class="st1" x1="99" y1="66.8" x2="100.3" y2="81.4"/>
<path class="st1" d="M85.1,90l4.8-3c1.6-1.1,2.5-2.8,2.5-4.7l0,0"/>
<path class="st1" d="M97.8,82.3L97.8,82.3c0,1.9,0.9,3.7,2.5,4.7l0.3,0.2"/>
<line class="st1" x1="60" y1="87.2" x2="60" y2="62"/>
<path class="st1" d="M64.2,62c0,0-6.8,19.6-35.2,14.8"/>
<path class="st1" d="M56.6,62c0,0,3.6,13.6-30.8,11.3"/>
<line class="st1" x1="76" y1="12.4" x2="74.6" y2="10.9"/>
<line class="st1" x1="80.3" y1="16.6" x2="78.8" y2="15.2"/>
<line class="st1" x1="78.8" y1="12.3" x2="80.2" y2="10.9"/>
<line class="st1" x1="74.6" y1="16.6" x2="76" y2="15.2"/>
<line class="st1" x1="89" y1="24.4" x2="87.6" y2="22.9"/>
<line class="st1" x1="93.3" y1="28.6" x2="91.8" y2="27.2"/>
<line class="st1" x1="91.8" y1="24.3" x2="93.2" y2="22.9"/>
<line class="st1" x1="87.6" y1="28.6" x2="89" y2="27.2"/>
<line class="st1" x1="12.6" y1="18.9" x2="11.1" y2="17.5"/>
<line class="st1" x1="16.9" y1="23.1" x2="15.4" y2="21.7"/>
<line class="st1" x1="15.4" y1="18.9" x2="16.8" y2="17.5"/>
<line class="st1" x1="11.2" y1="23.2" x2="12.6" y2="21.7"/>
<line class="st1" x1="101.4" y1="12" x2="99.9" y2="10.6"/>
<line class="st1" x1="105.6" y1="16.2" x2="104.2" y2="14.8"/>
<line class="st1" x1="104.2" y1="12" x2="105.6" y2="10.6"/>
<line class="st1" x1="100" y1="16.2" x2="101.4" y2="14.8"/>
<path class="st1" d="M68.7,23.7c0-7.1-5.7-12.8-12.8-12.8c-7.1,0-12.8,5.7-12.8,12.8c0,2.6,0.8,5.1,2.2,7.2
	c2.4,3.6,4.4,7.5,5.8,11.6l0.2,0.6l4.6,13l4.6-12.9l0.2-0.6c1.5-4.1,3.5-8.1,6-11.8C68,28.6,68.7,26.2,68.7,23.7z"/>
</svg>
