<?xml version="1.0" encoding="utf-8"?>
<!-- Generator: Adobe Illustrator 25.4.1, SVG Export Plug-In . SVG Version: 6.00 Build 0)  -->
<svg version="1.1" id="Layer_1" xmlns="http://www.w3.org/2000/svg" xmlns:xlink="http://www.w3.org/1999/xlink" x="0px" y="0px"
	 viewBox="0 0 120 108" style="enable-background:new 0 0 120 108;" xml:space="preserve">
<style type="text/css">
	.st0{fill:#FF6347;}
	.st1{fill:none;stroke:#000000;stroke-width:2;stroke-linecap:round;stroke-linejoin:round;}
</style>
<g>
	<path class="st0" d="M33.5,99.9c0.2-5.1,4.4-9.1,9.5-8.9c4.9,0.2,8.8,4.1,8.9,8.9"/>
</g>
<g>
	<path d="M51.3,100.9H30.9v-1c0-5.6,4.6-10.2,10.2-10.2c5.6,0,10.2,4.6,10.2,10.2V100.9z M33,98.9h16.3c-0.5-4.1-4-7.2-8.1-7.2
		S33.5,94.8,33,98.9z"/>
</g>
<g>
	<path d="M41.1,87c-0.6,0-1-0.4-1-1V65c0-0.6,0.4-1,1-1s1,0.4,1,1v21C42.1,86.6,41.7,87,41.1,87z"/>
</g>
<g>
	<path d="M27.6,100.9H13c-0.6,0-1-0.4-1-1s0.4-1,1-1h14.6c0.6,0,1,0.4,1,1S28.2,100.9,27.6,100.9z"/>
</g>
<g>
	<path d="M59.7,101H55c-0.6,0-1-0.4-1-1s0.4-1,1-1h4.7c0.6,0,1,0.4,1,1S60.3,101,59.7,101z"/>
</g>
<g>
	<path d="M108,101C108,101,108,101,108,101l-43.6-0.1c-0.6,0-1-0.5-1-1s0.4-1,1-1c0,0,0,0,0,0L108,99c0.6,0,1,0.5,1,1
		S108.6,101,108,101z"/>
</g>
<g>
	<path d="M31.4,91.3c-0.3,0-0.5-0.1-0.7-0.3L9.8,70.1c-0.4-0.4-0.4-1,0-1.4s1-0.4,1.4,0l20.9,20.9c0.4,0.4,0.4,1,0,1.4
		C31.9,91.2,31.7,91.3,31.4,91.3z"/>
</g>
<g>
	<path d="M51.1,91c-0.3,0-0.5-0.1-0.7-0.3c-0.4-0.4-0.4-1,0-1.4l14.9-15c0.4-0.4,1-0.4,1.4,0c0.4,0.4,0.4,1,0,1.4l-14.9,15
		C51.6,90.9,51.4,91,51.1,91z"/>
</g>
<g>
	<g>
		<path d="M82.2,3.8c-0.3,0-0.5-0.1-0.7-0.3L80,2.1c-0.4-0.4-0.4-1,0-1.4s1-0.4,1.4,0l1.4,1.4c0.4,0.4,0.4,1,0,1.4
			C82.7,3.7,82.4,3.8,82.2,3.8z"/>
	</g>
	<g>
		<path d="M86.4,8c-0.3,0-0.5-0.1-0.7-0.3l-1.4-1.4c-0.4-0.4-0.4-1,0-1.4s1-0.4,1.4,0l1.4,1.4c0.4,0.4,0.4,1,0,1.4
			C86.9,7.9,86.7,8,86.4,8z"/>
	</g>
	<g>
		<path d="M85,3.8c-0.3,0-0.5-0.1-0.7-0.3c-0.4-0.4-0.4-1,0-1.4l1.4-1.4c0.4-0.4,1-0.4,1.4,0s0.4,1,0,1.4l-1.4,1.4
			C85.5,3.7,85.2,3.8,85,3.8z"/>
	</g>
	<g>
		<path d="M80.8,8.1c-0.3,0-0.5-0.1-0.7-0.3c-0.4-0.4-0.4-1,0-1.4L81.5,5c0.4-0.4,1-0.4,1.4,0s0.4,1,0,1.4l-1.4,1.4
			C81.3,8,81,8.1,80.8,8.1z"/>
	</g>
	<g>
		<path d="M95.2,15.8c-0.3,0-0.5-0.1-0.7-0.3L93,14.1c-0.4-0.4-0.4-1,0-1.4s1-0.4,1.4,0l1.4,1.4c0.4,0.4,0.4,1,0,1.4
			C95.7,15.7,95.4,15.8,95.2,15.8z"/>
	</g>
	<line class="st1" x1="99.4" y1="19" x2="98" y2="17.6"/>
	<g>
		<path d="M98,15.8c-0.3,0-0.5-0.1-0.7-0.3c-0.4-0.4-0.4-1,0-1.4l1.4-1.4c0.4-0.4,1-0.4,1.4,0s0.4,1,0,1.4l-1.4,1.4
			C98.5,15.7,98.2,15.8,98,15.8z"/>
	</g>
	<line class="st1" x1="93.8" y1="19.1" x2="95.2" y2="17.6"/>
	<g>
		<path d="M18.7,10.4c-0.3,0-0.5-0.1-0.7-0.3l-1.4-1.4c-0.4-0.4-0.4-1,0-1.4s1-0.4,1.4,0l1.4,1.4c0.4,0.4,0.4,1,0,1.4
			C19.2,10.3,19,10.4,18.7,10.4z"/>
	</g>
	<g>
		<path d="M23,14.6c-0.3,0-0.5-0.1-0.7-0.3l-1.4-1.4c-0.4-0.4-0.4-1,0-1.4s1-0.4,1.4,0l1.4,1.4c0.4,0.4,0.4,1,0,1.4
			C23.5,14.5,23.3,14.6,23,14.6z"/>
	</g>
	<g>
		<path d="M21.6,10.3c-0.3,0-0.5-0.1-0.7-0.3c-0.4-0.4-0.4-1,0-1.4l1.4-1.4c0.4-0.4,1-0.4,1.4,0s0.4,1,0,1.4L22.3,10
			C22.1,10.2,21.8,10.3,21.6,10.3z"/>
	</g>
	<g>
		<path d="M17.3,14.6c-0.3,0-0.5-0.1-0.7-0.3c-0.4-0.4-0.4-1,0-1.4l1.4-1.4c0.4-0.4,1-0.4,1.4,0s0.4,1,0,1.4L18,14.3
			C17.9,14.5,17.6,14.6,17.3,14.6z"/>
	</g>
	<g>
		<path d="M107.5,3.4c-0.3,0-0.5-0.1-0.7-0.3l-1.4-1.4c-0.4-0.4-0.4-1,0-1.4s1-0.4,1.4,0l1.4,1.4c0.4,0.4,0.4,1,0,1.4
			C108,3.4,107.8,3.4,107.5,3.4z"/>
	</g>
	<g>
		<path d="M111.8,7.7c-0.3,0-0.5-0.1-0.7-0.3L109.7,6c-0.4-0.4-0.4-1,0-1.4s1-0.4,1.4,0l1.4,1.4c0.4,0.4,0.4,1,0,1.4
			C112.3,7.6,112,7.7,111.8,7.7z"/>
	</g>
	<g>
		<path d="M110.3,3.4c-0.3,0-0.5-0.1-0.7-0.3c-0.4-0.4-0.4-1,0-1.4l1.4-1.4c0.4-0.4,1-0.4,1.4,0s0.4,1,0,1.4L111,3.1
			C110.9,3.3,110.6,3.4,110.3,3.4z"/>
	</g>
	<g>
		<path d="M106.1,7.7c-0.3,0-0.5-0.1-0.7-0.3c-0.4-0.4-0.4-1,0-1.4l1.4-1.4c0.4-0.4,1-0.4,1.4,0s0.4,1,0,1.4l-1.4,1.4
			C106.6,7.6,106.4,7.7,106.1,7.7z"/>
	</g>
</g>
<g>
	<path d="M84,100.4c-0.6,0-1-0.4-1-1V52c0-0.6,0.4-1,1-1s1,0.4,1,1v47.4C85,100,84.6,100.4,84,100.4z"/>
</g>
<g>
	<path d="M84,77C84,77,84,77,84,77c-0.4,0-0.7-0.2-0.9-0.5l-9.2-17.1c-2.5-4.7-2.5-10.2-0.1-14.8l8.7-16.8c0,0,0-0.1,0.1-0.1
		c0.5-0.8,1.5-1,2.3-0.6c0.1,0,0.2,0.1,0.3,0.2l0.3,0.3c0.1,0.1,0.1,0.2,0.2,0.2l8.7,16.8c2.4,4.6,2.4,10.2-0.1,14.8l-9.3,17.1
		C84.7,76.8,84.4,77,84,77z M84.1,29.1l-8.5,16.3c-2.1,4.1-2.1,8.9,0.1,13L84,73.9l8.4-15.5c2.2-4.1,2.2-8.9,0.1-13L84.1,29.1z"/>
</g>
<g>
	<path d="M84,65c-0.2,0-0.3,0-0.4-0.1c-0.5-0.2-0.7-0.8-0.4-1.3l4-8c0.2-0.5,0.8-0.7,1.3-0.4c0.5,0.2,0.7,0.8,0.4,1.3l-4,8
		C84.7,64.8,84.4,65,84,65z"/>
</g>
<g>
	<path d="M84,59c-0.3,0-0.6-0.1-0.8-0.4l-4-5c-0.3-0.4-0.3-1.1,0.2-1.4c0.4-0.3,1.1-0.3,1.4,0.2l4,5c0.3,0.4,0.3,1.1-0.2,1.4
		C84.4,58.9,84.2,59,84,59z"/>
</g>
</svg>
