<svg xmlns="http://www.w3.org/2000/svg" viewBox="0 0 120 120"><rect x="64" y="98" width="4" height="12" style="fill:#f2ad22"/><path d="M56.62,82c-3.39-1.35-11.44-5.17-11.44-10.84,0-7.76,5.38-18.32,12.62-24.91C65,52.84,70.41,63.4,70.41,71.16c0,5.67-8,9.49-11.44,10.84Z" style="fill:#12bdc6"/><path d="M76.81,48.15a24.11,24.11,0,1,0-33.14,35,12.15,12.15,0,0,1,3.6,6.36v0l1.86,6.8a4.06,4.06,0,0,0-.65,2.44A4.35,4.35,0,0,0,49,101a5.09,5.09,0,0,0,0,4.36,4.35,4.35,0,0,0-.49,2.18c0,2.21,1,2.87,1.23,3a.92.92,0,0,0,.43.11H54.4l.73,1.2A4.59,4.59,0,0,0,59,114h2a4.59,4.59,0,0,0,3.88-2.18l.73-1.2h4.25a.92.92,0,0,0,.43-.11c.2-.11,1.23-.77,1.23-3a4.35,4.35,0,0,0-.49-2.18A5.09,5.09,0,0,0,71,101a4.35,4.35,0,0,0,.49-2.18,4.06,4.06,0,0,0-.65-2.44l1.89-6.92v0a12,12,0,0,1,3.6-6.26,24.13,24.13,0,0,0,.45-35Zm-15.9,27L65.06,71a.92.92,0,0,0,0-1.29.91.91,0,0,0-1.29,0L60.91,72.6V64.33a.91.91,0,0,0-1.82,0V72.6l-2.86-2.86a.89.89,0,0,0-1.28,0A.91.91,0,0,0,55,71l4.14,4.14v5.2c-2.63-1.05-8.89-4-8.89-8.41,0-6,4.18-14.23,9.8-19.34,5.62,5.11,9.8,13.31,9.8,19.34,0,4.4-6.26,7.36-8.89,8.41Zm8.54,22.37a2.7,2.7,0,0,1,.24,1.27,2.67,2.67,0,0,1-.24,1.27H50.55a2.67,2.67,0,0,1-.24-1.27,2.7,2.7,0,0,1,.24-1.27Zm-19.14,5.63a2.7,2.7,0,0,1,.24-1.27h18.9a3.48,3.48,0,0,1,0,2.54H50.55A2.7,2.7,0,0,1,50.31,103.17Zm13,7.7A2.74,2.74,0,0,1,61,112.18H59a2.74,2.74,0,0,1-2.33-1.31l-.15-.25h6.94Zm6.13-2.07H50.55a3.48,3.48,0,0,1,0-2.54h18.9a3.48,3.48,0,0,1,0,2.54Zm5.67-27A13.82,13.82,0,0,0,71,89l-1.84,6.73H60.91V82c2.42-.89,10.43-4.28,10.43-10.06,0-6.61-4.66-15.62-10.84-21a.76.76,0,0,0-1,0c-6.18,5.34-10.84,14.35-10.84,21,0,5.78,8,9.17,10.43,10.06v13.7H50.85L49,89.11a13.94,13.94,0,0,0-4.14-7.29,22.29,22.29,0,1,1,30.22,0Z" style="fill:#1a1a1a"/><path d="M60,37.82a.91.91,0,0,0,.91-.91v-6a.91.91,0,1,0-1.82,0v6A.91.91,0,0,0,60,37.82Z" style="fill:#1a1a1a"/><path d="M49.4,38.94a.9.9,0,0,0,.85.6,1.06,1.06,0,0,0,.31,0,.91.91,0,0,0,.55-1.17l-2.06-5.64a.9.9,0,0,0-1.16-.54.91.91,0,0,0-.55,1.16Z" style="fill:#1a1a1a"/><path d="M41,44.17a.92.92,0,0,0,.7.32.91.91,0,0,0,.7-1.49l-3.86-4.6a.91.91,0,0,0-1.4,1.17Z" style="fill:#1a1a1a"/><path d="M29.66,49l5.2,3a1,1,0,0,0,.46.12.91.91,0,0,0,.45-1.69l-5.2-3A.91.91,0,0,0,29.66,49Z" style="fill:#1a1a1a"/><path d="M25.86,60.32l5.91,1,.16,0a.91.91,0,0,0,.16-1.81l-5.91-1a.91.91,0,0,0-1.06.74A.92.92,0,0,0,25.86,60.32Z" style="fill:#1a1a1a"/><path d="M32.83,70.21a.91.91,0,0,0-1.06-.74l-5.91,1a.92.92,0,0,0-.74,1,.91.91,0,0,0,.9.76l.16,0,5.91-1A.92.92,0,0,0,32.83,70.21Z" style="fill:#1a1a1a"/><path d="M34.86,78.88l-5.2,3a.91.91,0,0,0,.91,1.58l5.2-3a.89.89,0,0,0,.33-1.24A.91.91,0,0,0,34.86,78.88Z" style="fill:#1a1a1a"/><path d="M41,86.66l-3.86,4.6a.91.91,0,0,0,.12,1.28.86.86,0,0,0,.58.22.9.9,0,0,0,.7-.33l3.86-4.6A.91.91,0,0,0,41,86.66Z" style="fill:#1a1a1a"/><path d="M69.44,39.49a1.06,1.06,0,0,0,.31,0,.9.9,0,0,0,.85-.6l2.06-5.64a.91.91,0,0,0-.55-1.16.9.9,0,0,0-1.16.54l-2.06,5.64A.91.91,0,0,0,69.44,39.49Z" style="fill:#1a1a1a"/><path d="M78.32,44.49a.92.92,0,0,0,.7-.32l3.86-4.6a.91.91,0,0,0-1.4-1.17L77.62,43a.91.91,0,0,0,.7,1.49Z" style="fill:#1a1a1a"/><path d="M84.68,52.07a1,1,0,0,0,.46-.12l5.2-3a.91.91,0,0,0-.91-1.58l-5.2,3a.91.91,0,0,0,.45,1.69Z" style="fill:#1a1a1a"/><path d="M87.17,60.62a.92.92,0,0,0,.9.76l.16,0,5.91-1a.92.92,0,0,0,.74-1,.91.91,0,0,0-1.06-.74l-5.91,1A.92.92,0,0,0,87.17,60.62Z" style="fill:#1a1a1a"/><path d="M94.14,70.51l-5.91-1a.91.91,0,0,0-1.06.74.92.92,0,0,0,.74,1.05l5.91,1,.16,0a.91.91,0,0,0,.9-.76A.92.92,0,0,0,94.14,70.51Z" style="fill:#1a1a1a"/><path d="M90.34,81.88l-5.2-3a.91.91,0,0,0-1.24.33.89.89,0,0,0,.33,1.24l5.2,3a.91.91,0,0,0,.91-1.58Z" style="fill:#1a1a1a"/><path d="M79,86.66a.91.91,0,0,0-1.4,1.17l3.86,4.6a.9.9,0,0,0,.7.33.86.86,0,0,0,.58-.22.91.91,0,0,0,.12-1.28Z" style="fill:#1a1a1a"/><path d="M79.25,114H39.55a1,1,0,0,1,0-2h39.7a1,1,0,0,1,0,2Z"/></svg>