<svg xmlns="http://www.w3.org/2000/svg" viewBox="0 0 120 120"><circle cx="82" cy="44" r="30.9" style="fill:#f2ad22"/><rect x="36.59" y="71.93"/><path d="M55.9,66.17h0a1.78,1.78,0,0,0-.36.14,1.75,1.75,0,0,0-.28.17,1.89,1.89,0,0,0-.2.2,1.27,1.27,0,0,0-.23.41,1.32,1.32,0,0,0-.07.42,2.16,2.16,0,0,0,0,.29,1.61,1.61,0,0,0,.1.31c0,.08,0,.13.06.17h0a1.63,1.63,0,0,1-.21.17,1.46,1.46,0,0,1-.47.24.91.91,0,0,1-.33,0l-.28,0h-.4a3.25,3.25,0,0,0-.51,0,2.71,2.71,0,0,0-.44.13,2.85,2.85,0,0,0-.65.37,4.54,4.54,0,0,0-.6.57h0c-.35.39-.63.72-.85,1l-.41.48-.21.2-.1.09-.11.06-.17,0-.13,0a2,2,0,0,1-.28-.1c-.2-.07-.45-.18-.73-.31s-.92-.42-1.47-.65a10.7,10.7,0,0,0-1.81-.56h0a2,2,0,0,0-.34,0,1.86,1.86,0,0,0-.42,0,2.38,2.38,0,0,0-.65.25,4.1,4.1,0,0,0-.46.31c-.26.19-.49.4-.73.61s-.7.65-1.06.94A5.19,5.19,0,0,1,40,72.9h0l-.22.12-.28.22c-.14.13-.26.25-.38.38l-.27.26,0,0a2.78,2.78,0,0,1-.31-1.17.7.7,0,0,1,0-.24h0a.3.3,0,0,1,0-.1.24.24,0,0,1,.06-.09,2,2,0,0,1,.25-.24c.17-.14.43-.32.72-.55a6.69,6.69,0,0,0,1-.92h0l.12-.14h0A6.38,6.38,0,0,0,42,68h0c.11-.4.25-.9.44-1.42a11.59,11.59,0,0,1,.5-1.16,6,6,0,0,1,1-1.48,2.83,2.83,0,0,1,.54-.47,2.13,2.13,0,0,1,.54-.24h0a32.21,32.21,0,0,0,3.53-1,9.34,9.34,0,0,0,1.27-.58A7.21,7.21,0,0,0,50.83,61a.56.56,0,0,1,.14-.09,1.7,1.7,0,0,1,.43-.13,2.57,2.57,0,0,1,.57,0,3.6,3.6,0,0,1,.66.06,3,3,0,0,1,.41.11l.21.09,0,0a5.08,5.08,0,0,0,.19,1.33,3.84,3.84,0,0,0,.46,1,3.64,3.64,0,0,0,.57.65,4,4,0,0,0,1.13.69,4.84,4.84,0,0,0,.79.26l.36.09a.36.36,0,0,1,0,.09,3.89,3.89,0,0,1-.19.42,2,2,0,0,1-.37.5.64.64,0,0,1-.16.14l-.11.06Zm-2.63-5.41h0ZM58,67.06a5.6,5.6,0,0,0,.72-1.33,4.19,4.19,0,0,0,.19-.64c0-.11,0-.21.06-.31s0-.21,0-.32a1.1,1.1,0,0,0,0-.25,1.48,1.48,0,0,0-.07-.31h0a1.1,1.1,0,0,0-.22-.37,1.31,1.31,0,0,0-.23-.2,1.37,1.37,0,0,0-.35-.17,1.53,1.53,0,0,0-.26-.08l-.44-.1c-.25-.06-.52-.12-.76-.2a2.32,2.32,0,0,1-.5-.24,1.33,1.33,0,0,1-.3-.23,1.43,1.43,0,0,1-.31-.5,2.35,2.35,0,0,1-.15-.91v-.09h0v0a1.64,1.64,0,0,0-.14-.67,1.51,1.51,0,0,0-.29-.45,2.18,2.18,0,0,0-.64-.51,3.88,3.88,0,0,0-1.09-.41,6,6,0,0,0-1.2-.13,5,5,0,0,0-1.27.16,3.56,3.56,0,0,0-.62.23,2.46,2.46,0,0,0-.58.37,4.49,4.49,0,0,1-.75.51,5.09,5.09,0,0,1-.7.34,12.51,12.51,0,0,1-1.46.48c-.58.17-1.28.35-2.11.55h0a3.81,3.81,0,0,0-1.06.43A5.51,5.51,0,0,0,42,63a10.05,10.05,0,0,0-1.33,2.38A16.07,16.07,0,0,0,40,67.5h0a4.37,4.37,0,0,1-.84,1.63h0l-.11.13a4.23,4.23,0,0,1-.56.56l-.46.36c-.12.09-.25.18-.38.29a4,4,0,0,0-.58.58,2.26,2.26,0,0,0-.25.4,2.72,2.72,0,0,0-.19.47,3.19,3.19,0,0,0-.1.8,4.19,4.19,0,0,0,.11,1A5.23,5.23,0,0,0,37.09,75a3.17,3.17,0,0,0,.36.54,1.88,1.88,0,0,0,.24.25A1.82,1.82,0,0,0,38,76h0a2.28,2.28,0,0,0,.36.15,1.47,1.47,0,0,0,.36,0,1.27,1.27,0,0,0,.34,0,1.92,1.92,0,0,0,.48-.18,2.49,2.49,0,0,0,.32-.2c.17-.13.31-.26.45-.38l.27-.27.32-.31a.34.34,0,0,1,.06-.06,7,7,0,0,0,1.37-.87c.31-.25.59-.5.85-.73l.54-.49.34-.29a2,2,0,0,1,.35-.24l0,0a7.81,7.81,0,0,1,1.2.36c.63.24,1.23.54,1.8.79a7.39,7.39,0,0,0,.84.34,3.6,3.6,0,0,0,.44.12,2.63,2.63,0,0,0,.49.05,1.84,1.84,0,0,0,.33,0h0a2.56,2.56,0,0,0,.46-.11,3.29,3.29,0,0,0,.39-.17A3,3,0,0,0,51,73a7.68,7.68,0,0,0,.72-.77c.25-.3.53-.64.91-1.07h0a2.41,2.41,0,0,1,.28-.28l.13-.09.11,0h.41l.41,0a3.27,3.27,0,0,0,.92-.13,3.89,3.89,0,0,0,1.06-.53h0a4.57,4.57,0,0,0,.47-.38,2.51,2.51,0,0,0,.49-.68,2.43,2.43,0,0,0,.13-.38,2.58,2.58,0,0,0,0-.38,1.56,1.56,0,0,0,0-.4l.15-.1a3.37,3.37,0,0,0,.82-.77Z"/><path d="M50.91,88.3a5.23,5.23,0,0,0-.41.67c-.19.36-.36.75-.59,1.24s-.54,1.1-1,1.86a15.17,15.17,0,0,1-.87,1.38c-.17.22-.29.36-.39.47s-.14.14-.21.21l-.19.2a1.2,1.2,0,0,0-.17.21,2.1,2.1,0,0,0-.21.39l-.06.16h-.17a2.49,2.49,0,0,1-.46,0,2.17,2.17,0,0,1-.33-.1l-.13-.06a2.44,2.44,0,0,0,0-.27,4.68,4.68,0,0,0,0-.64,9.29,9.29,0,0,0-.24-1.19,10,10,0,0,0-.72-1.85,5.93,5.93,0,0,0-.5-.85,4.35,4.35,0,0,0-.62-.73v0a1.1,1.1,0,0,1,0-.25,4.09,4.09,0,0,1,.29-.74l.35-.66c.1-.17.19-.34.29-.5s.27-.49.38-.73.11-.25.16-.39a1.55,1.55,0,0,0,.05-.23,1.2,1.2,0,0,0,0-.28.66.66,0,0,0,0-.14h0a1.81,1.81,0,0,0-.07-.35,2.18,2.18,0,0,0-.23-.51,5.17,5.17,0,0,0-.52-.67c-.27-.31-.55-.61-.79-.93A3.9,3.9,0,0,1,43,82l-1,.4,1-.4c-.17-.41-.33-.77-.44-1.07s-.09-.29-.12-.39a1.58,1.58,0,0,1,0-.23v0l0,0a.94.94,0,0,1,.22-.1c.75-.26,1.52-.51,2.11-.69l.72-.21.2-.06h0a3.48,3.48,0,0,1,.44,0,4.6,4.6,0,0,1,1.68.32,5,5,0,0,1,1.09.57,6.14,6.14,0,0,1,1.17,1,5.71,5.71,0,0,1,1,1.27,1.54,1.54,0,0,1,.15.36,1,1,0,0,1,0,.21.57.57,0,0,1,0,.22,1.33,1.33,0,0,1-.1.23c-.06.13-.16.3-.26.53s-.1.23-.15.37a2.3,2.3,0,0,0-.09.47,1.85,1.85,0,0,0,0,.23,3.1,3.1,0,0,0,0,.54,6.39,6.39,0,0,0,.24.84c.14.39.3.76.41,1.06a2.27,2.27,0,0,1,.12.38h0l-.19.16a3.45,3.45,0,0,0-.32.36Zm-5.27,6.52Zm7.47-5.77a1.59,1.59,0,0,0,.32-.56,1.86,1.86,0,0,0,.08-.54,2.76,2.76,0,0,0-.06-.53,5.64,5.64,0,0,0-.24-.79c-.14-.38-.3-.73-.4-1a3.15,3.15,0,0,1-.13-.41,1.58,1.58,0,0,1,0-.23v0h0a.11.11,0,0,1,0,0,1,1,0,0,1,.09-.22l.15-.27a4.84,4.84,0,0,0,.26-.62,2.76,2.76,0,0,0,.14-.86,2.87,2.87,0,0,0-.1-.75A4.23,4.23,0,0,0,52.66,81a10,10,0,0,0-1-1.31,8.81,8.81,0,0,0-1.54-1.33,7.26,7.26,0,0,0-2.21-1,6.66,6.66,0,0,0-1.71-.23,4.41,4.41,0,0,0-.88.08l-.08,0-1,.3c-.61.19-1.41.44-2.19.71a3.76,3.76,0,0,0-.67.32,2.79,2.79,0,0,0-.42.35,2,2,0,0,0-.43.69,2.2,2.2,0,0,0-.12.74,3,3,0,0,0,.08.69,8.26,8.26,0,0,0,.3.92c.12.3.25.59.36.87h0a6.63,6.63,0,0,0,.7,1.21c.19.26.39.49.57.7l.38.43a2.57,2.57,0,0,1,.36.45v0c-.07.16-.2.39-.35.66s-.51.87-.74,1.38a6.31,6.31,0,0,0-.3.8,3.19,3.19,0,0,0-.14.89,2.29,2.29,0,0,0,.14.8,2.4,2.4,0,0,0,.2.39,2.43,2.43,0,0,0,.3.34h0a3.25,3.25,0,0,1,.54.71,8.23,8.23,0,0,1,.69,1.63,7.73,7.73,0,0,1,.19.81,4.11,4.11,0,0,1,.06.62c0,.09,0,.16,0,.19h0a1.27,1.27,0,0,0,0,.28,1.69,1.69,0,0,0,.41,1.07,2.65,2.65,0,0,0,.59.49,3.56,3.56,0,0,0,1,.38,4,4,0,0,0,1,.13,3.39,3.39,0,0,0,.55,0,2.47,2.47,0,0,0,.43-.11,1.77,1.77,0,0,0,.64-.37,1.52,1.52,0,0,0,.28-.33,1.43,1.43,0,0,0,.19-.44h0a.75.75,0,0,1,.05-.16h0s0,0,0,0l.25-.24.3-.33a8.33,8.33,0,0,0,.58-.78,14.37,14.37,0,0,0,.75-1.23c.4-.7.7-1.28.93-1.77s.32-.67.44-.92l.23-.48a2.21,2.21,0,0,1,.14-.24.73.73,0,0,1,.15-.2.67.67,0,0,1,.15-.13h0a1.31,1.31,0,0,0,.34-.29Z"/><polygon points="50.6 84.73 50.6 84.72 50.6 84.72 50.6 84.73 50.6 84.73"/><path d="M66.72,92.87c-.15-.33-.29-.66-.39-.94s-.08-.27-.11-.38a1.58,1.58,0,0,1,0-.26s0-.06,0-.07h0a2.54,2.54,0,0,0,.14-.48,3.4,3.4,0,0,0,0-.45,4.61,4.61,0,0,0-.09-.88,8.17,8.17,0,0,0-.53-1.69,8.57,8.57,0,0,0-.7-1.29,6.8,6.8,0,0,0-.69-.91A5.31,5.31,0,0,0,63,84.41a4,4,0,0,0-.85-.33,3.69,3.69,0,0,0-1-.13,3,3,0,0,0-.52,0h0l-.45,0a2.24,2.24,0,0,1-.58-.07,1.5,1.5,0,0,1-.36-.16,1.87,1.87,0,0,1-.49-.45,2.8,2.8,0,0,1-.3-.48c-.07-.13-.14-.27-.2-.41l-.26-.6.08-.06c.29-.2.67-.44,1.09-.69l1-.61c.24-.16.49-.32.72-.49a7.54,7.54,0,0,0,1-.8,3.81,3.81,0,0,0,.39-.49,2.22,2.22,0,0,0,.29-.64h0a3.21,3.21,0,0,0,.06-.6,4,4,0,0,0-.16-1.07c-.07-.25-.15-.48-.23-.7s-.23-.64-.31-.92a2.69,2.69,0,0,1-.12-.7,1,1,0,0,1,0-.27.61.61,0,0,1,.11-.23,3.5,3.5,0,0,0,.46-.84,2.35,2.35,0,0,0,.17-.86,2.42,2.42,0,0,0,0-.47,2.77,2.77,0,0,0-.24-.64l-.19-.34-.18-.32a1.28,1.28,0,0,1-.05-.17,2.27,2.27,0,0,1,0-.24v-.16s0,0,0,0a.43.43,0,0,1,.07-.07,2.13,2.13,0,0,1,.29-.26l.54-.4h0a2,2,0,0,1,.37-.19,4.86,4.86,0,0,1,.61-.2,7.65,7.65,0,0,1,2.07-.28,8.32,8.32,0,0,1,2.87.52h0l.13,0a2.74,2.74,0,0,1,.32.18,5.91,5.91,0,0,1,.49.33l.11.09,3.38,4.87h0a1.38,1.38,0,0,1,.23.75,1.32,1.32,0,0,1-.2.7h0L71.74,77.8a1,1,0,0,0-.15.62,13.34,13.34,0,0,0,.34,2.39,9.77,9.77,0,0,0,.93,2.47,4.48,4.48,0,0,1,.47,1.12,4.18,4.18,0,0,1,.14,1,4.88,4.88,0,0,1-.2,1.33A9.14,9.14,0,0,1,72.81,88a19.53,19.53,0,0,0-3.75,2.6h0c-.46.4-.89.82-1.31,1.26s-.67.74-1,1.13c0,0,0-.08,0-.13Zm-2.4-2.5Zm-6.74-9.25Zm2.93-3.52ZM89,89.21h0a.49.49,0,0,1,.3.34,17.53,17.53,0,0,1-21.71,21.7,64.42,64.42,0,0,0,7.84-5.91,35.81,35.81,0,0,0,4.19.25c1,0,2.11,0,3.25-.16a1,1,0,1,0-.2-2.05h0a29.89,29.89,0,0,1-3.05.15c-.81,0-1.55,0-2.2-.08L82,98.92a1,1,0,1,0-1.43-1.48l-6.26,6.06A65.79,65.79,0,0,1,69,107.75c0-.57.06-1.19.13-1.81s.14-1,.24-1.46a7.39,7.39,0,0,1,.38-1.25,1,1,0,0,0-1.9-.79A9.18,9.18,0,0,0,67.4,104a18.18,18.18,0,0,0-.35,2.49c-.07.81-.09,1.57-.09,2.2,0,.16,0,.31,0,.45-.38.24-.76.49-1.15.72-.19-.82-.38-1.72-.54-2.64a25.11,25.11,0,0,1-.45-4.26,9,9,0,0,1,.23-2.15h0a17.46,17.46,0,0,1,4.19-7.56h0c.37-.39.76-.76,1.17-1.13h0a17.61,17.61,0,0,1,7.78-4h0a18,18,0,0,1,3.8-.41,17.54,17.54,0,0,1,7,1.43ZM42.14,98.8a24.74,24.74,0,0,0,19.8,3.5H62l.81-.25c0,.31,0,.63,0,.95a27,27,0,0,0,.48,4.62c.27,1.53.61,3,.89,4.12h0a.24.24,0,0,1,0,.08l0,0a.14.14,0,0,0,0,.06l0,0,0,0,0,.08,0,0,0,0,0,0,0,0,.06,0,0,0a.08.08,0,0,0,0,0l0,0,.06,0h0l.07,0h.06A19.61,19.61,0,0,0,72.42,114a19.62,19.62,0,0,0,13-4.89A19.57,19.57,0,0,0,92,94.41,19.26,19.26,0,0,0,91.23,89h0a2.59,2.59,0,0,0-1.46-1.67h0A19.68,19.68,0,0,0,82,85.72a20.63,20.63,0,0,0-2.48.15l.24-.68,0,0A24.79,24.79,0,0,0,70.24,58a1,1,0,1,0-1.19,1.69h0a22.85,22.85,0,0,1,7,7.94A22.76,22.76,0,0,1,77.8,84.54l-.61,1.78c-.62.15-1.22.34-1.82.55a6.76,6.76,0,0,0,.16-1.44,6.09,6.09,0,0,0-.21-1.56,6.77,6.77,0,0,0-.66-1.6,7.41,7.41,0,0,1-.72-1.93,11.92,11.92,0,0,1-.27-1.73l1.19-1.9h0A3.37,3.37,0,0,0,74.78,73h0l-3.4-4.9s0,0,0-.06l-.11-.14-.18-.16a3.37,3.37,0,0,0-.34-.27,6.24,6.24,0,0,0-.63-.41l-.34-.19-.37-.16a10.43,10.43,0,0,0-3.58-.64,9.71,9.71,0,0,0-2.61.35,8.63,8.63,0,0,0-.86.28,4.16,4.16,0,0,0-.8.44h0c-.25.19-.47.34-.66.5l-.43.37a2.39,2.39,0,0,0-.28.35,1.91,1.91,0,0,0-.31.66,2.71,2.71,0,0,0-.08.69,3,3,0,0,0,0,.42h0A2.57,2.57,0,0,0,60,71c.08.17.16.31.23.43s.18.31.21.38a.23.23,0,0,1,0,.09,0,0,0,0,0,0,0s0,.05,0,.13a1.22,1.22,0,0,1-.21.37,3,3,0,0,0-.41.85,2.86,2.86,0,0,0-.12.85,4.4,4.4,0,0,0,.16,1.13c.07.26.15.51.23.73s.24.66.32.92l.08.36a1.38,1.38,0,0,1,0,.25.28.28,0,0,1,0,.1l0,.08a2.89,2.89,0,0,1-.35.34,12.43,12.43,0,0,1-1.08.78l-1,.61-.71.44-.49.33-.33.24-.22.2A2.14,2.14,0,0,0,56,81a1.3,1.3,0,0,0-.15.29,1.38,1.38,0,0,0-.08.44,1.15,1.15,0,0,0,.09.44,1,1,0,0,0,.21.34h0s.05.1.1.22.1.23.17.38a9.55,9.55,0,0,0,.42.88,5.35,5.35,0,0,0,.5.74,3.25,3.25,0,0,0,.52.53,3.62,3.62,0,0,0,1.07.62,4.09,4.09,0,0,0,1.39.23,6.25,6.25,0,0,0,.73,0h0l.24,0a1.85,1.85,0,0,1,.57.1,2.6,2.6,0,0,1,.49.26,3.71,3.71,0,0,1,.83.81,6.38,6.38,0,0,1,.92,1.7,7.24,7.24,0,0,1,.25.81,3.24,3.24,0,0,1,.07.59.35.35,0,0,1,0,.12h0a2.44,2.44,0,0,0-.13.44,2.35,2.35,0,0,0,0,.45,3,3,0,0,0,.06.61,6.32,6.32,0,0,0,.28.93c.17.44.35.84.48,1.16a3.7,3.7,0,0,1,.15.41l0,.12v0a1,1,0,0,0,.09.66,20.26,20.26,0,0,0-2,4.56l-1.8.55a22.7,22.7,0,1,1,1.06-43.8,1,1,0,0,0,1.28-.69,1,1,0,0,0-.69-1.28h0A24.74,24.74,0,0,0,31.23,78.27a24.54,24.54,0,0,0,1.94,9.63,24.85,24.85,0,0,0,9,10.9Z"/><polygon points="69.37 66.7 69.37 66.7 69.37 66.7 69.37 66.7 69.37 66.7"/><polygon points="67.75 91.87 67.75 91.87 67.75 91.87 67.75 91.87 67.75 91.87"/><path d="M89.22,114H49.52a1,1,0,0,1,0-2h39.7a1,1,0,0,1,0,2Z"/></svg>