<svg xmlns="http://www.w3.org/2000/svg" viewBox="0 0 120 120"><path d="M33.45,107.81a9.22,9.22,0,0,1,18.43,0" style="fill:tomato"/><path d="M31.92,107.81a9.21,9.21,0,0,1,18.42,0Z" style="fill:none;stroke:#000;stroke-miterlimit:10;stroke-width:2px"/><line x1="41.13" y1="72.93" x2="41.13" y2="93.99" style="fill:none;stroke:#000;stroke-linecap:round;stroke-linejoin:round;stroke-width:2px"/><line x1="13" y1="107.82" x2="27.61" y2="107.85" style="fill:none;stroke:#000;stroke-linecap:round;stroke-linejoin:round;stroke-width:2px"/><line x1="59.7" y1="107.93" x2="55" y2="107.93" style="fill:none;stroke:#000;stroke-linecap:round;stroke-linejoin:round;stroke-width:2px"/><line x1="108" y1="107.93" x2="64.4" y2="107.83" style="fill:none;stroke:#000;stroke-linecap:round;stroke-linejoin:round;stroke-width:2px"/><line x1="10.53" y1="77.41" x2="31.41" y2="98.24" style="fill:none;stroke:#000;stroke-linecap:round;stroke-linejoin:round;stroke-width:2px"/><line x1="66" y1="82.93" x2="51.06" y2="98.02" style="fill:none;stroke:#000;stroke-linecap:round;stroke-linejoin:round;stroke-width:2px"/><line x1="82.15" y1="11.13" x2="80.73" y2="9.72" style="fill:none;stroke:#000;stroke-linecap:round;stroke-linejoin:round;stroke-width:2px"/><line x1="86.42" y1="15.34" x2="85" y2="13.93" style="fill:none;stroke:#000;stroke-linecap:round;stroke-linejoin:round;stroke-width:2px"/><line x1="84.98" y1="11.11" x2="86.38" y2="9.68" style="fill:none;stroke:#000;stroke-linecap:round;stroke-linejoin:round;stroke-width:2px"/><line x1="80.77" y1="15.38" x2="82.17" y2="13.95" style="fill:none;stroke:#000;stroke-linecap:round;stroke-linejoin:round;stroke-width:2px"/><line x1="95.15" y1="23.13" x2="93.73" y2="21.72" style="fill:none;stroke:#000;stroke-linecap:round;stroke-linejoin:round;stroke-width:2px"/><line x1="99.42" y1="27.34" x2="98" y2="25.93" style="fill:none;stroke:#000;stroke-linecap:round;stroke-linejoin:round;stroke-width:2px"/><line x1="97.98" y1="23.11" x2="99.38" y2="21.68" style="fill:none;stroke:#000;stroke-linecap:round;stroke-linejoin:round;stroke-width:2px"/><line x1="93.77" y1="27.38" x2="95.17" y2="25.95" style="fill:none;stroke:#000;stroke-linecap:round;stroke-linejoin:round;stroke-width:2px"/><line x1="18.73" y1="17.68" x2="17.3" y2="16.28" style="fill:none;stroke:#000;stroke-linecap:round;stroke-linejoin:round;stroke-width:2px"/><line x1="23" y1="21.89" x2="21.58" y2="20.49" style="fill:none;stroke:#000;stroke-linecap:round;stroke-linejoin:round;stroke-width:2px"/><line x1="21.56" y1="17.66" x2="22.96" y2="16.24" style="fill:none;stroke:#000;stroke-linecap:round;stroke-linejoin:round;stroke-width:2px"/><line x1="17.34" y1="21.93" x2="18.75" y2="20.51" style="fill:none;stroke:#000;stroke-linecap:round;stroke-linejoin:round;stroke-width:2px"/><line x1="107.51" y1="10.77" x2="106.09" y2="9.36" style="fill:none;stroke:#000;stroke-linecap:round;stroke-linejoin:round;stroke-width:2px"/><line x1="111.78" y1="14.98" x2="110.36" y2="13.58" style="fill:none;stroke:#000;stroke-linecap:round;stroke-linejoin:round;stroke-width:2px"/><line x1="110.34" y1="10.75" x2="111.74" y2="9.32" style="fill:none;stroke:#000;stroke-linecap:round;stroke-linejoin:round;stroke-width:2px"/><line x1="106.13" y1="15.02" x2="107.53" y2="13.6" style="fill:none;stroke:#000;stroke-linecap:round;stroke-linejoin:round;stroke-width:2px"/><line x1="84" y1="105.93" x2="84" y2="59.93" style="fill:none;stroke:#000;stroke-linecap:round;stroke-linejoin:round;stroke-width:2px"/><path d="M84,83.93,74.75,66.86A14.83,14.83,0,0,1,74.63,53l8.74-16.8a.71.71,0,0,1,1.26,0L93.37,53a14.83,14.83,0,0,1-.12,13.91Z" style="fill:none;stroke:#000;stroke-linecap:round;stroke-linejoin:round;stroke-width:2px"/><line x1="84" y1="71.93" x2="88" y2="63.93" style="fill:none;stroke:#000;stroke-linecap:round;stroke-linejoin:round;stroke-width:2px"/><line x1="84" y1="65.93" x2="80" y2="60.93" style="fill:none;stroke:#000;stroke-linecap:round;stroke-linejoin:round;stroke-width:2px"/></svg>