<svg xmlns="http://www.w3.org/2000/svg" viewBox="0 0 120 120"><rect x="28" y="62" width="11" height="11" style="fill:tomato"/><path d="M34.39,48.8a9.21,9.21,0,1,1,18.42,0" style="fill:tomato"/><path d="M32.85,48.8a9.22,9.22,0,1,1,18.43,0Z" style="fill:none;stroke:#000;stroke-miterlimit:10;stroke-width:2px"/><line x1="42.07" y1="13.92" x2="42.07" y2="34.98" style="fill:none;stroke:#000;stroke-linecap:round;stroke-linejoin:round;stroke-width:2px"/><line x1="60.63" y1="48.92" x2="55.94" y2="48.92" style="fill:none;stroke:#000;stroke-linecap:round;stroke-linejoin:round;stroke-width:2px"/><path d="M65.33,49l40.5-.11c1.72,0,3.1,1.74,3.09,3.89l-.25,53.77c0,2.16-1.41,3.92-3.13,3.93L15.82,111c-1.72,0-3.11-1.73-3.1-3.89L13,53c0-2.16,1.41-3.92,3.13-3.93L26,49" style="fill:none;stroke:#000;stroke-linecap:round;stroke-linejoin:round;stroke-width:2px"/><line x1="11.46" y1="18.39" x2="32.34" y2="39.23" style="fill:none;stroke:#000;stroke-linecap:round;stroke-linejoin:round;stroke-width:2px"/><line x1="66.94" y1="23.92" x2="52" y2="39" style="fill:none;stroke:#000;stroke-linecap:round;stroke-linejoin:round;stroke-width:2px"/><path d="M9.83,81,5.52,59.27c-.42-2.12.61-4.12,2.29-4.47" style="fill:none;stroke:#000;stroke-linecap:round;stroke-linejoin:round;stroke-width:2px"/><path d="M56.05,45l39.67-8.15c1.69-.35,3.39,1.08,3.8,3.19l.79,4" style="fill:none;stroke:#000;stroke-linecap:round;stroke-linejoin:round;stroke-width:2px"/><rect x="26" y="62" width="11" height="11" style="fill:none;stroke:#000;stroke-linecap:round;stroke-linejoin:round;stroke-width:2px"/><path d="M50,62h0a8.49,8.49,0,0,1,0,12h0" style="fill:none;stroke:#000;stroke-linecap:round;stroke-linejoin:round;stroke-width:2px"/><path d="M46,64h0a5.66,5.66,0,0,1,0,8h0" style="fill:none;stroke:#000;stroke-linecap:round;stroke-linejoin:round;stroke-width:2px"/><line x1="27" y1="98" x2="49" y2="98" style="fill:none;stroke:#000;stroke-linecap:round;stroke-linejoin:round;stroke-width:2px"/><line x1="62" y1="98" x2="84" y2="98" style="fill:none;stroke:#000;stroke-linecap:round;stroke-linejoin:round;stroke-width:2px"/><line x1="36" y1="94" x2="58" y2="94" style="fill:none;stroke:#000;stroke-linecap:round;stroke-linejoin:round;stroke-width:2px"/><line x1="70" y1="94" x2="79" y2="94" style="fill:none;stroke:#000;stroke-linecap:round;stroke-linejoin:round;stroke-width:2px"/><line x1="82.71" y1="94" x2="91.71" y2="94" style="fill:none;stroke:#000;stroke-linecap:round;stroke-linejoin:round;stroke-width:2px"/><line x1="94.42" y1="13.75" x2="93" y2="12.34" style="fill:none;stroke:#000;stroke-linecap:round;stroke-linejoin:round;stroke-width:2px"/><line x1="98.7" y1="17.96" x2="97.27" y2="16.56" style="fill:none;stroke:#000;stroke-linecap:round;stroke-linejoin:round;stroke-width:2px"/><line x1="97.25" y1="13.73" x2="98.66" y2="12.3" style="fill:none;stroke:#000;stroke-linecap:round;stroke-linejoin:round;stroke-width:2px"/><line x1="93.04" y1="18" x2="94.44" y2="16.58" style="fill:none;stroke:#000;stroke-linecap:round;stroke-linejoin:round;stroke-width:2px"/></svg>