<svg xmlns="http://www.w3.org/2000/svg" viewBox="0 0 120 120"><path d="M70.3,23.7a12.8,12.8,0,1,0-25.6,0,13.25,13.25,0,0,0,2.2,7.2,50.36,50.36,0,0,1,5.8,11.6l.3.5,4.6,13,4.6-12.9.2-.6a59.15,59.15,0,0,1,5.9-11.8A12.41,12.41,0,0,0,70.3,23.7Z" style="fill:tomato"/><path d="M58.4,102.5,72.5,95a57.81,57.81,0,0,1,41.4-5.1" style="fill:none;stroke:#000;stroke-linecap:round;stroke-linejoin:round;stroke-width:2px"/><path d="M16,102.5,30.1,95a57.74,57.74,0,0,1,59.2,2.9l7.8,5.2" style="fill:#f7f6f1;stroke:#000;stroke-linecap:round;stroke-linejoin:round;stroke-width:2px"/><path d="M31.1,110l14.1-7.5a57.52,57.52,0,0,1,59.2,2.9l7.8,5.2" style="fill:#f7f6f1;stroke:#000;stroke-linecap:round;stroke-linejoin:round;stroke-width:2px"/><polyline points="12 110 12 89 40.2 89 40.2 110" style="fill:#f7f6f1;stroke:#000;stroke-linecap:round;stroke-linejoin:round;stroke-width:2px"/><polyline points="12 89 25.8 73.3 40.2 89" style="fill:none;stroke:#000;stroke-linecap:round;stroke-linejoin:round;stroke-width:2px"/><rect x="18.6" y="95.6" width="6.9" height="7.2" style="fill:none;stroke:#000;stroke-linecap:round;stroke-linejoin:round;stroke-width:2px"/><rect x="25.5" y="95.6" width="6.9" height="7.2" style="fill:none;stroke:#000;stroke-linecap:round;stroke-linejoin:round;stroke-width:2px"/><line x1="16.2" y1="110.6" x2="112.2" y2="110.6" style="fill:none;stroke:#000;stroke-linecap:round;stroke-linejoin:round;stroke-width:2px"/><path d="M81.8,81.8h26.5A1.65,1.65,0,0,0,110,80a.75.75,0,0,0-.1-.5l-4-12a1.74,1.74,0,0,0-1.7-1.2h-18a2,2,0,0,0-1.7,1.2l-4.3,12a1.82,1.82,0,0,0,1.1,2.3Z" style="fill:none;stroke:#000;stroke-linecap:round;stroke-linejoin:round;stroke-width:2px"/><path d="M84.5,67.5C68.2,72.5,64.2,62,64.2,62H56.6s10.9,14.2,26.7,9.5H107" style="fill:none;stroke:#000;stroke-linecap:round;stroke-linejoin:round;stroke-width:2px"/><line x1="81.5" y1="76.1" x2="108.7" y2="76.2" style="fill:none;stroke:#000;stroke-linecap:round;stroke-linejoin:round;stroke-width:2px"/><line x1="91.7" y1="66.8" x2="89.9" y2="81.4" style="fill:none;stroke:#000;stroke-linecap:round;stroke-linejoin:round;stroke-width:2px"/><line x1="99" y1="66.8" x2="100.3" y2="81.4" style="fill:none;stroke:#000;stroke-linecap:round;stroke-linejoin:round;stroke-width:2px"/><path d="M85.1,90l4.8-3a5.62,5.62,0,0,0,2.5-4.7h0" style="fill:none;stroke:#000;stroke-linecap:round;stroke-linejoin:round;stroke-width:2px"/><path d="M97.8,82.3h0a5.49,5.49,0,0,0,2.5,4.7l.3.2" style="fill:none;stroke:#000;stroke-linecap:round;stroke-linejoin:round;stroke-width:2px"/><line x1="60" y1="87.2" x2="60" y2="62" style="fill:none;stroke:#000;stroke-linecap:round;stroke-linejoin:round;stroke-width:2px"/><path d="M64.2,62S57.4,81.6,29,76.8" style="fill:none;stroke:#000;stroke-linecap:round;stroke-linejoin:round;stroke-width:2px"/><path d="M56.6,62s3.6,13.6-30.8,11.3" style="fill:none;stroke:#000;stroke-linecap:round;stroke-linejoin:round;stroke-width:2px"/><line x1="76" y1="12.4" x2="74.6" y2="10.9" style="fill:none;stroke:#000;stroke-linecap:round;stroke-linejoin:round;stroke-width:2px"/><line x1="80.3" y1="16.6" x2="78.8" y2="15.2" style="fill:none;stroke:#000;stroke-linecap:round;stroke-linejoin:round;stroke-width:2px"/><line x1="78.8" y1="12.3" x2="80.2" y2="10.9" style="fill:none;stroke:#000;stroke-linecap:round;stroke-linejoin:round;stroke-width:2px"/><line x1="74.6" y1="16.6" x2="76" y2="15.2" style="fill:none;stroke:#000;stroke-linecap:round;stroke-linejoin:round;stroke-width:2px"/><line x1="89" y1="24.4" x2="87.6" y2="22.9" style="fill:none;stroke:#000;stroke-linecap:round;stroke-linejoin:round;stroke-width:2px"/><line x1="93.3" y1="28.6" x2="91.8" y2="27.2" style="fill:none;stroke:#000;stroke-linecap:round;stroke-linejoin:round;stroke-width:2px"/><line x1="91.8" y1="24.3" x2="93.2" y2="22.9" style="fill:none;stroke:#000;stroke-linecap:round;stroke-linejoin:round;stroke-width:2px"/><line x1="87.6" y1="28.6" x2="89" y2="27.2" style="fill:none;stroke:#000;stroke-linecap:round;stroke-linejoin:round;stroke-width:2px"/><line x1="12.6" y1="18.9" x2="11.1" y2="17.5" style="fill:none;stroke:#000;stroke-linecap:round;stroke-linejoin:round;stroke-width:2px"/><line x1="16.9" y1="23.1" x2="15.4" y2="21.7" style="fill:none;stroke:#000;stroke-linecap:round;stroke-linejoin:round;stroke-width:2px"/><line x1="15.4" y1="18.9" x2="16.8" y2="17.5" style="fill:none;stroke:#000;stroke-linecap:round;stroke-linejoin:round;stroke-width:2px"/><line x1="11.2" y1="23.2" x2="12.6" y2="21.7" style="fill:none;stroke:#000;stroke-linecap:round;stroke-linejoin:round;stroke-width:2px"/><line x1="101.4" y1="12" x2="99.9" y2="10.6" style="fill:none;stroke:#000;stroke-linecap:round;stroke-linejoin:round;stroke-width:2px"/><line x1="105.6" y1="16.2" x2="104.2" y2="14.8" style="fill:none;stroke:#000;stroke-linecap:round;stroke-linejoin:round;stroke-width:2px"/><line x1="104.2" y1="12" x2="105.6" y2="10.6" style="fill:none;stroke:#000;stroke-linecap:round;stroke-linejoin:round;stroke-width:2px"/><line x1="100" y1="16.2" x2="101.4" y2="14.8" style="fill:none;stroke:#000;stroke-linecap:round;stroke-linejoin:round;stroke-width:2px"/><path d="M68.7,23.7a12.8,12.8,0,0,0-25.6,0,13,13,0,0,0,2.2,7.2,50.36,50.36,0,0,1,5.8,11.6l.2.6,4.6,13,4.6-12.9.2-.6a54.65,54.65,0,0,1,6-11.8A13.86,13.86,0,0,0,68.7,23.7Z" style="fill:none;stroke:#000;stroke-linecap:round;stroke-linejoin:round;stroke-width:2px"/></svg>