<svg xmlns="http://www.w3.org/2000/svg" viewBox="0 0 120 120"><circle cx="64.45" cy="73.43" r="39.62" style="fill:#12bdc6"/><path d="M83.94,114H44.24a1,1,0,0,1,0-2h39.7a1,1,0,0,1,0,2Z"/><path d="M38.12,86h3.59v3.59a1.54,1.54,0,0,0,3.07,0V86h3.59a1.54,1.54,0,1,0,0-3.07H44.78V79.38a1.54,1.54,0,1,0-3.07,0V83H38.12a1.54,1.54,0,1,0,0,3.07Z" style="fill:#1a1a1a"/><path d="M75.71,51.86h3.58v3.59a1.54,1.54,0,0,0,3.08,0V51.86H86a1.54,1.54,0,0,0,0-3.07H82.37V45.2a1.54,1.54,0,0,0-3.08,0v3.59H75.71a1.54,1.54,0,1,0,0,3.07Z" style="fill:#1a1a1a"/><path d="M67.81,112H61.14a1,1,0,1,0,0,2h6.67a1,1,0,0,0,0-2Z" style="fill:#1a1a1a"/><path d="M12.51,31.34a1,1,0,0,1-.71-1.71L13,28.48a1,1,0,0,1,1.42,0,1,1,0,0,1,0,1.41L13.22,31A1,1,0,0,1,12.51,31.34Z"/><path d="M18.72,25.12a1,1,0,0,1-.7-1.71l1.15-1.15a1,1,0,0,1,1.41,1.41l-1.15,1.16A1,1,0,0,1,18.72,25.12Z"/><path d="M19.88,31.34a1,1,0,0,1-.71-.3L18,29.89a1,1,0,0,1,1.41-1.41l1.15,1.15a1,1,0,0,1,0,1.41A1,1,0,0,1,19.88,31.34Z"/><path d="M13.66,25.12a1,1,0,0,1-.71-.29L11.8,23.67a1,1,0,0,1,0-1.41,1,1,0,0,1,1.42,0l1.15,1.15a1,1,0,0,1,0,1.42A1,1,0,0,1,13.66,25.12Z"/><path d="M98.52,44a1,1,0,0,1-.71-1.71L99,41.14a1,1,0,0,1,1.41,0,1,1,0,0,1,0,1.42l-1.15,1.15A1,1,0,0,1,98.52,44Z"/><path d="M104.73,37.78a1,1,0,0,1-.71-.29,1,1,0,0,1,0-1.41l1.16-1.15a1,1,0,0,1,1.41,1.41l-1.15,1.15A1,1,0,0,1,104.73,37.78Z"/><path d="M105.88,44a1,1,0,0,1-.7-.29L104,42.56a1,1,0,1,1,1.42-1.42l1.15,1.15a1,1,0,0,1,0,1.42A1,1,0,0,1,105.88,44Z"/><path d="M99.67,37.78a1,1,0,0,1-.71-.29l-1.15-1.15a1,1,0,0,1,1.41-1.41l1.15,1.15a1,1,0,0,1,0,1.41A1,1,0,0,1,99.67,37.78Z"/><path d="M21.88,108.35a1,1,0,0,1-.71-.29,1,1,0,0,1,0-1.42l1.15-1.15a1,1,0,1,1,1.42,1.42l-1.16,1.15A1,1,0,0,1,21.88,108.35Z"/><path d="M28.09,102.14a1,1,0,0,1-.71-.3,1,1,0,0,1,0-1.41l1.16-1.15A1,1,0,0,1,30,100.69l-1.15,1.15A1,1,0,0,1,28.09,102.14Z"/><path d="M29.24,108.35a1,1,0,0,1-.7-.29l-1.16-1.15a1,1,0,1,1,1.42-1.42L30,106.64a1,1,0,0,1-.71,1.71Z"/><path d="M23,102.14a1,1,0,0,1-.71-.3l-1.15-1.15a1,1,0,0,1,1.41-1.41l1.16,1.15a1,1,0,0,1,0,1.41A1,1,0,0,1,23,102.14Z"/><path d="M72.53,57.55A3,3,0,0,0,70,56.17H58.93A3,3,0,0,0,56,58.52L52.14,76.05a3,3,0,0,0,2.92,3.64h3.06L56.53,91.88a3,3,0,0,0,1.92,3.19,3.09,3.09,0,0,0,1,.19h0A3,3,0,0,0,62,93.92l14.39-21.6a3,3,0,0,0-2.49-4.66h-4.5l3.34-7.24A3,3,0,0,0,72.53,57.55Zm-1.73,2-4,8.75a1.06,1.06,0,0,0,.07,1,1.08,1.08,0,0,0,.89.49h6.16a.85.85,0,0,1,.76.46.86.86,0,0,1,0,.89L60.22,92.75a.86.86,0,0,1-.72.38h0a.81.81,0,0,1-.31,0,.86.86,0,0,1-.55-.93l1.74-13.39a1.07,1.07,0,0,0-.25-.84,1.05,1.05,0,0,0-.8-.36H55.06a.9.9,0,0,1-.68-.32.88.88,0,0,1-.17-.73L58.09,59a.85.85,0,0,1,.84-.68H70a.86.86,0,0,1,.73.4A.82.82,0,0,1,70.8,59.53Z" style="fill:#1a1a1a"/></svg>