<?xml version="1.0" encoding="utf-8"?>
<!-- Generator: Adobe Illustrator 25.4.1, SVG Export Plug-In . SVG Version: 6.00 Build 0)  -->
<svg version="1.1" id="Layer_1" xmlns="http://www.w3.org/2000/svg" xmlns:xlink="http://www.w3.org/1999/xlink" x="0px" y="0px"
	 viewBox="0 0 120 108" style="enable-background:new 0 0 120 108;" xml:space="preserve">
<style type="text/css">
	.st0{fill:#FF6347;}
	.st1{fill:none;stroke:#000000;stroke-width:2;stroke-linecap:round;stroke-linejoin:round;}
</style>
<circle class="st0" cx="36.5" cy="30.9" r="11.5"/>
<circle class="st1" cx="39.5" cy="30.9" r="11.5"/>
<path class="st1" d="M46.4,88h35.2c1.3,0,2.3-1.1,2.3-2.4c0-0.3,0-0.5-0.1-0.7L78.5,69c-0.3-1-1.2-1.6-2.2-1.6H52.2
	c-1,0-1.9,0.6-2.2,1.5l-5.8,15.9c-0.4,1.2,0.2,2.6,1.4,3C45.9,87.9,46.2,88,46.4,88z"/>
<line class="st1" x1="48.3" y1="74.2" x2="79.8" y2="74.2"/>
<line class="st1" x1="46" y1="80.4" x2="82.1" y2="80.5"/>
<line class="st1" x1="59.5" y1="67.9" x2="57.2" y2="87.4"/>
<line class="st1" x1="69.2" y1="67.9" x2="70.9" y2="87.4"/>
<path class="st1" d="M60.5,88.6L60.5,88.6c0,2.5-1.2,4.9-3.3,6.3l-0.4,0.3"/>
<path class="st1" d="M67.6,88.6L67.6,88.6c0,2.5,1.2,4.9,3.3,6.3l0.4,0.3"/>
<line class="st1" x1="108" y1="95.2" x2="12" y2="95.2"/>
<path class="st1" d="M62,34.9v17.3c-0.1,2-1.7,3.5-3.7,3.5l0,0H38l-11,9.8c-0.3,0.2-0.8,0.2-1.1-0.1c-0.1-0.1-0.1-0.3-0.1-0.4
	l0.2-9.2h-9.3c-2,0.1-3.6-1.5-3.7-3.5l0,0V10.9c0.1-2,1.7-3.5,3.7-3.5l0,0H50"/>
<path class="st1" d="M73.3,55.2h14l6.7,6.2c0.3,0.2,0.8,0,0.8-0.3l0.1-6h5.9c1.3,0,2.3-0.8,2.3-1.7V33.2c0-0.9-1-1.7-2.3-1.7H73.3
	C72,31.4,71,32.2,71,33.2v20.3C71,54.4,72,55.2,73.3,55.2z"/>
<path class="st1" d="M85.7,25.2h-14L65,31.4c-0.3,0.2-0.8,0-0.8-0.3l-0.1-6h-5.9C57,25.2,56,24.4,56,23.4V3.1c0-1,1-1.7,2.3-1.7
	h27.4C87,1.4,88,2.1,88,3.1v20.4C88,24.4,87,25.2,85.7,25.2z"/>
<line class="st1" x1="93" y1="19.4" x2="109" y2="19.4"/>
<line class="st1" x1="93" y1="22.4" x2="102.3" y2="22.4"/>
<line class="st1" x1="72" y1="5.4" x2="72" y2="15.4"/>
<circle cx="72" cy="18.4" r="1"/>
<path class="st1" d="M93,43.1c0.1,3-2.3,5.6-5.3,5.7s-5.6-2.3-5.7-5.3l0,0c0-0.2,0-0.4,0-0.6"/>
<line class="st1" x1="93" y1="42.9" x2="82" y2="42.7"/>
<line class="st1" x1="85" y1="42.8" x2="85.1" y2="37.8"/>
<line class="st1" x1="90" y1="42.9" x2="90.1" y2="37.9"/>
</svg>
