<?xml version="1.0" encoding="utf-8"?>
<!-- Generator: Adobe Illustrator 25.4.1, SVG Export Plug-In . SVG Version: 6.00 Build 0)  -->
<svg version="1.1" id="Layer_1" xmlns="http://www.w3.org/2000/svg" xmlns:xlink="http://www.w3.org/1999/xlink" x="0px" y="0px"
	 viewBox="0 0 120 111.7" style="enable-background:new 0 0 120 111.7;" xml:space="preserve">
<style type="text/css">
	.st0{fill:#FF6347;}
	.st1{fill:none;stroke:#000000;stroke-width:2;stroke-miterlimit:10;}
	.st2{fill:none;stroke:#000000;stroke-width:2;stroke-linecap:round;stroke-linejoin:round;}
</style>
<path class="st0" d="M33.5,99.5c0.2-5.1,4.4-9.1,9.5-8.9c4.9,0.2,8.8,4.1,8.9,8.9"/>
<path class="st1" d="M31.9,99.5c0-5.1,4.1-9.2,9.2-9.2c5.1,0,9.2,4.1,9.2,9.2H31.9z"/>
<line class="st2" x1="41.1" y1="64.6" x2="41.1" y2="85.7"/>
<line class="st2" x1="13" y1="99.5" x2="27.6" y2="99.5"/>
<line class="st2" x1="59.7" y1="99.6" x2="55" y2="99.6"/>
<line class="st2" x1="108" y1="99.6" x2="64.4" y2="99.5"/>
<line class="st2" x1="10.5" y1="69.1" x2="31.4" y2="89.9"/>
<line class="st2" x1="66" y1="74.6" x2="51.1" y2="89.7"/>
<g>
	<path d="M82.2,3.8c-0.3,0-0.5-0.1-0.7-0.3L80,2.1c-0.4-0.4-0.4-1,0-1.4c0.4-0.4,1-0.4,1.4,0l1.4,1.4c0.4,0.4,0.4,1,0,1.4
		C82.7,3.7,82.4,3.8,82.2,3.8z"/>
</g>
<g>
	<path d="M86.4,8c-0.3,0-0.5-0.1-0.7-0.3l-1.4-1.4c-0.4-0.4-0.4-1,0-1.4c0.4-0.4,1-0.4,1.4,0l1.4,1.4c0.4,0.4,0.4,1,0,1.4
		C86.9,7.9,86.7,8,86.4,8z"/>
</g>
<g>
	<path d="M85,3.8c-0.3,0-0.5-0.1-0.7-0.3c-0.4-0.4-0.4-1,0-1.4l1.4-1.4c0.4-0.4,1-0.4,1.4,0c0.4,0.4,0.4,1,0,1.4l-1.4,1.4
		C85.5,3.7,85.2,3.8,85,3.8z"/>
</g>
<g>
	<path d="M80.8,8.1c-0.3,0-0.5-0.1-0.7-0.3c-0.4-0.4-0.4-1,0-1.4l1.4-1.4c0.4-0.4,1-0.4,1.4,0c0.4,0.4,0.4,1,0,1.4l-1.4,1.4
		C81.3,8,81,8.1,80.8,8.1z"/>
</g>
<g>
	<path d="M95.2,15.8c-0.3,0-0.5-0.1-0.7-0.3L93,14.1c-0.4-0.4-0.4-1,0-1.4c0.4-0.4,1-0.4,1.4,0l1.4,1.4c0.4,0.4,0.4,1,0,1.4
		C95.7,15.7,95.4,15.8,95.2,15.8z"/>
</g>
<line class="st2" x1="99.4" y1="19" x2="98" y2="17.6"/>
<g>
	<path d="M98,15.8c-0.3,0-0.5-0.1-0.7-0.3c-0.4-0.4-0.4-1,0-1.4l1.4-1.4c0.4-0.4,1-0.4,1.4,0s0.4,1,0,1.4l-1.4,1.4
		C98.5,15.7,98.2,15.8,98,15.8z"/>
</g>
<line class="st2" x1="93.8" y1="19.1" x2="95.2" y2="17.6"/>
<g>
	<path d="M18.7,10.4c-0.3,0-0.5-0.1-0.7-0.3l-1.4-1.4c-0.4-0.4-0.4-1,0-1.4c0.4-0.4,1-0.4,1.4,0l1.4,1.4c0.4,0.4,0.4,1,0,1.4
		C19.2,10.3,19,10.4,18.7,10.4z"/>
</g>
<g>
	<path d="M23,14.6c-0.3,0-0.5-0.1-0.7-0.3l-1.4-1.4c-0.4-0.4-0.4-1,0-1.4c0.4-0.4,1-0.4,1.4,0l1.4,1.4c0.4,0.4,0.4,1,0,1.4
		C23.5,14.5,23.3,14.6,23,14.6z"/>
</g>
<g>
	<path d="M21.6,10.3c-0.3,0-0.5-0.1-0.7-0.3c-0.4-0.4-0.4-1,0-1.4l1.4-1.4c0.4-0.4,1-0.4,1.4,0c0.4,0.4,0.4,1,0,1.4L22.3,10
		C22.1,10.2,21.8,10.3,21.6,10.3z"/>
</g>
<g>
	<path d="M17.3,14.6c-0.3,0-0.5-0.1-0.7-0.3c-0.4-0.4-0.4-1,0-1.4l1.4-1.4c0.4-0.4,1-0.4,1.4,0c0.4,0.4,0.4,1,0,1.4L18,14.3
		C17.9,14.5,17.6,14.6,17.3,14.6z"/>
</g>
<g>
	<path d="M107.5,3.4c-0.3,0-0.5-0.1-0.7-0.3l-1.4-1.4c-0.4-0.4-0.4-1,0-1.4c0.4-0.4,1-0.4,1.4,0l1.4,1.4c0.4,0.4,0.4,1,0,1.4
		C108,3.4,107.8,3.4,107.5,3.4z"/>
</g>
<g>
	<path d="M111.8,7.7c-0.3,0-0.5-0.1-0.7-0.3L109.7,6c-0.4-0.4-0.4-1,0-1.4c0.4-0.4,1-0.4,1.4,0l1.4,1.4c0.4,0.4,0.4,1,0,1.4
		C112.3,7.6,112,7.7,111.8,7.7z"/>
</g>
<g>
	<path d="M110.3,3.4c-0.3,0-0.5-0.1-0.7-0.3c-0.4-0.4-0.4-1,0-1.4l1.4-1.4c0.4-0.4,1-0.4,1.4,0c0.4,0.4,0.4,1,0,1.4l-1.4,1.4
		C110.9,3.3,110.6,3.4,110.3,3.4z"/>
</g>
<g>
	<path d="M106.1,7.7c-0.3,0-0.5-0.1-0.7-0.3c-0.4-0.4-0.4-1,0-1.4l1.4-1.4c0.4-0.4,1-0.4,1.4,0c0.4,0.4,0.4,1,0,1.4l-1.4,1.4
		C106.6,7.6,106.4,7.7,106.1,7.7z"/>
</g>
<line class="st2" x1="84" y1="97.6" x2="84" y2="51.6"/>
<path class="st2" d="M84,75.6l-9.2-17.1c-2.3-4.3-2.4-9.5-0.1-13.9l8.7-16.8c0.2-0.3,0.6-0.5,1-0.3c0.1,0.1,0.2,0.2,0.3,0.3
	l8.7,16.8c2.3,4.4,2.2,9.6-0.1,13.9L84,75.6z"/>
<line class="st2" x1="84" y1="63.6" x2="88" y2="55.6"/>
<line class="st2" x1="84" y1="57.6" x2="80" y2="52.6"/>
</svg>
