<svg xmlns="http://www.w3.org/2000/svg" viewBox="0 0 120 120"><polyline points="29 53.5 45.5 70 81.5 34" style="fill:none;stroke:tomato;stroke-miterlimit:10;stroke-width:20px"/><polygon points="39.93 84 16.36 60.43 30.5 46.29 39.93 55.72 68.86 26.79 83 40.93 39.93 84" style="fill:none;stroke:#000;stroke-linecap:round;stroke-linejoin:round;stroke-width:2px"/><line x1="109" y1="110.57" x2="13" y2="110.57" style="fill:none;stroke:#000;stroke-linecap:round;stroke-linejoin:round;stroke-width:2px"/><polygon points="73.99 84.2 72 97.47 83.81 91.1 73.99 84.2" style="fill:none;stroke:#000;stroke-linecap:round;stroke-linejoin:round;stroke-width:2px"/><rect x="58.24" y="33.67" width="12" height="71" transform="translate(76.92 -24.38) rotate(50.6)" style="fill:none;stroke:#000;stroke-linecap:round;stroke-linejoin:round;stroke-width:2px"/><line x1="41.04" y1="81.1" x2="44.22" y2="84.97" style="fill:none;stroke:#000;stroke-linecap:round;stroke-linejoin:round;stroke-width:2px"/><line x1="51.09" y1="72.85" x2="52.36" y2="74.4" style="fill:none;stroke:#000;stroke-linecap:round;stroke-linejoin:round;stroke-width:2px"/><line x1="69.64" y1="57.62" x2="70.91" y2="59.16" style="fill:none;stroke:#000;stroke-linecap:round;stroke-linejoin:round;stroke-width:2px"/><line x1="60.36" y1="65.24" x2="63.54" y2="69.1" style="fill:none;stroke:#000;stroke-linecap:round;stroke-linejoin:round;stroke-width:2px"/><line x1="79.68" y1="49.37" x2="82.86" y2="53.23" style="fill:none;stroke:#000;stroke-linecap:round;stroke-linejoin:round;stroke-width:2px"/><circle cx="41.56" cy="90.39" r="1.5"/><rect x="26" y="14" width="73" height="96" rx="8.21" style="fill:none;stroke:#000;stroke-linecap:round;stroke-linejoin:round;stroke-width:2px"/><line x1="38" y1="38" x2="86" y2="38" style="fill:none;stroke:#000;stroke-linecap:round;stroke-linejoin:round;stroke-width:2px"/><line x1="50" y1="26" x2="74" y2="26" style="fill:none;stroke:#000;stroke-linecap:round;stroke-linejoin:round;stroke-width:2px"/><path d="M87.41,46.74h8.84a1.58,1.58,0,0,1,1.58,1.58V91.74a0,0,0,0,1,0,0h-12a0,0,0,0,1,0,0V48.32A1.58,1.58,0,0,1,87.41,46.74Z" transform="translate(56.48 -40.2) rotate(35.08)" style="fill:#fff;stroke:#000;stroke-linecap:round;stroke-linejoin:round;stroke-width:2px"/><line x1="94.68" y1="54.74" x2="104.5" y2="61.64" style="fill:none;stroke:#000;stroke-linecap:round;stroke-linejoin:round;stroke-width:2px"/></svg>