<?xml version="1.0" encoding="utf-8"?>
<!-- Generator: Adobe Illustrator 25.4.1, SVG Export Plug-In . SVG Version: 6.00 Build 0)  -->
<svg version="1.1" id="Layer_1" xmlns="http://www.w3.org/2000/svg" xmlns:xlink="http://www.w3.org/1999/xlink" x="0px" y="0px"
	 viewBox="0 0 120 110.3" style="enable-background:new 0 0 120 110.3;" xml:space="preserve">
<style type="text/css">
	.st0{fill:none;stroke:#000000;stroke-width:2;stroke-linecap:round;stroke-linejoin:round;}
	.st1{fill:#F7F6F1;stroke:#1A1A1A;stroke-width:2;stroke-miterlimit:10;}
	.st2{fill:none;stroke:#1A1A1A;stroke-width:2;stroke-miterlimit:10;}
	.st3{fill:#FFFFFF;stroke:#1A1A1A;stroke-width:2;stroke-miterlimit:10;}
	.st4{fill:#FF6347;}
</style>
<path class="st0" d="M76.9,98.3H101c3.3,0,5.9-2.8,5.9-6.1V25.7c0-2.4-1.9-4.3-4.3-4.4l0,0H92"/>
<line class="st0" x1="107.9" y1="98.3" x2="11.9" y2="98.3"/>
<path class="st1" d="M27.9,84.3l9-2.2c2-0.5,3.9-1.2,5.7-2.1l3.4-1.7c5-2.5,10.9-2.9,16.2-1l8.7,3.1l4.5,1.8
	c3.3,1.3,5.5,4.5,5.5,8.1l0,0c0,2.3-1.8,4.1-4.1,4.1l0,0H27.9c-4,0-4-2.8-4-5C23.9,86.3,25.3,85.3,27.9,84.3z"/>
<path class="st2" d="M23.9,88.3h2c2.4,0,6-1,6-5"/>
<path class="st2" d="M38.9,81.3c0,3.7,4,10,9,13h11l0.8-3.7c0.8-4.2,3.2-8.6,5.2-12.3"/>
<path class="st2" d="M38.9,83.3h23c1.3,0,2.7-0.3,3.9-0.8l5.1-2.2"/>
<circle class="st3" cx="35.9" cy="93.3" r="4"/>
<circle class="st3" cx="66.9" cy="93.3" r="4"/>
<line class="st0" x1="83.9" y1="86.3" x2="95.9" y2="86.3"/>
<line class="st0" x1="83.9" y1="89.3" x2="90.9" y2="89.3"/>
<circle class="st4" cx="55.7" cy="22" r="9.2"/>
<path d="M54.2,14.8c4,0,7.2,3.2,7.3,7.2s-3.2,7.2-7.2,7.3S47,26.1,47,22.1c0,0,0,0,0-0.1C47,18,50.2,14.8,54.2,14.8 M54.2,12.8
	c-5.1,0-9.2,4.1-9.2,9.2s4.1,9.2,9.2,9.2s9.2-4.1,9.2-9.2l0,0C63.4,16.9,59.3,12.8,54.2,12.8z"/>
<line class="st0" x1="54.2" y1="3.6" x2="54.2" y2="8.2"/>
<line class="st0" x1="36" y1="22" x2="40.6" y2="22.1"/>
<line class="st0" x1="54.3" y1="40.3" x2="54.4" y2="35.7"/>
<line class="st0" x1="72.7" y1="22.2" x2="68.1" y2="22"/>
<line class="st0" x1="41.2" y1="9.2" x2="44.4" y2="12.5"/>
<line class="st0" x1="41.6" y1="35.1" x2="44.8" y2="31.8"/>
<line class="st0" x1="67.4" y1="34.9" x2="64.2" y2="31.6"/>
<line class="st0" x1="67.4" y1="9" x2="64.1" y2="12.2"/>
<line class="st0" x1="101.6" y1="4.3" x2="101.6" y2="2.3"/>
<line class="st0" x1="101.6" y1="10.3" x2="101.6" y2="8.3"/>
<line class="st0" x1="103.6" y1="6.3" x2="105.6" y2="6.3"/>
<line class="st0" x1="97.6" y1="6.3" x2="99.6" y2="6.3"/>
<line class="st0" x1="18.6" y1="50.3" x2="18.6" y2="48.3"/>
<line class="st0" x1="18.6" y1="56.3" x2="18.6" y2="54.3"/>
<line class="st0" x1="20.6" y1="52.3" x2="22.6" y2="52.3"/>
<line class="st0" x1="14.6" y1="52.3" x2="16.6" y2="52.3"/>
<line class="st0" x1="17.1" y1="2.9" x2="15.7" y2="1.5"/>
<line class="st0" x1="21.4" y1="7.1" x2="20" y2="5.7"/>
<line class="st0" x1="20" y1="2.9" x2="21.4" y2="1.4"/>
<line class="st0" x1="15.8" y1="7.2" x2="17.2" y2="5.7"/>
<line class="st0" x1="88.7" y1="38.5" x2="87.3" y2="37.1"/>
<line class="st0" x1="93" y1="42.7" x2="91.6" y2="41.3"/>
<line class="st0" x1="91.6" y1="38.5" x2="93" y2="37.1"/>
<line class="st0" x1="87.3" y1="42.7" x2="88.8" y2="41.3"/>
<path class="st0" d="M86.1,16.3c3,0,5.5,2.5,5.5,5.5s-2.4,5.5-5.5,5.5"/>
<line class="st0" x1="86" y1="16.3" x2="86" y2="27.3"/>
<line class="st0" x1="86" y1="24.3" x2="81" y2="24.3"/>
<line class="st0" x1="86" y1="19.3" x2="81" y2="19.3"/>
</svg>
