<svg xmlns="http://www.w3.org/2000/svg" viewBox="0 0 50 38.18"><rect x="6.68" y="1.55" width="36.64" height="36.64" style="fill:#fff;fill-opacity:0"/><path d="M29.27,10.76a3.34,3.34,0,0,0-.62,2.58,3.45,3.45,0,0,0,6.82-1.09,3.46,3.46,0,0,0-6.2-1.49Zm-2.51-.67L26.26,7l3.1.49,1.42-2.8L33,6.9,35.8,5.48l.48,3.1,3.1.49L38,11.86l2.22,2.22-2.79,1.43.48,3.08-3.08-.48-1.43,2.8-2.22-2.23L28.34,20.1,27.85,17l-3.1-.49,1.42-2.79L24,11.51h0Z" style="fill:#ee7787;fill-rule:evenodd"/><polygon points="30.65 26.02 30.64 26.01 25.95 26.01 25.95 26.02 25.94 26.02 25.95 21.33 25.95 21.32 27.02 21.32 27.01 21.33 27.41 23.53 31 19.94 32.03 20.96 28.43 24.55 30.64 24.95 30.65 26.02" style="fill:#ee7787;fill-rule:evenodd"/><polygon points="27 17.86 27.14 18.76 21.34 24.55 23.54 24.95 23.55 26.02 23.54 26.01 18.86 26.01 18.86 26.02 18.85 26.02 18.85 21.32 19.92 21.32 19.92 21.33 20.32 23.53 26.12 17.72 27 17.86" style="fill:#ee7787;fill-rule:evenodd"/><polygon points="18.85 14.22 19.92 14.22 19.92 14.23 20.32 16.43 23.91 12.85 24.93 13.87 21.34 17.45 23.54 17.85 23.55 18.92 23.54 18.91 18.86 18.91 18.86 18.92 18.85 18.92 18.85 14.22" style="fill:#ee7787;fill-rule:evenodd"/><path d="M12.78,23.18a6.06,6.06,0,0,1,4.45-1.85h0q.32,0,.63,0V27H23.5c0,.21,0,.42,0,.64a6,6,0,0,1-1.85,4.44,6,6,0,0,1-4.44,1.85h0a6.32,6.32,0,0,1-6.3-6.29A6.06,6.06,0,0,1,12.78,23.18Zm3.81.93V22.67a4.51,4.51,0,0,0-2,.72A4.51,4.51,0,0,0,16.59,24.11Zm-4.31,4.17A4.66,4.66,0,0,0,13.55,31a6,6,0,0,1,3-1.15V28.28Zm1.26-4a6.12,6.12,0,0,0-.5.64l0,0h0A4.65,4.65,0,0,0,12.28,27h4.31V25.41A6,6,0,0,1,13.54,24.26Zm4.33,4v1.55A6.06,6.06,0,0,1,20.92,31a4.72,4.72,0,0,0,1.27-2.7Zm0,2.86v1.45a4.74,4.74,0,0,0,2-.74A4.7,4.7,0,0,0,17.87,31.14Zm-1.28,1.45V31.14a4.62,4.62,0,0,0-2,.71A4.66,4.66,0,0,0,16.59,32.59Z" style="fill:#6e83bf;fill-rule:evenodd"/></svg>