<?xml version="1.0" encoding="utf-8"?>
<!-- Generator: Adobe Illustrator 25.4.1, SVG Export Plug-In . SVG Version: 6.00 Build 0)  -->
<svg version="1.1" id="Layer_1" xmlns="http://www.w3.org/2000/svg" xmlns:xlink="http://www.w3.org/1999/xlink" x="0px" y="0px"
	 viewBox="0 0 120 120" style="enable-background:new 0 0 120 120;" xml:space="preserve">
<style type="text/css">
	.st0{fill:#FF6248;}
	.st1{fill:none;stroke:#000000;stroke-width:2;stroke-linecap:round;stroke-linejoin:round;}
</style>
<path class="st0" d="M61.7,71.1l5.7-12C71.8,50,68.1,39,59,34.5L48.6,29l-5.2,10.3c-4.4,8.5-1.6,19,6.5,24.1L61.7,71.1z"/>
<path class="st0" d="M61.6,70.7l-5-12.3c-3.9-9.3,0.5-20.1,9.7-24.1l10.7-4.9L81.7,40c3.9,8.7,0.5,19-7.9,23.7L61.6,70.7z"/>
<path class="st0" d="M64.1,69.7l-9.2-9.6c-7.1-7.2-7.1-18.8,0-26l8.1-8.5l8.2,8.1c6.9,6.6,7.6,17.5,1.6,24.9L64.1,69.7z"/>
<path class="st1" d="M78.3,39.3L73.1,29l-10.4,5.5c-1,0.5-1.8,1-2.7,1.7c-0.8-0.6-1.7-1.2-2.7-1.7L46.9,29l-5.2,10.3
	c-4.4,8.5-1.6,19,6.5,24.1L60,71.1l0,0l0,0l11.8-7.7C79.9,58.3,82.7,47.8,78.3,39.3z"/>
<line class="st1" x1="108" y1="110.6" x2="12" y2="110.6"/>
<path class="st1" d="M89,45.5c0-16-12.9-29-28.9-29.1S31.1,29.3,31,45.3c0,7.1,2.5,13.9,7.2,19.2c6.9,8.1,10.6,18.4,10.5,29v0.4
	h22.8v-0.4c0.1-10.8,4-21.3,11-29.6C86.7,58.7,89,52.2,89,45.5z"/>
<path class="st1" d="M60,71l8.8-10c6.8-7.5,6.3-19.1-1.1-26l-8.5-8.1l-7.9,8.4c-6.6,6.9-6.9,17.8-0.6,25L60,71z"/>
<line class="st1" x1="60" y1="94.4" x2="60" y2="45.5"/>
<g>
	<line class="st1" x1="59.5" y1="59.7" x2="53.9" y2="53.1"/>
	<line class="st1" x1="60.5" y1="59.7" x2="66.1" y2="53.1"/>
</g>
<path class="st1" d="M46.8,94.4h26.3c1.8,0,3.3,1.5,3.3,3.3v0c0,1.8-1.5,3.3-3.3,3.3H46.8c-1.8,0-3.3-1.5-3.3-3.3v0
	C43.5,95.9,45,94.4,46.8,94.4z"/>
<path class="st1" d="M46.8,101h26.3c1.8,0,3.3,1.5,3.3,3.3v0c0,1.8-1.5,3.3-3.3,3.3H46.8c-1.8,0-3.3-1.5-3.3-3.3v0
	C43.5,102.4,45,101,46.8,101z"/>
<path class="st1" d="M55.3,107.5h9.4l-0.8,0.8c-2.2,2.2-5.7,2.2-7.8,0C55.7,108.1,55.5,107.8,55.3,107.5z"/>
<line class="st1" x1="60" y1="11.7" x2="60" y2="3.6"/>
<line class="st1" x1="36.2" y1="21.7" x2="22.2" y2="9.3"/>
<line class="st1" x1="26.4" y1="45.7" x2="9.9" y2="45.7"/>
<line class="st1" x1="36.4" y1="69.5" x2="19" y2="86.9"/>
<line class="st1" x1="84.2" y1="69.2" x2="108" y2="90.4"/>
<line class="st1" x1="94" y1="45.3" x2="111.2" y2="45.3"/>
<line class="st1" x1="84" y1="21.4" x2="98.4" y2="7"/>
<line class="st1" x1="47.8" y1="14" x2="44.8" y2="6.4"/>
<line class="st1" x1="29.2" y1="32" x2="18.2" y2="27.1"/>
<line class="st1" x1="28.8" y1="57.8" x2="15.6" y2="62.9"/>
<line class="st1" x1="91.2" y1="58.8" x2="108" y2="68.3"/>
<line class="st1" x1="91.6" y1="33" x2="105.8" y2="27.5"/>
<line class="st1" x1="73.6" y1="14.4" x2="76.9" y2="7"/>
</svg>
