<?xml version="1.0" encoding="utf-8"?>
<!-- Generator: Adobe Illustrator 25.4.1, SVG Export Plug-In . SVG Version: 6.00 Build 0)  -->
<svg version="1.1" id="Layer_1" xmlns="http://www.w3.org/2000/svg" xmlns:xlink="http://www.w3.org/1999/xlink" x="0px" y="0px"
	 viewBox="0 0 120 108" style="enable-background:new 0 0 120 108;" xml:space="preserve">
<style type="text/css">
	.st0{fill:#FF6248;}
	.st1{fill:none;stroke:#000000;stroke-width:2;stroke-linecap:round;stroke-linejoin:round;}
</style>
<g>
	<circle class="st0" cx="75" cy="26.5" r="22"/>
</g>
<g>
	<path d="M74.5,49.5c-12.7,0-23-10.3-23-23s10.3-23,23-23s23,10.3,23,23S87.2,49.5,74.5,49.5z M74.5,5.5c-11.6,0-21,9.4-21,21
		s9.4,21,21,21s21-9.4,21-21S86.1,5.5,74.5,5.5z"/>
</g>
<g>
	<path d="M75,51.5c-13.8,0-25-11.2-25-25s11.2-25,25-25s25,11.2,25,25S88.8,51.5,75,51.5z M75,3.5c-12.7,0-23,10.3-23,23
		s10.3,23,23,23s23-10.3,23-23S87.7,3.5,75,3.5z"/>
</g>
<polyline class="st1" points="37,99.5 37,65.5 84,65.5 84,99.5 "/>
<polyline class="st1" points="37,65.5 60,39.5 84,65.5 "/>
<line class="st1" x1="69" y1="45.5" x2="79" y2="56.5"/>
<line class="st1" x1="73" y1="43.5" x2="88" y2="60.5"/>
<rect x="48" y="76.5" class="st1" width="11.5" height="12"/>
<rect x="59.5" y="76.5" class="st1" width="11.5" height="12"/>
<circle class="st0" cx="60.5" cy="53" r="2.5"/>
<circle class="st1" cx="58.5" cy="53" r="2.5"/>
<circle class="st1" cx="74.5" cy="26.5" r="11"/>
<line class="st1" x1="108" y1="100" x2="12" y2="100"/>
<path d="M76.9,23.6c-0.7-0.8-1.7-1.3-2.7-1.2c-1.3,0-2.7,0.5-2.7,1.7s1.3,1.4,2.8,1.6c2.2,0.3,4.7,0.9,4.7,3.4
	c0,2.1-1.9,3.2-3.8,3.3V34h-1.7v-1.5c-1.7,0-3.3-1-4.1-2.5l1.5-0.8c0.5,1.1,2,1.7,3.3,1.7S77,30.5,77,29c0-1.2-1.4-1.6-3-1.8
	c-2.2-0.3-4.3-0.7-4.4-3.1c0-2.1,1.9-3,3.7-3.2v-1.4H75v1.4c1.3,0,2.6,0.8,3.2,1.9L76.9,23.6z"/>
<g>
	<path d="M74,3.5c-0.6,0-1-0.4-1-1v-1c0-0.6,0.4-1,1-1s1,0.4,1,1v1C75,3.1,74.6,3.5,74,3.5z"/>
</g>
<g>
	<path d="M70.2,4c-0.5,0-0.9-0.3-1-0.8l-0.2-1c-0.1-0.5,0.3-1.1,0.8-1.1c0.5-0.1,1.1,0.3,1.1,0.8l0.2,1C71.2,3.4,70.8,4,70.2,4
		C70.3,4,70.2,4,70.2,4z"/>
</g>
<g>
	<path d="M66.5,5.1c-0.4,0-0.8-0.3-0.9-0.7l-0.3-0.9c-0.2-0.5,0.1-1.1,0.6-1.3s1.1,0.1,1.3,0.6l0.3,0.9c0.2,0.5-0.1,1.1-0.6,1.3
		C66.7,5,66.6,5.1,66.5,5.1z"/>
</g>
<g>
	<path d="M63,6.7c-0.4,0-0.7-0.2-0.9-0.5l-0.5-0.9C61.3,4.8,61.5,4.2,62,4c0.5-0.3,1.1-0.1,1.3,0.4l0.5,0.9c0.3,0.5,0.1,1.1-0.4,1.3
		C63.3,6.7,63.1,6.7,63,6.7z"/>
</g>
<line class="st1" x1="59.8" y1="7.9" x2="59.2" y2="7.1"/>
<line class="st1" x1="57" y1="10.6" x2="56.3" y2="9.9"/>
<line class="st1" x1="54.7" y1="13.7" x2="53.8" y2="13.1"/>
<line class="st1" x1="52.9" y1="17.1" x2="52" y2="16.7"/>
<line class="st1" x1="51.7" y1="20.8" x2="50.7" y2="20.5"/>
<line class="st1" x1="51" y1="24.6" x2="50.1" y2="24.5"/>
<line class="st1" x1="51.1" y1="28.5" x2="50.1" y2="28.5"/>
<line class="st1" x1="51.7" y1="32.3" x2="50.7" y2="32.5"/>
<line class="st1" x1="52.9" y1="36" x2="52" y2="36.3"/>
<line class="st1" x1="54.7" y1="39.4" x2="53.9" y2="39.9"/>
<line class="st1" x1="57.1" y1="42.5" x2="56.3" y2="43.1"/>
<line class="st1" x1="59.9" y1="45.2" x2="59.2" y2="45.9"/>
<line class="st1" x1="63" y1="47.3" x2="62.5" y2="48.2"/>
<line class="st1" x1="66.6" y1="49" x2="66.2" y2="49.9"/>
<line class="st1" x1="70.3" y1="50" x2="70" y2="51"/>
<line class="st1" x1="74.1" y1="50.5" x2="74" y2="51.5"/>
<line class="st1" x1="78" y1="50.3" x2="78.1" y2="51.3"/>
<line class="st1" x1="81.8" y1="49.5" x2="82" y2="50.5"/>
<line class="st1" x1="85.4" y1="48.2" x2="85.8" y2="49.1"/>
<line class="st1" x1="88.7" y1="46.2" x2="89.3" y2="47.1"/>
<line class="st1" x1="91.7" y1="43.8" x2="92.4" y2="44.5"/>
<line class="st1" x1="94.3" y1="40.8" x2="95" y2="41.5"/>
<line class="st1" x1="96.3" y1="37.6" x2="97.2" y2="38.1"/>
<line class="st1" x1="97.8" y1="34" x2="98.8" y2="34.4"/>
<line class="st1" x1="98.7" y1="30.3" x2="99.7" y2="30.5"/>
<line class="st1" x1="99" y1="26.4" x2="100" y2="26.4"/>
<line class="st1" x1="98.7" y1="22.5" x2="99.7" y2="22.4"/>
<line class="st1" x1="97.8" y1="18.8" x2="98.7" y2="18.5"/>
<line class="st1" x1="96.2" y1="15.2" x2="97.1" y2="14.8"/>
<line class="st1" x1="94.1" y1="12" x2="94.9" y2="11.4"/>
<line class="st1" x1="91.6" y1="9.1" x2="92.3" y2="8.4"/>
<line class="st1" x1="88.5" y1="6.7" x2="89.1" y2="5.9"/>
<g>
	<path d="M85.2,5.7c-0.2,0-0.3,0-0.5-0.1c-0.5-0.3-0.7-0.9-0.4-1.3l0.5-0.9c0.3-0.5,0.9-0.7,1.3-0.4c0.5,0.3,0.7,0.9,0.4,1.3L86,5.2
		C85.9,5.5,85.5,5.7,85.2,5.7z"/>
</g>
<g>
	<path d="M81.6,4.4c-0.1,0-0.2,0-0.3,0c-0.5-0.2-0.8-0.7-0.6-1.3l0.3-1c0.2-0.5,0.7-0.8,1.3-0.6c0.5,0.2,0.8,0.7,0.6,1.3l-0.3,1
		C82.4,4.1,82,4.4,81.6,4.4z"/>
</g>
<g>
	<path d="M77.8,3.6c-0.1,0-0.1,0-0.2,0c-0.5-0.1-0.9-0.6-0.8-1.1l0.2-1c0.1-0.5,0.6-0.9,1.1-0.8s0.9,0.6,0.8,1.1l-0.2,1
		C78.7,3.3,78.2,3.6,77.8,3.6z"/>
</g>
<g>
	<path d="M73.9,3.5c-0.5,0-1-0.4-1-1v-1c0-0.6,0.4-1,1-1l0,0c0.5,0,1,0.4,1,1v1C74.9,3,74.5,3.5,73.9,3.5L73.9,3.5z"/>
</g>
</svg>
