<svg xmlns="http://www.w3.org/2000/svg" viewBox="0 0 120 120"><circle cx="82" cy="48" r="22" style="fill:tomato"/><path d="M115.05,112.09H80.84V99H98.11a5.84,5.84,0,0,0,5.83-5.83V76.39A5.47,5.47,0,0,0,108.45,71a1,1,0,0,0-1-1h-1.24V65.7a1,1,0,0,0-1.9,0v4.36h-2.73V65.7a1,1,0,0,0-1.9,0v4.36H98.48a1,1,0,0,0-1,1,5.47,5.47,0,0,0,4.5,5.37V93.14a3.93,3.93,0,0,1-3.92,3.92H80.84V83.38a4.54,4.54,0,0,0-.4-1.86l0-.06a4.56,4.56,0,0,0-.93-1.33L63.9,64.79a2.76,2.76,0,0,0-3.86,0L44.46,80.13a4.38,4.38,0,0,0-.93,1.33l0,.06a4.54,4.54,0,0,0-.4,1.86v28.71H20V101.26a8.4,8.4,0,0,0,5.86-4.21,20.7,20.7,0,0,0,2.64-10.89,30.29,30.29,0,0,0-2.58-12.4c-1.82-3.86-4.26-6-6.88-6s-5.05,2.13-6.87,6a30.13,30.13,0,0,0-2.58,12.4,20.7,20.7,0,0,0,2.63,10.89,8.42,8.42,0,0,0,5.87,4.21v10.83H3.94a1,1,0,0,0,0,1.91H115.05a1,1,0,0,0,0-1.91ZM99.56,72h6.85a3.56,3.56,0,0,1-6.85,0ZM11.46,86.16c0-8.47,3.66-16.48,7.54-16.48s7.55,8,7.55,16.48c0,7.11-2.72,12.42-6.59,13.17V91.55a1,1,0,1,0-1.91,0v7.78C14.18,98.58,11.46,93.27,11.46,86.16Zm49.91-20a.84.84,0,0,1,1.19,0l15,14.76H46.38ZM45,112.09V83.38a2.6,2.6,0,0,1,.06-.56h33.8a2.6,2.6,0,0,1,.06.56v28.71Z" style="fill:#1a1a1a"/><path d="M69.84,90.59H54.1a1,1,0,0,0-1,1v13a.94.94,0,0,0,1,1H69.84a1,1,0,0,0,1-1v-13A1,1,0,0,0,69.84,90.59ZM55.05,92.5h6v11.07h-6Zm13.83,11.07h-6V92.5h6Z" style="fill:#1a1a1a"/><line x1="84" y1="82" x2="68" y2="66" style="fill:none;stroke:#000;stroke-linecap:round;stroke-miterlimit:10;stroke-width:2px"/><line x1="88" y1="82" x2="72" y2="66" style="fill:none;stroke:#000;stroke-linecap:round;stroke-miterlimit:10;stroke-width:2px"/></svg>