<svg xmlns="http://www.w3.org/2000/svg" viewBox="0 0 120 120"><line x1="60.39" y1="113.62" x2="60.44" y2="110.62" style="fill:none;stroke:#000;stroke-linecap:round;stroke-linejoin:round;stroke-width:2px"/><circle cx="64.07" cy="60" r="24" style="fill:tomato"/><path d="M60.07,38a22,22,0,1,1-22,22,22,22,0,0,1,22-22m0-2a24,24,0,1,0,24,24,24,24,0,0,0-24-24Z"/><line x1="60.07" y1="12" x2="60.07" y2="24" style="fill:none;stroke:#000;stroke-linecap:round;stroke-linejoin:round;stroke-width:2px"/><line x1="60.07" y1="6" x2="60.07" y2="9" style="fill:none;stroke:#000;stroke-linecap:round;stroke-linejoin:round;stroke-width:2px"/><line x1="12.83" y1="60.02" x2="24.83" y2="60.11" style="fill:none;stroke:#000;stroke-linecap:round;stroke-linejoin:round;stroke-width:2px"/><line x1="6.83" y1="59.97" x2="9.83" y2="59.99" style="fill:none;stroke:#000;stroke-linecap:round;stroke-linejoin:round;stroke-width:2px"/><line x1="60.48" y1="107.62" x2="60.66" y2="95.62" style="fill:none;stroke:#000;stroke-linecap:round;stroke-linejoin:round;stroke-width:2px"/><line x1="108.44" y1="60.32" x2="96.45" y2="60.05" style="fill:none;stroke:#000;stroke-linecap:round;stroke-linejoin:round;stroke-width:2px"/><line x1="114.44" y1="60.46" x2="111.44" y2="60.39" style="fill:none;stroke:#000;stroke-linecap:round;stroke-linejoin:round;stroke-width:2px"/><line x1="26.19" y1="26.65" x2="34.74" y2="35.07" style="fill:none;stroke:#000;stroke-linecap:round;stroke-linejoin:round;stroke-width:2px"/><line x1="21.92" y1="22.43" x2="24.06" y2="24.54" style="fill:none;stroke:#000;stroke-linecap:round;stroke-linejoin:round;stroke-width:2px"/><line x1="27.21" y1="94" x2="35.7" y2="85.52" style="fill:none;stroke:#000;stroke-linecap:round;stroke-linejoin:round;stroke-width:2px"/><line x1="22.97" y1="98.24" x2="25.09" y2="96.12" style="fill:none;stroke:#000;stroke-linecap:round;stroke-linejoin:round;stroke-width:2px"/><line x1="94.57" y1="93.48" x2="86.15" y2="84.93" style="fill:none;stroke:#000;stroke-linecap:round;stroke-linejoin:round;stroke-width:2px"/><line x1="98.78" y1="97.76" x2="96.68" y2="95.62" style="fill:none;stroke:#000;stroke-linecap:round;stroke-linejoin:round;stroke-width:2px"/><line x1="94.57" y1="26.13" x2="85.95" y2="34.48" style="fill:none;stroke:#000;stroke-linecap:round;stroke-linejoin:round;stroke-width:2px"/><line x1="98.88" y1="21.95" x2="96.72" y2="24.04" style="fill:none;stroke:#000;stroke-linecap:round;stroke-linejoin:round;stroke-width:2px"/><polygon points="57.91 71.73 67.43 57.27 61.6 57.27 64.7 48.27 55.99 48.27 52.57 60.27 58.57 60.27 57.91 71.73" style="fill:none;stroke:#000;stroke-linecap:round;stroke-linejoin:round;stroke-width:2px"/></svg>