<svg xmlns="http://www.w3.org/2000/svg" xmlns:xlink="http://www.w3.org/1999/xlink" viewBox="0 0 297 96"><defs><linearGradient id="a" x1="41.36" y1="48" x2="53.86" y2="48" gradientUnits="userSpaceOnUse"><stop offset="0" stop-color="#f17788"/><stop offset="0.13" stop-color="#e8788c"/><stop offset="0.36" stop-color="#cf7a97"/><stop offset="0.63" stop-color="#a87fa8"/><stop offset="0.96" stop-color="#7184c0"/><stop offset="1" stop-color="#6985c3"/></linearGradient><linearGradient id="b" x1="13.42" x2="81.8" xlink:href="#a"/><linearGradient id="c" x1="118.9" y1="-48.41" x2="187.28" y2="-48.41" gradientTransform="translate(-105.48 96.41)" xlink:href="#a"/><linearGradient id="d" x1="166.5" y1="-58.9" x2="234.88" y2="-58.9" gradientTransform="translate(-153.08 106.9)" xlink:href="#a"/><linearGradient id="e" x1="335.62" y1="234.02" x2="404" y2="234.02" gradientTransform="matrix(0, -1, -1, 0, 281.63, 417.81)" xlink:href="#a"/><linearGradient id="f" x1="405.83" y1="115.9" x2="472.09" y2="115.9" gradientTransform="matrix(-1.11, -0.06, -0.06, 1, 540.19, -39.88)" xlink:href="#a"/><linearGradient id="g" x1="122.97" y1="159.64" x2="189.24" y2="159.64" gradientTransform="matrix(0.06, 1.11, -1, 0.06, 197.59, -134.09)" xlink:href="#a"/></defs><path d="M47.61,42a6,6,0,1,1-6,6,6,6,0,0,1,6-6" style="fill:none;stroke-miterlimit:10;stroke-width:0.5px;stroke:url(#a)"/><rect x="13.67" y="14.06" width="67.88" height="67.88" rx="2" style="fill:none;stroke-miterlimit:10;stroke-width:0.5px;stroke:url(#b)"/><rect x="13.67" y="14.06" width="67.88" height="67.88" rx="2" transform="translate(-20 47.72) rotate(-45)" style="fill:none;stroke-miterlimit:10;stroke-width:0.5px;stroke:url(#c)"/><rect x="13.67" y="14.06" width="67.88" height="67.88" rx="2" transform="translate(-17.77 65.23) rotate(-60)" style="fill:none;stroke-miterlimit:10;stroke-width:0.5px;stroke:url(#d)"/><rect x="13.67" y="14.06" width="67.88" height="67.88" rx="2" transform="translate(-17.62 30.23) rotate(-30)" style="fill:none;stroke-miterlimit:10;stroke-width:0.5px;stroke:url(#e)"/><rect x="12.99" y="13.39" width="69.23" height="69.23" rx="2" transform="translate(-8.49 10.27) rotate(-11.31)" style="fill:none;stroke-miterlimit:10;stroke-width:0.5px;stroke:url(#f)"/><rect x="12.99" y="13.39" width="69.23" height="69.23" rx="2" transform="translate(-8.8 85.27) rotate(-78.69)" style="fill:none;stroke-miterlimit:10;stroke-width:0.5px;stroke:url(#g)"/><path d="M122.29,32.37,116,41.59h-.48l-6.28-9.34V46.7h-1.68V29.9h2.06l6.14,9.26,6.08-9.26H124V46.7h-1.68Z"/><path d="M137.38,34.84h1.52V46.7h-1.49V44.35a5.43,5.43,0,0,1-4.71,2.59,5.87,5.87,0,0,1-6-6.17,5.85,5.85,0,0,1,6.07-6.09,5.2,5.2,0,0,1,4.65,2.52Zm-9.12,5.93a4.45,4.45,0,0,0,4.52,4.66c6.12,0,6.12-9.29,0-9.29A4.44,4.44,0,0,0,128.26,40.77Z"/><path d="M149.38,34.84h2v.08l-4.15,5.68,4.46,6v.05h-1.92l-3.55-5-3.55,5H140.7v-.05l4.46-6L141,34.92v-.08h1.92l3.24,4.66Z"/><path d="M153.87,41.44a4.25,4.25,0,0,0,4.49,3.94,5.43,5.43,0,0,0,4-1.63l1.08,1a6.66,6.66,0,0,1-5.09,2.21,5.86,5.86,0,0,1-6.15-6.17,5.89,5.89,0,0,1,6.08-6.12c3.53,0,6.36,2.13,5.9,6.81Zm8.81-1.36c-.05-2.6-2-4-4.37-4a4.24,4.24,0,0,0-4.44,4Z"/><path d="M178.06,29.9V46.7H176.5l0-2.37a5.28,5.28,0,0,1-4.66,2.59c-3.36,0-6-2.21-6-6.15s2.62-6.14,6-6.14a5.08,5.08,0,0,1,4.66,2.57V29.9ZM167.43,40.77a4.28,4.28,0,0,0,4.47,4.61,4.4,4.4,0,0,0,4.48-4.63,4.4,4.4,0,0,0-4.48-4.59A4.26,4.26,0,0,0,167.43,40.77Z"/><path d="M123.51,58.35c0,4.39-2.81,8.66-8.49,8.66s-8.52-4.27-8.52-8.69c0-4.72,3.07-8.71,8.52-8.71C120.7,49.64,123.54,53.86,123.51,58.35ZM115,65.43c4.58,0,6.79-3.48,6.81-7.08,0-3.77-2.23-7.13-6.81-7.15s-6.89,3.19-6.84,7.15C108.22,62,110.43,65.43,115,65.43Z"/><path d="M127.47,54.84v6.65a3.55,3.55,0,0,0,3.89,3.87,3.87,3.87,0,0,0,3.89-4.06V54.84h1.58V66.7h-1.49l0-2a4.89,4.89,0,0,1-4.2,2.18c-3.08,0-5.24-2-5.24-5.37V54.84Z"/><path d="M143.1,51.34v3.53h3.84v1.37H143.1v6.69c0,1.49.4,2.48,2,2.48a4.42,4.42,0,0,0,1.73-.46l.5,1.34a5.31,5.31,0,0,1-2.28.58c-2.54,0-3.57-1.46-3.57-3.94V56.24h-2.43V54.87h2.43V51.51Z"/><path d="M165.75,53.36c-1-1.59-3.05-2.12-4.82-2.14-2.07,0-4.73.6-4.73,3.07,0,2,2.16,2.5,4.78,3,3.31.58,6.67,1.32,6.67,4.9,0,3.79-3.67,4.82-6.72,4.82-2.83,0-5.72-1-7-3.71l1.46-.8a6.06,6.06,0,0,0,5.55,2.91c2.06,0,5-.56,5-3.24,0-2.28-2.52-2.86-5.13-3.32-3.17-.55-6.29-1.24-6.29-4.51-.05-3.53,3.55-4.65,6.38-4.65,2.31,0,4.78.62,6.27,2.92Z"/><path d="M181.59,60.8a6.1,6.1,0,1,1-6.09-6.17A5.91,5.91,0,0,1,181.59,60.8ZM171,60.8a4.49,4.49,0,1,0,9,0,4.49,4.49,0,1,0-9,0Z"/><path d="M185.86,49.9V66.7h-1.61V49.9Z"/><path d="M199.26,54.84h1.51V66.7h-1.49V64.35a5.43,5.43,0,0,1-4.7,2.59,6.13,6.13,0,0,1,0-12.26,5.23,5.23,0,0,1,4.66,2.52Zm-9.13,5.93a4.45,4.45,0,0,0,4.52,4.66c6.12,0,6.12-9.29,0-9.29A4.44,4.44,0,0,0,190.13,60.77Z"/><path d="M205.54,54.84l.1,1.95a4,4,0,0,1,3.77-2.14,4.29,4.29,0,0,1,2.69.84l-.75,1.35a3.52,3.52,0,0,0-2-.63A3.67,3.67,0,0,0,205.64,60V66.7H204V54.84Z"/></svg>