<svg xmlns="http://www.w3.org/2000/svg" xmlns:xlink="http://www.w3.org/1999/xlink" viewBox="0 0 249 60"><defs><linearGradient id="a" x1="26.9" y1="30.05" x2="33" y2="30.05" gradientUnits="userSpaceOnUse"><stop offset="0" stop-color="#f17788"/><stop offset="0.13" stop-color="#e8788c"/><stop offset="0.36" stop-color="#cf7a97"/><stop offset="0.63" stop-color="#a87fa8"/><stop offset="0.96" stop-color="#7184c0"/><stop offset="1" stop-color="#6985c3"/></linearGradient><linearGradient id="b" x1="7.45" y1="30.07" x2="52.42" y2="30.07" xlink:href="#a"/><linearGradient id="c" x1="113.7" y1="-66.13" x2="156.89" y2="-66.13" gradientTransform="translate(-18.96 172.48) rotate(-45)" xlink:href="#a"/><linearGradient id="d" x1="161.22" y1="-76.58" x2="204.41" y2="-76.58" gradientTransform="translate(4.86 226.67) rotate(-60)" xlink:href="#a"/><linearGradient id="e" x1="330" y1="215.76" x2="373.19" y2="215.76" gradientTransform="matrix(-0.5, -0.87, -0.87, 0.5, 392.6, 226.67)" xlink:href="#a"/><linearGradient id="f" x1="399.29" y1="97.99" x2="442.03" y2="97.99" gradientTransform="matrix(-1.1, 0.15, 0.14, 0.99, 478.13, -132.11)" xlink:href="#a"/><linearGradient id="g" x1="117.25" y1="141.48" x2="159.75" y2="141.48" gradientTransform="matrix(1.1, 0.15, -0.14, 0.99, -102.28, -132.11)" xlink:href="#a"/></defs><path d="M30,33.1A3.05,3.05,0,1,1,33,30.05,3.06,3.06,0,0,1,30,33.1Zm0-5.87a2.82,2.82,0,1,0,2.82,2.82A2.82,2.82,0,0,0,30,27.23Z" style="fill:url(#a)"/><path d="M51,52.55h-42a1.47,1.47,0,0,1-1.47-1.47v-42A1.47,1.47,0,0,1,8.92,7.58H51a1.47,1.47,0,0,1,1.47,1.48v42A1.47,1.47,0,0,1,51,52.55ZM8.92,7.9A1.16,1.16,0,0,0,7.76,9.06v42a1.16,1.16,0,0,0,1.16,1.16H51a1.16,1.16,0,0,0,1.16-1.16v-42A1.16,1.16,0,0,0,51,7.9Z" style="fill:url(#b)"/><path d="M30,60a1.41,1.41,0,0,1-1-.41L.41,31.06a1.43,1.43,0,0,1,0-2L29,.52a1.44,1.44,0,0,1,2,0L59.48,29.05a1.41,1.41,0,0,1,0,2L31,59.59A1.43,1.43,0,0,1,30,60ZM30,.41a1.11,1.11,0,0,0-.79.33L.63,29.27a1.12,1.12,0,0,0,0,1.57L29.16,59.37a1.16,1.16,0,0,0,1.57,0L59.26,30.84a1.12,1.12,0,0,0,0-1.57L30.73.74A1.09,1.09,0,0,0,30,.41Z" style="fill:url(#c)"/><path d="M37.33,59a1.48,1.48,0,0,1-.71-.19L1.68,38.67a1.43,1.43,0,0,1-.52-1.94L21.34,1.78a1.4,1.4,0,0,1,.86-.66,1.43,1.43,0,0,1,1.07.15l35,20.17a1.43,1.43,0,0,1,.52,1.94L38.56,58.32a1.4,1.4,0,0,1-.86.66A1.57,1.57,0,0,1,37.33,59ZM22.57,1.39a1.36,1.36,0,0,0-.29,0,1.11,1.11,0,0,0-.68.52L1.43,36.88a1.11,1.11,0,0,0,.41,1.52L36.78,58.57a1.07,1.07,0,0,0,.84.11,1.09,1.09,0,0,0,.67-.51L58.47,23.22a1.11,1.11,0,0,0-.41-1.51L23.12,1.53A1.18,1.18,0,0,0,22.57,1.39Z" style="fill:url(#d)"/><path d="M22.57,59A1.57,1.57,0,0,1,22.2,59a1.37,1.37,0,0,1-.86-.66L1.16,23.38a1.42,1.42,0,0,1,.52-1.94L36.62,1.27a1.45,1.45,0,0,1,1.08-.15,1.43,1.43,0,0,1,.86.66L58.74,36.73a1.43,1.43,0,0,1-.52,1.94L23.27,58.84A1.44,1.44,0,0,1,22.57,59ZM1.84,21.71h0a1.1,1.1,0,0,0-.41,1.51l20.17,35a1.14,1.14,0,0,0,.68.51,1.07,1.07,0,0,0,.84-.11L58.06,38.4a1.12,1.12,0,0,0,.41-1.52L38.29,1.94a1.07,1.07,0,0,0-.67-.52,1.16,1.16,0,0,0-.84.11Z" style="fill:url(#e)"/><path d="M13.43,56.28A1.45,1.45,0,0,1,12,55.11L3.75,13.82a1.45,1.45,0,0,1,1.14-1.7L46.18,3.86A1.44,1.44,0,0,1,47.88,5l8.26,41.3A1.44,1.44,0,0,1,55,48l-41.3,8.26A1.33,1.33,0,0,1,13.43,56.28Zm33-52.14-.23,0L5,12.42a1.13,1.13,0,0,0-.89,1.34l8.26,41.29a1.13,1.13,0,0,0,1.33.89L55,47.68a1.14,1.14,0,0,0,.89-1.33L47.58,5.05A1.13,1.13,0,0,0,46.47,4.14Z" style="fill:url(#f)"/><path d="M46.49,56a1.33,1.33,0,0,1-.28,0L5.15,47.74A1.46,1.46,0,0,1,4,46L12.23,5a1.44,1.44,0,0,1,1.69-1.13L55,12.07a1.43,1.43,0,0,1,1.13,1.69L47.9,54.82a1.38,1.38,0,0,1-.61.91A1.45,1.45,0,0,1,46.49,56ZM13.64,4.14a1.12,1.12,0,0,0-1.1.91L4.32,46.1a1.2,1.2,0,0,0,.17.85,1.15,1.15,0,0,0,.72.48l41.06,8.21a1.13,1.13,0,0,0,1.33-.88L55.81,13.7a1.13,1.13,0,0,0-.89-1.33L13.86,4.16Z" style="fill:url(#g)"/><path d="M87.58,22.2,80.36,33.47h-.25L72.82,22.25V39H72V21.15h1.07l7.14,11.07,7-11.07h1.14V39h-.81Z"/><path d="M101.91,39V37.39l.15-1.81a5.77,5.77,0,0,1-5.61,3.57,6.17,6.17,0,0,1-6.37-6.45,6.17,6.17,0,0,1,6.32-6.45c2.32,0,5,1.23,5.66,3.72l-.15-2V26.4h.77V39ZM90.84,32.7a5.44,5.44,0,0,0,5.64,5.71c3.82,0,5.46-2.75,5.46-5.84A5.28,5.28,0,0,0,96.38,27,5.38,5.38,0,0,0,90.84,32.7Z"/><path d="M103.82,39l5-6.5-4.61-6v0h1l4,5.36,4.08-5.36h.94v0l-4.61,6,5,6.5v0h-.91l-4.49-5.94L104.74,39h-.92Z"/><path d="M126.19,36.63a6.79,6.79,0,0,1-5.46,2.47,6.07,6.07,0,0,1-6.27-6.37,6.14,6.14,0,0,1,6.24-6.48c3.4,0,6.76,2,6.28,6.83H115.22a5.33,5.33,0,0,0,5.51,5.28,6.32,6.32,0,0,0,4.87-2.16Zm.1-4.26c.1-3.49-2.12-5.38-5.59-5.38-3,0-5.25,1.94-5.48,5.38Z"/><path d="M139.78,39V37.39l.15-1.81a5.78,5.78,0,0,1-5.61,3.57A6.17,6.17,0,0,1,128,32.7a6.16,6.16,0,0,1,6.32-6.45c2.32,0,5,1.23,5.66,3.72l-.15-2V21.18h.76V39Zm-11.07-6.3a5.44,5.44,0,0,0,5.64,5.71c3.82,0,5.45-2.75,5.45-5.84A5.27,5.27,0,0,0,134.24,27,5.37,5.37,0,0,0,128.71,32.7Z"/><path d="M165.94,30.08c0,4.71-3,9.17-9,9.17s-9-4.51-9-9.23c0-4.35,2.71-9.1,8.93-9.1C163,20.9,165.94,25.38,165.94,30.08Zm-9-8.37c-5.46,0-8.13,4.16-8.11,8.34s2.78,8.41,8.13,8.41,8.19-4.1,8.16-8.38C165.12,25.64,162.32,21.71,156.94,21.71Z"/><path d="M178.51,39h-.76l0-2.86a5.42,5.42,0,0,1-5,3.09c-3.47,0-5.43-2-5.43-5.41V26.4h.76v7.4c0,3.11,1.76,4.72,4.67,4.69a4.92,4.92,0,0,0,4.95-4.92V26.4h.76Z"/><path d="M183.61,22.53V26.4h4.49v.67h-4.49v8.18c0,1.84.28,3.21,2.5,3.21a6,6,0,0,0,2.27-.63l.33.63a6,6,0,0,1-2.55.72c-2.65,0-3.31-1.45-3.31-3.93V27.07h-2.76V26.4h2.76V22.61Z"/><path d="M206.46,24.16c-1.4-1.91-3.83-2.4-5.74-2.4s-5.81.51-5.81,4.06c0,2.42,2.68,3,5.91,3.62s6.91,1.35,6.91,4.94c0,4-4.18,4.85-6.91,4.85-2.57,0-5.81-1.15-7.21-3.75l.71-.41c1.2,2.3,4.26,3.37,6.5,3.37s6.1-.59,6.1-4.06c0-3-3.27-3.51-6.33-4.15s-6.5-1.3-6.5-4.41C194,22,197.89,21,200.75,21A7.77,7.77,0,0,1,207,23.6Z"/><path d="M214.7,26.2a6.26,6.26,0,0,1,6.37,6.53,6.39,6.39,0,1,1-12.77,0A6.21,6.21,0,0,1,214.7,26.2Zm0,.74a5.53,5.53,0,0,0-5.61,5.79,5.63,5.63,0,1,0,11.25,0A5.51,5.51,0,0,0,214.67,26.94Z"/><path d="M224,21.15V39h-.76V21.15Z"/><path d="M238,39V37.39l.16-1.81a5.78,5.78,0,0,1-5.61,3.57,6.18,6.18,0,0,1-6.38-6.45,6.17,6.17,0,0,1,6.33-6.45c2.32,0,5,1.23,5.66,3.72l-.16-2V26.4h.77V39Zm-11.06-6.3a5.43,5.43,0,0,0,5.63,5.71c3.83,0,5.46-2.75,5.46-5.84A5.27,5.27,0,0,0,232.47,27,5.37,5.37,0,0,0,226.94,32.7Z"/><path d="M242.31,26.4v1.38l-.07,1.73a4.71,4.71,0,0,1,4.53-3.21,5.22,5.22,0,0,1,2.45.61l-.33.64a4.44,4.44,0,0,0-2.12-.53,4.5,4.5,0,0,0-4.41,4.46V39h-.79V26.4Z"/></svg>