<svg xmlns="http://www.w3.org/2000/svg" xmlns:xlink="http://www.w3.org/1999/xlink" viewBox="0 0 780 314"><defs><linearGradient id="a" x1="57.66" y1="156.93" x2="265.32" y2="156.93" gradientTransform="translate(4.37 318.49) rotate(-90)" gradientUnits="userSpaceOnUse"><stop offset="0.04" stop-color="#e5593f"/><stop offset="1" stop-color="#ffe771"/></linearGradient><linearGradient id="b" x1="23.49" y1="156.93" x2="299.49" y2="156.93" xlink:href="#a"/><linearGradient id="c" x1="27.94" y1="156.93" x2="295.04" y2="156.93" xlink:href="#a"/><linearGradient id="d" x1="27.94" y1="156.93" x2="295.04" y2="156.93" xlink:href="#a"/><linearGradient id="e" x1="40.54" y1="156.93" x2="282.44" y2="156.93" xlink:href="#a"/><linearGradient id="f" x1="41.22" y1="156.93" x2="281.76" y2="156.93" xlink:href="#a"/></defs><g style="isolation:isolate"><path d="M257.49,260.83H65.12a7.65,7.65,0,0,1-7.64-7.65V60.81a7.65,7.65,0,0,1,7.64-7.64H257.49a7.65,7.65,0,0,1,7.65,7.64V253.18A7.66,7.66,0,0,1,257.49,260.83ZM65.12,56.42a4.4,4.4,0,0,0-4.4,4.39V253.18a4.41,4.41,0,0,0,4.4,4.4H257.49a4.4,4.4,0,0,0,4.4-4.4V60.81a4.4,4.4,0,0,0-4.4-4.39Z" style="mix-blend-mode:multiply;fill:url(#a)"/><path d="M161.28,295a7.39,7.39,0,0,1-5.24-2.16L25.44,162.24a7.59,7.59,0,0,1,0-10.48L156,21.16a7.42,7.42,0,0,1,10.47,0l130.6,130.6a7.41,7.41,0,0,1,0,10.48L166.52,292.84A7.42,7.42,0,0,1,161.28,295Zm0-272.76a4.14,4.14,0,0,0-2.94,1.22L27.74,154.06a4.18,4.18,0,0,0,0,5.88l130.6,130.6a4.16,4.16,0,0,0,5.88,0l130.6-130.6a4.31,4.31,0,0,0,0-5.88L164.22,23.46A4.16,4.16,0,0,0,161.28,22.24Z" style="mix-blend-mode:multiply;fill:url(#b)"/><path d="M195.09,290.55a7.41,7.41,0,0,1-3.69-1l-160-92.34a7.43,7.43,0,0,1-2.71-10.12L121.09,27.15a7.42,7.42,0,0,1,10.12-2.71l160,92.34a7.39,7.39,0,0,1,3.44,4.5,7.55,7.55,0,0,1,.26,1.94,7.33,7.33,0,0,1-1,3.68l-92.35,160A7.42,7.42,0,0,1,195.09,290.55ZM127.51,26.69a4.17,4.17,0,0,0-3.61,2.08l-92.34,160a4.06,4.06,0,0,0-.41,3.15,4.11,4.11,0,0,0,1.93,2.53l160,92.35a4.17,4.17,0,0,0,5.68-1.52l92.34-160a4.1,4.1,0,0,0,.42-3.15,4.17,4.17,0,0,0-1.94-2.54L129.58,27.25A4.08,4.08,0,0,0,127.51,26.69Z" style="mix-blend-mode:multiply;fill:url(#c)"/><path d="M127.52,290.55a7.4,7.4,0,0,1-6.43-3.7l-92.35-160a7.43,7.43,0,0,1,2.71-10.12l160-92.34a7.41,7.41,0,0,1,10.11,2.71l92.35,160a7.33,7.33,0,0,1,1,3.68,7.5,7.5,0,0,1-3.7,6.44l-160,92.34A7.38,7.38,0,0,1,127.52,290.55Zm-3.62-5.32a4.17,4.17,0,0,0,5.68,1.52l160-92.35a4.17,4.17,0,0,0,1.52-5.68L198.71,28.77A4.17,4.17,0,0,0,193,27.25L33.08,119.6a4.17,4.17,0,0,0-1.52,5.68Z" style="mix-blend-mode:multiply;fill:url(#d)"/><path d="M85.68,278a7.55,7.55,0,0,1-7.37-6.06L40.5,82.87A7.55,7.55,0,0,1,46.41,74l189-37.81a7.55,7.55,0,0,1,8.87,5.91l37.8,189a7.43,7.43,0,0,1,.15,1.48A7.56,7.56,0,0,1,276.2,240l-189,37.8A7.46,7.46,0,0,1,85.68,278ZM236.92,39.3a4,4,0,0,0-.84.08l-189,37.8a4.3,4.3,0,0,0-3.45,4.21,4.17,4.17,0,0,0,.09.85l37.8,189a4.31,4.31,0,0,0,5.05,3.36l189-37.81a4.31,4.31,0,0,0,3.37-5l-37.81-189A4.29,4.29,0,0,0,236.92,39.3Z" style="mix-blend-mode:multiply;fill:url(#e)"/><path d="M236.49,277.27a7.43,7.43,0,0,1-1.48-.15L47.07,239.53a7.52,7.52,0,0,1-5.89-8.82l37.59-188a7.52,7.52,0,0,1,8.83-5.88L275.54,74.47a7.51,7.51,0,0,1,6,7.35,8.22,8.22,0,0,1-.14,1.47l-37.59,188a7.54,7.54,0,0,1-7.35,6ZM86.13,40a4.3,4.3,0,0,0-2.36.72A4.2,4.2,0,0,0,82,43.4L44.37,231.34a4.78,4.78,0,0,0-.08.84,4.27,4.27,0,0,0,3.42,4.17l187.94,37.59a4.24,4.24,0,0,0,3.19-.64,4.2,4.2,0,0,0,1.81-2.7L278.24,82.66a4.27,4.27,0,0,0-3.33-5L87,40.06A4.58,4.58,0,0,0,86.13,40Z" style="mix-blend-mode:multiply;fill:url(#f)"/><path d="M405.11,99.64,375,141.56h-3L342.17,99.64v68H328V79h16.46l29.25,41.54L402.83,79h16.46v88.64H405.11Z" style="fill:#444"/><path d="M482.85,105.09h12.66v62.43H483.1l-.63-10.13c-4.18,8-13.8,11.77-21.53,11.77-18.23.13-32-11.65-32-32.92,0-20.9,14.31-32.55,32.29-32.55,8.86,0,17.35,4.18,21.27,11.27ZM442,136.24c0,12.92,9.12,20.77,20.26,20.77,27,0,27-41.41,0-41.41C451.07,115.6,442,123.45,442,136.24Z" style="fill:#444"/><path d="M545.65,105.09h15.83v.37l-21,30.27,22.42,31.41v.38H547.17l-15.32-22.67-15.32,22.67h-15.7v-.38l22.41-31.41-21-30.27v-.37h15.7l13.93,22.28Z" style="fill:#444"/><path d="M575.54,141.18c1.14,9.49,9,15.7,20.38,15.7,6.33,0,14.31-2.41,18.11-6.71l8.49,8.23c-6.46,7.09-17.23,10.63-26.85,10.63C575.16,169,562,156,562,136c0-19,13.29-32.54,32.79-32.54,20.14,0,33.81,12.28,31.41,37.74Zm38.11-11c-.76-9.88-8-15.07-18.49-15.07-9.49,0-17.34,5.19-19.37,15.07Z" style="fill:#444"/><path d="M697.22,79v88.52H684.94l-.76-9.88c-4.94,8-13.3,11.14-21.65,11.14-18.11,0-31.92-11.9-31.92-32.54,0-21.28,13.55-32.55,31.66-32.55,7.6,0,17.86,3.8,21.91,11.15V79Zm-53.56,57.24c0,12.53,8.74,20.39,19.75,20.39s19.88-8.11,19.88-20.39c0-12-9-20.26-19.88-20.26S643.66,123.45,643.66,136.24Z" style="fill:#444"/><path d="M390.45,214c0,16.49-10,31.58-31.23,31.58S328,230.14,328,214.09c0-18.59,13-32,31.4-32C380.25,182.16,390.45,197.51,390.45,214Zm-31.23,22.6c15.18,0,21.55-10.74,21.55-22.43,0-11.25-6.46-22.94-21.38-23.2-14.13,0-21.72,9.86-21.72,23.2C337.85,225,344.13,236.6,359.22,236.6Z" style="fill:#444"/><path d="M404.84,201.26v23c0,7.33,4.19,12.39,11.69,12.39,7.07,0,12-5.84,12-13V201.26h9v43.1h-8.11l-.52-6.37c-4.19,4.8-8.82,7-14.83,7-10.56,0-18.15-7.59-18.15-20.59V201.26Z" style="fill:#444"/><path d="M460.07,188.87v12.48h12.56v7.76H460v20.51c0,4.53,2,7.06,6.19,7.06a13,13,0,0,0,5.5-1.48l2.62,7.68a20.38,20.38,0,0,1-8.64,1.92c-9.34.26-14.66-5.06-14.66-15.18V209.11H442.7v-7.76H451V189.83Z" style="fill:#444"/><path d="M534.48,196.73c-2.88-4.19-8.72-6.72-15.09-6.81-8.2,0-14.14,3.4-14.14,9.25s6.81,7.59,14.84,8.72c12.56,1.75,24.51,5.24,24.51,18.93S532,245.67,519.3,245.67c-11.69,0-20.68-3.58-26.26-13.87l7.33-4.89c4.36,7.42,12,10,19,10,7.32,0,15.44-2.45,15.44-10.13,0-6.63-7.07-8.89-15.62-10-12.12-1.66-23.64-4.71-23.64-17.79-.09-12.66,12.56-17.54,23.56-17.54,8.81,0,17.62,2.09,22.77,10.29Z" style="fill:#444"/><path d="M592.32,222.81c0,12.74-8.81,22.34-22.34,22.34s-22.16-9.6-22.16-22.34,8.82-22.42,22.16-22.42S592.32,210.16,592.32,222.81Zm-35.51,0c0,7.68,5,14,13.17,14s13.26-6.28,13.26-14-5.4-14.13-13.26-14.13C561.78,208.68,556.81,215.22,556.81,222.81Z" style="fill:#444"/><path d="M607.67,183.29v61h-9v-61Z" style="fill:#444"/><path d="M651.29,201.26H660v43h-8.55l-.43-7c-2.88,5.5-9.51,8.12-14.83,8.12-12.57.09-22.08-8-22.08-22.69,0-14.39,9.86-22.42,22.25-22.42,6.11,0,12,2.88,14.66,7.77Zm-28.18,21.46c0,8.9,6.28,14.31,14,14.31,18.58,0,18.58-28.53,0-28.53C629.39,208.5,623.11,213.91,623.11,222.72Z" style="fill:#444"/><path d="M677.11,201.26l.61,5.67c3.14-5.49,8-6.63,12.65-6.63A16.48,16.48,0,0,1,701,204l-4.1,7.85a11,11,0,0,0-7.59-2.62c-6.19,0-11.6,3.84-11.6,11.78v23.29h-9v-43Z" style="fill:#444"/></g></svg>