<svg xmlns="http://www.w3.org/2000/svg" xmlns:xlink="http://www.w3.org/1999/xlink" viewBox="0 0 189 60"><defs><linearGradient id="a" x1="26.9" y1="30.05" x2="33" y2="30.05" gradientUnits="userSpaceOnUse"><stop offset="0" stop-color="#f17788"/><stop offset="0.13" stop-color="#e8788c"/><stop offset="0.36" stop-color="#cf7a97"/><stop offset="0.63" stop-color="#a87fa8"/><stop offset="0.96" stop-color="#7184c0"/><stop offset="1" stop-color="#6985c3"/></linearGradient><linearGradient id="b" x1="7.45" y1="30.07" x2="52.42" y2="30.07" xlink:href="#a"/><linearGradient id="c" x1="109.46" y1="-67.89" x2="152.65" y2="-67.89" gradientTransform="translate(-14.71 170.73) rotate(-45)" xlink:href="#a"/><linearGradient id="d" x1="156.03" y1="-79.58" x2="199.21" y2="-79.58" gradientTransform="translate(10.05 223.67) rotate(-60)" xlink:href="#a"/><linearGradient id="e" x1="324.81" y1="212.76" x2="367.99" y2="212.76" gradientTransform="matrix(-0.5, -0.87, -0.87, 0.5, 387.4, 223.67)" xlink:href="#a"/><linearGradient id="f" x1="400.04" y1="97.91" x2="442.78" y2="97.91" gradientTransform="matrix(-1.1, 0.15, 0.14, 0.99, 478.97, -132.14)" xlink:href="#a"/><linearGradient id="g" x1="118" y1="141.4" x2="160.5" y2="141.4" gradientTransform="matrix(1.1, 0.15, -0.14, 0.99, -103.12, -132.14)" xlink:href="#a"/></defs><path d="M30,33.1A3.05,3.05,0,1,1,33,30.05,3.06,3.06,0,0,1,30,33.1Zm0-5.87a2.82,2.82,0,1,0,2.82,2.82A2.82,2.82,0,0,0,30,27.23Z" style="fill:url(#a)"/><path d="M51,52.55h-42a1.47,1.47,0,0,1-1.47-1.47v-42A1.47,1.47,0,0,1,8.92,7.58H51a1.47,1.47,0,0,1,1.47,1.48v42A1.47,1.47,0,0,1,51,52.55ZM8.92,7.9A1.16,1.16,0,0,0,7.76,9.06v42a1.16,1.16,0,0,0,1.16,1.16H51a1.16,1.16,0,0,0,1.16-1.16v-42A1.16,1.16,0,0,0,51,7.9Z" style="fill:url(#b)"/><path d="M30,60a1.41,1.41,0,0,1-1-.41L.41,31.06a1.43,1.43,0,0,1,0-2L29,.52a1.44,1.44,0,0,1,2,0L59.48,29.05a1.41,1.41,0,0,1,0,2L31,59.59A1.43,1.43,0,0,1,30,60ZM30,.41a1.11,1.11,0,0,0-.79.33L.63,29.27a1.12,1.12,0,0,0,0,1.57L29.16,59.37a1.16,1.16,0,0,0,1.57,0L59.26,30.84a1.12,1.12,0,0,0,0-1.57L30.73.74A1.09,1.09,0,0,0,30,.41Z" style="fill:url(#c)"/><path d="M37.33,59a1.48,1.48,0,0,1-.71-.19L1.68,38.67a1.43,1.43,0,0,1-.52-1.94L21.34,1.78a1.4,1.4,0,0,1,.86-.66,1.43,1.43,0,0,1,1.07.15l35,20.17a1.43,1.43,0,0,1,.52,1.94L38.56,58.32a1.4,1.4,0,0,1-.86.66A1.57,1.57,0,0,1,37.33,59ZM22.57,1.39a1.36,1.36,0,0,0-.29,0,1.11,1.11,0,0,0-.68.52L1.43,36.88a1.11,1.11,0,0,0,.41,1.52L36.78,58.57a1.07,1.07,0,0,0,.84.11,1.09,1.09,0,0,0,.67-.51L58.47,23.22a1.11,1.11,0,0,0-.41-1.51L23.12,1.53A1.18,1.18,0,0,0,22.57,1.39Z" style="fill:url(#d)"/><path d="M22.57,59A1.57,1.57,0,0,1,22.2,59a1.37,1.37,0,0,1-.86-.66L1.16,23.38a1.42,1.42,0,0,1,.52-1.94L36.62,1.27a1.45,1.45,0,0,1,1.08-.15,1.43,1.43,0,0,1,.86.66L58.74,36.73a1.43,1.43,0,0,1-.52,1.94L23.27,58.84A1.44,1.44,0,0,1,22.57,59ZM1.84,21.71h0a1.1,1.1,0,0,0-.41,1.51l20.17,35a1.14,1.14,0,0,0,.68.51,1.07,1.07,0,0,0,.84-.11L58.06,38.4a1.12,1.12,0,0,0,.41-1.52L38.29,1.94a1.07,1.07,0,0,0-.67-.52,1.16,1.16,0,0,0-.84.11Z" style="fill:url(#e)"/><path d="M13.43,56.28A1.45,1.45,0,0,1,12,55.11L3.75,13.82a1.45,1.45,0,0,1,1.14-1.7L46.18,3.86A1.44,1.44,0,0,1,47.88,5l8.26,41.3A1.44,1.44,0,0,1,55,48l-41.3,8.26A1.33,1.33,0,0,1,13.43,56.28Zm33-52.14-.23,0L5,12.42a1.13,1.13,0,0,0-.89,1.34l8.26,41.29a1.13,1.13,0,0,0,1.33.89L55,47.68a1.14,1.14,0,0,0,.89-1.33L47.58,5.05A1.13,1.13,0,0,0,46.47,4.14Z" style="fill:url(#f)"/><path d="M46.49,56a1.33,1.33,0,0,1-.28,0L5.15,47.74A1.46,1.46,0,0,1,4,46L12.23,5a1.44,1.44,0,0,1,1.69-1.13L55,12.07a1.43,1.43,0,0,1,1.13,1.69L47.9,54.82a1.38,1.38,0,0,1-.61.91A1.45,1.45,0,0,1,46.49,56ZM13.64,4.14a1.12,1.12,0,0,0-1.1.91L4.32,46.1a1.2,1.2,0,0,0,.17.85,1.15,1.15,0,0,0,.72.48l41.06,8.21a1.13,1.13,0,0,0,1.33-.88L55.81,13.7a1.13,1.13,0,0,0-.89-1.33L13.86,4.16Z" style="fill:url(#g)"/><path d="M82.2,24.83l-4.73,7.38h-.16l-4.78-7.34v11H72V24.15h.7l4.67,7.24L82,24.15h.75V35.83H82.2Z" style="fill:#4d4d4d"/><path d="M91.58,35.83v-1l.1-1.18A3.79,3.79,0,0,1,88,35.93a4,4,0,0,1-4.18-4.22A4,4,0,0,1,88,27.49a3.73,3.73,0,0,1,3.71,2.43l-.1-1.33v-1h.5v8.24Zm-7.25-4.12A3.57,3.57,0,0,0,88,35.45c2.51,0,3.57-1.8,3.57-3.82A3.45,3.45,0,0,0,88,28,3.52,3.52,0,0,0,84.33,31.71Z" style="fill:#4d4d4d"/><path d="M92.83,35.8l3.27-4.26-3-3.93v0h.63l2.66,3.5L99,27.59h.62v0l-3,3.93,3.27,4.26v0h-.6l-2.94-3.89-2.94,3.89h-.6Z" style="fill:#4d4d4d"/><path d="M107.47,34.28a4.44,4.44,0,0,1-3.57,1.62,4,4,0,0,1-4.11-4.17,4,4,0,0,1,4.09-4.24c2.22,0,4.42,1.28,4.11,4.47h-7.7a3.49,3.49,0,0,0,3.61,3.46A4.12,4.12,0,0,0,107.08,34Zm.06-2.79c.07-2.28-1.38-3.52-3.65-3.52a3.48,3.48,0,0,0-3.59,3.52Z" style="fill:#4d4d4d"/><path d="M116.36,35.83v-1l.1-1.18a3.77,3.77,0,0,1-3.67,2.33,4,4,0,0,1-4.17-4.22,4,4,0,0,1,4.14-4.22,3.72,3.72,0,0,1,3.7,2.43l-.1-1.33V24.17h.5V35.83Zm-7.24-4.12a3.57,3.57,0,0,0,3.69,3.74c2.5,0,3.57-1.8,3.57-3.82A3.45,3.45,0,0,0,112.74,28,3.52,3.52,0,0,0,109.12,31.71Z" style="fill:#4d4d4d"/><path d="M133.49,30c0,3.09-2,6-5.88,6s-5.85-3-5.85-6c0-2.86,1.76-6,5.84-6S133.49,26.92,133.49,30Zm-5.89-5.47A5.14,5.14,0,0,0,122.29,30,5.33,5.33,0,1,0,133,30,5.14,5.14,0,0,0,127.6,24.52Z" style="fill:#4d4d4d"/><path d="M141.72,35.83h-.5V34A3.51,3.51,0,0,1,138,36a3.24,3.24,0,0,1-3.56-3.53V27.59h.5v4.84A2.77,2.77,0,0,0,138,35.5a3.22,3.22,0,0,0,3.24-3.22V27.59h.5Z" style="fill:#4d4d4d"/><path d="M145.06,25.05v2.54H148V28h-2.93v5.36c0,1.2.18,2.1,1.63,2.1a4.07,4.07,0,0,0,1.49-.41l.21.41a3.87,3.87,0,0,1-1.67.47c-1.73,0-2.16-1-2.16-2.57V28h-1.81v-.43h1.81V25.1Z" style="fill:#4d4d4d"/><path d="M160,26.12a4.54,4.54,0,0,0-3.75-1.57c-1.34,0-3.81.33-3.81,2.65,0,1.59,1.75,2,3.87,2.37s4.53.89,4.53,3.24c0,2.64-2.74,3.17-4.53,3.17a5.42,5.42,0,0,1-4.72-2.45l.47-.27a4.92,4.92,0,0,0,4.25,2.21c1.44,0,4-.39,4-2.66,0-2-2.14-2.3-4.14-2.72s-4.25-.85-4.25-2.89c-.07-2.48,2.48-3.17,4.35-3.17a5.11,5.11,0,0,1,4.11,1.72Z" style="fill:#4d4d4d"/><path d="M165.4,27.46a4.09,4.09,0,0,1,4.17,4.27,4.18,4.18,0,1,1-8.36,0A4.07,4.07,0,0,1,165.4,27.46Zm0,.48a3.62,3.62,0,0,0-3.68,3.79,3.68,3.68,0,1,0,7.36,0A3.59,3.59,0,0,0,165.39,27.94Z" style="fill:#4d4d4d"/><path d="M171.49,24.15V35.83H171V24.15Z" style="fill:#4d4d4d"/><path d="M180.66,35.83v-1l.1-1.18a3.79,3.79,0,0,1-3.67,2.33,4,4,0,0,1-4.18-4.22,4,4,0,0,1,4.14-4.22,3.73,3.73,0,0,1,3.71,2.43l-.1-1.33v-1h.5v8.24Zm-7.25-4.12a3.57,3.57,0,0,0,3.69,3.74c2.51,0,3.57-1.8,3.57-3.82A3.45,3.45,0,0,0,177,28,3.52,3.52,0,0,0,173.41,31.71Z" style="fill:#4d4d4d"/><path d="M183.48,27.59v.9l0,1.13a3.09,3.09,0,0,1,3-2.1,3.44,3.44,0,0,1,1.6.4l-.22.42A2.89,2.89,0,0,0,186.4,28a3,3,0,0,0-2.89,2.92v4.92H183V27.59Z" style="fill:#4d4d4d"/></svg>