<svg xmlns="http://www.w3.org/2000/svg" xmlns:xlink="http://www.w3.org/1999/xlink" viewBox="0 0 222 120"><defs><linearGradient id="a" x1="41.75" y1="60" x2="54.25" y2="60" gradientUnits="userSpaceOnUse"><stop offset="0" stop-color="#f17788"/><stop offset="0.13" stop-color="#e8788c"/><stop offset="0.36" stop-color="#cf7a97"/><stop offset="0.63" stop-color="#a87fa8"/><stop offset="0.96" stop-color="#7184c0"/><stop offset="1" stop-color="#6985c3"/></linearGradient><linearGradient id="b" x1="13.81" x2="82.19" xlink:href="#a"/><linearGradient id="c" x1="115.66" y1="-27.65" x2="184.05" y2="-27.65" gradientTransform="translate(-101.85 87.65)" xlink:href="#a"/><linearGradient id="d" x1="160.7" y1="-36.17" x2="229.08" y2="-36.17" gradientTransform="translate(-146.89 96.17)" xlink:href="#a"/><linearGradient id="e" x1="317.42" y1="235.29" x2="385.81" y2="235.29" gradientTransform="matrix(0, -1, -1, 0, 283.29, 411.62)" xlink:href="#a"/><linearGradient id="f" x1="382.76" y1="129.61" x2="449.02" y2="129.61" gradientTransform="matrix(-1.11, -0.06, -0.06, 1, 515.85, -43.11)" xlink:href="#a"/><linearGradient id="g" x1="122.04" y1="169.93" x2="188.31" y2="169.93" gradientTransform="matrix(0.06, 1.11, -1, 0.06, 208.35, -121.66)" xlink:href="#a"/></defs><path d="M48,54a6,6,0,1,1-6,6,6,6,0,0,1,6-6" style="fill:none;stroke-miterlimit:10;stroke-width:0.5px;stroke:url(#a)"/><rect x="14.06" y="26.06" width="67.88" height="67.88" rx="2" style="fill:none;stroke-miterlimit:10;stroke-width:0.5px;stroke:url(#b)"/><rect x="14.06" y="26.06" width="67.88" height="67.88" rx="2" transform="translate(-28.37 51.51) rotate(-45)" style="fill:none;stroke-miterlimit:10;stroke-width:0.5px;stroke:url(#c)"/><rect x="14.06" y="26.06" width="67.88" height="67.88" rx="2" transform="matrix(0.5, -0.87, 0.87, 0.5, -27.96, 71.57)" style="fill:none;stroke-miterlimit:10;stroke-width:0.5px;stroke:url(#d)"/><rect x="14.06" y="26.06" width="67.88" height="67.88" rx="2" transform="translate(-23.57 32.04) rotate(-30)" style="fill:none;stroke-miterlimit:10;stroke-width:0.5px;stroke:url(#e)"/><rect x="13.39" y="25.39" width="69.23" height="69.23" rx="2" transform="translate(-10.83 10.58) rotate(-11.31)" style="fill:none;stroke-miterlimit:10;stroke-width:0.5px;stroke:url(#f)"/><rect x="13.39" y="25.39" width="69.23" height="69.23" rx="2" transform="matrix(0.2, -0.98, 0.98, 0.2, -20.25, 95.3)" style="fill:none;stroke-miterlimit:10;stroke-width:0.5px;stroke:url(#g)"/><path d="M116.84,54.09h-.46L109.92,45V59.69h-2.19V41.88h2.64L116.63,51l6.22-9.16h2.64V59.69H123.3V45.08Z" style="fill:#444"/><path d="M139.57,59.75l0-2.29A5.34,5.34,0,0,1,134.88,60a6.21,6.21,0,0,1-6.44-6.59,6.16,6.16,0,0,1,6.47-6.49,5.28,5.28,0,0,1,4.66,2.49l0-2.29h2V59.69h-2ZM135,48.9a4.6,4.6,0,0,0,0,9.19c6.06,0,6.06-9.21,0-9.21Z" style="fill:#444"/><path d="M148,53.26l-4.23-6.06v-.08h2.32l3.26,4.76,3.2-4.76h2.4v.08l-4.28,6.06,4.61,6.38v0h-2.39l-3.54-5.09-3.57,5.09h-2.31v0Z" style="fill:#444"/><path d="M167.8,57.68a7.22,7.22,0,0,1-5.42,2.24,6.24,6.24,0,0,1-6.62-6.56,6.29,6.29,0,0,1,6.52-6.52c3.84,0,6.77,2.37,6.28,7.38H157.87A4.26,4.26,0,0,0,162.43,58a5.5,5.5,0,0,0,4-1.58l1.4,1.27Zm-1.22-5.19c-.1-2.44-1.78-3.77-4.25-3.77a4.3,4.3,0,0,0-4.46,3.75h8.71Z" style="fill:#444"/><path d="M183.33,41.85V59.67h-2l-.1-2.29a5.33,5.33,0,0,1-4.71,2.54c-3.59,0-6.37-2.36-6.37-6.51s2.78-6.52,6.34-6.52a5.32,5.32,0,0,1,4.71,2.52V41.88h2.06Zm-6.62,7a4.24,4.24,0,0,0-4.43,4.55,4.28,4.28,0,0,0,4.43,4.56,4.56,4.56,0,0,0,0-9.11Z" style="fill:#444"/><path d="M125.25,75c0,4.45-2.79,8.8-8.62,8.8S108,79.5,108,75c0-4.93,3.3-8.84,8.67-8.84C122.41,66.21,125.28,70.54,125.25,75Zm-8.6-6.9c-4.32,0-6.56,3.18-6.56,6.9,0,3.45,2.09,6.81,6.56,6.81s6.49-3.45,6.49-6.81S121.1,68.18,116.65,68.13Z" style="fill:#444"/><path d="M137,83.49l-.09-1.92a5,5,0,0,1-4.18,2.11c-3.06,0-5.23-2.06-5.23-5.56V71.48h2v6.61a3.41,3.41,0,0,0,3.64,3.75,3.73,3.73,0,0,0,3.69-3.92V71.48h2v12H137Z" style="fill:#444"/><path d="M145.36,71.51h3.71v1.7h-3.74v6.34c0,1.41.46,2.31,1.9,2.31a3.85,3.85,0,0,0,1.67-.44l.59,1.66a6.06,6.06,0,0,1-2.34.58c-2.57,0-3.79-1.46-3.79-4.11V73.21H141v-1.7h2.4V68.2l2-.21Z" style="fill:#444"/><path d="M168.93,68c-2.16,0-4.47.85-4.47,2.92,0,1.84,2.11,2.38,4.62,2.79,3.4.53,6.75,1.22,6.75,5s-3.67,5.06-6.92,5.06c-3,0-5.88-1.09-7.2-3.94l1.75-1a6.18,6.18,0,0,0,5.47,3c2.07,0,4.81-.66,4.81-3.16,0-2.11-2.35-2.72-4.91-3.11-3.28-.51-6.46-1.26-6.46-4.71s3.57-4.77,6.51-4.77c2.53,0,4.93.51,6.44,3.09l-1.6,1A5.63,5.63,0,0,0,168.93,68Z" style="fill:#444"/><path d="M183.71,71.22a6.25,6.25,0,1,1-6.22,6.29A6,6,0,0,1,183.71,71.22Zm0,1.82a4.18,4.18,0,0,0-4.25,4.47,4.12,4.12,0,0,0,4.23,4.33A4.17,4.17,0,0,0,188,77.51,4.21,4.21,0,0,0,183.73,73Z" style="fill:#444"/><path d="M194.48,83.49h-2v-17h2Z" style="fill:#444"/><path d="M207.65,83.54l-.05-2.19a5.09,5.09,0,0,1-4.42,2.43,6.25,6.25,0,0,1,0-12.49,5.05,5.05,0,0,1,4.45,2.38l0-2.19h2v12H207.7Zm-4.38-10.35a4.39,4.39,0,0,0,0,8.77c5.79,0,5.79-8.8,0-8.8Z" style="fill:#444"/><path d="M214.65,71.46l.15,1.8a3.87,3.87,0,0,1,3.69-2,4.54,4.54,0,0,1,2.79.89l-.9,1.71a3.55,3.55,0,0,0-5.61,2.94v6.68h-2v-12h1.84Z" style="fill:#444"/></svg>