<svg xmlns="http://www.w3.org/2000/svg" xmlns:xlink="http://www.w3.org/1999/xlink" viewBox="0 0 300 96"><defs><linearGradient id="a" x1="41.44" y1="48" x2="54.66" y2="48" gradientUnits="userSpaceOnUse"><stop offset="0" stop-color="#f17788"/><stop offset="0.13" stop-color="#e8788c"/><stop offset="0.36" stop-color="#cf7a97"/><stop offset="0.63" stop-color="#a87fa8"/><stop offset="0.96" stop-color="#7184c0"/><stop offset="1" stop-color="#6985c3"/></linearGradient><linearGradient id="b" x1="11.8" y1="48.03" x2="84.25" y2="48.03" xlink:href="#a"/><linearGradient id="c" x1="113.34" y1="-35.37" x2="182.92" y2="-35.37" gradientTransform="translate(-100.08 83.37)" xlink:href="#a"/><linearGradient id="d" x1="157.13" y1="-42.93" x2="226.7" y2="-42.93" gradientTransform="translate(-143.86 90.93)" xlink:href="#a"/><linearGradient id="e" x1="307.8" y1="218.05" x2="377.38" y2="218.05" gradientTransform="matrix(0, -1, -1, 0, 266.1, 390.59)" xlink:href="#a"/><linearGradient id="f" x1="370.03" y1="118.44" x2="438.94" y2="118.44" gradientTransform="matrix(-1.11, -0.06, -0.06, 1, 502.63, -44.66)" xlink:href="#a"/><linearGradient id="g" x1="120.46" y1="156.83" x2="188.98" y2="156.83" gradientTransform="matrix(0.06, 1.11, -1, 0.06, 195.49, -132.63)" xlink:href="#a"/></defs><path d="M48.05,41.64A6.36,6.36,0,1,1,41.69,48a6.36,6.36,0,0,1,6.36-6.36" style="fill:none;stroke-miterlimit:10;stroke-width:0.5px;stroke:url(#a)"/><rect x="12.05" y="12.05" width="71.95" height="71.95" rx="2.12" style="fill:none;stroke-miterlimit:10;stroke-width:0.5px;stroke:url(#b)"/><rect x="13.51" y="13.46" width="69.08" height="69.08" rx="2.04" transform="translate(-19.87 48.04) rotate(-45)" style="fill:none;stroke-miterlimit:10;stroke-width:0.5px;stroke:url(#c)"/><rect x="13.51" y="13.46" width="69.08" height="69.08" rx="2.04" transform="translate(-17.54 65.61) rotate(-60)" style="fill:none;stroke-miterlimit:10;stroke-width:0.5px;stroke:url(#d)"/><rect x="13.51" y="13.46" width="69.08" height="69.08" rx="2.04" transform="translate(-17.56 30.46) rotate(-30)" style="fill:none;stroke-miterlimit:10;stroke-width:0.5px;stroke:url(#e)"/><rect x="12.05" y="11.99" width="72.01" height="72.01" rx="2.08" transform="translate(-8.48 10.36) rotate(-11.31)" style="fill:none;stroke-miterlimit:10;stroke-width:0.5px;stroke:url(#f)"/><rect x="12.44" y="11.96" width="71.6" height="71.6" rx="2.07" transform="translate(-8.05 85.7) rotate(-78.69)" style="fill:none;stroke-miterlimit:10;stroke-width:0.5px;stroke:url(#g)"/><path d="M117.11,48.31h-.46l-6.46-9.07V53.91H108V36.09h2.65l6.26,9.16,6.21-9.16h2.65V53.91h-2.19V39.3Z" style="fill:#444"/><path d="M139.84,54l-.05-2.29a5.31,5.31,0,0,1-4.63,2.54,6.21,6.21,0,0,1-6.44-6.59,6.16,6.16,0,0,1,6.46-6.49,5.27,5.27,0,0,1,4.66,2.49l0-2.29h2V53.91h-2Zm-4.58-10.85a4.6,4.6,0,0,0,0,9.19c6.06,0,6.06-9.21,0-9.21Z" style="fill:#444"/><path d="M148.24,47.47,144,41.41v-.08h2.31l3.26,4.76,3.21-4.76h2.39v.08l-4.28,6.06,4.61,6.38v.06h-2.39l-3.54-5.1L146,53.91h-2.32v-.06Z" style="fill:#444"/><path d="M168.07,51.89a7.22,7.22,0,0,1-5.42,2.24A6.24,6.24,0,0,1,156,47.57a6.29,6.29,0,0,1,6.52-6.52c3.84,0,6.77,2.37,6.29,7.38H158.15a4.25,4.25,0,0,0,4.55,3.77,5.5,5.5,0,0,0,4-1.58l1.4,1.27Zm-1.22-5.19c-.1-2.44-1.78-3.76-4.25-3.76a4.28,4.28,0,0,0-4.45,3.74h8.7Z" style="fill:#444"/><path d="M183.6,36.06V53.88h-2l-.1-2.29a5.33,5.33,0,0,1-4.71,2.54c-3.59,0-6.36-2.36-6.36-6.51s2.77-6.52,6.34-6.52a5.3,5.3,0,0,1,4.7,2.52V36.09h2.07ZM177,43a4.23,4.23,0,0,0-4.42,4.55A4.27,4.27,0,0,0,177,52.15,4.56,4.56,0,0,0,177,43Z" style="fill:#444"/><path d="M209.74,45.41c0,4.45-2.8,8.8-8.63,8.8s-8.65-4.32-8.65-8.8c0-4.93,3.3-8.84,8.67-8.84C206.89,36.59,209.76,40.92,209.74,45.41Zm-8.61-6.9c-4.32,0-6.56,3.19-6.56,6.9,0,3.46,2.09,6.81,6.56,6.81s6.49-3.45,6.49-6.81S205.58,38.56,201.13,38.51Z" style="fill:#444"/><path d="M221.48,53.87l-.1-1.92a5,5,0,0,1-4.18,2.12c-3.06,0-5.22-2.07-5.22-5.57V41.87h2v6.61a3.41,3.41,0,0,0,3.64,3.74,3.73,3.73,0,0,0,3.7-3.91V41.87h2v12h-1.82Z" style="fill:#444"/><path d="M229.84,41.89h3.72v1.7h-3.74v6.34c0,1.41.46,2.31,1.89,2.31a4,4,0,0,0,1.68-.43l.58,1.65a5.88,5.88,0,0,1-2.33.58c-2.58.05-3.79-1.46-3.79-4.11V43.59h-2.41v-1.7h2.41v-3.3l2-.22Z" style="fill:#444"/><path d="M247.65,38.39c-2.16,0-4.47.85-4.47,2.92,0,1.84,2.11,2.38,4.61,2.79,3.41.54,6.76,1.22,6.76,5.06s-3.67,5.05-6.93,5.05c-3,0-5.88-1.09-7.19-3.94l1.75-1a6.17,6.17,0,0,0,5.47,3c2.06,0,4.81-.65,4.81-3.16,0-2.11-2.36-2.72-4.91-3.11-3.28-.51-6.46-1.26-6.46-4.71s3.57-4.76,6.51-4.76c2.53,0,4.93.51,6.44,3.08l-1.61,1C251.51,39.1,249.54,38.42,247.65,38.39Z" style="fill:#444"/><path d="M262.43,41.6a6,6,0,0,1,6.24,6.29,6.24,6.24,0,0,1-12.47,0A6,6,0,0,1,262.43,41.6Zm0,1.82a4.18,4.18,0,0,0-4.25,4.47,4.25,4.25,0,1,0,8.5,0A4.21,4.21,0,0,0,262.45,43.42Z" style="fill:#444"/><path d="M273.19,53.87h-2v-17h2Z" style="fill:#444"/><path d="M286.36,53.92l0-2.19a5.09,5.09,0,0,1-4.43,2.43,5.92,5.92,0,0,1-6.14-6.29,5.88,5.88,0,0,1,6.17-6.2,5,5,0,0,1,4.44,2.38l0-2.18h1.94v12h-1.92ZM282,43.57a4.39,4.39,0,0,0,0,8.77c5.78,0,5.78-8.8,0-8.8Z" style="fill:#444"/><path d="M293.37,41.84l.14,1.8a3.91,3.91,0,0,1,3.7-2,4.48,4.48,0,0,1,2.79.9l-.9,1.7a3.55,3.55,0,0,0-5.61,2.94v6.68h-2v-12h1.84Z" style="fill:#444"/></svg>