<svg xmlns="http://www.w3.org/2000/svg" xmlns:xlink="http://www.w3.org/1999/xlink" viewBox="0 0 219 60"><defs><linearGradient id="a" x1="26.9" y1="30.05" x2="33" y2="30.05" gradientUnits="userSpaceOnUse"><stop offset="0" stop-color="#f17788"/><stop offset="0.13" stop-color="#e8788c"/><stop offset="0.36" stop-color="#cf7a97"/><stop offset="0.63" stop-color="#a87fa8"/><stop offset="0.96" stop-color="#7184c0"/><stop offset="1" stop-color="#6985c3"/></linearGradient><linearGradient id="b" x1="7.45" y1="30.07" x2="52.42" y2="30.07" xlink:href="#a"/><linearGradient id="c" x1="113.7" y1="-66.13" x2="156.89" y2="-66.13" gradientTransform="translate(-18.96 172.48) rotate(-45)" xlink:href="#a"/><linearGradient id="d" x1="161.22" y1="-76.58" x2="204.41" y2="-76.58" gradientTransform="translate(4.86 226.67) rotate(-60)" xlink:href="#a"/><linearGradient id="e" x1="330" y1="215.76" x2="373.19" y2="215.76" gradientTransform="matrix(-0.5, -0.87, -0.87, 0.5, 392.6, 226.67)" xlink:href="#a"/><linearGradient id="f" x1="399.29" y1="97.99" x2="442.03" y2="97.99" gradientTransform="matrix(-1.1, 0.15, 0.14, 0.99, 478.13, -132.11)" xlink:href="#a"/><linearGradient id="g" x1="117.25" y1="141.48" x2="159.75" y2="141.48" gradientTransform="matrix(1.1, 0.15, -0.14, 0.99, -102.28, -132.11)" xlink:href="#a"/></defs><path d="M30,33.1A3.05,3.05,0,1,1,33,30.05,3.06,3.06,0,0,1,30,33.1Zm0-5.87a2.82,2.82,0,1,0,2.82,2.82A2.82,2.82,0,0,0,30,27.23Z" style="fill:url(#a)"/><path d="M51,52.55h-42a1.47,1.47,0,0,1-1.47-1.47v-42A1.47,1.47,0,0,1,8.92,7.58H51a1.47,1.47,0,0,1,1.47,1.48v42A1.47,1.47,0,0,1,51,52.55ZM8.92,7.9A1.16,1.16,0,0,0,7.76,9.06v42a1.16,1.16,0,0,0,1.16,1.16H51a1.16,1.16,0,0,0,1.16-1.16v-42A1.16,1.16,0,0,0,51,7.9Z" style="fill:url(#b)"/><path d="M30,60a1.41,1.41,0,0,1-1-.41L.41,31.06a1.43,1.43,0,0,1,0-2L29,.52a1.44,1.44,0,0,1,2,0L59.48,29.05a1.41,1.41,0,0,1,0,2L31,59.59A1.43,1.43,0,0,1,30,60ZM30,.41a1.11,1.11,0,0,0-.79.33L.63,29.27a1.12,1.12,0,0,0,0,1.57L29.16,59.37a1.16,1.16,0,0,0,1.57,0L59.26,30.84a1.12,1.12,0,0,0,0-1.57L30.73.74A1.09,1.09,0,0,0,30,.41Z" style="fill:url(#c)"/><path d="M37.33,59a1.48,1.48,0,0,1-.71-.19L1.68,38.67a1.43,1.43,0,0,1-.52-1.94L21.34,1.78a1.4,1.4,0,0,1,.86-.66,1.43,1.43,0,0,1,1.07.15l35,20.17a1.43,1.43,0,0,1,.52,1.94L38.56,58.32a1.4,1.4,0,0,1-.86.66A1.57,1.57,0,0,1,37.33,59ZM22.57,1.39a1.36,1.36,0,0,0-.29,0,1.11,1.11,0,0,0-.68.52L1.43,36.88a1.11,1.11,0,0,0,.41,1.52L36.78,58.57a1.07,1.07,0,0,0,.84.11,1.09,1.09,0,0,0,.67-.51L58.47,23.22a1.11,1.11,0,0,0-.41-1.51L23.12,1.53A1.18,1.18,0,0,0,22.57,1.39Z" style="fill:url(#d)"/><path d="M22.57,59A1.57,1.57,0,0,1,22.2,59a1.37,1.37,0,0,1-.86-.66L1.16,23.38a1.42,1.42,0,0,1,.52-1.94L36.62,1.27a1.45,1.45,0,0,1,1.08-.15,1.43,1.43,0,0,1,.86.66L58.74,36.73a1.43,1.43,0,0,1-.52,1.94L23.27,58.84A1.44,1.44,0,0,1,22.57,59ZM1.84,21.71h0a1.1,1.1,0,0,0-.41,1.51l20.17,35a1.14,1.14,0,0,0,.68.51,1.07,1.07,0,0,0,.84-.11L58.06,38.4a1.12,1.12,0,0,0,.41-1.52L38.29,1.94a1.07,1.07,0,0,0-.67-.52,1.16,1.16,0,0,0-.84.11Z" style="fill:url(#e)"/><path d="M13.43,56.28A1.45,1.45,0,0,1,12,55.11L3.75,13.82a1.45,1.45,0,0,1,1.14-1.7L46.18,3.86A1.44,1.44,0,0,1,47.88,5l8.26,41.3A1.44,1.44,0,0,1,55,48l-41.3,8.26A1.33,1.33,0,0,1,13.43,56.28Zm33-52.14-.23,0L5,12.42a1.13,1.13,0,0,0-.89,1.34l8.26,41.29a1.13,1.13,0,0,0,1.33.89L55,47.68a1.14,1.14,0,0,0,.89-1.33L47.58,5.05A1.13,1.13,0,0,0,46.47,4.14Z" style="fill:url(#f)"/><path d="M46.49,56a1.33,1.33,0,0,1-.28,0L5.15,47.74A1.46,1.46,0,0,1,4,46L12.23,5a1.44,1.44,0,0,1,1.69-1.13L55,12.07a1.43,1.43,0,0,1,1.13,1.69L47.9,54.82a1.38,1.38,0,0,1-.61.91A1.45,1.45,0,0,1,46.49,56ZM13.64,4.14a1.12,1.12,0,0,0-1.1.91L4.32,46.1a1.2,1.2,0,0,0,.17.85,1.15,1.15,0,0,0,.72.48l41.06,8.21a1.13,1.13,0,0,0,1.33-.88L55.81,13.7a1.13,1.13,0,0,0-.89-1.33L13.86,4.16Z" style="fill:url(#g)"/><path d="M84.71,25l-5.89,9.19h-.21l-5.94-9.15V38.75H72V24.19h.87l5.83,9,5.74-9h.94V38.75h-.67Z"/><path d="M96.4,38.75V37.44L96.53,36A4.72,4.72,0,0,1,92,38.87a5,5,0,0,1-5.2-5.26,5,5,0,0,1,5.16-5.26c1.89,0,4.06,1,4.62,3l-.13-1.66V28.47H97V38.75Zm-9-5.14A4.45,4.45,0,0,0,92,38.27c3.12,0,4.45-2.25,4.45-4.76A4.3,4.3,0,0,0,91.89,29,4.39,4.39,0,0,0,87.37,33.61Z"/><path d="M98,38.71,102,33.4l-3.76-4.91v0h.79l3.3,4.37,3.33-4.37h.77v0l-3.76,4.91,4.07,5.31v0H106l-3.66-4.85-3.66,4.85H98Z"/><path d="M116.21,36.81a5.52,5.52,0,0,1-4.45,2,5,5,0,0,1-5.12-5.2,5,5,0,0,1,5.1-5.28c2.76,0,5.51,1.6,5.11,5.57h-9.59a4.35,4.35,0,0,0,4.5,4.31,5.15,5.15,0,0,0,4-1.77Zm.08-3.47c.08-2.85-1.73-4.39-4.55-4.39a4.34,4.34,0,0,0-4.48,4.39Z"/><path d="M127.3,38.75V37.44l.12-1.48a4.72,4.72,0,0,1-4.58,2.91,5,5,0,0,1-5.2-5.26,5,5,0,0,1,5.16-5.26c1.9,0,4.06,1,4.62,3l-.12-1.66V24.21h.62V38.75Zm-9-5.14a4.44,4.44,0,0,0,4.59,4.66c3.13,0,4.46-2.25,4.46-4.76A4.3,4.3,0,0,0,122.78,29,4.39,4.39,0,0,0,118.27,33.61Z"/><path d="M148.64,31.47c0,3.85-2.48,7.49-7.32,7.49s-7.3-3.68-7.3-7.53c0-3.56,2.2-7.43,7.28-7.43C146.21,24,148.64,27.64,148.64,31.47Zm-7.34-6.82c-4.45,0-6.64,3.39-6.62,6.8s2.27,6.86,6.64,6.86A6.48,6.48,0,0,0,148,31.47C148,27.85,145.69,24.65,141.3,24.65Z"/><path d="M158.9,38.75h-.63l0-2.33a4.42,4.42,0,0,1-4,2.52c-2.83,0-4.43-1.65-4.43-4.41V28.47h.62v6c0,2.53,1.44,3.84,3.81,3.82a4,4,0,0,0,4-4V28.47h.63Z"/><path d="M163.06,25.31v3.16h3.66V29h-3.66v6.68c0,1.5.23,2.62,2,2.62a4.88,4.88,0,0,0,1.85-.52l.27.52a5,5,0,0,1-2.08.58c-2.17,0-2.71-1.18-2.71-3.2V29h-2.24v-.54h2.24v-3.1Z"/><path d="M181.7,26.64A5.66,5.66,0,0,0,177,24.69c-1.67,0-4.75.41-4.75,3.3,0,2,2.19,2.44,4.83,3s5.64,1.1,5.64,4c0,3.29-3.41,4-5.64,4s-4.74-.94-5.89-3.06l.59-.33c1,1.87,3.47,2.74,5.3,2.74s5-.48,5-3.31c0-2.45-2.66-2.87-5.16-3.39s-5.3-1.06-5.3-3.6c-.08-3.1,3.1-3.95,5.43-3.95a6.36,6.36,0,0,1,5.12,2.14Z"/><path d="M188.42,28.31a5.1,5.1,0,0,1,5.2,5.32,5.21,5.21,0,1,1-10.42,0A5.07,5.07,0,0,1,188.42,28.31Zm0,.6a4.51,4.51,0,0,0-4.58,4.72,4.59,4.59,0,1,0,9.17,0A4.49,4.49,0,0,0,188.4,28.91Z"/><path d="M196,24.19V38.75h-.62V24.19Z"/><path d="M207.43,38.75V37.44l.13-1.48A4.72,4.72,0,0,1,203,38.87a5,5,0,0,1-5.2-5.26,5,5,0,0,1,5.16-5.26c1.89,0,4.06,1,4.62,3l-.13-1.66V28.47h.63V38.75Zm-9-5.14a4.45,4.45,0,0,0,4.6,4.66c3.12,0,4.45-2.25,4.45-4.76A4.3,4.3,0,0,0,202.92,29,4.39,4.39,0,0,0,198.4,33.61Z"/><path d="M211,28.47V29.6L210.89,31a3.84,3.84,0,0,1,3.7-2.62,4.32,4.32,0,0,1,2,.5l-.27.52a3.6,3.6,0,0,0-5.33,3.2v6.14h-.64V28.47Z"/></svg>