<svg xmlns="http://www.w3.org/2000/svg" viewBox="0 0 400 339.05"><path d="M173.32,90.18a37.92,37.92,0,0,0,0,53.57A37.86,37.86,0,0,0,237.94,117,37.85,37.85,0,0,0,200.09,79.1,36.46,36.46,0,0,0,173.32,90.18ZM277.39,60.74,266.06,95.6,295.57,117l-29.51,21.42,11.33,34.74v0H240.86L229.6,207.9h-.07l-8.31-6,8.24-9.16-.08-.08.08,0q-9.83-15-19.64-30L170.12,207l-11-33.82H122.61v0l11.3-34.74L104.4,117l29.51-21.42-11.3-34.79h36.53L170.4,26,200,47.56,229.6,26l11.26,34.71Z" style="fill:#fa6d87;fill-rule:evenodd"/><path d="M114.8,226.25l13.58,12.16v45.12l66.15,0V234.23l-7.59-6.84h0l-20.17,22.53-16.11-8.17-.07-.07,58.23-65,9.95,15.18-20.07,22.45,13.55,12.12v57.06h66.14V246.21l-7.62-6.84-20.18,22.52-16.11-8.16-.07-.07,58.24-65,9.94,15.19q-10,11.21-20.1,22.41L296,238.41v45.08h39.7L340.4,301v.1H59.6l4.67-17.56h46.44V246.21l-7.63-6.84L82.91,261.89,66.8,253.73l-.07-.07,58.23-65,10,15.19Z" style="fill:#6e84c5;fill-rule:evenodd"/></svg>