<svg xmlns="http://www.w3.org/2000/svg" viewBox="0 0 3200 2000"><path d="M2885.36,514.55c55.54,8.22,105.57,36.93,111.27,99.38,5.39,59.13-39.72,117.65-17.41,176.22,22.9,60.11,88.27,80.68,64.41,155-8.5,26.48-22.19,52.29-21.5,80.1,1.45,58.26,58.29,93.83,86.07,139.53,35.85,59,22.58,140.24-25.15,188.71-90.75,92.16-244.65,59-359.13,50.32-66.5-5.07-126.51-39.14-143.14-108.24-19.31-80.23,31.25-118.88,62.84-182.32,30.75-61.75-7.1-134.46-8-203.42-1-77.11,61.22-119.44,72.65-190.29,8.26-51.23-20.58-104,8.12-152.41,15.19-25.62,43.32-41.45,72.31-48.33A265,265,0,0,1,2885.36,514.55Z" style="fill:#7c9af2"/><path d="M2852.55,1602.27a3.76,3.76,0,0,1-3.92-3.58V671.89a3.94,3.94,0,0,1,7.84,0v926.8A3.76,3.76,0,0,1,2852.55,1602.27Z" style="fill:#17152b"/><path d="M2852.55,1308.11a3.92,3.92,0,0,1-3.22-6.16l109.82-157.82a3.92,3.92,0,1,1,6.43,4.48l-109.81,157.82A3.9,3.9,0,0,1,2852.55,1308.11Z" style="fill:#17152b"/><path d="M423.77,1214.15c21.37,3.16,40.62,14.21,42.81,38.24,2.07,22.75-15.28,45.27-6.7,67.81,8.81,23.13,34,31,24.78,59.65-3.27,10.19-8.53,20.12-8.27,30.82.56,22.41,22.43,36.1,33.12,53.68,13.79,22.7,8.69,54-9.68,72.61-34.91,35.46-94.13,22.73-138.18,19.37-25.59-1.95-48.68-15.06-55.08-41.65-7.43-30.87,12-45.74,24.18-70.15,11.83-23.76-2.73-51.74-3.08-78.27-.39-29.67,23.55-46,27.95-73.22,3.18-19.71-7.91-40,3.13-58.64,5.84-9.86,16.67-16,27.82-18.6a101.94,101.94,0,0,1,37.2-1.65Z" style="fill:#91b5f8"/><path d="M411.14,1667.38a1.52,1.52,0,0,1-1.51-1.51v-391a1.51,1.51,0,0,1,3,0v391a1.51,1.51,0,0,1-1.51,1.51Z" style="fill:#17152b"/><path d="M411.14,1451.68a1.5,1.5,0,0,1-1.37-.89l-42.91-93.9a1.51,1.51,0,1,1,2.74-1.25l42.92,93.9a1.52,1.52,0,0,1-.75,2,1.56,1.56,0,0,1-.63.14Z" style="fill:#17152b"/><path d="M411.14,1519.49a1.5,1.5,0,0,1-.86-.26,1.53,1.53,0,0,1-.38-2.11l42.26-60.72a1.5,1.5,0,1,1,2.47,1.72l-42.25,60.72a1.48,1.48,0,0,1-1.24.65Z" style="fill:#17152b"/><path d="M1754.85,586.53c43.9,6.5,83.45,29.2,88,78.56,4.27,46.74-31.39,93-13.76,139.3,18.11,47.51,69.78,63.77,50.92,122.55-6.72,20.93-17.54,41.33-17,63.31,1.15,46.06,46.08,74.17,68,110.3,28.34,46.62,17.85,110.85-19.88,149.16-71.73,72.85-193.39,46.69-283.88,39.78-52.57-4-100-30.94-113.15-85.56-15.27-63.41,24.7-94,49.67-144.12,24.31-48.8-5.61-106.28-6.33-160.8-.81-61,48.39-94.41,57.42-150.41,6.54-40.5-16.26-82.22,6.42-120.48,12-20.25,34.25-32.76,57.16-38.2a209.3,209.3,0,0,1,76.42-3.39Z" style="fill:#91b5f8"/><path d="M1728.92,1517.64a3.1,3.1,0,0,1-3.1-3.1V711.18a3.1,3.1,0,0,1,6.2,0v803.36a3.1,3.1,0,0,1-3.1,3.1Z" style="fill:#17152b"/><path d="M1728.92,1074.5a3.11,3.11,0,0,1-2.82-1.81l-88.16-192.92a3.1,3.1,0,1,1,5.64-2.57l88.16,192.91a3.09,3.09,0,0,1-1.54,4.1,2.92,2.92,0,0,1-1.28.29Z" style="fill:#17152b"/><path d="M1728.91,1213.82a3.1,3.1,0,0,1-2.54-4.87l86.81-124.75a3.1,3.1,0,1,1,5.08,3.54l-86.8,124.75a3.07,3.07,0,0,1-2.55,1.33Z" style="fill:#17152b"/><path d="M247.78,1060.63c34.76,5.14,66.07,23.11,69.64,62.2,3.37,37-24.86,73.63-10.9,110.28,14.34,37.63,55.25,50.5,40.31,97-5.32,16.58-13.89,32.73-13.45,50.13.91,36.46,36.48,58.73,53.87,87.33,22.43,36.91,14.13,87.77-15.74,118.1-56.8,57.68-153.12,37-224.77,31.5-41.62-3.18-79.17-24.5-89.59-67.75-12.08-50.21,19.56-74.4,39.34-114.11,19.24-38.64-4.45-84.14-5-127.31-.64-48.26,38.31-74.75,45.47-119.09,5.17-32.06-12.88-65.09,5.08-95.39,9.51-16,27.11-25.94,45.25-30.24A165.83,165.83,0,0,1,247.78,1060.63Z" style="fill:#7c9af2"/><path d="M227.25,1741.38a2.35,2.35,0,0,1-2.46-2.23V1159.1a2.47,2.47,0,0,1,4.91,0v580.05A2.35,2.35,0,0,1,227.25,1741.38Z" style="fill:#17152b"/><path d="M227.25,1447a2.47,2.47,0,0,1-2.24-1.43l-69.8-152.74a2.46,2.46,0,0,1,4.47-2l69.8,152.74a2.46,2.46,0,0,1-1.21,3.25A2.5,2.5,0,0,1,227.25,1447Z" style="fill:#17152b"/><path d="M227.24,1557.28a2.45,2.45,0,0,1-2-3.85L294,1454.66a2.45,2.45,0,1,1,4,2.8l-68.73,98.77A2.44,2.44,0,0,1,227.24,1557.28Z" style="fill:#17152b"/><polygon points="1193.58 1729.9 1166.57 1729.9 1172.38 1044.28 1186.08 1044.28 1193.58 1729.9" style="fill:#91b5f8"/><polygon points="1187.3 1049.83 1051.96 1270.22 999.36 1355.88 992.07 1352.1 1033.4 1260 1101.1 1109.13 1170.33 1038.63 1187.3 1049.83" style="fill:#91b5f8"/><polygon points="1192.8 1037.97 1176.64 1050.34 1009.62 846.18 949.22 772.36 955.2 766.72 1025.75 833.27 1148.92 949.44 1192.8 1037.97" style="fill:#91b5f8"/><polygon points="1531.18 941 1411.9 988.78 1283.96 1040.02 1185.19 1042.64 1180.77 1022.79 1398.61 966.68 1528.56 933.21 1531.18 941" style="fill:#91b5f8"/><polygon points="1206.72 1739.39 1153.06 1739.39 1159.25 1581.88 1200.9 1581.88 1206.72 1739.39" style="fill:#91b5f8"/><path d="M1162.44,1037.5a17.64,17.64,0,1,1,17.64,17.64A17.63,17.63,0,0,1,1162.44,1037.5Z" style="fill:#91b5f8"/><circle cx="1180.08" cy="1037.5" r="9.76" transform="translate(-33.06 2036.15) rotate(-80.78)" style="fill:#91b5f8"/><polygon points="1981.6 695.75 2662.48 695.75 2271.68 1090.59 1590.79 1090.59 1981.6 695.75" style="fill:#060633"/><polygon points="2018.78 734.23 1666.44 1090.59 1666.44 1682.83 2963.75 1682.83 2963.75 1051.64 2018.78 734.23" style="fill:#fa7267"/><rect x="2371.5" y="1065.96" width="592.25" height="616.87" style="fill:#ef5048"/><polygon points="2661.59 695.75 1980.7 695.75 2371.5 1090.59 3052.39 1090.59 2661.59 695.75" style="fill:#18187f"/><rect x="1959.94" y="882.47" width="81.82" height="168.12" style="fill:#a7c0e8"/><path d="M2048.28,1057.11h-94.87V875.94h94.87Zm-81.81-13h68.76V889h-68.76Z" style="fill:#060633"/><rect x="1997.01" y="884.9" width="7.93" height="165.68" style="fill:#060633"/><rect x="1998.16" y="923.32" width="7.93" height="86.42" transform="translate(2968.65 -1035.6) rotate(90)" style="fill:#060633"/><path d="M1770.13,1176.53h143.25a0,0,0,0,1,0,0v260.19a34.15,34.15,0,0,1-34.15,34.15h-74.94a34.15,34.15,0,0,1-34.15-34.15V1176.53a0,0,0,0,1,0,0Z" transform="translate(3683.51 2647.42) rotate(180)" style="fill:#a7c0e8"/><path d="M1919.91,1477.41H1763.6V1239.2a69.27,69.27,0,0,1,69.19-69.19h17.93a69.27,69.27,0,0,1,69.19,69.19Zm-143.25-13.06h130.19V1239.2a56.2,56.2,0,0,0-56.13-56.14h-17.93a56.2,56.2,0,0,0-56.13,56.14Z" style="fill:#060633"/><rect x="1834.59" y="1180.8" width="13.88" height="290.08" transform="translate(3683.06 2651.68) rotate(180)" style="fill:#060633"/><rect x="1832.58" y="1248.05" width="13.88" height="151.31" transform="translate(3163.22 -515.81) rotate(90)" style="fill:#060633"/><rect x="1734.76" y="1462.82" width="185.78" height="15.67" transform="translate(3655.31 2941.31) rotate(180)" style="fill:#060633"/><path d="M2155.27,1176.53h0a71.63,71.63,0,0,1,71.63,71.63v222.72H2083.65V1248.16A71.63,71.63,0,0,1,2155.27,1176.53Z" style="fill:#a7c0e8"/><path d="M2233.42,1477.41h-156.3V1239.2a69.27,69.27,0,0,1,69.19-69.19h17.93a69.26,69.26,0,0,1,69.18,69.19Zm-143.24-13.06h130.19V1239.2a56.2,56.2,0,0,0-56.13-56.14h-17.93a56.2,56.2,0,0,0-56.13,56.14Z" style="fill:#060633"/><rect x="2148.11" y="1180.8" width="13.88" height="290.08" transform="translate(4310.1 2651.68) rotate(180)" style="fill:#060633"/><rect x="2146.1" y="1248.05" width="13.88" height="151.31" transform="translate(3476.74 -829.33) rotate(90)" style="fill:#060633"/><rect x="2048.28" y="1462.82" width="185.78" height="15.67" transform="translate(4282.35 2941.31) rotate(180)" style="fill:#060633"/><polygon points="2458.13 726.76 2534.13 802.77 2616.6 802.77 2616.6 645.37 2461.71 645.37 2458.13 726.76" style="fill:#060633"/><rect x="2451.63" y="629.95" width="179.06" height="28.2" style="fill:#0b0755"/><polygon points="2394.48 1050.97 2660.9 1050.46 2474.59 863.16 2208.17 863.67 2394.48 1050.97" style="fill:#4851ec"/><polygon points="2598.61 1050.58 2600.73 1050.58 2414.43 863.27 2412.3 863.28 2598.61 1050.58" style="fill:#7c9af2"/><polygon points="2525.93 1050.72 2528.06 1050.72 2341.75 863.41 2339.62 863.42 2525.93 1050.72" style="fill:#7c9af2"/><polygon points="2453.25 1050.86 2455.38 1050.86 2269.07 863.55 2266.94 863.55 2453.25 1050.86" style="fill:#7c9af2"/><polygon points="2530.47 919.33 2528.5 917.36 2262.08 917.86 2264.05 919.84 2530.47 919.33" style="fill:#7c9af2"/><polygon points="2597.7 986.93 2595.73 984.95 2329.31 985.46 2331.28 987.43 2597.7 986.93" style="fill:#7c9af2"/><polygon points="2690.68 1051.07 2957.1 1050.56 2770.79 863.25 2504.37 863.76 2690.68 1051.07" style="fill:#4851ec"/><polygon points="2894.81 1050.67 2896.93 1050.67 2710.63 863.37 2708.5 863.37 2894.81 1050.67" style="fill:#7c9af2"/><polygon points="2822.13 1050.82 2824.26 1050.81 2637.95 863.5 2635.82 863.51 2822.13 1050.82" style="fill:#7c9af2"/><polygon points="2749.45 1050.95 2751.58 1050.95 2565.27 863.64 2563.14 863.65 2749.45 1050.95" style="fill:#7c9af2"/><polygon points="2826.67 919.43 2824.7 917.45 2558.28 917.96 2560.24 919.93 2826.67 919.43" style="fill:#7c9af2"/><polygon points="2893.9 987.02 2891.93 985.04 2625.51 985.55 2627.48 987.53 2893.9 987.02" style="fill:#7c9af2"/><polygon points="929.61 1592.62 885.3 1592.62 894.84 649.16 917.3 649.16 929.61 1592.62" style="fill:#18187f"/><polygon points="908.41 658.9 603.26 953.62 484.65 1068.17 474.62 1059.18 577.96 929.78 747.23 717.83 886.03 634.17 908.41 658.9" style="fill:#18187f"/><polygon points="603.26 953.62 484.65 1068.17 474.62 1059.18 577.96 929.78 603.26 953.62" style="fill:#fa7267"/><polygon points="929.14 639.03 898.42 652.06 716.62 259.42 650.88 117.46 662.68 110.94 747.53 245.52 895.65 480.45 929.14 639.03" style="fill:#18187f"/><polygon points="747.53 245.52 716.62 259.42 650.88 117.46 662.68 110.94 747.53 245.52" style="fill:#fa7267"/><polygon points="1499.18 626.7 1290.15 653.8 1065.97 682.85 908 646.61 909.09 613.26 1278.09 613.26 1498.21 613.25 1499.18 626.7" style="fill:#18187f"/><polygon points="1499.18 626.7 1282.68 654.77 1278.09 613.26 1498.21 613.25 1499.18 626.7" style="fill:#fa7267"/><polygon points="951.15 1641.66 863.14 1641.66 873.3 1406.54 941.62 1406.54 951.15 1641.66" style="fill:#18187f"/><path d="M878.53,638.05A28.93,28.93,0,1,1,907.46,667,28.93,28.93,0,0,1,878.53,638.05Z" style="fill:#060633"/><path d="M891.45,638.05a16,16,0,1,1,16,16A16,16,0,0,1,891.45,638.05Z" style="fill:#fa7267"/><path d="M1738.6,386.57c-14.53-3.66-31.83-12.65-30.55-27.58,1.15-13.36,17.1-20.25,30.51-20s27,4.7,40,1.55c17-4.11,28.29-19.75,38.75-33.8,11.1-14.9,23.37-29.52,39.49-38.74s37-12.15,53.24-3.22c12.46,6.84,21.1,19.76,34.29,25.07,17.84,7.18,37.57-1.55,56.25-6.15s43.71-1.49,49.37,16.89c4.73,15.39-6.94,35,3.92,46.83,55.65,60.73-53.45,39.84-93.16,42.56C1886.84,395.08,1811.52,405,1738.6,386.57Z" style="fill:#91b5f8"/><path d="M1791,525.77c9.27,15.36,1.79,37.16-13.46,46.6s-35.57,7.83-51.37-.65c-8.39-4.5-16.06-10.85-25.37-12.81-22.86-4.81-50.94,23-72.26,6.89-18.49-14-9.73-26.73,4.39-37.58C1675,495.85,1744.35,539.37,1791,525.77Z" style="fill:#91b5f8"/><path d="M717.76,648.29c6.89,11.4,1.33,27.59-10,34.6s-26.41,5.81-38.14-.48c-6.23-3.35-11.93-8.06-18.84-9.51-17-3.58-37.83,17.1-53.66,5.11-13.73-10.4-7.23-19.85,3.26-27.91C631.67,626.07,683.13,658.39,717.76,648.29Z" style="fill:#91b5f8"/><path d="M2427.76,570.8c-13.88,7.78-31,10.62-47.6,13.29L2343.58,590c-27.44,4.4-56.42,8.74-82.88,1.45-19.2-5.3-35.52-16.38-55.18-20.44s-40.36-.66-60.61-1.53c-5.79-.24-11.65-.87-16.91-2.82-11.23-4.17-18.19-14.73-16.18-24.54s12.79-18,25.09-19.09c16.26-1.41,35.91,7.6,47.26-1.87,3.95-3.3,5.38-8,8.13-12,5.52-8.05,16.15-13,26.84-16.25,33.7-10.35,61.78-3,95.52.78,22.89,2.59,43.8-1.6,66.51-3.11,28.88-1.92,58.34,1.46,68.59,26.63C2457.46,536.08,2448.09,559.41,2427.76,570.8Z" style="fill:#91b5f8"/><path d="M1291.08,423.63c-12.48,7-27.87,9.55-42.78,11.94l-32.89,5.29c-24.66,4-50.71,7.86-74.5,1.3-17.25-4.76-31.92-14.72-49.59-18.37s-36.29-.59-54.48-1.37c-5.2-.23-10.48-.79-15.2-2.54-10.1-3.75-16.35-13.24-14.55-22.06s11.5-16.2,22.56-17.16c14.61-1.27,32.28,6.83,42.48-1.68,3.55-3,4.83-7.19,7.3-10.8,5-7.23,14.52-11.65,24.13-14.6,30.29-9.3,55.53-2.72,85.86.7,20.58,2.33,39.37-1.44,59.78-2.8,26-1.72,52.44,1.31,61.65,23.94C1317.77,392.42,1309.36,413.39,1291.08,423.63Z" style="fill:#91b5f8"/><path d="M1610,1707.28s154.38,8.59,186.5-2.65,65.33-68.55,40.74-96.13c-20.13-22.59-46-2.54-60.35-21.72s34.46-85.07-70.53-74.12-49,92-76.23,82.16C1576.92,1575.64,1503.56,1663.67,1610,1707.28Z" style="fill:#91b5f8"/><path d="M2251,1715.67s167.83,9.33,202.74-2.89,71-74.51,44.29-104.49c-21.88-24.56-50-2.76-65.6-23.61s37.46-92.48-76.67-80.57-53.3,100-82.87,89.31C2215,1572.57,2135.27,1668.26,2251,1715.67Z" style="fill:#91b5f8"/><path d="M2846.58,1706.06s214.63,11.93,259.28-3.69,90.82-95.29,56.64-133.64c-28-31.4-63.91-3.53-83.9-30.19s47.91-118.27-98.06-103-68.15,127.84-106,114.21C2800.59,1523.05,2698.61,1645.43,2846.58,1706.06Z" style="fill:#91b5f8"/><path d="M800.29,1651.85s144.74,8.05,174.86-2.49,61.25-64.26,38.2-90.12c-18.88-21.18-43.1-2.38-56.59-20.36s32.32-79.77-66.12-69.5-46,86.23-71.47,77C769.27,1528.43,700.5,1611,800.29,1651.85Z" style="fill:#91b5f8"/><path d="M1069.53,1617.48s79.61,4.42,96.17-1.37,33.69-35.35,21-49.57c-10.38-11.65-23.71-1.31-31.12-11.2s17.77-43.87-36.37-38.22-25.28,47.42-39.31,42.37C1052.47,1549.6,1014.64,1595,1069.53,1617.48Z" style="fill:#91b5f8"/><polygon points="2598.3 1287.99 2687.58 1287.99 2690.81 1287.99 2797.98 1287.99 2801.21 1287.99 2908.39 1287.99 2911.62 1287.99 3003.01 1287.99 3093.49 1593.93 3002.09 1593.93 2998.86 1593.93 2891.69 1593.93 2888.46 1593.93 2781.29 1593.93 2778.06 1593.93 2688.78 1593.93 2658.09 1490.15 2658.09 1490.15 2657.13 1486.92 2657.13 1486.92 2625.44 1379.74 2625.44 1379.74 2624.48 1376.52 2624.48 1376.52 2598.3 1287.99" style="fill:#0b0755"/><rect x="2835.7" y="1411.68" width="33.34" height="367.29" transform="translate(5704.73 3190.66) rotate(180)" style="fill:#0b0755"/><rect x="2804.4" y="1769.28" width="93.71" height="17.23" transform="translate(5702.51 3555.79) rotate(180)" style="fill:#0b0755"/><polygon points="2702.78 1593.93 3107.49 1593.93 3017.01 1287.99 2612.31 1287.99 2702.78 1593.93" style="fill:#4851ec"/><polygon points="3012.86 1593.93 3016.09 1593.93 2925.62 1287.99 2922.39 1287.99 3012.86 1593.93" style="fill:#7c9af2"/><polygon points="2902.46 1593.93 2905.69 1593.93 2815.22 1287.99 2811.99 1287.99 2902.46 1593.93" style="fill:#7c9af2"/><polygon points="2792.06 1593.93 2795.29 1593.93 2704.81 1287.99 2701.58 1287.99 2792.06 1593.93" style="fill:#7c9af2"/><polygon points="3044.15 1379.74 3043.19 1376.52 2638.49 1376.52 2639.44 1379.74 3044.15 1379.74" style="fill:#7c9af2"/><polygon points="3076.8 1490.15 3075.84 1486.92 2671.14 1486.92 2672.09 1490.15 3076.8 1490.15" style="fill:#7c9af2"/><polygon points="2277.46 1433.8 2339.76 1433.8 2342.01 1433.8 2416.8 1433.8 2419.06 1433.8 2493.85 1433.8 2496.1 1433.8 2559.88 1433.8 2623.02 1647.3 2559.24 1647.3 2556.99 1647.3 2482.2 1647.3 2479.94 1647.3 2405.15 1647.3 2402.9 1647.3 2340.59 1647.3 2319.18 1574.88 2319.18 1574.88 2318.51 1572.62 2318.51 1572.62 2296.39 1497.83 2296.39 1497.83 2295.73 1495.58 2295.73 1495.58 2277.46 1433.8" style="fill:#0b0755"/><rect x="2443.12" y="1520.12" width="23.26" height="256.32" transform="translate(4909.51 3296.55) rotate(180)" style="fill:#0b0755"/><rect x="2421.28" y="1769.67" width="65.39" height="12.03" transform="translate(4907.96 3551.36) rotate(180)" style="fill:#0b0755"/><polygon points="2350.37 1647.3 2632.79 1647.3 2569.65 1433.8 2287.23 1433.8 2350.37 1647.3" style="fill:#4851ec"/><polygon points="2566.76 1647.3 2569.01 1647.3 2505.88 1433.8 2503.62 1433.8 2566.76 1647.3" style="fill:#7c9af2"/><polygon points="2489.71 1647.3 2491.97 1647.3 2428.83 1433.8 2426.57 1433.8 2489.71 1647.3" style="fill:#7c9af2"/><polygon points="2412.67 1647.3 2414.92 1647.3 2351.78 1433.8 2349.53 1433.8 2412.67 1647.3" style="fill:#7c9af2"/><polygon points="2588.59 1497.83 2587.92 1495.58 2305.5 1495.58 2306.16 1497.83 2588.59 1497.83" style="fill:#7c9af2"/><polygon points="2611.37 1574.88 2610.71 1572.62 2328.28 1572.62 2328.95 1574.88 2611.37 1574.88" style="fill:#7c9af2"/><path d="M769.31,1374.58s-50.29-5-61-16.87-23.4-51.43-23.4-51.43l-26.43,6.51s25.46,66.73,43.13,69.1,63.94,5.25,63.94,5.25l3.8-12.56Z" style="fill:#ef8e7b"/><path d="M561.13,1438.16s53.38,96.08,54.34,102.31-10.57,120-10.57,120l22.3,8.09S665.45,1588,671.87,1561s-20.08-86-20.08-86l-90.66-36.84Z" style="fill:#0d0d5e"/><polygon points="832.33 1760.72 834.99 1760.72 834.99 1534.35 832.33 1534.35 832.33 1760.72 832.33 1760.72" style="fill:#060633"/><polygon points="869.12 1755.04 871.63 1754.17 798.21 1540.03 795.7 1540.89 869.12 1755.04 869.12 1755.04" style="fill:#060633"/><polygon points="913.36 1724.79 915.22 1722.9 753.98 1564.01 752.11 1565.91 913.36 1724.79 913.36 1724.79" style="fill:#060633"/><polygon points="932.85 1690.83 933.93 1688.4 727.44 1595.62 726.36 1598.05 932.85 1690.83 932.85 1690.83" style="fill:#060633"/><polygon points="944.81 1649.66 944.89 1647.01 718.61 1639.93 718.53 1642.58 944.81 1649.66 944.81 1649.66" style="fill:#060633"/><polygon points="730.08 1700.06 931.43 1596.58 930.21 1594.22 728.86 1697.7 730.08 1700.06 730.08 1700.06" style="fill:#060633"/><polygon points="798.21 1755.04 871.63 1540.89 869.12 1540.03 795.7 1754.17 798.21 1755.04 798.21 1755.04" style="fill:#060633"/><polygon points="753.98 1724.79 915.22 1565.91 913.36 1564.01 752.11 1722.9 753.98 1724.79 753.98 1724.79" style="fill:#060633"/><path d="M726.34,1644.66A110.87,110.87,0,1,0,837.2,1533.8a111,111,0,0,0-110.86,110.86Zm-18.6,0A129.61,129.61,0,0,1,837.2,1515.2c71.39,0,129.47,58.07,129.47,129.46A129.62,129.62,0,0,1,837.2,1774.13c-71.38,0-129.46-58.08-129.46-129.47Z" style="fill:#060633"/><path d="M736.12,1644.66A101.09,101.09,0,1,0,837.2,1543.57a101.2,101.2,0,0,0-101.08,101.09Zm-18.59,0A119.68,119.68,0,1,1,837.2,1764.35a119.8,119.8,0,0,1-119.67-119.69Z" style="fill:#4851ec"/><polygon points="459.7 1760.72 462.36 1760.72 462.36 1534.35 459.7 1534.35 459.7 1760.72 459.7 1760.72" style="fill:#060633"/><polygon points="496.48 1755.04 498.99 1754.17 425.57 1540.03 423.06 1540.89 496.48 1755.04 496.48 1755.04" style="fill:#060633"/><polygon points="540.71 1724.79 542.59 1722.9 381.34 1564.01 379.47 1565.91 540.71 1724.79 540.71 1724.79" style="fill:#060633"/><polygon points="560.2 1690.83 561.29 1688.4 354.8 1595.62 353.71 1598.05 560.2 1690.83 560.2 1690.83" style="fill:#060633"/><polygon points="572.16 1649.66 572.24 1647.01 345.98 1639.93 345.89 1642.58 572.16 1649.66 572.16 1649.66" style="fill:#060633"/><polygon points="357.44 1700.06 558.78 1596.58 557.57 1594.22 356.23 1697.7 357.44 1700.06 357.44 1700.06" style="fill:#060633"/><polygon points="425.57 1755.04 498.99 1540.89 496.48 1540.03 423.06 1754.17 425.57 1755.04 425.57 1755.04" style="fill:#060633"/><polygon points="381.34 1724.79 542.59 1565.91 540.71 1564.01 379.47 1722.9 381.34 1724.79 381.34 1724.79" style="fill:#060633"/><path d="M353.69,1644.66A110.88,110.88,0,1,0,464.56,1533.8a111,111,0,0,0-110.87,110.86Zm-18.59,0a129.47,129.47,0,1,1,129.46,129.47c-71.39,0-129.46-58.08-129.46-129.47Z" style="fill:#060633"/><path d="M363.48,1644.66a101.09,101.09,0,1,0,101.08-101.09,101.2,101.2,0,0,0-101.08,101.09Zm-18.59,0a119.68,119.68,0,1,1,119.67,119.69,119.8,119.8,0,0,1-119.67-119.69Z" style="fill:#4851ec"/><path d="M833.36,1645.82l7.3-8.17-21.26-19c-3.26-5.81-25.27-46.21-44.45-111.57l-10.53,3.09c21.09,71.84,44.94,113,45.94,114.73l.44.75,22.56,20.15Z" style="fill:#fa7267"/><polygon points="635.04 1660.51 766.56 1484.36 754.02 1475 622.5 1651.14 635.04 1660.51 635.04 1660.51" style="fill:#fa7267"/><polygon points="610.41 1591.88 758.36 1465.84 751.25 1457.49 603.3 1583.54 610.41 1591.88 610.41 1591.88" style="fill:#fa7267"/><polygon points="625.87 1664.47 636.36 1661.27 594.08 1522.7 583.61 1525.9 625.87 1664.47 625.87 1664.47" style="fill:#fa7267"/><path d="M628.78,1660.52a4.7,4.7,0,0,0,.27-9.39l-155.44-9.51a4.19,4.19,0,0,1-2.29-7.52l120.38-92a4.7,4.7,0,1,0-5.71-7.46l-120.38,92A13.59,13.59,0,0,0,473,1651l155.45,9.51Z" style="fill:#fa7267"/><polygon points="745.27 1451.1 757.25 1447.45 775.82 1508.34 763.83 1512 745.27 1451.1 745.27 1451.1" style="fill:#7c9af2"/><path d="M750.9,1456.58a3.67,3.67,0,0,0,.91-.12,3.52,3.52,0,0,0,2.49-4.31l-5.83-21.84,20.11-26.81a3.52,3.52,0,1,0-5.63-4.22l-21.14,28.18a3.53,3.53,0,0,0-.58,3l6.26,23.49a3.52,3.52,0,0,0,3.41,2.61Z" style="fill:#7c9af2"/><path d="M814.18,1639.77a22.7,22.7,0,1,1,22.7,22.7,22.7,22.7,0,0,1-22.7-22.7Z" style="fill:#fa7267"/><path d="M823.18,1639.77a13.7,13.7,0,1,1,13.7,13.7,13.69,13.69,0,0,1-13.7-13.7Z" style="fill:#060633"/><path d="M827.48,1639.77a9.4,9.4,0,1,1,9.4,9.39,9.41,9.41,0,0,1-9.4-9.39Z" style="fill:#7c9af2"/><path d="M441.54,1639.77a22.7,22.7,0,1,1,22.7,22.7,22.7,22.7,0,0,1-22.7-22.7Z" style="fill:#fa7267"/><path d="M450.54,1639.77a13.7,13.7,0,1,1,13.7,13.7,13.69,13.69,0,0,1-13.7-13.7Z" style="fill:#060633"/><path d="M454.85,1639.77a9.39,9.39,0,1,1,9.39,9.39,9.4,9.4,0,0,1-9.39-9.39Z" style="fill:#7c9af2"/><path d="M574.46,1523.83l25.31-7.24a.14.14,0,0,1,.18.1l1.3,4.53a.15.15,0,0,1-.1.18l-25.31,7.24a.14.14,0,0,1-.18-.1l-1.3-4.53a.14.14,0,0,1,.1-.18Z" style="fill:#7c9af2"/><polygon points="573.9 1493.51 584.43 1490.51 592.83 1519.85 582.3 1522.87 573.9 1493.51 573.9 1493.51" style="fill:#7c9af2"/><polygon points="568.23 1463.15 573.71 1461.59 583.62 1496.2 578.14 1497.77 568.23 1463.15 568.23 1463.15" style="fill:#7c9af2"/><path d="M518.38,1450.71c3.14,3.92,19.58,16.44,34.46,16.44s32.08-3.92,43.83,0,10.18-13.31,0-14.09-72-14.88-76.71-12.53-1.58,10.18-1.58,10.18Z" style="fill:#060633"/><path d="M597.46,1656.87a29.75,29.75,0,1,1,29.74,29.74,29.74,29.74,0,0,1-29.74-29.74Z" style="fill:#7c9af2"/><polygon points="631.75 1695.09 635.17 1694.28 628.91 1668.19 625.5 1669.01 631.75 1695.09 631.75 1695.09" style="fill:#7c9af2"/><path d="M653.87,1638.89s-11.53,25.4-11.49,25.85-3.42,2.75-3.42,2.75l-8.7-2.07-5.88-6.6s11-23.48,11.9-27.56,17.59,7.63,17.59,7.63Z" style="fill:#f9a58f"/><polygon points="609.98 1698.54 656.95 1698.54 656.95 1690.83 609.98 1690.83 609.98 1698.54 609.98 1698.54" style="fill:#7c9af2"/><path d="M624.38,1658.82s7.88,7.31,18.17,5.4c0,0,25.89,25.11,21.09,33.51,0,0,.17,3.21-13-3.21s-33.74-16.11-34.16-16.66-3.67-.29,7.89-19Z" style="fill:#060633"/><path d="M528.45,1392.38s-14.34,33.75,0,47.89,126,85.28,128.5,97.57-29.75,101.93-29.75,101.93l29.75,17.1s52-99,61.62-123.18-91.15-103.18-91.15-103.18L630.5,1415l-102-22.6Z" style="fill:#18187f"/><path d="M567.43,1264.26c22.51-24.38,102.74-6.81,109.3,4,7.71,12.73,17.11,44.2,22.67,60.59-11.34,2.66-22.52,9.85-33.67,13.24C662.57,1331.5,656,1327,656,1327l-22.52,100.22-116.1-9.15s12.4-113,50.07-153.82Z" style="fill:#fff"/><path d="M765.77,1406.09s11.74-2.35,11.74-7,1.57-7.82,0-8.61-22.71-1.56-22.71-1.56l-28.18-1.57-2.34,11h32.88l1.56,7.83Z" style="fill:#060633"/><polygon points="776.1 1399.91 800.11 1397.87 798.99 1389.77 773.44 1392.06 776.1 1399.91 776.1 1399.91" style="fill:#060633"/><path d="M793.43,1394.34c0-4.76,3-8.61,6.68-8.61s6.68,3.85,6.68,8.61-3,8.61-6.68,8.61-6.68-3.86-6.68-8.61Z" style="fill:#060633"/><path d="M711.09,1370.9l1.9.42c5.83,1.28,27,6,30.18,11.89,1.27,2.32-13,9.66-13,9.66s-21.32-2.8-27.27-8.61,8.15-13.36,8.15-13.36Z" style="fill:#f9a58f"/><path d="M726.21,1389.76s4.28,12.13,5.83,12.07-1.24-11.51-1.24-11.51l-4.59-.56Z" style="fill:#f9a58f"/><path d="M731.28,1389.44s7,17.86,9.71,17.13-6.32-19.28-6.32-19.28l-3.39,2.15Z" style="fill:#f9a58f"/><path d="M736,1388.17s8.54,17.17,11.16,16.21-8-18.65-8-18.65l-3.19,2.44Z" style="fill:#f9a58f"/><path d="M740,1385.64s7.81,16.22,10.4,15.21-7.21-17.64-7.21-17.64l-3.19,2.43Z" style="fill:#f9a58f"/><path d="M767.42,1374.17s.7.14,1.89.41c5.83,1.27,26.5,6.69,29.7,12.56,1.26,2.32-12.47,9-12.47,9s-17.07-3.18-23-9,3.89-13,3.89-13Z" style="fill:#ef8e7b"/><path d="M794.54,1388.31s8.46,9.68,9.88,9.06-5.41-10.23-5.41-10.23l-4.47,1.17Z" style="fill:#ef8e7b"/><path d="M787.6,1391.78s7,17.85,9.7,17.12-6.3-19.28-6.3-19.28l-3.4,2.16Z" style="fill:#ef8e7b"/><path d="M791.26,1390.3s8.54,17.17,11.16,16.21-8-18.65-8-18.65l-3.19,2.44Z" style="fill:#ef8e7b"/><path d="M784.44,1392.34s2.64,17.79,5.41,17.61-1.64-19-1.64-19l-3.77,1.39Z" style="fill:#ef8e7b"/><path d="M710.61,1392.87a8.62,8.62,0,1,1,8.62,8.61,8.62,8.62,0,0,1-8.62-8.61Z" style="fill:#060633"/><polygon points="711.1 1370.9 707.6 1369.79 702.21 1378.6 709.71 1375.65 711.1 1370.9 711.1 1370.9" style="fill:#f9a58f"/><path d="M665.17,1195s3.26-4.38,5.54-2.4c5.8,5-.6,10.77-4.71,11.91l-.83-9.51Z" style="fill:#d87464"/><path d="M667.43,1178.28h0c.06-.48.1-1,.13-1.43a37.11,37.11,0,1,0-71.71,11.21c6.73,20.15,10.73,34,20.63,40.91a6.35,6.35,0,0,1,2.63,5.57l-.51,9.36a12.67,12.67,0,0,1-5.84,10h0c19.94,9,29.06,1.59,29.06,1.59h0a13.59,13.59,0,0,1-4.33-10.71l.28-5.1a6.46,6.46,0,0,1,5.82-6.07h.05c35.53-3.5,23.14-42.61,23.83-55.33Z" style="fill:#f9a58f"/><path d="M629.3,1196.72a3.38,3.38,0,1,0-3.56,3.19,3.37,3.37,0,0,0,3.56-3.19Z" style="fill:#060633"/><path d="M661.7,1193a3.38,3.38,0,1,0-3.56,3.19,3.38,3.38,0,0,0,3.56-3.19Z" style="fill:#060633"/><path d="M605.41,1201.13s12.68-23.41,12.22-36.28l-23.33-3.33s-6.84,19.42,5,36.87l6.16,2.74Z" style="fill:#060633"/><path d="M644,1209.5a5.77,5.77,0,0,1-2.17-.56.76.76,0,0,1-.32-1,.77.77,0,0,1,1-.32h0a3.93,3.93,0,0,0,2.89.2,4.37,4.37,0,0,0,2.37-2.72c.13-.3.15-.35-.8-1-1.66-1.14-4.75-3.27-5.32-11.15a.74.74,0,1,1,1.48-.1c.53,7.15,3.13,8.94,4.69,10,.91.63,1.93,1.33,1.35,2.8a5.9,5.9,0,0,1-3.26,3.58,5,5,0,0,1-1.93.27Z" style="fill:#d87464"/><path d="M650.4,1183.9a1.13,1.13,0,0,1-.41-2.14,16.11,16.11,0,0,1,11.28-.18,1.12,1.12,0,0,1-.73,2.12,14.09,14.09,0,0,0-9.61.1,1.07,1.07,0,0,1-.53.1Z" style="fill:#060633"/><path d="M618.2,1190.2a1.08,1.08,0,0,1-.82-.43,1.14,1.14,0,0,1,.2-1.58,16,16,0,0,1,10.73-3.45,1.12,1.12,0,0,1,1,1.22,1.15,1.15,0,0,1-1.24,1,14.15,14.15,0,0,0-9.12,3,1.08,1.08,0,0,1-.75.23Z" style="fill:#060633"/><path d="M641.79,1219.29a31.23,31.23,0,0,1-9.85-2.35.75.75,0,1,1,.55-1.39c16.65,6.66,22.5-3.09,22.73-3.51a.75.75,0,1,1,1.3.75c0,.08-4.17,7.09-14.73,6.5Z" style="fill:#060633"/><path d="M606.54,1199.08a5.4,5.4,0,0,0-2.74-2.77c-2.51-1.18-7-2.55-10.23.38-4.8,4.3,3.7,16.86,13.07,11.37,0,0,2.73-2.45-.1-9Z" style="fill:#f9a58f"/><path d="M592.57,1156.94a18.23,18.23,0,0,1-2.8-11.8c2.05-.74,4.39.51,5.61,2.31a14.83,14.83,0,0,1,1.93,6.18c.33-5.44,5.16-9,9.34-11.75,5.1-3.29,10.56-6.48,16.66-7.34,8.4-1.19,17.1.53,25.47,1.41,6.27.35,12.58,1.5,18.79,1.94l3.62.44c1.8.25,5.41-.4,5.24,2.34a10.16,10.16,0,0,1-4.67,7.35,28.7,28.7,0,0,1-7.86,3.43,12.63,12.63,0,0,1,4.58.66,56.36,56.36,0,0,1,5.61,2.08,4.3,4.3,0,0,1,2.42,2.1,3.57,3.57,0,0,1,.19,1.75c-.62,5.38-7.09,8.84-11.65,10.2-14.79,4.41-30.57-.18-46-.45-6.91-.13-15.19,1.54-21.84-.75-2.24-.77-7.53-4.53-9.25-7.6a1.52,1.52,0,0,1,1.34-2.24,15.74,15.74,0,0,0,3.27-.26Z" style="fill:#060633"/><path d="M662.8,1168.84a47.64,47.64,0,0,1,4.78,14.23s2.17-13.09-.23-17.38-4.55,3.15-4.55,3.15Z" style="fill:#060633"/><path d="M702.94,1384.26s-64.56,26-85.93-2.37-33.65-68.7-33.65-68.7l29.55-6.91s14.11,49.51,30.09,57,64.6,6.52,64.6,6.52l6.17,9-10.83,5.51Z" style="fill:#f9a58f"/><polygon points="613.49 1297.45 624.29 1331.23 581.25 1342.36 575.87 1309.74 589.47 1294.39 613.49 1297.45 613.49 1297.45" style="fill:#fff"/><path d="M1580.32,1383s-48.59-3.45-63.39-13.56-56.63-52.89-56.63-52.89l30.24-18.34s41,48.9,45.42,52.45,46.67,18.75,46.67,18.75l-2.31,13.59Z" style="fill:#ef8f7d"/><path d="M1311.58,1455.51s71.85,129.31,73.14,137.69-14.22,161.58-14.22,161.58l30,10.9s51.47-108.45,60.13-144.79-27-115.81-27-115.81l-122-49.57Z" style="fill:#060633"/><polygon points="1676.63 1889.68 1680.21 1889.68 1680.21 1584.96 1676.63 1584.96 1676.63 1889.68 1676.63 1889.68" style="fill:#060633"/><polygon points="1726.14 1882.02 1729.52 1880.86 1630.7 1592.62 1627.31 1593.78 1726.14 1882.02 1726.14 1882.02" style="fill:#060633"/><polygon points="1785.68 1841.32 1788.19 1838.77 1571.15 1624.9 1568.64 1627.45 1785.68 1841.32 1785.68 1841.32" style="fill:#060633"/><polygon points="1811.91 1795.6 1813.38 1792.35 1535.44 1667.45 1533.97 1670.71 1811.91 1795.6 1811.91 1795.6" style="fill:#060633"/><polygon points="1828.01 1740.19 1828.12 1736.62 1523.56 1727.08 1523.45 1730.65 1828.01 1740.19 1828.01 1740.19" style="fill:#060633"/><polygon points="1538.99 1808.04 1810 1668.75 1808.37 1665.56 1537.35 1804.86 1538.99 1808.04 1538.99 1808.04" style="fill:#060633"/><polygon points="1630.7 1882.02 1729.52 1593.78 1726.14 1592.62 1627.31 1880.86 1630.7 1882.02 1630.7 1882.02" style="fill:#060633"/><polygon points="1571.15 1841.32 1788.19 1627.45 1785.68 1624.9 1568.64 1838.77 1571.15 1841.32 1571.15 1841.32" style="fill:#060633"/><path d="M1534,1733.47c0,82.28,66.94,149.23,149.23,149.23s149.23-67,149.23-149.23-66.94-149.25-149.23-149.25-149.23,67-149.23,149.25Zm-25,0c0-96.1,78.17-174.27,174.26-174.27s174.27,78.17,174.27,174.27-78.19,174.26-174.27,174.26-174.26-78.18-174.26-174.26Z" style="fill:#060633"/><path d="M1547.12,1733.47c0,75,61,136.06,136.06,136.06s136.07-61,136.07-136.06-61-136.07-136.07-136.07-136.06,61-136.06,136.07Zm-25,0c0-88.84,72.27-161.1,161.09-161.1s161.09,72.26,161.09,161.1-72.27,161.08-161.09,161.08-161.09-72.26-161.09-161.08Z" style="fill:#4851ec"/><polygon points="1175.05 1889.68 1178.63 1889.68 1178.63 1584.96 1175.05 1584.96 1175.05 1889.68 1175.05 1889.68" style="fill:#060633"/><polygon points="1224.56 1882.02 1227.94 1880.86 1129.11 1592.62 1125.73 1593.78 1224.56 1882.02 1224.56 1882.02" style="fill:#060633"/><polygon points="1284.11 1841.32 1286.61 1838.77 1069.57 1624.9 1067.06 1627.45 1284.11 1841.32 1284.11 1841.32" style="fill:#060633"/><polygon points="1310.33 1795.6 1311.8 1792.35 1033.86 1667.45 1032.39 1670.71 1310.33 1795.6 1310.33 1795.6" style="fill:#060633"/><polygon points="1326.43 1740.19 1326.54 1736.62 1021.98 1727.08 1021.86 1730.65 1326.43 1740.19 1326.43 1740.19" style="fill:#060633"/><polygon points="1037.4 1808.04 1308.42 1668.75 1306.79 1665.56 1035.77 1804.86 1037.4 1808.04 1037.4 1808.04" style="fill:#060633"/><polygon points="1129.11 1882.02 1227.94 1593.78 1224.56 1592.62 1125.73 1880.86 1129.11 1882.02 1129.11 1882.02" style="fill:#060633"/><polygon points="1069.57 1841.32 1286.61 1627.45 1284.11 1624.9 1067.06 1838.77 1069.57 1841.32 1069.57 1841.32" style="fill:#060633"/><path d="M1032.36,1733.47c0,82.28,67,149.23,149.24,149.23s149.24-67,149.24-149.23-67-149.25-149.24-149.25-149.24,67-149.24,149.25Zm-25,0c0-96.1,78.17-174.27,174.26-174.27s174.27,78.17,174.27,174.27-78.18,174.26-174.27,174.26-174.26-78.18-174.26-174.26Z" style="fill:#060633"/><path d="M1045.54,1733.47c0,75,61,136.06,136.06,136.06s136.07-61,136.07-136.06-61.05-136.07-136.07-136.07-136.06,61-136.06,136.07Zm-25,0c0-88.84,72.27-161.1,161.1-161.1s161.09,72.26,161.09,161.1-72.27,161.08-161.09,161.08-161.1-72.26-161.1-161.08Z" style="fill:#4851ec"/><path d="M1678,1735l9.82-11-28.61-25.54c-4.38-7.82-34-62.19-59.84-150.17l-14.16,4.15c28.38,96.7,60.47,152.13,61.83,154.44l.58,1L1678,1735Z" style="fill:#5473ba"/><polygon points="1411.06 1754.78 1588.09 1517.69 1571.21 1505.08 1394.18 1742.17 1411.06 1754.78 1411.06 1754.78" style="fill:#5473ba"/><polygon points="1377.9 1662.41 1577.06 1492.76 1567.49 1481.53 1368.34 1651.18 1377.9 1662.41 1377.9 1662.41" style="fill:#5473ba"/><polygon points="1398.73 1760.12 1412.83 1755.81 1355.93 1569.3 1341.83 1573.6 1398.73 1760.12 1398.73 1760.12" style="fill:#5473ba"/><path d="M1402.63,1754.8a6.32,6.32,0,0,0,.38-12.63l-209.24-12.8a5.65,5.65,0,0,1-3.08-10.13l162-123.8a6.32,6.32,0,1,0-7.68-10L1183,1709.2a18.3,18.3,0,0,0,10,32.8l209.24,12.79Z" style="fill:#5473ba"/><polygon points="1559.43 1472.92 1575.56 1468.01 1600.55 1549.97 1584.42 1554.88 1559.43 1472.92 1559.43 1472.92" style="fill:#7c9af2"/><path d="M1567,1480.3a4.65,4.65,0,0,0,1.22-.16,4.74,4.74,0,0,0,3.37-5.8l-7.84-29.39,27.07-36.09a4.74,4.74,0,1,0-7.58-5.69l-28.46,37.93a4.77,4.77,0,0,0-.79,4.07l8.44,31.61a4.73,4.73,0,0,0,4.57,3.52Z" style="fill:#7c9af2"/><path d="M1652.19,1726.87a30.56,30.56,0,1,1,30.55,30.57,30.55,30.55,0,0,1-30.55-30.57Z" style="fill:#5473ba"/><path d="M1664.31,1726.87a18.44,18.44,0,1,1,18.43,18.45,18.44,18.44,0,0,1-18.43-18.45Z" style="fill:#060633"/><path d="M1670.1,1726.87a12.65,12.65,0,1,1,12.64,12.65,12.64,12.64,0,0,1-12.64-12.65Z" style="fill:#7c9af2"/><path d="M1150.6,1726.87a30.56,30.56,0,1,1,30.57,30.57,30.56,30.56,0,0,1-30.57-30.57Z" style="fill:#5473ba"/><path d="M1162.72,1726.87a18.44,18.44,0,1,1,18.45,18.45,18.44,18.44,0,0,1-18.45-18.45Z" style="fill:#060633"/><path d="M1168.51,1726.87a12.65,12.65,0,1,1,12.66,12.65,12.65,12.65,0,0,1-12.66-12.65Z" style="fill:#7c9af2"/><path d="M1329.52,1570.81l34.07-9.74a.2.2,0,0,1,.24.13l1.75,6.1a.19.19,0,0,1-.14.24l-34.07,9.76a.2.2,0,0,1-.24-.14l-1.75-6.11a.21.21,0,0,1,.14-.24Z" style="fill:#7c9af2"/><polygon points="1328.76 1530.01 1342.94 1525.95 1354.25 1565.47 1340.07 1569.52 1328.76 1530.01 1328.76 1530.01" style="fill:#7c9af2"/><polygon points="1321.15 1489.14 1328.52 1487.03 1341.85 1533.63 1334.48 1535.74 1321.15 1489.14 1321.15 1489.14" style="fill:#7c9af2"/><path d="M1254,1472.4c4.22,5.27,26.35,22.12,46.37,22.12s43.2-5.27,59,0,13.69-17.91,0-19-97-20-103.27-16.86-2.11,13.7-2.11,13.7Z" style="fill:#060633"/><path d="M1360.47,1749.88a40,40,0,1,1,40,40,40,40,0,0,1-40-40Z" style="fill:#7c9af2"/><polygon points="1407.21 1801.2 1410.68 1800.37 1402.26 1765.27 1398.78 1766.1 1407.21 1801.2 1407.21 1801.2" style="fill:#7c9af2"/><polygon points="1377.34 1805.97 1440.56 1805.97 1440.56 1795.6 1377.34 1795.6 1377.34 1805.97 1377.34 1805.97" style="fill:#7c9af2"/><path d="M1435.48,1739.16s-21.72,28.16-17.7,35.39c7.28,13.08,24.11,31.71,19.1,35.94s-54.26-26.08-52.62-31.77,16.34-17.06,28.4-49.48l22.82,9.92Z" style="fill:#f9a58f"/><path d="M1391.45,1768.23c-3.86,5-6.6,8.47-7.19,10.49-1.64,5.69,47.61,36,52.62,31.77,3.72-3.14-4.37-14.32-11.93-25.13-5,2.58-14.12,5.73-33.5-17.13Z" style="fill:#060633"/><path d="M1298,1400.64s-34.66,51.91-15.36,70.95,161.41,84.24,164.75,100.78-42.7,164.43-42.7,164.43l25.33,20.64s92.63-147,88.45-181.77c-5.72-47.53-117.71-130.47-117.71-130.47l-3.06-22.49-99.7-22.07Z" style="fill:#0b0755"/><path d="M1587,1412.33s15.8-3.16,15.8-9.48,2.1-10.53,0-11.59-30.56-2.1-30.56-2.1l-37.93-2.11-3.16,14.75h44.26l2.1,10.53Z" style="fill:#060633"/><polygon points="1600.94 1404.02 1633.25 1401.27 1631.74 1390.37 1597.36 1393.44 1600.94 1404.02 1600.94 1404.02" style="fill:#060633"/><path d="M1624.26,1396.52c0-6.4,4-11.58,9-11.58s9,5.18,9,11.58-4,11.59-9,11.59-9-5.19-9-11.59Z" style="fill:#060633"/><path d="M1513.43,1365l2.55.55c7.85,1.73,36.34,8.12,40.64,16,1.71,3.13-17.44,13-17.44,13s-28.71-3.76-36.72-11.58,11-18,11-18Z" style="fill:#f9a58f"/><path d="M1533.79,1390.37s5.75,16.31,7.84,16.23-1.68-15.49-1.68-15.49l-6.16-.74Z" style="fill:#f9a58f"/><path d="M1540.6,1389.92s9.44,24,13.06,23.06-8.49-26-8.49-26l-4.57,2.89Z" style="fill:#f9a58f"/><path d="M1547,1388.22s11.5,23.11,15,21.82-10.73-25.1-10.73-25.1l-4.3,3.28Z" style="fill:#f9a58f"/><path d="M1552.32,1384.83s10.5,21.81,14,20.46-9.69-23.76-9.69-23.76l-4.3,3.3Z" style="fill:#f9a58f"/><path d="M1582.63,1369.36l2.54.56c7.87,1.73,35.7,9,40,16.91,1.7,3.12-16.79,12.08-16.79,12.08s-23-4.27-31-12.08,5.22-17.47,5.22-17.47Z" style="fill:#ef8f7d"/><path d="M1619.14,1388.41s11.38,13,13.3,12.19-7.28-13.77-7.28-13.77l-6,1.58Z" style="fill:#ef8f7d"/><path d="M1609.8,1393.07s9.43,24,13.06,23.06-8.5-26-8.5-26l-4.56,2.9Z" style="fill:#ef8f7d"/><path d="M1614.73,1391.08s11.49,23.12,15,21.83S1619,1387.8,1619,1387.8l-4.29,3.28Z" style="fill:#ef8f7d"/><path d="M1605.55,1393.83s3.54,24,7.27,23.69-2.2-25.55-2.2-25.55l-5.07,1.86Z" style="fill:#ef8f7d"/><path d="M1512.79,1394.54a11.59,11.59,0,1,1,11.59,11.59,11.58,11.58,0,0,1-11.59-11.59Z" style="fill:#060633"/><polygon points="1513.43 1364.98 1508.72 1363.48 1501.47 1375.32 1511.57 1371.36 1513.43 1364.98 1513.43 1364.98" style="fill:#f9a58f"/><path d="M1403,1425.26s-79.72-6.27-110.65-20.51c0,0,15.94-18.87,19.21-29.43s24-105.09,49.83-130.89c14.15-14.16,78.42,1.28,99,12.86s40.07,46.34,40.07,46.34l-27.8,32.82-16.9-20s1.28,10.3-1.94,18.67-23.8,12.87-23.8,12.87-25.75,44.9-25.75,49.15-1.29,28.07-1.29,28.07Z" style="fill:#fa7267"/><path d="M1502.46,1383s-75.16,7.85-93.52-7.43-40.61-78.76-40.61-78.76l37.91-10.52s4.9,52.13,29.15,63.07,73.33,14.16,73.33,14.16l-6.26,19.48Z" style="fill:#f9a58f"/><polygon points="1406.88 1267.16 1407.23 1268.89 1415.04 1307.49 1368.34 1323.79 1363.13 1284.32 1394.01 1257.29 1406.88 1267.16 1406.88 1267.16" style="fill:#fa7267"/><path d="M1368.33,1324.24l.15,0,46.7-16.31a.45.45,0,0,0,.3-.51l-5.79-28.61a.45.45,0,0,0-.52-.35.44.44,0,0,0-.35.53l5.71,28.23-45.87,16-6.81-32.75a.44.44,0,0,0-.52-.34.42.42,0,0,0-.35.52l6.92,33.25a.47.47,0,0,0,.22.31.5.5,0,0,0,.21,0Z" style="fill:#060633"/><path d="M1409.76,1207s-43.3-27.41-17.37-77.64c0,0,41.68-27.84,68.74-4.86s14.59,51.61,13,55.33-64.35,27.17-64.35,27.17Z" style="fill:#060633"/><path d="M1441.2,1118.28a40.4,40.4,0,0,0-44.09,30.09,39.92,39.92,0,0,0-.2,18.87c2.76,14.83,5.09,26.79,9.11,36a40.07,40.07,0,0,1,1.39,29.3l-3.37,9.68c20.74,16,33,6.46,33,6.46l4.5-23h0c25.44,1.91,31.11-44.62,33.76-58.18h0c.12-.51.24-1,.34-1.52a40.24,40.24,0,0,0-34.44-47.67Z" style="fill:#f9a58f"/><path d="M1463.8,1184.15a3.51,3.51,0,1,0-4.37,2.37,3.52,3.52,0,0,0,4.37-2.37Z" style="fill:#060633"/><path d="M1430.54,1181.43a3.52,3.52,0,1,0-4.38,2.36,3.51,3.51,0,0,0,4.38-2.36Z" style="fill:#060633"/><path d="M1422.38,1169.53a1.46,1.46,0,0,1-.63-2.67,17.5,17.5,0,0,1,11.5-2.21,1.43,1.43,0,0,1,1.21,1.66,1.49,1.49,0,0,1-1.66,1.22,14.59,14.59,0,0,0-9.45,1.77,1.42,1.42,0,0,1-1,.23Z" style="fill:#060633"/><path d="M1456.68,1168.18a1.46,1.46,0,0,1,.89-2.6,17.39,17.39,0,0,1,10.89,4.33,1.46,1.46,0,0,1,.14,2.06,1.48,1.48,0,0,1-2.07.13,14.51,14.51,0,0,0-8.91-3.6,1.41,1.41,0,0,1-.94-.32Z" style="fill:#060633"/><path d="M1443.49,1197.6a6.23,6.23,0,0,0,6.61-4.36,1.18,1.18,0,0,0-.1-.9c-2.78-5.18-1.12-11.63-1.11-11.7a1.23,1.23,0,0,0-.88-1.5,1.21,1.21,0,0,0-1.49.87c-.08.29-1.84,7.06,1.06,13-.43.9-1.82,2.84-5.66,1.89a1.21,1.21,0,0,0-1.48.9,1.23,1.23,0,0,0,.89,1.49,10.46,10.46,0,0,0,2.16.32Z" style="fill:#d87464"/><path d="M1398.21,1181.18c2.88,7.56,24-40.47,48.27-38s26.14,38.9,26.14,38.9,9.32-18.74,3.46-36.06-26-37-52-29.41-39.59,28.52-25.83,64.57Z" style="fill:#060633"/><path d="M1406.8,1180.67a6,6,0,0,0-2.54-3.38c-2.52-1.64-7.09-3.78-11-1.12-5.79,3.9,1.45,18.68,12.35,14.17,0,0,3.29-2.22,1.24-9.67Z" style="fill:#f9a58f"/><path d="M1454.15,1203.52s-4.44-3.44-6.29-3.12a5.29,5.29,0,0,0-3.06,2.41,4.1,4.1,0,0,0-3.06-2.53c-2.2-.24-9.94,3.19-9.94,3.19s6,10,12.78,9.46,9.57-9.41,9.57-9.41Z" style="fill:#ea6868"/><path d="M1431.8,1203.47s13.56.75,22.35,0c0,0-4.66,6.46-9.81,6s-12.54-6-12.54-6Z" style="fill:#91b5f8"/><path d="M1388.15,1118.64c-5.06-1.73-11.31-.72-14.62,3.47-1.44,1.82-2.23,4.07-3.46,6-5,8-15.78,10.07-25.2,9.5s-19-2.91-28.15-.51a11.55,11.55,0,0,0-5,2.4c-2.44,2.27-3,5.87-3.38,9.18q-.75,6.3-1.51,12.61c-.34,2.75-.7,5.6-2.15,8-3.11,5-9.82,6.11-14.92,9.13-10.68,6.36-13,22.33-6.42,32.85a27.66,27.66,0,0,0,43.79,4c4.3-4.67,6.86-10.66,10.68-15.73s9.75-9.42,16-8.43c3.06.49,6.24,2.21,9.1,1a8.82,8.82,0,0,0,3.29-3,41.21,41.21,0,0,0,7.56-19.46c.41-3.58.38-7.33,2-10.56,4.18-8.46,17.85-10.33,19.39-19.64.34-2,0-4.13.59-6.08,1.35-4.39,3.67-3.6,1.92-8-1.17-2.92-6.83-5.73-9.54-6.65Z" style="fill:#060633"/></svg>