<svg xmlns="http://www.w3.org/2000/svg" viewBox="0 0 348 108"><line x1="88.31" y1="40.08" x2="132" y2="40.08" style="fill:none;stroke:#e5593f;stroke-linecap:round;stroke-linejoin:round;stroke-width:5px"/><circle cx="42" cy="40.08" r="30" style="fill:#e5593f"/><path d="M29.24,31.26H54.76a1.72,1.72,0,0,1,1.64,1.79V47.1a1.73,1.73,0,0,1-1.64,1.8H29.48a1.71,1.71,0,0,1-1.64-1.76L27.6,33.08A1.72,1.72,0,0,1,29.24,31.26Z" style="fill:none;stroke:#fff;stroke-linecap:round;stroke-linejoin:round;stroke-width:2px"/><path d="M27.6,33.32l13.52,5.76a1.51,1.51,0,0,0,1.69.07L56.4,33.31" style="fill:none;stroke:#fff;stroke-linecap:round;stroke-linejoin:round;stroke-width:2px"/><path d="M34.05,85.43H31.39V84H38.3v1.44H35.64v7H34.05Z" style="fill:#e5593f"/><path d="M42.1,86.47h1.41v5.92H42.13l-.07-.87a2.25,2.25,0,0,1-1.92,1,3.12,3.12,0,0,1,0-6.24,2.17,2.17,0,0,1,1.89,1Zm-3.55,3a1.69,1.69,0,0,0,1.76,1.79,1.79,1.79,0,0,0,0-3.58A1.69,1.69,0,0,0,38.55,89.43Z" style="fill:#e5593f"/><path d="M46,84v8.39H44.51V84Z" style="fill:#e5593f"/><path d="M48.43,84v4.85l2-2.38h1.75v.09l-2.41,2.7,2.75,3v.11H50.75l-2.32-2.68v2.68H47V84Z" style="fill:#e5593f"/><line x1="220.31" y1="40.08" x2="264" y2="40.08" style="fill:none;stroke:#e5593f;stroke-linecap:round;stroke-linejoin:round;stroke-width:5px"/><path d="M154.7,86a2.42,2.42,0,0,0-2-.94c-1.17,0-1.73.5-1.73,1.12s.86.93,1.87,1c1.75.22,3.38.68,3.38,2.68s-1.66,2.67-3.53,2.67c-1.71,0-3-.52-3.66-2.06l1.32-.68a2.41,2.41,0,0,0,2.37,1.33c1,0,1.93-.35,1.93-1.26s-.83-1.12-2-1.24c-1.71-.2-3.29-.66-3.29-2.54s1.7-2.43,3.25-2.45A3.39,3.39,0,0,1,156,85.37Z" style="fill:#e5593f"/><path d="M162.17,91.63a3,3,0,0,1-2.28.94,3.13,3.13,0,1,1,0-6.26,2.84,2.84,0,0,1,2.14.87l-.93,1a1.78,1.78,0,0,0-1.18-.46,1.67,1.67,0,0,0-1.71,1.75,1.61,1.61,0,0,0,1.68,1.72,1.78,1.78,0,0,0,1.3-.49Z" style="fill:#e5593f"/><path d="M164,84v3.29a2.18,2.18,0,0,1,1.85-.89c1.68,0,2.42,1.14,2.42,2.88v3.12h-1.46V89.28c0-1.08-.56-1.53-1.34-1.53A1.52,1.52,0,0,0,164,89.37v3h-1.46V84Z" style="fill:#e5593f"/><path d="M170.56,90a1.58,1.58,0,0,0,1.76,1.26,2.45,2.45,0,0,0,1.59-.55l.93.92a3.61,3.61,0,0,1-2.54,1,3.13,3.13,0,1,1-.11-6.25c2,0,3.22,1.23,3,3.66Zm3.21-1.21c-.09-.77-.69-1.15-1.53-1.15a1.6,1.6,0,0,0-1.66,1.15Z" style="fill:#e5593f"/><path d="M182.21,84v8.39h-1.37l-.09-.82a2.16,2.16,0,0,1-1.91,1,2.9,2.9,0,0,1-3.05-3.09,2.84,2.84,0,0,1,3-3.1,2.46,2.46,0,0,1,1.95,1V84Zm-5,5.43a1.65,1.65,0,0,0,1.68,1.73,1.73,1.73,0,0,0,0-3.46A1.63,1.63,0,0,0,177.26,89.43Z" style="fill:#e5593f"/><path d="M184.61,86.47v3.1A1.41,1.41,0,0,0,186,91.15a1.55,1.55,0,0,0,1.51-1.65v-3H189V92.4h-1.31l-.09-.8a2.63,2.63,0,0,1-2,.88c-1.42,0-2.45-1.06-2.45-2.9V86.47Z" style="fill:#e5593f"/><path d="M191.51,84v8.39h-1.45V84Z" style="fill:#e5593f"/><path d="M193.8,90a1.59,1.59,0,0,0,1.77,1.26,2.43,2.43,0,0,0,1.58-.55l.94.92a3.65,3.65,0,0,1-2.55,1,3.13,3.13,0,1,1-.1-6.25c2,0,3.21,1.23,3,3.66ZM197,88.74a1.36,1.36,0,0,0-1.54-1.15,1.58,1.58,0,0,0-1.65,1.15Z" style="fill:#e5593f"/><path d="M284.82,84v6.93h4.32v1.47h-5.9V84Z" style="fill:#ccc"/><path d="M295.79,89.44a3.08,3.08,0,1,1-3.1-3.08A3,3,0,0,1,295.79,89.44Zm-4.69,0a1.61,1.61,0,1,0,3.21,0,1.67,1.67,0,0,0-1.61-1.75A1.62,1.62,0,0,0,291.1,89.44Z" style="fill:#ccc"/><path d="M301.63,91.63a3,3,0,0,1-2.28.94,3.13,3.13,0,1,1,0-6.26,2.84,2.84,0,0,1,2.14.87l-.93,1a1.8,1.8,0,0,0-1.18-.46,1.67,1.67,0,0,0-1.71,1.75,1.61,1.61,0,0,0,1.68,1.72,1.78,1.78,0,0,0,1.3-.49Z" style="fill:#ccc"/><path d="M306.73,86.47h1.4v5.92h-1.38l-.07-.87a2.23,2.23,0,0,1-1.92,1,3.12,3.12,0,0,1,0-6.24,2.16,2.16,0,0,1,1.88,1Zm-3.55,3a1.69,1.69,0,0,0,1.75,1.79,1.79,1.79,0,0,0,0-3.58A1.68,1.68,0,0,0,303.18,89.43Z" style="fill:#ccc"/><path d="M310.94,84.81v1.68h1.63v1.26h-1.64V90.3a.74.74,0,0,0,.77.84,1.66,1.66,0,0,0,.71-.18l.4,1.25a3.16,3.16,0,0,1-1.21.25,1.91,1.91,0,0,1-2.12-2.16V87.75h-1.1V86.49h1.1V85Z" style="fill:#ccc"/><path d="M315,84.81a.86.86,0,0,1-1.72,0A.86.86,0,0,1,315,84.81Zm-1.59,1.64v5.94h1.46V86.45Z" style="fill:#ccc"/><path d="M322,89.44a3.08,3.08,0,1,1-3.09-3.08A3,3,0,0,1,322,89.44Zm-4.69,0a1.61,1.61,0,1,0,3.22,0,1.67,1.67,0,0,0-1.61-1.75A1.62,1.62,0,0,0,317.29,89.44Z" style="fill:#ccc"/><path d="M327.11,92.39v-3.1a1.41,1.41,0,0,0-1.43-1.58,1.56,1.56,0,0,0-1.51,1.66v3h-1.45V86.46H324l.1.81a2.66,2.66,0,0,1,1.94-.89c1.39,0,2.51,1,2.51,2.9v3.11Z" style="fill:#ccc"/><circle cx="306.37" cy="39.54" r="30" style="fill:#ccc"/><circle cx="174.07" cy="40.08" r="30" style="fill:#e5593f"/><line x1="173.93" y1="22.08" x2="173.93" y2="26.59" style="fill:none;stroke:#fff;stroke-linecap:round;stroke-linejoin:round;stroke-width:2px"/><line x1="173.93" y1="31.13" x2="173.93" y2="40.13" style="fill:none;stroke:#fff;stroke-linecap:round;stroke-linejoin:round;stroke-width:2px"/><line x1="156.07" y1="40.12" x2="160.59" y2="40.22" style="fill:none;stroke:#fff;stroke-linecap:round;stroke-linejoin:round;stroke-width:2px"/><line x1="174.02" y1="58.08" x2="174.12" y2="53.56" style="fill:none;stroke:#fff;stroke-linecap:round;stroke-linejoin:round;stroke-width:2px"/><line x1="192.07" y1="40.32" x2="187.56" y2="40.12" style="fill:none;stroke:#fff;stroke-linecap:round;stroke-linejoin:round;stroke-width:2px"/><line x1="161.17" y1="27.57" x2="164.31" y2="30.81" style="fill:none;stroke:#fff;stroke-linecap:round;stroke-linejoin:round;stroke-width:2px"/><line x1="161.57" y1="52.97" x2="164.71" y2="49.74" style="fill:none;stroke:#fff;stroke-linecap:round;stroke-linejoin:round;stroke-width:2px"/><line x1="186.87" y1="52.88" x2="183.74" y2="49.54" style="fill:none;stroke:#fff;stroke-linecap:round;stroke-linejoin:round;stroke-width:2px"/><line x1="186.87" y1="27.37" x2="183.64" y2="30.51" style="fill:none;stroke:#fff;stroke-linecap:round;stroke-linejoin:round;stroke-width:2px"/><line x1="176.57" y1="44.44" x2="173.93" y2="40.13" style="fill:none;stroke:#fff;stroke-linecap:round;stroke-linejoin:round;stroke-width:2px"/><path d="M323.22,34.49a16.85,16.85,0,1,0-26.07,14.09,18,18,0,0,1,6.63,8.2l1.69,4a1,1,0,0,0,1.8,0L309,56.62a17.48,17.48,0,0,1,6.5-8A16.81,16.81,0,0,0,323.22,34.49Z" style="fill:none;stroke:#fff;stroke-linecap:round;stroke-linejoin:round;stroke-width:2px"/></svg>