<svg xmlns="http://www.w3.org/2000/svg" viewBox="0 0 120 120"><polygon points="40.45 37.33 23.9 62.52 16.84 52.31 12.62 56.87 19.73 67.47 20.65 67.47 27.17 67.47 27.49 67.47 47.22 37.33 40.45 37.33" style="fill:tomato"/><path d="M87,54.92a.71.71,0,0,0,.21-.5v-4a.7.7,0,0,0-.7-.69H85.21V45.31a.7.7,0,0,0-1.4,0v4.44H78.32V45.31a.7.7,0,1,0-1.39,0v4.44H75.65a.69.69,0,0,0-.7.69v4a.67.67,0,0,0,.21.5l2.28,2.23.92,3.74a.69.69,0,0,0,.68.53h1.33v14.5a.7.7,0,1,0,1.4,0V61.42H83.1a.71.71,0,0,0,.68-.53l.91-3.74Zm-3.41,1.37a.77.77,0,0,0-.19.34L82.55,60h-3l-.83-3.4a.68.68,0,0,0-.19-.34l-2.21-2.16v-3h9.44v3Z" style="fill:#444"/><path d="M81.82,53.15H80.31a.7.7,0,0,0,0,1.4h1.51a.7.7,0,0,0,0-1.4Z" style="fill:#444"/><path d="M106.89,51.72A12.07,12.07,0,0,1,99.8,34.6a.7.7,0,0,0-.94-.94,12.1,12.1,0,0,1-17.13-7.09.7.7,0,0,0-1.33,0,12.08,12.08,0,0,1-17.12,7.09.71.71,0,0,0-.82.12.7.7,0,0,0-.12.82,12.08,12.08,0,0,1-7.1,17.12.72.72,0,0,0-.49.67.7.7,0,0,0,.49.67,12.08,12.08,0,0,1,7.1,17.12.7.7,0,0,0,.12.82.71.71,0,0,0,.82.12,12,12,0,0,1,10.22-.45,11.86,11.86,0,0,1,3.38,2.11.73.73,0,0,0,.46.17.7.7,0,0,0,.46-1.22A13.13,13.13,0,0,0,74,69.38a13.37,13.37,0,0,0-9.72-.23,13.48,13.48,0,0,0-6.94-16.76,13.47,13.47,0,0,0,6.94-16.75,13.48,13.48,0,0,0,16.76-6.95,13.46,13.46,0,0,0,16.75,7,13.47,13.47,0,0,0,6.94,16.75,13.48,13.48,0,0,0-6.94,16.76,13.5,13.5,0,0,0-13.49,2.58.7.7,0,0,0-.06,1,.71.71,0,0,0,1,.06,11.72,11.72,0,0,1,3.38-2.11,12,12,0,0,1,10.22.45.7.7,0,0,0,.94-.94,12.07,12.07,0,0,1,7.09-17.12.7.7,0,0,0,.49-.67A.72.72,0,0,0,106.89,51.72Z" style="fill:#444"/><path d="M84.59,63.88a.69.69,0,0,0-.46.87.7.7,0,0,0,.87.47,13.41,13.41,0,1,0-7.86,0,.69.69,0,0,0,.2,0,.7.7,0,0,0,.21-1.37,12,12,0,1,1,7,0Z" style="fill:#444"/><path d="M28.35,90.11a2.47,2.47,0,0,0-1.72-.68,2.27,2.27,0,0,0-2.35,2.4,2.2,2.2,0,0,0,2.35,2.31,2.41,2.41,0,0,0,1.6-.61V92.11H26.4v-.52h2.37v2.17a2.88,2.88,0,0,1-2.14.92,2.72,2.72,0,0,1-2.91-2.85,2.76,2.76,0,0,1,2.91-2.92,2.92,2.92,0,0,1,2.05.84Z"/><path d="M30,90.65v2.21a1.18,1.18,0,0,0,1.3,1.29A1.28,1.28,0,0,0,32.6,92.8V90.65h.53V94.6h-.5v-.66a1.62,1.62,0,0,1-1.4.72,1.65,1.65,0,0,1-1.74-1.79V90.65Z"/><path d="M37.38,90.65h.5V94.6h-.5v-.78a1.8,1.8,0,0,1-1.56.86,2,2,0,0,1,0-4.09,1.75,1.75,0,0,1,1.55.84Zm-3,2a1.48,1.48,0,0,0,1.5,1.56,1.55,1.55,0,0,0,0-3.1A1.48,1.48,0,0,0,34.34,92.62Z"/><path d="M39.31,90.65l0,.65a1.32,1.32,0,0,1,1.25-.71,1.44,1.44,0,0,1,.9.28l-.25.44a1.23,1.23,0,0,0-1.9,1V94.6h-.54V90.65Z"/><path d="M45,90.65h.5V94.6H45v-.78a1.83,1.83,0,0,1-1.57.86,2,2,0,0,1,0-4.09,1.74,1.74,0,0,1,1.55.84Zm-3,2a1.48,1.48,0,0,0,1.5,1.56,1.55,1.55,0,0,0,0-3.1A1.48,1.48,0,0,0,42,92.62Z"/><path d="M49.56,94.6V92.38a1.17,1.17,0,0,0-1.29-1.29A1.3,1.3,0,0,0,47,92.45V94.6h-.54V90.65H47v.66a1.6,1.6,0,0,1,1.38-.72,1.64,1.64,0,0,1,1.76,1.79V94.6Z"/><path d="M51.88,89.48v1.18h1.28v.45H51.88v2.23c0,.5.14.83.67.83a1.56,1.56,0,0,0,.58-.15l.17.44a1.83,1.83,0,0,1-.76.2c-.85,0-1.19-.49-1.19-1.32V91.11h-.81v-.45h.81V89.54Z"/><path d="M54,92.85a1.42,1.42,0,0,0,1.5,1.31,1.79,1.79,0,0,0,1.33-.54l.36.32a2.22,2.22,0,0,1-1.69.73,2,2,0,0,1,0-4.09,1.86,1.86,0,0,1,2,2.27Zm2.94-.46a1.34,1.34,0,0,0-1.46-1.33A1.42,1.42,0,0,0,54,92.39Z"/><path d="M58.33,92.85a1.42,1.42,0,0,0,1.5,1.31,1.79,1.79,0,0,0,1.33-.54l.36.32a2.22,2.22,0,0,1-1.69.73,2,2,0,0,1,0-4.09,1.86,1.86,0,0,1,2,2.27Zm2.94-.46a1.34,1.34,0,0,0-1.46-1.33,1.42,1.42,0,0,0-1.48,1.33Z"/><path d="M66.23,89v5.6h-.52v-.79a1.75,1.75,0,0,1-1.55.86,2,2,0,0,1,0-4.09,1.71,1.71,0,0,1,1.55.85V89Zm-3.54,3.62a1.43,1.43,0,0,0,1.49,1.54,1.54,1.54,0,0,0,0-3.07A1.42,1.42,0,0,0,62.69,92.62Z"/><path d="M72.58,90.15A1.91,1.91,0,0,0,71,89.44c-.69,0-1.58.2-1.58,1,0,.65.73.83,1.6,1,1.1.19,2.22.44,2.22,1.63S72,94.69,71,94.69a2.48,2.48,0,0,1-2.34-1.24l.49-.27a2,2,0,0,0,1.85,1c.69,0,1.67-.18,1.67-1.08s-.84-.95-1.71-1.1c-1.05-.18-2.09-.42-2.09-1.5S70,88.92,71,88.92a2.33,2.33,0,0,1,2.09,1Z"/><path d="M77.21,90.65h.5V94.6h-.49v-.78a1.83,1.83,0,0,1-1.57.86,2,2,0,0,1,0-4.09,1.74,1.74,0,0,1,1.55.84Zm-3,2a1.48,1.48,0,0,0,1.5,1.56,1.55,1.55,0,0,0,0-3.1A1.48,1.48,0,0,0,74.17,92.62Z"/><path d="M82.19,90.65l-1.66,4h-.59l-1.66-4h.59L80.23,94l1.37-3.37Z"/><path d="M83.41,89.41a.38.38,0,0,1-.76,0A.38.38,0,0,1,83.41,89.41Zm-.66,1.22v4h.54v-4Z"/><path d="M87.34,94.6V92.38a1.18,1.18,0,0,0-1.29-1.29,1.3,1.3,0,0,0-1.3,1.36V94.6h-.53V90.65h.51l0,.66a1.58,1.58,0,0,1,1.37-.72,1.64,1.64,0,0,1,1.76,1.79V94.6Z"/><path d="M92.17,90.38l.37.3-.43.51a1.75,1.75,0,0,1,.53,1.31,1.66,1.66,0,0,1-1.19,1.65,1.35,1.35,0,0,1,1.17,1.3c0,1-1,1.5-2,1.5s-2-.6-2-1.63h.53c0,.74.71,1.11,1.47,1.11s1.48-.28,1.48-1-.75-1-1.48-1a1.88,1.88,0,0,1-2.08-1.94,2,2,0,0,1,2.08-2,2.29,2.29,0,0,1,1.16.32ZM89.06,92.5a1.38,1.38,0,0,0,1.53,1.44A1.44,1.44,0,0,0,92.1,92.5a1.4,1.4,0,0,0-1.51-1.44A1.43,1.43,0,0,0,89.06,92.5Z"/><path d="M95.91,91.46a1.57,1.57,0,0,0-1.17-.4c-.58,0-1.09.2-1.07.64s.58.57,1.08.64c.71.11,1.63.23,1.63,1.19s-.83,1.15-1.63,1.15A2.09,2.09,0,0,1,93,93.91l.34-.37a1.74,1.74,0,0,0,1.42.64c.45,0,1.08-.12,1.08-.66s-.51-.62-1.14-.7-1.55-.29-1.56-1.11.82-1.15,1.59-1.14a2.08,2.08,0,0,1,1.49.54Z"/></svg>