<svg xmlns="http://www.w3.org/2000/svg" viewBox="0 0 120 120"><path d="M35,37.67h7V38L32.36,51.9l9.82,14.19v.2H35.1L28.35,56.23,21.61,66.29H14.53v-.2L24.27,51.9,14.66,38v-.28h7l6.7,10.18Z" style="fill:tomato"/><path d="M103.25,53.91h1.52a.7.7,0,0,0,.64-1L96.06,31.4a.69.69,0,0,0-.64-.42H69.64a.72.72,0,0,0-.59.31A.68.68,0,0,0,69,32l1.22,2.83H66.14a.67.67,0,0,0-.46.17l-.09.09a.56.56,0,0,0-.09.17L55.23,58.88a.7.7,0,0,0,.36.92.87.87,0,0,0,.28.05.69.69,0,0,0,.64-.42l9.63-22.2,9.64,22.2a.69.69,0,0,0,.64.42h24.29V75.22H77.49V66.9a.7.7,0,0,0-1.4,0v8.32H59.93V66.9a.7.7,0,1,0-1.4,0v9a.7.7,0,0,0,.7.7h42.18a.71.71,0,0,0,.7-.7V59.85h2.66a.7.7,0,0,0,.64-1ZM95,32.37l8.74,20.15H79.44L70.7,32.37ZM76.88,58.46,67.21,36.17h3.62l7.51,17.32a.69.69,0,0,0,.64.42h22.75l2,4.55Z" style="fill:#444"/><path d="M67.78,57.17a.7.7,0,0,0-.91.39l-2.12,5.29a.69.69,0,0,0,.65,1h3.2l-1.73,4.34a.7.7,0,0,0,.39.91.75.75,0,0,0,.26,0,.71.71,0,0,0,.65-.44l2.11-5.3a.69.69,0,0,0-.07-.65.69.69,0,0,0-.57-.31H66.43l1.74-4.33A.7.7,0,0,0,67.78,57.17Z" style="fill:#444"/><path d="M44.41,93.54l0-1.85V89h.56v5.6H44.6L41,90.1l0,1.65V94.6h-.56V89h.35Z"/><path d="M49.74,92.63a2,2,0,1,1-2-2A2,2,0,0,1,49.74,92.63Zm-3.53,0a1.5,1.5,0,1,0,3,0,1.5,1.5,0,1,0-3,0Z"/><path d="M52.89,92.74V94.6h-.56V89h2.5a1.87,1.87,0,1,1,0,3.74Zm0-.53h1.94a1.34,1.34,0,0,0,0-2.68H52.89Z"/><path d="M60.51,90.65H61V94.6h-.5v-.78a1.8,1.8,0,0,1-1.56.86,2,2,0,0,1,0-4.09,1.75,1.75,0,0,1,1.56.84Zm-3,2A1.48,1.48,0,0,0,59,94.18a1.55,1.55,0,0,0,0-3.1A1.48,1.48,0,0,0,57.47,92.62Z"/><path d="M65.06,94.6V92.38a1.18,1.18,0,0,0-1.29-1.29,1.3,1.3,0,0,0-1.3,1.36V94.6h-.53V90.65h.51l0,.66a1.58,1.58,0,0,1,1.37-.72,1.63,1.63,0,0,1,1.76,1.79V94.6Z"/><path d="M69.6,94.6V92.38a1.17,1.17,0,0,0-1.29-1.29A1.3,1.3,0,0,0,67,92.45V94.6h-.54V90.65H67v.66a1.6,1.6,0,0,1,1.38-.72,1.64,1.64,0,0,1,1.76,1.79V94.6Z"/><path d="M71.32,92.85a1.43,1.43,0,0,0,1.5,1.31,1.79,1.79,0,0,0,1.33-.54l.36.32a2.22,2.22,0,0,1-1.69.73,2,2,0,0,1,0-4.09,1.86,1.86,0,0,1,2,2.27Zm2.94-.46a1.34,1.34,0,0,0-1.46-1.33,1.42,1.42,0,0,0-1.48,1.33Z"/><path d="M76,89v5.6h-.54V89Z"/><path d="M79.55,91.46a1.57,1.57,0,0,0-1.17-.4c-.58,0-1.09.2-1.07.64s.58.57,1.08.64c.71.11,1.63.23,1.63,1.19s-.83,1.15-1.63,1.15a2.09,2.09,0,0,1-1.75-.77l.34-.37a1.74,1.74,0,0,0,1.42.64c.45,0,1.08-.12,1.08-.66s-.51-.62-1.14-.7-1.55-.29-1.56-1.11.81-1.15,1.59-1.14a2.08,2.08,0,0,1,1.49.54Z"/></svg>