<svg xmlns="http://www.w3.org/2000/svg" viewBox="0 0 320 200"><path d="M288.87,50.48c5.58.82,10.61,3.71,11.18,10,.54,5.94-4,11.83-1.75,17.72,2.3,6,8.88,8.11,6.48,15.58-.86,2.66-2.23,5.26-2.16,8,.14,5.86,5.86,9.44,8.65,14,3.6,5.93,2.27,14.1-2.53,19-9.12,9.27-24.6,5.94-36.11,5.06C266,139.37,259.92,136,258.24,129c-1.94-8.06,3.15-12,6.32-18.33,3.09-6.21-.71-13.52-.8-20.45-.11-7.75,6.15-12,7.3-19.13.83-5.15-2.07-10.46.82-15.32a11.29,11.29,0,0,1,7.27-4.86A26.53,26.53,0,0,1,288.87,50.48Z" style="fill:#7c9af2"/><path d="M285.57,159.83a.38.38,0,0,1-.4-.36V66.3a.4.4,0,0,1,.79,0v93.17A.38.38,0,0,1,285.57,159.83Z" style="fill:#17152b"/><path d="M285.57,130.26a.39.39,0,0,1-.23-.07.4.4,0,0,1-.1-.55l11-15.87a.4.4,0,0,1,.65.45l-11,15.87A.4.4,0,0,1,285.57,130.26Z" style="fill:#17152b"/><path d="M41.39,120.81c2.15.32,4.08,1.43,4.3,3.85s-1.53,4.55-.67,6.81,3.41,3.12,2.49,6a9.58,9.58,0,0,0-.83,3.1c.06,2.25,2.25,3.63,3.33,5.4a6.16,6.16,0,0,1-1,7.3c-3.51,3.56-9.47,2.28-13.9,1.94-2.57-.19-4.89-1.51-5.53-4.18-.75-3.11,1.21-4.6,2.43-7.06s-.28-5.2-.31-7.87c0-3,2.37-4.62,2.81-7.36.32-2-.8-4,.31-5.89a4.36,4.36,0,0,1,2.8-1.87,10.29,10.29,0,0,1,3.74-.17Z" style="fill:#91b5f8"/><path d="M40.12,166.38a.15.15,0,0,1-.15-.15V126.91a.15.15,0,0,1,.3,0v39.32a.15.15,0,0,1-.15.15Z" style="fill:#17152b"/><path d="M40.12,144.69a.15.15,0,0,1-.14-.09l-4.31-9.44a.15.15,0,0,1,.07-.2.15.15,0,0,1,.2.08l4.32,9.44a.16.16,0,0,1-.08.2Z" style="fill:#17152b"/><path d="M40.12,151.51a.16.16,0,0,1-.09,0,.14.14,0,0,1,0-.21l4.24-6.1a.15.15,0,0,1,.25.17l-4.25,6.11a.14.14,0,0,1-.12.06Z" style="fill:#17152b"/><path d="M175.21,57.72c4.41.65,8.39,2.93,8.84,7.89.43,4.7-3.15,9.35-1.38,14s7,6.41,5.12,12.32c-.68,2.1-1.77,4.15-1.71,6.36.11,4.63,4.63,7.46,6.84,11.09,2.85,4.69,1.79,11.15-2,15-7.21,7.32-19.44,4.69-28.54,4-5.29-.41-10-3.11-11.38-8.6-1.53-6.38,2.49-9.45,5-14.49s-.57-10.69-.64-16.17c-.08-6.13,4.87-9.49,5.77-15.12.66-4.07-1.63-8.27.65-12.11a8.92,8.92,0,0,1,5.75-3.84,20.81,20.81,0,0,1,7.68-.34Z" style="fill:#91b5f8"/><path d="M172.6,151.32a.31.31,0,0,1-.31-.31V70.25a.31.31,0,1,1,.62,0V151a.31.31,0,0,1-.31.31Z" style="fill:#17152b"/><path d="M172.6,106.77a.31.31,0,0,1-.28-.18L163.46,87.2a.31.31,0,1,1,.56-.26l8.87,19.39a.31.31,0,0,1-.16.41.28.28,0,0,1-.13,0Z" style="fill:#17152b"/><path d="M172.6,120.78a.32.32,0,0,1-.18-.06.3.3,0,0,1-.07-.43l8.72-12.54a.32.32,0,0,1,.44-.08.31.31,0,0,1,.07.43l-8.72,12.55a.33.33,0,0,1-.26.13Z" style="fill:#17152b"/><path d="M23.7,105.38c3.49.52,6.64,2.32,7,6.25.34,3.72-2.5,7.4-1.1,11.09s5.56,5.08,4,9.75c-.53,1.67-1.39,3.29-1.35,5,.09,3.67,3.67,5.91,5.42,8.78a10,10,0,0,1-1.59,11.88c-5.71,5.8-15.39,3.71-22.59,3.16-4.19-.32-8-2.46-9-6.81-1.21-5.05,2-7.48,4-11.47S8,134.59,8,130.25c-.06-4.85,3.85-7.51,4.57-12,.52-3.23-1.29-6.55.51-9.59a7.11,7.11,0,0,1,4.55-3A16.62,16.62,0,0,1,23.7,105.38Z" style="fill:#7c9af2"/><path d="M21.63,173.82a.24.24,0,0,1-.25-.23V115.28a.24.24,0,0,1,.25-.23.24.24,0,0,1,.25.23v58.31A.24.24,0,0,1,21.63,173.82Z" style="fill:#17152b"/><path d="M21.63,144.22a.24.24,0,0,1-.22-.14l-7-15.36a.25.25,0,0,1,.12-.33.26.26,0,0,1,.33.12l7,15.36a.26.26,0,0,1-.13.33Z" style="fill:#17152b"/><path d="M21.63,155.31a.23.23,0,0,1-.14,0,.25.25,0,0,1-.06-.35L28.34,145a.24.24,0,0,1,.4.28l-6.91,9.93A.23.23,0,0,1,21.63,155.31Z" style="fill:#17152b"/><polygon points="118.78 172.66 116.07 172.66 116.65 103.73 118.03 103.73 118.78 172.66" style="fill:#91b5f8"/><polygon points="118.15 104.29 104.54 126.45 99.26 135.06 98.52 134.68 102.68 125.42 109.48 110.25 116.44 103.17 118.15 104.29" style="fill:#91b5f8"/><polygon points="118.7 103.1 117.08 104.34 100.29 83.82 94.22 76.4 94.82 75.83 101.91 82.52 114.29 94.2 118.7 103.1" style="fill:#91b5f8"/><polygon points="152.72 93.35 140.73 98.16 127.87 103.31 117.94 103.57 117.49 101.57 139.4 95.93 152.46 92.57 152.72 93.35" style="fill:#91b5f8"/><polygon points="120.1 173.62 114.71 173.62 115.33 157.78 119.52 157.78 120.1 173.62" style="fill:#91b5f8"/><path d="M115.65,103.05a1.78,1.78,0,1,1,1.77,1.78A1.77,1.77,0,0,1,115.65,103.05Z" style="fill:#91b5f8"/><circle cx="117.42" cy="103.05" r="0.98" transform="translate(-3.11 202.45) rotate(-80.78)" style="fill:#91b5f8"/><polygon points="198 68.69 266.46 68.69 227.17 108.39 158.72 108.39 198 68.69" style="fill:#060633"/><polygon points="201.74 72.56 166.32 108.39 166.32 167.93 296.75 167.93 296.75 104.47 201.74 72.56" style="fill:#fa7267"/><rect x="237.2" y="105.91" width="59.54" height="62.02" style="fill:#ef5048"/><polygon points="266.37 68.69 197.91 68.69 237.21 108.39 305.66 108.39 266.37 68.69" style="fill:#18187f"/><rect x="195.83" y="87.47" width="8.23" height="16.9" style="fill:#a7c0e8"/><path d="M204.71,105h-9.54V86.81h9.54Zm-8.23-1.31h6.92V88.12h-6.92Z" style="fill:#060633"/><rect x="199.56" y="87.71" width="0.8" height="16.66" style="fill:#060633"/><rect x="199.67" y="91.57" width="0.8" height="8.69" transform="translate(295.99 -104.15) rotate(90)" style="fill:#060633"/><path d="M176.75,117h14.4a0,0,0,0,1,0,0v23a6.59,6.59,0,0,1-6.59,6.59h-1.22a6.59,6.59,0,0,1-6.59-6.59V117a0,0,0,0,1,0,0Z" transform="translate(367.89 263.65) rotate(-180)" style="fill:#a7c0e8"/><path d="M191.8,147.28H176.09v-24a7,7,0,0,1,7-7h1.8a7,7,0,0,1,7,7ZM177.4,146h13.09V123.33a5.65,5.65,0,0,0-5.64-5.64h-1.8a5.65,5.65,0,0,0-5.65,5.64Z" style="fill:#060633"/><rect x="183.23" y="117.46" width="1.4" height="29.16" transform="translate(367.85 264.08) rotate(180)" style="fill:#060633"/><rect x="183.02" y="124.22" width="1.4" height="15.21" transform="translate(315.55 -51.89) rotate(90)" style="fill:#060633"/><rect x="173.19" y="145.81" width="18.68" height="1.58" transform="translate(365.06 293.2) rotate(180)" style="fill:#060633"/><path d="M215.47,117h0a7.2,7.2,0,0,1,7.2,7.2v22.39h-14.4V124.23A7.2,7.2,0,0,1,215.47,117Z" style="fill:#a7c0e8"/><path d="M223.32,147.28H207.61v-24a7,7,0,0,1,6.95-7h1.81a7,7,0,0,1,6.95,7ZM208.92,146H222V123.33a5.65,5.65,0,0,0-5.64-5.64h-1.81a5.65,5.65,0,0,0-5.64,5.64Z" style="fill:#060633"/><rect x="214.75" y="117.46" width="1.4" height="29.16" transform="translate(430.89 264.08) rotate(180)" style="fill:#060633"/><rect x="214.54" y="124.22" width="1.4" height="15.21" transform="translate(347.07 -83.41) rotate(90)" style="fill:#060633"/><rect x="204.71" y="145.81" width="18.68" height="1.58" transform="translate(428.1 293.2) rotate(180)" style="fill:#060633"/><polygon points="245.91 71.81 253.56 79.45 261.85 79.45 261.85 63.63 246.27 63.63 245.91 71.81" style="fill:#060633"/><rect x="245.26" y="62.08" width="18" height="2.84" style="fill:#0b0755"/><polygon points="239.51 104.41 266.3 104.36 247.57 85.53 220.78 85.58 239.51 104.41" style="fill:#4851ec"/><polygon points="260.04 104.37 260.25 104.37 241.52 85.54 241.31 85.54 260.04 104.37" style="fill:#7c9af2"/><polygon points="252.73 104.38 252.94 104.38 234.21 85.55 234 85.55 252.73 104.38" style="fill:#7c9af2"/><polygon points="245.42 104.4 245.64 104.4 226.91 85.56 226.69 85.56 245.42 104.4" style="fill:#7c9af2"/><polygon points="253.19 91.17 252.99 90.97 226.2 91.03 226.4 91.22 253.19 91.17" style="fill:#7c9af2"/><polygon points="259.94 97.97 259.75 97.77 232.96 97.82 233.16 98.02 259.94 97.97" style="fill:#7c9af2"/><polygon points="269.29 104.42 296.08 104.37 277.35 85.53 250.56 85.59 269.29 104.42" style="fill:#4851ec"/><polygon points="289.81 104.38 290.03 104.38 271.3 85.55 271.08 85.55 289.81 104.38" style="fill:#7c9af2"/><polygon points="282.51 104.39 282.72 104.39 263.99 85.56 263.78 85.56 282.51 104.39" style="fill:#7c9af2"/><polygon points="275.2 104.41 275.42 104.41 256.69 85.57 256.47 85.58 275.2 104.41" style="fill:#7c9af2"/><polygon points="282.96 91.18 282.77 90.98 255.98 91.03 256.18 91.23 282.96 91.18" style="fill:#7c9af2"/><polygon points="289.72 97.98 289.53 97.78 262.74 97.83 262.94 98.03 289.72 97.98" style="fill:#7c9af2"/><polygon points="92.24 158.86 87.79 158.86 88.75 64.01 91.01 64.01 92.24 158.86" style="fill:#18187f"/><polygon points="90.11 64.99 59.43 94.62 47.51 106.14 46.5 105.23 56.89 92.22 73.91 70.92 87.86 62.5 90.11 64.99" style="fill:#18187f"/><polygon points="59.43 94.62 47.51 106.14 46.5 105.23 56.89 92.22 59.43 94.62" style="fill:#fa7267"/><polygon points="92.2 62.99 89.11 64.3 70.83 24.83 64.22 10.56 65.41 9.9 73.94 23.43 88.83 47.05 92.2 62.99" style="fill:#18187f"/><polygon points="73.94 23.43 70.83 24.83 64.22 10.56 65.41 9.9 73.94 23.43" style="fill:#fa7267"/><polygon points="149.51 61.75 128.49 64.48 105.95 67.4 90.07 63.76 90.18 60.4 127.28 60.4 149.41 60.4 149.51 61.75" style="fill:#18187f"/><polygon points="149.51 61.75 127.74 64.58 127.28 60.4 149.41 60.4 149.51 61.75" style="fill:#fa7267"/><polygon points="94.41 163.79 85.56 163.79 86.58 140.15 93.45 140.15 94.41 163.79" style="fill:#18187f"/><path d="M87.11,62.89A2.91,2.91,0,1,1,90,65.8,2.9,2.9,0,0,1,87.11,62.89Z" style="fill:#060633"/><path d="M88.41,62.89A1.61,1.61,0,1,1,90,64.5,1.61,1.61,0,0,1,88.41,62.89Z" style="fill:#fa7267"/><path d="M173.58,37.61c-1.46-.37-3.2-1.27-3.08-2.77.12-1.34,1.72-2,3.07-2s2.71.47,4,.16c1.72-.42,2.85-2,3.9-3.4a13.66,13.66,0,0,1,4-3.9,5.61,5.61,0,0,1,5.35-.32c1.25.69,2.12,2,3.45,2.52,1.79.72,3.78-.15,5.65-.62s4.4-.15,5,1.7c.47,1.55-.7,3.52.39,4.71,5.6,6.1-5.37,4-9.36,4.28C188.48,38.47,180.91,39.46,173.58,37.61Z" style="fill:#91b5f8"/><path d="M178.84,51.61a3.6,3.6,0,0,1-1.35,4.68,5.29,5.29,0,0,1-5.17-.06,9.57,9.57,0,0,0-2.55-1.29c-2.29-.49-5.12,2.31-7.26.69-1.86-1.41-1-2.69.44-3.78C167.19,48.6,174.15,53,178.84,51.61Z" style="fill:#91b5f8"/><path d="M71,63.92a2.68,2.68,0,0,1-1,3.48,3.88,3.88,0,0,1-3.83-.05,7.51,7.51,0,0,0-1.9-.95c-1.7-.36-3.8,1.72-5.39.51-1.38-1-.73-2,.33-2.8C62.29,61.69,67.46,64.94,71,63.92Z" style="fill:#91b5f8"/><path d="M242.86,56.13a14.49,14.49,0,0,1-4.78,1.34l-3.68.59c-2.76.44-5.67.88-8.34.15-1.93-.54-3.57-1.65-5.54-2.06s-4.06-.06-6.1-.15a5.67,5.67,0,0,1-1.7-.29,2.31,2.31,0,0,1-1.62-2.46,2.74,2.74,0,0,1,2.52-1.92c1.63-.14,3.61.76,4.75-.19a5,5,0,0,0,.82-1.21,5,5,0,0,1,2.7-1.63c3.38-1,6.21-.31,9.6.08a35.68,35.68,0,0,0,6.69-.32c2.9-.19,5.86.15,6.89,2.68A4.44,4.44,0,0,1,242.86,56.13Z" style="fill:#91b5f8"/><path d="M128.58,41.34a13.11,13.11,0,0,1-4.3,1.2l-3.3.53c-2.48.4-5.1.79-7.49.13-1.74-.48-3.21-1.48-5-1.85s-3.65-.06-5.48-.13A5.1,5.1,0,0,1,101.5,41,2.08,2.08,0,0,1,100,38.74,2.48,2.48,0,0,1,102.3,37c1.47-.13,3.25.68,4.27-.17a4.46,4.46,0,0,0,.74-1.09,4.5,4.5,0,0,1,2.42-1.46c3-.94,5.58-.28,8.63.07a32.64,32.64,0,0,0,6-.29c2.61-.17,5.28.14,6.2,2.41A4,4,0,0,1,128.58,41.34Z" style="fill:#91b5f8"/><path d="M160.65,170.39s15.52.86,18.75-.27,6.56-6.89,4.09-9.66c-2-2.27-4.62-.26-6.06-2.18s3.46-8.56-7.1-7.46-4.92,9.25-7.66,8.26C157.32,157.16,150,166,160.65,170.39Z" style="fill:#91b5f8"/><path d="M225.09,171.23s16.87.94,20.38-.29,7.14-7.49,4.45-10.5c-2.2-2.47-5-.28-6.59-2.38s3.76-9.29-7.71-8.1-5.36,10-8.33,9C221.47,156.85,213.45,166.47,225.09,171.23Z" style="fill:#91b5f8"/><path d="M285,170.27s21.57,1.2,26.06-.37,9.13-9.58,5.7-13.44c-2.82-3.16-6.43-.35-8.44-3s4.82-11.89-9.86-10.35-6.85,12.85-10.65,11.48C280.34,151.87,270.09,164.17,285,170.27Z" style="fill:#91b5f8"/><path d="M79.24,164.82s14.55.81,17.58-.25,6.16-6.46,3.84-9.06c-1.9-2.13-4.33-.24-5.69-2s3.25-8-6.64-7-4.63,8.67-7.19,7.75C76.12,152.41,69.21,160.71,79.24,164.82Z" style="fill:#91b5f8"/><path d="M106.31,161.36s8,.45,9.67-.14,3.39-3.55,2.11-5c-1-1.17-2.38-.13-3.13-1.13s1.79-4.41-3.65-3.84-2.55,4.77-4,4.26C104.6,154.54,100.79,159.1,106.31,161.36Z" style="fill:#91b5f8"/><polygon points="260.01 128.24 268.98 128.24 269.31 128.24 280.08 128.24 280.41 128.24 291.18 128.24 291.5 128.24 300.69 128.24 309.79 158.99 300.6 158.99 300.28 158.99 289.5 158.99 289.18 158.99 278.4 158.99 278.08 158.99 269.1 158.99 266.02 148.56 266.02 148.56 265.92 148.24 265.92 148.24 262.73 137.46 262.73 137.46 262.64 137.14 262.64 137.14 260.01 128.24" style="fill:#0b0755"/><rect x="283.87" y="140.67" width="3.35" height="36.93" transform="translate(571.1 318.27) rotate(180)" style="fill:#0b0755"/><rect x="280.73" y="176.62" width="9.42" height="1.73" transform="translate(570.87 354.98) rotate(180)" style="fill:#0b0755"/><polygon points="270.51 158.99 311.2 158.99 302.1 128.24 261.41 128.24 270.51 158.99" style="fill:#4851ec"/><polygon points="301.68 158.99 302.01 158.99 292.91 128.24 292.59 128.24 301.68 158.99" style="fill:#7c9af2"/><polygon points="290.58 158.99 290.91 158.99 281.81 128.24 281.49 128.24 290.58 158.99" style="fill:#7c9af2"/><polygon points="279.49 158.99 279.81 158.99 270.71 128.24 270.39 128.24 279.49 158.99" style="fill:#7c9af2"/><polygon points="304.83 137.46 304.73 137.14 264.05 137.14 264.14 137.46 304.83 137.46" style="fill:#7c9af2"/><polygon points="308.11 148.56 308.01 148.24 267.33 148.24 267.42 148.56 308.11 148.56" style="fill:#7c9af2"/><polygon points="227.75 142.9 234.01 142.9 234.24 142.9 241.76 142.9 241.99 142.9 249.5 142.9 249.73 142.9 256.14 142.9 262.49 164.36 256.08 164.36 255.85 164.36 248.33 164.36 248.11 164.36 240.59 164.36 240.36 164.36 234.1 164.36 231.94 157.08 231.94 157.08 231.88 156.85 231.88 156.85 229.65 149.33 229.65 149.33 229.59 149.11 229.59 149.11 227.75 142.9" style="fill:#0b0755"/><rect x="244.4" y="151.57" width="2.34" height="25.77" transform="translate(491.15 328.91) rotate(180)" style="fill:#0b0755"/><rect x="242.21" y="176.66" width="6.57" height="1.21" transform="translate(490.99 354.53) rotate(180)" style="fill:#0b0755"/><polygon points="235.08 164.36 263.47 164.36 257.13 142.9 228.73 142.9 235.08 164.36" style="fill:#4851ec"/><polygon points="256.83 164.36 257.06 164.36 250.71 142.9 250.49 142.9 256.83 164.36" style="fill:#7c9af2"/><polygon points="249.09 164.36 249.32 164.36 242.97 142.9 242.74 142.9 249.09 164.36" style="fill:#7c9af2"/><polygon points="241.34 164.36 241.57 164.36 235.22 142.9 235 142.9 241.34 164.36" style="fill:#7c9af2"/><polygon points="259.03 149.33 258.96 149.11 230.57 149.11 230.64 149.33 259.03 149.33" style="fill:#7c9af2"/><polygon points="261.32 157.08 261.25 156.85 232.86 156.85 232.93 157.08 261.32 157.08" style="fill:#7c9af2"/><path d="M76.13,136.94s-5.06-.5-6.14-1.69-2.35-5.17-2.35-5.17l-2.66.65s2.56,6.71,4.34,7,6.43.52,6.43.52l.38-1.26Z" style="fill:#ef8e7b"/><path d="M55.2,143.33s5.37,9.66,5.46,10.29-1.06,12.07-1.06,12.07l2.24.81s3.85-8.1,4.49-10.81-2-8.65-2-8.65l-9.11-3.71Z" style="fill:#0d0d5e"/><polygon points="82.46 175.76 82.73 175.76 82.73 153 82.46 153 82.46 175.76 82.46 175.76" style="fill:#060633"/><polygon points="86.16 175.19 86.42 175.1 79.03 153.57 78.78 153.66 86.16 175.19 86.16 175.19" style="fill:#060633"/><polygon points="90.61 172.15 90.8 171.96 74.59 155.99 74.4 156.18 90.61 172.15 90.61 172.15" style="fill:#060633"/><polygon points="92.57 168.74 92.68 168.49 71.92 159.16 71.81 159.41 92.57 168.74 92.57 168.74" style="fill:#060633"/><polygon points="93.77 164.6 93.78 164.33 71.03 163.62 71.02 163.88 93.77 164.6 93.77 164.6" style="fill:#060633"/><polygon points="72.18 169.66 92.43 159.26 92.3 159.02 72.06 169.43 72.18 169.66 72.18 169.66" style="fill:#060633"/><polygon points="79.03 175.19 86.42 153.66 86.16 153.57 78.78 175.1 79.03 175.19 79.03 175.19" style="fill:#060633"/><polygon points="74.59 172.15 90.8 156.18 90.61 155.99 74.4 171.96 74.59 172.15 74.59 172.15" style="fill:#060633"/><path d="M71.81,164.09A11.15,11.15,0,1,0,83,153a11.16,11.16,0,0,0-11.14,11.14Zm-1.87,0a13,13,0,1,1,13,13,13,13,0,0,1-13-13Z" style="fill:#060633"/><path d="M72.79,164.09A10.17,10.17,0,1,0,83,153.93a10.18,10.18,0,0,0-10.16,10.16Zm-1.87,0a12,12,0,1,1,12,12,12,12,0,0,1-12-12Z" style="fill:#4851ec"/><polygon points="45 175.76 45.27 175.76 45.27 153 45 153 45 175.76 45 175.76" style="fill:#060633"/><polygon points="48.7 175.19 48.95 175.1 41.57 153.57 41.32 153.66 48.7 175.19 48.7 175.19" style="fill:#060633"/><polygon points="53.15 172.15 53.33 171.96 37.12 155.99 36.94 156.18 53.15 172.15 53.15 172.15" style="fill:#060633"/><polygon points="55.1 168.74 55.22 168.49 34.46 159.16 34.35 159.41 55.1 168.74 55.1 168.74" style="fill:#060633"/><polygon points="56.31 164.6 56.32 164.33 33.57 163.62 33.56 163.88 56.31 164.6 56.31 164.6" style="fill:#060633"/><polygon points="34.72 169.66 54.96 159.26 54.84 159.02 34.6 169.43 34.72 169.66 34.72 169.66" style="fill:#060633"/><polygon points="41.57 175.19 48.95 153.66 48.7 153.57 41.32 175.1 41.57 175.19 41.57 175.19" style="fill:#060633"/><polygon points="37.12 172.15 53.33 156.18 53.15 155.99 36.94 171.96 37.12 172.15 37.12 172.15" style="fill:#060633"/><path d="M34.34,164.09A11.15,11.15,0,1,0,45.49,153a11.16,11.16,0,0,0-11.15,11.14Zm-1.87,0a13,13,0,1,1,13,13,13,13,0,0,1-13-13Z" style="fill:#060633"/><path d="M35.33,164.09a10.16,10.16,0,1,0,10.16-10.16,10.18,10.18,0,0,0-10.16,10.16Zm-1.87,0a12,12,0,1,1,12,12,12,12,0,0,1-12-12Z" style="fill:#4851ec"/><path d="M82.57,164.21l.73-.82-2.14-1.91a57.41,57.41,0,0,1-4.47-11.22l-1,.31a55,55,0,0,0,4.62,11.54l0,.07,2.27,2Z" style="fill:#fa7267"/><polygon points="62.63 165.69 75.85 147.98 74.59 147.04 61.37 164.75 62.63 165.69 62.63 165.69" style="fill:#fa7267"/><polygon points="60.15 158.79 75.03 146.12 74.31 145.28 59.44 157.95 60.15 158.79 60.15 158.79" style="fill:#fa7267"/><polygon points="61.71 166.09 62.76 165.76 58.51 151.83 57.46 152.15 61.71 166.09 61.71 166.09" style="fill:#fa7267"/><path d="M62,165.69a.48.48,0,0,0,0-.95l-15.63-1a.42.42,0,0,1-.38-.3.41.41,0,0,1,.15-.46l12.1-9.24a.48.48,0,0,0,.09-.67.48.48,0,0,0-.66-.09l-12.1,9.25a1.36,1.36,0,0,0,.74,2.45l15.63,1Z" style="fill:#fa7267"/><polygon points="73.71 144.63 74.92 144.27 76.78 150.39 75.58 150.76 73.71 144.63 73.71 144.63" style="fill:#7c9af2"/><path d="M74.28,145.19l.09,0a.35.35,0,0,0,.25-.43l-.59-2.2,2-2.69a.36.36,0,0,0-.57-.43l-2.13,2.84a.35.35,0,0,0,0,.3l.62,2.36a.37.37,0,0,0,.35.27Z" style="fill:#7c9af2"/><path d="M80.64,163.6a2.28,2.28,0,1,1,2.28,2.28,2.28,2.28,0,0,1-2.28-2.28Z" style="fill:#fa7267"/><path d="M81.54,163.6A1.38,1.38,0,1,1,82.92,165a1.37,1.37,0,0,1-1.38-1.38Z" style="fill:#060633"/><path d="M82,163.6a.95.95,0,0,1,1.89,0,.95.95,0,1,1-1.89,0Z" style="fill:#7c9af2"/><path d="M43.18,163.6a2.28,2.28,0,1,1,2.28,2.28,2.28,2.28,0,0,1-2.28-2.28Z" style="fill:#fa7267"/><path d="M44.08,163.6A1.38,1.38,0,1,1,45.46,165a1.37,1.37,0,0,1-1.38-1.38Z" style="fill:#060633"/><path d="M44.51,163.6a.95.95,0,1,1,1,1,.95.95,0,0,1-1-1Z" style="fill:#7c9af2"/><path d="M56.54,152l2.54-.73h0l.13.45s0,0,0,0l-2.54.73s0,0,0,0l-.13-.46a0,0,0,0,1,0,0Z" style="fill:#7c9af2"/><polygon points="56.48 148.9 57.54 148.6 58.39 151.55 57.33 151.85 56.48 148.9 56.48 148.9" style="fill:#7c9af2"/><polygon points="55.91 145.85 56.46 145.69 57.46 149.17 56.91 149.33 55.91 145.85 55.91 145.85" style="fill:#7c9af2"/><path d="M50.9,144.6a5.72,5.72,0,0,0,3.46,1.65c1.5,0,3.23-.4,4.41,0s1-1.34,0-1.42-7.24-1.49-7.71-1.26-.16,1-.16,1Z" style="fill:#060633"/><path d="M58.85,165.32a3,3,0,1,1,3,3,3,3,0,0,1-3-3Z" style="fill:#7c9af2"/><polygon points="62.3 169.16 62.64 169.08 62.01 166.46 61.67 166.54 62.3 169.16 62.3 169.16" style="fill:#7c9af2"/><path d="M64.52,163.51s-1.16,2.56-1.15,2.6-.35.28-.35.28l-.87-.21-.59-.66s1.11-2.36,1.19-2.77,1.77.76,1.77.76Z" style="fill:#f9a58f"/><polygon points="60.11 169.51 64.83 169.51 64.83 168.74 60.11 168.74 60.11 169.51 60.11 169.51" style="fill:#7c9af2"/><path d="M61.56,165.52a2.3,2.3,0,0,0,1.82.54s2.61,2.53,2.12,3.37c0,0,0,.32-1.3-.32s-3.39-1.62-3.44-1.68-.36,0,.8-1.91Z" style="fill:#060633"/><path d="M51.91,138.73s-1.44,3.39,0,4.82,12.67,8.57,12.92,9.8-3,10.25-3,10.25l3,1.72s5.23-10,6.2-12.38-9.17-10.38-9.17-10.38l.31-1.56-10.26-2.27Z" style="fill:#18187f"/><path d="M55.83,125.85c2.26-2.45,10.33-.68,11,.41a42,42,0,0,1,2.28,6.09c-1.14.26-2.26,1-3.39,1.33a2.83,2.83,0,0,0-1-1.52l-2.26,10.07-11.67-.92s1.24-11.36,5-15.46Z" style="fill:#fff"/><path d="M75.77,140.11s1.18-.24,1.18-.71.16-.79,0-.87-2.28-.15-2.28-.15l-2.83-.16-.24,1.1h3.31l.15.79Z" style="fill:#060633"/><polygon points="76.81 139.49 79.22 139.28 79.11 138.47 76.54 138.7 76.81 139.49 76.81 139.49" style="fill:#060633"/><path d="M78.55,138.93a.7.7,0,1,1,1.35,0,.69.69,0,1,1-1.35,0Z" style="fill:#060633"/><path d="M70.28,136.57l.19,0c.58.13,2.71.61,3,1.2.13.23-1.3,1-1.3,1a7,7,0,0,1-2.74-.87c-.6-.58.82-1.34.82-1.34Z" style="fill:#f9a58f"/><path d="M71.8,138.47s.43,1.22.58,1.21-.12-1.16-.12-1.16l-.46-.05Z" style="fill:#f9a58f"/><path d="M72.3,138.44s.71,1.79,1,1.72-.63-1.94-.63-1.94l-.35.22Z" style="fill:#f9a58f"/><path d="M72.78,138.31s.86,1.72,1.12,1.63-.8-1.88-.8-1.88l-.32.25Z" style="fill:#f9a58f"/><path d="M73.18,138.05s.78,1.63,1,1.53-.72-1.77-.72-1.77l-.32.24Z" style="fill:#f9a58f"/><path d="M75.94,136.9l.19,0c.58.13,2.66.67,3,1.26.13.24-1.25.91-1.25.91a5.92,5.92,0,0,1-2.31-.91c-.6-.58.39-1.3.39-1.3Z" style="fill:#ef8e7b"/><path d="M78.66,138.32s.85,1,1,.91-.55-1-.55-1l-.45.12Z" style="fill:#ef8e7b"/><path d="M78,138.67s.7,1.8,1,1.72-.63-1.94-.63-1.94l-.34.22Z" style="fill:#ef8e7b"/><path d="M78.34,138.52s.85,1.73,1.12,1.63-.8-1.87-.8-1.87l-.32.24Z" style="fill:#ef8e7b"/><path d="M77.65,138.73s.26,1.79.54,1.77-.16-1.91-.16-1.91l-.38.14Z" style="fill:#ef8e7b"/><path d="M70.23,138.78a.87.87,0,1,1,.86.87.86.86,0,0,1-.86-.87Z" style="fill:#060633"/><polygon points="70.28 136.57 69.92 136.46 69.38 137.34 70.14 137.05 70.28 136.57 70.28 136.57" style="fill:#f9a58f"/><path d="M65.66,118.88s.33-.44.56-.24c.58.51-.06,1.09-.48,1.2l-.08-1Z" style="fill:#d87464"/><path d="M65.89,117.21h0a.76.76,0,0,0,0-.15,3.73,3.73,0,0,0-7.44-.51,3.58,3.58,0,0,0,.24,1.64c.67,2,1.07,3.42,2.07,4.11a.62.62,0,0,1,.26.56l-.05.94a1.28,1.28,0,0,1-.58,1h0c2,.9,2.92.16,2.92.16h0a1.38,1.38,0,0,1-.44-1.08l0-.51a.65.65,0,0,1,.58-.61h0c3.57-.35,2.33-4.29,2.4-5.56Z" style="fill:#f9a58f"/><path d="M62.05,119.06a.34.34,0,0,0-.32-.36.34.34,0,0,0,0,.68.34.34,0,0,0,.36-.32Z" style="fill:#060633"/><path d="M65.31,118.69a.34.34,0,0,0-.32-.36.34.34,0,0,0-.36.32.34.34,0,0,0,.68,0Z" style="fill:#060633"/><path d="M59.65,119.5a10.4,10.4,0,0,0,1.23-3.64l-2.35-.34a4.51,4.51,0,0,0,.5,3.71l.62.27Z" style="fill:#060633"/><path d="M63.53,120.35a.79.79,0,0,1-.22-.06.08.08,0,0,1,0-.1.07.07,0,0,1,.1,0h0a.43.43,0,0,0,.29,0,.46.46,0,0,0,.24-.28s0,0-.08-.1-.48-.33-.53-1.12a.07.07,0,0,1,.07-.08.08.08,0,0,1,.08.07c0,.72.31.9.47,1s.19.13.13.28a.61.61,0,0,1-.32.36l-.2,0Z" style="fill:#d87464"/><path d="M64.17,117.77a.11.11,0,0,1-.09-.06.11.11,0,0,1,0-.15,1.58,1.58,0,0,1,1.14,0,.12.12,0,0,1,.07.14.12.12,0,0,1-.15.07,1.42,1.42,0,0,0-1,0Z" style="fill:#060633"/><path d="M60.94,118.4a.11.11,0,0,1-.09,0,.14.14,0,0,1,0-.16,1.55,1.55,0,0,1,1.08-.34.11.11,0,0,1,0,.22,1.44,1.44,0,0,0-.92.3.07.07,0,0,1-.07,0Z" style="fill:#060633"/><path d="M63.31,121.33a3.36,3.36,0,0,1-1-.24.06.06,0,0,1,0-.09.07.07,0,0,1,.09,0c1.68.67,2.26-.31,2.29-.35a.07.07,0,0,1,.1,0,.08.08,0,0,1,0,.11,1.61,1.61,0,0,1-1.48.65Z" style="fill:#060633"/><path d="M59.76,119.3a.53.53,0,0,0-.27-.28.92.92,0,0,0-1,0c-.48.43.37,1.69,1.31,1.14,0,0,.28-.25,0-.9Z" style="fill:#f9a58f"/><path d="M58.36,115.06a1.78,1.78,0,0,1-.28-1.19.52.52,0,0,1,.56.24,1.46,1.46,0,0,1,.2.62c0-.55.51-.91.94-1.18a4.33,4.33,0,0,1,1.67-.74A10.49,10.49,0,0,1,64,113c.63,0,1.27.15,1.89.2l.36,0c.18,0,.55,0,.53.24a1,1,0,0,1-.47.73,2.93,2.93,0,0,1-.79.35,1.42,1.42,0,0,1,.46.06c.19.06.38.14.57.21a.43.43,0,0,1,.24.22.32.32,0,0,1,0,.17c-.06.54-.71.89-1.17,1-1.49.44-3.08,0-4.63,0a7.29,7.29,0,0,1-2.19-.07,2.29,2.29,0,0,1-.93-.77.15.15,0,0,1,.13-.22,1.84,1.84,0,0,0,.33,0Z" style="fill:#060633"/><path d="M65.42,116.26a4.7,4.7,0,0,1,.48,1.43,4.24,4.24,0,0,0,0-1.75c-.24-.43-.46.32-.46.32Z" style="fill:#060633"/><path d="M69.46,137.91s-6.49,2.62-8.64-.23a26.15,26.15,0,0,1-3.39-6.91l3-.69s1.42,5,3,5.72,6.49.66,6.49.66l.62.9-1.08.55Z" style="fill:#f9a58f"/><polygon points="60.46 129.19 61.55 132.58 57.22 133.7 56.68 130.42 58.05 128.88 60.46 129.19 60.46 129.19" style="fill:#fff"/><path d="M157.66,137.78s-4.88-.34-6.37-1.36a72.08,72.08,0,0,1-5.69-5.32l3-1.84s4.12,4.91,4.56,5.27,4.69,1.89,4.69,1.89l-.23,1.36Z" style="fill:#ef8f7d"/><path d="M130.64,145.08s7.23,13,7.36,13.84-1.43,16.24-1.43,16.24l3,1.1s5.17-10.9,6-14.56-2.72-11.64-2.72-11.64l-12.27-5Z" style="fill:#060633"/><polygon points="167.35 188.73 167.71 188.73 167.71 158.09 167.35 158.09 167.35 188.73 167.35 188.73" style="fill:#060633"/><polygon points="172.32 187.96 172.66 187.84 162.73 158.86 162.39 158.98 172.32 187.96 172.32 187.96" style="fill:#060633"/><polygon points="178.31 183.87 178.56 183.61 156.74 162.11 156.49 162.36 178.31 183.87 178.31 183.87" style="fill:#060633"/><polygon points="180.95 179.27 181.09 178.94 153.15 166.39 153 166.71 180.95 179.27 180.95 179.27" style="fill:#060633"/><polygon points="182.56 173.7 182.57 173.34 151.96 172.38 151.95 172.74 182.56 173.7 182.56 173.7" style="fill:#060633"/><polygon points="153.51 180.52 180.75 166.51 180.59 166.19 153.34 180.2 153.51 180.52 153.51 180.52" style="fill:#060633"/><polygon points="162.73 187.96 172.66 158.98 172.32 158.86 162.39 187.84 162.73 187.96 162.73 187.96" style="fill:#060633"/><polygon points="156.74 183.87 178.56 162.36 178.31 162.11 156.49 183.61 156.74 183.87 156.74 183.87" style="fill:#060633"/><path d="M153,173a15,15,0,1,0,15-15,15,15,0,0,0-15,15Zm-2.52,0A17.52,17.52,0,1,1,168,190.54,17.54,17.54,0,0,1,150.48,173Z" style="fill:#060633"/><path d="M154.32,173A13.68,13.68,0,1,0,168,159.34,13.7,13.7,0,0,0,154.32,173Zm-2.51,0A16.2,16.2,0,1,1,168,189.22,16.2,16.2,0,0,1,151.81,173Z" style="fill:#4851ec"/><polygon points="116.92 188.73 117.28 188.73 117.28 158.09 116.92 158.09 116.92 188.73 116.92 188.73" style="fill:#060633"/><polygon points="121.9 187.96 122.24 187.84 112.3 158.86 111.96 158.98 121.9 187.96 121.9 187.96" style="fill:#060633"/><polygon points="127.88 183.87 128.13 183.61 106.31 162.11 106.06 162.36 127.88 183.87 127.88 183.87" style="fill:#060633"/><polygon points="130.52 179.27 130.67 178.94 102.72 166.39 102.58 166.71 130.52 179.27 130.52 179.27" style="fill:#060633"/><polygon points="132.14 173.7 132.15 173.34 101.53 172.38 101.52 172.74 132.14 173.7 132.14 173.7" style="fill:#060633"/><polygon points="103.08 180.52 130.33 166.51 130.16 166.19 102.92 180.2 103.08 180.52 103.08 180.52" style="fill:#060633"/><polygon points="112.3 187.96 122.24 158.98 121.9 158.86 111.96 187.84 112.3 187.96 112.3 187.96" style="fill:#060633"/><polygon points="106.31 183.87 128.13 162.36 127.88 162.11 106.06 183.61 106.31 183.87 106.31 183.87" style="fill:#060633"/><path d="M102.57,173a15,15,0,1,0,15-15,15,15,0,0,0-15,15Zm-2.51,0a17.52,17.52,0,1,1,17.52,17.52A17.54,17.54,0,0,1,100.06,173Z" style="fill:#060633"/><path d="M103.9,173a13.68,13.68,0,1,0,13.68-13.68A13.69,13.69,0,0,0,103.9,173Zm-2.52,0a16.2,16.2,0,1,1,16.2,16.2,16.21,16.21,0,0,1-16.2-16.2Z" style="fill:#4851ec"/><path d="M167.48,173.18l1-1.11-2.87-2.57a75.46,75.46,0,0,1-6-15.09l-1.42.41a75.28,75.28,0,0,0,6.21,15.53l.06.1,3,2.73Z" style="fill:#5473ba"/><polygon points="140.65 175.16 158.44 151.33 156.75 150.06 138.95 173.9 140.65 175.16 140.65 175.16" style="fill:#5473ba"/><polygon points="137.31 165.88 157.34 148.82 156.37 147.69 136.35 164.75 137.31 165.88 137.31 165.88" style="fill:#5473ba"/><polygon points="139.41 175.7 140.82 175.27 135.1 156.52 133.69 156.95 139.41 175.7 139.41 175.7" style="fill:#5473ba"/><path d="M139.8,175.17a.64.64,0,0,0,0-1.27l-21-1.29a.56.56,0,0,1-.51-.4.57.57,0,0,1,.2-.62l16.29-12.44a.65.65,0,0,0,.12-.9.63.63,0,0,0-.89-.11l-16.29,12.44a1.84,1.84,0,0,0,1,3.3l21,1.29Z" style="fill:#5473ba"/><polygon points="155.56 146.83 157.19 146.33 159.7 154.57 158.07 155.07 155.56 146.83 155.56 146.83" style="fill:#7c9af2"/><path d="M156.32,147.57a.3.3,0,0,0,.13,0,.48.48,0,0,0,.34-.58L156,144l2.72-3.63a.48.48,0,0,0-.1-.67.47.47,0,0,0-.66.1l-2.86,3.81a.47.47,0,0,0-.08.41l.84,3.18a.48.48,0,0,0,.46.35Z" style="fill:#7c9af2"/><path d="M164.89,172.36a3.07,3.07,0,1,1,3.07,3.07,3.06,3.06,0,0,1-3.07-3.07Z" style="fill:#5473ba"/><path d="M166.11,172.36a1.85,1.85,0,1,1,1.85,1.85,1.85,1.85,0,0,1-1.85-1.85Z" style="fill:#060633"/><path d="M166.69,172.36a1.27,1.27,0,1,1,1.27,1.27,1.27,1.27,0,0,1-1.27-1.27Z" style="fill:#7c9af2"/><path d="M114.46,172.36a3.08,3.08,0,1,1,3.07,3.07,3.07,3.07,0,0,1-3.07-3.07Z" style="fill:#5473ba"/><path d="M115.68,172.36a1.86,1.86,0,1,1,1.85,1.85,1.85,1.85,0,0,1-1.85-1.85Z" style="fill:#060633"/><path d="M116.26,172.36a1.27,1.27,0,1,1,1.27,1.27,1.27,1.27,0,0,1-1.27-1.27Z" style="fill:#7c9af2"/><path d="M132.45,156.67l3.42-1h0l.17.62s0,0,0,0l-3.43,1h0l-.18-.62a0,0,0,0,1,0,0Z" style="fill:#7c9af2"/><polygon points="132.37 152.57 133.8 152.16 134.94 156.13 133.51 156.54 132.37 152.57 132.37 152.57" style="fill:#7c9af2"/><polygon points="131.61 148.46 132.35 148.25 133.69 152.93 132.95 153.14 131.61 148.46 131.61 148.46" style="fill:#7c9af2"/><path d="M124.86,146.78a7.67,7.67,0,0,0,4.66,2.22c2,0,4.35-.53,5.93,0s1.38-1.8,0-1.91-9.74-2-10.38-1.69-.21,1.38-.21,1.38Z" style="fill:#060633"/><path d="M135.56,174.67a4,4,0,1,1,4,4,4,4,0,0,1-4-4Z" style="fill:#7c9af2"/><polygon points="140.26 179.83 140.61 179.75 139.76 176.22 139.41 176.3 140.26 179.83 140.26 179.83" style="fill:#7c9af2"/><polygon points="137.26 180.31 143.61 180.31 143.61 179.27 137.26 179.27 137.26 180.31 137.26 180.31" style="fill:#7c9af2"/><path d="M143.1,173.59s-2.18,2.84-1.78,3.56c.73,1.32,2.43,3.19,1.92,3.62s-5.45-2.63-5.29-3.2,1.64-1.71,2.86-5l2.29,1Z" style="fill:#f9a58f"/><path d="M138.68,176.52a5.13,5.13,0,0,0-.73,1c-.16.57,4.79,3.62,5.29,3.2s-.44-1.44-1.2-2.53c-.5.26-1.42.57-3.36-1.72Z" style="fill:#060633"/><path d="M129.28,139.56s-3.48,5.22-1.54,7.13,16.23,8.47,16.56,10.14S140,173.36,140,173.36l2.55,2.07s9.31-14.78,8.89-18.27c-.58-4.78-11.83-13.12-11.83-13.12l-.31-2.26-10-2.22Z" style="fill:#0b0755"/><path d="M158.34,140.74s1.59-.32,1.59-1,.21-1.06,0-1.16-3.08-.21-3.08-.21l-3.81-.22-.32,1.49h4.45l.21,1.06Z" style="fill:#060633"/><polygon points="159.74 139.9 162.98 139.63 162.83 138.53 159.38 138.84 159.74 139.9 159.74 139.9" style="fill:#060633"/><path d="M162.08,139.15a.93.93,0,1,1,.9,1.16,1.06,1.06,0,0,1-.9-1.16Z" style="fill:#060633"/><path d="M150.94,136l.25.05c.79.18,3.66.82,4.09,1.61.17.31-1.75,1.31-1.75,1.31s-2.89-.38-3.69-1.17,1.1-1.8,1.1-1.8Z" style="fill:#f9a58f"/><path d="M153,138.53s.58,1.64.79,1.63-.17-1.56-.17-1.56l-.62-.07Z" style="fill:#f9a58f"/><path d="M153.67,138.48s1,2.42,1.31,2.32-.85-2.61-.85-2.61l-.46.29Z" style="fill:#f9a58f"/><path d="M154.31,138.31s1.16,2.33,1.51,2.2-1.08-2.53-1.08-2.53l-.43.33Z" style="fill:#f9a58f"/><path d="M154.85,138s1.05,2.19,1.4,2.06-1-2.39-1-2.39l-.43.33Z" style="fill:#f9a58f"/><path d="M157.89,136.42l.26.05c.79.18,3.59.91,4,1.7.17.32-1.69,1.22-1.69,1.22a8.09,8.09,0,0,1-3.11-1.22c-.8-.78.52-1.75.52-1.75Z" style="fill:#ef8f7d"/><path d="M161.57,138.33s1.14,1.31,1.33,1.23-.73-1.39-.73-1.39l-.6.16Z" style="fill:#ef8f7d"/><path d="M160.63,138.8s.94,2.42,1.31,2.32-.85-2.61-.85-2.61l-.46.29Z" style="fill:#ef8f7d"/><path d="M161.12,138.6s1.16,2.32,1.51,2.19-1.08-2.52-1.08-2.52l-.43.33Z" style="fill:#ef8f7d"/><path d="M160.2,138.88s.36,2.4.73,2.38-.22-2.57-.22-2.57l-.51.19Z" style="fill:#ef8f7d"/><path d="M150.87,139a1.17,1.17,0,1,1,1.17,1.16,1.17,1.17,0,0,1-1.17-1.16Z" style="fill:#060633"/><polygon points="150.94 135.98 150.47 135.82 149.74 137.02 150.75 136.62 150.94 135.98 150.94 135.98" style="fill:#f9a58f"/><path d="M139.84,142s-8-.63-11.13-2.07a12.64,12.64,0,0,0,1.93-2.95c.33-1.06,2.42-10.57,5-13.16,1.42-1.43,7.88.13,10,1.29s4,4.66,4,4.66l-2.8,3.3-1.7-2A4.54,4.54,0,0,1,145,133c-.32.84-2.39,1.29-2.39,1.29a53.08,53.08,0,0,0-2.59,4.94c0,.43-.13,2.83-.13,2.83Z" style="fill:#fa7267"/><path d="M149.84,137.78s-7.56.79-9.41-.74-4.08-7.92-4.08-7.92l3.81-1.06s.49,5.24,2.93,6.34,7.37,1.43,7.37,1.43l-.62,1.95Z" style="fill:#f9a58f"/><polygon points="140.23 126.14 140.26 126.32 141.05 130.2 136.35 131.84 135.83 127.87 138.93 125.15 140.23 126.14 140.23 126.14" style="fill:#fa7267"/><path d="M136.35,131.88h0l4.69-1.64s0,0,0-.05l-.58-2.88s0,0,0,0,0,0,0,0l.58,2.84-4.62,1.61-.68-3.3s0,0,0,0,0,0,0,.05l.7,3.34s0,0,0,0Z" style="fill:#060633"/><path d="M140.52,120.09a5.79,5.79,0,0,1-1.75-7.81s4.19-2.8,6.91-.49a4.63,4.63,0,0,1,1.3,5.57c-.16.37-6.46,2.73-6.46,2.73Z" style="fill:#060633"/><path d="M143.68,111.17a4.05,4.05,0,0,0-4.46,4.93,17.85,17.85,0,0,0,.92,3.61,4.06,4.06,0,0,1,.14,3l-.34,1c2.09,1.61,3.32.65,3.32.65l.46-2.31h0c2.55.19,3.12-4.49,3.39-5.85h0a.83.83,0,0,0,0-.15,4.05,4.05,0,0,0-3.46-4.8Z" style="fill:#f9a58f"/><path d="M146,117.8a.36.36,0,1,0-.44.23.35.35,0,0,0,.44-.23Z" style="fill:#060633"/><path d="M142.6,117.52a.35.35,0,1,0-.67-.2.35.35,0,1,0,.67.2Z" style="fill:#060633"/><path d="M141.78,116.33a.14.14,0,0,1-.1-.07.14.14,0,0,1,0-.2,1.69,1.69,0,0,1,1.16-.22.14.14,0,0,1,.12.16.16.16,0,0,1-.17.13,1.49,1.49,0,0,0-1,.17.17.17,0,0,1-.1,0Z" style="fill:#060633"/><path d="M145.23,116.19a.16.16,0,0,1,0-.11.15.15,0,0,1,.14-.15,1.8,1.8,0,0,1,1.1.43.15.15,0,0,1,0,.21.14.14,0,0,1-.21,0,1.48,1.48,0,0,0-.89-.36.17.17,0,0,1-.1,0Z" style="fill:#060633"/><path d="M143.91,119.15a.62.62,0,0,0,.66-.44.1.1,0,0,0,0-.09,1.85,1.85,0,0,1-.11-1.18.12.12,0,0,0-.09-.15.13.13,0,0,0-.15.09,2.09,2.09,0,0,0,.11,1.31c0,.09-.18.28-.57.19a.12.12,0,0,0-.15.09.12.12,0,0,0,.09.15l.22,0Z" style="fill:#d87464"/><path d="M139.35,117.5c.29.76,2.41-4.07,4.86-3.82s2.63,3.91,2.63,3.91a5.38,5.38,0,0,0,.34-3.63A4.37,4.37,0,0,0,142,111c-2.61.76-4,2.86-2.6,6.49Z" style="fill:#060633"/><path d="M140.22,117.45a.59.59,0,0,0-.26-.34,1,1,0,0,0-1.11-.12c-.58.4.15,1.88,1.24,1.43,0,0,.33-.22.13-1Z" style="fill:#f9a58f"/><path d="M145,119.74s-.45-.34-.63-.31a.52.52,0,0,0-.31.24.41.41,0,0,0-.31-.25,3.78,3.78,0,0,0-1,.32s.61,1,1.29,1,1-1,1-1Z" style="fill:#ea6868"/><path d="M142.73,119.74a22,22,0,0,0,2.25,0s-.47.65-1,.61a3.39,3.39,0,0,1-1.26-.61Z" style="fill:#91b5f8"/><path d="M138.34,111.21a1.36,1.36,0,0,0-1.47.35,6,6,0,0,0-.34.61,2.72,2.72,0,0,1-2.54,1,9,9,0,0,0-2.83-.05,1.29,1.29,0,0,0-.5.24,1.48,1.48,0,0,0-.34.92l-.15,1.27a1.94,1.94,0,0,1-.21.8c-.32.51-1,.62-1.5.92a2.44,2.44,0,0,0-.65,3.3,2.78,2.78,0,0,0,4.4.4c.43-.47.69-1.07,1.08-1.58a1.8,1.8,0,0,1,1.61-.84c.3,0,.62.22.91.09a.86.86,0,0,0,.33-.3,4.15,4.15,0,0,0,.76-2,3.12,3.12,0,0,1,.2-1.06c.42-.85,1.8-1,2-2a4.2,4.2,0,0,1,.06-.61c.13-.44.37-.36.19-.8a1.84,1.84,0,0,0-1-.67Z" style="fill:#060633"/></svg>